<?xml version="1.0" encoding="utf-8"?>
<!-- Generator: Adobe Illustrator 16.0.0, SVG Export Plug-In . SVG Version: 6.00 Build 0)  -->
<!DOCTYPE svg PUBLIC "-//W3C//DTD SVG 1.1//EN" "http://www.w3.org/Graphics/SVG/1.1/DTD/svg11.dtd">
<svg version="1.1" id="Layer_1" xmlns="http://www.w3.org/2000/svg" xmlns:xlink="http://www.w3.org/1999/xlink" x="0px" y="0px"
	 width="533px" height="497.298px" viewBox="0 0 533 497.298" enable-background="new 0 0 533 497.298" xml:space="preserve">
<path fill="#A7D4EB" enable-background="new    " d="M65.494,238.494c0,0-117.427,87.529,13.402,192.193
	c0,0,188.905,125.724,358.024,13.402c0,0,141.679-93.814,74.03-283.357c0,0-51.683-181.245-254.632-151.25
	c0,0-71.428,19.146-101.451,120.618C154.868,130.101,115.272,215.422,65.494,238.494z"/>
<g>
	<g>
		<g>
			<path fill="#3EB785" d="M99.772,308.869c-0.783,2.621-3.705,3.938-6.25,2.933c-1.438-0.566-2.826-1.825-3.272-4.492
				c-0.536-3.209,2.154-4.558-5.5-6.936c-6.149-1.911-6.059-5.674-5.341-10.457c0.717-4.783-0.239-5.739-5.022-8.849
				c-4.783-3.108-9.133-5.084-6.537-11.479c2.232-5.501,3.986-8.436,1.833-15.61s-2.63-11.718,1.674-12.436
				c4.305-0.717,7.414,2.63,8.849,6.697c1.435,4.065-0.479,6.936,4.065,10.283s8.849,3.348,10.762,8.609s-5.022,13.393-2.152,16.502
				c2.87,3.108,8.37,4.544,8.37,9.087c0,4.544-5.508,7.283-2.549,11.228C100.615,306.499,100.115,307.721,99.772,308.869z"/>
			<path fill="#15A374" d="M98.393,317.119c-1.573-6.9-3.518-13.761-5.638-20.554c0.732-0.877,1.233-2.163,1.724-3.118
				c0.686-1.335,1.32-2.691,1.982-4.036c0.179-0.361-0.39-0.724-0.618-0.375c-0.755,1.152-1.506,2.307-2.226,3.482
				c-0.418,0.682-0.979,1.457-1.426,2.255c-0.521-1.645-1.052-3.286-1.589-4.923c-1.949-5.938-4.037-11.837-6.284-17.68
				c0.664-0.949,1.271-1.943,1.911-2.905c0.721-1.086,1.534-2.16,2.122-3.324c0.202-0.399-0.373-0.651-0.638-0.366
				c-0.919,0.988-1.669,2.181-2.458,3.273c-0.479,0.661-0.976,1.312-1.458,1.972c-0.982-2.521-1.993-5.032-3.038-7.532
				c-1.178-2.817-2.437-5.598-3.74-8.359c0.636-2.301,1.143-4.628,1.714-6.945c0.086-0.348-0.429-0.486-0.535-0.146
				c-0.596,1.918-1.245,3.814-1.821,5.736c-0.877-1.836-1.772-3.666-2.675-5.494c-0.203-0.411-0.761-0.081-0.594,0.32
				c0.969,2.329,1.931,4.661,2.883,6.997c-1.338-1.083-2.713-2.116-4.055-3.198c-0.22-0.178-0.518,0.127-0.305,0.325
				c1.734,1.615,3.379,3.31,5.17,4.866c1.903,4.699,3.766,9.414,5.564,14.149c-1.021-0.37-2.106-0.63-3.112-0.938
				c-1.641-0.502-3.282-1.007-4.935-1.471c-0.456-0.129-0.692,0.627-0.249,0.799c1.595,0.616,3.208,1.188,4.819,1.761
				c1.304,0.462,2.67,1.082,4.048,1.361c2.717,7.215,5.282,14.479,7.617,21.813c-0.38-0.147-0.769-0.276-1.136-0.414
				c-0.716-0.268-1.442-0.504-2.167-0.749c-1.464-0.494-2.938-1.034-4.444-1.383c-0.401-0.093-0.744,0.493-0.325,0.706
				c1.547,0.783,3.218,1.356,4.833,1.978c1.139,0.438,2.437,1.054,3.682,1.266c0.594,1.893,1.174,3.789,1.736,5.691
				c1.516,5.131,2.854,10.299,4.288,15.448C97.266,318.294,98.597,318.016,98.393,317.119z"/>
		</g>
		<g>
			<path fill="#15A374" d="M97.881,309.325c1.333,2.39,4.469,3.041,6.736,1.51c1.281-0.865,2.364-2.394,2.222-5.095
				c-0.171-3.248-3.089-3.982,3.868-7.962c5.589-3.197,4.686-6.851,2.949-11.365c-1.736-4.514-1.009-5.655,2.987-9.727
				c3.996-4.07,7.815-6.941,3.896-12.623c-3.37-4.887-5.718-7.372-5.171-14.842c0.548-7.471,0.031-12.011-4.328-11.779
				c-4.358,0.232-6.668,4.174-7.188,8.454c-0.521,4.28,1.969,6.667-1.742,10.92s-7.914,5.185-8.642,10.736
				c-0.729,5.551,7.803,11.986,5.675,15.644c-2.128,3.656-7.188,6.249-6.203,10.685c0.984,4.437,6.955,5.917,4.92,10.408
				C96.545,307.194,97.297,308.278,97.881,309.325z"/>
			<path fill="#0A8E5F" d="M101.014,317.081c0.042-7.077,0.455-14.196,1.053-21.287c-0.905-0.698-1.672-1.845-2.358-2.671
				c-0.958-1.154-1.871-2.342-2.81-3.511c-0.252-0.314,0.224-0.791,0.522-0.501c0.987,0.962,1.97,1.927,2.928,2.918
				c0.556,0.576,1.272,1.211,1.88,1.894c0.153-1.72,0.315-3.437,0.485-5.15c0.617-6.219,1.377-12.43,2.306-18.621
				c-0.854-0.782-1.662-1.622-2.494-2.423c-0.939-0.904-1.965-1.776-2.792-2.786c-0.284-0.346,0.223-0.716,0.543-0.495
				c1.111,0.765,2.102,1.768,3.109,2.663c0.61,0.542,1.237,1.069,1.851,1.609c0.413-2.675,0.855-5.346,1.334-8.012
				c0.54-3.006,1.167-5.992,1.841-8.971c-1.119-2.108-2.118-4.271-3.178-6.409c-0.159-0.32,0.313-0.568,0.491-0.259
				c0.998,1.742,2.042,3.454,3.021,5.205c0.459-1.982,0.937-3.963,1.422-5.942c0.109-0.446,0.725-0.245,0.649,0.183
				c-0.441,2.484-0.875,4.97-1.299,7.457c1.071-1.349,2.19-2.653,3.266-4.002c0.177-0.221,0.534,0.012,0.369,0.252
				c-1.343,1.953-2.583,3.963-3.994,5.871c-0.84,5-1.638,10.006-2.368,15.019c0.917-0.582,1.92-1.071,2.835-1.59
				c1.494-0.847,2.986-1.694,4.499-2.506c0.417-0.224,0.812,0.463,0.417,0.726c-1.423,0.948-2.875,1.856-4.324,2.764
				c-1.173,0.733-2.373,1.635-3.657,2.206c-1.09,7.632-2.021,15.279-2.712,22.945c0.339-0.227,0.69-0.437,1.02-0.65
				c0.641-0.417,1.299-0.805,1.953-1.2c1.322-0.8,2.645-1.646,4.039-2.313c0.372-0.178,0.833,0.321,0.47,0.619
				c-1.34,1.101-2.847,2.021-4.291,2.979c-1.016,0.674-2.15,1.556-3.32,2.032c-0.17,1.977-0.326,3.954-0.462,5.933
				c-0.369,5.337-0.557,10.672-0.84,16.01C102.369,317.983,101.009,318,101.014,317.081z"/>
		</g>
		<g>
			<path fill="#FFFFFF" d="M114.476,310.549c0,0-0.89,24.017-2.003,28.021c-1.111,4.002-2.667,4.892-6.226,4.892H88.013
				c-2.891,0-5.338-2.669-6.004-7.115c-0.667-4.447-0.445-25.797-0.445-25.797H114.476z"/>
			<path fill="#A6BDE2" d="M93.723,343.461h-5.709c-2.891,0-5.338-2.669-6.004-7.115c-0.667-4.447-0.445-25.797-0.445-25.797h9.761
				v26.415C91.325,339.088,92.499,341.537,93.723,343.461z"/>
		</g>
	</g>
	<g>
		<g>
			<path fill="#3EB785" d="M466.973,308.869c-0.783,2.621-3.705,3.938-6.249,2.933c-1.438-0.566-2.827-1.825-3.272-4.492
				c-0.536-3.209,2.153-4.558-5.501-6.936c-6.149-1.911-6.058-5.674-5.341-10.457c0.718-4.783-0.239-5.739-5.021-8.849
				c-4.783-3.108-9.133-5.084-6.538-11.479c2.232-5.501,3.986-8.436,1.834-15.61s-2.631-11.718,1.674-12.436
				c4.305-0.717,7.414,2.63,8.849,6.697c1.436,4.065-0.479,6.936,4.065,10.283s8.849,3.348,10.763,8.609
				c1.913,5.262-5.022,13.393-2.153,16.502c2.87,3.108,8.371,4.544,8.371,9.087c0,4.544-5.508,7.283-2.55,11.228
				C467.815,306.499,467.315,307.721,466.973,308.869z"/>
			<path fill="#15A374" d="M465.594,317.119c-1.573-6.9-3.519-13.761-5.638-20.554c0.731-0.877,1.233-2.163,1.724-3.118
				c0.686-1.335,1.319-2.691,1.982-4.036c0.179-0.361-0.39-0.724-0.618-0.375c-0.756,1.152-1.506,2.307-2.226,3.482
				c-0.418,0.682-0.979,1.457-1.426,2.255c-0.521-1.645-1.053-3.286-1.59-4.923c-1.949-5.938-4.036-11.837-6.283-17.68
				c0.664-0.949,1.271-1.943,1.91-2.905c0.721-1.086,1.533-2.16,2.122-3.324c0.201-0.399-0.373-0.651-0.639-0.366
				c-0.919,0.988-1.669,2.181-2.458,3.273c-0.479,0.661-0.977,1.312-1.459,1.972c-0.981-2.521-1.993-5.032-3.037-7.532
				c-1.178-2.817-2.438-5.598-3.74-8.359c0.636-2.301,1.143-4.628,1.714-6.945c0.086-0.348-0.429-0.486-0.535-0.146
				c-0.597,1.918-1.245,3.814-1.821,5.736c-0.878-1.836-1.772-3.666-2.676-5.494c-0.203-0.411-0.761-0.081-0.594,0.32
				c0.969,2.329,1.931,4.661,2.883,6.997c-1.338-1.083-2.712-2.116-4.055-3.198c-0.221-0.178-0.519,0.127-0.306,0.325
				c1.734,1.615,3.38,3.31,5.171,4.866c1.903,4.699,3.766,9.414,5.564,14.149c-1.021-0.37-2.106-0.63-3.112-0.938
				c-1.641-0.502-3.282-1.007-4.935-1.471c-0.456-0.129-0.691,0.627-0.249,0.799c1.595,0.616,3.208,1.188,4.819,1.761
				c1.304,0.462,2.67,1.082,4.048,1.361c2.717,7.215,5.281,14.479,7.617,21.813c-0.38-0.147-0.769-0.276-1.137-0.414
				c-0.716-0.268-1.442-0.504-2.167-0.749c-1.463-0.494-2.938-1.034-4.443-1.383c-0.401-0.093-0.744,0.493-0.325,0.706
				c1.547,0.783,3.218,1.356,4.834,1.978c1.139,0.438,2.437,1.054,3.682,1.266c0.595,1.893,1.174,3.789,1.735,5.691
				c1.516,5.131,2.854,10.299,4.288,15.448C464.467,318.294,465.798,318.016,465.594,317.119z"/>
		</g>
		<g>
			<path fill="#15A374" d="M465.082,309.325c1.332,2.39,4.469,3.041,6.736,1.51c1.281-0.865,2.364-2.394,2.222-5.095
				c-0.172-3.248-3.089-3.982,3.868-7.962c5.589-3.197,4.686-6.851,2.949-11.365c-1.736-4.514-1.01-5.655,2.986-9.727
				c3.996-4.07,7.814-6.941,3.896-12.623c-3.37-4.887-5.718-7.372-5.171-14.842c0.548-7.471,0.03-12.011-4.327-11.779
				c-4.358,0.232-6.668,4.174-7.188,8.454c-0.521,4.28,1.969,6.667-1.742,10.92s-7.913,5.185-8.642,10.736
				c-0.729,5.551,7.804,11.986,5.675,15.644c-2.128,3.656-7.188,6.249-6.203,10.685c0.984,4.437,6.954,5.917,4.921,10.408
				C463.746,307.194,464.498,308.278,465.082,309.325z"/>
			<path fill="#0A8E5F" d="M468.215,317.081c0.042-7.077,0.454-14.196,1.053-21.287c-0.904-0.698-1.673-1.845-2.358-2.671
				c-0.958-1.154-1.871-2.342-2.81-3.511c-0.253-0.314,0.224-0.791,0.521-0.501c0.988,0.962,1.971,1.927,2.928,2.918
				c0.557,0.576,1.272,1.211,1.881,1.894c0.152-1.72,0.315-3.437,0.485-5.15c0.617-6.219,1.377-12.43,2.306-18.621
				c-0.854-0.782-1.662-1.622-2.494-2.423c-0.939-0.904-1.966-1.776-2.792-2.786c-0.283-0.346,0.224-0.716,0.544-0.495
				c1.111,0.765,2.102,1.768,3.109,2.663c0.61,0.542,1.236,1.069,1.851,1.609c0.412-2.675,0.855-5.346,1.334-8.012
				c0.54-3.006,1.167-5.992,1.841-8.971c-1.119-2.108-2.117-4.271-3.177-6.409c-0.159-0.32,0.313-0.568,0.49-0.259
				c0.997,1.742,2.042,3.454,3.021,5.205c0.459-1.982,0.937-3.963,1.422-5.942c0.109-0.446,0.726-0.245,0.649,0.183
				c-0.441,2.484-0.875,4.97-1.299,7.457c1.071-1.349,2.189-2.653,3.266-4.002c0.177-0.221,0.533,0.012,0.368,0.252
				c-1.343,1.953-2.582,3.963-3.993,5.871c-0.841,5-1.638,10.006-2.368,15.019c0.917-0.582,1.92-1.071,2.835-1.59
				c1.493-0.847,2.986-1.694,4.499-2.506c0.417-0.224,0.812,0.463,0.416,0.726c-1.423,0.948-2.874,1.856-4.324,2.764
				c-1.172,0.733-2.372,1.635-3.656,2.206c-1.09,7.632-2.021,15.279-2.712,22.945c0.339-0.227,0.69-0.437,1.02-0.65
				c0.641-0.417,1.299-0.805,1.953-1.2c1.322-0.8,2.645-1.646,4.039-2.313c0.372-0.178,0.833,0.321,0.47,0.619
				c-1.34,1.101-2.848,2.021-4.291,2.979c-1.016,0.674-2.15,1.556-3.319,2.032c-0.171,1.977-0.325,3.954-0.462,5.933
				c-0.368,5.337-0.557,10.672-0.841,16.01C469.569,317.983,468.209,318,468.215,317.081z"/>
		</g>
		<g>
			<path fill="#FFFFFF" d="M481.677,310.549c0,0-0.89,24.017-2.003,28.021c-1.111,4.002-2.667,4.892-6.227,4.892h-18.233
				c-2.891,0-5.338-2.669-6.005-7.115c-0.666-4.447-0.444-25.797-0.444-25.797H481.677z"/>
			<path fill="#A6BDE2" d="M460.924,343.461h-5.71c-2.891,0-5.338-2.669-6.005-7.115c-0.666-4.447-0.444-25.797-0.444-25.797h9.761
				v26.415C458.525,339.088,459.699,341.537,460.924,343.461z"/>
		</g>
	</g>
	<path fill="#E25364" d="M396.677,269.668l-21.326-0.171l-18.693-0.147c0,0,6.218-3.349,8.291-3.986
		c0.861-0.265,4.881-1.327,9.289-2.476c6.21-1.624,13.192-3.424,13.192-3.424s10.523-22.163,14.214-24.713
		c3.691-2.551,7.311-3.03,10.818,0.797S396.677,269.668,396.677,269.668z"/>
	<path fill="#FEC869" d="M375.351,269.497l-18.693-0.147c0,0,6.218-3.349,8.291-3.986c0.861-0.265,4.881-1.327,9.289-2.476
		L375.351,269.497z"/>
	<path fill="#FFFFFF" d="M203.349,243.36l-2.781,23.81H173.15v1.04c0,0.541,0.438,0.979,0.979,0.979h26.592
		c0.48,0,0.879-0.346,0.962-0.802h0.017l2.775-23.761C204.555,243.952,204.028,243.36,203.349,243.36z"/>
	<g>
		<g>
			<g>
				<rect x="212.072" y="251.108" fill="#2C2950" width="18.176" height="38.504"/>
				<path fill="#2C2950" d="M240.713,279.633h-33.945c-2.551,0-4.62-2.068-4.62-4.619v-30.569c0-2.551,2.068-4.619,4.62-4.619
					h33.945c2.551,0,4.62,2.068,4.62,4.619v30.569C245.333,277.564,243.264,279.633,240.713,279.633z"/>
			</g>
			<g>
				<rect x="235.289" y="291.525" fill="#A6BDE2" width="3.587" height="46.962"/>
				<polygon fill="#E8F6FE" points="239.788,315.534 234.686,315.534 234.686,339.167 239.894,339.167 				"/>
				<polygon fill="#2C2950" points="265.708,340.79 262.929,335.991 213.258,335.991 210.132,340.982 				"/>
			</g>
			<g>
				<path fill="#201F39" d="M268.034,293.438h-60.505l0,0c0-2.901,2.352-5.254,5.254-5.254h49.998
					C265.682,288.185,268.034,290.537,268.034,293.438L268.034,293.438z"/>
				<path fill="#2C2950" d="M207.529,293.438L207.529,293.438c0,1.93,1.564,3.494,3.494,3.494h15.979
					c1.93,0,3.494-1.564,3.494-3.494l0,0H207.529z"/>
			</g>
		</g>
		<g>
			<g>
				<path fill="#2C2950" d="M222.205,203.42c-1.068,0.107-1.475,0.757-2.192,2.551c-0.717,1.793-1.714,2.033-2.83,2.232
					s-1.796,0.221-2.206,1.143c-0.797,1.794,0.85,2.804,0.531,3.76s-0.398,1.475-1.634,2.671c-1.235,1.196-0.159,2.591,0.718,3.109
					s1.156,1.395,1.076,2.392s-0.16,1.953,0.837,2.192s2.073-0.398,2.87,0.438c0.797,0.837,0.957,1.515,2.67,1.993
					c1.714,0.478,3.585-1.312,5.421-1.396c2.63-0.119,3.468,1.834,5.7,1.355c1.184-0.253,0.877-1.913,2.671-2.272
					c1.793-0.359,2.312-0.479,2.551-1.355c0.239-0.876-0.837-2.392,0.04-3.866c0.877-1.475,2.71-1.953,2.95-3.269
					s-1.754-2.312-2.591-3.587c-0.837-1.275-0.877-4.226-1.515-5.222c-0.638-0.997-2.631-0.239-3.747-0.718
					c-1.116-0.478-1.807-1.86-3.428-1.953c-1.178-0.067-2.63,1.103-4.544,0.678C224.283,204.015,223.401,203.3,222.205,203.42z"/>
				<g>
					<g>
						<path fill="#FEC869" d="M234.083,228.691c-3.694,4.544-10.231,4.092-13.739-0.106c2.418-0.664,3.07-2.013,3.713-3.796
							c0.199-0.552,0.322-1.082,0.394-1.567c0.227-1.529-0.054-2.622-0.054-2.622s2.87-2.232,6.059,0.08
							c-0.124,1.266-0.146,2.291-0.072,3.139C230.624,226.526,231.869,227.448,234.083,228.691z"/>
						<path fill="#F5B54C" d="M230.384,223.819c-0.938,0.483-1.961,0.809-2.917,0.687c-1.36-0.173-2.352-0.741-3.015-1.285
							c0.227-1.529-0.054-2.622-0.054-2.622s2.87-2.232,6.059,0.08C230.332,221.945,230.31,222.971,230.384,223.819z"/>
					</g>
					<g>
						<g>
							<path fill="#FEC869" d="M222.09,215.355c-0.075-0.15-0.833-1.662-2.038-0.914c-1.315,0.817,0.046,3.657,1.324,3.77
								c1.277,0.112,1.541-0.602,1.541-0.602L222.09,215.355z"/>
							<path fill="#F1A129" d="M220.172,215.896c0,0-0.259-0.877,0.399-1.057c0.568-0.155,1.017,0.458,1.555,1.096
								c0.06,0.518,0.06,0.518,0.06,0.518s-0.925-0.377-0.937,0.06c-0.02,0.757,0.997,0.777,0.997,0.777l0.08,0.358
								c0,0-1.823-0.045-1.555-1.295c0.12-0.558,1.076-0.338,1.076-0.338s-0.479-0.698-0.977-0.678
								C220.39,215.357,220.172,215.896,220.172,215.896z"/>
						</g>
						<g>
							<path fill="#FEC869" d="M232.87,215.355c0.075-0.15,0.833-1.662,2.038-0.914c1.315,0.817-0.046,3.657-1.324,3.77
								c-1.277,0.112-1.54-0.602-1.54-0.602L232.87,215.355z"/>
							<path fill="#F1A129" d="M234.789,215.896c0,0,0.259-0.877-0.399-1.057c-0.567-0.155-1.016,0.458-1.554,1.096
								c-0.06,0.518-0.06,0.518-0.06,0.518s0.925-0.377,0.937,0.06c0.02,0.757-0.997,0.777-0.997,0.777l-0.08,0.358
								c0,0,1.822-0.045,1.554-1.295c-0.12-0.558-1.076-0.338-1.076-0.338s0.479-0.698,0.977-0.678
								C234.57,215.357,234.789,215.896,234.789,215.896z"/>
						</g>
						<g>
							<path fill="#FEC869" d="M233.226,215.094c-0.274,1.786-0.743,3.849-1.553,5.346c-1.65,3.048-5.699,2.878-7.32,0.993
								c-1.376-1.603-2.248-4.461-2.516-6.996c0.319-0.043,0.622-0.219,0.803-0.486c0.195-0.289,0.244-0.649,0.365-0.974
								c0.121-0.327,0.367-0.657,0.714-0.684c0.343-0.025,0.581,0.003,0.923,0.037c0.556,0.053,1.189-0.108,1.625-0.472
								c0.193-0.159,0.258-0.384,0.448-0.555c0.523-0.47,1.133-0.313,1.763-0.455c0.62-0.139,1.202-0.446,1.658-0.888
								c-0.226,0.313-0.116,0.771,0.131,1.068c0.246,0.297,0.598,0.481,0.92,0.694c0.324,0.212,0.639,0.485,0.741,0.856
								c0.089,0.329-0.003,0.678,0.032,1.014c0.046,0.462,0.333,0.877,0.698,1.164C232.833,214.892,233.025,215.002,233.226,215.094
								z"/>
							<path fill="#FFFFFF" d="M229.751,217.817c0,0-0.926,2.019-2.359,1.676c-1.432-0.343-1.989-1.593-1.989-1.593L229.751,217.817
								z"/>
							<path fill="#F1A129" d="M228.049,216.973h-0.742c-0.088,0-0.159-0.072-0.159-0.16s0.071-0.159,0.159-0.159h0.742
								c0.118,0,0.215-0.096,0.215-0.215v-2.868c0-0.087,0.071-0.16,0.159-0.16s0.159,0.072,0.159,0.16v2.868
								C228.583,216.733,228.343,216.973,228.049,216.973z"/>
							<g>
								<path fill="#292952" d="M225.483,214.355c-0.769,0-0.84,1.196-0.067,1.196C226.184,215.551,226.255,214.355,225.483,214.355
									z"/>
								<path fill="#292952" d="M224.566,213.903c0,0,0.278-0.315,0.714-0.382c0.557-0.085,0.837,0.03,0.837,0.03
									s-0.173-0.449-0.698-0.488C225.062,213.038,224.619,213.24,224.566,213.903z"/>
							</g>
							<g>
								<path fill="#292952" d="M230.47,214.275c-0.769,0-0.84,1.196-0.067,1.196C231.171,215.471,231.243,214.275,230.47,214.275z"
									/>
								<path fill="#292952" d="M231.403,213.937c0,0-0.278-0.315-0.714-0.382c-0.557-0.085-0.837,0.03-0.837,0.03
									s0.173-0.449,0.698-0.488C230.908,213.071,231.35,213.273,231.403,213.937z"/>
							</g>
							<g>
								<path fill="#F5B54C" d="M228.37,220.321c-0.241-0.414-1.993-0.212-1.382,0.186S228.556,220.64,228.37,220.321z"/>
							</g>
						</g>
					</g>
				</g>
			</g>
			<g>
				<g>
					<path fill="#FEC869" d="M291.124,340.408h-22.362c0,0-0.019-0.632,0.158-1.809c0.043-0.283,0.082-0.565,0.118-0.85
						c0.556-4.392,0.332-8.849-0.698-13.159c-0.771-3.224-1.543-6.615-1.918-10.293c-0.188-1.85-0.274-3.771-0.21-5.778
						c9.779,0,12.968,0.318,12.968,0.318l-0.509,6.912l-1.18,16.038c-0.069,0.925,0.512,1.771,1.396,2.046
						c1.158,0.357,2.782,0.902,4.146,1.524c2.54,1.157,6.258,2.594,8.396,4.065C291.865,339.724,291.653,340.408,291.124,340.408z"
						/>
					<path fill="#F5B54C" d="M279.179,308.838l-0.509,6.912l-12.249-1.452c-0.188-1.85-0.274-3.771-0.21-5.778
						C275.99,308.52,279.179,308.838,279.179,308.838z"/>
					<path fill="#B24E54" d="M291.123,340.408h-22.361c0,0-0.019-0.632,0.158-1.809c0.043-0.283,0.082-0.565,0.118-0.85h10.387
						c0,0,1.44-1.55,3.607-2.392c2.541,1.158,6.264,2.596,8.4,4.068C291.867,339.726,291.651,340.408,291.123,340.408z"/>
				</g>
				<g>
					<path fill="#E25364" d="M221.898,278.439c0.49-2.927,3.1-5.024,6.066-5c4.783,0.041,13.65,0.134,18.842,0.299
						c16.788,2.396,27.004,5.723,30.751,9.709c3.747,3.986,2.445,25.284,2.445,25.284h-14.908c0,0-0.904-5.74-0.266-14.987
						c-14.908-0.239-27.272-3.143-32.34-5.103C227.818,286.836,221.006,283.765,221.898,278.439z"/>
					<polygon fill="#C24154" points="263.766,307.137 280.773,307.243 280.813,311.434 263.27,311.33 					"/>
				</g>
			</g>
			<g>
				<g>
					<g>
						<path fill="#FEC869" d="M270.286,234.851c-0.748,3.12-1.881,6.266-2.75,8.458c-0.707,1.785-1.236,2.941-1.236,2.941
							l-5.979-3.348l2.09-3.212l5.643-8.667C268.053,231.024,269.728,232.619,270.286,234.851z"/>
						<path fill="#F5B54C" d="M267.535,243.31c-0.707,1.785-1.236,2.941-1.236,2.941l-5.979-3.348l2.09-3.212L267.535,243.31z"/>
					</g>
					<g>
						<path fill="#FEC869" d="M277.407,232.779c0,0.006-0.001,0.011-0.001,0.018c-0.008,0.08-0.039,0.188-0.089,0.319
							c-0.021,0.054-0.045,0.113-0.073,0.175c-0.129,0.293-0.33,0.665-0.577,1.067c-0.098,0.162-0.204,0.33-0.317,0.499
							c-0.001,0-0.001,0-0.001,0c-0.219,0.325-0.458,0.657-0.707,0.972c-0.142,0.179-0.286,0.351-0.432,0.515
							c-0.631,0.714-1.287,1.251-1.787,1.271c-0.869,0.033-3.188,0.025-4.79,0.014c-0.566-0.005-1.086-0.223-1.477-0.583
							c-0.379-0.351-0.638-0.834-0.697-1.384c-0.059-0.551-0.039-1.154,0.159-1.714c0.585-1.647,3.562-2.364,3.562-2.364
							s0.336-0.02,0.869-0.045c1.937-0.096,6.566-0.094,6.784,0.045C278.324,231.896,277.833,232.619,277.407,232.779z"/>
						<path fill="#F5B54C" d="M271.049,231.538c-0.019,1.048-0.878,2.697-1.082,3.233c-0.243,0.64-3.449,1.44-3.508,0.89
							c-0.059-0.551-0.039-1.154,0.159-1.714c0.585-1.647,3.562-2.364,3.562-2.364S270.516,231.563,271.049,231.538z"/>
						<path fill="#FEC869" d="M268.368,230.419c0.513-0.361,5.505-0.591,5.638-0.405s0.02,0.777-0.645,1.043
							c-0.664,0.266-3.182,0.524-3.182,0.524s-0.85,1.728-1.196,2.286c-0.345,0.558-2.469,1.643-2.657,1.295
							C265.569,233.768,267.564,230.984,268.368,230.419z"/>
						<path fill="#F5B54C" d="M277.406,232.796c-0.008,0.08-0.039,0.188-0.089,0.319c-0.021,0.054-0.045,0.113-0.073,0.175
							c-1.427-0.019-3.943-0.056-4.378-0.056c-0.612,0-0.585-0.219-0.585-0.404C272.28,232.675,276.219,232.766,277.406,232.796z"/>
						<path fill="#F5B54C" d="M276.666,234.357c-0.098,0.162-0.204,0.33-0.317,0.499c-0.001,0-0.001,0-0.001,0
							c-1.402-0.02-3.128-0.043-3.482-0.043c-0.612,0-0.725-0.282-0.585-0.403C272.444,234.266,275.076,234.322,276.666,234.357z"/>
						<path fill="#F5B54C" d="M275.641,235.829c-0.142,0.179-0.286,0.351-0.432,0.515c-1.075-0.014-2.083-0.027-2.344-0.027
							c-0.612,0-0.726-0.284-0.585-0.404C272.516,235.711,274.174,235.776,275.641,235.829z"/>
						<path fill="#F5B54C" d="M272.504,232.193c0,0.1,0,4.664,0,4.664s-0.501-0.656-0.538-1.914
							C271.906,232.891,272.504,232.193,272.504,232.193z"/>
					</g>
				</g>
				<path fill="#664A8F" d="M267.398,244.729c-2.39,6.623-5.884,11.828-6.814,13.409c-1.704,2.895-3.473,3.537-9.181-0.271
					c-13.32-8.889-13.84-22.411-12.287-24.841c1.553-2.432,3.511-0.405,3.511-0.405l13.5,14.379l4.696-6.102L267.398,244.729z"/>
			</g>
			<g>
				<path fill="#7B58A3" d="M246.807,273.738c0,0-7.988-0.256-13.482-0.17c-0.399,0.006-0.785,0.014-1.153,0.023
					c-1.076,0.03-2.006,0.077-2.69,0.146c-4.146,0.426-10.204,2.87-13.393,9.779c-2.444-3.932-2.125-14.879-2.125-14.879
					l-7.653-0.107c0,0-0.743-26.892,2.02-31.992c1.835-3.39,6.534-5.786,9.48-7.014c0.585-0.244,1.102-0.442,1.513-0.591
					l0.006-0.002c0.633-0.229,1.014-0.348,1.014-0.348s0.769,0.007,1.972,0.027c1.125,0.812,3.097,2.057,5.35,2.67
					c0.213-0.037,0.424-0.081,0.631-0.132c1.783-0.441,3.319-1.406,4.273-2.119c1.784,0.144,3.235,0.332,3.865,0.577
					c0.319,0.125,0.714,0.263,1.163,0.421c2.86,1.004,4.96,1.529,5.973,4.562C244.739,238.099,246.807,273.738,246.807,273.738z"/>
				<path fill="#664A8F" d="M233.325,273.568c-0.399,0.006-0.785,0.014-1.153,0.023l-4.506-42.31
					c0.213-0.037,0.424-0.081,0.631-0.132L233.325,273.568z"/>
				<path fill="#664A8F" d="M237.598,230.029c-0.713,2.18-3.272,7.143-5.667,7.379c-2.71,0.265-4.305-3.508-4.305-3.508
					s-1.063,3.349-3.667,3.772c-3.669,0.6-5.657-6.196-6.148-8.147c0.585-0.244,1.102-0.442,1.513-0.591l0.006-0.002
					c0.633-0.229,1.014-0.348,1.014-0.348s0.769,0.007,1.972,0.027c1.125,0.812,3.097,2.057,5.35,2.67
					c2.049-0.346,3.839-1.456,4.904-2.251c1.784,0.144,3.235,0.332,3.865,0.577C236.754,229.733,237.149,229.872,237.598,230.029z"
					/>
				<path fill="#FFFFFF" d="M227.666,231.282c-0.85,1.94-2.012,4.46-3.974,3.974c-3.799-0.944-4.703-6.139-4.703-6.139l0.334-0.183
					l0.006-0.002l1.998-1.09c0,0,0.362,0.317,0.988,0.77C223.441,229.423,225.413,230.668,227.666,231.282z"/>
				<path fill="#FFFFFF" d="M236.435,229.608c0,0-2.352,5.102-4.903,5.5c-2.551,0.399-3.866-3.827-3.866-3.827
					c2.049-0.346,3.839-1.456,4.904-2.251c0.654-0.488,1.035-0.858,1.035-0.858L236.435,229.608z"/>
			</g>
			<g>
				<g>
					<path fill="#FEC869" d="M240.125,336.868c1.47-1.204,3.264-2.604,5.359-4.113c-2.902-7.479-4.632-13.346-5.65-17.539
						c-0.923-3.795-1.265-6.218-1.365-7.229c9.459,0,13.5,0.532,13.5,0.532l0.035,5.479l0.159,24.321l0.018,2.726h-16.794
						C235.386,341.046,237.042,339.389,240.125,336.868z"/>
					<path fill="#F5B54C" d="M251.968,308.52l0.035,5.479l-12.17,1.217c-0.923-3.795-1.265-6.218-1.365-7.229
						C247.928,307.987,251.968,308.52,251.968,308.52z"/>
					<path fill="#B24E54" d="M252.18,341.046h-16.794c0,0,1.656-1.657,4.738-4.178c1.11-0.431,2.52-0.84,3.817-0.819
						c3.184,0.051,5.807,1.17,8.221,2.271L252.18,341.046z"/>
				</g>
				<g>
					<path fill="#F1656F" d="M252.709,310.168h-14.916c0,0-2.132-6.885,0.655-16.721c-10.549-2.522-18.247-4.633-21.536-8.705
						c-1.274-1.577-1.754-3.437-1.706-5.748c0.005-0.252,0.016-0.511,0.034-0.771c0.019-0.287,0.065-0.559,0.139-0.813
						c1.561-5.533,15.091-4.065,19.792-2.812c0,0,13.112,3.114,16.064,8.195C254.184,287.875,252.709,310.168,252.709,310.168z"/>
					<path fill="#E25364" d="M241.321,310.168h-1.477c-0.164-5.323-0.191-14,0.985-20.267c0.097-0.519-0.24-1.016-0.757-1.113
						c-7.889-1.492-19.111-4.916-24.865-9.794c0.005-0.252,0.016-0.511,0.034-0.771c0.019-0.287,0.065-0.559,0.139-0.813
						c2.999,2.524,11.104,7.416,25.162,9.798c1.086,0.184,1.832,0.606,1.701,1.7C241.551,294.647,240.746,303.64,241.321,310.168z"
						/>
					<polygon fill="#E25364" points="236.315,306.579 253.057,307.456 253.456,311.123 235.438,311.123 					"/>
				</g>
			</g>
			<g>
				<path fill="#664A8F" d="M208.33,236.539c1.196-2.368,7.511-2.479,7.923,4.951c0.413,7.43,0.619,25.387-1.341,27.554
					c-1.961,2.168-8.153,2.684-9.391-1.238C204.283,263.884,205.567,242.011,208.33,236.539z"/>
				<g>
					<g>
						<path fill="#FEC869" d="M224.756,252.05c0,0-0.686,2.1-1.881,4.884c-2.216,5.164-6.188,12.686-10.794,13.532
							c-6.936,1.275-8.736-3.842-6.139-6.537c2.621-2.723,7.998-7.582,11.598-10.79c2.097-1.867,3.591-3.173,3.591-3.173
							L224.756,252.05z"/>
						<path fill="#664A8F" d="M222.875,256.934c-2.216,5.164-6.188,12.686-10.794,13.532c-6.936,1.275-8.736-3.842-6.139-6.537
							c2.621-2.723,7.998-7.582,11.598-10.79c0.198,0.595,0.708,1.683,1.955,2.658C220.6,256.661,221.964,256.889,222.875,256.934z"
							/>
					</g>
					<g>
						<path fill="#FEC869" d="M220.644,245.554c0.603-0.534,1.634,0.086,1.634,0.086s0.776-1.905,2.018-0.617
							c0.366-1.671,1.448-1.321,1.89-0.553c0.356-1.25,1.714-1.555,2.007-0.548c0.416,1.427-1.62,7.65-2.428,8.413
							c-0.809,0.764-3.63,0.972-4.95,0.347C219.495,252.056,220.041,246.088,220.644,245.554z"/>
						<path fill="#F5B54C" d="M228.143,251.007c0.306-0.648,0.296-2.059,0.296-2.059s2.323-2.056,1.837-2.585
							c-0.487-0.529-2.206,0.316-2.726,0.966c-0.52,0.649-1.012,2.426-1.012,2.426s-1.614-0.223-2.572,0.793
							c-0.958,1.018-1.806,2.504-1.148,2.525C223.681,253.103,227.499,252.372,228.143,251.007z"/>
						<path fill="#F5B54C" d="M222.277,245.64c0.119,0.588-0.358,3.855-1.311,3.846c-0.891-0.008-1.083-1.125-0.539-3.893
							C220.752,244.753,222.087,244.702,222.277,245.64z"/>
						<path fill="#F5B54C" d="M226.721,244.702c0.138,1.134,0.237,2.892,1.071,3.059c0.818,0.164,1.066-2.936,0.575-3.783
							C227.67,242.773,226.542,243.238,226.721,244.702z"/>
						<path fill="#F5B54C" d="M224.295,245.022c-0.072,0.982-0.048,3.625,1,3.655c1.047,0.03,1.045-3.571,0.845-4.228
							C225.941,243.794,224.438,243.052,224.295,245.022z"/>
						<path fill="#F5B54C" d="M222.336,245.366c-0.325,1.529-0.344,3.729,0.64,3.798c1.032,0.072,1.392-3.663,1.319-4.142
							C224.181,244.276,222.661,243.837,222.336,245.366z"/>
					</g>
				</g>
			</g>
		</g>
	</g>
	<g>
		<g>
			<g>
				<rect x="287.796" y="249.939" fill="#2C2950" width="18.176" height="38.503"/>
				<path fill="#2C2950" d="M316.437,278.464h-33.945c-2.551,0-4.619-2.068-4.619-4.62v-30.568c0-2.551,2.068-4.62,4.619-4.62
					h33.945c2.552,0,4.62,2.068,4.62,4.62v30.568C321.057,276.396,318.988,278.464,316.437,278.464z"/>
			</g>
			<g>
				<rect x="311.013" y="290.356" fill="#A6BDE2" width="3.588" height="46.961"/>
				<polygon fill="#E8F6FE" points="315.512,314.365 310.409,314.365 310.409,337.997 315.618,337.997 				"/>
				<polygon fill="#2C2950" points="341.432,339.621 338.653,334.822 288.981,334.822 285.855,339.813 				"/>
			</g>
			<g>
				<path fill="#201F39" d="M343.758,292.27h-60.506l0,0c0-2.901,2.353-5.254,5.254-5.254h49.998
					C341.405,287.016,343.758,289.368,343.758,292.27L343.758,292.27z"/>
				<path fill="#2C2950" d="M283.252,292.27L283.252,292.27c0,1.93,1.564,3.494,3.495,3.494h15.979c1.93,0,3.494-1.564,3.494-3.494
					l0,0H283.252z"/>
			</g>
		</g>
		<g>
			<g>
				<path fill="#201F39" d="M329.866,274.531c0,0,21.684,5.287,23.916,7.997c2.232,2.711-9.407,55.167-9.407,55.167l-16.369-1.647
					l5.592-44.364c0,0-25.257-4.531-25.895-5.169s-5.899-9.886-2.551-12.915c1.567-1.418,2.627-2.701,4.708-3.064
					c2.082-0.364,4.22-0.08,6.3,0.294C320.813,271.665,325.46,272.819,329.866,274.531z"/>
				<path fill="#B24E54" d="M327.497,340.408l0.426-4.943c0,0,12.33-0.851,17.007-0.372c8.929,4.039,11.055,5.315,11.055,5.315
					H327.497z"/>
			</g>
			<g>
				<path fill="#201F39" d="M290.241,290.236c0,0-2.552-17.061,0.479-20.09c3.029-3.029,12.854-4.319,16.741,1.754
					c2.551,3.986,3.188,17.857,3.188,17.857L290.241,290.236z"/>
				<path fill="#2C2950" d="M297.604,278.129c4.278-0.329,9.228,0.649,12.087,6.888s1.04,52.377,1.04,52.377l-15.206-1.43
					c0,0-6.238-45.878-5.198-50.427C291.365,280.988,294.225,278.389,297.604,278.129z"/>
				<path fill="#B24E54" d="M284.421,340.408c2.585,0,26.309,0,26.309,0l0.001-3.015c0,0-14.518-3.948-15.308-3.869
					C294.633,333.604,284.709,338.786,284.421,340.408z"/>
			</g>
			<g>
				<g>
					<path fill="#FEC869" d="M349.774,232.472c0,0-0.921,2.878-2.768,7.393c-5.645-4.325-5.864-4.912-5.864-4.912l5.482-6.567
						L349.774,232.472z"/>
					<g>
						<path fill="#FEC869" d="M357.417,223.277c0.003,0.006,0.004,0.013,0.007,0.019c0.032,0.089,0.054,0.219,0.065,0.384
							c0.005,0.068,0.01,0.143,0.01,0.223c0.011,0.376-0.017,0.872-0.078,1.422c-0.021,0.222-0.051,0.453-0.086,0.689
							c-0.002,0.001-0.002,0.001-0.002,0.001c-0.069,0.455-0.156,0.927-0.263,1.387c-0.061,0.261-0.127,0.516-0.2,0.764
							c-0.313,1.075-0.739,1.975-1.261,2.246c-0.906,0.471-3.372,1.625-5.08,2.417c-0.604,0.279-1.265,0.308-1.86,0.121
							c-0.579-0.182-1.096-0.565-1.435-1.12c-0.339-0.556-0.619-1.207-0.689-1.9c-0.205-2.042,2.597-4.297,2.597-4.297
							s0.348-0.189,0.9-0.483c2.01-1.073,6.926-3.393,7.228-3.354C357.947,221.879,357.789,222.895,357.417,223.277z"/>
						<path fill="#F5B54C" d="M350.042,225.148c0.505,1.122,0.42,3.305,0.473,3.976c0.063,0.801-2.941,3.26-3.28,2.705
							c-0.339-0.556-0.619-1.207-0.689-1.9c-0.205-2.042,2.597-4.297,2.597-4.297S349.489,225.443,350.042,225.148z"/>
						<path fill="#FEC869" d="M346.634,225.305c0.364-0.64,5.55-3.388,5.784-3.257s0.411,0.815-0.161,1.431
							c-0.572,0.616-3.116,2.153-3.116,2.153s-0.037,2.261-0.124,3.027c-0.087,0.766-1.798,2.983-2.172,2.708
							C345.341,230.265,346.063,226.308,346.634,225.305z"/>
						<path fill="#F5B54C" d="M357.424,223.296c0.032,0.089,0.054,0.219,0.065,0.384c0.005,0.068,0.01,0.143,0.01,0.223
							c-1.524,0.696-4.215,1.918-4.678,2.137c-0.65,0.307-0.73,0.062-0.823-0.135C351.919,225.739,356.149,223.859,357.424,223.296z
							"/>
						<path fill="#F5B54C" d="M357.421,225.325c-0.021,0.222-0.051,0.453-0.086,0.689c-0.002,0.001-0.002,0.001-0.002,0.001
							c-1.498,0.683-3.344,1.523-3.72,1.701c-0.65,0.307-0.911,0.064-0.824-0.135C352.893,227.346,355.716,226.085,357.421,225.325z
							"/>
						<path fill="#F5B54C" d="M357.07,227.402c-0.061,0.261-0.127,0.516-0.2,0.764c-1.148,0.523-2.226,1.016-2.503,1.146
							c-0.65,0.307-0.913,0.063-0.824-0.135C353.692,228.844,355.486,228.082,357.07,227.402z"/>
						<path fill="#F5B54C" d="M351.917,225.114c0.05,0.106,2.339,4.953,2.339,4.953s-0.861-0.445-1.531-1.762
							C351.632,226.155,351.917,225.114,351.917,225.114z"/>
					</g>
				</g>
				<path fill="#3EB785" d="M342.136,232.744l7.122,5.634c0,0-11.59,20.741-17.326,20.514c-8.078-0.318-25.192-20.089-23.811-26.254
					c0.819-3.654,5.746-6.164,8.825-5.102c3.08,1.062,15.836,15.306,15.836,15.306L342.136,232.744z"/>
			</g>
			<g>
				<g>
					<path fill="#FEC869" d="M305.972,223.694c0,0-3.16,3.375-4.969,3.164c-1.806-0.213-7.414-3.548-7.414-3.548
						s1.276-0.571,1.542-1.368c0.104-0.313,0.299-1.449,0.494-2.715c0.307-1.966,0.622-4.248,0.622-4.248l7.813,0.69
						c0,0-0.162,2.54-0.119,4.469c0.021,0.998,0.097,1.833,0.278,2.068C304.75,222.899,305.972,223.694,305.972,223.694z"/>
					<path fill="#F5B54C" d="M303.94,220.139c-0.967,0.856-2.182,1.537-3.603,1.537c-2.072,0-3.676-1.277-4.713-2.449
						c0.307-1.966,0.622-4.248,0.622-4.248l7.813,0.69C304.06,215.67,303.897,218.21,303.94,220.139z"/>
					<g>
						<path fill="#FEC869" d="M293.695,208.389c-0.083,0.146-0.071,11.998,7.44,10.842c6.219-0.957,3.827-12.915,3.827-12.915
							s-4.411-2.179-5.421-1.807S294.599,206.795,293.695,208.389z"/>
						<path fill="#2C2950" d="M294.067,213.927c0.199,0.083,0.398-2.986,0.398-2.986s3.867-1.435,4.584-2.073
							c0.718-0.638,2.552-2.432,2.552-2.432s2.471,1.515,2.869,2.073c0.399,0.558,0.89,3.285,0.89,3.285s2.379-3.923,2.459-4.72
							s-4.345-3.149-4.345-3.149s0.08-2.152-0.479-2.511c-0.558-0.359-10.523,2.631-11.52,4.624
							c-0.996,1.993,1.02,7.586,1.653,7.829C293.765,214.109,294.067,213.927,294.067,213.927z"/>
						<g>
							<path fill="#F1A129" d="M300.416,213.656c-0.118,0-0.259-0.005-0.388-0.01c-0.106-0.004-0.205-0.008-0.274-0.008
								c-0.088,0-0.159-0.071-0.159-0.159s0.071-0.16,0.159-0.16c0.073,0,0.176,0.005,0.286,0.009
								c0.183,0.007,0.408,0.016,0.523,0.006l0.043-0.004c0.15-0.014,0.196-0.021,0.25-0.091c0.036-0.047,0.051-0.125,0.046-0.238
								c-0.027-0.534-0.058-1.013-0.087-1.48c-0.037-0.562-0.071-1.107-0.097-1.716c-0.004-0.088,0.063-0.162,0.151-0.166
								c0.004,0,0.005,0,0.008,0c0.085,0,0.155,0.067,0.158,0.153c0.026,0.605,0.062,1.149,0.096,1.708
								c0.03,0.468,0.063,0.948,0.088,1.485c0.011,0.191-0.025,0.337-0.109,0.448c-0.142,0.184-0.312,0.199-0.476,0.213
								l-0.043,0.004C300.545,213.654,300.484,213.656,300.416,213.656z"/>
							<path fill="#FFFFFF" d="M302.521,214.771c0,0-0.865,2.133-2.364,1.845c-1.499-0.288-2.134-1.557-2.134-1.557L302.521,214.771
								z"/>
							<g>
								<path fill="#292952" d="M303.063,210.542c-0.769,0-0.84,1.196-0.067,1.196C303.765,211.737,303.836,210.542,303.063,210.542
									z"/>
								<path fill="#292952" d="M303.996,210.203c0,0-0.278-0.315-0.714-0.382c-0.557-0.085-0.838,0.03-0.838,0.03
									s0.174-0.45,0.698-0.488C303.501,209.337,303.943,209.54,303.996,210.203z"/>
							</g>
							<g>
								<path fill="#292952" d="M298.243,210.773c0.769,0,0.84,1.196,0.067,1.196C297.541,211.969,297.471,210.773,298.243,210.773z
									"/>
								<path fill="#292952" d="M297.31,210.434c0,0,0.278-0.315,0.715-0.382c0.556-0.085,0.837,0.03,0.837,0.03
									s-0.174-0.449-0.698-0.487C297.805,209.568,297.362,209.771,297.31,210.434z"/>
							</g>
						</g>
						<g>
							<path fill="#FEC869" d="M305.36,210.731c0.04-0.163,0.45-1.804,1.789-1.337c1.462,0.51,0.753,3.579-0.469,3.968
								s-1.635-0.25-1.635-0.25L305.36,210.731z"/>
							<path fill="#F1A129" d="M307.351,210.84c0,0,0.062-0.913-0.62-0.944c-0.588-0.027-0.892,0.669-1.277,1.409
								c0.055,0.519,0.055,0.519,0.055,0.519s0.82-0.571,0.928-0.146c0.185,0.735-0.803,0.976-0.803,0.976v0.368
								c0,0,1.769-0.443,1.234-1.604c-0.238-0.518-1.124-0.095-1.124-0.095s0.314-0.785,0.805-0.875
								C307.02,210.361,307.351,210.84,307.351,210.84z"/>
						</g>
						<g>
							<path fill="#FEC869" d="M294.113,211.762c-0.056-0.159-0.614-1.755-1.904-1.167c-1.409,0.643-0.421,3.633,0.832,3.908
								c1.253,0.274,1.604-0.4,1.604-0.4L294.113,211.762z"/>
							<path fill="#F1A129" d="M292.142,212.054c0,0-0.146-0.903,0.53-0.997c0.583-0.081,0.949,0.584,1.402,1.286
								c-0.007,0.521-0.007,0.521-0.007,0.521s-0.87-0.493-0.938-0.06c-0.116,0.749,0.89,0.898,0.89,0.898l0.033,0.366
								c0,0-1.802-0.278-1.377-1.483c0.19-0.538,1.111-0.199,1.111-0.199s-0.386-0.753-0.883-0.797
								C292.427,211.547,292.142,212.054,292.142,212.054z"/>
						</g>
					</g>
				</g>
				<g>
					<path fill="#E1E1E3" d="M306.238,223.642c0,0-0.017,0.11-0.048,0.317c-0.002,0.011-0.005,0.022-0.007,0.033
						c-0.189,1.189-0.892,5.289-2.328,10.321c-0.391,1.365-0.835,2.8-1.338,4.263c-1.188-1.074-2.262-2.345-3.221-3.689
						c-3.738-5.239-5.708-11.577-5.708-11.577l3.278,0.086l4.136,3.461l2.277-3.294L306.238,223.642z"/>
					<path fill="#3D4275" d="M303.855,234.313c-0.391,1.365-0.835,2.8-1.338,4.263c-1.188-1.074-2.262-2.345-3.221-3.689
						l0.927-5.438l1.364-0.4L303.855,234.313z"/>
					<path fill="#3D4275" d="M298.372,228.891c0.005,0.126,1.116,1.674,2.87,1.515c0.725-0.065,2.232-2.272,2.113-2.551
						c-0.12-0.279-2.353-0.997-2.353-0.997S298.333,227.814,298.372,228.891z"/>
					<polygon fill="#FFFFFF" points="301.003,226.858 297.921,231.11 293.589,223.31 295.131,221.942 296.867,223.396 					"/>
					<path fill="#FFFFFF" d="M306.238,223.642c0,0.065-0.019,0.174-0.048,0.317c-0.002,0.011-0.005,0.022-0.007,0.033
						c-0.34,1.553-2.151,6.878-2.151,6.878l-3.029-4.013l2.277-3.294l0.938-1.357C304.219,222.207,305.309,222.845,306.238,223.642z
						"/>
				</g>
			</g>
			<g>
				<path fill="#15A374" d="M329.782,273.947h-41.22c0,0-8.472-40.321-8.089-42.995c0.237-1.671,8.433-5.536,11.746-7.033
					c0.844-0.381,1.369-0.609,1.369-0.609s5.581,10.643,7.761,12.13c2.815-5.207,4.889-11.798,4.889-11.798s0.498,0.118,1.314,0.317
					c3.285,0.808,8.739,2.959,10.487,4.201C320.495,229.905,329.782,273.947,329.782,273.947z"/>
				<path fill="#3EB785" d="M307.553,223.959c-0.971,3.101-3.597,9.994-5.912,13.98c-3.972-2.819-7.994-10.938-9.421-14.02
					c0.844-0.381,1.369-0.609,1.369-0.609s5.581,10.643,7.761,12.13c2.815-5.207,4.889-11.798,4.889-11.798
					S306.736,223.76,307.553,223.959z"/>
			</g>
			<g>
				<path fill="#3EB785" d="M280.474,230.952c-2.454,1.56-3.254,7.306-3.892,12.408c-0.638,5.102-3.508,26.148,4.252,26.148
					c5.634-0.957,7.44-5.209,7.653-9.142C288.699,256.435,283.939,228.749,280.474,230.952z"/>
				<g>
					<path fill="#F5B54C" d="M297.395,241.064c0,0,2.121-1.857,3.188-2.002c1.066-0.145,4.15,0.643,3.888,1.081
						c-0.262,0.438-6.186,1.846-6.663,1.589C297.33,241.476,297.395,241.064,297.395,241.064z"/>
					<path fill="#FEC869" d="M292.631,246.571c0,0,3.606-4.979,5.427-5.959c0.899-0.484,10.053-1.277,10.307-0.973
						c0.254,0.305-0.354,0.992-0.681,1.079c-0.328,0.087-5.464,0.774-5.407,0.957s4.84-0.212,5.075-0.117
						c0.314,0.127-0.2,0.632-0.683,0.825c-0.483,0.193-4.923,0.541-4.964,0.706s3.897,0.032,4.408,0.048s0.232,0.775-0.554,0.924
						c-0.785,0.149-4.091,0.333-4.03,0.548c0.061,0.214,3.668-0.169,3.535,0.103c-0.132,0.273-0.765,0.613-1.17,0.754
						c-0.405,0.14-5.27,1.104-5.27,1.104l-1.923,3.734L292.631,246.571z"/>
				</g>
				<path fill="#3EB785" d="M293.077,245.46l6.75,5.581c0,0-8.789,18.042-13.944,19.371s-10.389-2.33-8.397-7.706
					C278.548,259.836,293.077,245.46,293.077,245.46z"/>
			</g>
		</g>
	</g>
	<g>
		<g>
			<g>
				<path fill="#2C2950" d="M390.653,216.396c-0.089-0.031-3.837-1.251-3.982-2.793c-0.146-1.543,2.063-2.981,2.063-2.981
					s-1.527-1.258-0.016-2.492c2.244-1.832,11.387-4.514,17.079-1.145c4.487,2.656,5.132,5.162,8.379,6.09
					c2.244,0.641,13.278,0.229,17.537,3.297c4.258,3.068,6.09,7.372,6.502,10.256c-0.458-0.595-1.648-1.923-1.648-1.923
					s1.328,1.648,1.465,4.762c0.138,3.114-4.624,13.828-10.714,16.895c-6.09,3.068-17.445,1.283-20.146-5.998
					c-2.702-7.28-1.42-12.18-2.656-14.24C403.279,224.063,396.869,218.568,390.653,216.396z"/>
				<g>
					<path fill="#FEC869" d="M408.208,223.549l-4.903,5.022c0,0-0.945-1.047-2.085-2.162c-0.206-0.202-0.42-0.405-0.633-0.605
						c-0.375-0.35-0.798-0.632-1.25-0.839c-1.024-0.472-2.201-0.568-3.315-0.242c-0.003,0.001-0.005,0.003-0.008,0.003
						c-1.277,0.375-2.395,0.571-2.953,0.166c-0.683-0.496-1.468-3.026-1.774-4.375c-0.07-0.314-0.345-0.544-0.665-0.555
						c-0.52-0.019-1.218-0.101-1.268-0.398c-0.079-0.479,1.156-0.757,1.275-1.515c0.12-0.757-0.398-2.033-0.598-3.069
						c-0.119-0.62-0.225-1.084-0.169-1.484c0.035-0.268,0.144-0.509,0.368-0.748c0,0,2.313,2.83,3.588,3.229
						c1.275,0.398,4.783-1.515,4.783-1.515l0.496,0.63l1.258,1.602c0,0-0.08-2.95,1.315-3.428c1.395-0.479,2.352,1.554,2.271,3.029
						c-0.079,1.475-1.873,2.312-1.873,2.312s0,0,1.235,1.196c0.459,0.445,1.257,1.079,2.076,1.696
						C406.764,222.545,408.208,223.549,408.208,223.549z"/>
					<path fill="#F5B54C" d="M408.208,223.549l-4.903,5.022c0,0-0.945-1.047-2.085-2.162c1.17-1.406,2.962-3.509,4.161-4.911
						C406.764,222.545,408.208,223.549,408.208,223.549z"/>
					<path fill="#F5B54C" d="M399.098,215.091c-1.139,0.764-3.356,2.087-4.82,1.881c-1.542-0.217-3.535-2.416-4.415-3.478
						c0.035-0.268,0.144-0.509,0.368-0.748c0,0,2.313,2.83,3.588,3.229c1.275,0.398,4.783-1.515,4.783-1.515L399.098,215.091z"/>
					<path fill="#FFFFFF" d="M392.096,220.866c0,0,1.569-0.233,2.857-1.069C395.125,221.611,393.271,222.875,392.096,220.866z"/>
					<g>
						<path fill="#292952" d="M392.409,216.742c-0.208-0.218-0.554-0.222-0.782-0.035c-0.227,0.184-0.245,0.548-0.054,0.764
							C392.074,218.033,392.926,217.282,392.409,216.742z"/>
						<path fill="#292952" d="M390.608,215.953c0.275-0.163,0.757-0.371,1.466-0.359c0.71,0.011,1.395,0.302,1.395,0.302
							s-0.517-0.9-1.412-0.96C391.428,214.893,390.812,215.507,390.608,215.953z"/>
					</g>
					<path fill="#F5B54C" d="M400.847,222.261c-0.088,0.823-0.844,1.899-1.51,2.704c-1.024-0.472-2.201-0.568-3.315-0.242
						c0.154-0.053,2.648-0.931,3.55-2.888c0.931-2.02,1.063-3.321,1.063-3.321S401.006,220.772,400.847,222.261z"/>
					<path fill="#F5B54C" d="M402.906,214.939c0,0-0.578-1.375-0.996-1.036c-0.419,0.339-0.678,3.089-0.678,3.089
						s0.617-0.877,1.156-0.717c0.537,0.16-0.559,1.614-0.559,1.614s1.635-1.056,1.235-1.793c-0.398-0.737-1.354-0.04-1.354-0.04
						s0.179-1.495,0.458-1.535C402.448,214.481,402.906,214.939,402.906,214.939z"/>
				</g>
			</g>
			<g>
				<g>
					<g>
						<path fill="#F5B54C" d="M367.258,305.969c0,0-0.106,2.019-2.869,8.29c-0.864,1.96-2.014,4.138-3.275,6.357
							c-3.635,6.394-8.201,13.142-9.544,16.059c0.179,0.506,0.341,1.047,0.487,1.585c0.591,2.187,0.904,4.38,0.904,4.38
							s-24.288,0.531-24.501,0c-0.115-0.288,4.067-2.685,7.932-4.822c3.278-1.816,7.641-4.133,7.641-4.133l7.891-21.289l2.58-6.96
							L367.258,305.969z"/>
						<path fill="#E2A043" d="M367.258,305.969c0,0-0.106,2.019-2.869,8.29c-0.864,1.96-2.014,4.138-3.275,6.357v-8.221h-9.19
							l2.58-6.96L367.258,305.969z"/>
						<path fill="#2D3F81" d="M352.961,342.64c0,0-24.288,0.531-24.501,0c-0.115-0.288,4.067-2.685,7.932-4.822
							c0.732,0.304,2.21,1.087,3.921,2.909c2.976-0.046,9.951-2.026,11.744-2.467C352.647,340.446,352.961,342.64,352.961,342.64z"
							/>
					</g>
					<path fill="#459ECC" d="M362.155,308.307h-10.311c0,0,9.461-23.385,12.543-25.83c3.083-2.444,5.527-1.595,6.059,0
						c0.532,1.595,0,25.83,0,25.83H362.155z"/>
				</g>
				<g>
					<g>
						<path fill="#FEC869" d="M377.037,304.984c0,0-0.103,3.114-0.756,7.096c-0.163,0.993-0.36,2.042-0.6,3.108
							c-1.196,5.342-4.305,16.981-4.385,19.931c1.674,4.703,1.515,7.573,1.515,7.573h-21.206c0,0,10.205-5.341,11.002-6.936
							c0.542-1.084,0.643-14.932,0.648-23.677c0.005-4.11-0.011-7.096-0.011-7.096H377.037z"/>
						<path fill="#F5B54C" d="M377.037,304.984c0,0-0.103,3.114-0.756,7.096h-13.025c0.005-4.11-0.011-7.096-0.011-7.096H377.037z"
							/>
						<path fill="#2D3F81" d="M348.922,343.702c0,0,24.66,0.426,24.66,0c0-0.425-1.01-5.367-1.594-6.271
							c-4.411,3.562-11.587,4.04-11.64,3.88c-0.053-0.159-2.339-2.231-2.923-2.444C355.034,340.035,349.56,342.905,348.922,343.702z
							"/>
					</g>
					<g>
						<path fill="#87BFE8" d="M429.766,280.71c-0.285,5.612-1.914,17.18-10.529,17.18c-11.374,0-41.136,0-41.136,0
							s1.381,4.038,0.105,10.416h-8.663c-4.554,0-7.387,0-7.387,0s0-19.452,0-21.365s0.743-7.016,9.034-8.184
							c8.291-1.169,26.579-1.094,26.579-1.094l1.377-1.246l16.416,0.7l0.652,0.027l13.594,0.58
							C429.809,277.725,429.856,278.911,429.766,280.71z"/>
						<path fill="#459ECC" d="M429.766,280.71l-31.996-3.047l1.377-1.246l30.662,1.308
							C429.809,277.725,429.856,278.911,429.766,280.71z"/>
						<path fill="#C5E4F8" d="M417.588,277.145l-2.285,6.319c-1.169,3.424-2.905,3.637-4.265,3.637l-38.884-0.372
							c-1.037,0-1.017-0.08-1.017,1.116c0,0.991,0.101,15.531,0.212,20.461h-1.807v-20.939c0-1.256,0.953-2.392,2.173-2.392
							c1.375,0,31.384-0.053,39.319-0.01c1.074,0.006,2.034-0.673,2.387-1.688l2.141-6.159L417.588,277.145z"/>
					</g>
				</g>
			</g>
			<g>
				<path fill="#F1656F" d="M431.429,273.36c-0.248,1.186-1.62,1.995-1.62,1.995v2.369l-32.039-0.062l0.499-3.18
					c0,0-1.933,0.623-2.119-1.061c-0.061-0.537,0.253-4.619,0.709-9.927c0.498-5.794,1.163-13.047,1.693-18.742
					c0.212-2.285,0.403-4.318,0.554-5.906c0.205-2.175,0.333-3.513,0.333-3.513l0.263-3.925l9.409-7.395
					c0,0,0.713,0.263,1.853,0.826c2.807,1.384,8.202,4.581,11.927,10.123c5.235,7.792,6.794,15.582,7.916,24.808
					S431.678,272.176,431.429,273.36z"/>
				<path fill="#E25364" d="M410.963,224.841l-8.522,13.205l-2.178-3.136c0,0-0.797,2.647-1.157,3.938
					c0.205-2.175,0.333-3.513,0.333-3.513l0.263-3.925l9.409-7.395C409.11,224.015,409.823,224.278,410.963,224.841z"/>
				<path fill="#E25364" d="M416.791,242.191c-0.551,7.337-14.001,17.603-19.933,21.305c0.498-5.794,1.163-13.047,1.693-18.742
					l16.221-12.343C414.772,232.411,417.429,233.687,416.791,242.191z"/>
				<polygon fill="#E25364" points="429.809,275.355 429.809,277.725 397.77,277.663 398.269,274.483 				"/>
			</g>
			<g>
				<path fill="#F5B54C" d="M376.718,233.369c-0.053-0.133-1.208-4.454-1.952-4.693c-0.744-0.239-4,0.414-4,0.414
					s-2.179-0.239-2.313,0.08c-0.133,0.319,0.027,0.983,1.144,1.249S376.718,233.369,376.718,233.369z"/>
				<path fill="#FEC869" d="M380.006,236.842c0,0.061-5.251,3.321-5.251,3.321c-0.087-0.088-0.625-1.19-1.071-2.125
					c-0.341-0.714-0.631-1.332-0.631-1.332s-4.067,0-4.447,0c-0.274,0-0.547-0.252-0.663-0.702
					c-0.043-0.172-0.065-0.371-0.055-0.598c-0.694,0-1.054-0.263-1.18-0.978c-0.036-0.206-0.054-0.449-0.054-0.735
					c-0.938,0-1.137-0.419-1.137-0.818c0-0.059,0-0.116,0.001-0.172c0.005-0.324,0.02-0.585,0.02-0.585s-3.688-0.22-3.848-0.399
					c-0.159-0.178-0.358-1.097,0.239-1.196c0.598-0.099,11.698-0.459,12.537-0.04c0.51,0.256,2.462,2.546,3.904,4.305
					C379.291,235.913,380.006,236.82,380.006,236.842z"/>
				<path fill="#F5B54C" d="M380.006,236.842c0,0.061-5.251,3.321-5.251,3.321c-0.087-0.088-0.625-1.19-1.071-2.125
					c1.164-0.804,3.307-2.285,4.688-3.248C379.291,235.913,380.006,236.82,380.006,236.842z"/>
				<path fill="#F5B54C" d="M368.853,232.386l-3.334,0.319c0.005-0.324,0.02-0.585,0.02-0.585L368.853,232.386z"/>
				<path fill="#F5B54C" d="M369.437,233.695l-2.729,0.735c-0.036-0.206-0.054-0.449-0.054-0.735H369.437z"/>
				<path fill="#F5B54C" d="M369.941,235.407l-1.999,0.598c-0.043-0.172-0.065-0.371-0.055-0.598H369.941z"/>
			</g>
			<g>
				<path fill="#F1656F" d="M406.693,250.137c-7.733,6.616-14.908,11.878-18.097,11.241c-3.189-0.639-13.401-16.215-14.031-17.858
					c-0.474-1.235,0.08-2.073,0.08-2.073l-0.798-2.073l5.74-4.065l1.674,2.312c0,0,0.479-0.638,1.276,0
					c0.797,0.638,7.334,8.132,7.334,8.132s17.061-15.227,20.488-15.386c3.428-0.16,5.501,1.435,6.059,5.182
					C416.978,239.294,414.426,243.52,406.693,250.137z"/>
				<polygon fill="#E25364" points="381.262,237.62 374.646,241.447 373.848,239.374 379.588,235.309 				"/>
				<path fill="#E25364" d="M390.392,246.619c0,0,2.59,5.749,4.093,4.365C395.265,250.267,390.392,246.619,390.392,246.619z"/>
				<path fill="#E25364" d="M389.938,247.62c0,0-0.13,6.729,1.182,6.274C393.459,253.087,389.938,247.62,389.938,247.62z"/>
			</g>
			<g>
				<path fill="#E1E1E3" d="M398.881,230.18c0,0,0.956,5.368,1.01,5.155c0.053-0.213,1.966-5.315,1.754-5.315
					C401.432,230.02,398.881,230.18,398.881,230.18z"/>
				<path fill="#FFFFFF" d="M409.563,224.015c-0.106-0.16-1.86-1.807-1.86-1.807s-8.876,7.813-8.822,7.972
					c0.053,0.159,2.764,4.571,2.764,4.571L409.563,224.015z"/>
			</g>
		</g>
		<g>
			<rect x="405.986" y="301.331" fill="#A6BDE2" width="3.587" height="40.281"/>
			<path fill="#2C2950" d="M439.089,246.868L439.089,246.868c-2.63,0-4.819,2.02-5.031,4.641l-3.036,37.481
				c-0.288,3.56,0.843,7.089,3.146,9.818l0,0L439.089,246.868z"/>
			<path fill="#201F39" d="M379.936,302.514L379.936,302.514c0.754-2.732,3.238-4.624,6.072-4.624h32.754
				c5.371,0,10.64,1.468,15.236,4.245l0.627,0.379H379.936z"/>
			<polygon fill="#2C2950" points="431.755,302.514 434.625,302.514 441.321,246.868 439.089,246.868 			"/>
			<path fill="#2C2950" d="M434.625,302.514L434.625,302.514c0,1.32-1.071,2.392-2.393,2.392h-13.605
				c-1.32,0-2.392-1.071-2.392-2.392l0,0H434.625z"/>
			<polygon fill="#FFFFFF" points="405.074,315.534 410.177,315.534 410.177,342.292 404.968,342.292 			"/>
			<polygon fill="#2C2950" points="379.154,343.916 381.933,339.116 431.604,339.116 434.73,344.107 			"/>
		</g>
	</g>
	<g>
		<g>
			<g>
				<g>
					<g>
						<path fill="#FEC869" d="M186.924,235.906c-0.774,3.232-1.949,6.491-2.849,8.763c-0.731,1.85-1.28,3.047-1.28,3.047
							l-6.194-3.469l2.166-3.326l5.845-8.979C184.612,231.942,186.346,233.594,186.924,235.906z"/>
						<path fill="#F5B54C" d="M184.075,244.669c-0.731,1.85-1.28,3.047-1.28,3.047l-6.194-3.469l2.166-3.326L184.075,244.669z"/>
					</g>
					<g>
						<path fill="#FEC869" d="M194.302,233.76c0,0.006-0.001,0.012-0.001,0.018c-0.008,0.083-0.04,0.195-0.093,0.331
							c-0.021,0.056-0.046,0.117-0.076,0.182c-0.134,0.304-0.342,0.688-0.598,1.105c-0.101,0.168-0.211,0.342-0.329,0.517
							c-0.001,0-0.001,0-0.001,0c-0.227,0.337-0.474,0.681-0.732,1.008c-0.147,0.185-0.295,0.363-0.448,0.534
							c-0.654,0.74-1.333,1.296-1.851,1.316c-0.9,0.035-3.302,0.027-4.962,0.015c-0.586-0.005-1.125-0.231-1.529-0.604
							c-0.393-0.363-0.661-0.864-0.722-1.434c-0.062-0.572-0.04-1.196,0.165-1.776c0.606-1.706,3.689-2.449,3.689-2.449
							s0.349-0.02,0.9-0.046c2.007-0.099,6.802-0.097,7.028,0.046C195.251,232.845,194.743,233.595,194.302,233.76z"/>
						<path fill="#F5B54C" d="M187.715,232.475c-0.02,1.085-0.91,2.794-1.121,3.349c-0.251,0.663-3.573,1.492-3.634,0.922
							c-0.062-0.572-0.04-1.196,0.165-1.776c0.606-1.706,3.689-2.449,3.689-2.449S187.163,232.501,187.715,232.475z"/>
						<path fill="#FEC869" d="M184.938,231.315c0.532-0.373,5.703-0.612,5.841-0.419c0.138,0.192,0.021,0.805-0.667,1.08
							c-0.688,0.275-3.297,0.544-3.297,0.544s-0.881,1.789-1.239,2.367c-0.357,0.578-2.557,1.702-2.752,1.342
							C182.038,234.785,184.105,231.9,184.938,231.315z"/>
						<path fill="#F5B54C" d="M194.3,233.778c-0.008,0.083-0.04,0.195-0.093,0.331c-0.021,0.056-0.046,0.117-0.076,0.182
							c-1.479-0.02-4.085-0.058-4.536-0.058c-0.634,0-0.606-0.226-0.606-0.417C188.99,233.652,193.071,233.747,194.3,233.778z"/>
						<path fill="#F5B54C" d="M193.534,235.395c-0.101,0.168-0.211,0.342-0.329,0.517c-0.001,0-0.001,0-0.001,0
							c-1.452-0.02-3.241-0.044-3.607-0.044c-0.634,0-0.751-0.292-0.606-0.418C189.161,235.301,191.887,235.358,193.534,235.395z"/>
						<path fill="#F5B54C" d="M192.472,236.919c-0.147,0.185-0.295,0.363-0.448,0.534c-1.113-0.015-2.157-0.028-2.428-0.028
							c-0.634,0-0.751-0.294-0.606-0.418C189.234,236.797,190.952,236.865,192.472,236.919z"/>
						<path fill="#F5B54C" d="M189.223,233.153c0,0.104,0,4.832,0,4.832s-0.519-0.68-0.557-1.982
							C188.604,233.876,189.223,233.153,189.223,233.153z"/>
					</g>
				</g>
				<path fill="#C5E4F8" d="M183.933,246.138c-2.476,6.861-5.815,12.454-7.059,13.891c-1.819,2.098-4.057,3.426-9.51-0.28
					c-14.629-7.82-14.337-23.216-12.728-25.733c1.609-2.519,3.637-0.419,3.637-0.419l13.985,14.895l4.864-6.321L183.933,246.138z"/>
			</g>
			<g>
				<path fill="#9D4855" d="M203.972,337.381c0.277,0.514,3.173,4.548,3.173,4.548s5.896-3.206,23.167-13.756
					c-4.034,0-16.134-0.828-17.479-0.311S203.972,337.381,203.972,337.381z"/>
				<path fill="#201F39" d="M187.25,283.014c0,0,4.116,0.359,8.189,6.018c4.074,5.658,23.471,37.259,23.471,37.259l-14.939,11.091
					c0,0-14.87-26.848-19.849-39.522S187.25,283.014,187.25,283.014z"/>
			</g>
			<g>
				<path fill="#B24E54" d="M177.51,334.812c0,0-0.11,6.827,0.11,7.268c17.287,0,30.06,0,30.06,0s-11.672-6.938-15.856-8.479
					C182.685,333.82,177.51,334.812,177.51,334.812z"/>
				<g>
					<path fill="#2C2950" d="M197.88,334.812h-20.37l-0.003-35.396c0,0-22.043-0.888-39.742-1.525
						c-10.475-0.378-11.004-11.299-11.772-16.701c-0.385-2.714-0.235-4.705-0.235-4.705c7.928-1.763,33.364,0.108,33.364,0.108
						s1.501,0.281,3.878,0.75c6.005,1.185,17.602,3.571,24.699,5.672c3.472,1.029,5.993,4.03,6.397,7.629
						C195.706,304.98,197.88,334.812,197.88,334.812z"/>
					<path fill="#201F39" d="M163,277.342c-5.969,0.587-28.599,2.821-37.007,3.847c-0.385-2.714-0.235-4.705-0.235-4.705
						c7.928-1.763,33.364,0.108,33.364,0.108S160.623,276.873,163,277.342z"/>
				</g>
			</g>
			<g>
				<path fill="#E8F6FE" d="M160.347,230.142c0,0-0.025,0.637-0.068,1.761c-0.188,4.952-0.613,20.282-0.895,31.613
					c-0.103,4.133-0.185,7.731-0.229,10.104c-0.037,1.805-0.05,2.898-0.033,2.973c0,0-11.892-0.108-33.364-0.108
					c-1.432-16.738,11.451-43.77,15.25-47.679c2.53-2.605,5.421-3.513,7.067-3.831c0.828-0.16,1.341-0.17,1.341-0.17
					L160.347,230.142z"/>
				<path fill="#C5E4F8" d="M159.384,263.516c-0.103,4.133-0.185,7.731-0.229,10.104c-2.228,0.467-5.3,0.517-8.402-1.321
					c-5.946-3.523-9.36-21.031-8.919-30.5c0.441-9.471,6.102-10.619,6.102-10.619L159.384,263.516z"/>
				<path fill="#C5E4F8" d="M160.347,230.142c0,0-0.025,0.637-0.068,1.761l-3.031,6.481l-9.173-13.41
					c0.828-0.16,1.341-0.17,1.341-0.17L160.347,230.142z"/>
			</g>
			<path fill="#9D4855" d="M159.851,230.638l-1.996,1.524c0,0-0.066,0.668,0.944,2.159c-0.594,5.189-3.57,31.273-3.421,31.645
				c0.165,0.413,4.349,3.523,4.349,3.523s0.497-27.18,0.407-33.925C162.342,232.711,159.852,230.638,159.851,230.638z"/>
			<g>
				<path fill="#2C2950" d="M167.93,216.21c0.165-0.041,4.583-3.345,4.005-4.625c-0.578-1.28-2.643-1.652-2.643-1.652
					s0.702-1.651-0.413-2.147c-1.115-0.496-10.86-1.775-14.287,1.817s-1.569,11.025-1.569,11.025s5.699,0.991,5.864,0.908
					S167.93,216.21,167.93,216.21z"/>
				<path fill="#FEC869" d="M168.095,220.133c-0.496,0.248-0.702,4.542-2.147,5.203c-1.445,0.661-2.836,0.166-3.758,0
					c-1.156-0.206-1.813,0.507-2.436,1.655c-0.516,0.95-3.268,6.11-3.268,6.11c0-0.001-4.951-6.842-5.965-8.639
					c2.179-1.739,2.502-3.833,2.502-3.833l3.593-1.239c0,0-1.074-0.413-1.61-1.858c-0.537-1.445,0.908-3.138,2.106-2.932
					c1.111,0.192,1.12,2.663,1.05,3.114c0.116-0.311,0.446-1.421,0.646-2.104c0.096-0.325,0.162-0.555,0.162-0.555
					s0.352,0.041,3.53,0c3.181-0.042,5.843-3.221,5.843-3.221s0.332,0.071,0.527,0.464c0.064,0.125,0.114,0.286,0.134,0.485
					c0.082,0.826-0.909,4.005-0.867,5.162c0.041,1.156,1.197,1.074,1.362,1.61C169.664,220.092,168.591,219.885,168.095,220.133z"/>
				<path fill="#FFFFFF" d="M163.422,219.747c0.181,0,3.465,1.046,3.465,1.046s-0.505,1.516-1.985,1.047
					S163.422,219.747,163.422,219.747z"/>
				<path fill="#F5B54C" d="M162.19,225.335c-1.156-0.206-1.813,0.507-2.436,1.655c-1.642-0.907-2.532-3.616-2.532-6.225
					C157.718,223.602,162.19,225.335,162.19,225.335z"/>
				<path fill="#F5B54C" d="M168.87,212.297c-0.62,0.836-2.268,2.88-3.996,3.5c-1.805,0.647-5.003,0.043-6.066-0.188
					c0.096-0.325,0.162-0.555,0.162-0.555s0.352,0.041,3.53,0c3.181-0.042,5.843-3.221,5.843-3.221S168.675,211.904,168.87,212.297z
					"/>
				<path fill="#292952" d="M166.765,216.805c-0.218-0.229-0.58-0.232-0.82-0.037c-0.237,0.193-0.257,0.576-0.056,0.801
					C166.414,218.159,167.306,217.372,166.765,216.805z"/>
				<path fill="#292952" d="M167.876,215.918c0,0-0.718-0.305-1.462-0.316c-0.745-0.012-1.249,0.206-1.538,0.377
					c0,0,0.358-0.937,1.398-0.991S167.876,215.918,167.876,215.918z"/>
				<path fill="#F5B54C" d="M155.544,216.189c0,0,0.876-1.179,1.571-0.544c0.695,0.635,0.604,2.508,0.604,2.508
					s-0.544-0.906-0.907-0.483c-0.362,0.423,0.272,1.239,0.272,1.239s-1.027-0.816-0.846-1.451c0.181-0.634,0.846-0.544,0.846-0.544
					s-0.121-0.816-0.483-0.876C156.239,215.978,155.544,216.189,155.544,216.189z"/>
			</g>
			<path fill="#E8F6FE" d="M149.417,224.804l8.044,10.064c0,0,2.922-4.617,2.886-4.726c-0.036-0.108-8.838-7.178-8.838-7.178
				L149.417,224.804z"/>
			<g>
				<g>
					<path fill="#F5B54C" d="M198.463,257.389c0,0,0.049-6.096-0.885-7.03c-0.935-0.935-8.011-2.313-9.332-1.899
						C193.421,251.515,198.463,257.389,198.463,257.389z"/>
					<path fill="#FEC869" d="M199.312,258.754c-0.896,0.724-2.478-1.35-3.54-3.006c-0.661-1.032-1.835-1.614-3.056-1.505
						c-0.91,0.081-2.129,0.112-3.637-0.018c-1.438-0.125-2.852,0.407-3.855,1.445c-0.373,0.386-0.768,0.761-1.156,1.111
						c-1.417,1.285-2.76,2.248-2.76,2.248l-3.881-6.277c0,0,1.754-0.72,3.856-1.57c2.833-1.148,6.298-2.533,6.962-2.724
						c1.156-0.33,6.276,1.569,7.102,2.56C196.174,252.011,200.062,258.149,199.312,258.754z"/>
					<path fill="#F5B54C" d="M184.068,256.782c-1.417,1.285-2.76,2.248-2.76,2.248l-3.881-6.277c0,0,1.754-0.72,3.856-1.57
						C181.989,252.521,183.14,254.868,184.068,256.782z"/>
				</g>
				<g>
					<path fill="#E8F6FE" d="M182.607,258.797c-0.909,0.733-1.847,1.45-2.808,2.146c-0.187,0.135-0.375,0.271-0.563,0.402
						c-0.352,0.25-0.706,0.496-1.061,0.738c-0.18,0.125-0.36,0.245-0.542,0.365c-8.374,5.611-17.833,9.415-22.927,8.123
						c-6.194-1.568-9.993-16.682-10.736-27.252c-0.712-10.133,2.739-11.622,3.964-12.14c2.416-1.022,5.549,0.368,7.35,6.029
						c3.427,10.771,6.188,19.374,6.188,19.374l10.979-3.167l0.91-0.262l1.501-0.434l0.792-0.229l3.672-1.059
						C180.333,253.543,181.968,257.468,182.607,258.797z"/>
					<path fill="#C5E4F8" d="M179.799,260.942c-0.187,0.135-0.375,0.271-0.563,0.402l-4.374-8.625l0.792-0.229
						C176.724,254.688,178.742,258.796,179.799,260.942z"/>
					<path fill="#C5E4F8" d="M178.175,262.083c-0.18,0.125-0.36,0.245-0.542,0.365l-5.183-9.033l0.91-0.262L178.175,262.083z"/>
					<path fill="#C5E4F8" d="M180.114,257.421c-1.005,0-1.102,1.566-0.088,1.566C181.031,258.987,181.127,257.421,180.114,257.421z"
						/>
				</g>
			</g>
		</g>
		<g>
			<rect x="145.541" y="301.331" fill="#A6BDE2" width="3.587" height="40.35"/>
			<path fill="#2C2950" d="M116.025,246.868L116.025,246.868c2.63,0,4.819,2.02,5.031,4.641l3.036,37.481
				c0.289,3.56-0.842,7.089-3.145,9.818l0,0L116.025,246.868z"/>
			<path fill="#201F39" d="M175.178,302.514L175.178,302.514c-0.754-2.732-3.239-4.624-6.072-4.624h-32.754
				c-5.371,0-10.639,1.468-15.236,4.245l-0.626,0.379H175.178z"/>
			<polygon fill="#2C2950" points="123.359,302.514 120.489,302.514 113.792,246.868 116.025,246.868 			"/>
			<path fill="#2C2950" d="M120.489,302.514L120.489,302.514c0,1.32,1.071,2.392,2.392,2.392h13.606
				c1.321,0,2.392-1.071,2.392-2.392l0,0H120.489z"/>
			<polygon fill="#FFFFFF" points="150.039,315.534 144.937,315.534 144.937,342.36 150.146,342.36 			"/>
			<polygon fill="#2C2950" points="175.959,343.984 173.181,339.185 123.509,339.185 120.383,344.176 			"/>
		</g>
	</g>
	<g>
		<polygon fill="#B24E54" points="407.182,344.139 401.202,344.139 385.005,278.916 383.267,271.915 389.245,271.915 
			390.983,278.916 		"/>
		<polygon fill="#98444C" points="390.983,278.916 385.005,278.916 383.267,271.915 389.245,271.915 		"/>
		<polygon fill="#B24E54" points="178.791,271.915 176.973,279.234 160.854,344.139 154.875,344.139 170.994,279.234 
			172.812,271.915 		"/>
		<polygon fill="#98444C" points="178.791,271.915 176.973,279.234 170.994,279.234 172.812,271.915 		"/>
		<rect x="152.35" y="269.091" fill="#B24E54" width="250.048" height="5.283"/>
	</g>
	<g>
		<polygon fill="#87BFE8" points="274.605,244.017 272.267,267.296 241.972,267.296 244.312,244.017 		"/>
		<polygon fill="#FFFFFF" points="274.605,244.017 272.267,267.296 243.036,267.296 245.373,244.017 		"/>
		<rect x="227.623" y="267.096" fill="#FFFFFF" width="44.644" height="1.993"/>
		<circle fill="#C5E4F8" cx="259.623" cy="257.866" r="2.205"/>
	</g>
	<g>
		<polygon fill="#87BFE8" points="336.309,244.017 333.97,267.296 303.676,267.296 306.015,244.017 		"/>
		<polygon fill="#FFFFFF" points="336.309,244.017 333.97,267.296 304.739,267.296 307.077,244.017 		"/>
		<rect x="289.326" y="267.096" fill="#FFFFFF" width="44.644" height="1.993"/>
		<circle fill="#C5E4F8" cx="321.326" cy="257.866" r="2.204"/>
	</g>
	<g>
		<g>
			<polygon fill="#87BFE8" points="214.403,266.958 212.543,266.958 211.215,266.958 209.354,266.958 208.823,269.137 
				211.215,269.137 212.543,269.137 214.935,269.137 			"/>
			<path fill="#E8F6FE" d="M207.534,258.4v1.502h-1.185c-0.717,0-1.195,0.278-1.275,0.757c-0.08,0.479-0.199,4.824,0.399,5.262
				c0.145,0.108,0.43,0.193,0.775,0.262c0.387,0.078,0.853,0.134,1.287,0.172v0.557c0,0.716,0.58,1.295,1.296,1.295h6.099
				c0.716,0,1.294-0.579,1.294-1.295V258.4H207.534z M207.534,265.439c-0.496,0.02-0.992,0.007-1.244-0.089
				c-0.022-0.008-0.043-0.018-0.061-0.027c-0.519-0.279-0.598-4.385-0.2-4.544c0.082-0.032,0.255-0.054,0.48-0.067
				c0.287-0.014,0.655-0.018,1.024-0.014V265.439z"/>
			<path fill="#C5E4F8" d="M207.534,259.902v0.796c-0.369-0.004-0.737,0-1.024,0.014c0.015-0.298,0.027-0.572,0.039-0.81H207.534z"
				/>
			<path fill="#C5E4F8" d="M207.534,265.439v0.915c-0.434-0.038-0.899-0.094-1.287-0.172c0.014-0.252,0.028-0.532,0.043-0.832
				C206.542,265.446,207.038,265.459,207.534,265.439z"/>
		</g>
		<path fill="#E8F6FE" d="M218.598,247.11c-0.089-0.119-0.193-0.227-0.31-0.317c-1.218-0.95-3.293-0.453-3.825,1.036
			c-0.399,1.117,0.226,2.53-0.513,3.457c-0.398,0.5-1.144,0.771-1.25,1.399c-0.111,0.658,0.579,1.212,0.596,1.879
			c0.015,0.599-0.497,1.055-0.917,1.481c-0.419,0.428-0.798,1.077-0.49,1.59c-0.185-0.309,1.161-0.908,1.328-0.971
			c0.572-0.215,1.111-0.28,1.458-0.855c0.271-0.451,0.354-0.986,0.459-1.502c0.106-0.515,0.252-1.049,0.614-1.43
			c0.618-0.652,1.765-0.758,2.129-1.58c0.225-0.506,0.054-1.11,0.233-1.634c0.164-0.477,0.597-0.826,0.745-1.308
			C218.986,247.935,218.863,247.47,218.598,247.11z"/>
		<path fill="#E8F6FE" d="M210.391,246.565c-0.247,0.174-0.58,0.561-0.28,1.03c0.127,0.198,0.308,0.255,0.479,0.3
			c0.226,0.06,0.452,0.117,0.68,0.129c0.158,0.007,0.326-0.012,0.457-0.163c0.298-0.343,0.465-0.859,0.184-1.157
			C211.583,246.356,210.717,246.336,210.391,246.565z"/>
		<path fill="#E8F6FE" d="M216.869,243.101c-0.133,0.082-0.312,0.266-0.15,0.488c0.068,0.094,0.166,0.121,0.257,0.143
			c0.121,0.027,0.243,0.055,0.365,0.061c0.085,0.004,0.175-0.006,0.245-0.077c0.16-0.162,0.111-0.528-0.04-0.67
			C217.371,242.88,217.044,242.992,216.869,243.101z"/>
	</g>
	<g>
		<g>
			<polygon fill="#87BFE8" points="281.061,266.958 282.92,266.958 284.249,266.958 286.109,266.958 286.641,269.137 
				284.249,269.137 282.92,269.137 280.529,269.137 			"/>
			<path fill="#E8F6FE" d="M279.241,258.4v8.511c0,0.716,0.579,1.295,1.294,1.295h6.099c0.716,0,1.297-0.579,1.297-1.295v-0.557
				c0.434-0.038,0.898-0.094,1.286-0.172c0.345-0.068,0.63-0.153,0.775-0.262c0.598-0.438,0.478-4.783,0.398-5.262
				c-0.08-0.479-0.559-0.757-1.275-0.757h-1.185V258.4H279.241z M287.931,260.698c0.368-0.004,0.736,0,1.023,0.014
				c0.225,0.014,0.398,0.035,0.479,0.067c0.398,0.159,0.319,4.265-0.199,4.544c-0.018,0.01-0.038,0.02-0.061,0.027
				c-0.252,0.096-0.748,0.108-1.243,0.089V260.698z"/>
			<path fill="#C5E4F8" d="M287.931,259.902v0.796c0.368-0.004,0.736,0,1.023,0.014c-0.015-0.298-0.027-0.572-0.038-0.81H287.931z"
				/>
			<path fill="#C5E4F8" d="M287.931,265.439v0.915c0.434-0.038,0.898-0.094,1.286-0.172c-0.015-0.252-0.028-0.532-0.043-0.832
				C288.922,265.446,288.426,265.459,287.931,265.439z"/>
		</g>
		<path fill="#E8F6FE" d="M280.802,251.544c-0.397,0.279-0.931,0.898-0.449,1.652c0.204,0.319,0.494,0.408,0.768,0.48
			c0.361,0.096,0.724,0.188,1.09,0.206c0.254,0.013,0.523-0.019,0.732-0.261c0.479-0.549,0.746-1.378,0.295-1.855
			C282.713,251.209,281.325,251.177,280.802,251.544z"/>
		<path fill="#E8F6FE" d="M287.752,245.602c-0.764-0.092-1.568,0.022-2.221,0.577c-1.203,1.021-1.249,2.898-0.741,4.262
			c0.289,0.776,0.637,1.588,0.49,2.402c-0.106,0.588-0.46,1.099-0.83,1.567c-0.37,0.47-0.771,0.927-1.003,1.478
			c-0.232,0.551-0.264,1.229,0.089,1.711c0.214-1.077,1.271-1.74,2.234-2.27c0.81-0.443,1.853-1.012,2.174-1.945
			c0.319-0.924-0.328-2.037,0.188-2.912c0.264-0.448,0.741-0.496,1.107-0.775c0.702-0.537,0.872-1.955,0.461-2.904
			C289.288,245.843,288.553,245.698,287.752,245.602z"/>
	</g>
	<g>
		<g>
			<polygon fill="#87BFE8" points="358.853,266.958 360.713,266.958 362.041,266.958 363.901,266.958 364.433,269.137 
				362.041,269.137 360.713,269.137 358.32,269.137 			"/>
			<path fill="#FFFFFF" d="M357.032,258.4v8.511c0,0.716,0.579,1.295,1.295,1.295h6.099c0.716,0,1.296-0.579,1.296-1.295v-0.557
				c0.435-0.038,0.899-0.094,1.287-0.172c0.345-0.068,0.63-0.153,0.774-0.262c0.599-0.438,0.479-4.783,0.399-5.262
				c-0.08-0.479-0.559-0.757-1.276-0.757h-1.185V258.4H357.032z M365.722,260.698c0.369-0.004,0.737,0,1.024,0.014
				c0.225,0.014,0.398,0.035,0.479,0.067c0.398,0.159,0.319,4.265-0.199,4.544c-0.018,0.01-0.038,0.02-0.061,0.027
				c-0.252,0.096-0.748,0.108-1.244,0.089V260.698z"/>
			<path fill="#C5E4F8" d="M365.722,259.902v0.796c0.369-0.004,0.737,0,1.024,0.014c-0.015-0.298-0.027-0.572-0.039-0.81H365.722z"
				/>
			<path fill="#C5E4F8" d="M365.722,265.439v0.915c0.435-0.038,0.899-0.094,1.287-0.172c-0.015-0.252-0.028-0.532-0.043-0.832
				C366.714,265.446,366.218,265.459,365.722,265.439z"/>
		</g>
		<g>
			<path fill="#FFFFFF" d="M362.552,256.868c-0.005-0.012-0.011-0.025-0.017-0.038c-0.231-0.524-0.714-0.831-1.057-1.261
				c-0.424-0.532-0.43-1.168-0.375-1.842c0.05-0.616,0.157-1.235,0.087-1.851c-0.096-0.839-0.764-2.153-1.687-2.3
				c-1.036-0.165-1.89,0.789-1.463,1.779c0.153,0.356,0.423,0.646,0.674,0.942c0.252,0.295,0.495,0.616,0.579,0.995
				c0.103,0.463-0.048,0.941-0.058,1.416c-0.023,1.165,1.219,1.446,2.027,1.932c0.541,0.323,0.947,0.762,1.143,1.352
				C362.517,257.577,362.729,257.31,362.552,256.868z"/>
			<path fill="#FFFFFF" d="M361.947,254.003c0.037,0.379,0.422,0.631,0.793,0.717c0.32,0.074,0.671,0.065,0.962-0.088
				c0.673-0.355,0.572-1.34-0.121-1.617C362.994,252.781,361.88,253.297,361.947,254.003z"/>
			<path fill="#FFFFFF" d="M356.137,252.601c0.021,0.217,0.24,0.359,0.452,0.408c0.183,0.043,0.383,0.038,0.549-0.05
				c0.384-0.202,0.326-0.765-0.069-0.922C356.733,251.903,356.098,252.197,356.137,252.601z"/>
		</g>
	</g>
	<g>
		<g>
			<polygon fill="#87BFE8" points="338.024,266.958 339.885,266.958 341.213,266.958 343.073,266.958 343.604,269.137 
				341.213,269.137 339.885,269.137 337.492,269.137 			"/>
			<path fill="#FFFFFF" d="M336.204,258.4v8.511c0,0.716,0.579,1.295,1.295,1.295h6.099c0.716,0,1.296-0.579,1.296-1.295v-0.557
				c0.435-0.038,0.899-0.094,1.287-0.172c0.345-0.068,0.63-0.153,0.775-0.262c0.598-0.438,0.478-4.783,0.398-5.262
				c-0.08-0.479-0.559-0.757-1.276-0.757h-1.185V258.4H336.204z M344.894,260.698c0.369-0.004,0.737,0,1.024,0.014
				c0.225,0.014,0.398,0.035,0.479,0.067c0.398,0.159,0.319,4.265-0.199,4.544c-0.018,0.01-0.038,0.02-0.061,0.027
				c-0.252,0.096-0.748,0.108-1.244,0.089V260.698z"/>
			<path fill="#C5E4F8" d="M344.894,259.902v0.796c0.369-0.004,0.737,0,1.024,0.014c-0.015-0.298-0.027-0.572-0.039-0.81H344.894z"
				/>
			<path fill="#C5E4F8" d="M344.894,265.439v0.915c0.435-0.038,0.899-0.094,1.287-0.172c-0.015-0.252-0.028-0.532-0.043-0.832
				C345.886,265.446,345.39,265.459,344.894,265.439z"/>
		</g>
		<path fill="#FFFFFF" d="M342.08,254.178c0.002-0.335-0.017-0.673-0.001-1.006c0.044-0.956,0.567-1.741,1.5-2.025
			c1.165-0.354,1.553,0.816,0.832,1.639c-0.232,0.266-0.497,0.519-0.624,0.848c-0.197,0.516-0.015,1.11-0.176,1.638
			c-0.341,1.125-1.95,1.338-2.527,2.361c-0.107-0.425,0.045-0.873,0.252-1.261c0.206-0.388,0.47-0.749,0.607-1.165
			C342.053,254.874,342.077,254.528,342.08,254.178z"/>
	</g>
	<g>
		<path fill="#FFFFFF" d="M362.897,189.127c0-7.769,6.39-14.044,14.2-13.858c7.321,0.175,13.303,6.123,13.517,13.443
			c0.166,5.698-3.108,10.65-7.899,12.933c-2.323,1.107-2.519,4.36-0.343,5.734c0.019,0.012,0.037,0.023,0.057,0.035
			c-3.801,0.018-5.681-1.679-6.605-3.259c-0.454-0.775-1.228-1.308-2.104-1.504C367.525,201.266,362.897,195.738,362.897,189.127z"
			/>
		<g>
			<path fill="#87BFE8" d="M380.663,192.569c0,0.826-0.308,1.555-1.133,2.227c-0.134,0.134-1.113,0.729-1.21,0.729
				c0,0.173-0.019,1.19-0.019,1.363v0.077c0,0.307-0.192,0.518-0.729,0.518c-0.25,0-0.519,0.02-0.807,0.02h-0.537
				c-1.401,0,0.038-1.689-1.248-2.074c-1.862-0.614-2.035-1.747-2.035-3.456c0-0.768,0-0.979,0.883-0.979
				c0.288,0,0.519,0.039,0.749,0.058c0.614,0.058,1.325-0.154,1.325,0.633c0,0.211,0.019,0.384,0.019,0.595
				c0,0.403,0.135,0.845,0.807,0.845c0.403,0,0.883-0.288,0.883-0.691c0-1.632-2.361-2.726-3.475-3.955
				c-0.595-0.672-1.037-1.651-1.037-2.573c0-0.634,0.212-1.248,0.691-1.728c0.441-0.441,1.133-0.825,1.728-0.998
				c0.135-0.058,0.058-0.134,0.058-0.269c0-0.096-0.096-1.325-0.096-1.421c0-0.384,0.652-0.307,1.113-0.307
				c-0.096,0,1.498-0.058,1.651,0.25v1.574c0,0.173,0.076,0.25,0.25,0.269c0.959,0.096,1.688,0.998,1.977,1.593
				s0.27,1.094,0.27,1.785c0,0.384-0.25,0.5-0.653,0.5h-0.307c-0.384,0-0.691,0.038-1.075,0.038c-1.651,0-0.423-1.555-1.651-1.555
				c-0.403,0-0.902,0.403-0.902,0.864c0,1.113,1.862,2.131,2.938,2.899C380.087,190.111,380.663,191.513,380.663,192.569z"/>
		</g>
	</g>
	<g>
		<path fill="#FFFFFF" d="M169.334,153.179h47.896c4.896,0,8.866,3.969,8.866,8.866v24.298c0,4.896-3.969,8.866-8.866,8.866h-30.912
			c-0.936,0-1.766,0.623-2.003,1.528c-0.808,3.081-3.095,7.042-9.457,7.997c1.402-1.98,2.008-4.794,2.253-7.257
			c0.121-1.216-0.842-2.268-2.064-2.268h-5.712c-4.896,0-8.866-3.969-8.866-8.866v-24.298
			C160.469,157.148,164.438,153.179,169.334,153.179z"/>
		<polygon fill="#FEC869" points="164.71,186.28 179.857,173.046 184.481,178.945 199.628,168.422 203.614,172.568 212.862,166.031 
			210.63,162.523 220.994,163.32 218.442,172.408 215.732,169.06 203.295,177.351 199.628,173.206 184.003,183.729 178.901,176.873 
					"/>
	</g>
	<g>
		<path fill="#FFFFFF" d="M313.905,182.787c0-6.279,5.165-11.352,11.479-11.201c5.919,0.141,10.754,4.949,10.927,10.866
			c0.134,4.606-2.513,8.609-6.386,10.455c-1.878,0.895-2.035,3.524-0.276,4.635c0.015,0.009,0.029,0.019,0.045,0.028
			c-3.072,0.014-4.591-1.357-5.34-2.635c-0.367-0.626-0.992-1.057-1.7-1.215C317.646,192.6,313.905,188.131,313.905,182.787z"/>
		<g>
			<line id="XMLID_2113_" fill="#F27224" x1="324.305" y1="178.031" x2="324.305" y2="178.031"/>
			<line id="XMLID_2112_" fill="#F27224" x1="324.305" y1="185.642" x2="324.305" y2="178.031"/>
			<path id="XMLID_2111_" fill="#FEC869" d="M323.414,179.462c1.791-0.001,3.332-1.295,3.611-3.064v-0.001
				c0-0.563,0.456-1.02,1.019-1.02c0.157,0,0.305,0.035,0.438,0.098c0.416,0.198,0.634,0.664,0.543,1.115l-0.578,2.872h3.164
				c0.571,0,1.05,0.467,1.039,1.039c-0.011,0.554-0.463,1-1.02,1h-0.86c0.572,0,1.051,0.468,1.039,1.039
				c-0.01,0.554-0.462,1-1.019,1h-0.021c0.572,0,1.051,0.468,1.039,1.039c-0.01,0.554-0.462,0.999-1.019,0.999l0,0
				c0.571,0,1.05,0.468,1.039,1.039c-0.011,0.554-0.463,1-1.02,1h-7.056c-0.95,0-1.72-0.77-1.72-1.72v-5.053
				C322.034,180.08,322.651,179.462,323.414,179.462L323.414,179.462"/>
			<rect id="XMLID_2108_" x="321.302" y="179.451" fill="#87BFE8" width="2.329" height="8.165"/>
			<rect id="XMLID_2107_" x="318.974" y="179.451" fill="#C5E4F8" width="2.328" height="8.165"/>
			<circle id="XMLID_2106_" fill="#FFFFFF" cx="322.466" cy="185.642" r="0.562"/>
			<circle id="XMLID_2103_" fill="#FFFFFF" cx="320.138" cy="185.642" r="0.562"/>
		</g>
	</g>
	<g>
		<path fill="#FFFFFF" d="M277.442,192.757c0-6.279-5.165-11.353-11.479-11.202c-5.918,0.141-10.753,4.949-10.926,10.867
			c-0.134,4.606,2.512,8.609,6.385,10.454c1.878,0.895,2.036,3.524,0.277,4.636c-0.015,0.009-0.03,0.019-0.045,0.028
			c3.073,0.014,4.591-1.357,5.34-2.635c0.367-0.626,0.992-1.057,1.701-1.215C273.701,202.569,277.442,198.101,277.442,192.757z"/>
		<g>
			<g id="XMLID_2296_">
				<path id="XMLID_2301_" fill="#F2A61E" d="M270.162,191.529c0-2.324-1.9-4.204-4.232-4.172c-2.271,0.032-4.114,1.904-4.112,4.176
					c0.001,1.144,0.462,2.18,1.209,2.933c0.695,0.701,1.102,1.638,1.102,2.625v0.664h3.723v-0.66c0-0.989,0.407-1.928,1.104-2.631
					C269.701,193.711,270.162,192.674,270.162,191.529z"/>
				<path id="XMLID_2298_" fill="#F5D60C" d="M265.99,189.283c1.239,0,2.247,1.008,2.247,2.247c0,0.596-0.231,1.157-0.65,1.581
					c-0.742,0.749-1.253,1.659-1.497,2.642c-0.012,0.046-0.052,0.079-0.1,0.079l0,0c-0.047,0-0.088-0.033-0.099-0.079
					c-0.244-0.983-0.755-1.892-1.497-2.641c-0.419-0.423-0.651-0.984-0.651-1.58c0-0.589,0.23-1.148,0.65-1.575
					c0.419-0.426,0.975-0.666,1.563-0.674C265.968,189.283,265.979,189.283,265.99,189.283 M265.99,187.357c-0.02,0-0.04,0-0.06,0
					c-2.271,0.032-4.114,1.904-4.112,4.176c0.001,1.144,0.462,2.18,1.209,2.933c0.695,0.701,1.102,1.638,1.102,2.625v0.664h3.723
					v-0.66c0-0.989,0.407-1.928,1.104-2.631c0.747-0.754,1.208-1.791,1.208-2.936C270.162,189.225,268.294,187.357,265.99,187.357
					L265.99,187.357z"/>
			</g>
			<path fill="#EF7F22" d="M265.987,190.457c-0.685,0-1.242,0.557-1.242,1.242c0,0.146,0.026,0.29,0.075,0.424
				c0.321,0.881,0.369,1.839,0.369,2.776v3.676h1.595V194.9c0-0.937,0.046-1.895,0.368-2.775c0.05-0.135,0.076-0.279,0.076-0.426
				C267.229,191.014,266.671,190.457,265.987,190.457z M265.575,198.191v-5.527c0.126,0.054,0.266,0.084,0.412,0.084
				s0.286-0.03,0.412-0.084v5.527H265.575z"/>
			<path id="XMLID_2292_" fill="#C5E4F8" d="M266.476,200.385h-0.979c-0.756,0-1.369-0.613-1.369-1.369v-2.255h3.717v2.255
				C267.845,199.772,267.232,200.385,266.476,200.385z"/>
			<path id="XMLID_2291_" fill="#87BFE8" d="M268.166,199.335h-4.353c-0.263,0-0.476-0.213-0.476-0.476l0,0
				c0-0.263,0.213-0.476,0.476-0.476h4.353c0.263,0,0.476,0.213,0.476,0.476l0,0C268.642,199.122,268.429,199.335,268.166,199.335z"
				/>
			<path id="XMLID_1_" fill="#87BFE8" d="M268.166,197.708h-4.353c-0.263,0-0.476-0.213-0.476-0.476l0,0
				c0-0.263,0.213-0.476,0.476-0.476h4.353c0.263,0,0.476,0.213,0.476,0.476l0,0C268.642,197.494,268.429,197.708,268.166,197.708z"
				/>
		</g>
	</g>
	<g>
		<path fill="#A29FCD" d="M497.036,346.212H75.876c-1.045,0-1.892-0.847-1.892-1.891c0-1.045,0.847-1.892,1.892-1.892h421.16
			c1.044,0,1.892,0.847,1.892,1.892C498.928,345.365,498.08,346.212,497.036,346.212z"/>
		<path fill="#A29FCD" d="M349.668,356.117H324.67c-1.045,0-1.892-0.847-1.892-1.891c0-1.045,0.847-1.892,1.892-1.892h24.998
			c1.045,0,1.891,0.847,1.891,1.892C351.559,355.271,350.713,356.117,349.668,356.117z"/>
		<path fill="#A29FCD" d="M303.728,356.117H289.54c-1.046,0-1.892-0.847-1.892-1.891c0-1.045,0.846-1.892,1.892-1.892h14.188
			c1.045,0,1.892,0.847,1.892,1.892C305.619,355.271,304.772,356.117,303.728,356.117z"/>
		<path fill="#A29FCD" d="M411.867,356.117h-40.379c-1.045,0-1.893-0.847-1.893-1.891c0-1.045,0.848-1.892,1.893-1.892h40.379
			c1.044,0,1.891,0.847,1.891,1.892C413.758,355.271,412.911,356.117,411.867,356.117z"/>
		<path fill="#A29FCD" d="M187.595,371.431h-24.997c-1.045,0-1.892-0.847-1.892-1.892s0.847-1.892,1.892-1.892h24.997
			c1.045,0,1.892,0.847,1.892,1.892S188.64,371.431,187.595,371.431z"/>
		<path fill="#A29FCD" d="M212.592,372.106h-14.188c-1.045,0-1.892-0.847-1.892-1.892s0.847-1.892,1.892-1.892h14.188
			c1.045,0,1.892,0.847,1.892,1.892S213.637,372.106,212.592,372.106z"/>
		<path fill="#A29FCD" d="M217.998,355.216h-6.756c-1.045,0-1.892-0.847-1.892-1.891c0-1.045,0.847-1.892,1.892-1.892h6.756
			c1.045,0,1.892,0.847,1.892,1.892C219.889,354.369,219.042,355.216,217.998,355.216z"/>
		<path fill="#A29FCD" d="M202.404,355.216h-57.816c-1.045,0-1.892-0.847-1.892-1.891c0-1.045,0.847-1.892,1.892-1.892h57.816
			c1.045,0,1.892,0.847,1.892,1.892C204.295,354.369,203.449,355.216,202.404,355.216z"/>
		<path fill="#A29FCD" d="M286.244,363.411h-57.817c-1.045,0-1.892-0.847-1.892-1.892s0.847-1.892,1.892-1.892h57.817
			c1.045,0,1.892,0.847,1.892,1.892S287.289,363.411,286.244,363.411z"/>
		<path fill="#A29FCD" d="M282.01,376.472h-6.756c-1.045,0-1.892-0.847-1.892-1.892s0.847-1.892,1.892-1.892h6.756
			c1.045,0,1.891,0.847,1.891,1.892S283.055,376.472,282.01,376.472z"/>
		<path fill="#A29FCD" d="M363.959,373.319h-6.756c-1.046,0-1.892-0.847-1.892-1.892s0.846-1.892,1.892-1.892h6.756
			c1.044,0,1.891,0.847,1.891,1.892S365.003,373.319,363.959,373.319z"/>
	</g>
</g>
</svg>
