<?xml version="1.0" encoding="utf-8"?>
<!-- Generator: Adobe Illustrator 16.0.0, SVG Export Plug-In . SVG Version: 6.00 Build 0)  -->
<!DOCTYPE svg PUBLIC "-//W3C//DTD SVG 1.1//EN" "http://www.w3.org/Graphics/SVG/1.1/DTD/svg11.dtd">
<svg version="1.1" id="Layer_1" xmlns="http://www.w3.org/2000/svg" xmlns:xlink="http://www.w3.org/1999/xlink" x="0px" y="0px"
	 width="350px" height="350px" viewBox="0 0 350 350" enable-background="new 0 0 350 350" xml:space="preserve">
<path fill="#EBF6F6" d="M314.686,176.948c-20.47,30.646-64.149,125.427-53.404,160.603l-156.705,0.035
	c0,0-22.644-16.859-44.642-46.17c-3.998-5.326-7.974-11.067-11.785-17.189c-4.048-6.487-7.909-13.407-11.418-20.728
	c-10.199-21.229-17.477-45.832-17.771-73.027C17.935,86.338,99.409-1.15,210.244,34.153
	C321.08,69.458,335.146,146.302,314.686,176.948z"/>
<g>
	<g>
		<path fill="#DE3F26" d="M216.639,338.66c-0.314,0-0.626-0.138-0.841-0.401L132.23,234.354c-0.373-0.464-0.299-1.141,0.164-1.515
			c0.463-0.371,1.141-0.299,1.513,0.165l83.569,103.904c0.373,0.463,0.3,1.142-0.164,1.514
			C217.113,338.582,216.875,338.66,216.639,338.66z"/>
	</g>
	<g>
		<path fill="#F2632C" d="M87.007,338.66c-0.237,0-0.476-0.078-0.674-0.238c-0.463-0.372-0.537-1.051-0.164-1.514l83.568-103.904
			c0.375-0.464,1.051-0.536,1.514-0.165c0.463,0.374,0.537,1.051,0.164,1.515L87.847,338.259
			C87.634,338.522,87.322,338.66,87.007,338.66z"/>
	</g>
	<g>
		<path fill="#F2632C" d="M170.577,338.66c-0.314,0-0.626-0.138-0.839-0.401L86.169,234.354c-0.373-0.464-0.299-1.141,0.164-1.515
			c0.464-0.371,1.141-0.299,1.514,0.165l83.568,103.904c0.374,0.463,0.3,1.142-0.164,1.514
			C171.052,338.582,170.814,338.66,170.577,338.66z"/>
	</g>
	<path fill="#DE3F26" d="M101.815,236.437H62.991c-1.523,0-2.758-1.234-2.758-2.758l0,0c0-1.523,1.235-2.759,2.758-2.759h38.825
		c1.523,0,2.758,1.235,2.758,2.759l0,0C104.574,235.202,103.339,236.437,101.815,236.437z"/>
	<path fill="#F2632C" d="M213.523,236.437H102.557c-1.523,0-2.758-1.234-2.758-2.758l0,0c0-1.523,1.234-2.759,2.758-2.759h110.967
		V236.437z"/>
	<g>
		<circle fill="#DE3F26" cx="128.792" cy="285.631" r="3.013"/>
	</g>
	<circle fill="#FFC947" cx="174.854" cy="285.631" r="3.013"/>
</g>
<g>
	<path fill="#30BEC2" d="M137.774,148.566H98.66c-1.932,0-3.497-1.566-3.497-3.498v-29.089c0-1.932,1.565-3.497,3.497-3.497h39.114
		c1.932,0,3.498,1.565,3.498,3.497v29.089C141.272,147,139.706,148.566,137.774,148.566z"/>
	<path fill="#FFFFFF" d="M128.224,128.416h-1.448c-0.222-0.791-0.55-1.541-0.977-2.227l1.117-1.117c0.425-0.426,0.425-1.117,0-1.542
		l-1.572-1.572c-0.426-0.426-1.116-0.426-1.542,0l-1.187,1.187c-0.656-0.369-1.36-0.659-2.102-0.847v-1.78
		c0-0.603-0.488-1.091-1.09-1.091H117.2c-0.603,0-1.091,0.488-1.091,1.091v1.8c-0.721,0.186-1.404,0.459-2.041,0.811l-1.303-1.303
		c-0.426-0.426-1.116-0.426-1.542,0l-1.572,1.572c-0.425,0.426-0.425,1.116,0,1.542l1.207,1.207
		c-0.404,0.643-0.72,1.342-0.949,2.083h-1.698c-0.602,0-1.09,0.488-1.09,1.09v2.223c0,0.603,0.488,1.09,1.09,1.09h1.488
		c0.167,0.821,0.449,1.604,0.835,2.329l-1.016,1.016c-0.426,0.425-0.426,1.116,0,1.542l1.572,1.572c0.426,0.426,1.116,0.426,1.542,0
		l0.882-0.882c0.736,0.479,1.546,0.85,2.406,1.089v1.233c0,0.603,0.489,1.091,1.091,1.091h2.223c0.603,0,1.091-0.488,1.091-1.091
		v-1.151c0.891-0.209,1.73-0.549,2.494-1.005l0.849,0.849c0.426,0.426,1.116,0.426,1.542,0l1.572-1.572
		c0.426-0.426,0.426-1.116,0-1.542l-0.872-0.872c0.433-0.744,0.758-1.555,0.958-2.417h1.354c0.602,0,1.09-0.488,1.09-1.09v-2.223
		C129.313,128.904,128.826,128.416,128.224,128.416z M119.406,136.322c-3.949,0.747-7.341-2.646-6.594-6.594
		c0.417-2.206,2.196-3.985,4.402-4.402c3.948-0.747,7.341,2.646,6.595,6.594C123.391,134.126,121.612,135.905,119.406,136.322z"/>
</g>
<g>
	<path fill="#F2632C" d="M196.663,128.632h-39.115c-1.932,0-3.498-1.565-3.498-3.497V96.046c0-1.931,1.566-3.497,3.498-3.497h39.115
		c1.93,0,3.497,1.566,3.497,3.497v29.089C200.16,127.067,198.593,128.632,196.663,128.632z"/>
	<g>
		<g>
			<g>
				<path fill="#FFFFFF" d="M169.32,116.655c-0.276,0-0.551-0.112-0.761-0.337l-4.86-5.202c-0.42-0.45-0.42-1.179,0-1.628
					l4.942-5.289c0.42-0.45,1.102-0.45,1.522,0s0.42,1.179,0,1.629l-4.181,4.474l4.099,4.387c0.42,0.45,0.42,1.18,0,1.629
					C169.87,116.543,169.595,116.655,169.32,116.655z"/>
			</g>
			<g>
				<path fill="#FFFFFF" d="M184.89,116.655c-0.275,0-0.552-0.112-0.762-0.337c-0.42-0.45-0.42-1.18,0-1.629l4.1-4.387l-4.182-4.474
					c-0.42-0.45-0.42-1.179,0-1.629c0.421-0.45,1.103-0.45,1.522,0l4.942,5.289c0.202,0.215,0.315,0.508,0.315,0.814
					s-0.113,0.599-0.315,0.814l-4.86,5.202C185.439,116.543,185.164,116.655,184.89,116.655z"/>
			</g>
		</g>
		<g>
			<path fill="#FFFFFF" d="M174.692,118.085c-0.135,0-0.272-0.028-0.405-0.086c-0.551-0.239-0.815-0.912-0.592-1.501l4.825-12.682
				c0.223-0.588,0.848-0.875,1.402-0.633c0.55,0.24,0.815,0.912,0.591,1.501l-4.824,12.682
				C175.52,117.813,175.118,118.085,174.692,118.085z"/>
		</g>
	</g>
</g>
<g>
	<g>
		<path fill="#FFFFFF" d="M231.971,135.566H134.92v-2.979c0-0.804,0.651-1.455,1.455-1.455h94.14c0.806,0,1.456,0.651,1.456,1.455
			V135.566z"/>
		<path fill="#383873" d="M229.262,187.308H137.63c-1.497,0-2.71-1.215-2.71-2.711v-49.03h97.051v49.03
			C231.971,186.093,230.758,187.308,229.262,187.308z"/>
		<g>
			<g>
				<circle fill="#F2632C" cx="226.63" cy="133.349" r="0.683"/>
				<circle fill="#F2632C" cx="221.94" cy="133.349" r="0.683"/>
				<circle fill="#F2632C" cx="217.251" cy="133.349" r="0.682"/>
			</g>
		</g>
		<path fill="#30BEC2" d="M193.844,142.559h-53.893c-0.518,0-0.938-0.42-0.938-0.938l0,0c0-0.518,0.42-0.938,0.938-0.938h53.893
			c0.518,0,0.937,0.42,0.937,0.938l0,0C194.78,142.139,194.361,142.559,193.844,142.559z"/>
		<path fill="#30BEC2" d="M193.844,148.528h-53.893c-0.518,0-0.938-0.42-0.938-0.938l0,0c0-0.518,0.42-0.938,0.938-0.938h53.893
			c0.518,0,0.937,0.42,0.937,0.938l0,0C194.78,148.107,194.361,148.528,193.844,148.528z"/>
		<path fill="#30BEC2" d="M168.134,154.497h-28.183c-0.518,0-0.938-0.42-0.938-0.938l0,0c0-0.518,0.42-0.938,0.938-0.938h28.183
			c0.518,0,0.938,0.42,0.938,0.938l0,0C169.071,154.077,168.651,154.497,168.134,154.497z"/>
		<path fill="#F2632C" d="M193.844,166.435h-53.893c-0.518,0-0.938-0.42-0.938-0.938l0,0c0-0.518,0.42-0.938,0.938-0.938h53.893
			c0.518,0,0.937,0.42,0.937,0.938l0,0C194.78,166.015,194.361,166.435,193.844,166.435z"/>
		<path fill="#F2632C" d="M168.134,172.404h-28.183c-0.518,0-0.938-0.42-0.938-0.938l0,0c0-0.518,0.42-0.938,0.938-0.938h28.183
			c0.518,0,0.938,0.42,0.938,0.938l0,0C169.071,171.984,168.651,172.404,168.134,172.404z"/>
		<path fill="#30BEC2" d="M168.134,178.372h-28.183c-0.518,0-0.938-0.419-0.938-0.938l0,0c0-0.518,0.42-0.938,0.938-0.938h28.183
			c0.518,0,0.938,0.42,0.938,0.938l0,0C169.071,177.953,168.651,178.372,168.134,178.372z"/>
		<path fill="#FFFFFF" d="M193.844,154.497h-20.253c-0.518,0-0.938-0.42-0.938-0.938l0,0c0-0.518,0.42-0.938,0.938-0.938h20.253
			c0.518,0,0.937,0.42,0.937,0.938l0,0C194.78,154.077,194.361,154.497,193.844,154.497z"/>
		<path fill="#F2632C" d="M220.594,141.093l-14.319,14.32c-0.367,0.366-0.961,0.366-1.327,0l0,0c-0.367-0.366-0.367-0.96,0-1.327
			l14.32-14.32c0.367-0.367,0.961-0.367,1.326,0l0,0C220.96,140.132,220.96,140.726,220.594,141.093z"/>
		<circle fill="#F2632C" cx="212.771" cy="168.183" r="8.444"/>
		<circle fill="#30BEC2" cx="206.886" cy="174.068" r="4.78"/>
	</g>
	<polyline fill="#383873" points="134.92,182.071 134.92,199.145 150.611,183.452 	"/>
</g>
<g>
	<polygon fill="#86BFBC" points="118.217,203.76 152.646,203.76 165.095,227.722 130.667,227.722 	"/>
	<path fill="#FFFFFF" d="M131.364,225.949l-10.309-19.84c-0.216-0.417,0.086-0.914,0.555-0.914h29.784
		c0.233,0,0.447,0.13,0.555,0.337l10.309,19.841c0.216,0.416-0.085,0.913-0.554,0.913h-29.785
		C131.685,226.286,131.472,226.156,131.364,225.949z"/>
	<rect x="130.667" y="227.722" fill="#B8E2E2" width="27.884" height="3.198"/>
	<path fill="#9FCCC9" d="M182.508,227.722h-27.516c-0.883,0-1.599,0.716-1.599,1.599l0,0c0,0.884,0.716,1.6,1.599,1.6h27.516
		c0.884,0,1.6-0.716,1.6-1.6l0,0C184.107,228.438,183.392,227.722,182.508,227.722z"/>
	<path fill="#B8E2E2" d="M130.667,227.722l-12.45-23.962l-0.624,0.469c-0.403,0.302-0.527,0.852-0.292,1.298l13.365,25.394V227.722z
		"/>
	<rect x="140.132" y="229.215" fill="#9FCCC9" width="3.07" height="0.532"/>
	<rect x="143.991" y="229.215" fill="#9FCCC9" width="3.069" height="0.532"/>
	<rect x="147.85" y="229.215" fill="#9FCCC9" width="3.07" height="0.532"/>
</g>
<g>
	<path fill="#383873" d="M193.436,274.621c0,0-28.558,22.234-33.086,27.883c-1.708,2.14-4.687,5.886-7.773,9.726
		c-5.067,6.309-10.442,12.883-11.081,13.04c-1.019,0.259-9.589-6.265-9.847-7.672c-0.158-0.876,7.644-14.268,14.397-25.034
		c4.113-6.545,7.831-12.129,9.137-13.334c3.452-3.201,24.697-14.455,24.697-14.455L193.436,274.621z"/>
	<path opacity="0.15" fill="none" stroke="#010101" stroke-width="0.8185" stroke-linecap="round" stroke-miterlimit="10" d="
		M138.939,320.525c0,0,26.679-37.974,40.072-44.369"/>
	<path fill="#382424" d="M223.198,177.113c-0.301,0.688-0.646,1.406-1.032,2.14c-2.09,3.99-0.547,7.987-2.929,9.007
		c-0.144,0.058-0.302,0.114-0.481,0.15c-3.07,0.682-10.147-3.409-10.457-5.455c-0.309-2.045,2.182-5.547,0-5.971
		c-2.181-0.424-3.359,3.244-3.359,3.244c-1.793,0.188-2.432-2.82-5.374-2.82c-0.418,0-0.825,0.058-1.221,0.157
		c-1.386,0.345-2.599,1.199-3.374,1.859c-0.574,0.48-0.904,0.86-0.904,0.86s-2.619-1.657-2.497-4.923
		c0.209-5.175,2.117-8.95,6.719-9.717c0.509-5.756,5.246-8.828,11.576-9.022c5.547-0.172,6.379,4.816,6.51,6.058
		c-0.05-0.926-0.309-3.969-1.629-6.058c2.776-0.122,5.224,1.859,4.585,8.318c0.639-1.923,2.879-3.136,4.602-1.73
		c-1.595,0-3.131,2.684-3.131,2.684s1.874,1.199,3.151,3.417C225.014,171.143,224.613,173.848,223.198,177.113z"/>
	<path fill="#F9AC95" d="M219.237,188.26l-0.072,0.947l-0.243,3.359c0,0-5.11,4.37-8.01,0c-0.022-0.029-0.036-0.058-0.065-0.087
		c-0.897-1.334-1.707-1.802-2.447-1.888c-1.6-0.193-2.893,1.371-4.227-0.322c-3.819-4.845-5.34-10.457-5.828-12.704
		c0.396-0.1,0.803-0.157,1.221-0.157c2.942,0,3.581,3.008,5.374,2.82c0,0,1.179-3.668,3.359-3.244c2.182,0.424-0.309,3.926,0,5.971
		c0.137,0.912,1.623,2.232,3.502,3.353c2.19,1.313,4.917,2.354,6.646,2.153c0.108-0.015,0.209-0.029,0.309-0.051
		C218.936,188.374,219.094,188.317,219.237,188.26z"/>
	<path opacity="0.25" fill="#010101" d="M220.033,194.511c-2.303,1.572-6.523,1.83-6.523,1.83l-3.452-0.51
		c0,0-1.442-2.096-0.768-3.265c0.129-0.23,0.452-0.546,0.911-0.919c0.927-0.761,2.418-1.737,3.961-2.541
		c1.594-0.825,3.237-1.479,4.423-1.551C221.484,187.392,222.337,192.932,220.033,194.511z"/>
	<path fill="#30BEC2" d="M219.352,250.492c-5.138,0.99-16.012-2.039-21.214-4.378c-1.537-0.689-2.585-1.32-2.837-1.766
		c-0.996-1.759,0.007-3.108,2.483-8.691c0.281-0.632,0.574-1.313,0.891-2.053c1.679-3.954,1.688-12.388,1.679-19.658
		c-0.021-6.223-0.05-11.591,0.94-12.546c2.146-2.066,12.854-8.834,12.854-8.834l2.131,11.109c0,0,1.206,5.642,2.477,13.006
		C221.096,230.238,223.666,249.659,219.352,250.492z"/>
	<path fill="#383873" d="M222.934,255.437c0,0.51-5.118,12.445-9.41,14.153c-4.292,1.709-30.158-0.172-30.158-0.172l-12.789,8.361
		l2.677,25.191l1.866,17.555l0.057,0.568c-3.912,2.554-13.765,3.243-14.828,1.04c-0.007-0.007-0.007-0.015-0.007-0.015
		c-1.026-2.218-16.715-49.457-10.572-57.646c6.137-8.182,45.531-20.124,45.531-20.124c1.028,0.653,2.218,1.241,3.519,1.766
		c4.377,1.794,9.939,2.921,14.174,3.581c1.629,0.252,3.057,0.438,4.147,0.566c1.379,0.166,2.211,0.23,2.211,0.23
		S222.934,254.921,222.934,255.437z"/>
	<path fill="#1F2657" d="M176.799,337.551h-33.258c-0.165-0.589,0.057-1.185,0.56-1.788c1.349-1.621,4.729-3.251,7.988-4.658
		c3.093-1.334,6.065-2.482,7.063-3.271c2.347-1.859,1.263-5.477,1.198-5.699c0.359,0.739,1.715,1.155,3.51,1.277
		c3.524,0.251,8.727-0.624,11.318-2.317l-0.057-0.568c0.991,1.896,1.457,11.262,1.615,15.237
		C176.777,336.861,176.799,337.551,176.799,337.551z"/>
	<path fill="#2E4780" d="M163.859,323.411c-0.101,1.586-0.33,4.155-0.79,4.845c-0.682,1.026-8.017,4.607-9.036,4.264
		c-0.66-0.216-1.464-0.934-1.945-1.415c3.093-1.334,6.065-2.482,7.063-3.271c2.347-1.859,1.263-5.477,1.198-5.699
		C160.708,322.873,162.064,323.289,163.859,323.411z"/>
	<path fill="#2E4780" d="M176.799,337.551h-33.258c-0.165-0.589,0.057-1.185,0.56-1.788h32.634
		C176.777,336.861,176.799,337.551,176.799,337.551z"/>
	<path fill="#1F2657" d="M141.495,325.27c0,0-2.526,6.66-4.715,10.186c-0.869,1.406-1.694,2.317-2.275,2.096
		c-2.045-0.769-22.601-18.244-20.634-19.522c0.288-0.187,0.747-0.315,1.321-0.388c1.787-0.229,4.751,0.021,7.493,0.302
		c2.354,0.244,4.542,0.509,5.684,0.509c2.899,0,3.28-0.854,3.28-0.854c0.065,0.338,0.61,0.977,1.421,1.751
		C135.61,321.761,140.72,325.464,141.495,325.27z"/>
	<path fill="#2E4780" d="M133.069,319.349c-4.357,2.886-8.899,1.148-9.797,0.488c-0.661-0.481-0.661-1.378-0.588-1.895
		c2.354,0.244,4.542,0.509,5.684,0.509c2.899,0,3.28-0.854,3.28-0.854C131.713,317.936,132.258,318.574,133.069,319.349z"/>
	<path fill="#2E4780" d="M136.78,335.455c-0.869,1.406-1.694,2.317-2.275,2.096c-2.045-0.769-22.601-18.244-20.634-19.522
		c0.288-0.187,0.747-0.315,1.321-0.388L136.78,335.455z"/>
	<path fill="#F9AC95" d="M198.151,228.724c-1.608,2.239-4.486,5.656-6.854,5.311c-0.086-0.014-0.18-0.027-0.295-0.049
		c-4.521-0.797-31.112-7.465-32.368-7.716c-1.277-0.251-10.228-0.338-9.718-1.277c0.509-0.94,5.627-3.919,6.991-3.847
		c1.363,0.071,6.739,1.628,12.107,1.456c5.375-0.165,19.443,0,19.443,0l0.682-1.177l1.006-1.737
		C188.863,224.898,195.144,229.147,198.151,228.724z"/>
	<path opacity="0.15" fill="none" stroke="#010101" stroke-width="0.8185" stroke-linecap="round" stroke-miterlimit="10" d="
		M198.151,248.145c0,0-1.225,6.523,3.548,8.697"/>
	<path opacity="0.15" fill="none" stroke="#010101" stroke-width="0.8185" stroke-linecap="round" stroke-miterlimit="10" d="
		M195.646,253.389c0,0-31.589,13.473-33.105,17.651c-1.516,4.178,8.036,49.485,8.036,49.485"/>
	<path opacity="0.15" fill="#010101" d="M222.934,255.437c0,0.51-5.118,12.445-9.41,14.153c-4.292,1.709-30.158-0.172-30.158-0.172
		l-12.789,8.361l2.677,25.191c0,0-5.404-28.772-5.404-30.653c0-1.607,35.727-11.878,45.144-22.622
		c3.688,0.581,6.358,0.797,6.358,0.797S222.934,254.921,222.934,255.437z"/>
	<path opacity="0.25" fill="#010101" d="M206.089,224.906c-2.218,3.143-5.792,7.133-8.305,10.751
		c0.281-0.632,0.574-1.313,0.891-2.053c1.679-3.954,1.688-12.388,1.679-19.658l7.659-5.067
		C208.013,208.879,209.67,219.832,206.089,224.906z"/>
	<path fill="#149799" d="M199.55,227.755c-0.33,0.302-0.668,0.604-1.005,0.883c-0.122,0.043-0.25,0.072-0.394,0.086
		c-3.008,0.424-9.288-3.825-9.007-9.036c0.021-0.387,0.33-1.162,0.832-2.174c2.569-5.182,10.298-16.716,11.72-16.185
		c0,0,4.967,0.768,6.316,7.55C209.274,215.245,204.717,222.969,199.55,227.755z"/>
	<path opacity="0.25" fill="#010101" d="M217.141,250.262c-1.091-0.128-2.519-0.314-4.147-0.566
		c-4.234-0.66-9.797-1.787-14.174-3.581c3.86-0.137,12.122-2.677,13.118-21.589c0.452,3.538,1.134,7.206,2.081,10.959
		C215.289,240.473,216.488,245.733,217.141,250.262z"/>
	<path opacity="0.25" fill="#010101" d="M215.103,187.879c-0.394,0.459-0.702,0.876-0.94,1.228c-1.543,0.804-3.034,1.78-3.961,2.541
		c-0.646-0.711-1.241-0.99-1.802-1.056l3.401-4.284C212.835,186.933,213.991,187.484,215.103,187.879z"/>
	<path opacity="0.25" fill="#010101" d="M198.151,228.724c-1.608,2.239-4.486,5.656-6.854,5.311
		c-0.086-0.014-0.18-0.027-0.295-0.049c-2.929-4.235-3.036-9.783-2.863-12.561l1.006-1.737
		C188.863,224.898,195.144,229.147,198.151,228.724z"/>
	<path opacity="0.25" fill="#010101" d="M223.198,177.113c-0.301,0.688-0.646,1.406-1.032,2.14c-1.027,1.959-1.17,3.911-1.343,5.525
		c-0.345-0.266-0.695-0.509-1.048-0.718c-2.219,1.321-3.71,2.692-4.673,3.818l-0.007,0.008c-3.129-1.12-6.581-3.517-6.797-4.932
		c-0.309-2.045,2.182-5.547,0-5.971c-2.181-0.424-3.359,3.244-3.359,3.244c-1.793,0.188-2.432-2.82-5.374-2.82
		c-0.418,0-0.825,0.058-1.221,0.157c-1.386,0.345-2.599,1.199-3.374,1.859c0,0,3.317-4.658,8.521-3.718c0,0-0.761-1.45-4.263-1.277
		c7.333-2.39,12.021-1.45,14.281,1.191C215.354,177.781,219.683,180.451,223.198,177.113z"/>
</g>
<g>
	<path fill="#B8E2E2" d="M238.112,277.779h-25.585c0,0,20.296-5.971,20.296-46.221c0-0.517,0-1.026-0.007-1.536
		c-0.208-26.898-5.958-41.733-13.041-45.962c2.218-1.313,5.168-2.569,9.064-3.438c1.701-0.388,3.574-0.695,5.648-0.911
		c17.519-1.787,31.515,5.081,33.18,12.854C269.325,200.339,259.084,277.779,238.112,277.779z"/>
	<path fill="#86BFBC" d="M232.823,231.559c0,40.25-20.296,46.221-20.296,46.221h-41.951l1.744-1.241l11.045-7.12l22.171-1.536
		c1.191-4.944,4.436-5.109,9.38-5.627c2.879-0.294,3.158-5.152,2.283-11.576c-0.639-4.622-1.874-10.056-3.181-15.194
		c-0.947-3.753-1.629-7.421-2.081-10.959c-0.537-4.142-0.773-8.096-0.796-11.821c-0.065-8.482,0.97-15.731,2.061-20.972
		c0.099-0.508,0.207-0.996,0.314-1.463c0-0.015,0.007-0.036,0.007-0.051c0.102-0.223,0.54-1.127,1.572-2.332l0.007-0.008
		c0.963-1.126,2.454-2.497,4.673-3.818c0.353,0.209,0.703,0.452,1.048,0.718c6.596,5.024,11.792,19.688,11.993,45.244
		C232.823,230.532,232.823,231.042,232.823,231.559z"/>
	<path fill="#B8E2E2" d="M224.728,337.551h-30.2c-1.035,0-1.487-1.308-0.668-1.945l7.558-5.915
		c3.352-2.626,5.311-6.652,5.311-10.908v-41.003h5.8v41.003c0,4.256,1.959,8.282,5.317,10.908l7.55,5.915
		C226.213,336.243,225.761,337.551,224.728,337.551z"/>
	<g opacity="0.25">
		<g>
			<path fill="none" stroke="#010101" stroke-width="0.8185" stroke-linecap="round" stroke-miterlimit="10" d="M247.762,181.257
				c0,0,0.252,0.644,0.658,1.935"/>
			
				<path fill="none" stroke="#010101" stroke-width="0.8185" stroke-linecap="round" stroke-miterlimit="10" stroke-dasharray="4.2526,4.2526" d="
				M249.579,187.281c0.991,3.857,2.215,9.573,3.199,17.161c2.726,21.031-0.006,50.491-18.077,69.344"/>
			<path fill="none" stroke="#010101" stroke-width="0.8185" stroke-linecap="round" stroke-miterlimit="10" d="M233.196,275.296
				c-0.488,0.473-0.988,0.938-1.498,1.395"/>
		</g>
	</g>
	<path opacity="0.15" fill="#010101" d="M212.527,277.779v11.196c-2.011,1.048-4.049,1.852-5.8,2.44v-13.637H212.527z"/>
	<path opacity="0.15" fill="#010101" d="M220.544,260.382c-1.365,4.263-9.884,3.5-10.916,6.653
		c-2.194,6.691-3.41,3.746-11.844,4.601c-4.822,0.488-8.325,3.581-10.435,6.144h-16.773l1.744-1.241l11.045-7.12l22.171-1.536
		c1.191-4.944,4.436-5.109,9.38-5.627c2.879-0.294,3.158-5.152,2.283-11.576c-0.639-4.622-1.874-10.056-3.181-15.194
		c-0.947-3.753-1.629-7.421-2.081-10.959c-0.537-4.142-0.773-8.096-0.796-11.821C214.421,229.801,221.556,257.224,220.544,260.382z"
		/>
	<path opacity="0.15" fill="#010101" d="M232.823,231.559c0-0.517,0-1.026-0.007-1.536c-0.208-26.898-5.958-41.733-13.041-45.962
		c2.218-1.313,5.168-2.569,9.064-3.438c-1.17,1.687-2.391,4.22-1.815,6.926c1.026,4.787,12.624,23.204,8.188,52.709
		c-3.201,21.287-2.139,32.361,1.206,37.521h-23.892C212.527,277.779,232.823,271.809,232.823,231.559z"/>
</g>
<path opacity="0.25" fill="#010101" d="M86.433,209.633c-0.015,0.934-0.101,1.816-0.273,2.598h-8.232
	c-2.419-1.607-6.366-4.786-8.735-9.559c2.204,2.396,5.964,5.317,9.797,6.207C82.334,209.654,84.825,209.324,86.433,209.633z"/>
<g>
	<path fill="#30BEC2" d="M105.552,176.948c-0.919,3.337-5.131,9.812-8.979,16.745c-4.206,7.563-7.966,15.667-6.495,20.813
		c0.366,1.292,0.531,2.239,0.531,2.921c0.015,2.239-1.687,1.543-3.402,0.273c-1.751-1.299-3.524-3.194-3.524-3.194l0.129-9.976
		c0,0-5.655-5.196-1.012-16.565c0.294-0.718,0.632-1.464,1.012-2.238c6.395-12.919,15.983-26.477,6.905-30.316
		C103.255,154.642,107.476,169.965,105.552,176.948z"/>
	<g opacity="0.53">
		<path fill="#010101" d="M90.717,155.411c0,0,0.222,0.035,0.626,0.154c0.402,0.124,0.983,0.342,1.671,0.723
			c1.383,0.73,3.144,2.31,4.279,4.785c0.542,1.24,0.942,2.659,1.174,4.193c0.217,1.546-0.09,3.212-0.509,4.833
			c-0.887,3.267-2.334,6.574-3.821,9.841c-3.004,6.521-6.277,12.929-8,17.999c-0.419,1.266-0.785,2.435-0.998,3.488
			c-0.232,1.049-0.347,1.976-0.357,2.729c-0.019,0.755,0.064,1.334,0.152,1.711c0.102,0.374,0.156,0.573,0.156,0.573l0.018,0.067
			c0.059,0.217-0.069,0.441-0.287,0.5c-0.217,0.06-0.441-0.068-0.5-0.286l-0.001-0.004c0,0-0.061-0.234-0.175-0.674
			c-0.096-0.438-0.178-1.094-0.146-1.908c0.023-0.816,0.159-1.789,0.415-2.87c0.237-1.089,0.626-2.274,1.071-3.556
			c1.823-5.116,5.19-11.476,8.281-17.942c1.53-3.238,3.018-6.514,3.941-9.736c0.438-1.613,0.762-3.212,0.571-4.74
			c-0.208-1.521-0.583-2.931-1.103-4.166c-1.087-2.464-2.811-4.059-4.179-4.807c-0.68-0.389-1.257-0.616-1.657-0.745
			C90.939,155.449,90.717,155.411,90.717,155.411z"/>
	</g>
	<path fill="#149799" d="M99.796,197.109c-3.833,10.105,0,17.771-5.756,18.861c-2.634,0.502-3.797-1.45-4.278-3.718
		c-0.574-2.685-0.193-5.807-0.193-5.807s0.976-2.498,3.028-4.923C94.27,199.55,96.646,197.626,99.796,197.109z"/>
	<path fill="#B8E2E2" d="M86.433,209.633c-0.022,2.354-0.553,4.35-1.644,5.397c-0.108,0.107-0.216,0.201-0.316,0.28
		c-2.72,2.203-4.457-1.83-4.457-1.83s-7.234-3.567-10.823-10.809c-2.749-5.563-3.359-13.3,3.108-23.247
		c0.947,7.084,4.83,11.906,8.677,16.485c0,0.008,0,0.008,0,0.008c0.481,0.573,0.955,1.134,1.429,1.7
		C85.069,200.813,86.468,205.722,86.433,209.633z"/>
	<g opacity="0.53">
		<path fill="#010101" d="M72.298,179.426c0,0-0.134,0.568-0.282,1.578c-0.147,1.009-0.309,2.46-0.335,4.207
			c-0.014,0.872,0,1.819,0.086,2.814c0.069,0.997,0.221,2.04,0.43,3.107c0.104,0.533,0.259,1.064,0.388,1.608
			c0.181,0.528,0.333,1.073,0.544,1.602c0.42,1.048,0.921,2.11,1.546,3.078c0.589,0.984,1.307,1.904,2.015,2.794
			c0.73,0.878,1.476,1.721,2.209,2.532c0.733,0.81,1.438,1.605,2.083,2.387c0.321,0.392,0.614,0.791,0.905,1.171
			c0.262,0.403,0.539,0.777,0.761,1.168c0.454,0.775,0.796,1.536,1.023,2.238c0.097,0.357,0.197,0.69,0.271,1.002
			c0.042,0.318,0.082,0.611,0.117,0.876c0.09,0.528,0.018,0.949,0.036,1.234c-0.003,0.286-0.005,0.438-0.005,0.438
			c-0.003,0.226-0.188,0.406-0.414,0.403c-0.226-0.003-0.406-0.188-0.403-0.414c0-0.001,0-0.003,0-0.005l0.001-0.059
			c0,0,0.004-0.139,0.012-0.4c-0.012-0.259,0.067-0.646-0.007-1.129c-0.026-0.242-0.056-0.511-0.088-0.803
			c-0.071-0.285-0.147-0.594-0.229-0.924c-0.196-0.653-0.498-1.369-0.912-2.114c-0.202-0.374-0.461-0.74-0.703-1.134
			c-0.275-0.374-0.55-0.768-0.856-1.158c-0.615-0.78-1.294-1.582-2.011-2.409c-0.715-0.826-1.45-1.693-2.168-2.597
			c-0.7-0.922-1.403-1.861-1.99-2.894c-0.618-1.008-1.092-2.075-1.504-3.167c-0.203-0.542-0.345-1.1-0.517-1.64
			c-0.12-0.554-0.264-1.096-0.358-1.638c-0.188-1.083-0.318-2.139-0.365-3.144c-0.065-1.003-0.058-1.955-0.025-2.831
			c0.065-1.752,0.259-3.202,0.429-4.209C72.152,179.991,72.298,179.426,72.298,179.426z"/>
	</g>
	<g opacity="0.25">
		<path fill="#010101" d="M99.799,197.109c0,0-0.831,0.949-1.974,2.453c-1.14,1.506-2.582,3.574-3.834,5.75
			c-0.628,1.087-1.196,2.204-1.688,3.268c-0.226,0.54-0.444,1.062-0.65,1.556c-0.177,0.504-0.345,0.98-0.5,1.421
			c-0.121,0.447-0.232,0.858-0.33,1.223c-0.113,0.36-0.139,0.688-0.194,0.951c-0.093,0.529-0.146,0.831-0.146,0.831l-0.007,0.042
			c-0.039,0.223-0.251,0.371-0.474,0.332s-0.372-0.251-0.333-0.474c0.001-0.005,0.002-0.011,0.003-0.016
			c0,0,0.068-0.316,0.188-0.869c0.068-0.274,0.112-0.618,0.244-0.987c0.117-0.373,0.25-0.794,0.394-1.253
			c0.177-0.445,0.369-0.928,0.572-1.438c0.22-0.501,0.476-1.019,0.728-1.56c0.543-1.061,1.165-2.167,1.842-3.237
			c1.352-2.143,2.883-4.156,4.084-5.618C98.93,198.024,99.799,197.109,99.799,197.109z"/>
	</g>
	<path fill="#B8E2E2" d="M97.471,214.758l-2.455,15.071c-0.122,0.632-0.674,1.091-1.321,1.091H78.401
		c-0.646,0-1.199-0.459-1.321-1.091l-1.995-12.237l-0.459-2.834c-0.151-0.825,0.481-1.587,1.321-1.587H96.15
		C96.99,213.171,97.622,213.933,97.471,214.758z"/>
	<path fill="#86BFBC" d="M99.796,217.829H72.301l0.725-4.104c0.158-0.862,0.904-1.494,1.78-1.494h22.493
		c0.869,0,1.622,0.632,1.773,1.494L99.796,217.829z"/>
	<path opacity="0.25" fill="#010101" d="M89.569,206.446c0,0-0.38,3.107,0.187,5.784H86.16c0.172-0.781,0.258-1.664,0.273-2.598
		c0.036-3.911-1.364-8.82-4.026-12.015c-0.474-0.566-0.948-1.127-1.429-1.7c0,0,0,0,0-0.008c0.058-2.203,0.56-4.845,1.823-7.945
		c0.208,3.625,1.098,9.927,4.715,10.594c2.749,0.503,6.33-2.225,9.058-4.865c-1.442,2.59-2.828,5.245-3.977,7.83
		C90.545,203.948,89.569,206.446,89.569,206.446z"/>
	<path opacity="0.25" fill="#010101" d="M87.53,230.92h-9.129c-0.646,0-1.199-0.459-1.321-1.091l-1.959-12h7.888
		c-0.194,1.68-0.431,4.816,0.165,7.249C83.641,227.009,85.334,229.492,87.53,230.92z"/>
</g>
<path fill="#B71E51" d="M155.365,106.774h-53.966c-2.664,0-4.825-1.565-4.825-3.497V74.188c0-1.932,2.161-3.497,4.825-3.497h53.966
	c2.665,0,4.825,1.565,4.825,3.497v29.089C160.19,105.208,158.029,106.774,155.365,106.774z"/>
<g>
	<g>
		<g>
			<path fill="#383873" d="M174.523,73.782c1.464,0,1.81-0.985,1.81-1.863c0-0.771-0.08-1.517-0.159-2.262
				c-0.08-0.799-0.161-1.517-0.161-2.342c0-2.395,1.465-3.406,3.354-3.406h0.32v1.384h-0.398c-1.119,0-1.571,0.798-1.571,1.996
				c0,0.719,0.081,1.384,0.16,2.022c0.053,0.692,0.133,1.331,0.133,1.969c0.026,2.076-0.691,2.794-1.836,3.114v0.053
				c1.145,0.346,1.862,1.064,1.836,3.167c0,0.666-0.08,1.33-0.133,1.996c-0.079,0.666-0.16,1.331-0.16,2.049
				c0,1.197,0.399,2.022,1.597,2.022h0.373v1.384h-0.346c-1.757,0-3.328-0.878-3.328-3.406c0-0.799,0.081-1.597,0.161-2.369
				c0.079-0.771,0.159-1.543,0.159-2.289c0-0.851-0.346-1.889-1.81-1.889V73.782z"/>
			<path fill="#383873" d="M201.651,75.113c-1.462,0-1.809,1.038-1.809,1.889c0,0.746,0.079,1.517,0.159,2.289
				c0.079,0.771,0.16,1.57,0.16,2.369c0,2.528-1.571,3.406-3.326,3.406h-0.347v-1.384h0.372c1.199-0.133,1.598-0.825,1.598-2.022
				c0-0.719-0.08-1.384-0.134-2.049c-0.08-0.666-0.159-1.33-0.159-1.996c-0.027-2.103,0.69-2.821,1.836-3.167v-0.053
				c-1.146-0.319-1.863-1.038-1.836-3.114c0-0.639,0.079-1.277,0.159-1.969c0.054-0.639,0.134-1.304,0.134-2.022
				c0-1.197-0.453-1.863-1.57-1.996h-0.399V63.91h0.319c1.889,0,3.354,1.011,3.354,3.406c0,0.825-0.081,1.543-0.16,2.342
				c-0.08,0.745-0.159,1.49-0.159,2.262c0,0.878,0.347,1.863,1.809,1.863V75.113z"/>
		</g>
	</g>
	<polygon fill="#F2632C" points="192.521,77.047 192.521,71.928 188.087,69.369 183.655,71.928 183.655,77.047 188.087,79.606 	"/>
</g>
<g>
	<path fill="#F2632C" d="M225.874,102.553c-4.167-2.075-9.179-1.256-12.472,2.038c-4.066,4.065-4.201,10.581-0.43,14.824
		l-1.624-0.193c-0.197-0.023-0.377,0.117-0.399,0.314c-0.023,0.197,0.117,0.375,0.313,0.399l2.476,0.294
		c0.099,0.012,0.193-0.018,0.265-0.075c0.072-0.056,0.122-0.141,0.134-0.239l0.284-2.395c0.024-0.197-0.116-0.375-0.313-0.398
		c-0.196-0.024-0.375,0.117-0.398,0.313l-0.182,1.525c-3.54-3.961-3.42-10.06,0.382-13.863c3.076-3.075,7.755-3.84,11.645-1.903
		c0.178,0.089,0.394,0.016,0.481-0.161C226.124,102.856,226.052,102.641,225.874,102.553z"/>
	<path fill="#F2632C" d="M216.557,122.412c4.167,2.075,9.179,1.256,12.472-2.038c4.066-4.065,4.201-10.581,0.43-14.825l1.626,0.193
		c0.196,0.024,0.375-0.117,0.397-0.313c0.023-0.197-0.117-0.375-0.313-0.399l-2.476-0.294c-0.099-0.012-0.191,0.018-0.265,0.074
		c-0.072,0.057-0.122,0.141-0.134,0.24l-0.284,2.395c-0.024,0.197,0.116,0.375,0.313,0.398c0.196,0.023,0.375-0.117,0.398-0.313
		l0.182-1.525c3.54,3.961,3.42,10.06-0.382,13.863c-3.074,3.075-7.755,3.84-11.645,1.903c-0.178-0.089-0.392-0.016-0.481,0.161
		C216.307,122.109,216.381,122.324,216.557,122.412z"/>
</g>
<g>
	<path fill="#F2632C" d="M312.541,142.559h-64.954c-1.184,0-2.143-0.96-2.143-2.144l0,0c0-1.184,0.959-2.144,2.143-2.144h64.954
		c1.184,0,2.145,0.96,2.145,2.144l0,0C314.686,141.599,313.725,142.559,312.541,142.559z"/>
	<path fill="#30BEC2" d="M289.347,151.877h-41.76c-1.184,0-2.143-0.96-2.143-2.144l0,0c0-1.185,0.959-2.144,2.143-2.144h41.76
		c1.185,0,2.145,0.959,2.145,2.144l0,0C291.491,150.917,290.531,151.877,289.347,151.877z"/>
	<path fill="#30BEC2" d="M289.347,161.882h-41.76c-1.184,0-2.143-0.959-2.143-2.144l0,0c0-1.184,0.959-2.144,2.143-2.144h41.76
		c1.185,0,2.145,0.96,2.145,2.144l0,0C291.491,160.922,290.531,161.882,289.347,161.882z"/>
</g>
<g>
	<path fill="#30BEC2" d="M82.233,106.939h-33.74c-1.184,0-2.143-0.96-2.143-2.144l0,0c0-1.184,0.959-2.144,2.143-2.144h33.74
		c1.184,0,2.144,0.959,2.144,2.144l0,0C84.376,105.979,83.417,106.939,82.233,106.939z"/>
	<path fill="#F2632C" d="M69.495,116.258H48.493c-1.184,0-2.143-0.96-2.143-2.144l0,0c0-1.184,0.959-2.144,2.143-2.144h21.001
		c1.184,0,2.144,0.96,2.144,2.144l0,0C71.638,115.298,70.679,116.258,69.495,116.258z"/>
	<path fill="#F2632C" d="M69.495,126.263H48.493c-1.184,0-2.143-0.96-2.143-2.144l0,0c0-1.184,0.959-2.144,2.143-2.144h21.001
		c1.184,0,2.144,0.96,2.144,2.144l0,0C71.638,125.303,70.679,126.263,69.495,126.263z"/>
</g>
<g>
	<path fill="#149799" d="M283.278,262.342c-2.103,6.101-4.615,11.426-7.242,16.234c-9.079,16.586-19.622,27.137-20.017,42.603
		c0,0-3.272-14.569-0.646-31.169c1.472-9.324,4.801-19.286,11.612-27.668c18.954-23.312,16.148-44.513,16.148-44.513
		S292.637,235.219,283.278,262.342z"/>
	<g opacity="0.25">
		<path fill="#010101" d="M260.896,303.039c0,0-0.014-0.09-0.039-0.262c-0.027-0.182-0.056-0.442-0.082-0.776
			c-0.052-0.672-0.096-1.656-0.035-2.9c0.034-1.247,0.216-2.749,0.491-4.457c0.341-1.694,0.752-3.606,1.437-5.618
			c0.63-2.03,1.516-4.156,2.517-6.37c0.548-1.083,1.092-2.207,1.701-3.326c0.648-1.097,1.25-2.254,1.974-3.362
			c1.418-2.245,2.983-4.452,4.286-6.86c1.325-2.404,2.501-4.943,3.547-7.536c2.09-5.188,3.679-10.579,4.838-15.701
			c1.162-5.123,1.909-9.981,2.309-14.166c0.395-4.185,0.445-7.704,0.186-10.145c-0.132-1.218-0.303-2.172-0.519-2.793
			c-0.082-0.32-0.201-0.544-0.267-0.7c-0.068-0.156-0.104-0.236-0.104-0.236s0.037,0.08,0.108,0.233
			c0.068,0.156,0.191,0.379,0.279,0.697c0.229,0.619,0.418,1.572,0.573,2.791c0.306,2.442,0.32,5.971,0.004,10.175
			c-0.337,4.203-1.033,9.083-2.134,14.24c-1.101,5.156-2.628,10.59-4.668,15.845c-1.022,2.626-2.177,5.204-3.488,7.657
			c-1.3,2.473-2.855,4.733-4.248,6.936c-0.712,1.098-1.302,2.242-1.94,3.327c-0.598,1.106-1.13,2.217-1.668,3.286
			c-0.979,2.185-1.846,4.279-2.457,6.274c-0.667,1.979-1.063,3.853-1.392,5.51c-0.278,1.666-0.472,3.129-0.515,4.339
			c-0.069,1.208-0.035,2.157,0.01,2.797c0.022,0.322,0.046,0.563,0.068,0.718c0.022,0.164,0.034,0.248,0.034,0.248l0.003,0.019
			c0.031,0.224-0.125,0.431-0.349,0.462C261.134,303.414,260.929,303.26,260.896,303.039z"/>
	</g>
	<path opacity="0.25" fill="#010101" d="M276.036,278.576c-9.079,16.586-19.622,27.137-20.017,42.603c0,0-3.272-14.569-0.646-31.169
		C261.259,287.604,269.534,283.687,276.036,278.576z"/>
	<path fill="#30BEC2" d="M261.283,337.552c0,0-6.63-11.335,9.06-25.322c15.689-13.988,27.97-32.487,25.582-47.455
		c-15.008,17.437-54.915,42.16-43.659,72.776L261.283,337.552z"/>
	<g opacity="0.25">
		<path fill="#010101" d="M295.925,264.774c0,0-0.121,0.318-0.413,0.885c-0.143,0.284-0.318,0.636-0.525,1.049
			c-0.228,0.401-0.49,0.863-0.783,1.381c-0.558,1.053-1.393,2.233-2.285,3.629c-0.449,0.697-1.01,1.38-1.556,2.132
			c-0.57,0.733-1.107,1.555-1.782,2.32c-0.664,0.774-1.354,1.581-2.07,2.416c-0.36,0.415-0.715,0.849-1.098,1.268
			c-0.399,0.404-0.804,0.814-1.215,1.23c-0.821,0.831-1.665,1.686-2.527,2.56c-0.853,0.885-1.849,1.654-2.793,2.511
			c-1.915,1.68-3.894,3.415-5.904,5.179c-0.926,0.958-1.901,1.88-2.803,2.881c-0.864,1.035-1.804,2.017-2.611,3.103
			c-1.66,2.14-3.207,4.368-4.541,6.675c-0.665,1.153-1.341,2.29-1.891,3.476c-0.289,0.584-0.577,1.166-0.863,1.742
			c-0.276,0.581-0.503,1.181-0.754,1.762c-0.245,0.585-0.488,1.164-0.729,1.738c-0.204,0.588-0.405,1.17-0.605,1.746
			c-0.197,0.576-0.393,1.146-0.586,1.71c-0.153,0.575-0.305,1.144-0.455,1.704c-0.148,0.561-0.296,1.113-0.44,1.657
			c-0.104,0.554-0.206,1.099-0.307,1.635c-0.102,0.535-0.2,1.062-0.298,1.578c-0.056,0.522-0.109,1.035-0.163,1.537
			c-0.052,0.502-0.104,0.994-0.153,1.475c-0.05,0.479-0.022,0.952-0.038,1.411c0.014,0.917-0.079,1.793,0.04,2.604
			c0.075,0.813,0.145,1.574,0.21,2.277c0.146,0.689,0.281,1.322,0.402,1.894c0.061,0.286,0.118,0.557,0.172,0.812
			c0.064,0.251,0.163,0.475,0.234,0.689c0.152,0.426,0.282,0.788,0.387,1.082c0.209,0.588,0.32,0.901,0.32,0.901l0.021,0.056
			c0.075,0.212-0.036,0.445-0.248,0.521c-0.213,0.075-0.446-0.035-0.521-0.248l-0.001-0.003c0,0-0.114-0.327-0.327-0.941
			c-0.106-0.307-0.237-0.686-0.392-1.131c-0.072-0.224-0.172-0.459-0.236-0.72c-0.054-0.264-0.11-0.544-0.171-0.841
			c-0.12-0.592-0.252-1.248-0.396-1.962c-0.061-0.724-0.125-1.507-0.195-2.343c-0.112-0.836-0.012-1.729-0.016-2.667
			c0.02-0.469-0.002-0.952,0.053-1.441c0.056-0.489,0.112-0.989,0.17-1.501c0.06-0.511,0.12-1.031,0.182-1.563
			c0.104-0.524,0.209-1.059,0.316-1.602s0.217-1.095,0.328-1.655c0.151-0.551,0.306-1.109,0.462-1.676
			c0.157-0.566,0.316-1.141,0.478-1.721c0.2-0.568,0.403-1.144,0.608-1.725c0.208-0.581,0.417-1.167,0.629-1.76
			c0.248-0.577,0.499-1.161,0.752-1.749c0.259-0.585,0.493-1.187,0.778-1.771c0.294-0.58,0.59-1.164,0.888-1.751
			c0.565-1.19,1.257-2.33,1.939-3.486c1.366-2.313,2.946-4.543,4.637-6.681c0.824-1.086,1.779-2.065,2.659-3.1
			c0.918-1,1.914-1.925,2.856-2.88c2.027-1.745,4.022-3.462,5.953-5.124c0.95-0.845,1.952-1.604,2.81-2.478
			c0.869-0.863,1.719-1.708,2.546-2.53c0.413-0.411,0.821-0.816,1.224-1.216c0.386-0.414,0.743-0.844,1.106-1.254
			c0.723-0.827,1.42-1.626,2.089-2.393c0.682-0.759,1.226-1.572,1.802-2.3c0.552-0.745,1.119-1.423,1.573-2.114
			c0.904-1.385,1.751-2.558,2.317-3.604c0.298-0.515,0.564-0.974,0.796-1.373c0.21-0.41,0.39-0.76,0.534-1.043
			C295.801,265.092,295.925,264.774,295.925,264.774z"/>
	</g>
</g>
<g>
	<path fill="#149799" d="M36.1,255.436c0,0-8.186-7.461-12.535-26.115c25.07,21.254,31.209,40.184,31.209,40.184L36.1,255.436z"/>
	<g opacity="0.25">
		<path fill="#010101" d="M23.565,229.32c0,0,1.3,1.877,3.25,4.692c1.932,2.828,4.504,6.602,6.98,10.441
			c0.618,0.96,1.259,1.905,1.849,2.863c0.596,0.954,1.183,1.893,1.751,2.801c1.16,1.802,2.129,3.557,3.003,5.034
			c0.435,0.74,0.835,1.417,1.136,2.053c0.316,0.626,0.592,1.172,0.819,1.621c0.454,0.9,0.713,1.414,0.713,1.414
			c0.102,0.202,0.021,0.448-0.181,0.55s-0.447,0.021-0.549-0.181c-0.001-0.002-0.002-0.005-0.003-0.007l-0.021-0.042
			c0,0-0.244-0.511-0.67-1.404c-0.213-0.446-0.473-0.989-0.77-1.612c-0.28-0.63-0.664-1.313-1.08-2.059
			c-0.837-1.488-1.76-3.254-2.878-5.078c-0.546-0.919-1.11-1.869-1.684-2.834c-0.567-0.969-1.187-1.928-1.782-2.9
			c-2.387-3.89-4.874-7.719-6.741-10.589C24.823,231.226,23.565,229.32,23.565,229.32z"/>
	</g>
	<path fill="#30BEC2" d="M54.265,265.923c-4.507-4.063-11.182-8.088-17.533-12.424c-8.448-5.763-16.321-12.093-17.778-19.823
		c-3.316,27.897,29.132,40.457,29.132,40.457l0.064,0.094l11.785,17.189C59.935,291.416,64.75,275.39,54.265,265.923z"/>
	<g opacity="0.25">
		<path fill="#010101" d="M18.954,233.676c0,0-0.062,1.174,0.32,3.174c0.188,0.998,0.484,2.201,0.979,3.526
			c0.472,1.333,1.148,2.788,2.05,4.274c0.87,1.508,2.039,3,3.375,4.473c0.693,0.716,1.397,1.458,2.204,2.126
			c0.764,0.714,1.626,1.341,2.496,2.004c1.751,1.29,3.636,2.511,5.565,3.745c1.925,1.238,3.896,2.475,5.814,3.799l1.442,0.985
			l1.403,1.038c0.948,0.673,1.844,1.406,2.726,2.144c0.908,0.707,1.726,1.505,2.548,2.277c0.85,0.745,1.571,1.601,2.312,2.41
			c0.771,0.785,1.389,1.676,2.026,2.521c0.308,0.43,0.65,0.83,0.921,1.271c0.264,0.445,0.526,0.885,0.784,1.318
			s0.512,0.862,0.762,1.284c0.247,0.424,0.411,0.882,0.615,1.311c0.369,0.874,0.805,1.69,1.08,2.527
			c0.494,1.69,1.083,3.211,1.251,4.641c0.241,1.411,0.525,2.636,0.525,3.668c0.122,2.053,0.191,3.226,0.191,3.226
			c0.014,0.226-0.158,0.419-0.384,0.432c-0.225,0.014-0.419-0.158-0.432-0.384l0-0.004l-0.002-0.046c0,0-0.056-1.148-0.153-3.159
			c0.013-1.013-0.254-2.208-0.474-3.592c-0.148-1.402-0.709-2.889-1.172-4.549c-0.26-0.821-0.678-1.622-1.029-2.482
			c-0.195-0.421-0.35-0.872-0.587-1.289c-0.241-0.416-0.486-0.838-0.733-1.266c-0.248-0.428-0.5-0.861-0.753-1.301
			c-0.261-0.436-0.593-0.832-0.891-1.257c-0.617-0.837-1.213-1.72-1.965-2.502c-0.722-0.805-1.423-1.656-2.255-2.402
			c-0.804-0.772-1.604-1.57-2.497-2.281c-0.867-0.74-1.747-1.478-2.682-2.157l-1.383-1.047l-1.425-0.998
			c-1.895-1.339-3.851-2.596-5.762-3.855c-1.912-1.254-3.797-2.505-5.542-3.819c-0.856-0.669-1.723-1.313-2.485-2.042
			c-0.805-0.682-1.506-1.437-2.195-2.165c-1.329-1.497-2.487-3.01-3.346-4.535c-0.889-1.504-1.552-2.972-2.011-4.314
			c-0.482-1.335-0.766-2.544-0.943-3.545C18.878,234.849,18.954,233.676,18.954,233.676z"/>
	</g>
</g>
<path fill="#EBF6F6" d="M285.266,350H67.264c-3.438,0-6.226-2.786-6.226-6.225l0,0c0-3.438,2.787-6.225,6.226-6.225h218.001
	c3.438,0,6.226,2.787,6.226,6.225l0,0C291.491,347.214,288.704,350,285.266,350z"/>
<g>
	<path fill="#FFFFFF" d="M107.007,90.422l-0.92,2.789h-1.184l3.012-8.865h1.381l3.025,8.865h-1.223l-0.947-2.789H107.007z
		 M109.915,89.527l-0.868-2.551c-0.197-0.579-0.329-1.105-0.46-1.618h-0.026c-0.131,0.526-0.276,1.065-0.447,1.605l-0.868,2.564
		H109.915z"/>
	<path fill="#FFFFFF" d="M113.544,88.567c0-0.658-0.013-1.197-0.052-1.723h1.026l0.066,1.052h0.026
		c0.316-0.605,1.052-1.197,2.104-1.197c0.881,0,2.25,0.526,2.25,2.709v3.801h-1.158v-3.67c0-1.026-0.381-1.881-1.473-1.881
		c-0.763,0-1.354,0.54-1.552,1.184c-0.053,0.145-0.079,0.342-0.079,0.539v3.828h-1.158V88.567z"/>
	<path fill="#FFFFFF" d="M126.33,86.844c-0.026,0.46-0.052,0.974-0.052,1.75v3.696c0,1.46-0.29,2.354-0.908,2.907
		c-0.618,0.579-1.513,0.763-2.315,0.763c-0.763,0-1.604-0.184-2.118-0.526l0.29-0.881c0.421,0.263,1.078,0.5,1.868,0.5
		c1.184,0,2.052-0.618,2.052-2.223v-0.71h-0.026c-0.355,0.592-1.039,1.065-2.025,1.065c-1.579,0-2.709-1.341-2.709-3.104
		c0-2.157,1.407-3.38,2.867-3.38c1.105,0,1.71,0.579,1.986,1.105h0.026l0.053-0.96H126.33z M125.133,89.356
		c0-0.197-0.013-0.368-0.066-0.526c-0.21-0.671-0.776-1.223-1.618-1.223c-1.105,0-1.894,0.934-1.894,2.407
		c0,1.25,0.631,2.289,1.881,2.289c0.71,0,1.355-0.447,1.605-1.184c0.065-0.197,0.092-0.421,0.092-0.618V89.356z"/>
	<path fill="#FFFFFF" d="M133.524,91.474c0,0.658,0.013,1.236,0.053,1.736h-1.026l-0.066-1.039h-0.026
		c-0.302,0.513-0.973,1.184-2.104,1.184c-1,0-2.196-0.552-2.196-2.788v-3.723h1.157v3.525c0,1.21,0.368,2.026,1.42,2.026
		c0.776,0,1.315-0.54,1.526-1.052c0.066-0.171,0.105-0.381,0.105-0.592v-3.907h1.157V91.474z"/>
	<path fill="#FFFFFF" d="M135.444,83.872h1.158v9.339h-1.158V83.872z"/>
	<path fill="#FFFFFF" d="M142.074,93.21l-0.092-0.802h-0.04c-0.355,0.5-1.039,0.947-1.946,0.947c-1.289,0-1.947-0.907-1.947-1.828
		c0-1.539,1.368-2.381,3.828-2.368v-0.131c0-0.526-0.145-1.473-1.447-1.473c-0.592,0-1.21,0.184-1.658,0.474l-0.263-0.763
		c0.526-0.342,1.289-0.565,2.091-0.565c1.946,0,2.42,1.329,2.42,2.604v2.38c0,0.553,0.026,1.092,0.105,1.526H142.074z
		 M141.902,89.961c-1.263-0.026-2.696,0.198-2.696,1.434c0,0.75,0.5,1.104,1.092,1.104c0.829,0,1.355-0.526,1.539-1.065
		c0.04-0.118,0.065-0.25,0.065-0.368V89.961z"/>
	<path fill="#FFFFFF" d="M144.888,88.831c0-0.75-0.013-1.395-0.052-1.986h1.013l0.04,1.25h0.052c0.29-0.855,0.987-1.394,1.763-1.394
		c0.131,0,0.224,0.013,0.329,0.04v1.092c-0.119-0.026-0.237-0.04-0.395-0.04c-0.815,0-1.394,0.618-1.552,1.486
		c-0.026,0.158-0.053,0.342-0.053,0.539v3.394h-1.145V88.831z"/>
</g>
</svg>
