<?xml version="1.0" encoding="utf-8"?>
<!-- Generator: Adobe Illustrator 16.0.0, SVG Export Plug-In . SVG Version: 6.00 Build 0)  -->
<!DOCTYPE svg PUBLIC "-//W3C//DTD SVG 1.1//EN" "http://www.w3.org/Graphics/SVG/1.1/DTD/svg11.dtd">
<svg version="1.1" xmlns="http://www.w3.org/2000/svg" xmlns:xlink="http://www.w3.org/1999/xlink" x="0px" y="0px" width="500px"
	 height="375.226px" viewBox="0 0 500 375.226" enable-background="new 0 0 500 375.226" xml:space="preserve">
<g id="BACKGROUND">
	<g>
		<path fill="#DAE8EF" d="M465.681,259.585l-15.767,110.709H48.998l-11.84-84.456c-1.317-9.462,3.915-18.632,12.743-22.303
			l35.583-14.767v-35.388c0-10.426,7.633-19.266,17.95-20.766l8.414-1.231l14.133-47.789c2.634-8.926,10.829-15.035,20.121-15.035
			H290.66c5.499,0,10.535,2.122,14.291,5.609c3.756,3.5,6.231,8.365,6.634,13.853l68.835,7.268
			c10.219,1.085,18.146,9.39,18.755,19.645l2.78,47.752l48.642,13.742C460.718,239.281,467.156,249.183,465.681,259.585z"/>
		<path fill="#CCD9E2" d="M73.034,282.417l12.515,87.877H403.78l9.398-67.037c1.046-7.512-3.106-14.79-10.114-17.703l-28.244-11.722
			v-28.089c0-8.276-6.059-15.293-14.248-16.483l-6.678-0.978l-11.219-37.933c-2.091-7.085-8.595-11.934-15.971-11.934H211.959
			c-4.365,0-8.362,1.684-11.344,4.452c-2.981,2.778-4.946,6.64-5.266,10.996l-54.639,5.769c-8.111,0.861-14.403,7.453-14.887,15.593
			l-2.207,37.903l-38.61,10.908C76.974,266.302,71.863,274.161,73.034,282.417z"/>
		<path fill="#BCCED8" d="M335.572,337.549c0-9.472-6.936-17.503-16.307-18.865l-7.644-1.119l-12.84-43.414
			c-2.393-8.108-9.837-13.658-18.278-13.658H149.178c-4.996,0-9.571,1.927-12.983,5.096c-3.412,3.179-5.661,7.599-6.026,12.584
			l-56.858,6.003l12.265,86.119h251.437l-1.44-0.598V337.549z"/>
	</g>
</g>
<g id="OBJECTS">
	<g>
		<g>
			<rect x="120.231" y="54.118" fill="#112B46" width="97.555" height="91.054"/>
		</g>
		<g>
			<rect x="120.231" y="54.118" fill="#1D262D" width="97.555" height="9.63"/>
		</g>
		<g>
			<g>
				<circle fill="#606BF1" cx="194.933" cy="59.042" r="1.765"/>
			</g>
			<g>
				<circle fill="#FBD15B" cx="202.304" cy="59.042" r="1.765"/>
			</g>
			<g>
				<circle fill="#FF8578" cx="209.148" cy="59.228" r="1.765"/>
			</g>
		</g>
		<g>
			<g>
				<g>
					<rect x="137.578" y="72.7" fill="#FF8578" width="13.816" height="1.161"/>
				</g>
				<g>
					<rect x="153.795" y="72.7" fill="#FBD15B" width="13.817" height="1.161"/>
				</g>
				<g>
					<rect x="141.852" y="78.956" fill="#606BF1" width="21.426" height="1.161"/>
				</g>
				<g>
					<rect x="166.82" y="78.956" fill="#FF8578" width="10.891" height="1.161"/>
				</g>
				<g>
					<rect x="149.284" y="85.211" fill="#FBD15B" width="9.41" height="1.162"/>
				</g>
				<g>
					<rect x="164.133" y="85.211" fill="#FBD15B" width="31.218" height="1.162"/>
				</g>
				<g>
					<rect x="156.593" y="91.467" fill="#606BF1" width="35.677" height="1.162"/>
				</g>
				<g>
					<rect x="147.673" y="97.723" fill="#FF8578" width="10.98" height="1.162"/>
				</g>
				<g>
					<rect x="163.351" y="97.723" fill="#606BF1" width="10.98" height="1.162"/>
				</g>
			</g>
			<g>
				<g>
					<rect x="137.578" y="130.179" fill="#FF8578" width="15.974" height="1.161"/>
				</g>
				<g>
					<rect x="159.146" y="130.179" fill="#FBD15B" width="15.974" height="1.161"/>
				</g>
				<g>
					<rect x="180.133" y="130.179" fill="#FF8578" width="15.974" height="1.161"/>
				</g>
				<g>
					<rect x="141.852" y="123.923" fill="#606BF1" width="31.218" height="1.161"/>
				</g>
				<g>
					<rect x="177.937" y="123.923" fill="#FF8578" width="31.217" height="1.161"/>
				</g>
				<g>
					<rect x="149.284" y="117.667" fill="#FF8578" width="30.978" height="1.161"/>
				</g>
				<g>
					<rect x="182.963" y="117.667" fill="#FBD15B" width="8.622" height="1.161"/>
				</g>
				<g>
					<rect x="147.261" y="111.411" fill="#FBD15B" width="11.662" height="1.161"/>
				</g>
				<g>
					<rect x="165.116" y="111.411" fill="#606BF1" width="11.662" height="1.161"/>
				</g>
				<g>
					<rect x="184.278" y="111.411" fill="#FF8578" width="11.662" height="1.161"/>
				</g>
				<g>
					<rect x="160.779" y="105.155" fill="#FBD15B" width="16.353" height="1.162"/>
				</g>
				<g>
					<rect x="138.258" y="105.155" fill="#606BF1" width="16.352" height="1.162"/>
				</g>
			</g>
		</g>
		<g>
			<g>
				<g>
					<rect x="128.535" y="71.584" fill="#F9FBFC" width="1.486" height="1.487"/>
				</g>
			</g>
			<g>
				<g>
					<path fill="#F9FBFC" d="M130.021,126.126h-1.486v-3.031h1.486V126.126z M130.021,118.547h-1.486v-3.031h1.486V118.547z
						 M130.021,110.967h-1.486v-3.032h1.486V110.967z M130.021,103.388h-1.486v-3.032h1.486V103.388z M130.021,95.809h-1.486v-3.032
						h1.486V95.809z M130.021,88.229h-1.486v-3.032h1.486V88.229z M130.021,80.65h-1.486v-3.032h1.486V80.65z"/>
				</g>
			</g>
			<g>
				<g>
					<rect x="128.535" y="130.674" fill="#F9FBFC" width="1.486" height="1.487"/>
				</g>
			</g>
		</g>
	</g>
	<g>
		<g>
			<rect x="316.348" y="130.7" fill="#606BF1" width="45.753" height="32.596"/>
		</g>
		<g>
			<path fill="#F1F2F2" d="M335.486,137.737c-1.473,0-1.963,0.397-1.963,1.495v4.906c0,1.916-0.794,2.5-2.126,2.874
				c1.332,0.351,2.126,0.935,2.126,2.826v4.906c0,1.098,0.514,1.495,1.963,1.495v2.149c-3.715,0-4.767-1.191-4.767-3.668v-4.649
				c0-1.332-0.35-1.846-1.564-1.846v-2.453c1.215,0,1.564-0.537,1.564-1.869v-4.649c0-2.5,1.052-3.667,4.767-3.667V137.737z"/>
			<path fill="#F1F2F2" d="M347.729,139.255v4.649c0,1.332,0.35,1.869,1.588,1.869v2.453c-1.238,0-1.588,0.514-1.588,1.846v4.649
				c0,2.477-1.052,3.668-4.766,3.668v-2.149c1.448,0,1.962-0.397,1.962-1.495v-4.906c0-1.892,0.794-2.476,2.126-2.826
				c-1.332-0.374-2.126-0.958-2.126-2.874v-4.906c0-1.098-0.49-1.495-1.962-1.495v-2.149
				C346.677,135.588,347.729,136.756,347.729,139.255z"/>
		</g>
	</g>
	<g>
		<g>
			<rect x="89.183" y="41.876" fill="#FBD15B" width="51.33" height="34.332"/>
		</g>
		<g>
			<g>
				<path fill="#F9FBFC" d="M106.171,51.731c-2.451,3.067-2.413,7.549,0.084,10.579c2.837,3.442,7.697,3.997,11.189,1.668
					l5.388,5.387c0.227,0.228,0.596,0.228,0.823,0l1.514-1.514c0.227-0.227,0.227-0.596,0-0.823l-5.388-5.387
					c2.182-3.272,1.833-7.745-1.052-10.63C115.219,47.502,109.359,47.742,106.171,51.731z M116.984,61.182
					c-2.323,2.323-6.102,2.322-8.425,0s-2.323-6.102,0-8.424s6.102-2.323,8.425,0S119.307,58.859,116.984,61.182z"/>
			</g>
		</g>
	</g>
	<g>
		<g>
			<radialGradient id="SVGID_1_" cx="277.5195" cy="147.3789" r="12.9258" gradientUnits="userSpaceOnUse">
				<stop  offset="0" style="stop-color:#FFC8AF"/>
				<stop  offset="1" style="stop-color:#FFBB9C"/>
			</radialGradient>
			<path fill="url(#SVGID_1_)" d="M289.826,147.922c-0.112,1.134-1.662,12.974-13.837,12.974c-12.781,0-10.641-12.654-10.641-12.654
				l-0.016-0.08c1.246-0.256,2.588-0.352,4.01-0.192v-5.991l14.508-8.117h0.527v13.98
				C284.378,147.842,286.678,147.57,289.826,147.922z"/>
			<g>
				<g id="XMLID_43_">
					<g>
						
							<radialGradient id="SVGID_2_" cx="279.6045" cy="124.1875" r="20.3775" gradientTransform="matrix(0.9776 -0.2105 0.2105 0.9776 -29.441 61.4334)" gradientUnits="userSpaceOnUse">
							<stop  offset="0" style="stop-color:#FFC8AF"/>
							<stop  offset="1" style="stop-color:#FFBB9C"/>
						</radialGradient>
						<path fill="url(#SVGID_2_)" d="M282.779,107.117c2.058,2.086,3.612,4.786,4.36,8.084c1.395,6.146,0.083,12.649-1.7,18.572
							c-0.305,1.013-0.651,2.035-1.277,2.888c-0.446,0.609-1.021,1.11-1.591,1.606c-2.58,2.247-5.16,4.495-7.734,6.749
							c-1.746,1.528-12.489,2.801-14.54,1.335c-7.901-5.65-9.422-22.018-7.841-30.386
							C255.08,102.082,272.923,97.119,282.779,107.117z"/>
					</g>
				</g>
				<path fill="#F7B094" d="M278.342,124.882c0.105-1.336,1.479-2.799,2.858-1.932c1.428,0.897,1.092,3.271,0.5,4.576
					c-0.464,1.024-2.016,2.146-3.067,1.193c-0.88-0.798,0.488-1.74,0.533-2.469c0.041-0.656-1.271-1.125-0.734-1.828"/>
				<path fill="#F7B094" d="M278.595,131.061c1.44,0.432,3.88-0.666,4.497-2.672s0.551-4.296,0.551-4.296s0.726,1.816,0.353,4.738
					c-0.373,2.921-1.396,5.705-3.689,5.741S278.595,131.061,278.595,131.061z"/>
				<path fill="#3D3D7A" d="M276.828,128.982c-0.047,0.023-0.1,0.04-0.161,0.048c-0.892,0.125-1.248-0.954-1.38-1.629
					c-0.31-1.577-0.261-3.173-0.315-4.768c-0.013-0.4,0.019-0.898-0.146-1.274c-0.501-1.147-1.836-1.893-2.242-3.077
					c-0.475-1.378,0.863-2.753,0.332-4.262c-0.813-2.311-3.78-2.842-5.926-2.817c-3.221,0.038-6.36,0.635-9.538,1.128
					c-3.355,0.521-7.644,1.015-10.6-1.107c-3.563-2.558-5.052-9.222-2.393-12.871c1.449-1.989,4.198-3.048,6.606-3.104
					c2.553-0.059,4.71,1.463,7.052,2.229c1.865,0.61,3.669-1.174,5.412-1.523c2.191-0.438,3.122,1.955,5.061,2.02
					c1.883,0.064,3.73-1.407,5.562-1.741c3.65-0.667,3.436,3,5.885,4.252c1.522,0.778,3.489,0.307,5.029,1.098
					c1.17,0.601,1.334,1.656,1.589,2.853c0.221,1.035,0.232,2.228,0.573,3.211c0.307,0.884,1.049,1.442,1.628,2.133
					c0.632,0.754,1.035,1.635,1.355,2.581c0.711,2.098,0.869,4.36,0.675,6.557c-0.325,3.687-1.512,7.315-2.742,10.787
					c-0.8,2.253-1.097,4.599-2.325,6.73c-0.33,0.573-1.796,2.247-2.342,1c-0.116-0.267-0.099-0.571-0.078-0.862
					c0.162-2.322,2.324-17.287-3.345-15.489c-1.189,0.377-1.987,1.367-2.432,2.497c-0.53,1.351-0.568,2.712-0.5,4.141
					c0.01,0.204,0.015,0.409,0.007,0.613C277.12,128.601,277.054,128.869,276.828,128.982z"/>
			</g>
		</g>
		<path fill="#F7B094" d="M269.343,146.599c6.446-1.036,10.699-6.128,10.699-6.128s-1.738,8.582-11.086,9.035L269.343,146.599z"/>
		<g>
			<path fill="#0A2033" d="M279.924,263.57h9.227v88.525c0,0.897-0.729,1.626-1.626,1.626h-5.975c-0.898,0-1.626-0.729-1.626-1.626
				V263.57z"/>
			<path fill="#30475E" d="M259.166,264.836h50.742v1.385c0,3.487-2.827,6.314-6.314,6.314H265.48c-3.487,0-6.314-2.827-6.314-6.314
				V264.836z"/>
			<g>
				<path fill="#0A2033" d="M279.924,343.226h9.227v20.514c0,0.897-0.729,1.626-1.626,1.626h-5.975
					c-0.898,0-1.626-0.729-1.626-1.626V343.226z"/>
				<circle fill="#0A2033" cx="242.057" cy="359.965" r="5.4"/>
				<circle fill="#0A2033" cx="327.017" cy="359.965" r="5.4"/>
				<rect x="275.256" y="336.35" fill="#30475E" width="18.563" height="16.221"/>
				<path fill="#FBD15B" d="M236.657,356.387h95.76v-1.882c0-3.177-2.575-5.751-5.752-5.751h-84.257
					c-3.176,0-5.751,2.574-5.751,5.751V356.387z"/>
			</g>
			<rect x="281.337" y="274.354" fill="#30475E" width="3.2" height="60.548"/>
		</g>
		<path fill="#FBD15B" d="M320.786,199.403c-2.214-0.07-4.014,1.763-3.886,3.974c0.633,10.99-1.696,37.8-11.933,46.947
			c-12.516,11.185-47.989,9.661-47.989,9.661s-5.858,7.189,5.858,8.787s44.735,0.533,52.725-6.923
			c7.732-7.218,12.323-26.127,8.863-59.039C324.227,200.924,322.684,199.462,320.786,199.403L320.786,199.403z"/>
		<g id="XMLID_42_">
			<g>
				<radialGradient id="SVGID_3_" cx="249.9629" cy="342.5479" r="8.1257" gradientUnits="userSpaceOnUse">
					<stop  offset="0" style="stop-color:#FFC8AF"/>
					<stop  offset="1" style="stop-color:#FFBB9C"/>
				</radialGradient>
				<polygon fill="url(#SVGID_3_)" points="254.324,334.902 258.542,344.521 245.617,350.193 241.383,340.543 				"/>
				<path fill="#56548C" d="M315.277,227.999c-0.799,1.599-58.229,0.032-63.653,0.527c0,0-35.149,16.776-40.198,32.481
					c-0.512,1.582-0.655,3.675-0.495,6.168c1.405,22.112,26.586,75.061,26.586,75.061l3.866-1.693l12.941-5.641l1.838-0.799
					c0,0-19.972-59.515-15.978-62.71s49.258-11.184,64.963-15.434C320.869,251.693,315.277,227.999,315.277,227.999z"/>
				<radialGradient id="SVGID_4_" cx="198.498" cy="344.5859" r="7.4021" gradientUnits="userSpaceOnUse">
					<stop  offset="0" style="stop-color:#FFC8AF"/>
					<stop  offset="1" style="stop-color:#FFBB9C"/>
				</radialGradient>
				<polygon fill="url(#SVGID_4_)" points="205.048,337.377 206.058,351.827 191.949,351.827 190.939,337.345 				"/>
				<path fill="#3D3D7A" d="M251.337,228.031l-0.512,0.224c0,0-58.844,8.261-68.43,24.765c-6.231,10.736,5.829,89.189,5.829,89.189
					l20.818,0.048c0,0-3.113-65.352-2.075-68.994c1.167-4.154,3.164-5.656,3.963-6.087c-0.16-2.493-0.017-4.586,0.495-6.168
					c5.049-15.705,40.198-32.481,40.198-32.481C251.513,228.447,251.416,228.271,251.337,228.031z"/>
				<path fill="#FF8578" d="M308.173,173.661l-3.946,0.543c0,0-0.959,10.641-3.308,21.282l-49.161,18.662l-0.672,3.563
					c-0.207-0.016-0.415-0.032-0.606-0.048c0.016,0.735,0.016,1.454,0.048,2.125c0.111,4.106,0.383,7.062,0.814,8.244
					c0.08,0.24,0.176,0.416,0.288,0.495c1.335,1.089,18.723-1.021,37.521,5.881c16.303,5.986,25.44,12.524,25.862,11.646
					C320.137,235.402,310.809,193.601,308.173,173.661z"/>
				<path fill="#F4675D" d="M303.044,198.042c-1.31,6.295-4.697,18.821-11.344,20.499c-8.676,2.205-25.451,2.093-41.173,1.246
					c-0.032-0.671-0.032-1.39-0.048-2.125c0.191,0.016,0.399,0.032,0.606,0.048l0.672-3.563l49.161-18.662
					c2.349-10.641,3.308-21.282,3.308-21.282s0,0.064,0.016,0.176C304.338,176.026,305.01,188.744,303.044,198.042z"/>
				<path fill="#F4675D" d="M253.766,157.956c-0.879,1.598-2.142,18.693-2.828,35.661l-10.05-9.379
					C245.153,175.978,253.766,157.956,253.766,157.956z"/>
				<path fill="#F7B094" d="M247.742,206.015c-8.484,1.47-16.281,2.732-16.281,2.732l-0.016,0.415
					c-9.442-7.541-23.807-28.902-23.807-28.902s4.298-5.161,5.369-6.519c0.159-0.208,23.582,15.913,24.78,15.769
					c0.304-0.032,1.502-2.141,3.1-5.272l10.05,9.379c-0.16,4.042-0.288,8.068-0.368,11.887
					C249.627,205.679,248.685,205.839,247.742,206.015z"/>
				<radialGradient id="SVGID_5_" cx="243.5605" cy="205.6973" r="41.4447" gradientUnits="userSpaceOnUse">
					<stop  offset="0" style="stop-color:#FFC8AF"/>
					<stop  offset="1" style="stop-color:#FFBB9C"/>
				</radialGradient>
				<path fill="url(#SVGID_5_)" d="M231.461,208.747l-0.208,6.998h-25.563c0,0,2.541-9.986,9.459-9.986s9.586,3.659,9.586,3.659
					L231.461,208.747z"/>
				<path fill="#F7B094" d="M212.815,173.581l0.192,0.16c-1.071,1.358-5.369,6.519-5.369,6.519l-2.668-1.885
					c0,0-2.939,1.789-6.358-0.08c-3.563-1.933-1.358-6.549-1.176-7.096c-0.69,0.194-4.96,3.645-5.631,3.278
					c-0.671-0.368-1.166-1.582,3.61-6.295c4.762-4.713,11.248,1.342,11.44,1.342L212.815,173.581z"/>
				<path fill="#F7B094" d="M199.168,177.493c0,0-1.03,1.929,0.801,2.767c1.831,0.838,5.394,1.443,6.924,1.296
					s2.747-2.289,2.747-2.289l-4.635-4.349H201.3L199.168,177.493z"/>
				<path fill="#E8987C" d="M198.894,178.439c0.274-0.947,2.906-0.442,4.537-0.403c1.202,0.029,1.86-0.286,2.231-1.202
					c0.372-0.916-1.373-2.375-1.716-1.917c-0.344,0.458,0.629,1.102,0.658,1.709c0.028,0.608-1.717,0.808-3.062,0.808
					s-3.665,0.351-3.665,0.351L198.894,178.439z"/>
			</g>
		</g>
		<radialGradient id="SVGID_6_" cx="243.5596" cy="205.6978" r="41.4449" gradientUnits="userSpaceOnUse">
			<stop  offset="0" style="stop-color:#FFC8AF"/>
			<stop  offset="1" style="stop-color:#FFBB9C"/>
		</radialGradient>
		<path fill="url(#SVGID_6_)" d="M298.422,204.561l-25.037-8.868c-1.821,3.403-3.771,5.96-5.703,6.471
			c-2.924,0.767-9.986,2.093-17.112,3.339c-0.942,0.176-1.885,0.335-2.827,0.511c-8.484,1.47-16.281,2.732-16.281,2.732
			l-0.016,0.415v0.271l-0.192,6.312v1.601c0,0,8.5-0.435,19.221,0.316c15.003,1.07,34.352,1.71,40.758-1.31
			c3.004-1.423,5.4-6.088,7.286-11.839C298.485,204.529,298.453,204.545,298.422,204.561z"/>
		<polygon fill="#F7B094" points="273.385,195.693 298.422,204.561 297.288,207.906 272.509,197.277 		"/>
		<path fill="#FF8578" d="M273.385,195.693c-1.821,3.403-3.771,5.96-5.703,6.471c-2.924,0.767-9.986,2.093-17.112,3.339
			c0.08-3.818,0.208-7.845,0.368-11.887c0.687-16.968,1.949-34.063,2.828-35.661c1.438-2.668,5.368-8.468,11.567-9.794l0.016,0.08
			c0,0-2.141,12.654,10.641,12.654c12.175,0,13.725-11.839,13.837-12.974c6.263,0.703,15.865,3.834,17.191,16.424
			c0.271,2.493,0.654,5.688,1.15,9.315l-3.947,0.543c0,0-1.598,17.735-5.703,30.309c-0.032,0.016-0.064,0.032-0.096,0.048
			L273.385,195.693z"/>
		<polygon fill="#6D4B35" points="273.126,193.386 283.123,169.186 275.759,194.364 		"/>
		<path fill="#FF8578" d="M289.826,147.922h-5.448c0,0-7.754,8.513-12.737,8.513c-4.984,0-2.298-8.465-2.298-8.465h-2.432
			c-6.985,0-12.862,5.245-13.653,12.186c-0.09,0.795-0.173,1.549-0.243,2.231c-0.533,5.15,20.329,8.898,20.329,8.898l10.742-0.601
			l6.523-12.728l1.3-5.211L289.826,147.922z"/>
		<g>
			<g>
				<g id="XMLID_39_">
					<g>
						<path fill="#F1F2F2" d="M224.083,361.264c0.485,2.603,2.29,4.453,4.893,3.968l34.701-6.473
							c0.878-0.163,1.456-1.008,1.293-1.886l-0.574-3.079c0,0-36.496,6.387-40.33,7.45L224.083,361.264z"/>
						<path fill="#3D3D7A" d="M234.407,352.526c0.362-0.314,0.71-0.626,1.072-0.939c0.696-0.623,1.381-1.229,2.04-1.817
							c0.348-0.311,0.696-0.622,1.019-0.915c0.634-0.567,1.231-1.1,1.766-1.577c0.385-0.347,0.744-0.675,1.067-0.968
							c0.593-0.531,1.077-0.965,1.417-1.27c0.294-0.263,0.73-0.275,1.032-0.021c1.427,1.199,6.037,3.941,14.389-1.226
							c0.396-0.245,0.921-0.117,1.136,0.296l5.051,9.705c0,0-36.496,6.387-40.33,7.45
							C225.326,360.458,229.984,356.427,234.407,352.526z"/>
					</g>
				</g>
			</g>
		</g>
		<g>
			<g>
				<g id="XMLID_44_">
					<g>
						<path fill="#F1F2F2" d="M169.432,360.923c0.064,2.647,1.551,4.762,4.198,4.696l35.289-0.861
							c0.893-0.021,1.599-0.763,1.577-1.655l-0.077-3.131c0,0-37.047,0.49-41.001,0.93L169.432,360.923z"/>
						<path fill="#3D3D7A" d="M181.016,353.942c0.408-0.253,0.801-0.505,1.208-0.757c0.787-0.505,1.56-0.994,2.304-1.469
							c0.394-0.252,0.787-0.504,1.152-0.741c0.716-0.46,1.39-0.89,1.994-1.275c0.436-0.282,0.842-0.549,1.207-0.785
							c0.67-0.431,1.218-0.782,1.602-1.028c0.332-0.213,0.766-0.155,1.023,0.144c1.217,1.411,5.332,4.853,14.399,1.082
							c0.43-0.179,0.928,0.031,1.074,0.474l3.439,10.386c0,0-37.047,0.49-41.001,0.93
							C170.787,360.325,176.029,357.088,181.016,353.942z"/>
					</g>
				</g>
			</g>
		</g>
		<g>
			<polygon fill="#ABB5BA" points="144.329,217.347 125.482,167.083 179.137,167.083 197.982,217.347 			"/>
			<polygon fill="#8495A0" points="201.3,217.347 197.982,217.347 179.137,167.083 182.148,167.217 199.58,212.713 			"/>
			<polyline fill="none" points="128.369,211.914 128.641,211.914 195.921,211.914 			"/>
			<g>
				<path fill="#8495A0" d="M200.259,217.346h35.453l-0.097-3.168c0,0-35.49,0-36.082,0"/>
			</g>
		</g>
		<g>
			<g>
				<rect x="342.766" y="226.933" fill="#8495A0" width="8.536" height="140.233"/>
			</g>
			<g>
				<rect x="296.432" y="226.933" fill="#ABB5BA" width="8.536" height="140.233"/>
			</g>
			<g>
				<rect x="147.993" y="226.933" fill="#8495A0" width="8.536" height="140.233"/>
			</g>
			<g>
				<rect x="101.66" y="226.933" fill="#ABB5BA" width="8.536" height="140.233"/>
			</g>
			<path fill="#141B56" d="M359.844,227.465H93.483c-2.292,0-4.149-1.857-4.149-4.148v-1.821c0-2.291,1.857-4.148,4.149-4.148
				h266.361c2.291,0,4.148,1.857,4.148,4.148v1.821C363.992,225.607,362.135,227.465,359.844,227.465z"/>
		</g>
		<polygon fill="#8495A0" points="134.441,172.366 135.359,174.813 146.047,174.813 145.129,172.366 		"/>
		<polygon fill="#E8987C" points="240.888,184.238 240.121,185.72 250.938,196.898 250.938,193.617 		"/>
	</g>
	<g>
		<rect x="29.745" y="365.363" fill="#A5B7C6" width="431.916" height="9.862"/>
		<g>
			<g>
				
					<linearGradient id="SVGID_7_" gradientUnits="userSpaceOnUse" x1="489.915" y1="48.5889" x2="450.5753" y2="98.1809" gradientTransform="matrix(0.7834 -0.6215 0.6215 0.7834 -30.1287 520.191)">
					<stop  offset="0" style="stop-color:#606BF1"/>
					<stop  offset="1" style="stop-color:#58479F"/>
				</linearGradient>
				<path fill="url(#SVGID_7_)" d="M393.184,292.215c-1.717,8.325-1.199,22.506-12.213,24.752c-2.966,0.604-5.831-1.451-7.555-3.807
					c-2.256-3.083-2.796-9.608-2.757-13.341c0.031-2.958,1.04-6.257,1.364-9.241c0.352-3.223,0.637-6.453,1.013-9.674
					c1.354-11.608,7.419-21.337,17.676-27.132c0.794,3.811,2.604,7.035,4.199,10.694c0.728,1.668,1.384,3.427,1.857,5.175
					c0.839,3.096-0.176,6.224-0.929,9.188C394.727,283.213,394.097,287.781,393.184,292.215z"/>
				<path fill="#747DED" d="M379.106,317.247c0.078-0.698,0.164-1.396,0.257-2.094c1.315-0.004,2.686-0.752,3.79-1.324
					c1.916-0.993,3.47-2.417,4.976-3.939c0.08-0.081-0.056-0.212-0.143-0.141c-1.5,1.261-3.057,2.482-4.844,3.315
					c-0.995,0.464-2.451,1.223-3.68,1.37c0.116-0.834,0.244-1.665,0.382-2.495c1.37-0.168,2.626-1.068,3.786-1.757
					c1.972-1.17,3.668-2.684,5.426-4.143c0.02-0.017-0.004-0.047-0.024-0.031c-2.689,1.953-5.686,4.733-9.087,5.342
					c0.18-1.04,0.37-2.077,0.589-3.107c0.011-0.054,0.022-0.107,0.034-0.161c3.938-0.996,6.601-4.084,9.615-6.58
					c0.049-0.041-0.004-0.124-0.055-0.084c-2.969,2.306-5.759,4.937-9.429,6.056c0.318-1.475,0.649-2.944,0.982-4.412
					c3.563-1.314,6.407-3.401,8.897-6.309c0.041-0.049-0.027-0.117-0.072-0.07c-2.577,2.683-5.415,4.223-8.683,5.749
					c0.329-1.453,0.656-2.906,0.966-4.364c1.541-0.758,3.162-1.219,4.585-2.216c1.404-0.982,2.664-2.154,3.568-3.617
					c0.048-0.077-0.067-0.15-0.119-0.076c-1.993,2.866-4.998,3.758-7.902,5.265c0.283-1.358,0.547-2.721,0.783-4.091
					c3.236-1.782,6.753-3.434,8.587-6.849c0.019-0.034-0.029-0.067-0.05-0.034c-1.943,3.138-5.339,4.489-8.422,6.197
					c0.04-0.244,0.085-0.486,0.123-0.731c0.198-1.271,0.384-2.543,0.565-3.815c1.86-0.744,3.633-1.796,5.307-2.886
					c1.188-0.773,2.456-1.54,3.233-2.754c0.049-0.076-0.063-0.155-0.115-0.081c-1.735,2.487-5.537,3.925-8.345,5.169
					c0.183-1.285,0.363-2.57,0.546-3.855c3.115-1.886,6.781-2.928,8.698-6.326c0.057-0.101-0.091-0.193-0.154-0.095
					c-1.985,3.103-5.48,4.06-8.459,5.82c0.115-0.796,0.231-1.592,0.352-2.387c3.364-1.237,7.276-4.054,9.051-7.095
					c0.098-0.168-0.145-0.323-0.254-0.163c-1.81,2.669-5.445,5.569-8.698,6.626c0.199-1.289,0.407-2.576,0.637-3.86
					c0.022-0.035,0.039-0.073,0.05-0.114c1.511-0.444,3.004-1.51,4.308-2.314c1.572-0.97,3.072-2.097,4.051-3.691
					c0.108-0.176-0.179-0.339-0.28-0.158c-1.494,2.667-5.041,4.455-7.977,5.474c0.086-0.469,0.171-0.938,0.264-1.405
					c0.139-0.699,0.281-1.398,0.424-2.098c1.202-0.83,2.729-1.228,3.936-2.104c1.049-0.762,1.965-1.68,2.864-2.61
					c0.09-0.092-0.043-0.234-0.138-0.146c-1.219,1.145-2.471,2.243-3.953,3.036c-0.829,0.444-1.774,0.697-2.577,1.184
					c0.234-1.143,0.469-2.286,0.692-3.431c0.015-0.002,0.028-0.006,0.043-0.009c0.014,0.003,0.028,0.006,0.043,0.009
					c0.083,0.016,0.149-0.014,0.197-0.062c1.635-0.412,2.885-1.819,3.983-3.019c0.026-0.029-0.014-0.069-0.042-0.043
					c-1.153,1.065-2.463,2.245-4.007,2.703c-0.006-0.002-0.009-0.006-0.016-0.007c-0.04-0.006-0.078-0.013-0.118-0.019
					c0.18-0.932,0.35-1.864,0.505-2.8c0.118-0.021,0.222-0.122,0.194-0.24c0.865-0.581,1.653-1.322,2.392-2.048
					c0.056-0.055-0.022-0.14-0.081-0.089c-0.769,0.662-1.526,1.208-2.391,1.687c0.305-1.932,0.542-3.874,0.65-5.836
					c0.01-0.182-0.266-0.184-0.281-0.005c-0.172,1.889-0.445,3.759-0.771,5.619c-0.901-1.183-1.905-2.4-2.456-3.755
					c-0.028-0.07-0.14-0.042-0.115,0.034c0.27,0.841,0.734,1.576,1.194,2.324c0.412,0.669,0.741,1.447,1.267,2.042
					c-0.182,0.999-0.378,1.995-0.584,2.99c-1.096-0.176-2.102-0.384-3.006-1.178c-1.108-0.971-1.738-2.293-1.848-3.757
					c-0.014-0.18-0.298-0.179-0.281,0.001c0.125,1.362,0.667,2.644,1.599,3.659c0.98,1.068,2.131,1.409,3.451,1.683
					c-0.24,1.149-0.488,2.297-0.741,3.444c-0.995-0.597-1.92-1.378-2.817-2.093c-1.448-1.154-2.304-2.543-3.561-3.843
					c-0.126-0.13-0.331,0.058-0.207,0.19c1.178,1.252,1.974,2.608,3.314,3.733c0.965,0.81,2.029,1.825,3.181,2.425
					c-0.014,0.061-0.027,0.121-0.04,0.182c-0.013,0.012-0.026,0.021-0.038,0.032c-0.089,0.086-0.079,0.185-0.025,0.257
					c-0.242,1.099-0.483,2.197-0.716,3.299c-0.015,0.068-0.026,0.138-0.041,0.207c-2.562-1.173-6.39-3.211-6.729-6.183
					c-0.032-0.282-0.454-0.204-0.389,0.085c0.758,3.364,4.454,4.854,7.001,6.688c-0.251,1.245-0.481,2.493-0.692,3.745
					c-1.655-0.569-3.229-1.273-4.617-2.378c-1.264-1.005-3.051-2.217-3.62-3.773c-0.018-0.049-0.09-0.017-0.073,0.031
					c0.526,1.548,2.13,2.611,3.297,3.667c1.48,1.34,2.996,2.477,4.899,3.013c-0.015,0.055-0.019,0.112-0.005,0.167
					c-0.131,0.794-0.257,1.588-0.379,2.384c-3.11-0.239-7.464-2.602-9.054-4.955c-0.007-0.011-0.022,0.001-0.016,0.012
					c1.084,1.796,2.724,2.846,4.572,3.756c1.38,0.681,2.872,1.485,4.434,1.602c-0.224,1.472-0.439,2.945-0.658,4.418
					c-1.351-0.503-2.78-0.744-4.116-1.278c-1.985-0.795-3.502-2.223-4.671-3.978c-0.07-0.106-0.247-0.017-0.178,0.094
					c2.154,3.424,5.253,4.429,8.882,5.711c-0.181,1.208-0.369,2.415-0.569,3.621c-2.971-0.569-6.813-2.383-8.315-4.963
					c-0.11-0.189-0.412-0.032-0.303,0.159c0.95,1.653,2.586,2.699,4.255,3.542c1.202,0.606,2.857,1.613,4.289,1.721
					c-0.007,0.039-0.013,0.079-0.02,0.118c-0.294,1.735-0.637,3.462-1.007,5.182c-3.318-0.834-5.464-3.292-7.876-5.593
					c-0.167-0.16-0.43,0.084-0.263,0.247c2.457,2.418,4.615,4.956,8.029,5.851c-0.307,1.399-0.632,2.796-0.97,4.188
					c-2.826-0.79-5.624-2.796-7.452-5.1c-0.13-0.164-0.357,0.058-0.234,0.22c1.9,2.5,4.64,4.387,7.556,5.42
					c-0.366,1.495-0.746,2.986-1.13,4.477c-2.903-0.442-5.141-2.26-6.929-4.558c-0.042-0.053-0.136,0.017-0.096,0.072
					c1.589,2.211,3.992,4.764,6.884,5.031c-0.123,0.476-0.245,0.951-0.368,1.427c-0.074,0.286-0.151,0.577-0.23,0.871
					c-2.189-0.645-4.222-1.431-6.028-2.906c-0.051-0.042-0.108,0.037-0.062,0.08c1.718,1.546,3.773,2.588,5.971,3.264
					c-0.244,0.896-0.501,1.815-0.756,2.753c-0.543-0.253-1.069-0.53-1.662-0.708c-1.089-0.326-1.794-1.017-2.742-1.586
					c-0.087-0.053-0.186,0.07-0.098,0.127c0.832,0.543,1.417,1.242,2.366,1.6c0.703,0.266,1.366,0.603,2.046,0.904
					c-0.999,3.72-1.881,7.674-1.402,11.244c0.106,0.792,1.435,1.002,1.641,0.159C378.844,322.658,378.812,319.893,379.106,317.247z"
					/>
			</g>
			<g>
				
					<linearGradient id="SVGID_8_" gradientUnits="userSpaceOnUse" x1="592.9307" y1="-64.9341" x2="553.5916" y2="-15.3428" gradientTransform="matrix(0.4479 -0.8941 0.8941 0.4479 126.1437 818.1363)">
					<stop  offset="0" style="stop-color:#606BF1"/>
					<stop  offset="1" style="stop-color:#58479F"/>
				</linearGradient>
				<path fill="url(#SVGID_8_)" d="M358.328,289.831c1.959,8.272,8.412,20.909-0.624,27.595c-2.435,1.8-5.898,1.145-8.456-0.264
					c-3.346-1.842-6.59-7.53-8.129-10.931c-1.221-2.695-1.698-6.111-2.663-8.953c-1.043-3.07-2.147-6.119-3.166-9.197
					c-3.671-11.096-2.279-22.475,4.574-32.058c2.327,3.119,5.33,5.279,8.32,7.923c1.362,1.205,2.7,2.523,3.867,3.908
					c2.067,2.452,2.468,5.716,3.036,8.722C355.929,281.02,357.285,285.427,358.328,289.831z"/>
				<path fill="#747DED" d="M356.133,318.467c-0.225-0.666-0.441-1.336-0.652-2.008c1.192-0.559,2.118-1.814,2.878-2.8
					c1.318-1.709,2.125-3.655,2.848-5.671c0.038-0.107-0.14-0.169-0.188-0.067c-0.828,1.776-1.724,3.54-2.992,5.05
					c-0.707,0.841-1.707,2.143-2.758,2.795c-0.247-0.805-0.481-1.612-0.707-2.423c1.171-0.73,1.93-2.076,2.69-3.19
					c1.294-1.894,2.193-3.981,3.171-6.045c0.011-0.023-0.023-0.042-0.035-0.019c-1.614,2.905-3.157,6.69-5.984,8.678
					c-0.275-1.019-0.54-2.04-0.777-3.065c-0.013-0.054-0.024-0.107-0.036-0.161c3.148-2.564,4.26-6.488,5.939-10.023
					c0.027-0.058-0.056-0.111-0.086-0.053c-1.718,3.343-3.136,6.906-5.991,9.469c-0.334-1.471-0.654-2.942-0.972-4.414
					c2.676-2.695,4.373-5.788,5.403-9.475c0.018-0.062-0.073-0.095-0.095-0.033c-1.204,3.52-3.127,6.113-5.445,8.877
					c-0.314-1.457-0.632-2.912-0.967-4.364c1.078-1.338,2.353-2.439,3.223-3.943c0.858-1.484,1.506-3.078,1.707-4.786
					c0.011-0.09-0.123-0.107-0.139-0.019c-0.598,3.439-2.945,5.516-4.942,8.107c-0.317-1.351-0.653-2.697-1.017-4.039
					c2.182-2.981,4.673-5.963,4.894-9.833c0.003-0.038-0.055-0.048-0.06-0.009c-0.437,3.664-2.945,6.322-5.019,9.172
					c-0.067-0.238-0.129-0.477-0.198-0.715c-0.355-1.235-0.725-2.467-1.097-3.697c1.372-1.461,2.535-3.161,3.593-4.855
					c0.75-1.202,1.576-2.434,1.769-3.862c0.013-0.09-0.122-0.114-0.139-0.024c-0.523,2.987-3.363,5.895-5.384,8.208
					c-0.377-1.242-0.756-2.483-1.132-3.726c2.028-3.024,4.911-5.517,5.216-9.406c0.009-0.115-0.164-0.137-0.18-0.021
					c-0.49,3.651-3.256,5.994-5.212,8.848c-0.232-0.771-0.463-1.541-0.689-2.313c2.527-2.541,4.886-6.746,5.21-10.252
					c0.019-0.193-0.268-0.232-0.298-0.04c-0.515,3.183-2.586,7.346-5.089,9.677c-0.364-1.252-0.719-2.507-1.053-3.768
					c0.006-0.042,0.005-0.083-0.003-0.125c1.182-1.04,2.086-2.637,2.929-3.916c1.016-1.543,1.9-3.198,2.114-5.056
					c0.023-0.206-0.306-0.232-0.32-0.025c-0.229,3.049-2.69,6.166-4.923,8.328c-0.119-0.461-0.24-0.922-0.354-1.385
					c-0.169-0.692-0.335-1.387-0.5-2.081c0.739-1.26,1.955-2.264,2.679-3.568c0.63-1.134,1.073-2.353,1.495-3.575
					c0.042-0.121-0.138-0.195-0.187-0.074c-0.621,1.553-1.293,3.076-2.302,4.421c-0.564,0.753-1.314,1.381-1.837,2.161
					c-0.27-1.136-0.54-2.271-0.82-3.402c0.012-0.008,0.022-0.018,0.034-0.026c0.015-0.004,0.029-0.007,0.043-0.011
					c0.083-0.021,0.13-0.075,0.153-0.139c1.308-1.063,1.848-2.867,2.337-4.418c0.012-0.037-0.041-0.057-0.056-0.021
					c-0.596,1.452-1.285,3.074-2.491,4.141c-0.006,0.001-0.012,0-0.018,0.001c-0.039,0.012-0.076,0.022-0.114,0.033
					c-0.23-0.92-0.471-1.838-0.724-2.751c0.098-0.069,0.148-0.204,0.073-0.3c0.54-0.893,0.941-1.896,1.305-2.866
					c0.027-0.073-0.079-0.117-0.111-0.047c-0.417,0.925-0.874,1.739-1.455,2.539c-0.539-1.881-1.144-3.741-1.874-5.565
					c-0.067-0.169-0.317-0.055-0.257,0.114c0.642,1.784,1.183,3.595,1.674,5.419c-1.317-0.691-2.741-1.372-3.812-2.367
					c-0.056-0.052-0.145,0.021-0.091,0.079c0.599,0.648,1.331,1.119,2.064,1.603c0.655,0.433,1.283,1,2.009,1.317
					c0.258,0.982,0.5,1.969,0.733,2.957c-1.067,0.303-2.066,0.539-3.223,0.201c-1.413-0.413-2.543-1.345-3.261-2.626
					c-0.088-0.157-0.345-0.037-0.254,0.119c0.688,1.183,1.721,2.116,2.994,2.644c1.34,0.555,2.526,0.378,3.839,0.068
					c0.267,1.144,0.526,2.288,0.782,3.436c-1.155-0.121-2.323-0.438-3.438-0.708c-1.8-0.436-3.161-1.334-4.85-1.981
					c-0.169-0.064-0.276,0.192-0.107,0.26c1.597,0.639,2.891,1.531,4.581,1.986c1.217,0.326,2.609,0.798,3.906,0.855
					c0.013,0.061,0.026,0.121,0.04,0.182c-0.006,0.016-0.015,0.029-0.021,0.046c-0.044,0.114,0.007,0.2,0.085,0.243
					c0.244,1.098,0.489,2.196,0.744,3.292c0.016,0.068,0.034,0.137,0.05,0.205c-2.817,0.019-7.147-0.213-8.709-2.765
					c-0.149-0.242-0.498,0.007-0.317,0.242c2.106,2.729,6.087,2.52,9.169,3.107c0.299,1.235,0.616,2.464,0.953,3.688
					c-1.74,0.182-3.464,0.208-5.189-0.208c-1.569-0.377-3.701-0.722-4.874-1.893c-0.036-0.037-0.089,0.022-0.054,0.06
					c1.131,1.181,3.033,1.468,4.536,1.933c1.908,0.59,3.762,0.981,5.714,0.663c0.01,0.056,0.031,0.109,0.066,0.154
					c0.217,0.774,0.438,1.548,0.663,2.32c-2.922,1.096-7.865,0.792-10.3-0.671c-0.011-0.007-0.02,0.011-0.009,0.018
					c1.74,1.17,3.67,1.43,5.729,1.476c1.539,0.034,3.23,0.134,4.695-0.42c0.419,1.429,0.846,2.855,1.268,4.283
					c-1.436,0.114-2.834,0.499-4.271,0.577c-2.136,0.118-4.112-0.536-5.913-1.634c-0.109-0.066-0.231,0.089-0.122,0.16
					c3.398,2.194,6.631,1.798,10.463,1.429c0.346,1.172,0.685,2.346,1.012,3.522c-2.934,0.738-7.182,0.716-9.633-0.989
					c-0.181-0.125-0.387,0.146-0.207,0.272c1.56,1.098,3.483,1.355,5.352,1.415c1.346,0.043,3.271,0.257,4.614-0.25
					c0.011,0.038,0.022,0.077,0.033,0.115c0.466,1.697,0.884,3.407,1.273,5.123c-3.36,0.645-6.343-0.679-9.5-1.747
					c-0.22-0.074-0.354,0.258-0.134,0.336c3.248,1.155,6.275,2.545,9.748,1.914c0.313,1.398,0.607,2.802,0.889,4.207
					c-2.896,0.476-6.278-0.161-8.909-1.479c-0.186-0.094-0.299,0.204-0.118,0.299c2.777,1.464,6.057,2.019,9.137,1.725
					c0.299,1.51,0.584,3.022,0.865,4.535c-2.819,0.825-5.614,0.121-8.205-1.208c-0.061-0.03-0.116,0.072-0.056,0.106
					c2.373,1.333,5.629,2.633,8.363,1.655c0.09,0.483,0.179,0.966,0.269,1.449c0.054,0.291,0.106,0.588,0.158,0.887
					c-2.257,0.34-4.431,0.485-6.691-0.09c-0.063-0.017-0.083,0.079-0.021,0.098c2.209,0.677,4.513,0.754,6.79,0.439
					c0.156,0.914,0.312,1.857,0.477,2.814c-0.599,0-1.192-0.029-1.806,0.06c-1.125,0.164-2.056-0.164-3.156-0.28
					c-0.101-0.011-0.138,0.142-0.034,0.156c0.983,0.142,1.809,0.528,2.821,0.452c0.749-0.057,1.492-0.03,2.235-0.044
					c0.665,3.793,1.533,7.75,3.475,10.785c0.431,0.673,1.724,0.303,1.555-0.548C358.178,323.482,356.981,320.989,356.133,318.467z"
					/>
			</g>
			<g>
				
					<linearGradient id="SVGID_9_" gradientUnits="userSpaceOnUse" x1="552.5723" y1="-28.8604" x2="503.8884" y2="32.511" gradientTransform="matrix(0.6073 -0.7945 0.7945 0.6073 41.9386 696.6661)">
					<stop  offset="0" style="stop-color:#606BF1"/>
					<stop  offset="1" style="stop-color:#58479F"/>
				</linearGradient>
				<path fill="url(#SVGID_9_)" d="M377.417,283.42c0.466,10.51,5.385,27.367-7.148,33.401c-3.376,1.625-7.437,0.026-10.219-2.277
					c-3.642-3.015-6.269-10.681-7.353-15.171c-0.859-3.559-0.649-7.822-1.164-11.501c-0.557-3.974-1.193-7.937-1.719-11.915
					c-1.894-14.338,2.432-27.85,12.982-37.912c2.107,4.331,5.258,7.652,8.28,11.559c1.378,1.78,2.699,3.692,3.798,5.646
					c1.945,3.46,1.676,7.521,1.671,11.306C376.54,272.151,377.169,277.824,377.417,283.42z"/>
				<path fill="#747DED" d="M368.117,317.723c-0.118-0.861-0.227-1.726-0.328-2.591c1.578-0.402,2.996-1.716,4.147-2.737
					c1.998-1.772,3.43-3.951,4.774-6.234c0.071-0.122-0.131-0.238-0.212-0.126c-1.419,1.968-2.916,3.905-4.807,5.446
					c-1.055,0.858-2.571,2.21-4,2.759c-0.114-1.035-0.213-2.071-0.299-3.109c1.593-0.616,2.826-2.077,4.01-3.255
					c2.011-2.002,3.588-4.333,5.255-6.615c0.019-0.026-0.02-0.056-0.04-0.031c-2.635,3.159-5.386,7.403-9.283,9.165
					c-0.1-1.302-0.185-2.604-0.235-3.907c-0.003-0.068-0.005-0.136-0.008-0.204c4.423-2.389,6.682-6.901,9.542-10.81
					c0.047-0.063-0.042-0.148-0.092-0.084c-2.863,3.666-5.412,7.669-9.476,10.124c-0.065-1.865-0.114-3.729-0.16-5.592
					c3.877-2.656,6.657-6.023,8.764-10.267c0.035-0.071-0.068-0.133-0.108-0.063c-2.278,4-5.217,6.708-8.675,9.53
					c-0.045-1.844-0.094-3.687-0.164-5.528c1.619-1.377,3.424-2.422,4.83-4.049c1.387-1.604,2.543-3.394,3.184-5.423
					c0.034-0.106-0.126-0.159-0.165-0.055c-1.522,4.042-4.858,6.023-7.886,8.712c-0.072-1.715-0.169-3.431-0.301-5.146
					c3.344-3.119,7.062-6.167,8.227-10.821c0.012-0.046-0.056-0.071-0.07-0.024c-1.38,4.354-5.045,7.004-8.226,9.989
					c-0.025-0.306-0.046-0.61-0.074-0.916c-0.147-1.584-0.311-3.167-0.478-4.749c2.006-1.458,3.813-3.256,5.491-5.071
					c1.19-1.288,2.48-2.593,3.045-4.285c0.035-0.106-0.123-0.167-0.163-0.062c-1.328,3.51-5.453,6.388-8.445,8.731
					c-0.171-1.598-0.344-3.194-0.514-4.791c3.166-3.207,7.248-5.569,8.519-10.228c0.037-0.139-0.168-0.205-0.214-0.067
					c-1.441,4.324-5.346,6.533-8.385,9.549c-0.104-0.99-0.205-1.98-0.302-2.972c3.661-2.503,7.501-7.069,8.708-11.256
					c0.066-0.23-0.271-0.344-0.354-0.118c-1.362,3.751-4.846,8.332-8.428,10.586c-0.152-1.606-0.293-3.214-0.407-4.824
					c0.018-0.05,0.025-0.1,0.025-0.152c1.678-0.991,3.146-2.722,4.467-4.082c1.593-1.641,3.051-3.448,3.741-5.657
					c0.076-0.244-0.316-0.353-0.384-0.105c-0.984,3.653-4.697,6.873-7.912,8.986c-0.038-0.589-0.079-1.177-0.109-1.767
					c-0.046-0.881-0.087-1.764-0.127-2.646c1.19-1.36,2.901-2.3,4.084-3.718c1.027-1.232,1.849-2.611,2.646-4
					c0.079-0.139-0.123-0.27-0.21-0.134c-1.114,1.743-2.284,3.44-3.822,4.843c-0.86,0.783-1.918,1.374-2.733,2.2
					c-0.064-1.442-0.131-2.885-0.209-4.325c0.016-0.008,0.031-0.017,0.048-0.024c0.019-0.001,0.036-0.002,0.055-0.003
					c0.104-0.006,0.175-0.061,0.218-0.133c1.836-0.99,2.91-3.059,3.864-4.83c0.022-0.042-0.037-0.079-0.063-0.038
					c-1.061,1.628-2.273,3.439-3.987,4.457c-0.008,0-0.013-0.003-0.021-0.003c-0.05,0.005-0.097,0.009-0.146,0.014
					c-0.067-1.172-0.146-2.343-0.243-3.512c0.136-0.062,0.229-0.214,0.159-0.347c0.863-0.961,1.584-2.089,2.249-3.184
					c0.051-0.082-0.068-0.161-0.124-0.082c-0.722,1.027-1.466,1.912-2.356,2.749c-0.22-2.41-0.524-4.813-0.99-7.199
					c-0.043-0.221-0.373-0.14-0.338,0.079c0.367,2.318,0.604,4.645,0.779,6.976c-1.441-1.146-3.014-2.303-4.086-3.761
					c-0.055-0.075-0.18-0.008-0.128,0.075c0.578,0.928,1.358,1.669,2.138,2.427c0.697,0.678,1.329,1.513,2.139,2.066
					c0.085,1.254,0.152,2.509,0.207,3.765c-1.369,0.121-2.639,0.177-3.965-0.501c-1.623-0.829-2.78-2.224-3.355-3.948
					c-0.071-0.211-0.412-0.124-0.338,0.087c0.563,1.597,1.603,2.971,3.028,3.906c1.501,0.984,2.984,1.045,4.651,0.973
					c0.06,1.451,0.11,2.903,0.155,4.356c-1.376-0.414-2.723-1.07-4.016-1.656c-2.087-0.946-3.535-2.353-5.438-3.531
					c-0.19-0.118-0.38,0.17-0.19,0.291c1.793,1.146,3.159,2.531,5.109,3.475c1.403,0.68,2.988,1.575,4.55,1.945
					c0.003,0.076,0.005,0.153,0.008,0.229c-0.012,0.018-0.025,0.033-0.036,0.051c-0.08,0.13-0.038,0.246,0.047,0.315
					c0.043,1.392,0.087,2.784,0.143,4.175c0.004,0.087,0.01,0.174,0.014,0.261c-3.43-0.63-8.641-1.914-9.948-5.377
					c-0.125-0.329-0.607-0.107-0.441,0.22c1.929,3.807,6.816,4.474,10.428,5.902c0.076,1.569,0.179,3.138,0.305,4.704
					c-2.158-0.182-4.26-0.55-6.261-1.454c-1.821-0.822-4.333-1.734-5.487-3.43c-0.036-0.054-0.113,0.007-0.079,0.06
					c1.102,1.697,3.348,2.487,5.067,3.399c2.183,1.159,4.346,2.064,6.792,2.13c-0.001,0.07,0.013,0.14,0.045,0.202
					c0.084,0.992,0.174,1.983,0.27,2.975c-3.806,0.656-9.745-0.858-12.366-3.2c-0.012-0.011-0.026,0.008-0.016,0.02
					c1.846,1.825,4.131,2.588,6.624,3.12c1.863,0.397,3.897,0.911,5.807,0.576c0.178,1.834,0.365,3.668,0.549,5.502
					c-1.772-0.194-3.561-0.051-5.326-0.287c-2.623-0.352-4.875-1.604-6.811-3.356c-0.116-0.105-0.301,0.055-0.185,0.167
					c3.623,3.455,7.646,3.721,12.389,4.159c0.149,1.505,0.288,3.011,0.415,4.518c-3.737,0.218-8.897-0.793-11.482-3.434
					c-0.189-0.193-0.504,0.087-0.314,0.283c1.642,1.695,3.921,2.454,6.179,2.959c1.626,0.364,3.917,1.069,5.667,0.765
					c0.004,0.049,0.009,0.099,0.014,0.148c0.173,2.171,0.285,4.346,0.362,6.522c-4.234,0.005-7.554-2.295-11.146-4.324
					c-0.249-0.141-0.49,0.231-0.24,0.378c3.682,2.156,7.04,4.546,11.408,4.584c0.057,1.772,0.09,3.546,0.105,5.32
					c-3.63-0.092-7.596-1.649-10.487-3.86c-0.205-0.156-0.411,0.179-0.214,0.336c3.038,2.423,6.896,3.856,10.709,4.212
					c0.013,1.905,0.01,3.81,0.001,5.714c-3.618,0.35-6.853-1.153-9.695-3.367c-0.065-0.052-0.157,0.061-0.093,0.115
					c2.576,2.171,6.234,4.505,9.785,3.949c-0.004,0.607-0.006,1.216-0.01,1.823c-0.002,0.366-0.007,0.739-0.013,1.115
					c-2.822-0.109-5.499-0.437-8.114-1.659c-0.073-0.034-0.119,0.077-0.049,0.114c2.529,1.334,5.313,1.961,8.153,2.106
					c-0.021,1.147-0.052,2.33-0.071,3.531c-0.729-0.139-1.444-0.312-2.21-0.345c-1.406-0.062-2.461-0.676-3.771-1.072
					c-0.12-0.036-0.2,0.141-0.078,0.183c1.163,0.399,2.076,1.061,3.324,1.202c0.925,0.104,1.822,0.309,2.729,0.464
					c-0.07,4.766,0.069,9.777,1.728,13.917c0.367,0.918,2.024,0.767,2.016-0.307C369.442,324.295,368.564,320.986,368.117,317.723z"
					/>
			</g>
			<polygon fill="#95A8B5" points="384.335,321.66 383.871,330.203 383.145,343.506 381.955,365.363 352.363,365.363 
				351.174,343.506 350.447,330.203 349.983,321.66 			"/>
			<polygon fill="#A5B7C6" points="383.871,330.203 383.775,331.916 383.681,333.689 383.145,343.506 351.174,343.506 
				350.638,333.689 350.543,331.916 350.447,330.203 			"/>
			<polygon fill="#95A8B5" points="383.775,331.916 383.681,333.689 350.638,333.689 350.543,331.916 			"/>
		</g>
	</g>
</g>
<g id="Designed_By_Freepik">
	<g>
		<g>
			<g>
				<g>
					<g>
						<path fill="#FF4F5B" d="M201.565,29.804c-1.554,0.769-2.537,2.385-2.526,4.153l0.216,34.435
							c0.011,1.621,0.855,3.116,2.224,3.932l28.596,17.042c0.003,0.003,0.009,0.003,0.014,0l27.371-17.744
							c1.304-0.845,2.089-2.319,2.079-3.9l-0.226-35.956c-0.011-1.832-1.087-3.48-2.734-4.193L229.62,15.922L201.565,29.804z"/>
					</g>
				</g>
			</g>
			<g opacity="0.2">
				<g>
					<path d="M229.62,15.922l0.461,73.444l27.335-17.71c1.324-0.856,2.133-2.304,2.122-3.881l-0.211-36.1
						c-0.011-1.782-1.074-3.389-2.711-4.096L229.62,15.922z"/>
				</g>
			</g>
		</g>
		<g>
			<g>
				<path fill="#FFFFFF" d="M237.621,57.167l-16.677,0.105l-3.402,8.059l-4.617,0.029l14.011-32.24l4.438-0.027l14.459,32.061
					l-4.707,0.029L237.621,57.167z M236.029,53.503l-6.868-15.711l-6.672,15.796L236.029,53.503z"/>
			</g>
		</g>
	</g>
</g>
</svg>
