<?xml version="1.0" encoding="utf-8"?>
<!-- Generator: Adobe Illustrator 24.0.0, SVG Export Plug-In . SVG Version: 6.00 Build 0)  -->
<svg version="1.0" id="Layer_1" xmlns="http://www.w3.org/2000/svg" xmlns:xlink="http://www.w3.org/1999/xlink" x="0px" y="0px"
	 viewBox="0 0 512 512" style="enable-background:new 0 0 512 512;" xml:space="preserve">
<style type="text/css">
	.st0{fill-rule:evenodd;clip-rule:evenodd;fill:#36B39B;}
</style>
<g>
	<path class="st0" d="M278.9,130.9c0-6.6,5.3-12,11.6-12c6.7,0,12,5.3,12,12c0,6.3-5.3,11.6-12,11.6
		C284.3,142.6,278.9,137.2,278.9,130.9L278.9,130.9z M149.9,294.8v-82.1c0-12.6-10.6-23.3-23.3-23.3c-13,0-23.6,10.6-23.6,23.3v82.1
		c0,13,10.6,23.6,23.6,23.6C139.3,318.4,149.9,307.8,149.9,294.8L149.9,294.8z M349.5,189.4H161.5v152.2c0,12.3,10,22.3,22.3,22.3
		h1.3v59.8c0,13,10.6,23.6,23.6,23.6c12.6,0,23.3-10.6,23.3-23.6v-59.8h46.9v59.8c0,13,10.6,23.6,23.6,23.6
		c12.6,0,23.3-10.6,23.3-23.6v-59.8h1.7c12,0,22-10,22-22.3V189.4z M361.1,212.7v82.1c0,13,10.6,23.6,23.6,23.6
		c12.6,0,23.3-10.6,23.3-23.6v-82.1c0-12.6-10.6-23.3-23.3-23.3C371.7,189.4,361.1,200.1,361.1,212.7L361.1,212.7z M232.1,130.9
		c0,6.3-5.3,11.6-11.6,11.6c-6.7,0-11.6-5.3-11.6-11.6c0-6.6,5-12,11.6-12C226.7,119,232.1,124.3,232.1,130.9L232.1,130.9z
		 M161.5,177.8h187.9c0-31.2-15.3-59.2-38.9-76.1l19.6-19.6c2.3-2.3,2.3-6,0-8.3c-2.3-2.3-6-2.3-8.3,0l-21.6,21.6
		c-13.3-7.3-28.6-11.6-44.6-11.6c-16.3,0-31.6,4.3-44.9,11.6l-21.6-21.6c-2-2.3-6-2.3-8,0c-2.3,2.3-2.3,6,0,8.3l19.3,19.6
		C177.2,118.6,161.5,146.5,161.5,177.8L161.5,177.8z"/>
</g>
</svg>
