<svg width="46" height="37" viewBox="0 0 46 37" fill="none" xmlns="http://www.w3.org/2000/svg">
<path d="M23.5432 33.7617C23.4225 33.7617 23.3018 33.6417 23.3018 33.5218V31.243C23.3018 31.1231 23.4225 31.0032 23.5432 31.0032C23.664 31.0032 23.7847 31.1231 23.7847 31.243V33.5218C23.8451 33.6417 23.7243 33.7617 23.5432 33.7617Z" fill="#032641"/>
<path d="M23.5435 35.5608C22.9398 35.5608 22.3965 35.081 22.3965 34.4214C22.3965 33.8217 22.8794 33.282 23.5435 33.282C24.1471 33.282 24.6904 33.7617 24.6904 34.4214C24.6904 35.081 24.2075 35.5608 23.5435 35.5608ZM23.5435 33.8217C23.2416 33.8217 22.9398 34.0616 22.9398 34.4214C22.9398 34.7812 23.1813 35.021 23.5435 35.021C23.8453 35.021 24.1471 34.7812 24.1471 34.4214C24.1471 34.0616 23.9057 33.8217 23.5435 33.8217Z" fill="#032641"/>
<path d="M41.8346 3.47803H5.25195V31.243H41.8346V3.47803Z" fill="#9BDAEF"/>
<path d="M43.8872 3.47803H3.32031V5.9367H43.8872V3.47803Z" fill="#18488F"/>
<path d="M41.8348 3.47803H23.5435V31.243H41.8348V3.47803Z" fill="#50C2D9"/>
<path d="M21.0686 16.0111C21.0686 19.7291 18.0502 22.6675 14.3678 22.6675C10.625 22.6675 7.66699 19.6692 7.66699 16.0111C7.66699 12.2931 10.6854 9.35474 14.3678 9.35474C16.2392 9.35474 17.9295 10.0743 19.1368 11.3337C19.982 12.1732 20.5856 13.2526 20.8875 14.392C21.0082 14.9317 21.0686 15.4714 21.0686 16.0111Z" fill="#FCC012"/>
<path d="M19.1367 11.3337L14.3677 16.0711V9.35474C16.2391 9.35474 17.9294 10.0743 19.1367 11.3337Z" fill="#F99D1F"/>
<path d="M20.8874 14.392L14.3677 16.0111L19.1367 11.2737C19.9818 12.1732 20.5855 13.1926 20.8874 14.392Z" fill="#FBE5AC"/>
<path d="M38.5147 22.6077H26.6223C26.5016 22.6077 26.3809 22.4878 26.3809 22.3679V10.6742C26.3809 10.5543 26.5016 10.4343 26.6223 10.4343C26.7431 10.4343 26.8638 10.5543 26.8638 10.6742V22.068H38.5147C38.6355 22.068 38.7562 22.188 38.7562 22.3079C38.8166 22.4878 38.6958 22.6077 38.5147 22.6077Z" fill="#032641"/>
<path d="M28.1317 18.7097C28.0713 18.7097 27.9506 18.6498 27.8902 18.5898C27.8299 18.4699 27.8299 18.29 27.9506 18.23L31.8745 15.8313C31.9952 15.7713 32.1763 15.7713 32.2367 15.8913L32.9611 16.9107L36.7643 14.3321C36.885 14.2721 37.0661 14.2721 37.1265 14.3921C37.1868 14.512 37.1868 14.6919 37.0661 14.7519L33.0818 17.5104C32.9611 17.5704 32.78 17.5704 32.7196 17.4504L31.9952 16.371L28.2524 18.6498C28.2524 18.7097 28.1921 18.7097 28.1317 18.7097Z" fill="#1790BE"/>
<path d="M35.0136 14.1524L38.5753 13.3728C38.696 13.3728 38.7564 13.4927 38.696 13.5527L36.5831 16.3712C36.5228 16.4311 36.4624 16.4311 36.402 16.3712L34.9532 14.3323C34.8929 14.2123 34.9532 14.1524 35.0136 14.1524Z" fill="#032641"/>
<path d="M43.8269 3.47803H23.5435V5.9367H43.8269V3.47803Z" fill="#032641"/>
<path d="M19.1368 25.1863H10.4438V26.0258H19.1368V25.1863Z" fill="#1790BE"/>
<path d="M36.9449 25.1863H28.252V26.0258H36.9449V25.1863Z" fill="#1790BE"/>
<path d="M20.8874 27.1052H8.63281V27.9448H20.8874V27.1052Z" fill="#1790BE"/>
<path d="M38.8767 27.1052H26.6221V27.9448H38.8767V27.1052Z" fill="#1790BE"/>
</svg>
