<?xml version="1.0" encoding="utf-8"?>
<!-- Generator: Adobe Illustrator 24.0.0, SVG Export Plug-In . SVG Version: 6.00 Build 0)  -->
<svg version="1.0" id="Layer_1" xmlns="http://www.w3.org/2000/svg" xmlns:xlink="http://www.w3.org/1999/xlink" x="0px" y="0px"
	 viewBox="0 0 274.3 281.1" style="enable-background:new 0 0 274.3 281.1;" xml:space="preserve">
<style type="text/css">
	.st0{opacity:0.5;}
	.st1{fill:#D2EDF3;}
	.st2{fill:#9DD8EA;}
	.st3{opacity:7.000000e-02;fill:#010101;}
	.st4{fill:none;}
	.st5{clip-path:url(#XMLID_4_);}
	.st6{fill:#FFFFFF;}
	.st7{fill:#F4F1F0;}
	.st8{opacity:0.5;fill:#525150;}
	.st9{fill:#343332;}
	.st10{opacity:0.1;fill:#010101;}
	.st11{fill:#525150;}
	.st12{opacity:0.24;fill:#010101;}
	.st13{fill:#3D4044;}
</style>
<g id="XMLID_204_" class="st0">
	<g>
		<path class="st1" d="M136.5,17.2c33.1,0,64.2,12.9,87.6,36.3c23.4,23.4,36.3,54.5,36.3,87.6s-12.9,64.2-36.3,87.6
			c-23.4,23.4-54.5,36.3-87.6,36.3c-33.1,0-64.2-12.9-87.6-36.3c-23.4-23.4-36.3-54.5-36.3-87.6s12.9-64.2,36.3-87.6
			C72.3,30.1,103.4,17.2,136.5,17.2 M136.5,12.2C65.3,12.2,7.6,69.9,7.6,141.1S65.3,270,136.5,270c71.2,0,128.9-57.7,128.9-128.9
			S207.7,12.2,136.5,12.2L136.5,12.2z"/>
	</g>
</g>
<circle id="XMLID_203_" class="st2" cx="136.5" cy="141.1" r="118.1"/>
<path id="XMLID_202_" class="st3" d="M29.1,151.8C29.1,86.6,82,33.7,147.2,33.7c29.9,0,57.2,11.1,78,29.4
	C203.5,38.6,171.8,23,136.5,23C71.3,23,18.4,75.9,18.4,141.1c0,35.3,15.5,67,40.1,88.6C40.2,208.9,29.1,181.7,29.1,151.8z"/>
<g id="XMLID_200_">
	<defs>
		<circle id="XMLID_201_" cx="136.5" cy="141.1" r="118.1"/>
	</defs>
	<clipPath id="XMLID_3_">
		<use xlink:href="#XMLID_201_"  style="overflow:visible;"/>
	</clipPath>
</g>
<circle id="XMLID_199_" class="st4" cx="136.5" cy="141.1" r="118.1"/>
<circle id="XMLID_160_" class="st4" cx="136.5" cy="141.1" r="118.1"/>
<g id="XMLID_172_">
	<defs>
		<circle id="XMLID_163_" cx="136.5" cy="141.1" r="118.1"/>
	</defs>
	<clipPath id="XMLID_4_">
		<use xlink:href="#XMLID_163_"  style="overflow:visible;"/>
	</clipPath>
	<g id="XMLID_171_" class="st5">
		<g id="XMLID_164_">
			<g id="XMLID_194_">
				<path id="XMLID_196_" class="st6" d="M102.5,113.4c1.8,8.8-1.1,17.3-6.5,18.9c-5.3,1.7-11.1-4.1-12.9-12.9
					c-1.8-8.8,1.1-17.3,6.5-18.9C94.9,98.9,100.7,104.7,102.5,113.4z"/>
				<path id="XMLID_195_" class="st7" d="M169.7,113.4c-1.8,8.8,1.1,17.3,6.5,18.9c5.3,1.7,11.1-4.1,12.9-12.9
					c1.8-8.8-1.1-17.3-6.5-18.9C177.2,98.9,171.5,104.7,169.7,113.4z"/>
				<path id="XMLID_173_" class="st8" d="M206.2,210.7c-2.7-2.4-5.9-4.2-9.6-5.2l-22.3-5.9l0,0c-0.9-0.2-1.7-0.5-2.6-0.8
					c-0.2-0.1-0.4-0.2-0.6-0.2c-0.7-0.3-1.4-0.6-2-0.9c-0.1,0-0.2-0.1-0.3-0.1l0.8-1.3l-12.9-11.4c-1.4-3-2.2-6.2-2.4-9.7l-0.4-7.2
					c9.4-7.9,18.1-21,23.4-35.4c4.9,0.4,9.9-5.1,11.6-13.1c1.7-8.2-0.8-16.2-5.5-18.5l0,0c0,0,4.2-21-7-36.4
					c-10.2-14.1-26.4-24-40.7-21.7v220.6h71.9l5.8-31.2c0.3-1.5,0.4-3,0.4-4.5C213.9,221.2,211,215.1,206.2,210.7z"/>
			</g>
			<path id="XMLID_191_" class="st7" d="M174.4,199.6c-11.2-3-19.2-12.9-19.9-24.4l-2.2-38.4h-35.7l-2.3,40
				c-0.7,11.7-8.8,21.6-20.2,24.5l-17.5,4.4c-11.9,3-19.4,14.7-17.1,26.8l5.8,30.9h142.4l5.8-31.2c2.2-11.9-5.1-23.6-16.9-26.7
				L174.4,199.6z"/>
			<path id="XMLID_190_" class="st6" d="M183.1,104c0,32.7-25.2,71.7-46.6,71.7c-21.4,0-46.6-39.1-46.6-71.7s20.9-52.2,46.6-52.2
				S183.1,71.3,183.1,104z"/>
			<path id="XMLID_189_" class="st9" d="M121.8,50.1c-8.6,1.1-20.9,1.7-29,18.7c-8.5,17.9-4.7,32.4-4.7,32.4
				c9.5-0.7,10.9,15.2,10.9,15.2l2.6-4.6c1.1-8.1,1.7-23.6,7.7-27.1c7-0.7,37.7,11.2,46.2-8c20.8,0.1,15.8,31,15.6,34.7l2.8,5
				c0,0,2.7-15.5,9.7-15.5c0,0,4.2-21-7-36.4C162.8,45.6,138.3,34,121.8,50.1z"/>
			<path id="XMLID_188_" class="st6" d="M196.7,205.6l-22.3-5.9c-1.9-0.5-3.7-1.2-5.5-2.1l0.9-1.3l-12.9-11.4l-21.1,21.1l-22.6-22.6
				L101,196.1l1.2,1.7c-2.4,1.6-5.1,2.8-8,3.5l-17.5,4.4c-11.9,3-19.4,14.7-17.1,26.8l5.8,30.9h142.4l5.8-31.2
				C215.8,220.3,208.4,208.7,196.7,205.6z"/>
			<polygon id="XMLID_187_" class="st10" points="104.5,202.9 122.5,229.2 135.8,205.9 122.5,234.4 			"/>
			<polygon id="XMLID_186_" class="st10" points="166.6,202.9 149.1,228 135.8,205.9 149.1,234.4 			"/>
			<g id="XMLID_178_">
				<path id="XMLID_180_" class="st11" d="M102.2,197.8c-2.4,1.6-5.1,2.8-8,3.5l-17.5,4.4c-11.9,3-19.4,14.7-17.1,26.8l5.8,30.9H131
					L102.2,197.8z"/>
				<path id="XMLID_179_" class="st11" d="M196.7,205.6l-22.3-5.9c-1.9-0.5-3.7-1.2-5.5-2.1l-28.1,66h66.8l5.8-31.2
					C215.8,220.3,208.4,208.7,196.7,205.6z"/>
			</g>
			<polygon id="XMLID_177_" class="st12" points="84.2,212.5 101.6,249.9 111.1,248 105.3,259.2 106.9,263.5 110.7,263.5 
				109.3,259.2 115.2,245 103,247.1 			"/>
			<polygon id="XMLID_176_" class="st12" points="186.4,212.5 169.1,249.9 159.5,248 165.3,259.2 163.7,263.5 160,263.5 
				161.4,259.2 155.5,245 167.7,247.1 			"/>
			<polygon id="XMLID_158_" class="st13" points="135.8,205.9 126.9,221.6 135.8,232.7 145.4,221.9 			"/>
			<polygon id="XMLID_159_" class="st13" points="135.8,219.9 126.9,241.2 131,263.5 140.9,263.5 145.4,241.4 			"/>
		</g>
	</g>
</g>
</svg>
