<svg xmlns="http://www.w3.org/2000/svg" width="74.363" height="74.353" viewBox="0 0 74.363 74.353">
  <path id="aviation" d="M75.61,3.756a4.334,4.334,0,0,0-3.836-1.174h0L66.216,3.6A22.75,22.75,0,0,0,54.161,9.862l-8.689,8.767-25.6-9.707A5.241,5.241,0,0,0,14.4,10.1L9.229,15.263a3.8,3.8,0,0,0-1.1,3.209,3.656,3.656,0,0,0,1.879,2.74l22,12.29L22.458,44.7c-.548.7-1.174,1.409-1.722,2.114l-8.454-2.975a5.3,5.3,0,0,0-5.4,1.252L3.593,48.375a4.069,4.069,0,0,0-1.1,3.131,3.568,3.568,0,0,0,1.8,2.74l9.472,5.793-.7,3.444a2.31,2.31,0,0,0,2.74,2.74l3.444-.626,5.793,9.472a3.847,3.847,0,0,0,2.74,1.8h.47a3.728,3.728,0,0,0,2.661-1.1L34.2,72.485a5.3,5.3,0,0,0,1.252-5.4l-2.975-8.376a25.046,25.046,0,0,0,2.114-1.722l11.116-9.707,12.29,22a3.659,3.659,0,0,0,2.818,1.879,3.8,3.8,0,0,0,3.209-1.1l5.166-5.166a5.241,5.241,0,0,0,1.174-5.48L60.737,33.893,69.426,25.2a22.269,22.269,0,0,0,6.262-11.977l1.1-5.636A4.334,4.334,0,0,0,75.61,3.756Zm-4.54,8.532a17.25,17.25,0,0,1-5.01,9.472l-9.707,9.863a2.446,2.446,0,0,0-.548,2.5L65.982,61.134a.518.518,0,0,1-.078.47l-4.227,4.227L48.525,42.347a2.146,2.146,0,0,0-1.644-1.174,2.254,2.254,0,0,0-1.957.548L31.539,53.385a38.221,38.221,0,0,1-3.209,2.5,2.341,2.341,0,0,0-.861,2.74l3.523,10.02a.344.344,0,0,1-.078.391l-2.427,2.427-6.027-9.785a2.361,2.361,0,0,0-2.035-1.1.993.993,0,0,0-.47.078l-1.566.313.313-1.566a2.492,2.492,0,0,0-1.1-2.5L7.82,50.88l2.427-2.427c.078-.078.313-.157.391-.078l10.1,3.6a2.341,2.341,0,0,0,2.74-.861,34.984,34.984,0,0,1,2.5-3.209L37.645,34.6a2.254,2.254,0,0,0,.548-1.957A2.345,2.345,0,0,0,37.018,31L13.613,17.69l4.227-4.227a.344.344,0,0,1,.391-.078L45.238,23.56a2.294,2.294,0,0,0,2.5-.548l9.785-9.785A18.313,18.313,0,0,1,67,8.218l4.932-.939Z" transform="translate(-2.487 -2.516)" fill="#fff" opacity="0.74"/>
</svg>
