<svg width="62" height="51" viewBox="0 0 62 51" fill="none" xmlns="http://www.w3.org/2000/svg">
<path d="M45.8083 35.7081C52.2792 35.7081 57.5249 35.338 57.5249 34.8815C57.5249 34.425 52.2792 34.0549 45.8083 34.0549C39.3375 34.0549 34.0918 34.425 34.0918 34.8815C34.0918 35.338 39.3375 35.7081 45.8083 35.7081Z" fill="white"/>
<path d="M57.4437 34.8815C57.4437 35.2948 52.2363 35.7081 45.8085 35.7081C39.3807 35.7081 34.1733 35.3775 34.1733 34.8815C34.1733 34.4682 39.3807 34.0549 45.8085 34.0549C52.2363 34.1376 57.4437 34.4682 57.4437 34.8815Z" fill="#FDFEFD"/>
<path d="M57.2808 34.8816C57.2808 35.2949 52.1548 35.6255 45.8084 35.6255C39.4619 35.6255 34.3359 35.2949 34.3359 34.8816C34.3359 34.4683 39.4619 34.1377 45.8084 34.1377C52.1548 34.1377 57.2808 34.4683 57.2808 34.8816Z" fill="#FCFCFC"/>
<path d="M57.118 34.8816C57.118 35.2949 52.0733 35.6255 45.8082 35.6255C39.5432 35.6255 34.4985 35.2949 34.4985 34.8816C34.4985 34.4683 39.5432 34.1377 45.8082 34.1377C52.0733 34.1377 57.118 34.4683 57.118 34.8816Z" fill="#FAFBFB"/>
<path d="M56.9551 34.8816C56.9551 35.2949 51.9918 35.6255 45.8081 35.6255C39.6244 35.6255 34.6611 35.2949 34.6611 34.8816C34.6611 34.4683 39.6244 34.1377 45.8081 34.1377C51.9918 34.1377 56.9551 34.4683 56.9551 34.8816Z" fill="#F9FAF9"/>
<path d="M56.8738 34.8816C56.8738 35.2949 51.9919 35.6255 45.8895 35.6255C39.7872 35.6255 34.9053 35.2949 34.9053 34.8816C34.9053 34.4683 39.7872 34.1377 45.8895 34.1377C51.9105 34.1377 56.8738 34.4683 56.8738 34.8816Z" fill="#F8F9F8"/>
<path d="M56.7112 34.8816C56.7112 35.2949 51.8293 35.6255 45.8897 35.6255C39.8687 35.6255 34.9868 35.2123 34.9868 34.8816C34.9868 34.4683 39.8687 34.1377 45.8083 34.1377C51.8293 34.1377 56.7112 34.4683 56.7112 34.8816Z" fill="#F6F8F7"/>
<path d="M56.5485 34.7989C56.5485 35.2121 51.748 35.5428 45.8898 35.5428C39.9501 35.5428 35.231 35.2121 35.231 34.7989C35.231 34.3856 40.0315 34.0549 45.8898 34.0549C51.748 34.1376 56.5485 34.4682 56.5485 34.7989Z" fill="#F5F7F6"/>
<path d="M56.3857 34.7989C56.3857 35.2121 51.6665 35.5428 45.8896 35.5428C40.0314 35.5428 35.3936 35.2121 35.3936 34.7989C35.3936 34.3856 40.1127 34.0549 45.8896 34.0549C51.6665 34.1376 56.3857 34.4682 56.3857 34.7989Z" fill="#F4F6F5"/>
<path d="M56.223 34.7989C56.223 35.2121 51.5852 35.5428 45.8083 35.5428C40.1127 35.5428 35.3936 35.2121 35.3936 34.7989C35.3936 34.3856 40.0314 34.0549 45.8083 34.0549C51.5852 34.1376 56.223 34.3856 56.223 34.7989Z" fill="#F3F5F4"/>
<path d="M56.0601 34.799C56.0601 35.2122 51.5037 35.4602 45.8081 35.4602C40.1939 35.4602 35.5562 35.1296 35.5562 34.799C35.5562 34.3857 40.1126 34.1377 45.8081 34.1377C51.5037 34.1377 56.0601 34.3857 56.0601 34.799Z" fill="#F2F4F3"/>
<path d="M55.8977 34.799C55.8977 35.2122 51.4226 35.4602 45.8085 35.4602C40.2757 35.4602 35.7192 35.1296 35.7192 34.799C35.7192 34.3857 40.1943 34.1377 45.8085 34.1377C51.4226 34.1377 55.8977 34.3857 55.8977 34.799Z" fill="#F1F3F3"/>
<path d="M55.7349 34.799C55.7349 35.2122 51.2598 35.4602 45.8083 35.4602C40.3569 35.4602 35.8818 35.1296 35.8818 34.799C35.8818 34.3857 40.3569 34.1377 45.8083 34.1377C51.3412 34.1377 55.7349 34.3857 55.7349 34.799Z" fill="#F0F2F2"/>
<path d="M55.6535 34.799C55.6535 35.1296 51.2598 35.4602 45.8898 35.4602C40.5197 35.4602 36.126 35.1296 36.126 34.799C36.126 34.4683 40.5197 34.1377 45.8898 34.1377C51.2598 34.1377 55.6535 34.3857 55.6535 34.799Z" fill="#EFF1F1"/>
<path d="M55.4907 34.799C55.4907 35.1296 51.1783 35.4602 45.8896 35.4602C40.6009 35.4602 36.2886 35.1296 36.2886 34.799C36.2886 34.4683 40.6009 34.1377 45.8896 34.1377C51.1783 34.1377 55.4907 34.3857 55.4907 34.799Z" fill="#EEF1F0"/>
<path d="M55.3278 34.799C55.3278 35.1296 51.0968 35.4602 45.8895 35.4602C40.6821 35.4602 36.4512 35.1296 36.4512 34.799C36.4512 34.4683 40.6821 34.1377 45.8895 34.1377C51.0968 34.1377 55.3278 34.3857 55.3278 34.799Z" fill="#EDF0EF"/>
<path d="M55.1651 34.7162C55.1651 35.0468 51.0155 35.3775 45.8081 35.3775C40.6821 35.3775 36.4512 35.1295 36.4512 34.7162C36.4512 34.3856 40.6008 34.0549 45.8081 34.0549C51.0155 34.1376 55.1651 34.3856 55.1651 34.7162Z" fill="#ECEFEF"/>
<path d="M55.0027 34.7162C55.0027 35.0468 50.9345 35.3775 45.8085 35.3775C40.7639 35.3775 36.6143 35.1295 36.6143 34.7162C36.6143 34.3856 40.6825 34.0549 45.8085 34.0549C50.9345 34.1376 55.0027 34.3856 55.0027 34.7162Z" fill="#EBEEEE"/>
<path d="M54.8398 34.7163C54.8398 35.0469 50.7716 35.2949 45.8084 35.2949C40.8451 35.2949 36.7769 35.0469 36.7769 34.7163C36.7769 34.3857 40.8451 34.1377 45.8084 34.1377C50.853 34.1377 54.8398 34.3857 54.8398 34.7163Z" fill="#EAEDED"/>
<path d="M54.677 34.7163C54.677 35.0469 50.6901 35.2949 45.8082 35.2949C40.9263 35.2949 36.9395 35.0469 36.9395 34.7163C36.9395 34.3857 40.9263 34.1377 45.8082 34.1377C50.7715 34.1377 54.677 34.3857 54.677 34.7163Z" fill="#E9EDEC"/>
<path d="M54.5141 34.7163C54.5141 35.0469 50.6086 35.2949 45.8081 35.2949C41.0076 35.2949 37.1021 35.0469 37.1021 34.7163C37.1021 34.3857 41.0076 34.1377 45.8081 34.1377C50.69 34.1377 54.5141 34.3857 54.5141 34.7163Z" fill="#E9ECEC"/>
<path d="M54.4328 34.7163C54.4328 35.0469 50.6087 35.2949 45.8895 35.2949C41.1703 35.2949 37.3462 35.0469 37.3462 34.7163C37.3462 34.3857 41.1703 34.1377 45.8895 34.1377C50.6087 34.1377 54.4328 34.3857 54.4328 34.7163Z" fill="#E8EBEB"/>
<path d="M54.2703 34.7163C54.2703 35.0469 50.5275 35.2949 45.8897 35.2949C41.1705 35.2949 37.4277 35.0469 37.4277 34.7163C37.4277 34.3857 41.1705 34.1377 45.8083 34.1377C50.5275 34.1377 54.2703 34.3857 54.2703 34.7163Z" fill="#E7EBEA"/>
<path d="M54.1076 34.7163C54.1076 35.0469 50.4462 35.2949 45.8897 35.2949C41.3333 35.2949 37.6719 35.0469 37.6719 34.7163C37.6719 34.3857 41.3333 34.1377 45.8897 34.1377C50.3648 34.1377 54.1076 34.3857 54.1076 34.7163Z" fill="#E6EAEA"/>
<path d="M53.9448 34.7163C53.9448 35.0469 50.2834 35.2949 45.8084 35.2949C41.3333 35.2949 37.6719 35.0469 37.6719 34.7163C37.6719 34.3857 41.3333 34.1377 45.8084 34.1377C50.2834 34.1377 53.9448 34.3857 53.9448 34.7163Z" fill="#E5E9E9"/>
<path d="M53.782 34.6335C53.782 34.9642 50.2019 35.2121 45.8082 35.2121C41.4145 35.2121 37.8345 34.9642 37.8345 34.6335C37.8345 34.3029 41.4145 34.0549 45.8082 34.0549C50.2019 34.1376 53.782 34.3856 53.782 34.6335Z" fill="#E4E8E8"/>
<path d="M53.6191 34.6336C53.6191 34.9643 50.1204 35.1296 45.8081 35.1296C41.4958 35.1296 37.9971 34.8816 37.9971 34.6336C37.9971 34.303 41.4958 34.1377 45.8081 34.1377C50.1204 34.1377 53.6191 34.3857 53.6191 34.6336Z" fill="#E3E8E7"/>
<path d="M53.4567 34.6336C53.4567 34.8816 50.0394 35.1296 45.8084 35.1296C41.5775 35.1296 38.1602 34.8816 38.1602 34.6336C38.1602 34.3857 41.5775 34.1377 45.8084 34.1377C50.0394 34.1377 53.4567 34.3857 53.4567 34.6336Z" fill="#E2E7E7"/>
<path d="M53.3754 34.6336C53.3754 34.8816 50.0395 35.1296 45.8899 35.1296C41.7403 35.1296 38.4043 34.8816 38.4043 34.6336C38.4043 34.3857 41.7403 34.1377 45.8899 34.1377C49.9581 34.1377 53.3754 34.3857 53.3754 34.6336Z" fill="#E1E6E6"/>
<path d="M53.2126 34.6336C53.2126 34.8816 49.958 35.1296 45.8897 35.1296C41.8215 35.1296 38.5669 34.8816 38.5669 34.6336C38.5669 34.3857 41.8215 34.1377 45.8897 34.1377C49.8766 34.1377 53.2126 34.3857 53.2126 34.6336Z" fill="#E0E5E5"/>
<path d="M53.0497 34.6336C53.0497 34.8816 49.7951 35.1296 45.8896 35.1296C41.9027 35.1296 38.7295 34.8816 38.7295 34.6336C38.7295 34.3857 41.9841 34.1377 45.8896 34.1377C49.7951 34.1377 53.0497 34.3857 53.0497 34.6336Z" fill="#DFE5E5"/>
<path d="M52.8868 34.6336C52.8868 34.8816 49.7136 35.1296 45.8895 35.1296C41.984 35.1296 38.8921 34.8816 38.8921 34.6336C38.8921 34.3857 42.0653 34.1377 45.8895 34.1377C49.7136 34.1377 52.8868 34.3857 52.8868 34.6336Z" fill="#DEE4E4"/>
<path d="M52.7241 34.6336C52.7241 34.8816 49.6322 35.1296 45.8081 35.1296C41.984 35.1296 38.8921 34.8816 38.8921 34.6336C38.8921 34.3857 41.984 34.1377 45.8081 34.1377C49.6322 34.1377 52.7241 34.3857 52.7241 34.6336Z" fill="#DDE3E3"/>
<path d="M52.5617 34.6336C52.5617 34.8816 49.5512 35.1296 45.8085 35.1296C42.0657 35.1296 39.0552 34.9643 39.0552 34.6336C39.0552 34.3857 42.0657 34.1377 45.8085 34.1377C49.5512 34.1377 52.5617 34.303 52.5617 34.6336Z" fill="#DCE3E3"/>
<path d="M52.3989 34.551C52.3989 34.799 49.4697 34.9643 45.8083 34.9643C42.1469 34.9643 39.2178 34.799 39.2178 34.551C39.2178 34.303 42.1469 34.1377 45.8083 34.1377C49.4697 34.1377 52.3989 34.303 52.3989 34.551Z" fill="#DBE2E2"/>
<path d="M52.236 34.551C52.236 34.799 49.3882 34.9643 45.8082 34.9643C42.2281 34.9643 39.3804 34.799 39.3804 34.551C39.3804 34.303 42.2281 34.1377 45.8082 34.1377C49.3882 34.1377 52.236 34.303 52.236 34.551Z" fill="#DAE1E1"/>
<path d="M31.5697 36.7829C31.5697 37.3615 24.8978 37.7748 16.5986 37.7748C8.38072 37.7748 1.62744 37.2789 1.62744 36.7829C1.62744 36.2043 8.29936 35.791 16.5986 35.791C24.8978 35.7084 31.5697 36.2043 31.5697 36.7829Z" fill="white"/>
<path d="M31.4072 36.7001C31.4072 37.2788 24.8166 37.692 16.6802 37.692C8.54368 37.692 1.95312 37.2788 1.95312 36.7001C1.95312 36.1215 8.54368 35.7083 16.6802 35.7083C24.7353 35.7083 31.4072 36.2042 31.4072 36.7001Z" fill="#FDFEFD"/>
<path d="M31.1628 36.7001C31.1628 37.2788 24.6536 37.692 16.5985 37.692C8.54337 37.692 2.03418 37.2788 2.03418 36.7001C2.03418 36.1215 8.54337 35.7083 16.5985 35.7083C24.6536 35.7083 31.1628 36.2042 31.1628 36.7001Z" fill="#FCFCFC"/>
<path d="M30.9999 36.7001C30.9999 37.2788 24.5721 37.692 16.5984 37.692C8.6246 37.692 2.19678 37.2788 2.19678 36.7001C2.19678 36.1215 8.6246 35.7083 16.5984 35.7083C24.5721 35.7083 30.9999 36.2042 30.9999 36.7001Z" fill="#FAFBFB"/>
<path d="M30.8372 36.7001C30.8372 37.1961 24.4908 37.692 16.6798 37.692C8.78737 37.692 2.44092 37.1961 2.44092 36.7001C2.44092 36.2042 8.78737 35.7083 16.5984 35.7083C24.4908 35.7083 30.8372 36.1215 30.8372 36.7001Z" fill="#F9FAF9"/>
<path d="M30.5935 36.7001C30.5935 37.1961 24.3284 37.692 16.5988 37.692C8.86909 37.692 2.604 37.2788 2.604 36.7001C2.604 36.2042 8.86909 35.7083 16.5988 35.7083C24.3284 35.7083 30.5935 36.1215 30.5935 36.7001Z" fill="#F8F9F8"/>
<path d="M30.4305 36.7C30.4305 37.196 24.2468 37.6093 16.6799 37.6093C9.03156 37.6093 2.9292 37.196 2.9292 36.7C2.9292 36.2041 9.11293 35.7908 16.6799 35.7908C24.2468 35.7081 30.4305 36.1214 30.4305 36.7Z" fill="#F6F8F7"/>
<path d="M30.1866 36.7C30.1866 37.196 24.0842 37.6093 16.5987 37.6093C9.1131 37.6093 3.01074 37.196 3.01074 36.7C3.01074 36.2041 9.1131 35.7908 16.5987 35.7908C24.1656 35.7081 30.1866 36.1214 30.1866 36.7Z" fill="#F5F7F6"/>
<path d="M30.0239 36.6175C30.0239 37.1134 24.0029 37.5267 16.5987 37.5267C9.19452 37.5267 3.25488 37.1134 3.25488 36.6175C3.25488 36.1215 9.27588 35.7083 16.6801 35.7083C24.0029 35.7083 30.0239 36.1215 30.0239 36.6175Z" fill="#F4F6F5"/>
<path d="M29.8612 36.6175C29.8612 37.1134 23.9216 37.5267 16.6801 37.5267C9.35729 37.5267 3.49902 37.1134 3.49902 36.6175C3.49902 36.1215 9.43866 35.7083 16.6801 35.7083C23.9216 35.7083 29.8612 36.1215 29.8612 36.6175Z" fill="#F3F5F4"/>
<path d="M29.6168 36.6175C29.6168 37.1134 23.7586 37.5267 16.5985 37.5267C9.43835 37.5267 3.58008 37.1134 3.58008 36.6175C3.58008 36.1215 9.43835 35.7083 16.5985 35.7083C23.8399 35.7083 29.6168 36.1215 29.6168 36.6175Z" fill="#F2F4F3"/>
<path d="M29.4545 36.6175C29.4545 37.1134 23.6775 37.5267 16.5988 37.5267C9.52007 37.5267 3.74316 37.1134 3.74316 36.6175C3.74316 36.1215 9.52007 35.7083 16.5988 35.7083C23.6775 35.7083 29.4545 36.1215 29.4545 36.6175Z" fill="#F1F3F3"/>
<path d="M29.2099 36.6174C29.2099 37.1134 23.5957 37.444 16.5984 37.444C9.60099 37.444 3.98682 37.0307 3.98682 36.6174C3.98682 36.1215 9.60099 35.7909 16.5984 35.7909C23.5957 35.7082 29.2099 36.1215 29.2099 36.6174Z" fill="#F0F2F2"/>
<path d="M29.0475 36.6174C29.0475 37.1134 23.5147 37.444 16.5987 37.444C9.76408 37.444 4.1499 37.0307 4.1499 36.6174C4.1499 36.1215 9.68271 35.7909 16.5987 35.7909C23.5147 35.7082 29.0475 36.1215 29.0475 36.6174Z" fill="#EFF1F1"/>
<path d="M28.8845 36.6174C28.8845 37.1134 23.4331 37.444 16.6798 37.444C9.92654 37.444 4.4751 37.0307 4.4751 36.6174C4.4751 36.1215 9.92654 35.7909 16.6798 35.7909C23.3517 35.7082 28.8845 36.1215 28.8845 36.6174Z" fill="#EEF1F0"/>
<path d="M28.6406 36.5348C28.6406 36.9481 23.2706 37.3614 16.5986 37.3614C9.92672 37.3614 4.55664 37.0308 4.55664 36.5348C4.55664 36.1215 9.92672 35.7083 16.5986 35.7083C23.2706 35.7083 28.6406 36.1215 28.6406 36.5348Z" fill="#EDF0EF"/>
<path d="M28.4778 36.5348C28.4778 36.9481 23.1891 37.3614 16.5985 37.3614C10.0893 37.3614 4.71924 37.0308 4.71924 36.5348C4.71924 36.1215 10.008 35.7083 16.5985 35.7083C23.1891 35.7083 28.4778 36.1215 28.4778 36.5348Z" fill="#ECEFEF"/>
<path d="M28.3153 36.5348C28.3153 36.9481 23.1079 37.3614 16.6801 37.3614C10.2523 37.3614 5.04492 37.0308 5.04492 36.5348C5.04492 36.1215 10.2523 35.7083 16.6801 35.7083C23.0266 35.7083 28.3153 36.1215 28.3153 36.5348Z" fill="#EBEEEE"/>
<path d="M28.0709 36.5348C28.0709 36.9481 22.9449 37.2788 16.5984 37.2788C10.252 37.2788 5.12598 36.9481 5.12598 36.5348C5.12598 36.1215 10.252 35.7909 16.5984 35.7909C22.9449 35.7083 28.0709 36.1215 28.0709 36.5348Z" fill="#EAEDED"/>
<path d="M27.9085 36.5348C27.9085 36.9481 22.8639 37.2788 16.5988 37.2788C10.3337 37.2788 5.28906 36.9481 5.28906 36.5348C5.28906 36.1215 10.3337 35.7909 16.5988 35.7909C22.8639 35.7083 27.9085 36.1215 27.9085 36.5348Z" fill="#E9EDEC"/>
<path d="M27.664 36.5349C27.664 36.9482 22.7007 37.2789 16.5983 37.2789C10.496 37.2789 5.53271 36.9482 5.53271 36.5349C5.53271 36.1216 10.496 35.791 16.5983 35.791C22.7821 35.791 27.664 36.1216 27.664 36.5349Z" fill="#E9ECEC"/>
<path d="M27.5016 36.5349C27.5016 36.9482 22.6197 37.2789 16.5987 37.2789C10.5777 37.2789 5.6958 36.9482 5.6958 36.5349C5.6958 36.1216 10.5777 35.791 16.5987 35.791C22.6197 35.791 27.5016 36.1216 27.5016 36.5349Z" fill="#E8EBEB"/>
<path d="M27.3386 36.4522C27.3386 36.8655 22.5381 37.1961 16.6798 37.1961C10.7402 37.1961 6.021 36.8655 6.021 36.4522C6.021 36.0389 10.8215 35.7083 16.6798 35.7083C22.5381 35.7909 27.3386 36.1215 27.3386 36.4522Z" fill="#E7EBEA"/>
<path d="M27.0947 36.4522C27.0947 36.8655 22.3755 37.1961 16.5986 37.1961C10.8217 37.1961 6.10254 36.8655 6.10254 36.4522C6.10254 36.0389 10.8217 35.7083 16.5986 35.7083C22.4569 35.7909 27.0947 36.0389 27.0947 36.4522Z" fill="#E6EAEA"/>
<path d="M26.9318 36.4522C26.9318 36.8655 22.294 37.1961 16.5985 37.1961C10.9029 37.1961 6.26514 36.8655 6.26514 36.4522C6.26514 36.0389 10.9029 35.7083 16.5985 35.7083C22.294 35.7909 26.9318 36.0389 26.9318 36.4522Z" fill="#E5E9E9"/>
<path d="M26.7691 36.4523C26.7691 36.8656 22.2127 37.1135 16.6799 37.1135C11.0657 37.1135 6.50928 36.8656 6.50928 36.4523C6.50928 36.039 11.0657 35.791 16.5985 35.791C22.2127 35.791 26.7691 36.039 26.7691 36.4523Z" fill="#E4E8E8"/>
<path d="M26.5249 36.4523C26.5249 36.8656 22.0498 37.1135 16.5984 37.1135C11.1469 37.1135 6.67188 36.7829 6.67188 36.4523C6.67188 36.039 11.1469 35.791 16.5984 35.791C22.1312 35.791 26.5249 36.039 26.5249 36.4523Z" fill="#E3E8E7"/>
<path d="M26.3624 36.4523C26.3624 36.7829 22.0501 37.1135 16.68 37.1135C11.3099 37.1135 6.99756 36.7829 6.99756 36.4523C6.99756 36.1216 11.3099 35.791 16.68 35.791C21.9687 35.791 26.3624 36.039 26.3624 36.4523Z" fill="#E2E7E7"/>
<path d="M26.1185 36.4523C26.1185 36.7829 21.8875 37.1135 16.5988 37.1135C11.3101 37.1135 7.0791 36.7829 7.0791 36.4523C7.0791 36.1216 11.3101 35.791 16.5988 35.791C21.8875 35.791 26.1185 36.039 26.1185 36.4523Z" fill="#E1E6E6"/>
<path d="M25.9553 36.3695C25.9553 36.7001 21.8057 37.0308 16.5983 37.0308C11.4724 37.0308 7.32275 36.7828 7.32275 36.3695C7.32275 36.0389 11.4724 35.7083 16.6797 35.7083C21.8057 35.7909 25.9553 36.0389 25.9553 36.3695Z" fill="#E0E5E5"/>
<path d="M25.7926 36.3695C25.7926 36.7001 21.7244 37.0308 16.6798 37.0308C11.6351 37.0308 7.56689 36.7828 7.56689 36.3695C7.56689 36.0389 11.6351 35.7083 16.6798 35.7083C21.643 35.7909 25.7926 36.0389 25.7926 36.3695Z" fill="#DFE5E5"/>
<path d="M25.5487 36.3696C25.5487 36.7003 21.5618 36.9482 16.5986 36.9482C11.6353 36.9482 7.64844 36.7003 7.64844 36.3696C7.64844 36.039 11.6353 35.791 16.5986 35.791C21.5618 35.791 25.5487 36.039 25.5487 36.3696Z" fill="#DEE4E4"/>
<path d="M25.3858 36.3696C25.3858 36.7003 21.4803 36.9482 16.5984 36.9482C11.7979 36.9482 7.81104 36.7003 7.81104 36.3696C7.81104 36.039 11.7165 35.791 16.5984 35.791C21.4803 35.791 25.3858 36.039 25.3858 36.3696Z" fill="#DDE3E3"/>
<path d="M25.2233 36.3696C25.2233 36.7003 21.3992 36.9482 16.68 36.9482C11.9609 36.9482 8.13672 36.7003 8.13672 36.3696C8.13672 36.039 11.9609 35.791 16.68 35.791C21.3178 35.791 25.2233 36.039 25.2233 36.3696Z" fill="#DCE3E3"/>
<path d="M24.9789 36.3696C24.9789 36.7003 21.2361 36.9482 16.5983 36.9482C11.9606 36.9482 8.21777 36.7003 8.21777 36.3696C8.21777 36.039 11.9606 35.791 16.5983 35.791C21.2361 35.791 24.9789 36.039 24.9789 36.3696Z" fill="#DBE2E2"/>
<path d="M24.8164 36.3696C24.8164 36.7003 21.155 36.9482 16.6799 36.9482C12.2049 36.9482 8.54346 36.7003 8.54346 36.3696C8.54346 36.039 12.2049 35.791 16.6799 35.791C21.155 35.791 24.8164 36.039 24.8164 36.3696Z" fill="#DAE1E1"/>
<path d="M48.9002 15.9528C50.5275 16.9447 51.0157 17.8539 50.9343 27.1116H46.0524L45.9711 15.2916C45.8897 15.2916 47.5984 15.2089 48.9002 15.9528Z" fill="#3F3F3F"/>
<path d="M43.1237 15.9528C41.4964 16.9447 41.0082 17.8539 41.0896 27.1116H45.9715L46.0528 15.2916C46.0528 15.2916 44.3442 15.2089 43.1237 15.9528Z" fill="#3F3F3F"/>
<path d="M45.8897 24.9625L43.6929 23.8879V28.8474C43.6929 28.8474 44.5065 29.8393 45.8897 29.8393C47.4357 29.8393 48.0866 28.9301 48.0866 28.9301V24.6319L45.8897 24.9625Z" fill="#FFDBA8"/>
<path d="M48.0867 25.789C48.0867 25.789 47.029 26.7809 43.7744 28.5994V25.3757L48.0867 25.789Z" fill="#F0BD6D"/>
<path d="M42.3099 20.9122C42.3099 20.9122 42.8794 25.2104 42.9608 25.3758C43.0422 25.5411 45.1577 26.7809 45.8899 26.6983V16.0354C45.0763 16.0354 41.8217 16.2007 42.3099 20.9122Z" fill="#FFDBA8"/>
<path d="M45.9715 16.0354L45.8901 26.6983C46.6224 26.7809 48.7379 25.5411 48.8193 25.3758C48.9006 25.2104 49.4702 20.9122 49.4702 20.9122C49.877 16.2007 46.7851 16.0354 45.9715 16.0354Z" fill="#FFDBA8"/>
<path d="M42.6354 23.4747C42.6354 23.4747 42.1472 23.7227 41.8217 22.5654C41.4149 21.1603 41.4149 20.6643 41.8217 20.6643C42.3913 20.6643 42.554 20.9949 42.554 20.9949L42.6354 23.4747Z" fill="#FFDBA8"/>
<path d="M46.0527 15.2915C45.9713 15.2915 45.9713 15.2915 45.9713 15.2915C45.0763 15.2915 41.5776 16.0354 42.3913 20.8296C42.3913 20.8296 44.5067 20.5816 45.9713 19.6724C47.68 18.6805 48.7377 17.1926 48.7377 17.1926C48.9004 15.7875 46.9477 15.2915 46.0527 15.2915Z" fill="#3F3F3F"/>
<path d="M46.541 34.8814H45.2392C45.2392 34.8814 42.9609 30.6659 42.9609 30.3352C42.9609 30.0046 45.8901 29.0127 45.8901 29.0127C45.8901 29.0127 48.2497 29.0127 48.5751 29.178C49.4701 29.5086 47.7615 33.5589 46.541 34.8814Z" fill="#F3F3F3"/>
<path d="M48.5748 16.7793C48.5748 16.7793 48.168 18.9284 49.4698 20.8295C50.7717 22.7307 49.8767 18.2671 49.8767 18.2671C49.8767 18.2671 48.9817 16.7793 48.5748 16.7793Z" fill="#3F3F3F"/>
<path d="M49.1445 23.392C49.1445 23.392 49.7141 23.5573 49.9582 22.4001C50.2836 21.0775 50.2023 20.7469 49.8768 20.7469C49.5514 20.6643 49.2259 20.9949 49.2259 20.9949L49.1445 23.392Z" fill="#FFDBA8"/>
<path d="M46.3779 29.0127H45.4829V34.8814H46.3779V29.0127Z" fill="#F7F8F8"/>
<path d="M48.087 27.5249C48.087 27.5249 47.7615 28.5995 45.8901 29.0127C45.8901 29.0127 46.5411 30.8312 48.3311 30.17C50.1211 29.426 49.2261 28.0209 48.087 27.5249Z" fill="#E5E5E5"/>
<path d="M43.7742 27.5249C43.7742 27.5249 44.0997 28.6821 45.971 29.0127C45.971 29.0127 45.3201 30.8312 43.5301 30.17C41.6587 29.426 42.5537 27.9382 43.7742 27.5249Z" fill="#D7D7D7"/>
<path d="M41.7403 31.658L42.2285 30.9967L42.4726 30.6661L41.5776 29.1782L41.2521 28.5996L37.8348 30.1701C37.5907 30.4181 37.1839 32.8152 36.8584 34.8816H44.1812L41.7403 31.658Z" fill="#C0BFBF"/>
<path d="M50.0396 31.658L47.5986 34.8816H54.9215C54.596 32.8152 54.1892 30.4181 53.9451 30.1701L50.5278 28.5996L49.3073 30.5834L50.0396 31.658Z" fill="#D2D2D2"/>
<path d="M42.4724 30.5833L42.2283 30.914L41.7401 31.6579L44.1811 34.8815H45.2388L44.832 33.559L43.6115 29.0955L43.2047 27.7729L41.252 28.5995L41.5774 29.1781L42.4724 30.5833Z" fill="#9E9E9E"/>
<path d="M50.0397 31.6579L49.3074 30.5833L50.5279 28.5995L48.6565 27.7729L48.2497 29.0955L47.0292 33.2284L46.541 34.8815H47.5988L50.0397 31.6579Z" fill="#C2C2C2"/>
<path d="M45.5645 30.8314C45.5645 30.9967 45.7272 31.162 45.8899 31.162V30.5008C45.7272 30.4181 45.5645 30.5834 45.5645 30.8314Z" fill="#F7F8F8"/>
<path d="M45.8901 30.418V31.0792C46.0529 31.0792 46.2156 30.9139 46.2156 30.7486C46.2156 30.5833 46.0529 30.418 45.8901 30.418Z" fill="white"/>
<path d="M45.8087 30.8313C45.7274 30.9139 45.646 30.9139 45.646 30.8313C45.7274 30.7486 45.7274 30.7486 45.8087 30.8313C45.8087 30.7486 45.8087 30.7486 45.8087 30.8313Z" fill="#C9C9C9"/>
<path d="M46.1344 30.8313C46.053 30.9139 45.9717 30.9139 45.9717 30.8313C45.9717 30.7486 45.9717 30.7486 46.1344 30.8313C46.1344 30.7486 46.053 30.7486 46.1344 30.8313Z" fill="#D4D4D4"/>
<path d="M45.5645 33.6417C45.5645 33.807 45.7272 33.9723 45.8899 33.9723V33.311C45.7272 33.311 45.5645 33.4764 45.5645 33.6417Z" fill="#F7F8F8"/>
<path d="M45.8901 33.311V33.9723C46.0529 33.9723 46.2156 33.807 46.2156 33.6417C46.2156 33.4764 46.0529 33.311 45.8901 33.311Z" fill="white"/>
<path d="M45.8087 33.6416C45.8901 33.6416 45.8087 33.7242 45.8087 33.6416C45.7274 33.7242 45.646 33.7242 45.646 33.6416C45.7274 33.5589 45.7274 33.5589 45.8087 33.6416C45.8901 33.5589 45.8087 33.5589 45.8087 33.6416Z" fill="#C9C9C9"/>
<path d="M46.1344 33.6416C46.053 33.7242 45.9717 33.7242 45.9717 33.6416C45.9717 33.5589 45.9717 33.5589 46.1344 33.6416C46.1344 33.5589 46.053 33.5589 46.1344 33.6416Z" fill="#D4D4D4"/>
<path d="M15.7035 23.8055L12.7744 22.3176V29.1782C12.7744 29.1782 13.9135 30.5834 15.7035 30.5834C17.819 30.5834 18.6327 29.2609 18.6327 29.2609V23.3095L15.7035 23.8055Z" fill="#FFDBA8"/>
<path d="M18.714 24.88C18.714 24.88 17.3308 26.2025 12.7744 28.6823V24.2188L18.714 24.88Z" fill="#F0BD6D"/>
<path d="M15.7034 28.8477V31.4101L14.9711 31.658L13.832 29.7569C13.832 29.7569 14.8898 28.9303 15.7034 28.8477Z" fill="#5A8997"/>
<path d="M12.7741 27.1118L12.2046 27.4424L13.5878 32.154L15.7846 28.8476C15.7033 28.8476 14.4828 28.5997 12.7741 27.1118Z" fill="#DFE1DE"/>
<path d="M11.0657 18.6806C11.0657 18.6806 11.798 24.2187 11.8794 24.4667C12.0421 24.7147 14.8085 26.2852 15.7035 26.2025V12.8119C15.7035 12.8119 9.92664 10.3322 11.0657 18.6806Z" fill="#FFDBA8"/>
<path d="M20.3414 18.6807C20.3414 18.6807 19.6091 24.2188 19.5278 24.4668C19.365 24.7148 16.5986 26.2853 15.7036 26.2026V12.812C15.7036 12.812 21.1551 11.6548 20.3414 18.6807Z" fill="#FFDBA8"/>
<path d="M19.5273 21.9044C19.5273 21.9044 20.341 22.235 20.8292 20.5818C21.3987 18.7633 20.9919 17.9368 20.5037 17.9368C20.341 17.9368 20.1783 18.0194 20.0969 18.0194C19.7714 18.1847 19.6901 18.598 19.6901 18.598L19.5273 21.9044Z" fill="#FFDBA8"/>
<path d="M11.8792 21.9044C11.8792 21.9044 11.0656 22.235 10.5774 20.5818C10.0079 18.7633 10.4147 17.9368 10.9029 17.9368C11.0656 17.9368 11.2283 18.0194 11.3097 18.0194C11.6352 18.1847 11.7165 18.598 11.7165 18.598L11.8792 21.9044Z" fill="#FFDBA8"/>
<path d="M10.5773 13.7212C10.1705 14.7957 10.9841 18.1021 10.9841 18.1021L11.5537 18.9286L11.3909 17.1102C11.3909 17.1102 12.53 14.6304 12.2046 13.6385L11.4723 12.564C11.4723 12.564 10.6587 13.3079 10.5773 13.7212Z" fill="#A84024"/>
<path d="M20.9109 13.7212C21.3177 14.7957 20.5041 18.1021 20.5041 18.1021L19.9345 18.9286L20.0972 17.1102C20.0972 17.1102 18.9581 14.6304 19.2836 13.6385L20.0159 12.564C19.9345 12.564 20.7481 13.3079 20.9109 13.7212Z" fill="#A84024"/>
<path d="M15.7036 10.2495C14.3204 10.2495 12.3677 10.9108 11.4727 12.5639L12.2049 13.6385C12.2049 13.6385 14.1577 14.713 15.785 14.7957C16.7614 14.8784 18.3887 14.961 19.6091 13.9691L19.9346 12.5639C19.9346 12.5639 18.9582 10.2495 15.7036 10.2495Z" fill="#A84024"/>
<path d="M15.7031 28.8477V31.4101L16.4354 31.658L17.4932 29.7569C17.5745 29.7569 16.5168 28.9303 15.7031 28.8477Z" fill="#4EBCCA"/>
<path d="M18.7137 27.0291L19.3647 27.4423L17.9814 32.0712L15.7846 28.7649C15.7032 28.8475 16.9237 28.5996 18.7137 27.0291Z" fill="#FAF8FA"/>
<path d="M10.3333 32.4846L10.9842 31.5753L11.3097 31.0794L10.1705 29.1782L9.76372 28.4343L5.28865 30.5008C4.96319 30.8314 4.39364 33.9724 3.98682 36.7001H13.5065L10.3333 32.4846Z" fill="#3C566D"/>
<path d="M21.0736 32.4846L17.9004 36.7001H27.4201C27.0133 33.9724 26.4437 30.9141 26.1182 30.5008L21.6432 28.4343L20.0972 31.0794L21.0736 32.4846Z" fill="#61778F"/>
<path d="M15.7032 36.7002V31.3274L14.9709 31.5754C14.9709 31.5754 14.4827 33.8071 14.4014 34.9643L14.8896 36.7002H15.7032Z" fill="#5A8997"/>
<path d="M16.5983 36.7002L17.0865 34.9643C17.0051 33.8071 16.517 31.5754 16.517 31.5754L15.7847 31.3274V36.7002H16.5983Z" fill="#4EBCCA"/>
<path d="M11.2281 31.162L10.9026 31.5753L10.333 32.4845L13.4249 36.7001H14.8081L14.3199 34.9643L12.6926 29.1782L12.2044 27.4424L9.68213 28.5169L10.089 29.2609L11.2281 31.162Z" fill="#5A7E90"/>
<path d="M21.0732 32.4845L20.1782 31.162L21.7241 28.5169L19.2832 27.4424L18.795 29.1782L17.2491 34.551L16.5981 36.7001H17.9813L21.0732 32.4845Z" fill="#3E5C74"/>
<path d="M40.1943 17.5234L38.8111 12.5639V9.67092C38.8111 8.92699 38.2416 8.34839 37.5093 8.34839H27.6641C26.9319 8.34839 26.3623 8.92699 26.3623 9.67092V14.2171C26.3623 14.961 26.9319 15.5396 27.6641 15.5396H37.5093L40.1943 17.5234ZM35.882 13.8865H28.6405V13.2252H35.882V13.8865ZM35.882 12.2333H28.6405V11.5721H35.882V12.2333ZM35.882 10.6628H28.6405V10.0015H35.882V10.6628Z" fill="#4EBCCA"/>
<path d="M25.5487 14.2171V11.2415H25.0605C24.3282 11.2415 23.7587 11.8201 23.7587 12.564V15.457L22.3755 20.4165L25.0605 18.4327H34.987C35.7193 18.4327 36.2889 17.8541 36.2889 17.1102V16.3663H27.6642C26.5251 16.3663 25.5487 15.3744 25.5487 14.2171Z" fill="#F4763E"/>
<path d="M35.8821 10.0842H28.6406V10.7455H35.8821V10.0842Z" fill="white"/>
<path d="M35.8821 13.2253H28.6406V13.8866H35.8821V13.2253Z" fill="white"/>
<path d="M35.8821 11.572H28.6406V12.2333H35.8821V11.572Z" fill="white"/>
</svg>
