<?xml version="1.0" encoding="utf-8"?>
<!-- Generator: Adobe Illustrator 24.0.0, SVG Export Plug-In . SVG Version: 6.00 Build 0)  -->
<svg version="1.0" id="Layer_1" xmlns="http://www.w3.org/2000/svg" xmlns:xlink="http://www.w3.org/1999/xlink" x="0px" y="0px"
	 viewBox="0 0 500 500" style="enable-background:new 0 0 500 500;" xml:space="preserve">
<style type="text/css">
	.st0{fill:#49494A;}
	.st1{fill:#FFC43D;}
	.st2{fill:none;stroke:#000000;stroke-width:20;stroke-linecap:round;stroke-linejoin:round;}
	.st3{fill:#FAAE17;}
</style>
<title></title>
<path class="st0" d="M345.4,279.5l-6.3,29.1h-38.9l-6.3-29c-8.2-2.2-16.1-5.5-23.5-9.7l-8.1,5.2c14.2,33.5-1.3,72.1-34.8,86.4
	s-72.1-1.3-86.4-34.8s1.3-72.1,34.8-86.4c17.1-7.3,36.4-7,53.3,0.7l4.9-7.6c-4.2-7.4-7.5-15.3-9.7-23.5l-29-6.3v-38.9l29-6.3
	c0.6-2.3,1.3-4.6,2.1-6.8l-0.8-3.6H178l-7.7,35.7c-10.1,2.7-19.8,6.7-28.8,11.9l-30.7-19.8L94.7,192l-1.6,1.6l-16,16.1l19.8,30.7
	c-5.2,9-9.2,18.7-11.9,28.8l-35.7,7.7v47.7l35.7,7.7c2.7,10.1,6.7,19.8,11.9,28.9L77,391.9L93.1,408l1.6,1.6l16,16l30.7-19.8
	c9,5.2,18.7,9.2,28.8,11.9l7.7,35.7h47.7l7.7-35.7c10.1-2.7,19.8-6.7,28.8-11.9l30.7,19.8l16.1-16.1l1.6-1.6l16.1-16.1l-19.8-30.7
	c5.2-9,9.2-18.7,12-28.8l35.7-7.7v-47.7l-0.7-0.1C351.1,277.8,348.3,278.7,345.4,279.5z"/>
<path class="st1" d="M415,158.5c-2.2-8.2-5.5-16.1-9.7-23.5l16.1-25l-13.1-13.1l-1.3-1.3l-13.1-13.1l-25,16.1
	c-7.4-4.2-15.3-7.5-23.5-9.7l-6.3-29h-38.9l-6.3,29c-8.2,2.2-16.1,5.5-23.5,9.7l-25-16.1l-13.1,13.1l-1.3,1.3L218,110l16.1,25
	c-4.2,7.4-7.5,15.3-9.7,23.5l-29,6.3v38.9l29,6.3c2.2,8.2,5.5,16.1,9.7,23.5l-16.1,25l13.1,13.1l1.3,1.3l13.1,13.1l25-16.1
	c7.4,4.2,15.3,7.5,23.5,9.7l6.3,29.1h38.9l6.3-29c8.2-2.2,16.1-5.5,23.5-9.7l25,16.1l13.1-13.1l1.3-1.3l13.1-13.1l-16.1-25
	c4.2-7.4,7.5-15.3,9.7-23.5l29-6.3v-38.9L415,158.5z"/>
<path class="st2" d="M415,158.5c-2.2-8.2-5.5-16.1-9.7-23.5l16.1-25l-13.1-13.1l-1.3-1.3l-13.1-13.1l-25,16.1
	c-7.4-4.2-15.3-7.5-23.5-9.7l-6.3-29h-38.9l-6.3,29c-8.2,2.2-16.1,5.5-23.5,9.7l-25-16.1l-13.1,13.1l-1.3,1.3L218,110l16.1,25
	c-4.2,7.4-7.5,15.3-9.7,23.5l-29,6.3v38.9l29,6.3c2.2,8.2,5.5,16.1,9.7,23.5l-16.1,25l13.1,13.1l1.3,1.3l13.1,13.1l25-16.1
	c7.4,4.2,15.3,7.5,23.5,9.7l6.3,29.1h38.9l6.3-29c8.2-2.2,16.1-5.5,23.5-9.7l25,16.1l13.1-13.1l1.3-1.3l13.1-13.1l-16.1-25
	c4.2-7.4,7.5-15.3,9.7-23.5l29-6.3v-38.9L415,158.5z"/>
<path class="st2" d="M345.4,279.5l-6.3,29.1h-38.9l-6.3-29c-8.2-2.2-16.1-5.5-23.5-9.7l-8.1,5.2c14.2,33.5-1.3,72.1-34.8,86.4
	s-72.1-1.3-86.4-34.8s1.3-72.1,34.8-86.4c17.1-7.3,36.4-7,53.3,0.7l4.9-7.6c-4.2-7.4-7.5-15.3-9.7-23.5l-29-6.3v-38.9l29-6.3
	c0.6-2.3,1.3-4.6,2.1-6.8l-0.8-3.6H178l-7.7,35.7c-10.1,2.7-19.8,6.7-28.8,11.9l-30.7-19.8L94.7,192l-1.6,1.6l-16,16.1l19.8,30.7
	c-5.2,9-9.2,18.7-11.9,28.8l-35.7,7.7v47.7l35.7,7.7c2.7,10.1,6.7,19.8,11.9,28.9L77,391.9L93.1,408l1.6,1.6l16,16l30.7-19.8
	c9,5.2,18.7,9.2,28.8,11.9l7.7,35.7h47.7l7.7-35.7c10.1-2.7,19.8-6.7,28.8-11.9l30.7,19.8l16.1-16.1l1.6-1.6l16.1-16.1l-19.8-30.7
	c5.2-9,9.2-18.7,12-28.8l35.7-7.7v-47.7l-0.7-0.1C351.1,277.8,348.3,278.7,345.4,279.5z"/>
<circle class="st3" cx="319.7" cy="183.1" r="69.1"/>
<polyline class="st2" points="285.5,187.1 309.2,209.8 356.9,162.1 "/>
</svg>
