<?xml version="1.0" encoding="utf-8"?>
<!-- Generator: Adobe Illustrator 16.0.0, SVG Export Plug-In . SVG Version: 6.00 Build 0)  -->
<!DOCTYPE svg PUBLIC "-//W3C//DTD SVG 1.1//EN" "http://www.w3.org/Graphics/SVG/1.1/DTD/svg11.dtd">
<svg version="1.1" id="Layer_1" xmlns="http://www.w3.org/2000/svg" xmlns:xlink="http://www.w3.org/1999/xlink" x="0px" y="0px"
	 width="150px" height="150px" viewBox="0 0 150 150" enable-background="new 0 0 150 150" xml:space="preserve">
<linearGradient id="SVGID_1_" gradientUnits="userSpaceOnUse" x1="7.3936" y1="74.3037" x2="141" y2="74.3037">
	<stop  offset="0" style="stop-color:#0E7BC1"/>
	<stop  offset="0.7688" style="stop-color:#1272A3"/>
</linearGradient>
<circle fill="url(#SVGID_1_)" cx="74.197" cy="74.304" r="66.803"/>
<path fill="#FFFFFF" d="M19.799,46.374l2.57,1.284v6.005c0,0.35,0.104,0.694,0.298,0.985l3.253,4.879v4.79
	c0,0.35,0.105,0.693,0.298,0.985l6.933,10.398l1.701,6.805c0.079,0.313,0.24,0.596,0.467,0.824l8.514,8.512l3.439,15.477
	c0.163,0.736,0.77,1.285,1.515,1.379c0.073,0.008,0.147,0.012,0.217,0.012c0.667,0,1.284-0.375,1.588-0.98l8.878-17.758
	c0.162-0.324,0.22-0.688,0.168-1.047l-1.775-12.43c-0.082-0.577-0.442-1.075-0.963-1.336l-7.103-3.551
	c-0.142-0.071-0.291-0.123-0.445-0.152l-8.212-1.643l-4.565-6.085v-2.96h2.816l3.031,3.031c0.333,0.333,0.785,0.521,1.256,0.521
	h3.551c0.98,0,1.775-0.796,1.775-1.777v-2.815l4.808-4.807c0.195-0.195,0.341-0.433,0.43-0.694l1.775-5.327
	c0.121-0.365,0.121-0.758,0-1.124l-1.775-5.327c-0.125-0.374-0.372-0.696-0.7-0.916l-4.538-3.023v-6.153
	c0-0.225-0.042-0.448-0.125-0.66l-3.552-8.878c-0.222-0.553-0.707-0.96-1.292-1.08c-0.583-0.116-1.189,0.062-1.612,0.482
	l-5.031,5.031l-4.929,1.642c-0.446,0.149-0.815,0.47-1.026,0.891l-2.822,5.645l-7.362-2.946c-0.549-0.219-1.167-0.15-1.655,0.179
	c-0.486,0.33-0.779,0.88-0.779,1.47v10.654C18.818,45.458,19.198,46.072,19.799,46.374z M22.37,36.753l6.441,2.578
	c0.86,0.339,1.835-0.03,2.249-0.854l3.221-6.444l4.628-1.543c0.262-0.087,0.499-0.235,0.694-0.43l3.424-3.423l2.425,6.059v6.762
	c0,0.592,0.296,1.146,0.79,1.477l4.82,3.214l1.398,4.187l-1.457,4.369l-5.031,5.031c-0.333,0.332-0.52,0.784-0.52,1.255v1.776
	h-1.041l-3.031-3.031c-0.332-0.334-0.784-0.52-1.255-0.52h-5.327c-0.98,0-1.776,0.794-1.776,1.775v5.328
	c0,0.382,0.125,0.758,0.355,1.065l5.327,7.103c0.261,0.35,0.643,0.589,1.072,0.674l8.646,1.73l6.059,3.029l1.566,10.96
	l-6.395,12.787l-2.466-11.098c-0.073-0.33-0.238-0.631-0.478-0.869l-8.531-8.531l-1.656-6.624c-0.051-0.198-0.134-0.386-0.246-0.554
	l-6.806-10.21V58.99c0-0.35-0.105-0.694-0.299-0.985l-3.253-4.879v-6.565c0-0.674-0.38-1.288-0.981-1.59l-2.569-1.284V36.753z"/>
<path fill="#FFFFFF" d="M50.871,31.141l1.775,5.328c0.114,0.343,0.331,0.641,0.621,0.856l7.103,5.328
	c0.311,0.233,0.685,0.355,1.065,0.355c0.137,0,0.273-0.016,0.409-0.047c0.513-0.121,0.945-0.464,1.181-0.934l7.103-14.205
	c0.123-0.244,0.186-0.517,0.186-0.793v-5.327c0-0.766-0.487-1.442-1.214-1.686l-5.327-1.775c-0.181-0.06-0.371-0.091-0.562-0.091
	h-5.326c-0.276,0-0.549,0.064-0.794,0.187l-7.103,3.551c-0.745,0.371-1.131,1.211-0.929,2.019L50.871,31.141z M58.302,21.701h4.62
	l3.839,1.28v3.628l-5.962,11.927l-4.958-3.718l-1.561-4.669l-1.43-5.721L58.302,21.701z"/>
<path fill="#FFFFFF" d="M127.928,36.093l-21.309-10.654c-0.499-0.25-1.089-0.25-1.588,0l-17.098,8.55l-4.406-1.469l-5.128-3.42
	c-0.597-0.397-1.373-0.397-1.97,0l-5.327,3.552c-0.257,0.171-0.466,0.406-0.604,0.683l-3.552,7.103
	c-0.275,0.551-0.245,1.205,0.078,1.729c0.325,0.522,0.896,0.843,1.511,0.843h3.014l2.663,1.775l-8.438,5.625
	c-0.258,0.172-0.465,0.408-0.604,0.684l-1.775,3.552c-0.25,0.501-0.25,1.089,0,1.589l1.203,2.406l-4.421,4.421
	c-0.333,0.332-0.52,0.785-0.52,1.256v5.327c0,0.275,0.064,0.549,0.186,0.793l3.552,7.103c0.233,0.463,0.655,0.803,1.157,0.928
	l5.946,1.488l1.607,11.246c0.053,0.381,0.23,0.732,0.502,1.002l3.552,3.553c0.34,0.344,0.795,0.521,1.256,0.521
	c0.267,0,0.541-0.061,0.793-0.186l7.104-3.553c0.602-0.301,0.981-0.914,0.981-1.59v-8.459l3.365-6.727
	c0.399-0.801,0.142-1.776-0.605-2.272l-4.536-3.023v-1.915l2.991,0.998c0.447,0.149,0.936,0.113,1.355-0.096l2.406-1.203
	l6.197,6.197c0.402,0.403,0.976,0.583,1.54,0.497c0.562-0.092,1.048-0.447,1.304-0.958l3.422-6.845l1.316-1.316l2.641,7.928
	c0.124,0.375,0.371,0.695,0.699,0.917l5.329,3.551c0.479,0.319,1.084,0.389,1.626,0.18c0.537-0.208,0.941-0.667,1.081-1.227
	l1.774-7.102c0.12-0.484,0.033-1-0.246-1.415l-2.565-3.85l3.851-2.566c0.393-0.261,0.665-0.668,0.757-1.129l1.774-8.878
	c0.094-0.461,0-0.941-0.262-1.333l-2.742-4.116l0.399-0.399l6.625-1.657c0.589-0.147,1.06-0.585,1.252-1.161l1.776-5.328
	C129.098,37.405,128.718,36.489,127.928,36.093z M123.981,41.522l-6.156,1.54c-0.314,0.079-0.598,0.24-0.826,0.468l-1.774,1.775
	c-0.6,0.598-0.693,1.536-0.222,2.241l3.142,4.714l-1.486,7.436l-4.713,3.144c-0.815,0.543-1.035,1.646-0.492,2.463l3.114,4.673
	l-0.973,3.896l-2.725-1.814l-3.359-10.078c-0.194-0.584-0.678-1.023-1.276-1.166c-0.602-0.144-1.229,0.037-1.664,0.472l-3.551,3.552
	c-0.135,0.135-0.247,0.292-0.335,0.461l-2.447,4.899l-5.361-5.36c-0.539-0.54-1.366-0.675-2.049-0.334l-2.893,1.447l-4.629-1.542
	c-0.546-0.179-1.138-0.09-1.602,0.245c-0.464,0.334-0.736,0.871-0.736,1.44v5.328c0,0.594,0.297,1.146,0.789,1.477l4.023,2.681
	l-2.85,5.7c-0.125,0.247-0.188,0.521-0.188,0.796v7.781l-4.978,2.486l-2.227-2.225l-1.693-11.845
	c-0.102-0.714-0.627-1.296-1.327-1.472l-6.311-1.577l-3-5.998v-4.173l4.808-4.807c0.54-0.54,0.674-1.366,0.334-2.049l-1.381-2.758
	l1.169-2.334L78.4,46.263c0.494-0.331,0.791-0.886,0.791-1.478c0-0.593-0.297-1.148-0.791-1.478l-5.327-3.552
	c-0.291-0.193-0.635-0.297-0.985-0.297H71.41l2.057-4.111l3.949-2.633l4.341,2.894c0.131,0.087,0.273,0.156,0.422,0.208l5.328,1.775
	c0.446,0.147,0.936,0.112,1.357-0.096l16.961-8.481l19.137,9.567L123.981,41.522z"/>
<path fill="#FFFFFF" d="M128.556,89.887l-5.328-7.104c-0.514-0.685-1.445-0.906-2.215-0.521l-2.892,1.447l-4.63-1.543
	c-0.637-0.213-1.341-0.045-1.814,0.43l-5.328,5.328c-0.336,0.33-0.523,0.783-0.523,1.252v3.553c0,0.35,0.106,0.695,0.3,0.984
	l3.551,5.328c0.416,0.625,1.177,0.914,1.908,0.738l6.343-1.586l4.672,3.115c0.293,0.195,0.637,0.299,0.984,0.299
	c0.179,0,0.354-0.027,0.525-0.08c0.513-0.16,0.922-0.541,1.123-1.035l3.549-8.879C129.013,91.035,128.927,90.383,128.556,89.887z
	 M122.745,97.139l-3.506-2.336c-0.292-0.195-0.636-0.299-0.985-0.299c-0.141,0-0.287,0.018-0.429,0.053l-5.89,1.473l-2.558-3.838
	v-2.279l4.031-4.031l4.287,1.43c0.445,0.146,0.934,0.111,1.354-0.096l2.226-1.113l3.84,5.119L122.745,97.139z"/>
<g>
	<linearGradient id="SVGID_2_" gradientUnits="userSpaceOnUse" x1="78.2021" y1="11.2793" x2="89.4043" y2="11.2793">
		<stop  offset="0" style="stop-color:#0E7BC1"/>
		<stop  offset="0.7688" style="stop-color:#1272A3"/>
	</linearGradient>
	<path fill="url(#SVGID_2_)" d="M83.676,3.022c0,0-6.814,1.735-5.236,6.784l4.891,9.729l4.182-5.883l1.893-5.187l-2.445-4.97
		L83.676,3.022z"/>
	<path fill="#F9F9FA" d="M83.676,2.011c-3.662,0-6.656,2.995-6.656,6.656c0,1.101,0.425,2.223,0.971,3.467
		c0.546,1.244,1.235,2.561,1.941,3.778c1.412,2.436,2.843,4.472,2.843,4.472l0.901,1.317l0.901-1.317c0,0,1.431-2.037,2.843-4.472
		c0.706-1.218,1.395-2.535,1.941-3.778c0.545-1.244,0.971-2.366,0.971-3.467C90.332,5.006,87.338,2.011,83.676,2.011z M83.676,4.23
		c2.461,0,4.438,1.976,4.438,4.437c0,0.429-0.27,1.443-0.764,2.566c-0.494,1.122-1.191,2.396-1.871,3.571
		c-0.906,1.56-1.296,2.114-1.803,2.877c-0.508-0.763-0.897-1.317-1.803-2.877c-0.681-1.174-1.378-2.449-1.872-3.571
		c-0.494-1.123-0.763-2.137-0.763-2.566C79.238,6.206,81.215,4.23,83.676,4.23z M83.676,7.003c-0.919,0-1.664,0.745-1.664,1.664
		c0,0.919,0.745,1.664,1.664,1.664c0.918,0,1.664-0.745,1.664-1.664C85.34,7.749,84.594,7.003,83.676,7.003z"/>
</g>
<g>
	<linearGradient id="SVGID_3_" gradientUnits="userSpaceOnUse" x1="54.2749" y1="19.1621" x2="65.4771" y2="19.1621">
		<stop  offset="0" style="stop-color:#0E7BC1"/>
		<stop  offset="0.7688" style="stop-color:#1272A3"/>
	</linearGradient>
	<path fill="url(#SVGID_3_)" d="M59.749,10.905c0,0-6.814,1.735-5.236,6.784l4.891,9.729l4.182-5.883l1.893-5.187l-2.445-4.97
		L59.749,10.905z"/>
	<path fill="#F9F9FA" d="M59.749,9.894c-3.662,0-6.656,2.995-6.656,6.656c0,1.101,0.425,2.223,0.971,3.467
		c0.546,1.244,1.235,2.561,1.941,3.778c1.412,2.436,2.843,4.472,2.843,4.472l0.901,1.317l0.901-1.317c0,0,1.431-2.037,2.843-4.472
		c0.706-1.218,1.395-2.535,1.941-3.778c0.545-1.244,0.971-2.366,0.971-3.467C66.405,12.889,63.411,9.894,59.749,9.894z
		 M59.749,12.113c2.461,0,4.438,1.976,4.438,4.437c0,0.429-0.27,1.443-0.764,2.566c-0.494,1.122-1.191,2.396-1.871,3.571
		c-0.906,1.56-1.296,2.114-1.803,2.877c-0.508-0.763-0.897-1.317-1.803-2.877c-0.681-1.174-1.378-2.449-1.872-3.571
		c-0.494-1.123-0.763-2.137-0.763-2.566C55.311,14.089,57.288,12.113,59.749,12.113z M59.749,14.886
		c-0.919,0-1.664,0.745-1.664,1.664c0,0.919,0.745,1.664,1.664,1.664c0.918,0,1.664-0.745,1.664-1.664
		C61.413,15.631,60.667,14.886,59.749,14.886z"/>
</g>
<g>
	<linearGradient id="SVGID_4_" gradientUnits="userSpaceOnUse" x1="97.3711" y1="29.0078" x2="108.5732" y2="29.0078">
		<stop  offset="0" style="stop-color:#0E7BC1"/>
		<stop  offset="0.7688" style="stop-color:#1272A3"/>
	</linearGradient>
	<path fill="url(#SVGID_4_)" d="M102.845,20.751c0,0-6.814,1.735-5.236,6.784l4.891,9.729l4.182-5.883l1.893-5.187l-2.445-4.97
		L102.845,20.751z"/>
	<path fill="#F9F9FA" d="M102.845,19.74c-3.662,0-6.656,2.995-6.656,6.656c0,1.101,0.425,2.223,0.971,3.467
		c0.546,1.244,1.235,2.561,1.941,3.778c1.412,2.436,2.843,4.472,2.843,4.472l0.901,1.317l0.901-1.317c0,0,1.431-2.037,2.843-4.472
		c0.706-1.218,1.395-2.535,1.941-3.778c0.545-1.244,0.971-2.366,0.971-3.467C109.501,22.734,106.507,19.74,102.845,19.74z
		 M102.845,21.958c2.461,0,4.438,1.976,4.438,4.437c0,0.429-0.27,1.443-0.764,2.566c-0.494,1.122-1.191,2.396-1.871,3.571
		c-0.906,1.56-1.296,2.114-1.803,2.877c-0.508-0.763-0.897-1.317-1.803-2.877c-0.681-1.174-1.378-2.449-1.872-3.571
		c-0.494-1.123-0.763-2.137-0.763-2.566C98.407,23.935,100.384,21.958,102.845,21.958z M102.845,24.732
		c-0.919,0-1.664,0.745-1.664,1.664c0,0.919,0.745,1.664,1.664,1.664c0.918,0,1.664-0.745,1.664-1.664
		C104.509,25.477,103.763,24.732,102.845,24.732z"/>
</g>
<g>
	<linearGradient id="SVGID_5_" gradientUnits="userSpaceOnUse" x1="21.3354" y1="61.793" x2="32.5376" y2="61.793">
		<stop  offset="0" style="stop-color:#0E7BC1"/>
		<stop  offset="0.7688" style="stop-color:#1272A3"/>
	</linearGradient>
	<path fill="url(#SVGID_5_)" d="M26.809,53.537c0,0-6.814,1.735-5.236,6.784l4.891,9.729l4.182-5.884l1.893-5.187l-2.445-4.97
		L26.809,53.537z"/>
	<path fill="#F9F9FA" d="M26.809,52.525c-3.662,0-6.656,2.995-6.656,6.656c0,1.101,0.425,2.223,0.971,3.467
		c0.546,1.244,1.235,2.561,1.941,3.778c1.412,2.436,2.843,4.472,2.843,4.472l0.901,1.318l0.901-1.318c0,0,1.431-2.036,2.843-4.472
		c0.706-1.218,1.395-2.535,1.941-3.778c0.545-1.244,0.971-2.366,0.971-3.467C33.465,55.52,30.471,52.525,26.809,52.525z
		 M26.809,54.744c2.461,0,4.438,1.976,4.438,4.437c0,0.429-0.27,1.443-0.764,2.566c-0.494,1.122-1.191,2.396-1.871,3.571
		c-0.906,1.56-1.296,2.113-1.803,2.877c-0.508-0.764-0.897-1.317-1.803-2.877c-0.681-1.175-1.378-2.449-1.872-3.571
		c-0.494-1.123-0.763-2.137-0.763-2.566C22.372,56.72,24.348,54.744,26.809,54.744z M26.809,57.518
		c-0.919,0-1.664,0.745-1.664,1.664c0,0.919,0.745,1.664,1.664,1.664c0.918,0,1.664-0.745,1.664-1.664
		C28.473,58.263,27.727,57.518,26.809,57.518z"/>
</g>
<g>
	<linearGradient id="SVGID_6_" gradientUnits="userSpaceOnUse" x1="27.5493" y1="32.584" x2="38.7515" y2="32.584">
		<stop  offset="0" style="stop-color:#0E7BC1"/>
		<stop  offset="0.7688" style="stop-color:#1272A3"/>
	</linearGradient>
	<path fill="url(#SVGID_6_)" d="M33.023,24.328c0,0-6.814,1.735-5.236,6.784l4.891,9.729l4.182-5.883l1.893-5.187l-2.445-4.97
		L33.023,24.328z"/>
	<path fill="#F9F9FA" d="M33.023,23.316c-3.662,0-6.656,2.995-6.656,6.656c0,1.101,0.425,2.223,0.971,3.467
		c0.546,1.244,1.235,2.561,1.941,3.778c1.412,2.436,2.843,4.472,2.843,4.472l0.901,1.317l0.901-1.317c0,0,1.431-2.037,2.843-4.472
		c0.706-1.218,1.395-2.535,1.941-3.778c0.545-1.244,0.971-2.366,0.971-3.467C39.679,26.311,36.685,23.316,33.023,23.316z
		 M33.023,25.535c2.461,0,4.438,1.976,4.438,4.437c0,0.429-0.27,1.443-0.764,2.566c-0.494,1.122-1.191,2.396-1.871,3.571
		c-0.906,1.56-1.296,2.114-1.803,2.877c-0.508-0.763-0.897-1.317-1.803-2.877c-0.681-1.174-1.378-2.449-1.872-3.571
		c-0.494-1.123-0.763-2.137-0.763-2.566C28.585,27.511,30.562,25.535,33.023,25.535z M33.023,28.309
		c-0.919,0-1.664,0.745-1.664,1.664c0,0.919,0.745,1.664,1.664,1.664c0.918,0,1.664-0.745,1.664-1.664
		C34.687,29.054,33.941,28.309,33.023,28.309z"/>
</g>
<g>
	<linearGradient id="SVGID_7_" gradientUnits="userSpaceOnUse" x1="58.1821" y1="99.4131" x2="69.3843" y2="99.4131">
		<stop  offset="0" style="stop-color:#0E7BC1"/>
		<stop  offset="0.7688" style="stop-color:#1272A3"/>
	</linearGradient>
	<path fill="url(#SVGID_7_)" d="M63.656,91.156c0,0-6.814,1.734-5.236,6.783l4.891,9.73l4.182-5.884l1.893-5.187l-2.445-4.971
		L63.656,91.156z"/>
	<path fill="#F9F9FA" d="M63.656,90.145c-3.662,0-6.656,2.995-6.656,6.656c0,1.102,0.425,2.223,0.971,3.467s1.235,2.561,1.941,3.779
		c1.412,2.436,2.843,4.472,2.843,4.472l0.901,1.317l0.901-1.317c0,0,1.431-2.036,2.843-4.472c0.706-1.219,1.395-2.535,1.941-3.779
		c0.545-1.244,0.971-2.365,0.971-3.467C70.312,93.14,67.318,90.145,63.656,90.145z M63.656,92.363c2.461,0,4.438,1.977,4.438,4.438
		c0,0.43-0.27,1.443-0.764,2.566c-0.494,1.121-1.191,2.396-1.871,3.57c-0.906,1.561-1.296,2.114-1.803,2.877
		c-0.508-0.763-0.897-1.316-1.803-2.877c-0.681-1.174-1.378-2.449-1.872-3.57c-0.494-1.123-0.763-2.137-0.763-2.566
		C59.218,94.34,61.195,92.363,63.656,92.363z M63.656,95.137c-0.919,0-1.664,0.746-1.664,1.664c0,0.919,0.745,1.664,1.664,1.664
		c0.918,0,1.664-0.745,1.664-1.664C65.32,95.883,64.574,95.137,63.656,95.137z"/>
</g>
<g>
	<linearGradient id="SVGID_8_" gradientUnits="userSpaceOnUse" x1="88.8105" y1="54.8613" x2="100.0127" y2="54.8613">
		<stop  offset="0" style="stop-color:#0E7BC1"/>
		<stop  offset="0.7688" style="stop-color:#1272A3"/>
	</linearGradient>
	<path fill="url(#SVGID_8_)" d="M94.284,46.604c0,0-6.814,1.735-5.236,6.784l4.891,9.729l4.182-5.883l1.893-5.187l-2.445-4.97
		L94.284,46.604z"/>
	<path fill="#F9F9FA" d="M94.284,45.593c-3.662,0-6.656,2.995-6.656,6.656c0,1.101,0.425,2.223,0.971,3.467
		c0.546,1.244,1.235,2.561,1.941,3.778c1.412,2.436,2.843,4.472,2.843,4.472l0.901,1.317l0.901-1.317c0,0,1.431-2.037,2.843-4.472
		c0.706-1.218,1.395-2.535,1.941-3.778c0.545-1.244,0.971-2.366,0.971-3.467C100.94,48.588,97.946,45.593,94.284,45.593z
		 M94.284,47.812c2.461,0,4.438,1.976,4.438,4.437c0,0.429-0.27,1.443-0.764,2.566c-0.494,1.122-1.191,2.396-1.871,3.571
		c-0.906,1.56-1.296,2.114-1.803,2.877c-0.508-0.763-0.897-1.317-1.803-2.877c-0.681-1.174-1.378-2.449-1.872-3.571
		c-0.494-1.123-0.763-2.137-0.763-2.566C89.847,49.788,91.823,47.812,94.284,47.812z M94.284,50.585
		c-0.919,0-1.664,0.745-1.664,1.664c0,0.919,0.745,1.664,1.664,1.664c0.918,0,1.664-0.745,1.664-1.664
		C95.948,51.331,95.202,50.585,94.284,50.585z"/>
</g>
</svg>
