<svg width="46" height="37" viewBox="0 0 46 37" fill="none" xmlns="http://www.w3.org/2000/svg">
<g clip-path="url(#clip0_153_1158)">
<path d="M41.4721 9.53479V24.7066C41.4721 26.5056 39.9629 28.0048 38.1519 28.0048H16.1781C14.3671 28.0048 12.8579 26.5056 12.8579 24.7066V9.53479C12.8579 7.73576 14.3671 6.23657 16.1781 6.23657H38.1519C39.9629 6.29654 41.4721 7.73576 41.4721 9.53479Z" fill="#1790BE"/>
<path d="M38.1519 6.29639H27.165V28.0646H38.1519C39.9629 28.0646 41.4721 26.5654 41.4721 24.7664V9.53464C41.4721 7.73561 39.9629 6.29639 38.1519 6.29639Z" fill="#00619B"/>
<path d="M24.2673 3.47803H23.8447V6.65631H24.2673V3.47803Z" fill="#1790BE"/>
<path d="M30.3044 3.47803H29.8818V6.65631H30.3044V3.47803Z" fill="#00619B"/>
<path d="M41.4721 9.53464V11.3936C38.6348 14.6319 34.1073 17.7502 27.165 17.7502C19.9209 17.7502 15.5141 14.392 12.8579 11.0338V9.5946C12.8579 7.79558 14.3671 6.29639 16.1781 6.29639H38.1519C39.9629 6.29639 41.4721 7.73561 41.4721 9.53464Z" fill="#18488F"/>
<path d="M38.1522 6.29639H27.105V17.7502C27.105 17.7502 27.105 17.7502 27.1653 17.7502C34.1076 17.7502 38.6352 14.6319 41.4724 11.3936V9.53464C41.4724 7.73561 39.9632 6.29639 38.1522 6.29639Z" fill="#032641"/>
<path d="M18.2307 16.7908H5.67432V33.7016H15.9368L18.2307 31.3629V16.7908Z" fill="#FCC012"/>
<path d="M20.5852 19.1294H8.02881V36.0403H18.2309L20.5852 33.7015V19.1294Z" fill="#FBE5AC"/>
<path d="M18.231 36.0404L20.5853 33.7017H18.231V36.0404Z" fill="#FCC012"/>
<path d="M19.2568 25.5461H9.5376V25.846H19.2568V25.5461Z" fill="#F99D1F"/>
<path d="M19.2568 26.3855H9.5376V26.6853H19.2568V26.3855Z" fill="#F99D1F"/>
<path d="M19.2568 27.2251H9.5376V27.5249H19.2568V27.2251Z" fill="#F99D1F"/>
<path d="M19.2568 28.1248H9.5376V28.4246H19.2568V28.1248Z" fill="#F99D1F"/>
<path d="M19.2568 21.2883H9.5376V21.5882H19.2568V21.2883Z" fill="#F99D1F"/>
<path d="M19.2568 22.1279H9.5376V22.4278H19.2568V22.1279Z" fill="#F99D1F"/>
<path d="M19.2568 23.0273H9.5376V23.3272H19.2568V23.0273Z" fill="#F99D1F"/>
<path d="M19.2568 23.8669H9.5376V24.1668H19.2568V23.8669Z" fill="#F99D1F"/>
<path d="M19.2568 29.4438H9.5376V29.7437H19.2568V29.4438Z" fill="#F99D1F"/>
<path d="M19.2568 30.3435H9.5376V30.6433H19.2568V30.3435Z" fill="#F99D1F"/>
<path d="M19.2568 31.1831H9.5376V31.4829H19.2568V31.1831Z" fill="#F99D1F"/>
<path d="M19.2568 32.0225H9.5376V32.3223H19.2568V32.0225Z" fill="#F99D1F"/>
<path d="M28.3724 15.7715H25.9577C25.354 15.7715 24.8711 16.2512 24.8711 16.8509V18.7099C24.8711 19.3096 25.354 19.7893 25.9577 19.7893H28.3724C28.9761 19.7893 29.459 19.3096 29.459 18.7099V16.8509C29.459 16.2512 28.9761 15.7715 28.3724 15.7715ZM28.6742 18.6499C28.6742 18.8298 28.5535 18.9498 28.3724 18.9498H25.9577C25.7766 18.9498 25.6559 18.8298 25.6559 18.6499V16.7909C25.6559 16.611 25.7766 16.4911 25.9577 16.4911H28.3724C28.5535 16.4911 28.6742 16.611 28.6742 16.7909V18.6499Z" fill="#FCC012"/>
<path d="M28.3727 15.7715H27.105V16.5511H28.3727C28.5538 16.5511 28.6745 16.671 28.6745 16.8509V18.7099C28.6745 18.8898 28.5538 19.0097 28.3727 19.0097H27.105V19.7893H28.3727C28.9764 19.7893 29.4593 19.3096 29.4593 18.7099V16.8509C29.4593 16.2512 28.9764 15.7715 28.3727 15.7715Z" fill="#F99D1F"/>
<path d="M30.5458 4.55745H23.7242C23.3017 4.55745 22.9395 4.19764 22.9395 3.77787C22.9395 3.3581 23.3017 2.99829 23.7242 2.99829H30.4854C30.908 2.99829 31.2702 3.3581 31.2702 3.77787C31.3305 4.19764 30.9683 4.55745 30.5458 4.55745Z" fill="#FCC012"/>
<path d="M30.5456 2.99829H27.165V4.55745H30.5456C30.9682 4.55745 31.3304 4.19764 31.3304 3.77787C31.3304 3.3581 30.9682 2.99829 30.5456 2.99829Z" fill="#F99D1F"/>
<path d="M31.4492 38.5813V34.7629H27.8652V33.2102H31.4492V29.3821H33.0801V33.2102H36.6738V34.7629H33.0801V38.5813H31.4492Z" fill="#EE4949"/>
</g>
<defs>
<clipPath id="clip0_153_1158">
<rect width="46" height="37" fill="white"/>
</clipPath>
</defs>
</svg>
