<svg width="65" height="53" viewBox="0 0 65 53" fill="none" xmlns="http://www.w3.org/2000/svg">
<path fill-rule="evenodd" clip-rule="evenodd" d="M35.4861 36.9368H33.0977V39.5138H37.9599V38.483L35.4861 36.9368Z" fill="#65290F"/>
<path fill-rule="evenodd" clip-rule="evenodd" d="M33.9505 26.8866L35.7418 37.1945L32.6709 37.8817L31.0502 29.7213L30.709 26.6289L33.9505 26.8866Z" fill="#014C78"/>
<path fill-rule="evenodd" clip-rule="evenodd" d="M27.2969 27.2303L27.9793 22.334L29.5147 23.3648L33.9504 26.8867L33.0121 29.979L28.3205 27.7457L27.2969 27.2303Z" fill="#014C78"/>
<path fill-rule="evenodd" clip-rule="evenodd" d="M28.2351 41.4038L25.8467 41.3179V43.8949H30.7089V42.8641L28.2351 41.4038Z" fill="#83321A"/>
<path fill-rule="evenodd" clip-rule="evenodd" d="M29.3441 25.1687L29.0029 31.3535L28.6617 41.6614L25.5055 42.3486V34.1881L25.7614 31.0958L25.1643 26.1136C24.5672 23.8802 24.7378 22.9353 25.2496 21.3891L25.4202 20.1865L29.9412 20.2724L29.6853 24.052L29.3441 25.1687Z" fill="#005684"/>
<path fill-rule="evenodd" clip-rule="evenodd" d="M26.6143 6.52831C26.6996 7.55911 26.6143 8.16041 26.3584 8.7617C25.676 10.3079 25.2495 10.9951 25.0788 11.7682C24.9935 12.1118 25.5054 13.7439 25.676 15.0324L30.3676 15.376L30.0264 11.7682C29.7705 11.4246 28.8321 10.0502 28.8321 9.9643C28.7468 9.6207 28.9174 9.7066 29.0027 9.1053C29.0027 8.7617 28.9174 8.6758 29.088 8.504C29.2586 8.2463 29.8558 8.3322 30.197 8.3322L27.5526 5.41162L26.6143 6.52831Z" fill="#FFDBA7"/>
<path fill-rule="evenodd" clip-rule="evenodd" d="M26.3585 8.76172C25.6761 10.3079 25.1642 10.9092 24.9936 11.7682C24.9083 12.1118 25.5055 13.8298 25.6761 15.0324L30.7089 15.376L31.2207 13.0567C30.8795 12.1977 28.9175 9.96431 28.9175 9.96431L26.3585 8.76172Z" fill="#189FAC"/>
<path fill-rule="evenodd" clip-rule="evenodd" d="M28.9176 9.5348C28.9176 9.4489 29.0029 9.2771 29.0029 9.1053C29.0029 8.7617 28.9176 8.6758 29.0882 8.504C29.2588 8.2463 29.8559 8.3322 30.1971 8.3322L27.5528 5.41162L27.2969 5.66932C27.4675 7.04371 28.1499 8.5899 28.9176 9.5348Z" fill="#F0C17D"/>
<path fill-rule="evenodd" clip-rule="evenodd" d="M30.6235 6.70029C30.6235 6.87209 30.6235 6.87209 30.7088 6.95799C30.7088 7.04389 30.7088 7.12978 30.5382 7.21568C30.7088 7.30158 30.7941 7.47338 30.7088 7.55928C30.6235 7.55928 30.6235 7.64518 30.5382 7.64518C30.5382 7.81698 30.7942 8.07468 30.6235 8.24648C30.3676 8.50418 29.1734 7.98878 28.5763 7.73108C28.0645 7.55928 28.2351 7.21568 28.2351 6.70029C27.9792 6.78619 27.7233 6.70029 27.7233 6.27079C27.2968 5.75539 27.2115 5.41179 26.9556 4.8105L27.7233 2.49121C27.8086 2.49121 29.5146 2.57711 29.5146 2.57711C29.7705 2.92071 30.1117 3.17841 30.3676 3.6079C30.7088 4.1233 30.6235 4.6387 30.7088 4.8964C30.7941 5.1541 30.7941 5.24 30.7088 5.32589C30.7088 5.41179 30.7088 5.49769 30.7088 5.49769C30.7088 5.92719 31.1354 6.27079 31.1354 6.44259C31.1354 6.52849 30.9648 6.70029 30.6235 6.70029Z" fill="#FFDBA7"/>
<path fill-rule="evenodd" clip-rule="evenodd" d="M30.6238 4.29502C30.2826 4.03733 29.3443 3.35013 28.9178 3.95143C28.8325 4.12323 29.0884 4.12323 29.0884 4.46682C29.0884 4.72452 28.9178 4.81042 28.9178 5.06812C28.8325 5.32582 29.0031 5.49762 28.8325 5.92712L28.5766 5.84122C28.406 5.58352 27.8941 5.06812 27.5529 5.15402C27.297 5.23992 27.3823 5.75532 27.6382 6.09891C27.7235 6.27071 27.7235 6.44251 27.7235 6.61431C27.6382 6.87201 27.3823 6.78611 27.1264 7.04381C26.9558 7.30151 26.7852 7.64511 26.6999 7.73101C26.444 7.12971 26.444 6.87201 26.1028 6.44251C25.6763 5.75532 25.5057 4.12323 26.1881 3.60783C26.6999 2.66293 27.3823 2.31934 28.2354 2.31934C29.4296 2.31934 30.7091 2.92063 30.6238 4.29502Z" fill="#9B3E21"/>
<path fill-rule="evenodd" clip-rule="evenodd" d="M26.6145 7.98877C26.4439 8.41827 26.4439 8.67597 26.188 9.10546C27.1263 9.36316 28.6617 10.3081 29.2589 10.394C29.0882 10.1363 29.0029 9.96446 29.0029 9.62086C28.1499 9.10546 27.3822 8.50417 26.6145 7.98877Z" fill="#19B0BF"/>
<path fill-rule="evenodd" clip-rule="evenodd" d="M26.1879 9.10547C25.5908 10.3081 24.8231 10.6517 24.8231 12.1979C24.7378 13.5722 25.1643 15.3761 25.3349 16.4928C25.6761 19.0698 25.4202 20.7019 24.7378 23.193L29.8559 23.5366C30.0265 22.334 31.3913 13.4863 31.306 13.2286C30.0265 11.1671 28.2352 10.7376 26.1879 9.10547Z" fill="#005684"/>
<path fill-rule="evenodd" clip-rule="evenodd" d="M26.1877 9.10547C26.0171 9.36317 25.9318 9.53497 25.7612 9.79266C26.1877 10.3081 27.382 10.7376 28.0644 11.253L28.4056 10.8235L28.5762 11.6825C29.2586 12.0261 30.6234 12.6273 31.3912 13.5722C31.3912 13.4863 31.3912 13.4004 31.3059 13.3145C30.0263 11.0812 27.9791 9.87856 26.1877 9.10547Z" fill="#066599"/>
<path fill-rule="evenodd" clip-rule="evenodd" d="M21.4961 49.1346L23.6286 44.2383L23.7992 43.8088H24.3111H32.8412L32.2441 45.2691H30.6234H24.8229L23.1168 49.1346H21.4961Z" fill="#FDB816"/>
<path fill-rule="evenodd" clip-rule="evenodd" d="M30.709 45.2689L33.0121 39.9432L33.1827 39.5137H33.6092H40.7746L40.2628 40.974H34.1211L32.2444 45.2689H30.709Z" fill="#FDB816"/>
<path fill-rule="evenodd" clip-rule="evenodd" d="M16.2075 47.6743H23.7994L23.117 49.1346H16.2075V47.6743Z" fill="#FDB816"/>
<path fill-rule="evenodd" clip-rule="evenodd" d="M38.8125 40.3728L43.4188 30.9238L44.613 32.0405L40.1773 40.9741L38.8125 40.3728Z" fill="#FDB816"/>
<path fill-rule="evenodd" clip-rule="evenodd" d="M41.457 31.6111L45.2956 28.4329L45.3809 33.5009L41.457 31.6111Z" fill="#FDB816"/>
<path fill-rule="evenodd" clip-rule="evenodd" d="M25.676 12.8849C26.1878 14.4311 27.1261 17.0081 27.4673 17.953L29.9411 18.1248C29.8558 17.8671 29.0881 15.0324 28.9175 14.4311C28.6616 12.4554 27.8085 10.9092 26.4437 10.9951C25.7613 11.081 25.2495 11.5964 25.676 12.8849Z" fill="#066599"/>
<path fill-rule="evenodd" clip-rule="evenodd" d="M31.9886 21.2172L39.2392 19.671C39.4098 19.5851 39.6657 19.7569 39.6657 19.9287L40.7746 25.1686C40.8599 25.3404 40.6893 25.5981 40.5187 25.5981L33.2681 27.2302C33.0975 27.3161 32.8416 27.1443 32.8416 26.9725L31.7327 21.7326C31.6473 21.4749 31.818 21.2172 31.9886 21.2172Z" fill="#83321A"/>
<path fill-rule="evenodd" clip-rule="evenodd" d="M35.5713 20.4441L39.154 19.671C39.3246 19.5851 39.5805 19.7569 39.5805 19.9287L40.6894 25.1686C40.7747 25.3404 40.6041 25.5981 40.4335 25.5981L36.8508 26.3712L35.5713 20.4441Z" fill="#65290F"/>
<path fill-rule="evenodd" clip-rule="evenodd" d="M34.5474 19.5851L36.2535 19.2415C36.9359 19.0698 37.7036 19.5851 37.7889 20.2723L37.8742 20.8736C38.0448 21.5608 37.533 22.3339 36.8506 22.4198L35.1445 22.7634C34.4621 22.9352 33.6944 22.4198 33.6091 21.7326L33.4385 21.1313C33.3532 20.4441 33.865 19.671 34.5474 19.5851ZM34.718 20.0146C34.2062 20.1005 34.0356 20.6159 34.1209 21.0454L34.2062 21.6467C34.2062 22.1621 34.8033 22.4198 35.3151 22.3339L36.8506 21.9903C37.3624 21.9044 37.7036 21.389 37.533 20.8736L37.3624 20.3582C37.1918 19.8428 36.8506 19.4992 36.3388 19.671L34.718 20.0146Z" fill="#83321A"/>
<path fill-rule="evenodd" clip-rule="evenodd" d="M35.4004 19.4133L36.2534 19.2415C36.9358 19.0698 37.7035 19.5851 37.7888 20.2723L37.8741 20.8736C38.0447 21.5608 37.5329 22.3339 36.8505 22.4198L35.9975 22.5916L35.9122 22.1621L36.6799 21.9903C37.1917 21.9044 37.5329 21.389 37.3623 20.8736L37.1917 20.3582C37.0211 19.8428 36.6799 19.4992 36.1681 19.671L35.4004 19.8428V19.4133Z" fill="#65290F"/>
<path fill-rule="evenodd" clip-rule="evenodd" d="M31.9886 21.2172L39.2392 19.671C39.4098 19.5851 39.6657 19.7569 39.6657 19.9287L39.9216 20.9595L36.6802 24.0519C36.5096 24.2237 36.339 24.2237 36.1683 24.1378L31.9033 22.5916L31.7327 21.6467C31.6473 21.4749 31.818 21.2172 31.9886 21.2172Z" fill="#9B3E21"/>
<path fill-rule="evenodd" clip-rule="evenodd" d="M35.5713 20.4441L39.154 19.671C39.3246 19.5851 39.5805 19.7569 39.5805 19.9287L39.8364 20.9595L36.6802 24.0519C36.5949 24.1378 36.5096 24.1378 36.4243 24.2237L35.5713 20.4441Z" fill="#83321A"/>
<path fill-rule="evenodd" clip-rule="evenodd" d="M36.7653 24.052V24.1379C36.8506 24.4815 36.68 24.8251 36.5094 24.911C36.2535 24.9969 35.9976 24.7392 35.9976 24.3097V24.2238L36.7653 24.052Z" fill="#F5A82C"/>
<path fill-rule="evenodd" clip-rule="evenodd" d="M36.7654 24.052V24.1379C36.8507 24.4815 36.6801 24.8251 36.5095 24.911L36.3389 24.1379L36.7654 24.052Z" fill="#F69B1D"/>
<path fill-rule="evenodd" clip-rule="evenodd" d="M35.9126 23.966L36.7656 23.7942L36.8509 24.1378L35.9979 24.3096L35.9126 23.966C35.8273 23.966 35.8273 23.966 35.9126 23.966Z" fill="#FAB647"/>
<path fill-rule="evenodd" clip-rule="evenodd" d="M36.3389 23.7942L36.7654 23.7083L36.8507 24.0518L36.4242 24.1377L36.3389 23.7942Z" fill="#F5A82C"/>
<path fill-rule="evenodd" clip-rule="evenodd" d="M34.4623 18.2967L35.7418 18.6403C35.9977 18.7262 36.1683 19.3275 36.3389 19.6711C36.2536 19.8429 34.6329 20.616 34.4623 20.5301L33.6946 20.0147C33.524 19.9288 33.6093 19.757 33.6093 19.6711L33.2681 18.6403L33.7799 18.2967C34.0358 18.2108 34.2917 18.2967 34.4623 18.2967Z" fill="#F0C17D"/>
<path fill-rule="evenodd" clip-rule="evenodd" d="M35.9126 20.1005L35.4861 19.3274C35.4008 19.1556 35.4861 18.812 35.742 18.7261C35.9126 18.6402 36.1685 19.2415 36.2538 19.4133L36.5097 19.8428C36.7656 20.1864 36.2538 20.6159 35.9126 20.1005Z" fill="#F0C17D"/>
<path fill-rule="evenodd" clip-rule="evenodd" d="M35.4004 20.2725L34.9739 19.5853C34.8886 19.4135 34.9739 19.1558 35.2298 19.0699C35.4004 18.984 35.571 19.4994 35.7416 19.6712L35.9122 20.0148C36.0828 20.3584 35.6563 20.7879 35.4004 20.2725Z" fill="#F0C17D"/>
<path fill-rule="evenodd" clip-rule="evenodd" d="M34.8888 20.4442L34.5476 19.8429C34.4623 19.6711 34.5476 19.4993 34.7182 19.4134C34.8888 19.3275 35.0594 19.8429 35.1447 19.9288L35.3153 20.2724C35.4859 20.5301 35.1447 20.7878 34.8888 20.4442Z" fill="#F0C17D"/>
<path fill-rule="evenodd" clip-rule="evenodd" d="M34.5475 20.5302L34.2063 20.0148C34.121 19.9289 34.2063 19.7571 34.3769 19.6712C34.5475 19.5853 34.7181 20.0148 34.7181 20.1007L34.8887 20.3584C35.0593 20.702 34.7181 20.8738 34.5475 20.5302Z" fill="#F0C17D"/>
<path fill-rule="evenodd" clip-rule="evenodd" d="M34.5472 18.0388L27.4671 16.4067C27.1259 17.4375 27.3818 18.726 28.7466 18.9837L33.3529 19.9286L34.5472 18.0388Z" fill="#066599"/>
</svg>
