<svg xmlns="http://www.w3.org/2000/svg" width="82.998" height="74.352" viewBox="0 0 82.998 74.352">
  <g id="ecommerce" opacity="0.7">
    <path id="Path_6187" data-name="Path 6187" d="M18.251,11.157H80.209a2.793,2.793,0,0,1,2.725,3.386l-6.7,38a2.789,2.789,0,0,1-2.973,2.3l-50.642-.087a2.82,2.82,0,0,1-2.746-2.3L11.609,5.578H2.789A2.789,2.789,0,1,1,2.789,0H13.946a2.792,2.792,0,0,1,2.746,2.309l1.559,8.847ZM31.825,60.345A6.983,6.983,0,1,1,26.9,62.391a6.951,6.951,0,0,1,4.928-2.047Zm32.458.064a6.983,6.983,0,1,1-4.928,2.044,6.949,6.949,0,0,1,4.928-2.044Zm12.6-43.673H19.234L24.958,49.2l46.192.079,5.737-32.542Z" transform="translate(0 0)" fill="#fff"/>
  </g>
</svg>
