<svg xmlns="http://www.w3.org/2000/svg" xmlns:xlink="http://www.w3.org/1999/xlink" width="719.349" height="356.922" viewBox="0 0 719.349 356.922">
  <defs>
    <linearGradient id="linear-gradient" y1="0.5" x2="1" y2="0.5" gradientUnits="objectBoundingBox">
      <stop offset="0" stop-color="#5791c9"/>
      <stop offset="1" stop-color="#002d54"/>
    </linearGradient>
    <linearGradient id="linear-gradient-9" y1="0.5" x2="1" y2="0.5" gradientUnits="objectBoundingBox">
      <stop offset="0" stop-color="#a8dadc"/>
      <stop offset="1" stop-color="#457b9d"/>
    </linearGradient>
    <linearGradient id="linear-gradient-10" x1="0.075" y1="0.012" x2="1.026" y2="1.121" xlink:href="#linear-gradient-9"/>
    <linearGradient id="linear-gradient-11" x1="-0.834" y1="-0.275" x2="5.216" y2="3.238" xlink:href="#linear-gradient"/>
    <linearGradient id="linear-gradient-12" x1="-1.853" y1="-1.299" x2="9.155" y2="6.322" xlink:href="#linear-gradient"/>
    <linearGradient id="linear-gradient-13" x1="-1.845" y1="-0.862" x2="4.205" y2="2.651" xlink:href="#linear-gradient"/>
    <linearGradient id="linear-gradient-14" x1="-10.88" y1="-3.251" x2="19.238" y2="6.676" xlink:href="#linear-gradient"/>
    <linearGradient id="linear-gradient-15" x1="-16.982" y1="-10.826" x2="26.005" y2="17.024" xlink:href="#linear-gradient"/>
    <linearGradient id="linear-gradient-16" y1="0.5" x2="1" y2="0.5" gradientUnits="objectBoundingBox">
      <stop offset="0" stop-color="#ec5154"/>
      <stop offset="0.099" stop-color="#eb4b4f"/>
      <stop offset="1" stop-color="#e31922"/>
    </linearGradient>
    <linearGradient id="linear-gradient-19" x1="6.862" y1="0.136" x2="-10.993" y2="1.157" xlink:href="#linear-gradient"/>
    <linearGradient id="linear-gradient-20" x1="1.119" y1="-14.982" x2="0.469" y2="1.269" xlink:href="#linear-gradient"/>
    <linearGradient id="linear-gradient-22" x1="0.889" y1="0.036" x2="0.363" y2="1.07" gradientUnits="objectBoundingBox">
      <stop offset="0" stop-color="#cdd2f9"/>
      <stop offset="1" stop-color="#8d96ce"/>
    </linearGradient>
    <linearGradient id="linear-gradient-23" x1="0.435" y1="0.275" x2="0.543" y2="0.982" xlink:href="#linear-gradient-22"/>
    <linearGradient id="linear-gradient-31" x1="0.886" y1="0" x2="-0.098" y2="1" xlink:href="#linear-gradient-9"/>
  </defs>
  <g id="Group_14227" data-name="Group 14227" transform="translate(-262.749 -422.18)">
    <path id="Path_14963" data-name="Path 14963" d="M798.317,1257.328s29.85,6.26,28.343,11.742S793.9,1259.7,793.9,1259.7s-23.042,20.608-26.248,31.112c0,0,33.653-4.76,30.842.182s-37.6,11.523-37.6,11.523-15.819,24.364-1.936,35.077,24.535,7.111,27.132,3.607,12.664-28.724,15.651-26.723,1.182,21.1-5.664,29.334c0,0,30.055.238,34.421-13.985s-2.35-21.967.507-30.707,7.7-13.985,8.228-8.805-6.946,18.879-3.964,28.13,4.271,16.274,12.141,4.648,15.689-35.1,7.8-43.715l-.986-1.077a5.581,5.581,0,0,1,.986,1.077c2.339-1.777,10.315-2.591,16.328-2.957.995,0,2.4-.057,4.339-.212h0c.86-.031,1.562-.051,2.051-.063,13.061.164,31.429,10.553,31.429,10.553l1.853-2.412c-17.01-14.095-37.4-10.182-37.4-10.182-15.54,1.578-26.481-3.337-26.481-3.337s-3.56-30.1-26.853-26.393C820.479,1244.372,805.3,1248.77,798.317,1257.328Z" transform="translate(-337.075 -575.385)" fill="#cdd2f9" opacity="0.5"/>
    <path id="Path_14964" data-name="Path 14964" d="M1699.947,425.546c-6.931-25.593-50.12-17.6-50.12-17.6s-29.325,44.788-37.856,45.854,17.595-43.188,17.595-43.188c-16.529-1.6-58.651,18.662-58.651,18.662s2.666,52.253-5.865,51.186,0-46.388,0-46.388c-16,4.8-30.925,23.46-30.925,23.46-18.661,30.392,21.328,52.786,21.328,52.786s.533,18.128-10.664,38.923h0a61.682,61.682,0,0,0-5.1,10.365h4.361q.535-1.755,1.183-3.385a.027.027,0,0,1,.009-.02l.019-.047c.3-.674.728-1.633,1.263-2.8l0,0s0,0,0-.005c1.332-2.608,2.233-4.535,2.8-5.926a.093.093,0,0,0,0-.013c3.992-8.187,9.743-18.854,13.579-21.092a8.457,8.457,0,0,1-.933-2l.933,2c7.465,16,44.788,18.662,65.583,14.4s11.73-10.131.533-19.65-34.657-7.01-41.589-10.742,3.2-7.465,17.062-6.4,20.794,14.929,43.188,17.062S1687.15,481,1687.15,481c-15.462,4.8-43.188-3.732-44.255-9.064s39.989-4.8,46.387-6.4S1706.878,451.139,1699.947,425.546Z" transform="translate(-870.282 22.505)" fill="#cdd2f9" opacity="0.5"/>
    <path id="Path_14965" data-name="Path 14965" d="M622.791,464.331c10.953-17.531,41.373-1.808,41.373-1.808s11.765,40.044,17.89,42.766-3.374-36.2-3.374-36.2c12.695,2.54,39.549,27.173,39.549,27.173s-13.792,38.388-7.186,39.519,10.478-34.613,10.478-34.613c10.852,7.194,17.776,24.491,17.776,24.491,7.06,26.893-27.837,34.57-27.837,34.57s-4.493,13.406-.835,31.452h0a48.11,48.11,0,0,1,1.461,8.885l-3.254-.985c0-.953-.039-1.885-.119-2.793a.02.02,0,0,0,0-.017c0-.013,0-.026,0-.039-.071-.57-.175-1.383-.31-2.375v0s0,0,0,0c-.4-2.247-.642-3.888-.752-5.055a.045.045,0,0,1,0-.011c-1.129-7.011-3.011-16.269-5.368-18.805a6.6,6.6,0,0,0,1.148-1.282l-1.148,1.282c-9.183,10.249-37.635,3.808-52.187-4.072s-6.465-10.209,4.04-14.783,27.444,2.6,33.459,1.379-.7-6.293-11.286-8.628-18.889,6.443-36.08,2.976S619.814,508.6,619.814,508.6c10.454,7.073,33.069,6.97,35.069,3.233s-28.755-12.614-33.168-15.252S611.838,481.862,622.791,464.331Z" transform="translate(-243.015 -33.861)" fill="#cdd2f9" opacity="0.5"/>
    <path id="Path_14966" data-name="Path 14966" d="M1271.472,462.232c-7.666-12.768-29.778-1.831-29.778-1.831s-8.986,28.694-13.433,30.577,2.893-26.033,2.893-26.033c-9.177,1.668-28.835,19.068-28.835,19.068s9.445,27.828,4.672,28.558-7.106-25.066-7.106-25.066c-7.908,5.043-13.117,17.414-13.117,17.414-5.428,19.281,19.61,25.257,19.61,25.257s3.065,9.714.2,22.666h0a34.648,34.648,0,0,0-1.166,6.382l2.356-.668q.02-1.03.121-2.01a.013.013,0,0,1,0-.012c0-.01,0-.019,0-.028.058-.41.144-.994.254-1.707v0s0,0,0,0c.32-1.614.511-2.793.606-3.631a.029.029,0,0,0,0-.008c.9-5.035,2.377-11.681,4.107-13.477a4.747,4.747,0,0,1-.811-.938l.811.938c6.484,7.5,27.061,3.223,37.644-2.267s4.787-7.271-2.722-10.7-19.8,1.521-24.119.566.586-4.524,8.24-6.071,13.524,4.882,25.952,2.6,15.2-27.653,15.2-27.653c-7.621,4.962-23.91,4.6-25.3,1.881s20.874-8.718,24.086-10.563S1279.138,475,1271.472,462.232Z" transform="translate(-634.458 -33.861)" fill="#cdd2f9" opacity="0.5"/>
    <path id="Path_14967" data-name="Path 14967" d="M263.7,1554.776c-.245.069-.558.138-.952.207C263.066,1554.907,263.38,1554.839,263.7,1554.776Z" transform="translate(0 -788.914)" fill="#95c38b"/>
    <g id="Group_14188" data-name="Group 14188" transform="translate(412.888 491.492)">
      <g id="Group_14159" data-name="Group 14159" transform="translate(0)">
        <path id="Path_14968" data-name="Path 14968" d="M1231.69,985.113,1216.646,1164s-1.577,10.844,6.49,10.863c13.262.032,66.009,0,66.009,0s-9.982-2.257-9.86-7.336c.142-5.987,17.584-184.107,17.584-184.107Z" transform="translate(-1068.322 -887.769)" fill="url(#linear-gradient)"/>
        <path id="Path_14969" data-name="Path 14969" d="M1302.949,1164.486c-2.609.008-52.989.166-65.9,0-5.629-.07-6.615-5-6.662-8.2a16,16,0,0,1,.171-2.663l.391-4.65,1-11.851.88-10.469,1.132-13.454.953-11.355,10.69-127.111,65.179-1.692s-7.346,74.543-12.542,128.8c-.58,6.046-1.132,11.843-1.642,17.254q-.249,2.591-.479,5.062c-.482,5.133-.922,9.848-1.306,14.01-.2,2.194-.388,4.233-.557,6.1-.663,7.318-1.052,11.99-1.057,12.879a7.51,7.51,0,0,0,.127,1.448C1294.391,1164.3,1301.97,1164.486,1302.949,1164.486Z" transform="translate(-1077.847 -880.638)" fill="url(#linear-gradient)"/>
        <path id="Path_14970" data-name="Path 14970" d="M758.975,677.629l36.646,147.2,5.018,20.16,17.068,68.562h317.1L1071.9,677.629Z" transform="translate(-753.895 -677.629)" fill="url(#linear-gradient)"/>
        <path id="Path_14971" data-name="Path 14971" d="M747.815,677.629l-5.079,1.693L799.8,918.674l6.753-5.121Z" transform="translate(-742.736 -677.629)" fill="url(#linear-gradient)"/>
        <path id="Path_14972" data-name="Path 14972" d="M925.153,1436.99H1240.3l8.7-5.121h-317.1Z" transform="translate(-868.094 -1195.944)" fill="url(#linear-gradient)"/>
        <rect id="Rectangle_20173" data-name="Rectangle 20173" width="68.234" height="3.243" transform="translate(235.965 287.162) rotate(180)" fill="url(#linear-gradient)"/>
        <path id="Path_14973" data-name="Path 14973" d="M1299.9,1448.235l-.352,2.479-64.171,12.964.88-10.469.42-4.974Z" transform="translate(-1081.277 -1207.191)" fill="url(#linear-gradient)"/>
        <path id="Path_14974" data-name="Path 14974" d="M1302.953,1540.667c-2.609.008-52.989.166-65.9,0-5.629-.07-6.615-5-6.662-8.2l63.868-12.016c-.663,7.318-1.052,11.99-1.057,12.879a7.516,7.516,0,0,0,.127,1.448C1294.395,1540.481,1301.974,1540.667,1302.953,1540.667Z" transform="translate(-1077.851 -1256.819)" opacity="0.1"/>
        <path id="Path_14975" data-name="Path 14975" d="M1048.538,1233.479l-139.3,47.761-17.069-68.563Z" transform="translate(-845.429 -1045.315)" fill="#fff" opacity="0.1"/>
        <path id="Path_14976" data-name="Path 14976" d="M758.973,677.629h312.922l50.561,189.609H806.176Z" transform="translate(-753.894 -677.629)" fill="url(#linear-gradient)"/>
      </g>
      <ellipse id="Ellipse_3727" data-name="Ellipse 3727" cx="7.641" cy="9.278" rx="7.641" ry="9.278" transform="translate(210.343 213.002) rotate(-47.777)" fill="#fff" opacity="0.2"/>
      <path id="Path_14977" data-name="Path 14977" d="M1136.386,881.335H843.4l-33.181-132.18-2.543-10.137-2.171-8.646L800.413,710.1H1089.18l5.588,20.273,2.384,8.646,2.794,10.137Z" transform="translate(-782.372 -699.942)" fill="#e4edf9"/>
      <path id="Path_14978" data-name="Path 14978" d="M1094.768,730.372H805.5L800.413,710.1H1089.18Z" transform="translate(-782.372 -699.942)" fill="url(#linear-gradient-9)"/>
      <g id="Group_14160" data-name="Group 14160" transform="translate(29.909 16.784)">
        <path id="Path_14979" data-name="Path 14979" d="M838.431,733.821a1.915,1.915,0,0,1,1.9-2.534,3.462,3.462,0,0,1,3.166,2.534,1.915,1.915,0,0,1-1.9,2.534A3.462,3.462,0,0,1,838.431,733.821Z" transform="translate(-838.353 -731.287)" fill="#e9f3fe"/>
        <path id="Path_14980" data-name="Path 14980" d="M865.352,733.821a1.915,1.915,0,0,1,1.9-2.534,3.462,3.462,0,0,1,3.166,2.534,1.915,1.915,0,0,1-1.9,2.534A3.462,3.462,0,0,1,865.352,733.821Z" transform="translate(-856.853 -731.287)" fill="#e9f3fe"/>
        <path id="Path_14981" data-name="Path 14981" d="M894.34,733.821a1.915,1.915,0,0,1,1.9-2.534,3.462,3.462,0,0,1,3.166,2.534,1.915,1.915,0,0,1-1.9,2.534A3.462,3.462,0,0,1,894.34,733.821Z" transform="translate(-876.774 -731.287)" fill="#e9f3fe"/>
      </g>
      <path id="Path_14982" data-name="Path 14982" d="M1118.809,935.3H901.783l-33.027-129.61H1082.72Z" transform="translate(-829.337 -765.631)" fill="url(#linear-gradient-10)"/>
      <path id="Path_14983" data-name="Path 14983" d="M1630.069,835.845H1580.88l-8.993-30.157h49.785Z" transform="translate(-1312.53 -765.631)" fill="#cdd2f9"/>
      <path id="Path_14984" data-name="Path 14984" d="M1269.273,836.508h-28.143l-1.158-4.339h28.143Z" transform="translate(-1084.437 -783.829)" fill="#1c468a" opacity="0.5"/>
      <path id="Path_14985" data-name="Path 14985" d="M1389.475,836.508h-46.042l-1.158-4.339h46.042Z" transform="translate(-1154.74 -783.829)" fill="#78acea" opacity="0.5"/>
      <path id="Path_14986" data-name="Path 14986" d="M1236.571,873.884H1186.66l-1.158-4.339h49.911Z" transform="translate(-1047.005 -809.514)" fill="#78acea" opacity="0.5"/>
      <path id="Path_14987" data-name="Path 14987" d="M1386.45,873.884h-25.87l-1.158-4.339h25.87Z" transform="translate(-1166.524 -809.514)" fill="#fff" opacity="0.5"/>
      <path id="Path_14988" data-name="Path 14988" d="M1296.424,938.234h-28.144l-1.158-4.339h28.143Z" transform="translate(-1103.095 -853.735)" fill="#699dee" opacity="0.5"/>
      <path id="Path_14989" data-name="Path 14989" d="M1416.626,938.234h-46.042l-1.158-4.339h46.042Z" transform="translate(-1173.399 -853.735)" fill="#78acea" opacity="0.5"/>
      <path id="Path_14990" data-name="Path 14990" d="M1263.722,975.61h-49.911l-1.158-4.339h49.911Z" transform="translate(-1065.664 -879.42)" fill="#fff" opacity="0.5"/>
      <path id="Path_14991" data-name="Path 14991" d="M1413.6,975.61h-25.87l-1.158-4.339h25.87Z" transform="translate(-1185.182 -879.42)" fill="#fff" opacity="0.5"/>
      <path id="Path_14992" data-name="Path 14992" d="M1067.571,1033.463H972.353l-1.158-4.339h95.218Z" transform="translate(-899.734 -919.177)" fill="#1c468a" opacity="0.5"/>
      <path id="Path_14993" data-name="Path 14993" d="M1324.362,1033.463h-28.143l-1.158-4.339H1323.2Z" transform="translate(-1122.295 -919.177)" fill="#699dee" opacity="0.5"/>
      <path id="Path_14994" data-name="Path 14994" d="M1444.564,1033.463h-46.042l-1.158-4.339h46.042Z" transform="translate(-1192.598 -919.177)" fill="#78acea" opacity="0.5"/>
      <path id="Path_14995" data-name="Path 14995" d="M1010.472,1070.839H982.329l-1.158-4.339h28.143Z" transform="translate(-906.589 -944.862)" fill="#fff" opacity="0.5"/>
      <path id="Path_14996" data-name="Path 14996" d="M1291.66,1070.839h-49.911l-1.158-4.339H1290.5Z" transform="translate(-1084.863 -944.862)" fill="#fff" opacity="0.5"/>
      <path id="Path_14997" data-name="Path 14997" d="M1130.675,1070.839h-46.042l-1.158-4.339h46.042Z" transform="translate(-976.892 -944.862)" fill="#78acea" opacity="0.5"/>
      <path id="Path_14998" data-name="Path 14998" d="M1441.54,1070.839h-25.87l-1.158-4.339h25.87Z" transform="translate(-1204.381 -944.862)" fill="#78acea" opacity="0.5"/>
      <path id="Path_14999" data-name="Path 14999" d="M1102.129,1136.647h-95.218l-1.158-4.339h95.218Z" transform="translate(-923.482 -990.086)" fill="#1c468a" opacity="0.5"/>
      <path id="Path_15000" data-name="Path 15000" d="M1358.92,1136.647h-28.144l-1.158-4.339h28.143Z" transform="translate(-1146.043 -990.086)" fill="#699dee" opacity="0.5"/>
      <path id="Path_15001" data-name="Path 15001" d="M1045.031,1174.024h-28.143l-1.158-4.339h28.143Z" transform="translate(-930.338 -1015.771)" fill="#fff" opacity="0.5"/>
      <path id="Path_15002" data-name="Path 15002" d="M1326.219,1174.024h-49.911l-1.158-4.339h49.911Z" transform="translate(-1108.612 -1015.771)" fill="#fff" opacity="0.5"/>
      <path id="Path_15003" data-name="Path 15003" d="M1165.233,1174.024h-46.042l-1.158-4.339h46.042Z" transform="translate(-1000.641 -1015.771)" fill="#78acea" opacity="0.5"/>
      <path id="Path_15004" data-name="Path 15004" d="M1476.1,1174.024h-25.871l-1.158-4.339h25.87Z" transform="translate(-1228.13 -1015.771)" fill="#78acea" opacity="0.5"/>
      <g id="Group_14161" data-name="Group 14161" transform="translate(270.924 77.492)">
        <path id="Path_15005" data-name="Path 15005" d="M1630.994,927.608l-21.647.067-.479-1.966,21.646-.067Z" transform="translate(-1608.868 -925.556)" fill="#cdd2f9"/>
        <path id="Path_15006" data-name="Path 15006" d="M1697.166,927.5l-8.139.025-.479-1.966,8.139-.025Z" transform="translate(-1663.624 -925.478)" fill="#cdd2f9"/>
        <path id="Path_15007" data-name="Path 15007" d="M1736.187,927.333l-14.386.044-.479-1.966,14.386-.044Z" transform="translate(-1686.147 -925.367)" fill="#cdd2f9"/>
        <path id="Path_15008" data-name="Path 15008" d="M1625.089,943.6l-11.868.037-.479-1.966,11.867-.036Z" transform="translate(-1611.531 -936.543)" fill="#cdd2f9"/>
        <path id="Path_15009" data-name="Path 15009" d="M1672.811,943.425l-15.326.047-.479-1.966,15.326-.047Z" transform="translate(-1641.948 -936.426)" fill="#cdd2f9"/>
        <path id="Path_15010" data-name="Path 15010" d="M1733.078,943.225l-17.564.054-.479-1.966,17.564-.054Z" transform="translate(-1681.826 -936.288)" fill="#cdd2f9"/>
      </g>
      <g id="Group_14162" data-name="Group 14162" transform="translate(273.513 88.113)">
        <path id="Path_15011" data-name="Path 15011" d="M1639.271,961.562l-21.647.067-.479-1.966,21.646-.067Z" transform="translate(-1617.145 -959.51)" fill="#cdd2f9"/>
        <path id="Path_15012" data-name="Path 15012" d="M1705.442,961.449l-8.14.025-.479-1.966,8.139-.025Z" transform="translate(-1671.9 -959.433)" fill="#cdd2f9"/>
        <path id="Path_15013" data-name="Path 15013" d="M1744.464,961.287l-14.386.044-.479-1.966,14.386-.044Z" transform="translate(-1694.424 -959.321)" fill="#cdd2f9"/>
        <path id="Path_15014" data-name="Path 15014" d="M1633.365,977.55l-11.868.037-.479-1.966,11.867-.036Z" transform="translate(-1619.807 -970.497)" fill="#cdd2f9"/>
        <path id="Path_15015" data-name="Path 15015" d="M1681.087,977.38l-15.326.047-.479-1.966,15.326-.047Z" transform="translate(-1650.224 -970.38)" fill="#cdd2f9"/>
        <path id="Path_15016" data-name="Path 15016" d="M1741.356,977.179l-17.564.054-.479-1.966,17.563-.054Z" transform="translate(-1690.104 -970.242)" fill="#cdd2f9"/>
      </g>
      <g id="Group_14163" data-name="Group 14163" transform="translate(265.34 43.007)">
        <path id="Path_15017" data-name="Path 15017" d="M1604.338,816.471l-13.036.04-.288-1.184,13.036-.04Z" transform="translate(-1591.014 -815.235)" fill="#fff"/>
        <path id="Path_15018" data-name="Path 15018" d="M1644.185,816.4l-4.9.015-.289-1.184,4.9-.015Z" transform="translate(-1623.987 -815.188)" fill="#fff"/>
        <path id="Path_15019" data-name="Path 15019" d="M1667.684,816.3l-8.663.027-.289-1.184,8.663-.027Z" transform="translate(-1637.55 -815.121)" fill="#fff"/>
        <path id="Path_15020" data-name="Path 15020" d="M1600.781,826.1l-7.146.022-.289-1.184,7.147-.022Z" transform="translate(-1592.616 -821.851)" fill="#fff"/>
        <path id="Path_15021" data-name="Path 15021" d="M1629.519,826l-9.229.028L1620,824.84l9.229-.029Z" transform="translate(-1610.934 -821.78)" fill="#fff"/>
        <path id="Path_15022" data-name="Path 15022" d="M1665.812,825.874l-10.577.033-.289-1.184,10.577-.033Z" transform="translate(-1634.948 -821.697)" fill="#fff"/>
      </g>
      <g id="Group_14164" data-name="Group 14164" transform="translate(266.898 49.403)">
        <path id="Path_15023" data-name="Path 15023" d="M1609.321,836.917l-13.035.04-.289-1.184,13.035-.04Z" transform="translate(-1595.997 -835.682)" fill="#fff"/>
        <path id="Path_15024" data-name="Path 15024" d="M1649.169,836.849l-4.9.015-.289-1.184,4.9-.015Z" transform="translate(-1628.97 -835.635)" fill="#fff"/>
        <path id="Path_15025" data-name="Path 15025" d="M1672.668,836.752l-8.663.027-.288-1.184,8.663-.027Z" transform="translate(-1642.534 -835.568)" fill="#fff"/>
        <path id="Path_15026" data-name="Path 15026" d="M1605.765,846.545l-7.147.022-.288-1.184,7.146-.022Z" transform="translate(-1597.6 -842.298)" fill="#fff"/>
        <path id="Path_15027" data-name="Path 15027" d="M1634.5,846.443l-9.229.029-.289-1.184,9.229-.028Z" transform="translate(-1615.918 -842.228)" fill="#fff"/>
        <path id="Path_15028" data-name="Path 15028" d="M1670.8,846.322l-10.577.033-.289-1.184,10.577-.033Z" transform="translate(-1639.932 -842.144)" fill="#fff"/>
      </g>
      <g id="Group_14165" data-name="Group 14165" transform="translate(277.936 106.26)">
        <path id="Path_15029" data-name="Path 15029" d="M1653.411,1019.577l-21.647.067-.479-1.966,21.647-.067Z" transform="translate(-1631.285 -1017.525)" fill="#cdd2f9"/>
        <path id="Path_15030" data-name="Path 15030" d="M1719.583,1019.465l-8.139.025-.48-1.966,8.14-.025Z" transform="translate(-1686.04 -1017.448)" fill="#cdd2f9"/>
        <path id="Path_15031" data-name="Path 15031" d="M1758.6,1019.3l-14.386.044-.479-1.966,14.386-.045Z" transform="translate(-1708.564 -1017.336)" fill="#cdd2f9"/>
        <path id="Path_15032" data-name="Path 15032" d="M1647.506,1035.566l-11.867.037-.479-1.966,11.867-.037Z" transform="translate(-1633.947 -1028.512)" fill="#cdd2f9"/>
        <path id="Path_15033" data-name="Path 15033" d="M1695.228,1035.395l-15.326.047-.479-1.966,15.326-.047Z" transform="translate(-1664.365 -1028.395)" fill="#cdd2f9"/>
        <path id="Path_15034" data-name="Path 15034" d="M1755.5,1035.194l-17.564.054-.479-1.966,17.564-.054Z" transform="translate(-1704.244 -1028.257)" fill="#cdd2f9"/>
      </g>
      <g id="Group_14166" data-name="Group 14166" transform="translate(282.272 124.046)">
        <path id="Path_15035" data-name="Path 15035" d="M1667.271,1076.439l-21.646.067-.479-1.966,21.647-.067Z" transform="translate(-1645.146 -1074.387)" fill="#cdd2f9"/>
        <path id="Path_15036" data-name="Path 15036" d="M1733.443,1076.325l-8.14.025-.479-1.966,8.14-.025Z" transform="translate(-1699.901 -1074.309)" fill="#cdd2f9"/>
        <path id="Path_15037" data-name="Path 15037" d="M1772.465,1076.163l-14.386.044-.479-1.966,14.386-.044Z" transform="translate(-1722.424 -1074.197)" fill="#cdd2f9"/>
        <path id="Path_15038" data-name="Path 15038" d="M1661.366,1092.427l-11.867.036-.479-1.966,11.867-.036Z" transform="translate(-1647.808 -1085.374)" fill="#cdd2f9"/>
        <path id="Path_15039" data-name="Path 15039" d="M1709.088,1092.256l-15.326.047-.479-1.966,15.326-.047Z" transform="translate(-1678.226 -1085.256)" fill="#cdd2f9"/>
        <path id="Path_15040" data-name="Path 15040" d="M1769.356,1092.055l-17.564.054-.479-1.966,17.564-.054Z" transform="translate(-1718.104 -1085.118)" fill="#cdd2f9"/>
      </g>
      <g id="Group_14167" data-name="Group 14167" transform="translate(286.178 140.07)">
        <path id="Path_15041" data-name="Path 15041" d="M1679.758,1127.667l-21.646.066-.479-1.966,21.646-.067Z" transform="translate(-1657.633 -1125.615)" fill="#cdd2f9"/>
        <path id="Path_15042" data-name="Path 15042" d="M1745.93,1127.555l-8.139.025-.48-1.966,8.14-.025Z" transform="translate(-1712.387 -1125.538)" fill="#cdd2f9"/>
        <path id="Path_15043" data-name="Path 15043" d="M1784.952,1127.392l-14.386.044-.479-1.966,14.386-.044Z" transform="translate(-1734.912 -1125.426)" fill="#cdd2f9"/>
        <path id="Path_15044" data-name="Path 15044" d="M1673.853,1143.656l-11.868.037-.479-1.966,11.867-.037Z" transform="translate(-1660.294 -1136.602)" fill="#cdd2f9"/>
        <path id="Path_15045" data-name="Path 15045" d="M1721.575,1143.484l-15.326.047-.479-1.966,15.326-.047Z" transform="translate(-1690.713 -1136.485)" fill="#cdd2f9"/>
        <path id="Path_15046" data-name="Path 15046" d="M1781.843,1143.283l-17.564.054-.479-1.966,17.564-.054Z" transform="translate(-1730.591 -1136.347)" fill="#cdd2f9"/>
      </g>
      <g id="Group_14174" data-name="Group 14174" transform="translate(310.087 153.338)">
        <g id="Group_14170" data-name="Group 14170">
          <g id="Group_14168" data-name="Group 14168">
            <path id="Path_15047" data-name="Path 15047" d="M1742.485,1180.462a9.113,9.113,0,0,1-8.151-6.309c-1.015-3.479.989-6.309,4.467-6.309a9.112,9.112,0,0,1,8.151,6.309C1747.968,1177.632,1745.964,1180.462,1742.485,1180.462ZM1739.138,1169c-2.844,0-4.482,2.314-3.651,5.157a7.448,7.448,0,0,0,6.662,5.156c2.843,0,4.481-2.313,3.651-5.156A7.449,7.449,0,0,0,1739.138,1169Z" transform="translate(-1734.07 -1167.844)" fill="url(#linear-gradient-11)"/>
          </g>
          <g id="Group_14169" data-name="Group 14169" transform="translate(2.635 3.704)">
            <path id="Path_15048" data-name="Path 15048" d="M1747.241,1185.5a1.313,1.313,0,0,1-.708-.294l-3.54-2.835a1.037,1.037,0,0,1-.366-1.357.967.967,0,0,1,1.366.03l2.5,2,1.283-2.965c.185-.429.758-.524,1.278-.214a1.165,1.165,0,0,1,.605,1.341l-1.686,3.9a.672.672,0,0,1-.6.394A1.047,1.047,0,0,1,1747.241,1185.5Z" transform="translate(-1742.493 -1179.686)" fill="url(#linear-gradient-12)"/>
          </g>
        </g>
        <g id="Group_14173" data-name="Group 14173" transform="translate(17.416)">
          <g id="Group_14171" data-name="Group 14171">
            <path id="Path_15049" data-name="Path 15049" d="M1798.163,1180.462a9.113,9.113,0,0,1-8.151-6.309c-1.015-3.479.988-6.309,4.467-6.309a9.112,9.112,0,0,1,8.151,6.309C1803.646,1177.632,1801.641,1180.462,1798.163,1180.462ZM1794.816,1169c-2.844,0-4.482,2.314-3.652,5.157a7.449,7.449,0,0,0,6.662,5.156c2.843,0,4.482-2.313,3.651-5.156A7.448,7.448,0,0,0,1794.816,1169Z" transform="translate(-1789.748 -1167.844)" fill="url(#linear-gradient-13)"/>
          </g>
          <g id="Group_14172" data-name="Group 14172" transform="translate(4.902 2.876)">
            <path id="Path_15050" data-name="Path 15050" d="M1807.392,1181.5h0a1.293,1.293,0,0,1-1.153-.892l-.782-2.68a.648.648,0,0,1,.632-.892h0a1.292,1.292,0,0,1,1.153.892l.782,2.68A.647.647,0,0,1,1807.392,1181.5Z" transform="translate(-1805.419 -1177.039)" fill="url(#linear-gradient-14)"/>
            <path id="Path_15051" data-name="Path 15051" d="M1811.241,1194.541h-.193a1.151,1.151,0,0,1-1.028-.8h0a.578.578,0,0,1,.564-.8h.193a1.152,1.152,0,0,1,1.028.8h0A.577.577,0,0,1,1811.241,1194.541Z" transform="translate(-1808.559 -1187.972)" fill="url(#linear-gradient-15)"/>
          </g>
        </g>
      </g>
      <g id="Group_14187" data-name="Group 14187" transform="translate(274.333 60.391)">
        <g id="Group_14177" data-name="Group 14177" transform="translate(20.149)">
          <g id="Group_14175" data-name="Group 14175">
            <path id="Path_15052" data-name="Path 15052" d="M1688.794,877.615a5,5,0,0,1-4.469-3.459,2.507,2.507,0,0,1,2.449-3.459,5,5,0,0,1,4.469,3.459A2.507,2.507,0,0,1,1688.794,877.615Zm-1.835-6.286a2.049,2.049,0,0,0-2,2.827,4.083,4.083,0,0,0,3.653,2.827,2.049,2.049,0,0,0,2-2.827A4.082,4.082,0,0,0,1686.959,871.329Z" transform="translate(-1684.18 -870.697)" fill="#fff"/>
          </g>
          <g id="Group_14176" data-name="Group 14176" transform="translate(1.444 2.031)">
            <path id="Path_15053" data-name="Path 15053" d="M1691.4,880.378a.719.719,0,0,1-.388-.161l-1.94-1.554a.569.569,0,0,1-.2-.744.53.53,0,0,1,.749.017l1.371,1.1.7-1.625c.1-.235.416-.287.7-.118a.639.639,0,0,1,.332.735l-.924,2.136a.369.369,0,0,1-.327.216A.573.573,0,0,1,1691.4,880.378Z" transform="translate(-1688.798 -877.19)" fill="#fff"/>
          </g>
        </g>
        <g id="Group_14180" data-name="Group 14180" transform="translate(10.252)">
          <g id="Group_14178" data-name="Group 14178">
            <path id="Path_15054" data-name="Path 15054" d="M1657.152,877.615a5,5,0,0,1-4.468-3.459,2.506,2.506,0,0,1,2.449-3.459,5,5,0,0,1,4.469,3.459A2.507,2.507,0,0,1,1657.152,877.615Zm-1.835-6.286a2.049,2.049,0,0,0-2,2.827,4.084,4.084,0,0,0,3.652,2.827,2.049,2.049,0,0,0,2-2.827A4.084,4.084,0,0,0,1655.318,871.329Z" transform="translate(-1652.539 -870.697)" fill="#fff"/>
          </g>
          <g id="Group_14179" data-name="Group 14179" transform="translate(1.444 2.031)">
            <path id="Path_15055" data-name="Path 15055" d="M1659.76,880.378a.718.718,0,0,1-.388-.161l-1.941-1.554a.568.568,0,0,1-.2-.744.53.53,0,0,1,.749.017l1.372,1.1.7-1.625c.1-.235.416-.287.7-.118a.64.64,0,0,1,.332.735l-.924,2.136a.369.369,0,0,1-.328.216A.57.57,0,0,1,1659.76,880.378Z" transform="translate(-1657.157 -877.19)" fill="#fff"/>
          </g>
        </g>
        <g id="Group_14183" data-name="Group 14183">
          <g id="Group_14181" data-name="Group 14181">
            <path id="Path_15056" data-name="Path 15056" d="M1624.379,877.615a5,5,0,0,1-4.469-3.459,2.506,2.506,0,0,1,2.449-3.459,5,5,0,0,1,4.468,3.459A2.507,2.507,0,0,1,1624.379,877.615Zm-1.835-6.286a2.049,2.049,0,0,0-2,2.827,4.083,4.083,0,0,0,3.653,2.827,2.049,2.049,0,0,0,2-2.827A4.084,4.084,0,0,0,1622.543,871.329Z" transform="translate(-1619.765 -870.697)" fill="#fff"/>
          </g>
          <g id="Group_14182" data-name="Group 14182" transform="translate(1.445 2.031)">
            <path id="Path_15057" data-name="Path 15057" d="M1626.986,880.378a.716.716,0,0,1-.388-.161l-1.941-1.554a.568.568,0,0,1-.2-.744.53.53,0,0,1,.749.017l1.371,1.1.7-1.625c.1-.235.416-.287.7-.118a.639.639,0,0,1,.332.735l-.925,2.136a.368.368,0,0,1-.327.216A.573.573,0,0,1,1626.986,880.378Z" transform="translate(-1624.383 -877.19)" fill="#fff"/>
          </g>
        </g>
        <g id="Group_14186" data-name="Group 14186" transform="translate(29.697)">
          <g id="Group_14184" data-name="Group 14184">
            <path id="Path_15058" data-name="Path 15058" d="M1719.32,877.615a5,5,0,0,1-4.469-3.459,2.507,2.507,0,0,1,2.449-3.459,5,5,0,0,1,4.468,3.459A2.507,2.507,0,0,1,1719.32,877.615Zm-1.835-6.286a2.048,2.048,0,0,0-2,2.827,4.083,4.083,0,0,0,3.653,2.827,2.049,2.049,0,0,0,2-2.827A4.083,4.083,0,0,0,1717.485,871.329Z" transform="translate(-1714.706 -870.697)" fill="#fff"/>
          </g>
          <g id="Group_14185" data-name="Group 14185" transform="translate(2.688 1.577)">
            <path id="Path_15059" data-name="Path 15059" d="M1724.38,878.187h0a.709.709,0,0,1-.632-.489l-.429-1.47a.355.355,0,0,1,.347-.489h0a.708.708,0,0,1,.632.489l.429,1.47A.355.355,0,0,1,1724.38,878.187Z" transform="translate(-1723.298 -875.739)" fill="#fff"/>
            <path id="Path_15060" data-name="Path 15060" d="M1726.49,885.335h-.106a.632.632,0,0,1-.564-.436h0a.317.317,0,0,1,.309-.436h.106a.632.632,0,0,1,.564.436h0A.317.317,0,0,1,1726.49,885.335Z" transform="translate(-1725.019 -881.733)" fill="#fff"/>
          </g>
        </g>
      </g>
    </g>
    <g id="Group_14192" data-name="Group 14192" transform="translate(312.251 567.47)">
      <g id="Group_14189" data-name="Group 14189" transform="translate(31.078 36.043)">
        <path id="Path_15061" data-name="Path 15061" d="M658.6,1199.137s5.214,1.339,8.529.341,9.02.641,9.938,1.85.581,1.689-1.058,2.106-7.447,2.895-11.264,1.461a30.409,30.409,0,0,0-8.8-1.486Z" transform="translate(-613.539 -1148.031)" fill="#e49963"/>
        <path id="Path_15062" data-name="Path 15062" d="M520.36,1041.564s5.857,41.631,15.557,45.36c4.786,1.84,25.937,6.011,32.193,6.43,0,0,1.533-1.243,1.159-6.3,0,0-22.16-8.136-25.308-12.56-4.685-6.585,2.909-26.9-2.97-33.084S525.21,1032.563,520.36,1041.564Z" transform="translate(-520.36 -1035.752)" fill="url(#linear-gradient-16)"/>
      </g>
      <rect id="Rectangle_20174" data-name="Rectangle 20174" width="8.1" height="70.893" rx="4.05" transform="translate(39.926 206.917) rotate(180)" fill="#c1c6e0"/>
      <path id="Path_15063" data-name="Path 15063" d="M455.785,1576.126c2.62-5.423,12.817-9.468,25-9.468s22.377,4.045,25,9.468Z" transform="translate(-444.906 -1364.549)" fill="#c1c6e0"/>
      <path id="Rectangle_20175" data-name="Rectangle 20175" d="M1.428,0H36.655a1.428,1.428,0,0,1,1.428,1.428v0a1.429,1.429,0,0,1-1.429,1.429H1.428A1.428,1.428,0,0,1,0,1.429v0A1.428,1.428,0,0,1,1.428,0Z" transform="translate(54.918 193.187) rotate(180)" fill="#c1c6e0"/>
      <path id="Path_15064" data-name="Path 15064" d="M510.241,1281.031a73.038,73.038,0,0,0,5.722,8.187c6.3,7.947,13.148,14.5,14.342,20.694a28.08,28.08,0,0,0,1.107,3.965c.5,1.419,1.115,2.911,1.826,4.453a137.2,137.2,0,0,0,10.655,18.216c6.9,10.218,13.38,18.743,13.38,18.743l11.891-.507c-.476-1.192-5.663-15.3-12.6-32.541-2.817-7-5.813-14.443-8.7-21.623q-.578-1.438-1.151-2.86c-.884-2.2-1.753-4.36-2.6-6.466-6.514-16.189-11.7-29.08-11.7-29.08s-26.037-9.863-28.741-3.472C501.432,1264.011,503.248,1269.174,510.241,1281.031Z" transform="translate(-477.189 -1151.467)" fill="#2d314f"/>
      <path id="Path_15065" data-name="Path 15065" d="M678.219,1558.288s.608,9.812,2.506,9.953c.253.019,9.629.019,9.629.019l11.969-.07s-.078-2.884-3.577-3.494-9.355-3.068-11.474-7.692C685.043,1552.139,678.219,1558.288,678.219,1558.288Z" transform="translate(-597.763 -1356.627)" fill="#4e5160"/>
      <path id="Path_15066" data-name="Path 15066" d="M573.663,1475.605s-8.271,5.315-7.468,7.041c.107.229,4.678,8.416,4.678,8.416l5.9,10.417s2.48-1.474,1.306-4.826-1.881-9.664,1.123-13.769C582.358,1478.566,573.663,1475.605,573.663,1475.605Z" transform="translate(-520.742 -1301.977)" fill="#4e5160"/>
      <path id="Path_15067" data-name="Path 15067" d="M541.647,1260.543s32.226,20.066,35.874,33.746-43.475,42.867-43.475,42.867-5.168-4.56-6.08-7.9c0,0,21.3-25.519,25.921-31.24,2.838-3.513-41.957-12.162-47.43-20.674s-3.513-15.675-3.513-15.675Z" transform="translate(-477.079 -1154.186)" fill="#2d314f"/>
      <rect id="Rectangle_20176" data-name="Rectangle 20176" width="71.752" height="18.242" rx="7.776" transform="translate(71.752 150.448) rotate(180)" fill="url(#linear-gradient-9)"/>
      <path id="Path_15068" data-name="Path 15068" d="M542.874,994.667a18.447,18.447,0,0,1,4.979,4.512c-7.829,2.025-20.809-5.23-20.809-5.23a19.2,19.2,0,0,0,6.906-10.827q.142-.563.257-1.154a23.508,23.508,0,0,0,.424-4.074l3.6,3.222,5.981,5.358a51.38,51.38,0,0,1-.884,6.048Q543.13,993.523,542.874,994.667Z" transform="translate(-493.876 -959.949)" fill="#e49963"/>
      <path id="Path_15069" data-name="Path 15069" d="M500.078,1060.1c1.121,15.084-.354,38.025.918,42,1.1,3.428,13.609,1.39,18.6.245,1.848-.423,4.087-1.029,6.4-1.744,6.45-2,13.477-4.849,14.231-6.966a1.754,1.754,0,0,0,.07-.243,1.937,1.937,0,0,0-.013-.887c-.251-1.079-1.22-2.246-1.334-4.918-.128-2.983-.108-6.5-.221-10.274-.006-.425-.012-.89-.058-1.313l0-.155c0-.081,0-.16-.006-.241-.108-4.213-.329-8.642-.584-13.035-.163-2.759-.35-5.491-.567-8.109a108.408,108.408,0,0,0-2.324-16.565,26.6,26.6,0,0,0-8.545-13.191l-2.38-2.041a13.762,13.762,0,0,1-8.636-1.151c-3.074-1.46-4.135-2.506-4.671-2.111C503.86,1024.877,498.754,1041.66,500.078,1060.1Z" transform="translate(-475.201 -988.414)" fill="url(#linear-gradient-16)"/>
      <path id="Path_15070" data-name="Path 15070" d="M557.615,1199.982c6.45-2,13.477-4.849,14.231-6.966a1.8,1.8,0,0,0,.07-.243c0-.3-.008-.592-.013-.888-.252-1.079-1.22-2.247-1.334-4.918-.128-2.983-.108-6.5-.221-10.274-.006-.425-.012-.889-.058-1.313l0-.155c0-.081,0-.16-.006-.241l-24.362-11.049S544.517,1183.57,557.615,1199.982Z" transform="translate(-506.818 -1087.797)" opacity="0.1"/>
      <path id="Path_15071" data-name="Path 15071" d="M558.59,993.552a51.409,51.409,0,0,1-.884,6.048c-5.84-1.887-8.489-7.162-9.374-9.4-.252-.632-.36-1.023-.36-1.023l.617-.131,4.021-.852Z" transform="translate(-508.257 -967.027)" fill="#d68d5d"/>
      <path id="Path_15072" data-name="Path 15072" d="M557.7,958.271s-12.831,1.447-13.609-6.557-2.958-13.208,5.2-14.47,10.05,1.637,10.959,4.245S561.017,957.688,557.7,958.271Z" transform="translate(-505.002 -931.804)" fill="#e49963"/>
      <path id="Path_15073" data-name="Path 15073" d="M536.75,940.986a13.183,13.183,0,0,1,12.493-11.725c8-.754,3.54-7.639,2.687-8.737,0,0-6.129.84-12.411,1.878C526.331,924.581,535.455,939.332,536.75,940.986Z" transform="translate(-497.606 -920.524)" fill="#353638"/>
      <g id="Group_14190" data-name="Group 14190" transform="translate(69.932 68.174)">
        <rect id="Rectangle_20177" data-name="Rectangle 20177" width="1.181" height="30.922" transform="translate(32.443 29.774) rotate(-162.008)" fill="url(#linear-gradient-19)"/>
        <rect id="Rectangle_20178" data-name="Rectangle 20178" width="32.449" height="1.941" transform="translate(32.441 29.774) rotate(-178.777)" fill="url(#linear-gradient-20)"/>
      </g>
      <g id="Group_14191" data-name="Group 14191" transform="translate(33.663 38.716)">
        <path id="Path_15074" data-name="Path 15074" d="M649.026,1219.6s5.034,1.906,8.439,1.279,8.893,1.632,9.673,2.934.392,1.743-1.284,1.977-7.721,2.056-11.357.21a30.4,30.4,0,0,0-8.578-2.447Z" transform="translate(-609.23 -1164.765)" fill="#e49963"/>
        <path id="Path_15075" data-name="Path 15075" d="M528.624,1049.144s1.232,42.023,10.461,46.8c4.554,2.357,25.116,8.834,31.288,9.94,0,0,1.66-1.067,1.847-6.138,0,0-21.128-10.529-23.769-15.273-3.931-7.061,5.857-26.416.7-33.211S534.437,1040.733,528.624,1049.144Z" transform="translate(-528.624 -1044.297)" fill="url(#linear-gradient-16)"/>
      </g>
    </g>
    <g id="Group_14197" data-name="Group 14197" transform="translate(845.615 619.298)">
      <path id="Path_15076" data-name="Path 15076" d="M2168.76,1302.757c2.25,8.408,18.871,13.357,37.053,16.26h67.848c16.355-8.008,16.331-17.557,17.644-43.927,2.71-54.465-25.941-80.759-38.717-76.419-.531.18-1.073.377-1.622.6-3.713,1.494-7.872,4.132-11.917,10.41,0,0-12.7,21.165-23.149,33.789-3.364,4.064-6.5,7.247-8.893,8.548a.6.6,0,0,1-.085.044c-.128.068-.251.128-.375.184-5.537,2.534-13.342,7.848-20.47,14.55h0C2175.017,1277.188,2165.589,1290.905,2168.76,1302.757Z" transform="translate(-2155.002 -1163.178)" fill="url(#linear-gradient-22)"/>
      <path id="Path_15077" data-name="Path 15077" d="M2225.482,1283.012c9.513,2.923,58.475,17.057,70,2.07,8.343-10.853,3.149-38.658-1.46-56.648a8.508,8.508,0,0,0-15.442-2.725l-.122.187s-12.7,21.165-23.148,33.789c-3.025,3.988-6.006,7.063-8.894,8.548a.547.547,0,0,1-.085.044c-.124.068-.252.128-.376.184C2240.415,1271,2232.609,1276.31,2225.482,1283.012Z" transform="translate(-2194.409 -1179.393)" fill="url(#linear-gradient-23)"/>
      <g id="Group_14196" data-name="Group 14196" transform="translate(0 0)">
        <path id="Path_15078" data-name="Path 15078" d="M2282.507,1197.829s-3.393,5.021-5.328,15.575c-1.7,9.244-3.181,12.656-5.629,14.552s-16.083,7.493-16.083,7.493l1.02,2.388s19.987-2.722,22.232-6.062,10.8-23.077,10.14-27.622S2282.507,1197.829,2282.507,1197.829Z" transform="translate(-2215.015 -1162.917)" fill="#f4a269"/>
        <g id="Group_14193" data-name="Group 14193" transform="translate(0 131.358)">
          <path id="Path_15079" data-name="Path 15079" d="M2144.692,1519.975c.179,1.95-2.535,2.423-5.678,2.58s-2.193.8-6.5,1.58-6.034-.4-6.345-.981c-.278-.516,1.725-1.324,3.859-2.236.268-.114.537-.231.807-.349,2.4-1.056,3.749-3.21,5.622-5.208,1.773-1.892,3.458-7.949,3.458-7.949l5.854-1.25s-1.644,5.451-2.214,7.779a7.209,7.209,0,0,0,.6,4.064A7.7,7.7,0,0,1,2144.692,1519.975Z" transform="translate(-2126.143 -1506.163)" fill="#ffb27d"/>
          <path id="Path_15080" data-name="Path 15080" d="M2139.015,1548.573c-3.143.157-2.193.8-6.5,1.58s-6.034-.4-6.345-.98c-.278-.516,1.725-1.324,3.859-2.237l.033.037a12.267,12.267,0,0,0,6.524.077c2.85-.773,5.6-2.476,7.567-3.027a7.7,7.7,0,0,1,.539,1.969C2144.872,1547.943,2142.158,1548.417,2139.015,1548.573Z" transform="translate(-2126.143 -1532.181)" fill="#383e54"/>
        </g>
        <path id="Path_15081" data-name="Path 15081" d="M2228.359,1318.782s-38.9-2.927-46.219,1.694-19.067,58.451-19.067,58.451a4.775,4.775,0,0,0,2.344.756,19.631,19.631,0,0,0,4.821-.722s16.878-24.085,18.066-30.153.9-11.482,3.606-11.627,36.453,4.1,41.557-4.89.885-17.894.885-17.894Z" transform="translate(-2151.522 -1243.023)" fill="#3b4060"/>
        <g id="Group_14194" data-name="Group 14194" transform="translate(14.883 137.606)">
          <path id="Path_15082" data-name="Path 15082" d="M2192.273,1539.948c.18,1.949-2.534,2.423-5.677,2.58s-2.193.8-6.5,1.58-6.034-.4-6.345-.981c-.278-.516,1.725-1.324,3.859-2.237.269-.114.538-.231.807-.349,2.4-1.056,3.749-3.21,5.622-5.207,1.774-1.892,3.458-7.949,3.458-7.949l5.854-1.25s-1.644,5.451-2.214,7.779a7.215,7.215,0,0,0,.6,4.064A7.637,7.637,0,0,1,2192.273,1539.948Z" transform="translate(-2173.724 -1526.136)" fill="#ffb27d"/>
          <path id="Path_15083" data-name="Path 15083" d="M2186.6,1568.546c-3.143.157-2.193.8-6.5,1.58s-6.034-.4-6.345-.981c-.278-.516,1.725-1.324,3.859-2.236l.034.036a12.263,12.263,0,0,0,6.524.078c2.85-.773,5.6-2.476,7.568-3.027a7.646,7.646,0,0,1,.539,1.97C2192.453,1567.915,2189.739,1568.39,2186.6,1568.546Z" transform="translate(-2173.724 -1552.154)" fill="#383e54"/>
        </g>
        <path id="Path_15084" data-name="Path 15084" d="M2267.693,1336.122s-34.552,1.636-41.69,6.539-16.778,59.149-16.778,59.149a4.781,4.781,0,0,0,2.372.664,19.639,19.639,0,0,0,4.789-.909s15.927-24.724,16.879-30.833.451-11.508,3.151-11.759,36.584,2.68,41.335-6.5S2267.693,1336.122,2267.693,1336.122Z" transform="translate(-2183.238 -1257.952)" fill="#2f3551"/>
        <path id="Path_15085" data-name="Path 15085" d="M2348.7,1118.365a21.009,21.009,0,0,1-2.051-7.119c.075.379,1.062,5.189,3.112,7.812,8,4.523,23.82,20.352,23.742,23.557,0,0,4.591-9.125,4.677-9.184,0,0,8.74-12.78-3.042-18.98-5.988-3.152-6.261-7.691-6.283-11.648s-2.963-20.8-14.19-15.595a7.513,7.513,0,0,0-2.724-.52,2.268,2.268,0,0,1,1.053.416,8.963,8.963,0,0,0-4.778,1.248C2344.157,1091.034,2341.813,1112.822,2348.7,1118.365Z" transform="translate(-2276.079 -1086.218)" fill="#2d3547"/>
        <path id="Path_15086" data-name="Path 15086" d="M2370.276,1179.043a38.874,38.874,0,0,0-6.435,0,20.68,20.68,0,0,0-5.584,1.4c-3.045,1.273-2.726,6.665,3.664,5.667S2370.724,1180.641,2370.276,1179.043Z" transform="translate(-2284.369 -1149.914)" fill="#ffb27d"/>
        <path id="Path_15087" data-name="Path 15087" d="M2362.718,1165.588c-.037.02-.912,4.638,3.272,4.453,2.747-.121,8.671-3.444,8.147-5.8-.249-1.118-2.324-4.018-2.742-10.638l-.5.134-8.406,2.255s.373,2.668.546,5.194C2363.183,1163.31,2363.188,1165.33,2362.718,1165.588Z" transform="translate(-2288.561 -1132.528)" fill="#ffb27d"/>
        <path id="Path_15088" data-name="Path 15088" d="M2362.489,1156.289s.373,2.668.546,5.193c4.759-.452,6.989-4.969,7.86-7.448Z" transform="translate(-2288.561 -1132.821)" fill="#f4a269"/>
        <path id="Path_15089" data-name="Path 15089" d="M2358.085,1113.105a25.11,25.11,0,0,0,2.61-7.529c.268-2.439-1.555-11.289-10.446-9.4a12.222,12.222,0,0,0-4.93,2.249c-1.861,1.446-4.484,4.476-.819,12.061l.992,2.579Z" transform="translate(-2274.931 -1092.878)" fill="#2d3547"/>
        <path id="Path_15090" data-name="Path 15090" d="M2347.728,1126.693s11.292-.566,10.831-7.592.687-11.832-6.542-11.768-8.453,2.837-8.869,5.22S2344.779,1126.66,2347.728,1126.693Z" transform="translate(-2275.232 -1100.728)" fill="#ffb27d"/>
        <path id="Path_15091" data-name="Path 15091" d="M2355.159,1104.307s3.637,8.037,8.459,8.94,6.792-.5,6.792-.5a13.454,13.454,0,0,1-4.919-7.637S2357.227,1100.228,2355.159,1104.307Z" transform="translate(-2283.523 -1097.531)" fill="#2d3547"/>
        <path id="Path_15092" data-name="Path 15092" d="M2345.771,1107.186s-2.183,1.994-2.627,3.821-.451,5.526-1.532,5.473c0,0-2.7-5.448-.3-8.791C2343.865,1104.143,2345.771,1107.186,2345.771,1107.186Z" transform="translate(-2273.325 -1099.792)" fill="#2d3547"/>
        <path id="Path_15093" data-name="Path 15093" d="M2321.31,1226.56c.914,1.092,3.767,1.428,6.817,1.93a20.462,20.462,0,0,1,6.713,1.946c4.07,2.39,17.37,10.467,21.268,10.1,1.511-.142,1.228-3.027.313-6.855-1.441-6.045-4.457-14.44-4.457-18.09a106.06,106.06,0,0,0-1.548-12.1q-.108-.652-.219-1.315c-1.751-10.479-4.176-22.836-4.176-22.836s-2.7,5.9-7.975,5.9-4.044-4.5-4.044-4.5-4.809.566-5.944,1.789a46.992,46.992,0,0,0-4.59,7.956s-.116,1.835,4.428,2.709a59.625,59.625,0,0,0-1.238,8.3c-.1,2.454,1.675,10.133,2.184,14.91a8.805,8.805,0,0,1-.07,3.621,7.031,7.031,0,0,1-2.783,2.294C2323.419,1223.822,2320.226,1225.261,2321.31,1226.56Z" transform="translate(-2260.113 -1150.214)" fill="url(#linear-gradient-16)"/>
        <path id="Path_15094" data-name="Path 15094" d="M2335.653,1265.488c-2.917,4.973,7.91,6.468,9.7,7.521,4.07,2.39,16.518,11.055,20.416,10.688,1.511-.142,1.228-3.027.313-6.855-1.441-6.045-4.457-14.44-4.457-18.09a106.029,106.029,0,0,0-1.548-12.1l-4.692-4.5s-5.028,12.994-9.819,15.123a40.348,40.348,0,0,1-7.063,2.3,8.812,8.812,0,0,1-.07,3.621A7.031,7.031,0,0,1,2335.653,1265.488Z" transform="translate(-2269.778 -1193.375)" opacity="0.1"/>
        <path id="Path_15095" data-name="Path 15095" d="M2349.508,1190.367s4.012-2.436,7.89,2.186-2.756,37.656-8.5,39.354c-6.384,1.885-24.825-.3-24.825-.3l.355-2.882s19.632-3.764,20.447-4.813S2347.468,1190.9,2349.508,1190.367Z" transform="translate(-2262.159 -1157.349)" fill="#ffb27d"/>
        <path id="Path_15096" data-name="Path 15096" d="M2395.79,1179.341s8.239.743,10.632,3.453,3.092,10.052,3.092,10.052-7.255,5.856-16,3.584Z" transform="translate(-2309.883 -1150.212)" fill="url(#linear-gradient-16)"/>
        <g id="Group_14195" data-name="Group 14195" transform="translate(19.39 60.944)">
          <rect id="Rectangle_20179" data-name="Rectangle 20179" width="10.882" height="1.286" transform="translate(40.595 16.142) rotate(180)" fill="url(#linear-gradient)"/>
          <path id="Path_15097" data-name="Path 15097" d="M2220.156,1297.019c-.106-.426-10-15.966-10-15.966h-22.021l11.045,15.549Z" transform="translate(-2188.132 -1281.052)" fill="url(#linear-gradient)"/>
          <path id="Path_15098" data-name="Path 15098" d="M2219.23,1297.194c-.106-.425-10.035-16.142-10.035-16.142h-21.062l10.508,16.142Z" transform="translate(-2188.132 -1281.052)" fill="url(#linear-gradient)"/>
          <path id="Path_15099" data-name="Path 15099" d="M2228.045,1304.517a1.759,1.759,0,0,0,1.533,1.14.785.785,0,0,0,.747-1.14,1.758,1.758,0,0,0-1.533-1.14A.786.786,0,0,0,2228.045,1304.517Z" transform="translate(-2215.515 -1296.394)" fill="#fff" opacity="0.1"/>
        </g>
        <path id="Path_15100" data-name="Path 15100" d="M2305.118,1311.7s-6.392-1.237-7.114-.928-4.743,3.918-4.33,4.64,2.062,1.237,3.918.618,5.876-.928,6.6-1.856A6.063,6.063,0,0,0,2305.118,1311.7Z" transform="translate(-2241.251 -1240.5)" fill="#ffb27d"/>
      </g>
    </g>
    <g id="Group_14202" data-name="Group 14202" transform="translate(598.892 462.976)">
      <path id="Path_15101" data-name="Path 15101" d="M1553.937,636.941H1352.8l-15.415-50.479h201.14Z" transform="translate(-1337.382 -586.462)" fill="#fafdff"/>
      <g id="Group_14200" data-name="Group 14200" transform="translate(16.964 12.239)">
        <path id="Path_15102" data-name="Path 15102" d="M1568.136,630.418l1.844,6.038c.811,2.657-.7,4.83-3.355,4.83H1399.983a7.112,7.112,0,0,1-6.3-4.83l-1.844-6.038c-.811-2.656.7-4.83,3.355-4.83h166.641A7.113,7.113,0,0,1,1568.136,630.418Z" transform="translate(-1391.615 -625.588)" opacity="0.25" fill="url(#linear-gradient-9)"/>
        <g id="Group_14198" data-name="Group 14198" transform="translate(140.354 5.22)">
          <path id="Path_15103" data-name="Path 15103" d="M1843.117,643.337h-2.557l-.24-.784h3.574l.206.676-.949,4.409h-1Z" transform="translate(-1840.32 -642.466)" fill="#356d7a"/>
          <path id="Path_15104" data-name="Path 15104" d="M1855.895,644.9c-.444-1.453.083-2.629,1.42-2.629a3.469,3.469,0,0,1,3.011,2.629c.444,1.453-.083,2.629-1.42,2.629A3.462,3.462,0,0,1,1855.895,644.9Zm3.508,0c-.305-1-1.072-1.823-1.856-1.823s-1.041.8-.729,1.823c.306,1,1.065,1.823,1.856,1.823S1859.714,645.921,1859.4,644.9Z" transform="translate(-1850.917 -642.275)" fill="#356d7a"/>
          <path id="Path_15105" data-name="Path 15105" d="M1871.428,643.668c-.215-.7.089-1.3.808-1.3a1.785,1.785,0,0,1,1.588,1.3c.216.7-.089,1.3-.808,1.3A1.786,1.786,0,0,1,1871.428,643.668Zm3.854-1.242H1876l-2.167,5.085h-.719Zm-2.1,1.242a.97.97,0,0,0-.785-.741c-.342,0-.443.334-.318.741a.961.961,0,0,0,.785.741C1873.2,644.409,1873.3,644.075,1873.178,643.668Zm2.115,2.6c-.215-.7.09-1.3.809-1.3a1.787,1.787,0,0,1,1.589,1.3c.215.7-.09,1.3-.809,1.3A1.788,1.788,0,0,1,1875.294,646.269Zm1.751,0a.968.968,0,0,0-.785-.741c-.342,0-.443.334-.318.741a.961.961,0,0,0,.785.741C1877.068,647.009,1877.169,646.675,1877.045,646.269Z" transform="translate(-1861.651 -642.339)" fill="#356d7a"/>
        </g>
        <g id="Group_14199" data-name="Group 14199">
          <path id="Path_15106" data-name="Path 15106" d="M1507.87,625.588l4.794,15.7h-112.68a7.092,7.092,0,0,1-5.736-3.546,5.943,5.943,0,0,1-.569-1.284l-1.844-6.038c-.811-2.656.7-4.83,3.355-4.83Z" transform="translate(-1391.615 -625.588)" fill="url(#linear-gradient-9)"/>
          <path id="Path_15107" data-name="Path 15107" d="M1420.917,625.588l-4.75,15.7h-10.4a7.093,7.093,0,0,1-5.736-3.546l3.676-12.152Z" transform="translate(-1397.398 -625.588)" fill="#fff" opacity="0.25"/>
          <path id="Path_15108" data-name="Path 15108" d="M1512.838,625.588l-4.75,15.7H1490.88l4.75-15.7Z" transform="translate(-1459.83 -625.588)" fill="#fff" opacity="0.25"/>
          <path id="Path_15109" data-name="Path 15109" d="M1607.115,625.588l-4.75,15.7h-17.212l4.75-15.7Z" transform="translate(-1524.614 -625.588)" fill="#fff" opacity="0.25"/>
          <path id="Path_15110" data-name="Path 15110" d="M1701.4,625.588l-4.75,15.7h-17.211l4.75-15.7Z" transform="translate(-1589.408 -625.588)" fill="#fff" opacity="0.25"/>
        </g>
      </g>
      <g id="Group_14201" data-name="Group 14201" transform="translate(25.165 35.16)">
        <path id="Path_15111" data-name="Path 15111" d="M1448.564,700.942h-30.1l-.634-2.076h30.1Z" transform="translate(-1417.834 -698.866)" fill="#cdd2f9"/>
        <path id="Path_15112" data-name="Path 15112" d="M1446,719.5h-21.867l-.634-2.076h21.867Z" transform="translate(-1421.729 -711.62)" fill="#cdd2f9"/>
        <path id="Path_15113" data-name="Path 15113" d="M1511.427,719.5h-13.071l-.634-2.076h13.071Z" transform="translate(-1472.733 -711.62)" fill="#cdd2f9"/>
        <path id="Path_15114" data-name="Path 15114" d="M1567.339,719.5h-19.968l-.634-2.076h19.968Z" transform="translate(-1506.417 -711.62)" fill="#cdd2f9"/>
        <path id="Path_15115" data-name="Path 15115" d="M1531.029,700.942h-9.112l-.634-2.076h9.112Z" transform="translate(-1488.925 -698.866)" fill="#cdd2f9"/>
        <path id="Path_15116" data-name="Path 15116" d="M1594.154,700.942h-33.135l-.634-2.076h33.136Z" transform="translate(-1515.795 -698.866)" fill="#cdd2f9"/>
      </g>
    </g>
    <g id="Group_14218" data-name="Group 14218" transform="translate(380.46 517.619)">
      <path id="Path_15117" data-name="Path 15117" d="M802.558,833.18h-141.5l-21.994-72.024h141.5Z" transform="translate(-639.065 -761.155)" fill="#cdd2f9"/>
      <path id="Path_15118" data-name="Path 15118" d="M805.927,809.036H682.377l-9.347-30.61H796.58Z" transform="translate(-662.405 -773.023)" fill="#fff" opacity="0.5"/>
      <g id="Group_14203" data-name="Group 14203" transform="translate(18.859 9.991)" opacity="0.5">
        <path id="Path_15119" data-name="Path 15119" d="M720.783,794.727H699.855l-.5-1.633h20.929Z" transform="translate(-699.356 -793.095)" fill="#fff"/>
        <path id="Path_15120" data-name="Path 15120" d="M800.088,794.727H782.682l-.5-1.633H799.59Z" transform="translate(-756.275 -793.095)" fill="#fff"/>
        <path id="Path_15121" data-name="Path 15121" d="M888.8,794.727H852.827l-.5-1.633H888.3Z" transform="translate(-804.479 -793.095)" fill="#fff"/>
        <path id="Path_15122" data-name="Path 15122" d="M726.5,813.433H705.567l-.5-1.633H726Z" transform="translate(-703.282 -805.949)" fill="#fff"/>
        <path id="Path_15123" data-name="Path 15123" d="M805.8,813.433H788.394l-.5-1.633H805.3Z" transform="translate(-760.201 -805.949)" fill="#fff"/>
        <path id="Path_15124" data-name="Path 15124" d="M871.519,813.433H854.113l-.5-1.633H871.02Z" transform="translate(-805.363 -805.949)" fill="#fff"/>
        <path id="Path_15125" data-name="Path 15125" d="M962.592,815.608H926.616l-.5-1.633h35.976Z" transform="translate(-855.187 -807.443)" fill="#fff"/>
      </g>
      <g id="Group_14204" data-name="Group 14204" transform="translate(22.911 23.259)" opacity="0.5">
        <path id="Path_15126" data-name="Path 15126" d="M733.737,837.148H712.809l-.5-1.633h20.929Z" transform="translate(-712.31 -835.515)" fill="#fff"/>
        <path id="Path_15127" data-name="Path 15127" d="M813.042,837.148H795.636l-.5-1.633h17.406Z" transform="translate(-769.229 -835.515)" fill="#fff"/>
        <path id="Path_15128" data-name="Path 15128" d="M901.756,837.148H865.78l-.5-1.633h35.976Z" transform="translate(-817.432 -835.515)" fill="#fff"/>
        <path id="Path_15129" data-name="Path 15129" d="M739.449,855.853H718.521l-.5-1.633h20.929Z" transform="translate(-716.235 -848.369)" fill="#fff"/>
        <path id="Path_15130" data-name="Path 15130" d="M818.754,855.853H801.348l-.5-1.633h17.406Z" transform="translate(-773.154 -848.369)" fill="#fff"/>
        <path id="Path_15131" data-name="Path 15131" d="M884.473,855.853H867.066l-.5-1.633h17.406Z" transform="translate(-818.316 -848.369)" fill="#fff"/>
        <path id="Path_15132" data-name="Path 15132" d="M975.546,858.028H939.57l-.5-1.633h35.976Z" transform="translate(-868.141 -849.864)" fill="#fff"/>
      </g>
      <g id="Group_14217" data-name="Group 14217" transform="translate(40.404 43.976)">
        <g id="Group_14207" data-name="Group 14207" transform="translate(50.662)">
          <g id="Group_14205" data-name="Group 14205">
            <path id="Path_15133" data-name="Path 15133" d="M941.95,919.139c-4.8,0-9.889-3.9-11.353-8.7s1.246-8.7,6.041-8.7,9.889,3.9,11.353,8.7S946.746,919.139,941.95,919.139Zm-4.827-15.806c-3.92,0-6.135,3.189-4.938,7.109s5.36,7.109,9.28,7.109,6.135-3.189,4.938-7.109S941.044,903.332,937.124,903.332Z" transform="translate(-930.2 -901.744)" fill="#fff"/>
          </g>
          <g id="Group_14206" data-name="Group 14206" transform="translate(3.65 5.107)">
            <path id="Path_15134" data-name="Path 15134" d="M948.488,926.084a1.828,1.828,0,0,1-.981-.4l-4.932-3.908a1.441,1.441,0,0,1-.53-1.871,1.332,1.332,0,0,1,1.884.041l3.485,2.761,1.713-4.086c.248-.591,1.035-.723,1.758-.3a1.627,1.627,0,0,1,.86,1.849l-2.252,5.371a.912.912,0,0,1-.816.544A1.3,1.3,0,0,1,948.488,926.084Z" transform="translate(-941.868 -918.07)" fill="#fff"/>
          </g>
        </g>
        <g id="Group_14210" data-name="Group 14210" transform="translate(25.777)">
          <g id="Group_14208" data-name="Group 14208">
            <path id="Path_15135" data-name="Path 15135" d="M862.393,919.139c-4.8,0-9.889-3.9-11.353-8.7s1.245-8.7,6.041-8.7,9.888,3.9,11.353,8.7S867.188,919.139,862.393,919.139Zm-4.827-15.806c-3.92,0-6.135,3.189-4.938,7.109s5.36,7.109,9.28,7.109,6.135-3.189,4.938-7.109S861.486,903.332,857.566,903.332Z" transform="translate(-850.643 -901.744)" fill="#fff"/>
          </g>
          <g id="Group_14209" data-name="Group 14209" transform="translate(3.65 5.107)">
            <path id="Path_15136" data-name="Path 15136" d="M868.93,926.084a1.828,1.828,0,0,1-.981-.4l-4.932-3.908a1.441,1.441,0,0,1-.53-1.871,1.332,1.332,0,0,1,1.884.041l3.485,2.761,1.713-4.086c.248-.591,1.035-.723,1.758-.3a1.627,1.627,0,0,1,.86,1.849l-2.252,5.371a.911.911,0,0,1-.816.544A1.307,1.307,0,0,1,868.93,926.084Z" transform="translate(-862.31 -918.07)" fill="#fff"/>
          </g>
        </g>
        <g id="Group_14213" data-name="Group 14213">
          <g id="Group_14211" data-name="Group 14211">
            <path id="Path_15137" data-name="Path 15137" d="M779.985,919.139c-4.8,0-9.888-3.9-11.353-8.7s1.246-8.7,6.041-8.7,9.889,3.9,11.353,8.7S784.781,919.139,779.985,919.139Zm-4.826-15.806c-3.92,0-6.135,3.189-4.938,7.109s5.36,7.109,9.28,7.109,6.135-3.189,4.938-7.109S779.078,903.332,775.158,903.332Z" transform="translate(-768.234 -901.744)" fill="#fff"/>
          </g>
          <g id="Group_14212" data-name="Group 14212" transform="translate(3.65 5.107)">
            <path id="Path_15138" data-name="Path 15138" d="M786.522,926.084a1.828,1.828,0,0,1-.981-.4l-4.932-3.908a1.44,1.44,0,0,1-.53-1.871,1.332,1.332,0,0,1,1.884.041l3.485,2.761,1.713-4.086c.248-.591,1.035-.723,1.758-.3a1.627,1.627,0,0,1,.859,1.849l-2.251,5.371a.912.912,0,0,1-.816.544A1.307,1.307,0,0,1,786.522,926.084Z" transform="translate(-779.902 -918.07)" fill="#fff"/>
          </g>
        </g>
        <g id="Group_14216" data-name="Group 14216" transform="translate(74.671)">
          <g id="Group_14214" data-name="Group 14214">
            <path id="Path_15139" data-name="Path 15139" d="M1018.706,919.139c-4.8,0-9.888-3.9-11.353-8.7s1.246-8.7,6.041-8.7,9.888,3.9,11.353,8.7S1023.5,919.139,1018.706,919.139Zm-4.827-15.806c-3.92,0-6.135,3.189-4.938,7.109s5.36,7.109,9.28,7.109,6.135-3.189,4.938-7.109S1017.8,903.332,1013.879,903.332Z" transform="translate(-1006.955 -901.744)" fill="#fff"/>
          </g>
          <g id="Group_14215" data-name="Group 14215" transform="translate(6.74 3.966)">
            <path id="Path_15140" data-name="Path 15140" d="M1031.291,920.577h0a1.811,1.811,0,0,1-1.6-1.23l-1.128-3.695a.881.881,0,0,1,.854-1.23h0a1.811,1.811,0,0,1,1.606,1.23l1.128,3.695A.881.881,0,0,1,1031.291,920.577Z" transform="translate(-1028.502 -914.422)" fill="#fff"/>
            <path id="Path_15141" data-name="Path 15141" d="M1036.836,938.549h-.266a1.615,1.615,0,0,1-1.432-1.1h0a.785.785,0,0,1,.762-1.1h.266a1.615,1.615,0,0,1,1.432,1.1h0A.786.786,0,0,1,1036.836,938.549Z" transform="translate(-1033.028 -929.494)" fill="#fff"/>
          </g>
        </g>
      </g>
    </g>
    <g id="Group_14224" data-name="Group 14224" transform="translate(810.417 564.351)">
      <g id="Group_14219" data-name="Group 14219" transform="translate(0 10.427)" opacity="0.5">
        <path id="Path_15142" data-name="Path 15142" d="M2016.271,943.891v2.578h-2.656v-2.578Z" transform="translate(-2013.615 -943.891)" fill="#afcdfb"/>
        <path id="Path_15143" data-name="Path 15143" d="M2016.271,960.559v2.578h-2.656v-2.578Z" transform="translate(-2013.615 -955.345)" fill="#afcdfb"/>
        <path id="Path_15144" data-name="Path 15144" d="M2016.271,977.227v2.578h-2.656v-2.578Z" transform="translate(-2013.615 -966.8)" fill="#afcdfb"/>
        <path id="Path_15145" data-name="Path 15145" d="M2016.271,993.9v2.578h-2.656V993.9Z" transform="translate(-2013.615 -978.254)" fill="#afcdfb"/>
        <path id="Path_15146" data-name="Path 15146" d="M2016.271,1010.564v2.578h-2.656v-2.578Z" transform="translate(-2013.615 -989.709)" fill="#afcdfb"/>
        <path id="Path_15147" data-name="Path 15147" d="M2016.271,1027.231v2.578h-2.656v-2.578Z" transform="translate(-2013.615 -1001.162)" fill="#afcdfb"/>
        <path id="Path_15148" data-name="Path 15148" d="M2016.271,1043.9v2.578h-2.656V1043.9Z" transform="translate(-2013.615 -1012.617)" fill="#afcdfb"/>
        <path id="Path_15149" data-name="Path 15149" d="M2016.271,1060.568v2.578h-2.656v-2.578Z" transform="translate(-2013.615 -1024.072)" fill="#afcdfb"/>
        <path id="Path_15150" data-name="Path 15150" d="M2016.271,1077.236v2.578h-2.656v-2.578Z" transform="translate(-2013.615 -1035.526)" fill="#afcdfb"/>
        <path id="Path_15151" data-name="Path 15151" d="M2016.271,1093.9v2.578h-2.656V1093.9Z" transform="translate(-2013.615 -1046.98)" fill="#afcdfb"/>
        <path id="Path_15152" data-name="Path 15152" d="M2016.271,1110.572v2.578h-2.656v-2.578Z" transform="translate(-2013.615 -1058.434)" fill="#afcdfb"/>
        <path id="Path_15153" data-name="Path 15153" d="M2016.271,1127.24v2.578h-2.656v-2.578Z" transform="translate(-2013.615 -1069.889)" fill="#afcdfb"/>
        <path id="Path_15154" data-name="Path 15154" d="M2016.271,1143.908v2.578h-2.656v-2.578Z" transform="translate(-2013.615 -1081.343)" fill="#afcdfb"/>
        <path id="Path_15155" data-name="Path 15155" d="M2016.271,1160.577v2.578h-2.656v-2.578Z" transform="translate(-2013.615 -1092.798)" fill="#afcdfb"/>
        <path id="Path_15156" data-name="Path 15156" d="M2016.271,1177.245v2.578h-2.656v-2.578Z" transform="translate(-2013.615 -1104.253)" fill="#afcdfb"/>
        <path id="Path_15157" data-name="Path 15157" d="M2016.271,1193.913v2.578h-2.656v-2.578Z" transform="translate(-2013.615 -1115.707)" fill="#afcdfb"/>
        <path id="Path_15158" data-name="Path 15158" d="M2016.271,1210.581v2.578h-2.656v-2.578Z" transform="translate(-2013.615 -1127.161)" fill="#afcdfb"/>
        <path id="Path_15159" data-name="Path 15159" d="M2016.271,1227.249v2.578h-2.656v-2.578Z" transform="translate(-2013.615 -1138.615)" fill="#afcdfb"/>
      </g>
      <g id="Group_14220" data-name="Group 14220" transform="translate(8.118 41.71)" opacity="0.5">
        <path id="Path_15160" data-name="Path 15160" d="M2042.224,1043.9v2.578h-2.656V1043.9Z" transform="translate(-2039.568 -1043.899)" fill="#afcdfb"/>
        <path id="Path_15161" data-name="Path 15161" d="M2042.224,1060.568v2.578h-2.656v-2.578Z" transform="translate(-2039.568 -1055.354)" fill="#afcdfb"/>
        <path id="Path_15162" data-name="Path 15162" d="M2042.224,1077.236v2.578h-2.656v-2.578Z" transform="translate(-2039.568 -1066.808)" fill="#afcdfb"/>
        <path id="Path_15163" data-name="Path 15163" d="M2042.224,1093.9v2.578h-2.656V1093.9Z" transform="translate(-2039.568 -1078.263)" fill="#afcdfb"/>
        <path id="Path_15164" data-name="Path 15164" d="M2042.224,1110.572v2.578h-2.656v-2.578Z" transform="translate(-2039.568 -1089.717)" fill="#afcdfb"/>
        <path id="Path_15165" data-name="Path 15165" d="M2042.224,1127.24v2.578h-2.656v-2.578Z" transform="translate(-2039.568 -1101.171)" fill="#afcdfb"/>
        <path id="Path_15166" data-name="Path 15166" d="M2042.224,1143.908v2.578h-2.656v-2.578Z" transform="translate(-2039.568 -1112.625)" fill="#afcdfb"/>
        <path id="Path_15167" data-name="Path 15167" d="M2042.224,1160.577v2.578h-2.656v-2.578Z" transform="translate(-2039.568 -1124.08)" fill="#afcdfb"/>
        <path id="Path_15168" data-name="Path 15168" d="M2042.224,1177.245v2.578h-2.656v-2.578Z" transform="translate(-2039.568 -1135.535)" fill="#afcdfb"/>
        <path id="Path_15169" data-name="Path 15169" d="M2042.224,1193.913v2.578h-2.656v-2.578Z" transform="translate(-2039.568 -1146.989)" fill="#afcdfb"/>
        <path id="Path_15170" data-name="Path 15170" d="M2042.224,1210.581v2.578h-2.656v-2.578Z" transform="translate(-2039.568 -1158.443)" fill="#afcdfb"/>
        <path id="Path_15171" data-name="Path 15171" d="M2042.224,1227.249v2.578h-2.656v-2.578Z" transform="translate(-2039.568 -1169.897)" fill="#afcdfb"/>
      </g>
      <g id="Group_14221" data-name="Group 14221" transform="translate(16.389 10.427)" opacity="0.5">
        <path id="Path_15172" data-name="Path 15172" d="M2068.665,943.891v2.578h-2.656v-2.578Z" transform="translate(-2066.009 -943.891)" fill="#afcdfb"/>
        <path id="Path_15173" data-name="Path 15173" d="M2068.665,960.559v2.578h-2.656v-2.578Z" transform="translate(-2066.009 -955.345)" fill="#afcdfb"/>
        <path id="Path_15174" data-name="Path 15174" d="M2068.665,977.227v2.578h-2.656v-2.578Z" transform="translate(-2066.009 -966.8)" fill="#afcdfb"/>
        <path id="Path_15175" data-name="Path 15175" d="M2068.665,993.9v2.578h-2.656V993.9Z" transform="translate(-2066.009 -978.254)" fill="#afcdfb"/>
        <path id="Path_15176" data-name="Path 15176" d="M2068.665,1010.564v2.578h-2.656v-2.578Z" transform="translate(-2066.009 -989.709)" fill="#afcdfb"/>
        <path id="Path_15177" data-name="Path 15177" d="M2068.665,1027.231v2.578h-2.656v-2.578Z" transform="translate(-2066.009 -1001.162)" fill="#afcdfb"/>
        <path id="Path_15178" data-name="Path 15178" d="M2068.665,1043.9v2.578h-2.656V1043.9Z" transform="translate(-2066.009 -1012.617)" fill="#afcdfb"/>
        <path id="Path_15179" data-name="Path 15179" d="M2068.665,1060.568v2.578h-2.656v-2.578Z" transform="translate(-2066.009 -1024.072)" fill="#afcdfb"/>
        <path id="Path_15180" data-name="Path 15180" d="M2068.665,1077.236v2.578h-2.656v-2.578Z" transform="translate(-2066.009 -1035.526)" fill="#afcdfb"/>
        <path id="Path_15181" data-name="Path 15181" d="M2068.665,1093.9v2.578h-2.656V1093.9Z" transform="translate(-2066.009 -1046.98)" fill="#afcdfb"/>
        <path id="Path_15182" data-name="Path 15182" d="M2068.665,1110.572v2.578h-2.656v-2.578Z" transform="translate(-2066.009 -1058.434)" fill="#afcdfb"/>
        <path id="Path_15183" data-name="Path 15183" d="M2068.665,1127.24v2.578h-2.656v-2.578Z" transform="translate(-2066.009 -1069.889)" fill="#afcdfb"/>
        <path id="Path_15184" data-name="Path 15184" d="M2068.665,1143.908v2.578h-2.656v-2.578Z" transform="translate(-2066.009 -1081.343)" fill="#afcdfb"/>
        <path id="Path_15185" data-name="Path 15185" d="M2068.665,1160.577v2.578h-2.656v-2.578Z" transform="translate(-2066.009 -1092.798)" fill="#afcdfb"/>
        <path id="Path_15186" data-name="Path 15186" d="M2068.665,1177.245v2.578h-2.656v-2.578Z" transform="translate(-2066.009 -1104.253)" fill="#afcdfb"/>
        <path id="Path_15187" data-name="Path 15187" d="M2068.665,1193.913v2.578h-2.656v-2.578Z" transform="translate(-2066.009 -1115.707)" fill="#afcdfb"/>
        <path id="Path_15188" data-name="Path 15188" d="M2068.665,1210.581v2.578h-2.656v-2.578Z" transform="translate(-2066.009 -1127.161)" fill="#afcdfb"/>
        <path id="Path_15189" data-name="Path 15189" d="M2068.665,1227.249v2.578h-2.656v-2.578Z" transform="translate(-2066.009 -1138.615)" fill="#afcdfb"/>
      </g>
      <g id="Group_14222" data-name="Group 14222" transform="translate(23.353)" opacity="0.5">
        <path id="Path_15190" data-name="Path 15190" d="M2090.93,910.555v2.578h-2.655v-2.578Z" transform="translate(-2088.275 -910.555)" fill="#afcdfb"/>
        <path id="Path_15191" data-name="Path 15191" d="M2090.93,927.223V929.8h-2.655v-2.578Z" transform="translate(-2088.275 -922.009)" fill="#afcdfb"/>
        <path id="Path_15192" data-name="Path 15192" d="M2090.93,943.891v2.578h-2.655v-2.578Z" transform="translate(-2088.275 -933.464)" fill="#afcdfb"/>
        <path id="Path_15193" data-name="Path 15193" d="M2090.93,960.559v2.578h-2.655v-2.578Z" transform="translate(-2088.275 -944.918)" fill="#afcdfb"/>
        <path id="Path_15194" data-name="Path 15194" d="M2090.93,977.227v2.578h-2.655v-2.578Z" transform="translate(-2088.275 -956.372)" fill="#afcdfb"/>
        <path id="Path_15195" data-name="Path 15195" d="M2090.93,993.9v2.578h-2.655V993.9Z" transform="translate(-2088.275 -967.826)" fill="#afcdfb"/>
        <path id="Path_15196" data-name="Path 15196" d="M2090.93,1010.564v2.578h-2.655v-2.578Z" transform="translate(-2088.275 -979.281)" fill="#afcdfb"/>
        <path id="Path_15197" data-name="Path 15197" d="M2090.93,1027.231v2.578h-2.655v-2.578Z" transform="translate(-2088.275 -990.735)" fill="#afcdfb"/>
        <path id="Path_15198" data-name="Path 15198" d="M2090.93,1043.9v2.578h-2.655V1043.9Z" transform="translate(-2088.275 -1002.189)" fill="#afcdfb"/>
        <path id="Path_15199" data-name="Path 15199" d="M2090.93,1060.568v2.578h-2.655v-2.578Z" transform="translate(-2088.275 -1013.644)" fill="#afcdfb"/>
        <path id="Path_15200" data-name="Path 15200" d="M2090.93,1077.236v2.578h-2.655v-2.578Z" transform="translate(-2088.275 -1025.099)" fill="#afcdfb"/>
        <path id="Path_15201" data-name="Path 15201" d="M2090.93,1093.9v2.578h-2.655V1093.9Z" transform="translate(-2088.275 -1036.553)" fill="#afcdfb"/>
        <path id="Path_15202" data-name="Path 15202" d="M2090.93,1110.572v2.578h-2.655v-2.578Z" transform="translate(-2088.275 -1048.007)" fill="#afcdfb"/>
        <path id="Path_15203" data-name="Path 15203" d="M2090.93,1127.24v2.578h-2.655v-2.578Z" transform="translate(-2088.275 -1059.461)" fill="#afcdfb"/>
        <path id="Path_15204" data-name="Path 15204" d="M2090.93,1143.908v2.578h-2.655v-2.578Z" transform="translate(-2088.275 -1070.916)" fill="#afcdfb"/>
        <path id="Path_15205" data-name="Path 15205" d="M2090.93,1160.577v2.578h-2.655v-2.578Z" transform="translate(-2088.275 -1082.371)" fill="#afcdfb"/>
        <path id="Path_15206" data-name="Path 15206" d="M2090.93,1177.245v2.578h-2.655v-2.578Z" transform="translate(-2088.275 -1093.825)" fill="#afcdfb"/>
        <path id="Path_15207" data-name="Path 15207" d="M2090.93,1193.913v2.578h-2.655v-2.578Z" transform="translate(-2088.275 -1105.279)" fill="#afcdfb"/>
        <path id="Path_15208" data-name="Path 15208" d="M2090.93,1210.581v2.578h-2.655v-2.578Z" transform="translate(-2088.275 -1116.734)" fill="#afcdfb"/>
        <path id="Path_15209" data-name="Path 15209" d="M2090.93,1227.249v2.578h-2.655v-2.578Z" transform="translate(-2088.275 -1128.188)" fill="#afcdfb"/>
      </g>
      <g id="Group_14223" data-name="Group 14223" transform="translate(32.543 46.924)" opacity="0.5">
        <path id="Path_15210" data-name="Path 15210" d="M2120.309,1060.568v2.578h-2.655v-2.578Z" transform="translate(-2117.654 -1060.568)" fill="#afcdfb"/>
        <path id="Path_15211" data-name="Path 15211" d="M2120.309,1077.236v2.578h-2.655v-2.578Z" transform="translate(-2117.654 -1072.022)" fill="#afcdfb"/>
        <path id="Path_15212" data-name="Path 15212" d="M2120.309,1093.9v2.578h-2.655V1093.9Z" transform="translate(-2117.654 -1083.477)" fill="#afcdfb"/>
        <path id="Path_15213" data-name="Path 15213" d="M2120.309,1110.572v2.578h-2.655v-2.578Z" transform="translate(-2117.654 -1094.931)" fill="#afcdfb"/>
        <path id="Path_15214" data-name="Path 15214" d="M2120.309,1127.24v2.578h-2.655v-2.578Z" transform="translate(-2117.654 -1106.385)" fill="#afcdfb"/>
        <path id="Path_15215" data-name="Path 15215" d="M2120.309,1143.908v2.578h-2.655v-2.578Z" transform="translate(-2117.654 -1117.839)" fill="#afcdfb"/>
        <path id="Path_15216" data-name="Path 15216" d="M2120.309,1160.577v2.578h-2.655v-2.578Z" transform="translate(-2117.654 -1129.295)" fill="#afcdfb"/>
        <path id="Path_15217" data-name="Path 15217" d="M2120.309,1177.245v2.578h-2.655v-2.578Z" transform="translate(-2117.654 -1140.749)" fill="#afcdfb"/>
        <path id="Path_15218" data-name="Path 15218" d="M2120.309,1193.913v2.578h-2.655v-2.578Z" transform="translate(-2117.654 -1152.203)" fill="#afcdfb"/>
        <path id="Path_15219" data-name="Path 15219" d="M2120.309,1210.581v2.578h-2.655v-2.578Z" transform="translate(-2117.654 -1163.657)" fill="#afcdfb"/>
        <path id="Path_15220" data-name="Path 15220" d="M2120.309,1227.249v2.578h-2.655v-2.578Z" transform="translate(-2117.654 -1175.111)" fill="#afcdfb"/>
      </g>
    </g>
    <path id="Path_14539" data-name="Path 14539" d="M354.987,664.381a33.428,33.428,0,0,0,0-10.867h-9.316a24.254,24.254,0,0,0-3.12-7.531l6.586-6.587a33.718,33.718,0,0,0-7.684-7.683l-6.586,6.586a24.218,24.218,0,0,0-7.531-3.12v-9.316a33.431,33.431,0,0,0-10.868,0v9.316a24.222,24.222,0,0,0-7.531,3.12l-6.586-6.586a33.718,33.718,0,0,0-7.684,7.683l6.586,6.587a24.269,24.269,0,0,0-3.121,7.531h-9.316a33.432,33.432,0,0,0,0,10.867h9.316a24.267,24.267,0,0,0,3.121,7.531l-6.586,6.587a33.719,33.719,0,0,0,7.684,7.685l6.586-6.587a24.237,24.237,0,0,0,7.531,3.12v9.316a33.434,33.434,0,0,0,10.868,0v-9.316a24.237,24.237,0,0,0,7.531-3.12l6.583,6.586a33.722,33.722,0,0,0,7.684-7.685l-6.586-6.587a24.251,24.251,0,0,0,3.12-7.531ZM321.9,670.949a12,12,0,1,1,12-12v0a12,12,0,0,1-12,12Z" transform="translate(-17.607 -150.257)" fill="#cdd2f9" opacity="0.2" style="isolation: isolate"/>
    <path id="Path_14540" data-name="Path 14540" d="M2302.306,651.12a39.6,39.6,0,0,0-1.076-12.826l-11,.931a28.662,28.662,0,0,0-4.427-8.58l7.123-8.424a39.937,39.937,0,0,0-9.83-8.308l-7.122,8.426a28.7,28.7,0,0,0-9.2-2.938l-.921-11a39.588,39.588,0,0,0-12.826,1.076l.929,11a28.719,28.719,0,0,0-8.579,4.428l-8.425-7.122a39.931,39.931,0,0,0-8.308,9.829l8.425,7.122a28.709,28.709,0,0,0-2.937,9.2l-11,.921a39.618,39.618,0,0,0,1.077,12.827l11-.931a28.718,28.718,0,0,0,4.429,8.58l-7.122,8.424a39.916,39.916,0,0,0,9.829,8.308l7.122-8.426a28.682,28.682,0,0,0,9.2,2.938l.922,11a39.56,39.56,0,0,0,12.825-1.076l-.921-11a28.716,28.716,0,0,0,8.579-4.428l8.425,7.121a39.933,39.933,0,0,0,8.306-9.829l-8.424-7.122a28.71,28.71,0,0,0,2.938-9.2Zm-38.4,11.027a14.213,14.213,0,1,1,12.975-15.35,14.213,14.213,0,0,1-12.975,15.35Z" transform="translate(-1330.154 -179.004)" fill="#cdd2f9" opacity="0.2" style="isolation: isolate"/>
    <g id="Group_14226" data-name="Group 14226" transform="translate(892.428 540.045)">
      <path id="Path_14541" data-name="Path 14541" d="M2333.13,832.848h-52.019a5.31,5.31,0,0,0-5.31,5.31h0v37.781a5.31,5.31,0,0,0,5.31,5.31h20.065a2.387,2.387,0,0,1,2.134,1.316l3.255,6.479a.623.623,0,0,0,1.108,0l3.255-6.479a2.387,2.387,0,0,1,2.134-1.316h20.066a5.31,5.31,0,0,0,5.31-5.31h0V838.158a5.31,5.31,0,0,0-5.31-5.31Z" transform="translate(-2275.802 -832.848)" fill="url(#linear-gradient-31)"/>
      <g id="Group_14225" data-name="Group 14225" transform="translate(14.06 7.167)">
        <path id="Path_15221" data-name="Path 15221" d="M2355.868,857.515v28.394c-.5,1.287-1.09,1.752-2.262,1.752q-15.292,0-30.583,0a2.114,2.114,0,0,1-2.269-2.27q0-13.68,0-27.36a2.84,2.84,0,0,1,.032-.512,2.1,2.1,0,0,1,2.2-1.757q4.235-.007,8.469,0,11.023,0,22.046,0a2.2,2.2,0,0,1,2.365,1.756Zm-32.56,5.813v21.786h30V863.328Zm26.434-3.567h-.007c0-.115,0-.229,0-.343a.792.792,0,0,0-.889-.887c-.24,0-.48-.008-.719.007a.714.714,0,0,0-.708.663,6.546,6.546,0,0,0,0,1.094.709.709,0,0,0,.711.658,8.492,8.492,0,0,0,.856,0,.733.733,0,0,0,.731-.68C2349.739,860.105,2349.734,859.932,2349.742,859.761Zm-5.955-.036h-.01c0,.137,0,.275,0,.412a.764.764,0,0,0,.843.823c.239.005.48.008.719,0a.737.737,0,0,0,.757-.694,5.907,5.907,0,0,0,0-1.026.723.723,0,0,0-.683-.694,7.207,7.207,0,0,0-.959,0,.721.721,0,0,0-.667.667C2343.774,859.381,2343.787,859.554,2343.787,859.725Zm9.554.031h.009c0-.126,0-.251,0-.377a.77.77,0,0,0-.854-.847c-.229,0-.458-.006-.686,0a.757.757,0,0,0-.787.739,6.223,6.223,0,0,0,0,.959.746.746,0,0,0,.766.724,8.213,8.213,0,0,0,.856-.006.724.724,0,0,0,.691-.681C2353.354,860.1,2353.341,859.928,2353.341,859.756Z" transform="translate(-2320.752 -855.759)" fill="#fff"/>
        <path id="Path_15222" data-name="Path 15222" d="M2350.973,891.5a11.833,11.833,0,0,1,10.969,7.754,13.149,13.149,0,0,1,.825,4.319c.011.444-.07.526-.5.527q-.892,0-1.783,0c-.479,0-.538-.048-.55-.525a9.35,9.35,0,0,0-1.47-4.961,8.7,8.7,0,0,0-14.951-.017,9.453,9.453,0,0,0-1.476,4.926c-.015.546-.054.577-.6.577-.594,0-1.189-.007-1.783,0-.317.005-.461-.123-.458-.446a12.162,12.162,0,0,1,8.939-11.777c.923-.234,1.886-.312,2.83-.462Z" transform="translate(-2333.423 -880.265)" fill="#fff"/>
        <path id="Path_15223" data-name="Path 15223" d="M2373.394,913.195a2.145,2.145,0,0,1-3.51,1.462,2.093,2.093,0,0,1-.693-2.227.965.965,0,0,0-.029-.517c-.516-1.415-1.047-2.824-1.574-4.235a.6.6,0,0,1-.077-.224.446.446,0,0,1,.11-.285c.051-.041.2-.01.271.034a1.21,1.21,0,0,1,.243.239c1,1.055,1.989,2.115,3,3.158a1.212,1.212,0,0,0,.569.318A2.21,2.21,0,0,1,2373.394,913.195Z" transform="translate(-2352.884 -891.075)" fill="#fff"/>
      </g>
    </g>
  </g>
</svg>
