<?xml version="1.0" encoding="utf-8"?>
<!-- Generator: Adobe Illustrator 16.0.0, SVG Export Plug-In . SVG Version: 6.00 Build 0)  -->
<!DOCTYPE svg PUBLIC "-//W3C//DTD SVG 1.1//EN" "http://www.w3.org/Graphics/SVG/1.1/DTD/svg11.dtd">
<svg version="1.1" id="Layer_1" xmlns="http://www.w3.org/2000/svg" xmlns:xlink="http://www.w3.org/1999/xlink" x="0px" y="0px"
	 width="84.375px" height="83.875px" viewBox="0 0 84.375 83.875" enable-background="new 0 0 84.375 83.875" xml:space="preserve">
<circle fill-rule="evenodd" clip-rule="evenodd" fill="#F2F2F2" cx="41.461" cy="41.146" r="39.773"/>
<path fill="#156587" d="M17.14,12.579h44.573c1.451,0,2.638,1.188,2.638,2.636v33.553c0,1.449-1.187,2.637-2.638,2.637H17.14
	c-1.45,0-2.638-1.188-2.638-2.637V15.215C14.502,13.767,15.688,12.579,17.14,12.579z"/>
<path fill="#F5F5F7" d="M63.151,20.368v28.398c0,0.791-0.647,1.438-1.438,1.438H17.14c-0.791,0-1.438-0.646-1.438-1.438V20.368
	H63.151z"/>
<path fill="#8C4C21" d="M26.545,12.579v2.937c0,1.764-1.441,3.206-3.205,3.206l0,0c-1.764,0-3.205-1.442-3.205-3.206v-2.937H26.545z
	"/>
<path fill="#FFCE0C" d="M23.34,9.943L23.34,9.943c1.104,0,2.008,0.903,2.008,2.007v3.566c0,1.104-0.903,2.007-2.008,2.007l0,0
	c-1.104,0-2.008-0.903-2.008-2.007V11.95C21.332,10.848,22.236,9.943,23.34,9.943z"/>
<path fill="#0B76A5" d="M21.874,43.135V31.202h-2.003v-1.637c0.563-0.067,1.098-0.279,1.605-0.64
	c0.508-0.356,0.873-0.795,1.097-1.307h1.634v15.515L21.874,43.135L21.874,43.135z M26.152,32.006c0-1.466,0.396-2.586,1.188-3.359
	c0.686-0.684,1.584-1.025,2.698-1.025c1.024,0,1.898,0.384,2.621,1.149c0.722,0.767,1.082,1.66,1.082,2.682
	c0,1.057-0.234,2.075-0.708,3.056c-0.256,0.543-0.854,1.479-1.799,2.805c-0.256,0.361-0.636,0.929-1.138,1.694l-0.422,0.631
	c-0.27,0.411-0.477,0.735-0.617,0.978c-0.067,0.121-0.1,0.197-0.1,0.224h4.588v2.28h-7.432V40.98c0-0.049,0.171-0.334,0.511-0.854
	c0.156-0.24,0.337-0.502,0.534-0.793l0.605-0.876c0.356-0.484,0.918-1.263,1.681-2.334c0.72-1.004,1.257-1.912,1.614-2.728
	c0.289-0.668,0.435-1.288,0.435-1.865c0-0.468-0.134-0.868-0.396-1.196c-0.29-0.345-0.664-0.52-1.12-0.52
	c-0.655,0-1.12,0.374-1.395,1.12c-0.09,0.247-0.136,0.543-0.136,0.889v0.589H26.15v-0.407H26.152z"/>
<path fill="#0B76A5" d="M37.374,33.833h-0.906v-6.025h1.305l0.847,4.339l0.816-4.339h1.247v6.025h-0.907v-3.785l-0.791,3.785h-0.73
	l-0.88-3.774V33.833L37.374,33.833z M42.912,27.739c0.4,0,0.74,0.141,1.021,0.423c0.279,0.281,0.42,0.62,0.42,1.019v3.286
	c0,0.4-0.142,0.74-0.423,1.021c-0.28,0.28-0.62,0.42-1.018,0.42c-0.399,0-0.739-0.141-1.018-0.422
	c-0.279-0.282-0.418-0.622-0.418-1.02v-3.286c0-0.4,0.142-0.74,0.424-1.021C42.182,27.879,42.521,27.739,42.912,27.739
	L42.912,27.739z M43.404,29.164c0-0.145-0.051-0.266-0.15-0.367c-0.102-0.101-0.224-0.15-0.366-0.15c-0.146,0-0.269,0.051-0.37,0.15
	c-0.104,0.103-0.153,0.224-0.153,0.367v3.292c0,0.145,0.051,0.267,0.153,0.367c0.103,0.1,0.226,0.15,0.37,0.15
	c0.144,0,0.266-0.052,0.366-0.15c0.101-0.102,0.15-0.224,0.15-0.367V29.164L43.404,29.164z M46.172,27.808l1.205,4.045v-4.045h0.906
	v6.025h-0.975l-1.25-3.856v3.856h-0.906v-6.025H46.172L46.172,27.808z M51.949,32.393c0,0.396-0.14,0.735-0.418,1.019
	s-0.614,0.423-1.009,0.423h-1.427v-6.025h1.427c0.396,0,0.732,0.142,1.011,0.423s0.416,0.62,0.416,1.015V32.393L51.949,32.393z
	 M50.002,32.935h0.547c0.146,0,0.268-0.053,0.365-0.157c0.101-0.104,0.149-0.227,0.149-0.367v-3.151c0-0.145-0.051-0.269-0.151-0.37
	c-0.102-0.104-0.222-0.153-0.363-0.153h-0.547V32.935L50.002,32.935z M53.742,32.446l-0.223,1.387h-0.947l1.024-6.02h1.249
	l1.008,6.02H54.9l-0.212-1.387H53.742L53.742,32.446z M54.215,29.193l-0.336,2.367h0.675L54.215,29.193L54.215,29.193z
	 M56.854,31.312v2.521h0.905v-2.521l1.222-3.504h-1.005l-0.667,2.164l-0.675-2.164h-0.997L56.854,31.312z"/>
<path fill="#8C4C21" d="M58.718,12.579v2.937c0,1.764-1.441,3.206-3.205,3.206l0,0c-1.763,0-3.204-1.442-3.204-3.206v-2.937H58.718z
	"/>
<path fill="#FFCE0C" d="M55.513,9.943L55.513,9.943c1.104,0,2.008,0.903,2.008,2.007v3.566c0,1.104-0.903,2.007-2.008,2.007l0,0
	c-1.104,0-2.007-0.903-2.007-2.007V11.95C53.506,10.848,54.408,9.943,55.513,9.943z"/>
<circle fill="#156587" cx="52.941" cy="55.083" r="18.848"/>
<circle fill="#B4D8DE" cx="52.941" cy="55.082" r="15.948"/>
<circle fill="#F4F3F2" cx="52.941" cy="55.083" r="13.049"/>
<path fill="#156587" d="M52.941,73.932c-10.409,0-18.849-8.439-18.849-18.85s8.438-18.848,18.849-18.848V73.932z"/>
<path fill="#D3E9ED" d="M52.941,71.03c-8.809,0-15.948-7.141-15.948-15.948c0-8.807,7.141-15.948,15.948-15.948V71.03z"/>
<path fill="#FFFFFF" d="M52.941,68.132c-7.206,0-13.049-5.843-13.049-13.05c0-7.206,5.843-13.049,13.049-13.049V68.132z"/>
<path fill="#F1592F" d="M43.852,46.787L43.852,46.787c0.466-0.511,1.267-0.548,1.776-0.081l8.046,7.342
	c0.513,0.467,0.549,1.267,0.082,1.777l0,0c-0.467,0.511-1.267,0.548-1.776,0.082l-8.047-7.343
	C43.421,48.099,43.384,47.298,43.852,46.787z"/>
<path fill="#EF4124" d="M60.601,49.747L60.601,49.747c-0.312-0.432-0.917-0.53-1.349-0.221l-6.787,4.882
	c-0.431,0.312-0.529,0.917-0.22,1.348l0,0c0.311,0.433,0.917,0.53,1.348,0.222l6.786-4.882C60.812,50.784,60.91,50.18,60.601,49.747
	z"/>
<g>
	<circle fill="#EF4124" cx="52.941" cy="55.083" r="2.414"/>
	<path fill="#F1592F" d="M52.941,57.496c-1.333,0-2.413-1.081-2.413-2.414s1.08-2.413,2.413-2.413V57.496z"/>
</g>
</svg>
