<?xml version="1.0" encoding="utf-8"?>
<!-- Generator: Adobe Illustrator 16.0.0, SVG Export Plug-In . SVG Version: 6.00 Build 0)  -->
<!DOCTYPE svg PUBLIC "-//W3C//DTD SVG 1.1//EN" "http://www.w3.org/Graphics/SVG/1.1/DTD/svg11.dtd">
<svg version="1.1" id="_x2018_ëîé_x5F_1" xmlns="http://www.w3.org/2000/svg" xmlns:xlink="http://www.w3.org/1999/xlink"
	 x="0px" y="0px" width="1843.604px" height="1131.718px" viewBox="0 0 1843.604 1131.718"
	 enable-background="new 0 0 1843.604 1131.718" xml:space="preserve">
<path fill="#E9E9E9" d="M766.846,337.751l24.957-2.811c2.08-0.214,4.102,0.755,5.239,2.507c1.444,2.243,2.992,4.44,4.644,6.592
	c3.069,4,6.354,7.696,9.882,11.034c1.65,1.566,2.197,3.944,1.354,6.041l-9.57,24.44c-1.046,2.599,0.104,5.584,2.656,6.838
	l21.503,10.65c2.44,1.201,5.364,0.374,6.836-1.895l13.002-20.373c1.222-2.008,3.651-2.939,5.992-2.318
	c9.878,2.61,20.16,3.632,30.441,3.031c2.481-0.142,4.79,1.472,5.533,3.836l4.407,14.026c0.862,2.654,3.577,4.302,6.344,3.767
	l23.352-4.723c0.481-0.093,0.93-0.229,1.349-0.448c2.023-0.965,3.271-3.165,2.987-5.47l-2.078-18.645l-0.516-4.543
	c3.884-2.186,7.692-4.694,11.323-7.479c4.892-3.753,9.347-7.896,13.288-12.302c1.511-1.678,3.877-2.284,5.975-1.441l19.679,7.731
	c2.697,1.04,5.742-0.123,7.002-2.713l8.146-16.438l2.32-4.717c1.277-2.568,0.421-5.71-1.996-7.24l-17.018-10.879
	c-1.986-1.239-2.966-3.596-2.397-5.828c1.587-6.709,2.471-13.57,2.593-20.434c0.059-0.598,0.053-1.146,0.052-1.732
	c-0.013-0.197,0.013-0.39,0.038-0.582c0.211-2.2,1.742-4.031,3.861-4.69l22.76-7.204c0.263-0.063,0.513-0.187,0.742-0.293
	c2.213-1.077,3.479-3.568,3.003-6.034l-4.673-23.286c-0.567-2.811-3.17-4.717-6.044-4.412l-26.029,2.943
	c-2.206,0.276-4.322-0.862-5.374-2.818c-2.35-4.277-5.064-8.446-8.15-12.468c-1.635-2.13-3.34-4.172-5.115-6.126
	c-1.432-1.596-1.855-3.86-1.066-5.847l9.191-23.493c1.024-2.582-0.11-5.545-2.623-6.795l-21.288-10.503
	c-2.567-1.276-5.688-0.436-7.262,2.014l-10.292,16.117c-1.379,2.164-4.021,3.086-6.437,2.28c-9.458-3.278-19.37-5.033-29.364-5.274
	c-2.362-0.018-4.462-1.584-5.178-3.868l-6.484-20.515c-0.868-2.753-3.682-4.394-6.509-3.848l-23.204,4.645
	c-2.789,0.551-4.679,3.175-4.341,5.955l0.11,1.09l2.424,21.661c0.262,2.321-0.926,4.51-3.003,5.585l-0.021,0.016
	c-4.97,2.57-9.788,5.61-14.396,9.147c-2.456,1.884-4.77,3.867-7.017,5.936c-1.54,1.458-3.766,1.888-5.736,1.121l-19.977-7.849
	c-2.73-1.083-5.841,0.129-7.122,2.736l-10.473,21.194c-0.294,0.606-0.456,1.249-0.538,1.864c-0.208,2.025,0.73,4.103,2.514,5.256
	l13.615,8.653c1.656,1.078,2.62,2.964,2.542,4.889c-0.026,0.504-0.114,1.021-0.279,1.527c-4.142,12.157-5.793,24.996-4.901,37.816
	c0.183,2.174-1.023,4.204-2.914,5.206c-0.272,0.14-0.562,0.259-0.867,0.355l-18.434,5.82c-2.671,0.84-4.28,3.56-3.746,6.328
	l0.104,0.542l4.535,22.701C761.31,336.162,763.95,338.073,766.846,337.751z M926.51,266.883c1.426,3.569,2.58,7.415,3.388,11.527
	c1.526,7.843-0.063,20.22-3.608,27.395c-0.375,0.771-0.767,1.521-1.158,2.271c-24.42,45.331-88.431,36.315-98.971-14.832
	c-1.367-6.688-0.516-16.426,1.875-23.89c0.579-1.722,1.202-3.34,1.91-4.712c3.262-6.509,7.301-11.957,11.911-16.393
	C868.146,223.001,912.066,231.268,926.51,266.883z"/>
<path fill="#E9E9E9" d="M1559.272,250.339c-23.959-48.288-106.911-15.231-106.911-15.231s-40.734,100.925-57.322,106.431
	c-16.589,5.506,17.978-93.089,17.978-93.089c-33.593,3.358-109.56,60.446-109.56,60.446s26.015,103.138,8.58,104.391
	c-17.434,1.252-18.375-92.499-18.375-92.499c-29.995,15.905-52.372,59.031-52.372,59.031
	c-25.173,67.995,63.438,96.808,63.438,96.808s8.244,35.938-5.846,81.837l-0.001,0.001c0,0-3.518,8.657-6.055,22.688l8.695-1.728
	c0.247-2.473,0.583-4.882,1.019-7.218c-0.002-0.017,0-0.029,0.01-0.042c0.006-0.035,0.014-0.068,0.02-0.102
	c0.328-1.462,0.805-3.544,1.409-6.085c0.001-0.003,0.002-0.006,0.003-0.009c-0.001-0.005,0.004-0.007,0.003-0.012
	c1.624-5.729,2.655-9.927,3.239-12.926c0.002-0.009,0.004-0.019,0.004-0.028c4.717-17.906,11.959-41.456,18.721-47.437
	c0,0-1.231-1.162-2.653-3.619c0.846,1.154,1.729,2.357,2.653,3.619c21.222,28.939,96.701,19.47,136.477,2.728
	c39.774-16.743,19.377-24.848-6.721-39.394s-71.885-0.249-87.186-4.946c-15.299-4.696,3.423-16.152,31.488-19.517
	c28.066-3.366,47.379,21.532,92.879,16.914c45.498-4.618,62.835-95.37,62.835-95.37c-28.932,15.694-87.598,9.666-91.836-0.544
	c-4.238-10.209,77.839-25.41,89.964-31.134S1583.232,298.626,1559.272,250.339z"/>
<path fill="#E9E9E9" d="M190.613,621.484c-9.752-53.016,76.465-76.256,76.465-76.256s93.088,56.392,109.668,50.86
	c16.58-5.532-70.173-63.755-70.173-63.755c28.906-17.44,123.933-17.256,123.933-17.256s40.973,98.161,55.681,88.717
	c14.708-9.444-40.714-85.065-40.714-85.065c33.545-5.239,77.301,15.879,77.301,15.879c60.896,39.353,7.22,115.517,7.22,115.517
	s14.934,33.712,53.717,62.016l0.002,0.001c0,0,8.004,4.823,18.442,14.535l-7.997,3.827c-1.68-1.831-3.392-3.56-5.142-5.168
	c-0.007-0.016-0.018-0.023-0.032-0.029c-0.025-0.022-0.052-0.045-0.077-0.068c-1.139-0.974-2.768-2.355-4.773-4.027
	c-0.003-0.002-0.006-0.004-0.008-0.006c-0.003-0.006-0.008-0.003-0.01-0.009c-4.732-3.613-8.074-6.356-10.339-8.407
	c-0.008-0.006-0.015-0.013-0.021-0.02c-14.506-11.51-34.414-26.023-43.412-26.761c0,0,0.289-1.668-0.043-4.486
	c0.014,1.431,0.028,2.923,0.043,4.486c0.352,35.885-65.752,73.532-107.628,83.961c-41.876,10.43-30.402-8.281-18.225-35.564
	c12.179-27.283,57.402-43.273,66.837-56.202c9.435-12.928-12.418-10.88-36.904,3.243c-24.485,14.122-25.028,45.628-64.223,69.194
	c-39.193,23.565-107.452-38.701-107.452-38.701c32.567-4.771,75.923-44.751,73.198-55.464c-2.725-10.714-77.544,26.299-90.681,28.98
	C232.13,688.139,200.365,674.5,190.613,621.484z"/>
<path fill="#E9E9E9" d="M1610.419,961.763c42.425-33.255-6.767-107.778-6.767-107.778s-107.09-19.42-115.845-34.547
	c-8.757-15.127,94.801-1.275,94.801-1.275c-10.102-32.213-81.409-95.023-81.409-95.023s-95.718,46.391-100.48,29.573
	s86.85-36.753,86.85-36.753c-21.658-26.146-68.426-39.313-68.426-39.313c-71.688-10.859-81.932,81.753-81.932,81.753
	s-33.518,15.361-81.322,10.873l-0.002-0.001c0,0-9.189-1.688-23.443-1.327l3.455,8.164c2.473-0.259,4.899-0.42,7.275-0.466
	c0.016-0.007,0.029-0.006,0.044,0c0.034-0.001,0.068-0.001,0.103-0.001c1.498,0.025,3.634,0.069,6.244,0.146
	c0.004,0.001,0.008,0.001,0.01,0.001c0.006-0.003,0.009,0.002,0.014,0c5.938,0.428,10.259,0.587,13.314,0.551
	c0.01,0.001,0.019,0,0.027-0.003c18.491,0.988,43.02,3.305,50.248,8.713c0,0,0.889-1.441,3.005-3.332
	c-0.958,1.063-1.958,2.17-3.005,3.332c-24.034,26.649,0.545,98.641,25.007,134.193s28.261,13.936,37.212-14.57
	c8.951-28.505-14.335-70.441-12.839-86.376c1.497-15.935,16.511,0.075,25.498,26.876c8.986,26.8-11.477,50.761,2.273,94.378
	c13.749,43.617,106.131,42.188,106.131,42.188c-21.235-25.147-27.229-83.816-18.093-90.038c9.138-6.221,40.668,71.069,48.732,81.78
	C1535.164,984.193,1567.994,995.018,1610.419,961.763z"/>
<g>
	<path opacity="0.5" fill="#E9E9E9" d="M1225.259,337.653c0,0,4.976-99.328,51.407-161.598c6.17-8.275,19.354-4.186,19.847,6.125
		c0.008,0.172,0.015,0.346,0.021,0.522C1297.091,200.321,1245.676,278.346,1225.259,337.653z"/>
	<path opacity="0.5" fill="#E9E9E9" d="M1221.066,366.28c0,0,41.822-126.604,123.993-186.982c5.011-3.682,12.188-2.966,16.054,1.904
		c2.518,3.172,3.902,8.303,1.896,16.602C1357.654,219.934,1266.849,299.439,1221.066,366.28z"/>
</g>
<g>
	<path opacity="0.5" fill="#E9E9E9" d="M509.725,498.996c0,0-41.679-72.699-100.337-101.729
		c-7.795-3.858-16.134,4.249-12.565,12.181c0.06,0.132,0.121,0.266,0.184,0.4C403.317,423.294,471.736,462.253,509.725,498.996z"/>
	<path opacity="0.5" fill="#E9E9E9" d="M523.809,518.895c0,0-79.771-79.109-164.547-93.067c-5.17-0.851-10.288,2.428-11.33,7.563
		c-0.68,3.344,0.239,7.727,4.918,13.192C365.324,461.158,463.892,486.183,523.809,518.895z"/>
</g>
<path fill="#B8C0C7" d="M1430.055,341.843v630.633c0,11.032-7.965,19.981-17.783,19.981H502.404
	c-9.819,0-17.784-8.949-17.784-19.981V341.843c0-11.042,7.965-19.982,17.784-19.982h909.867
	C1422.09,321.861,1430.055,330.801,1430.055,341.843z"/>
<g>
	<path fill="#43A1F6" d="M1385.078,305.841v51.141H369.669v-51.141c0-10.555,8.555-19.101,19.101-19.101h977.209
		C1376.523,286.74,1385.078,295.286,1385.078,305.841z"/>
	<g>
		<circle fill="#E9E9E9" cx="409.623" cy="321.861" r="8.893"/>
		<circle fill="#E9E9E9" cx="444.663" cy="321.861" r="8.892"/>
		<circle fill="#E9E9E9" cx="480.587" cy="321.861" r="8.893"/>
	</g>
</g>
<path fill="#E9E9E9" d="M1027.498,231.653l12.154-1.369c1.012-0.104,1.997,0.368,2.551,1.221c0.703,1.092,1.457,2.162,2.262,3.21
	c1.494,1.948,3.094,3.748,4.813,5.374c0.804,0.763,1.07,1.921,0.66,2.942l-4.662,11.902c-0.509,1.266,0.052,2.72,1.295,3.331
	l10.472,5.186c1.188,0.585,2.612,0.183,3.329-0.922l6.332-9.922c0.596-0.978,1.777-1.431,2.918-1.129
	c4.811,1.271,9.818,1.769,14.826,1.477c1.208-0.069,2.332,0.716,2.694,1.868l2.146,6.831c0.42,1.292,1.742,2.095,3.09,1.834
	l11.372-2.3c0.235-0.045,0.453-0.112,0.657-0.218c0.985-0.47,1.593-1.542,1.455-2.664l-1.013-9.08l-0.251-2.213
	c1.892-1.064,3.746-2.286,5.515-3.643c2.383-1.828,4.552-3.845,6.472-5.991c0.735-0.817,1.888-1.112,2.91-0.702l9.583,3.765
	c1.313,0.506,2.796-0.06,3.41-1.321l3.966-8.005l1.132-2.297c0.621-1.251,0.204-2.781-0.974-3.526l-8.287-5.298
	c-0.967-0.604-1.443-1.751-1.168-2.838c0.773-3.268,1.204-6.609,1.264-9.951c0.028-0.291,0.025-0.558,0.024-0.844
	c-0.006-0.096,0.006-0.19,0.019-0.283c0.104-1.071,0.85-1.963,1.881-2.284l11.084-3.508c0.128-0.031,0.25-0.091,0.361-0.143
	c1.078-0.524,1.695-1.738,1.463-2.939l-2.275-11.341c-0.276-1.369-1.545-2.296-2.943-2.148l-12.678,1.433
	c-1.074,0.135-2.104-0.419-2.616-1.373c-1.145-2.083-2.467-4.113-3.97-6.071c-0.797-1.038-1.626-2.032-2.491-2.984
	c-0.697-0.777-0.903-1.879-0.52-2.847l4.477-11.441c0.499-1.257-0.054-2.701-1.277-3.309l-10.367-5.116
	c-1.251-0.622-2.771-0.212-3.536,0.981l-5.014,7.849c-0.671,1.054-1.957,1.503-3.134,1.11c-4.606-1.596-9.433-2.451-14.3-2.568
	c-1.151-0.009-2.174-0.771-2.522-1.883l-3.157-9.991c-0.424-1.341-1.794-2.14-3.171-1.874l-11.301,2.262
	c-1.358,0.269-2.278,1.546-2.114,2.901l0.055,0.53l1.18,10.549c0.127,1.13-0.451,2.196-1.462,2.72l-0.011,0.008
	c-2.42,1.251-4.767,2.732-7.012,4.455c-1.195,0.917-2.322,1.883-3.416,2.891c-0.75,0.71-1.835,0.919-2.794,0.546l-9.729-3.823
	c-1.33-0.527-2.845,0.063-3.469,1.333l-5.1,10.322c-0.144,0.295-0.224,0.608-0.263,0.908c-0.102,0.986,0.355,1.998,1.224,2.56
	l6.632,4.214c0.807,0.525,1.275,1.444,1.237,2.381c-0.013,0.246-0.056,0.497-0.136,0.744c-2.017,5.92-2.821,12.173-2.388,18.417
	c0.089,1.058-0.498,2.047-1.419,2.535c-0.132,0.068-0.273,0.125-0.422,0.172l-8.978,2.834c-1.301,0.409-2.085,1.734-1.824,3.082
	l0.051,0.264l2.208,11.056C1024.801,230.879,1026.088,231.81,1027.498,231.653z M1105.256,197.139
	c0.694,1.738,1.256,3.611,1.649,5.614c0.743,3.819-0.031,9.847-1.757,13.341c-0.184,0.376-0.374,0.741-0.564,1.106
	c-11.893,22.076-43.067,17.686-48.2-7.223c-0.665-3.257-0.25-8,0.913-11.635c0.282-0.838,0.586-1.626,0.932-2.295
	c1.588-3.17,3.555-5.823,5.8-7.983C1076.831,175.769,1098.221,179.794,1105.256,197.139z"/>
<g>
	<path fill="#151F2C" d="M320.142,802.234c0,0,1.354-14.759-15.136-14.759c0,0,4.997,1.355,7.582,4.066
		c0,0-10.518-6.175-21.963,3.313c-11.445,9.486-4.333,33.281-7.813,37.799c-3.481,4.518-17.034,5.421-15.378,20.029
		s43.016,32.904,40.359,44.989c0,0,16.208-23.825,4.618-34.698c0,0,5.649,5.32,6.225,11.646c0,0,1.533-12.349-6.325-16.298
		c-6.953-3.496-12.649-16.279-12.047-18.564C300.866,837.474,320.142,802.234,320.142,802.234z"/>
	<path fill="#EE805F" d="M303.908,873.093c0,0,12.319,50.964,24.412,61.152c7.269,6.124,28.881,20.177,28.881,20.177l-8.99,3.262
		c0,0-29.976-10.123-36.688-18.014c-6.711-7.891-25.085-47.429-25.085-47.429L303.908,873.093z"/>
	<path fill="#384152" d="M188.129,962.628c0.108,0.195,0.224,0.397,0.339,0.599c2.696,4.686,8.88,16.167,15.691,28.73
		c3.222,5.96,6.595,12.166,9.795,18.004c5.514,10.077,10.53,19.05,13.457,23.793c2.977,4.821,5.167,8.21,6.054,9.564
		c0.007,0.008,0.007,0.008,0.007,0.008c0.267,0.418,0.324,0.908,0.288,1.397c-0.31,4.253-0.223,8.477,0.195,12.636
		c4.108,40.875,31.671,62.778,31.671,62.778l8.194,1.212c0,0-11.597-42.966-15.013-67.256c-0.577-4.115-0.829-7.453-0.628-9.629
		c0.606-6.329-0.519-15.619-2.646-26.287c-3.783-18.956-10.725-42.223-16.757-60.848c-0.382-1.189-11.907-42.878-11.907-42.878
		c-9.672,8.454-44.955,11.943-44.955,11.943S175.934,940.94,188.129,962.628z"/>
	<path fill="#151F2C" d="M291.021,1131.718h-34.203c0,0-0.82-5.213,0.967-9.167c1.712-3.795,4.151-3.915,0.312-9.864
		c2.173,2.238,9.16,3.164,14.104,2.499c0.606,0.981,3.906,7.571,5.93,9.025C280.366,1125.817,290.333,1125.245,291.021,1131.718z"/>
	<path fill="#151F2C" d="M188.129,962.628c0.108,0.195,0.224,0.397,0.339,0.599c2.696,4.686,17.274,31.612,24.086,44.176
		c-7.893-32.471-2.403-64.941-2.403-64.941L188.129,962.628z"/>
	<path fill="#151F2C" d="M315.477,800.159c0.225-0.898-19.534,8.93-20.536,10.041c-9.267,10.279-6.625,23.692-1.322,23.821
		c3.4,0.083,2.741,5.736,2.741,5.736l37.885-16.025C334.244,823.732,329.683,797.133,315.477,800.159z"/>
	<path fill="#43A1F6" d="M302.746,865.439c0,0,5.766,11.516,5.046,20.863c0,0-6.952,10.973-24.98,13.752
		C282.812,900.055,298.312,865.431,302.746,865.439z"/>
	<path fill="#384152" d="M214.793,928.942l0.116-6.397c-12.746,1.607-43.947-15.23-43.947-15.23s-13.333,8.868-15.159,34.195
		c-0.891,12.362-6.527,64.642-7.15,80.253c-0.228,5.658-0.303,9.696-0.329,11.31c0.003,0.009,0.002,0.012,0.002,0.016
		c-0.007,0.493-0.238,0.928-0.542,1.316c-2.637,3.353-4.925,6.904-6.906,10.586c-19.449,36.186-9.278,85.354-9.278,85.354
		l4.517-1.148c0,0,16.445-50.97,27.192-73.018c1.825-3.739,3.481-6.647,4.868-8.332c4.042-4.908,8.303-13.244,12.503-23.274
		C188.618,1005.605,214.793,928.942,214.793,928.942z"/>
	<path fill="#151F2C" d="M158.799,1131.718h-34.203c0,0-0.82-5.213,0.966-9.167c1.712-3.795,4.394-5.52,3.751-10.111
		c2.173,2.238,5.716,4.744,10.66,4.078c0.605,0.982,3.911,6.239,5.935,7.693C148.144,1125.817,158.11,1125.245,158.799,1131.718z"/>
	<path fill="#43A1F6" d="M280.502,907.399c-4.595,0.783,0.75,4.436-5.568,5.122c-8.994,0.981-18.279,1.653-23.144,3.593
		c-1.774,0.708-2.961,1.581-3.331,2.698c-2.108,6.341-15.462,17.235-15.462,17.235c-59.558-2.711-63.394-29.256-63.394-29.256
		c38.654-37.541,71.537-58.003,98.715-60.535c6.615-0.617,15.53,0.21,19.713,2.073c9.506,4.231,14.715,17.109,14.715,17.109
		S297.958,904.422,280.502,907.399z"/>
	<path fill="#2B6EB2" d="M274.934,912.521c-8.994,0.981-18.279,1.653-23.144,3.593c-1.988-29.703,12.029-52.046,12.029-52.046
		S272.963,901.281,274.934,912.521z"/>
	<path fill="#EE805F" d="M287.523,850.78c1.699,5.325,7.367,20.499,15.223,14.659c-0.267-1.132,1.384-4.426,3.33-7.77
		c2.486-4.274,5.449-8.643,5.449-8.643l-12.801-11.215l-0.765-0.67c-3.347,5.846-6.64,8.659-9.522,10.811
		C287.562,848.606,287.191,849.738,287.523,850.78z"/>
	<path fill="#DE6B4D" d="M311.523,849.031c0,0-2.959,4.359-5.446,8.639c-7.956-4.905-7.965-14.755-7.352-19.857L311.523,849.031z"/>
	<path fill="#EE805F" d="M311.879,854.652c0,0-19.319-10.751-12.439-22.679s9.02-21.348,21.645-14.988
		c12.626,6.358,12.376,12.28,11.048,16.82C330.805,838.346,317.081,857.141,311.879,854.652z"/>
	<path fill="#151F2C" d="M335.396,826.849c-0.885-5.296-3.575-5.802-5.451-5.448c-7.134-11.798-18.79-7.194-18.79-7.194
		c-6.226,7.813-15.227,9.146-15.227,9.146s2.242,4.171,11.479,6.753c2.821,0.789,6.024,0.312,9.112-0.729
		c-6.408,3.573-13.11,4.942-13.11,4.942c12.173,1.114,23.754-10.015,24.955-11.205c0.562,1.725,1.547,5.335,0.957,7.975
		c-0.802,3.587-3.986,10.084-2.042,10.925C327.278,842.014,336.723,834.791,335.396,826.849z"/>
	<g>
		
			<rect x="366.402" y="1013.008" transform="matrix(0.8989 0.4382 -0.4382 0.8989 498.297 -91.1283)" fill="#43A1F6" width="160.366" height="42.059"/>
		<g>
			<path fill="#43A1F6" d="M320.209,1025.707c-13.231-6.45-22.634-18.402-25.796-32.793c-1.284-5.842,2.411-11.619,8.254-12.903
				c5.842-1.283,11.618,2.411,12.902,8.254c1.733,7.889,6.885,14.439,14.132,17.973c13.002,6.339,28.736,0.917,35.075-12.084
				c6.338-13.001,0.917-28.735-12.084-35.074c-5.905-2.879-12.623-3.44-18.916-1.582c-5.736,1.694-11.761-1.582-13.455-7.318
				s1.582-11.761,7.319-13.455c11.494-3.396,23.763-2.371,34.544,2.886c23.737,11.572,33.635,40.299,22.062,64.036
				C372.674,1027.383,343.947,1037.28,320.209,1025.707z"/>
		</g>
		<g>
			<path fill="#43A1F6" d="M524.132,1125.125c-23.737-11.573-33.635-40.3-22.063-64.038c11.573-23.737,40.3-33.635,64.037-22.062
				c10.781,5.256,19.145,14.289,23.55,25.438c2.198,5.563-0.528,11.854-6.092,14.053c-5.563,2.198-11.854-0.528-14.053-6.092
				c-2.412-6.104-6.992-11.049-12.896-13.929c-13.002-6.338-28.736-0.917-35.075,12.084c-6.339,13.002-0.918,28.735,12.084,35.074
				c7.248,3.534,15.581,3.557,22.863,0.063c5.393-2.586,11.862-0.312,14.449,5.081c2.587,5.394,0.313,11.863-5.081,14.45
				C552.571,1131.619,537.363,1131.575,524.132,1125.125z"/>
		</g>
		<path fill="#2B6EB2" d="M475.995,1054.57l-75.938-37.021c-2.179-1.063-3.092-3.713-2.03-5.891l1.931-3.96
			c1.062-2.178,3.713-3.091,5.891-2.029l75.938,37.021c2.179,1.062,3.092,3.713,2.029,5.891l-1.93,3.96
			C480.823,1054.719,478.173,1055.632,475.995,1054.57z"/>
	</g>
	<path fill="#EE805F" d="M300.818,987.306c0,0,0.417,3.602,1.938,5.46c1.522,1.857,5.948,6.356,6.026,8.989
		c0,0-0.224,1.169-1.173,0.956c-0.949-0.214-4.246-3.479-5.938-3.244c0,0,0.902,5.278,1.798,6.764
		c0.895,1.485,2.541,7.086,2.004,8.367c-0.537,1.283-9.494-6.182-12.207-9.829c-2.713-3.648-0.043-18.451-0.043-18.451
		L300.818,987.306z"/>
	<path fill="#EE805F" d="M282.692,859.04c0,0-22.616-1.234-26.636,12.965c-4.019,14.199,7.54,70.878,10.031,76.728
		c4.534,10.649,26.611,41.046,26.611,41.046l8.119-2.473c0,0-14.721-46.436-18.007-51.03
		C277.652,929.062,289.462,865.218,282.692,859.04z"/>
	<path fill="#43A1F6" d="M251.597,890.993c0.059,0.333,21.402,3.927,34.752-2.85c0,0,11.152-34.938-4.785-33.266
		c-15.938,1.671-25.374,6.691-25.776,14.32C255.386,876.829,251.597,890.993,251.597,890.993z"/>
	<path fill="#EE805F" d="M346.092,931.701c-1.073,0.05-3.042,0.401-3.749,0.945c-1.232,0.951-2.619,2.605,0.144,3.982
		c4.146,2.064,12.435,1.148,12.111-0.096C353.577,932.615,352.081,931.424,346.092,931.701z"/>
</g>
<g>
	<path fill="#EE805F" d="M609.659,375.516c-1.091,1.25-1.229,2.646-0.689,4.138c0.001,0.006,0.004,0.015,0.011,0.02
		c0.998,2.759,4.296,5.839,8.126,8.915c0.489,0.395,0.925,0.754,1.304,1.087c0.1,0.087,0.199,0.175,0.293,0.263
		c0.077,0.067,0.151,0.138,0.226,0.204c3.571,3.292,2.228,4.047,8.645,10.728c7.316,7.613,12.354,7.75,13.787,7.057
		c1.213-0.591-1.251-4.628-3.979-9.167c-0.133-0.219-0.263-0.44-0.398-0.662c-0.363-0.604-0.725-1.216-1.086-1.822
		c-3.198-5.461-2.377-8.025-1.618-16.153c0.616-6.605,10.275-36.902,10.275-36.902l-14.021-2.415c0,0-4.223,24.125-8.875,27.84
		c-2.488,1.98-5.272,2.005-7.664,3.473c-0.169,0.102-0.334,0.207-0.497,0.314C612.138,373.333,610.753,374.263,609.659,375.516z"/>
	<path fill="#151F2C" d="M609.659,375.516c-1.091,1.25-1.229,2.646-0.689,4.138c0.001,0.006,0.004,0.015,0.011,0.02
		c1.223,2.756,4.437,5.82,8.139,8.886c0.484,0.402,0.911,0.771,1.291,1.115c0.1,0.087,0.199,0.175,0.293,0.263
		c0.077,0.067,0.151,0.138,0.226,0.204c3.571,3.292,2.228,4.047,8.645,10.728c7.316,7.613,12.354,7.75,13.787,7.057
		c1.213-0.591-1.251-4.628-3.979-9.167c-1.425-0.521-8.041-3.209-13.043-9.61c-4.406-5.622-7.345-12.846-10.345-17.03
		c-0.169,0.102-0.334,0.207-0.497,0.314C612.138,373.333,610.753,374.263,609.659,375.516z"/>
	<path fill="#EE805F" d="M722.723,366.758c0.866,4.329,7.035,3.606,13.929,1.922c6.893-1.685,5.254,0.318,15.063-0.768
		c9.811-1.085,12.782-4.744,13.082-6.202c0.268-1.294-4.58-1.751-9.779-2.35c-0.653-0.073-1.311-0.154-1.968-0.235
		c-5.869-0.736-10.168-4.524-15.5-7.635c-5.051-2.947-12.588-14.953-12.588-14.953l-13.453,1.066c0,0,7.06,10.723,9.79,15.385
		c1.605,2.742,1.521,6.368,1.32,9.168C722.516,363.678,722.416,365.234,722.723,366.758z"/>
	<path fill="#151F2C" d="M736.651,368.68c6.893-1.685,5.254,0.318,15.063-0.768c9.811-1.085,12.782-4.744,13.082-6.202
		c0.268-1.294-4.58-1.751-9.779-2.35l-0.048,0.1c0,0-5.884,4.171-14.05,4.367c-6.655,0.162-13.705-1.745-18.301-1.671
		c-0.104,1.522-0.203,3.078,0.104,4.602C723.589,371.087,729.758,370.364,736.651,368.68z"/>
	<path fill="#151F2C" d="M671.166,280.734l-12.576,33.842l-16.42,44.188c0,0-4.456,0.43-8.723-0.797
		c-3.929-1.135-8.437-4.106-8.437-4.106s4.56-47.445,13.064-74.68c2.18-6.991,4.622-12.646,7.318-15.828
		C658.577,247.77,671.166,280.734,671.166,280.734z"/>
	<path fill="#384152" d="M658.379,226.988c-8.239-2.658-31.739,0.755-55.346,5.376l-4.942-8.152l-50.988-3.982
		c0,0-16.825,37.312-7.614,61.087c1.354,3.494,4.044,5.735,8.63,5.809c0.002,0.002,0.743-0.002,0.745,0
		c0,0,30.347-0.018,40.201-0.018c25.357,0,53.665-17.431,57.326-18.163c5.994-1.199,8.393,10.789,14.386,23.376
		c5.994,12.587,56.342,55.743,56.342,55.743s7.738,0.077,10.936-1.122c3.438-1.289,4.694-2.964,4.694-2.964
		S676.96,232.982,658.379,226.988z"/>
	<path fill="#151F2C" d="M581.197,68.988c-7.146-1.838-16.925-0.007-18.546,0.152c-19.401,1.911-25.92,23.554-22.983,40.343
		c2.709,15.496-5.15,19.783-14.259,32.022c-18.264,24.541-6.327,45.233,8.085,50.568c8.646,3.2,20.652-4.874,20.652-4.874
		c0.217,0.086,37.721-24.572,53.097-38.472C632.847,138.711,599.404,73.672,581.197,68.988z"/>
	<path fill="#EE805F" d="M584.063,139.969c0.51,1.796-7.977,5.097-14.455,3.883c-6.094-1.136-12.926-8.272-11.517-8.942
		c2.333-1.108,3.902-3.864,2.626-18.766l1.16,0.131l19.498,2.226c0,0,0.059,6.074,0.512,11.764
		C582.266,135.042,583.231,137.04,584.063,139.969z"/>
	<path fill="#DE6B4D" d="M581.375,118.501c0,0,0.059,6.074,0.512,11.764c-10.761,0.578-17.239-8.751-20.01-13.99L581.375,118.501z"
		/>
	<path fill="#EE805F" d="M585.402,123.594c0,0-25.369,2.502-26.684-13.321c-1.315-15.822-5.475-26.156,10.667-28.422
		c16.142-2.267,19.795,3.509,21.519,8.684C592.627,95.709,591.968,122.535,585.402,123.594z"/>
	<path fill="#151F2C" d="M582.685,79.354c0,0-3.194,19.33-17.643,23.916c-10.541,3.346-15.314,1.14-15.314,1.14
		s5.075-6.729,6.877-16.083c0.531-2.756,2.493-5.025,5.16-5.902C569.254,79.961,578.33,73.224,582.685,79.354z"/>
	<path fill="#151F2C" d="M577.904,83.477c0,0,4.78,1.065,9.018,7.234c2.315,3.372,4.997,11.87,4.539,15.633
		c0,0,4.44-17.89-2.034-24.545C582.563,74.741,577.904,83.477,577.904,83.477z"/>
	<path fill="#43A1F6" d="M538.381,191.946c0.452,1.922,0.84,3.689,1.154,5.32c0.517,2.632,0.872,4.9,1.122,6.902
		c0.774,6.24,0.541,9.938,1.065,13.982c0.291,2.26,0.823,4.634,1.897,7.612c1.049,2.898,28.617,5.481,44.302,4.44
		c4.981-0.323,8.775-1.025,10.123-2.188c5.595-4.859,5.037,5.828,5.805-45.312c0.371-24.944-21.166-47.16-21.166-47.16
		s-1.72,10.656-23.08-2.026c-0.759-0.444-9.17,12.012-17.268,27.35C533.416,177.812,535.862,181.396,538.381,191.946z"/>
	<path fill="#384152" d="M658.59,314.576l-16.42,44.188c0,0-4.456,0.43-8.723-0.797c-3.929-1.135-8.437-4.106-8.437-4.106
		s4.56-47.445,13.064-74.68L658.59,314.576z"/>
	<path fill="#43A1F6" d="M582.685,135.54c0,0,21.978,3.726,24.559,13.189c2.58,9.462,20.411,62.384,20.411,62.384
		s-13.816,4.714-18.978-0.447c-5.161-5.161-17.96-47.887-17.96-47.887L582.685,135.54z"/>
	<path fill="#FFFFFF" d="M579.548,114.263c0,0,1.063,2.602,3.872,2.602c2.809,0,3.568-0.42,4.1-1.015
		c0.531-0.595,1.059-1.741,1.059-1.741S583.924,113.19,579.548,114.263z"/>
	<path fill="#2B6EB2" d="M540.657,204.168c0.774,6.24,0.541,9.938,1.065,13.982c19.956,0.064,46.635-15.411,46.635-15.411
		L540.657,204.168z"/>
	<path fill="#2B6EB2" d="M588.357,189.652c0,0-31.087-0.926-36.327-18.596c-5.757-19.413-12.204,7.983-12.204,7.983l3.431,17.485
		h34.106L588.357,189.652z"/>
	<g>
		<path fill="#B8C0C7" d="M642.553,141.705l-1.68-4.16c-1.802-4.461-6.131-7.381-10.941-7.381h-30.99v19.665v83.953H727.14v-83.953
			h-72.546C649.3,149.828,644.536,146.614,642.553,141.705z"/>
		<g>
			<path fill="#FFFFFF" d="M618.278,193.174v-7.47l26.197-11.475v7.632l-18.295,7.524l18.295,7.523v7.74L618.278,193.174z"/>
			<path fill="#FFFFFF" d="M671.7,165.298h6.982l-23.978,50.121h-6.982L671.7,165.298z"/>
			<path fill="#FFFFFF" d="M707.803,185.704v7.47l-26.197,11.475v-7.632l18.295-7.523l-18.295-7.524v-7.74L707.803,185.704z"/>
		</g>
	</g>
	<path fill="#EE805F" d="M588.354,193.749l2.25-3.531c0,0,1.78-0.58,4.277-2.333c2.969-2.085,2.577-5.208,4.061-4.878l0.019,6.864
		l-0.161,0.023c6.37,1.702,13.82-0.147,13.97,1.438c0.41,4.364-2.964,6.328-5.792,7.695c-2.164,1.046-4.624,2.615-8.533,1.398
		c-2.858-0.89-7.356-1.794-7.356-1.794L588.354,193.749z"/>
	<path fill="#43A1F6" d="M559.602,133.521c0,0-20.18,1.321-25.225,9.191c-5.046,7.871-11.302,47.83-8.678,61.554
		c2.623,13.723,67.247-2.624,67.247-2.624l-2.062-11.907c0,0-37.296,0.216-39.421-4.642
		C548.639,178.635,559.602,133.521,559.602,133.521z"/>
	<path fill="#EE805F" d="M657.015,149.783c-0.174,0.523,3.034,5.81,7.616,4.891c2.857-0.573,6.572-6.725,3.308-8.081
		C662.493,144.331,657.478,148.386,657.015,149.783z"/>
</g>
<g>
	<g>
		
			<rect x="891.061" y="277.373" transform="matrix(0.8822 0.471 -0.471 0.8822 273.155 -377.7635)" fill="#151F2C" width="0.768" height="159.157"/>
	</g>
	<g>
		
			<rect x="1099.233" y="331.804" transform="matrix(0.6798 0.7334 -0.7334 0.6798 615.4662 -745.2676)" fill="#151F2C" width="123.936" height="0.768"/>
	</g>
	<g>
		<path fill="#E9E9E9" d="M1255.688,404.168c1.251,9.104-1.247,17.879-6.286,24.688c-5.034,6.807-12.604,11.638-21.496,12.86
			l-376.68,51.757c-19.226,2.642-37.002-10.095-39.504-28.303c-1.251-9.104,1.54-17.919,7.057-24.789
			c5.508-6.873,13.738-11.794,23.352-13.115l376.678-51.757C1236.592,373.065,1253.187,385.961,1255.688,404.168z"/>
		<path fill="#43A1F6" d="M1255.688,404.168c1.251,9.104-1.247,17.879-6.286,24.688c-5.034,6.807-12.604,11.638-21.496,12.86
			l-68.163,9.366l-9.097-66.207l68.162-9.366C1236.592,373.065,1253.187,385.961,1255.688,404.168z"/>
		<g>
			<g>
				<path fill="#FFFFFF" d="M1214.201,422.13c-0.838,0.115-1.689,0.169-2.551,0.159c-4.549-0.053-8.805-1.874-11.984-5.127
					c-6.562-6.716-6.438-17.52,0.279-24.082l0,0c6.717-6.562,17.52-6.438,24.082,0.279s6.438,17.52-0.279,24.083
					C1221.111,420.018,1217.788,421.637,1214.201,422.13z M1201.906,395.085c-5.61,5.481-5.716,14.505-0.233,20.116
					c2.655,2.718,6.21,4.238,10.009,4.283c3.797,0.043,7.389-1.395,10.105-4.05c5.611-5.481,5.716-14.505,0.234-20.116
					C1216.54,389.708,1207.516,389.604,1201.906,395.085L1201.906,395.085z"/>
			</g>
			
				<rect x="1190.956" y="412.682" transform="matrix(0.699 0.7152 -0.7152 0.699 662.3801 -724.9905)" fill="#FFFFFF" width="2.805" height="23.24"/>
			<path fill="#FFFFFF" d="M1178.27,438.068L1178.27,438.068c-0.967-0.989-0.949-2.575,0.041-3.542l9.789-9.565
				c0.99-0.967,2.575-0.948,3.542,0.041l0,0c0.967,0.989,0.948,2.575-0.041,3.542l-9.79,9.565
				C1180.821,439.076,1179.235,439.058,1178.27,438.068z"/>
		</g>
	</g>
</g>
<g>
	<path fill="#43A1F6" d="M623.136,763.913h-78.697c-1.638,0-2.966-1.328-2.966-2.967v-1.248c0-1.639,1.328-2.967,2.966-2.967h78.697
		c1.638,0,2.966,1.328,2.966,2.967v1.248C626.102,762.585,624.773,763.913,623.136,763.913z"/>
	<g>
		<path fill="#151F2C" d="M582.752,788.602h-38.83c-1.353,0-2.449-1.097-2.449-2.45l0,0c0-1.353,1.097-2.45,2.449-2.45h38.83
			c1.354,0,2.45,1.098,2.45,2.45l0,0C585.202,787.505,584.105,788.602,582.752,788.602z"/>
		<g>
			<path fill="#151F2C" d="M612.485,778.325h-68.733c-1.259,0-2.279-1.021-2.279-2.28v-0.34c0-1.259,1.021-2.279,2.279-2.279h68.733
				c1.259,0,2.28,1.021,2.28,2.279v0.34C614.766,777.305,613.744,778.325,612.485,778.325z"/>
			<path fill="#151F2C" d="M687.682,778.325h-64.033c-1.217,0-2.203-0.986-2.203-2.203v-0.493c0-1.217,0.986-2.203,2.203-2.203
				h64.033c1.218,0,2.204,0.986,2.204,2.203v0.493C689.886,777.339,688.899,778.325,687.682,778.325z"/>
			<path fill="#151F2C" d="M631.184,788.602h-38.829c-1.354,0-2.45-1.097-2.45-2.45l0,0c0-1.353,1.097-2.45,2.45-2.45h38.829
				c1.354,0,2.45,1.098,2.45,2.45l0,0C633.634,787.505,632.537,788.602,631.184,788.602z"/>
		</g>
	</g>
	<path fill="#43A1F6" d="M718.965,763.913h-78.697c-1.639,0-2.966-1.328-2.966-2.967v-1.248c0-1.639,1.327-2.967,2.966-2.967h78.697
		c1.639,0,2.966,1.328,2.966,2.967v1.248C721.931,762.585,720.604,763.913,718.965,763.913z"/>
</g>
<g>
	<path fill="#43A1F6" d="M623.136,817.973h-78.697c-1.638,0-2.966-1.327-2.966-2.965v-1.249c0-1.638,1.328-2.966,2.966-2.966h78.697
		c1.638,0,2.966,1.328,2.966,2.966v1.249C626.102,816.646,624.773,817.973,623.136,817.973z"/>
	<g>
		<path fill="#151F2C" d="M582.752,842.662h-38.83c-1.353,0-2.449-1.098-2.449-2.45l0,0c0-1.353,1.097-2.45,2.449-2.45h38.83
			c1.354,0,2.45,1.098,2.45,2.45l0,0C585.202,841.564,584.105,842.662,582.752,842.662z"/>
		<g>
			<path fill="#151F2C" d="M612.485,832.387h-68.733c-1.259,0-2.279-1.021-2.279-2.281v-0.34c0-1.259,1.021-2.279,2.279-2.279
				h68.733c1.259,0,2.28,1.021,2.28,2.279v0.34C614.766,831.365,613.744,832.387,612.485,832.387z"/>
			<path fill="#151F2C" d="M687.682,832.387h-64.033c-1.217,0-2.203-0.987-2.203-2.204v-0.493c0-1.217,0.986-2.203,2.203-2.203
				h64.033c1.218,0,2.204,0.986,2.204,2.203v0.493C689.886,831.399,688.899,832.387,687.682,832.387z"/>
			<path fill="#151F2C" d="M631.184,842.662h-38.829c-1.354,0-2.45-1.098-2.45-2.45l0,0c0-1.353,1.097-2.45,2.45-2.45h38.829
				c1.354,0,2.45,1.098,2.45,2.45l0,0C633.634,841.564,632.537,842.662,631.184,842.662z"/>
		</g>
	</g>
	<path fill="#43A1F6" d="M718.965,817.973h-78.697c-1.639,0-2.966-1.327-2.966-2.965v-1.249c0-1.638,1.327-2.966,2.966-2.966h78.697
		c1.639,0,2.966,1.328,2.966,2.966v1.249C721.931,816.646,720.604,817.973,718.965,817.973z"/>
</g>
<g>
	<polygon fill="#384152" points="1032.188,489.396 987.241,499.855 965.017,540.296 948.047,448.132 	"/>
	
		<rect x="991.76" y="488.633" transform="matrix(0.797 -0.604 0.604 0.797 -107.3118 705.537)" fill="#384152" width="8.216" height="47.536"/>
</g>
<g>
	<path fill="#E9E9E9" d="M1002.764,679.906H892.245c-4.474,0-8.099-3.627-8.099-8.1V561.288c0-4.473,3.625-8.099,8.099-8.099
		h110.519c4.473,0,8.099,3.626,8.099,8.099v110.519C1010.862,676.279,1007.236,679.906,1002.764,679.906z"/>
	<g>
		<path fill="#2B6EB2" d="M900.335,653.401l24.623-44.391c2.866-5.167,10.121-5.625,13.614-0.86l14.202,19.371
			c3.021,4.121,9.058,4.449,12.507,0.679l0,0c3.58-3.913,9.891-3.388,12.773,1.063l15.326,23.663
			c3.49,5.39-0.377,12.503-6.798,12.503h-79.165C901.245,665.43,897.341,658.8,900.335,653.401z"/>
		<circle fill="#2B6EB2" cx="958.614" cy="588.264" r="9.686"/>
	</g>
</g>
<g>
	<path fill="#E9E9E9" d="M1164.873,683.319l-109.504,14.937c-4.433,0.605-8.516-2.497-9.12-6.93l-14.937-109.504
		c-0.605-4.432,2.498-8.515,6.929-9.12l109.505-14.937c4.432-0.604,8.516,2.498,9.12,6.93l14.937,109.504
		C1172.407,678.632,1169.305,682.715,1164.873,683.319z"/>
	<g>
		<path fill="#2B6EB2" d="M1059.802,670.902l18.397-47.313c2.142-5.506,9.268-6.941,13.373-2.691l16.689,17.273
			c3.551,3.675,9.576,3.184,12.484-1.019l0,0c3.019-4.36,9.342-4.692,12.801-0.672l18.383,21.375
			c4.187,4.867,1.316,12.438-5.045,13.306l-78.439,10.699C1062.328,682.696,1057.564,676.654,1059.802,670.902z"/>
		<circle fill="#2B6EB2" cx="1108.743" cy="598.485" r="9.686"/>
	</g>
</g>
<g>
	<rect x="779.031" y="1074.785" fill="#43A1F6" width="63.86" height="54.755"/>
	<rect x="776.453" y="1072.441" fill="#384152" width="68.601" height="4.23"/>
	<rect x="779.031" y="1089.6" fill="#384152" width="63.86" height="17.393"/>
</g>
<path fill="#43A1F6" d="M920.589,1129.578h-60.3c-2.208,0-3.997-1.789-3.997-3.996v-6.688c0-2.382,2.07-4.235,4.438-3.973
	l60.3,6.688c2.024,0.225,3.557,1.936,3.557,3.973l0,0C924.586,1127.789,922.796,1129.578,920.589,1129.578z"/>
<g>
	<path fill="#151F2C" d="M815.254,684.885h-6.949c-0.631,0-1.143-0.512-1.143-1.143s0.512-1.143,1.143-1.143h6.901
		c0.631,0,1.167,0.512,1.167,1.143S815.885,684.885,815.254,684.885z M801.402,684.885h-6.901c-0.631,0-1.144-0.512-1.144-1.143
		s0.513-1.143,1.144-1.143h6.901c0.631,0,1.143,0.512,1.143,1.143S802.033,684.885,801.402,684.885z M787.599,684.885h-6.902
		c-0.631,0-1.142-0.512-1.142-1.143s0.511-1.143,1.142-1.143h6.902c0.631,0,1.143,0.512,1.143,1.143
		S788.229,684.885,787.599,684.885z M773.795,684.885h-6.902c-0.631,0-1.143-0.512-1.143-1.143s0.512-1.143,1.143-1.143h6.902
		c0.631,0,1.143,0.512,1.143,1.143S774.426,684.885,773.795,684.885z M759.991,684.885h-6.902c-0.631,0-1.143-0.512-1.143-1.143
		s0.512-1.143,1.143-1.143h6.902c0.63,0,1.142,0.512,1.142,1.143S760.621,684.885,759.991,684.885z M746.188,684.885h-6.902
		c-0.631,0-1.143-0.512-1.143-1.143s0.512-1.143,1.143-1.143h6.902c0.631,0,1.143,0.512,1.143,1.143
		S746.818,684.885,746.188,684.885z M732.383,684.885h-6.902c-0.631,0-1.143-0.512-1.143-1.143s0.512-1.143,1.143-1.143h6.902
		c0.631,0,1.143,0.512,1.143,1.143S733.014,684.885,732.383,684.885z M718.579,684.885h-6.902c-0.631,0-1.143-0.512-1.143-1.143
		s0.512-1.143,1.143-1.143h6.902c0.631,0,1.142,0.512,1.142,1.143S719.21,684.885,718.579,684.885z M704.775,684.885h-6.902
		c-0.631,0-1.143-0.512-1.143-1.143s0.512-1.143,1.143-1.143h6.902c0.631,0,1.142,0.512,1.142,1.143
		S705.406,684.885,704.775,684.885z M690.972,684.885h-6.902c-0.631,0-1.143-0.512-1.143-1.143s0.512-1.143,1.143-1.143h6.902
		c0.631,0,1.143,0.512,1.143,1.143S691.603,684.885,690.972,684.885z M677.168,684.885h-6.902c-0.631,0-1.143-0.512-1.143-1.143
		s0.512-1.143,1.143-1.143h6.902c0.631,0,1.142,0.512,1.142,1.143S677.799,684.885,677.168,684.885z M663.363,684.885h-6.901
		c-0.631,0-1.144-0.512-1.144-1.143s0.513-1.143,1.144-1.143h6.901c0.631,0,1.143,0.512,1.143,1.143
		S663.994,684.885,663.363,684.885z M649.56,684.885h-6.902c-0.63,0-1.143-0.512-1.143-1.143s0.513-1.143,1.143-1.143h6.902
		c0.631,0,1.143,0.512,1.143,1.143S650.19,684.885,649.56,684.885z M635.756,684.885h-6.902c-0.631,0-1.143-0.512-1.143-1.143
		s0.512-1.143,1.143-1.143h6.902c0.631,0,1.143,0.512,1.143,1.143S636.387,684.885,635.756,684.885z M621.952,684.885h-6.902
		c-0.631,0-1.143-0.512-1.143-1.143s0.512-1.143,1.143-1.143h6.902c0.631,0,1.143,0.512,1.143,1.143
		S622.583,684.885,621.952,684.885z M608.148,684.885h-6.902c-0.631,0-1.143-0.512-1.143-1.143s0.512-1.143,1.143-1.143h6.902
		c0.631,0,1.143,0.512,1.143,1.143S608.779,684.885,608.148,684.885z M594.344,684.885h-6.901c-0.631,0-1.143-0.512-1.143-1.143
		s0.512-1.143,1.143-1.143h6.901c0.631,0,1.143,0.512,1.143,1.143S594.975,684.885,594.344,684.885z M580.54,684.885h-6.152
		c-0.275,0-0.55-0.009-0.821-0.026c-0.63-0.04-1.107-0.583-1.068-1.213c0.041-0.629,0.582-1.118,1.213-1.067
		c0.225,0.014,0.449,0.021,0.677,0.021h6.152c0.631,0,1.143,0.512,1.143,1.143S581.171,684.885,580.54,684.885z M821.75,682.877
		c-0.365,0-0.725-0.176-0.945-0.5c-0.355-0.522-0.22-1.232,0.303-1.588c1.738-1.182,3.071-2.832,3.854-4.773
		c0.235-0.585,0.9-0.866,1.486-0.633c0.585,0.236,0.868,0.901,0.632,1.486c-0.953,2.363-2.574,4.372-4.689,5.81
		C822.195,682.813,821.971,682.877,821.75,682.877z M567.275,682.465c-0.243,0-0.488-0.077-0.696-0.238
		c-2.027-1.562-3.525-3.665-4.332-6.081c-0.2-0.599,0.122-1.245,0.722-1.445c0.597-0.198,1.245,0.123,1.445,0.722
		c0.663,1.983,1.894,3.711,3.56,4.996c0.5,0.385,0.593,1.102,0.208,1.602C567.956,682.312,567.618,682.465,567.275,682.465z
		 M826.862,670.792c-0.631,0-1.143-0.512-1.143-1.143v-6.901c0-0.631,0.512-1.144,1.143-1.144s1.143,0.513,1.143,1.144v6.901
		C828.005,670.28,827.493,670.792,826.862,670.792z M562.731,670.091c-0.631,0-1.143-0.513-1.143-1.144v-6.902
		c0-0.63,0.512-1.142,1.143-1.142s1.143,0.512,1.143,1.142v6.902C563.874,669.578,563.362,670.091,562.731,670.091z
		 M826.862,656.988c-0.631,0-1.143-0.512-1.143-1.143v-6.902c0-0.631,0.512-1.143,1.143-1.143s1.143,0.512,1.143,1.143v6.902
		C828.005,656.477,827.493,656.988,826.862,656.988z M562.731,656.286c-0.631,0-1.143-0.512-1.143-1.143v-6.901
		c0-0.631,0.512-1.144,1.143-1.144s1.143,0.513,1.143,1.144v6.901C563.874,655.774,563.362,656.286,562.731,656.286z
		 M826.862,643.184c-0.631,0-1.143-0.512-1.143-1.143v-6.901c0-0.631,0.512-1.143,1.143-1.143s1.143,0.512,1.143,1.143v6.901
		C828.005,642.672,827.493,643.184,826.862,643.184z M562.731,642.482c-0.631,0-1.143-0.512-1.143-1.143v-6.902
		c0-0.631,0.512-1.143,1.143-1.143s1.143,0.512,1.143,1.143v6.902C563.874,641.971,563.362,642.482,562.731,642.482z
		 M826.862,629.381c-0.631,0-1.143-0.512-1.143-1.144v-6.901c0-0.631,0.512-1.143,1.143-1.143s1.143,0.512,1.143,1.143v6.901
		C828.005,628.869,827.493,629.381,826.862,629.381z M562.731,628.678c-0.631,0-1.143-0.512-1.143-1.143v-6.901
		c0-0.63,0.512-1.143,1.143-1.143s1.143,0.513,1.143,1.143v6.901C563.874,628.166,563.362,628.678,562.731,628.678z
		 M826.862,615.576c-0.631,0-1.143-0.512-1.143-1.143v-6.901c0-0.631,0.512-1.143,1.143-1.143s1.143,0.512,1.143,1.143v6.901
		C828.005,615.064,827.493,615.576,826.862,615.576z M562.731,614.875c-0.631,0-1.143-0.512-1.143-1.143v-6.902
		c0-0.631,0.512-1.143,1.143-1.143s1.143,0.512,1.143,1.143v6.902C563.874,614.363,563.362,614.875,562.731,614.875z
		 M826.862,601.772c-0.631,0-1.143-0.512-1.143-1.143v-6.902c0-0.631,0.512-1.143,1.143-1.143s1.143,0.512,1.143,1.143v6.902
		C828.005,601.261,827.493,601.772,826.862,601.772z M562.731,601.07c-0.631,0-1.143-0.512-1.143-1.143v-6.902
		c0-0.631,0.512-1.143,1.143-1.143s1.143,0.512,1.143,1.143v6.902C563.874,600.559,563.362,601.07,562.731,601.07z M826.862,587.969
		c-0.631,0-1.143-0.512-1.143-1.143v-6.902c0-0.631,0.512-1.143,1.143-1.143s1.143,0.512,1.143,1.143v6.902
		C828.005,587.457,827.493,587.969,826.862,587.969z M562.731,587.267c-0.631,0-1.143-0.512-1.143-1.143v-6.902
		c0-0.631,0.512-1.143,1.143-1.143s1.143,0.512,1.143,1.143v6.902C563.874,586.755,563.362,587.267,562.731,587.267z
		 M826.862,574.165c-0.631,0-1.143-0.512-1.143-1.143v-6.902c0-0.631,0.512-1.143,1.143-1.143s1.143,0.512,1.143,1.143v6.902
		C828.005,573.653,827.493,574.165,826.862,574.165z M562.731,573.463c-0.631,0-1.143-0.512-1.143-1.143v-6.902
		c0-0.631,0.512-1.143,1.143-1.143s1.143,0.512,1.143,1.143v6.902C563.874,572.951,563.362,573.463,562.731,573.463z
		 M826.862,560.361c-0.631,0-1.143-0.512-1.143-1.143v-6.902c0-0.631,0.512-1.143,1.143-1.143s1.143,0.512,1.143,1.143v6.902
		C828.005,559.849,827.493,560.361,826.862,560.361z M562.731,559.659c-0.631,0-1.143-0.512-1.143-1.143v-6.902
		c0-0.631,0.512-1.143,1.143-1.143s1.143,0.512,1.143,1.143v6.902C563.874,559.147,563.362,559.659,562.731,559.659z
		 M826.862,546.557c-0.631,0-1.143-0.512-1.143-1.143v-3.115c0-1.148-0.184-2.277-0.546-3.355c-0.201-0.598,0.12-1.246,0.718-1.447
		c0.599-0.203,1.246,0.12,1.447,0.718c0.442,1.313,0.666,2.687,0.666,4.084v3.115C828.005,546.045,827.493,546.557,826.862,546.557z
		 M562.731,545.855c-0.631,0-1.143-0.512-1.143-1.143v-2.413c0-1.662,0.314-3.279,0.934-4.808c0.238-0.585,0.904-0.867,1.488-0.629
		c0.585,0.237,0.867,0.903,0.63,1.488c-0.509,1.255-0.767,2.583-0.767,3.949v2.413C563.874,545.343,563.362,545.855,562.731,545.855
		z M822.298,534.19c-0.243,0-0.487-0.077-0.694-0.236c-1.664-1.277-3.649-2.021-5.741-2.149c-0.63-0.039-1.109-0.58-1.071-1.21
		c0.039-0.63,0.587-1.117,1.211-1.07c2.548,0.156,4.967,1.061,6.993,2.617c0.5,0.385,0.594,1.102,0.21,1.602
		C822.98,534.037,822.641,534.19,822.298,534.19z M567.865,533.78c-0.366,0-0.727-0.176-0.947-0.502
		c-0.354-0.522-0.217-1.233,0.307-1.586c2.111-1.428,4.579-2.186,7.137-2.191c0.002,0,0.002,0,0.003,0c0.63,0,1.142,0.51,1.142,1.14
		c0.002,0.631-0.509,1.144-1.14,1.145c-2.102,0.004-4.128,0.626-5.861,1.798C568.309,533.717,568.086,533.78,567.865,533.78z
		 M809.03,531.786h-6.901c-0.631,0-1.143-0.512-1.143-1.143s0.512-1.143,1.143-1.143h6.901c0.631,0,1.143,0.512,1.143,1.143
		S809.661,531.786,809.03,531.786z M795.227,531.786h-6.902c-0.631,0-1.143-0.512-1.143-1.143s0.512-1.143,1.143-1.143h6.902
		c0.631,0,1.143,0.512,1.143,1.143S795.857,531.786,795.227,531.786z M781.422,531.786h-6.901c-0.631,0-1.142-0.512-1.142-1.143
		s0.511-1.143,1.142-1.143h6.901c0.631,0,1.143,0.512,1.143,1.143S782.053,531.786,781.422,531.786z M767.619,531.786h-6.902
		c-0.631,0-1.143-0.512-1.143-1.143s0.512-1.143,1.143-1.143h6.902c0.631,0,1.142,0.512,1.142,1.143S768.25,531.786,767.619,531.786
		z M753.814,531.786h-6.901c-0.631,0-1.143-0.512-1.143-1.143s0.512-1.143,1.143-1.143h6.901c0.631,0,1.143,0.512,1.143,1.143
		S754.445,531.786,753.814,531.786z M740.011,531.786h-6.901c-0.631,0-1.143-0.512-1.143-1.143s0.512-1.143,1.143-1.143h6.901
		c0.631,0,1.143,0.512,1.143,1.143S740.642,531.786,740.011,531.786z M726.207,531.786h-6.902c-0.631,0-1.143-0.512-1.143-1.143
		s0.512-1.143,1.143-1.143h6.902c0.631,0,1.143,0.512,1.143,1.143S726.838,531.786,726.207,531.786z M712.403,531.786h-6.902
		c-0.631,0-1.143-0.512-1.143-1.143s0.512-1.143,1.143-1.143h6.902c0.631,0,1.143,0.512,1.143,1.143
		S713.034,531.786,712.403,531.786z M698.6,531.786h-6.902c-0.631,0-1.143-0.512-1.143-1.143s0.512-1.143,1.143-1.143h6.902
		c0.631,0,1.143,0.512,1.143,1.143S699.23,531.786,698.6,531.786z M684.795,531.786h-6.901c-0.631,0-1.143-0.512-1.143-1.143
		s0.512-1.143,1.143-1.143h6.901c0.632,0,1.143,0.512,1.143,1.143S685.427,531.786,684.795,531.786z M670.991,531.786h-6.902
		c-0.631,0-1.142-0.512-1.142-1.143s0.511-1.143,1.142-1.143h6.902c0.631,0,1.143,0.512,1.143,1.143
		S671.622,531.786,670.991,531.786z M657.188,531.786h-6.902c-0.631,0-1.143-0.512-1.143-1.143s0.512-1.143,1.143-1.143h6.902
		c0.631,0,1.143,0.512,1.143,1.143S657.818,531.786,657.188,531.786z M643.384,531.786h-6.902c-0.631,0-1.142-0.512-1.142-1.143
		s0.511-1.143,1.142-1.143h6.902c0.631,0,1.143,0.512,1.143,1.143S644.015,531.786,643.384,531.786z M629.58,531.786h-6.902
		c-0.631,0-1.143-0.512-1.143-1.143s0.512-1.143,1.143-1.143h6.902c0.631,0,1.143,0.512,1.143,1.143S630.211,531.786,629.58,531.786
		z M615.776,531.786h-6.903c-0.63,0-1.142-0.512-1.142-1.143s0.512-1.143,1.142-1.143h6.903c0.631,0,1.143,0.512,1.143,1.143
		S616.407,531.786,615.776,531.786z M601.972,531.786h-6.901c-0.631,0-1.144-0.512-1.144-1.143s0.513-1.143,1.144-1.143h6.901
		c0.631,0,1.143,0.512,1.143,1.143S602.603,531.786,601.972,531.786z M588.168,531.786h-6.902c-0.631,0-1.143-0.512-1.143-1.143
		s0.512-1.143,1.143-1.143h6.902c0.631,0,1.143,0.512,1.143,1.143S588.799,531.786,588.168,531.786z"/>
</g>
<g>
	<path fill="#151F2C" d="M1207.598,876.434h-6.16c-0.559,0-1.012-0.452-1.012-1.012c0-0.559,0.453-1.012,1.012-1.012h6.114
		c0.56,0,1.035,0.453,1.035,1.012C1208.587,875.981,1208.157,876.434,1207.598,876.434z M1195.324,876.434h-6.115
		c-0.559,0-1.012-0.452-1.012-1.012c0-0.559,0.453-1.012,1.012-1.012h6.115c0.559,0,1.012,0.453,1.012,1.012
		C1196.336,875.981,1195.883,876.434,1195.324,876.434z M1183.096,876.434h-6.114c-0.56,0-1.013-0.452-1.013-1.012
		c0-0.559,0.453-1.012,1.013-1.012h6.114c0.559,0,1.012,0.453,1.012,1.012C1184.107,875.981,1183.654,876.434,1183.096,876.434z
		 M1170.867,876.434h-6.114c-0.56,0-1.012-0.452-1.012-1.012c0-0.559,0.452-1.012,1.012-1.012h6.114
		c0.559,0,1.012,0.453,1.012,1.012C1171.879,875.981,1171.426,876.434,1170.867,876.434z M1158.639,876.434h-6.114
		c-0.56,0-1.012-0.452-1.012-1.012c0-0.559,0.452-1.012,1.012-1.012h6.114c0.559,0,1.012,0.453,1.012,1.012
		C1159.65,875.981,1159.197,876.434,1158.639,876.434z M1146.41,876.434h-6.114c-0.559,0-1.012-0.452-1.012-1.012
		c0-0.559,0.453-1.012,1.012-1.012h6.114c0.559,0,1.012,0.453,1.012,1.012C1147.422,875.981,1146.969,876.434,1146.41,876.434z
		 M1134.182,876.434h-6.113c-0.56,0-1.012-0.452-1.012-1.012c0-0.559,0.452-1.012,1.012-1.012h6.113c0.56,0,1.012,0.453,1.012,1.012
		C1135.193,875.981,1134.741,876.434,1134.182,876.434z M1121.953,876.434h-6.114c-0.559,0-1.012-0.452-1.012-1.012
		c0-0.559,0.453-1.012,1.012-1.012h6.114c0.56,0,1.012,0.453,1.012,1.012C1122.965,875.981,1122.513,876.434,1121.953,876.434z
		 M1109.725,876.434h-6.113c-0.559,0-1.012-0.452-1.012-1.012c0-0.559,0.453-1.012,1.012-1.012h6.113
		c0.56,0,1.013,0.453,1.013,1.012C1110.737,875.981,1110.284,876.434,1109.725,876.434z M1097.497,876.434h-5.905
		c-0.087,0-0.174-0.002-0.259-0.006c-0.558-0.027-0.989-0.503-0.961-1.061s0.482-0.979,1.062-0.962
		c0.052,0.003,0.105,0.005,0.158,0.005h5.905c0.56,0,1.012,0.453,1.012,1.012C1098.509,875.981,1098.057,876.434,1097.497,876.434z
		 M1211.553,872.561c-0.012,0-0.021,0-0.033,0c-0.559-0.019-0.997-0.486-0.979-1.045l0.002-0.096v-5.985
		c0-0.56,0.453-1.013,1.012-1.013c0.56,0,1.013,0.453,1.013,1.013l-0.002,6.146C1212.546,872.129,1212.097,872.561,1211.553,872.561
		z M1087.591,872.396c-0.56,0-1.013-0.453-1.013-1.012v-6.114c0-0.559,0.453-1.012,1.013-1.012c0.559,0,1.012,0.453,1.012,1.012
		v6.114C1088.603,871.943,1088.149,872.396,1087.591,872.396z M1211.554,860.332c-0.559,0-1.012-0.453-1.012-1.012v-6.114
		c0-0.559,0.453-1.012,1.012-1.012c0.56,0,1.013,0.453,1.013,1.012v6.114C1212.566,859.879,1212.113,860.332,1211.554,860.332z
		 M1087.591,860.168c-0.56,0-1.013-0.452-1.013-1.012v-6.114c0-0.56,0.453-1.012,1.013-1.012c0.559,0,1.012,0.452,1.012,1.012v6.114
		C1088.603,859.716,1088.149,860.168,1087.591,860.168z M1211.554,848.104c-0.559,0-1.012-0.453-1.012-1.012v-6.114
		c0-0.56,0.453-1.013,1.012-1.013c0.56,0,1.013,0.453,1.013,1.013v6.114C1212.566,847.65,1212.113,848.104,1211.554,848.104z
		 M1087.591,847.939c-0.56,0-1.013-0.453-1.013-1.012v-5.962c0-0.064,0.001-0.129,0.004-0.193c0.022-0.558,0.473-0.999,1.053-0.97
		c0.559,0.022,0.992,0.494,0.97,1.052l-0.002,0.111v5.962C1088.603,847.486,1088.149,847.939,1087.591,847.939z M1207.739,837.979
		c-0.015,0-0.03,0-0.045-0.001l-0.143-0.004h-5.927c-0.559,0-1.012-0.452-1.012-1.012c0-0.559,0.453-1.012,1.012-1.012h5.927
		c0.077,0,0.154,0.001,0.231,0.005c0.559,0.024,0.992,0.497,0.967,1.056C1208.727,837.555,1208.277,837.979,1207.739,837.979z
		 M1195.51,837.975h-6.113c-0.56,0-1.013-0.452-1.013-1.012c0-0.559,0.453-1.012,1.013-1.012h6.113c0.56,0,1.012,0.453,1.012,1.012
		C1196.521,837.522,1196.069,837.975,1195.51,837.975z M1183.282,837.975h-6.114c-0.56,0-1.012-0.452-1.012-1.012
		c0-0.559,0.452-1.012,1.012-1.012h6.114c0.559,0,1.012,0.453,1.012,1.012C1184.294,837.522,1183.841,837.975,1183.282,837.975z
		 M1171.054,837.975h-6.114c-0.559,0-1.012-0.452-1.012-1.012c0-0.559,0.453-1.012,1.012-1.012h6.114
		c0.56,0,1.013,0.453,1.013,1.012C1172.066,837.522,1171.613,837.975,1171.054,837.975z M1158.825,837.975h-6.114
		c-0.559,0-1.012-0.452-1.012-1.012c0-0.559,0.453-1.012,1.012-1.012h6.114c0.559,0,1.012,0.453,1.012,1.012
		C1159.837,837.522,1159.384,837.975,1158.825,837.975z M1146.597,837.975h-6.114c-0.559,0-1.012-0.452-1.012-1.012
		c0-0.559,0.453-1.012,1.012-1.012h6.114c0.56,0,1.012,0.453,1.012,1.012C1147.608,837.522,1147.156,837.975,1146.597,837.975z
		 M1134.369,837.975h-6.115c-0.559,0-1.012-0.452-1.012-1.012c0-0.559,0.453-1.012,1.012-1.012h6.115
		c0.559,0,1.012,0.453,1.012,1.012C1135.381,837.522,1134.928,837.975,1134.369,837.975z M1122.14,837.975h-6.114
		c-0.559,0-1.012-0.452-1.012-1.012c0-0.559,0.453-1.012,1.012-1.012h6.114c0.56,0,1.013,0.453,1.013,1.012
		C1123.152,837.522,1122.699,837.975,1122.14,837.975z M1109.912,837.975h-6.114c-0.559,0-1.012-0.452-1.012-1.012
		c0-0.559,0.453-1.012,1.012-1.012h6.114c0.559,0,1.012,0.453,1.012,1.012C1110.924,837.522,1110.471,837.975,1109.912,837.975z
		 M1097.684,837.975h-6.092c-0.559,0-1.023-0.452-1.023-1.012c0-0.559,0.441-1.012,1.001-1.012h6.114
		c0.559,0,1.012,0.453,1.012,1.012C1098.695,837.522,1098.242,837.975,1097.684,837.975z"/>
</g>
<g>
	<path fill="#151F2C" d="M770.876,511.552h-6.809c-0.631,0-1.143-0.512-1.143-1.143s0.512-1.143,1.143-1.143h6.766
		c0.631,0,1.164,0.512,1.164,1.143S771.506,511.552,770.876,511.552z M757.302,511.552h-6.766c-0.631,0-1.143-0.512-1.143-1.143
		s0.512-1.143,1.143-1.143h6.766c0.631,0,1.143,0.512,1.143,1.143S757.933,511.552,757.302,511.552z M743.77,511.552h-6.766
		c-0.631,0-1.143-0.512-1.143-1.143s0.512-1.143,1.143-1.143h6.766c0.631,0,1.144,0.512,1.144,1.143S744.4,511.552,743.77,511.552z
		 M730.238,511.552h-6.766c-0.631,0-1.143-0.512-1.143-1.143s0.512-1.143,1.143-1.143h6.766c0.631,0,1.143,0.512,1.143,1.143
		S730.869,511.552,730.238,511.552z M716.707,511.552h-6.766c-0.631,0-1.143-0.512-1.143-1.143s0.512-1.143,1.143-1.143h6.766
		c0.631,0,1.143,0.512,1.143,1.143S717.338,511.552,716.707,511.552z M703.176,511.552h-6.767c-0.631,0-1.143-0.512-1.143-1.143
		s0.512-1.143,1.143-1.143h6.767c0.631,0,1.143,0.512,1.143,1.143S703.807,511.552,703.176,511.552z M689.644,511.552h-6.766
		c-0.631,0-1.143-0.512-1.143-1.143s0.512-1.143,1.143-1.143h6.766c0.631,0,1.143,0.512,1.143,1.143
		S690.274,511.552,689.644,511.552z M676.238,510.824c-0.191,0-0.385-0.048-0.563-0.148c-2.116-1.201-3.432-3.456-3.431-5.887
		v-0.829c0-0.631,0.511-1.143,1.142-1.143c0.632,0,1.144,0.512,1.144,1.143v0.83c-0.001,1.609,0.87,3.104,2.272,3.898
		c0.549,0.312,0.741,1.008,0.43,1.557C677.022,510.616,676.636,510.824,676.238,510.824z M776.095,507.912
		c-0.134,0-0.27-0.023-0.402-0.073c-0.591-0.223-0.889-0.881-0.667-1.472c0.189-0.503,0.285-1.034,0.285-1.578v-4.743
		c0-0.631,0.512-1.143,1.143-1.143s1.143,0.512,1.143,1.143v4.743c0,0.819-0.145,1.621-0.432,2.382
		C776.992,507.63,776.557,507.912,776.095,507.912z M673.387,498.337c-0.631,0-1.142-0.512-1.142-1.143v-6.766
		c0-0.631,0.511-1.143,1.142-1.143c0.632,0,1.144,0.512,1.144,1.143v6.766C674.53,497.825,674.019,498.337,673.387,498.337z
		 M776.453,494.424c-0.631,0-1.143-0.512-1.143-1.143v-6.766c0-0.631,0.512-1.143,1.143-1.143s1.143,0.512,1.143,1.143v6.766
		C777.596,493.912,777.084,494.424,776.453,494.424z M673.387,484.805c-0.631,0-1.142-0.512-1.142-1.143v-6.766
		c0-0.631,0.511-1.143,1.142-1.143c0.632,0,1.144,0.512,1.144,1.143v6.766C674.53,484.293,674.019,484.805,673.387,484.805z
		 M776.453,480.892c-0.631,0-1.143-0.512-1.143-1.143v-6.766c0-0.631,0.512-1.143,1.143-1.143s1.143,0.512,1.143,1.143v6.766
		C777.596,480.38,777.084,480.892,776.453,480.892z M673.387,471.273c-0.631,0-1.142-0.512-1.142-1.143v-6.766
		c0-0.631,0.511-1.143,1.142-1.143c0.632,0,1.144,0.512,1.144,1.143v6.766C674.53,470.762,674.019,471.273,673.387,471.273z
		 M776.453,467.36c-0.631,0-1.143-0.512-1.143-1.143v-6.766c0-0.631,0.512-1.143,1.143-1.143s1.143,0.512,1.143,1.143v6.766
		C777.596,466.849,777.084,467.36,776.453,467.36z M673.387,457.742c-0.631,0-1.142-0.512-1.142-1.143v-6.766
		c0-0.631,0.511-1.143,1.142-1.143c0.632,0,1.144,0.512,1.144,1.143v6.766C674.53,457.23,674.019,457.742,673.387,457.742z
		 M776.453,453.829c-0.631,0-1.143-0.512-1.143-1.143v-6.766c0-0.631,0.512-1.143,1.143-1.143s1.143,0.512,1.143,1.143v6.766
		C777.596,453.317,777.084,453.829,776.453,453.829z M673.387,444.21c-0.631,0-1.142-0.512-1.142-1.143v-6.766
		c0-0.631,0.511-1.143,1.142-1.143c0.632,0,1.144,0.512,1.144,1.143v6.766C674.53,443.698,674.019,444.21,673.387,444.21z
		 M776.453,440.297c-0.631,0-1.143-0.512-1.143-1.143v-6.766c0-0.63,0.512-1.143,1.143-1.143s1.143,0.512,1.143,1.143v6.766
		C777.596,439.786,777.084,440.297,776.453,440.297z M673.387,430.678c-0.631,0-1.142-0.512-1.142-1.143v-4.721
		c0-0.828,0.148-1.637,0.44-2.406c0.225-0.588,0.883-0.885,1.475-0.661c0.589,0.225,0.886,0.884,0.661,1.474
		c-0.193,0.508-0.291,1.044-0.291,1.593v4.721C674.53,430.167,674.019,430.678,673.387,430.678z M776.453,426.766
		c-0.631,0-1.143-0.512-1.143-1.143v-0.809c0-1.616-0.876-3.113-2.287-3.907c-0.55-0.31-0.745-1.006-0.436-1.556
		c0.309-0.549,1.005-0.745,1.556-0.436c2.129,1.197,3.452,3.458,3.452,5.898v0.809C777.596,426.254,777.084,426.766,776.453,426.766
		z M766.942,420.337h-6.767c-0.631,0-1.143-0.512-1.143-1.143c0-0.63,0.512-1.143,1.143-1.143h6.767c0.63,0,1.143,0.512,1.143,1.143
		C768.085,419.825,767.572,420.337,766.942,420.337z M753.41,420.337h-6.766c-0.631,0-1.143-0.512-1.143-1.143
		c0-0.63,0.512-1.143,1.143-1.143h6.766c0.631,0,1.143,0.512,1.143,1.143C754.553,419.825,754.041,420.337,753.41,420.337z
		 M739.879,420.337h-6.766c-0.631,0-1.143-0.512-1.143-1.143c0-0.63,0.512-1.143,1.143-1.143h6.766c0.631,0,1.143,0.512,1.143,1.143
		C741.021,419.825,740.51,420.337,739.879,420.337z M726.348,420.337h-6.767c-0.631,0-1.143-0.512-1.143-1.143
		c0-0.63,0.512-1.143,1.143-1.143h6.767c0.63,0,1.143,0.512,1.143,1.143C727.49,419.825,726.978,420.337,726.348,420.337z
		 M712.815,420.337h-6.766c-0.631,0-1.144-0.512-1.144-1.143c0-0.63,0.513-1.143,1.144-1.143h6.766c0.631,0,1.143,0.512,1.143,1.143
		C713.958,419.825,713.446,420.337,712.815,420.337z M699.284,420.337h-6.767c-0.631,0-1.143-0.512-1.143-1.143
		c0-0.63,0.512-1.143,1.143-1.143h6.767c0.63,0,1.143,0.512,1.143,1.143C700.427,419.825,699.914,420.337,699.284,420.337z
		 M685.752,420.337h-6.744c-0.631,0-1.153-0.512-1.153-1.143c0-0.63,0.501-1.143,1.132-1.143h6.766c0.631,0,1.143,0.512,1.143,1.143
		C686.895,419.825,686.383,420.337,685.752,420.337z"/>
</g>
<g>
	<path fill="#151F2C" d="M1207.598,932.863h-6.16c-0.559,0-1.012-0.453-1.012-1.012c0-0.56,0.453-1.013,1.012-1.013h6.114
		c0.56,0,1.035,0.453,1.035,1.013C1208.587,932.41,1208.157,932.863,1207.598,932.863z M1195.324,932.863h-6.115
		c-0.559,0-1.012-0.453-1.012-1.012c0-0.56,0.453-1.013,1.012-1.013h6.115c0.559,0,1.012,0.453,1.012,1.013
		C1196.336,932.41,1195.883,932.863,1195.324,932.863z M1183.096,932.863h-6.114c-0.56,0-1.013-0.453-1.013-1.012
		c0-0.56,0.453-1.013,1.013-1.013h6.114c0.559,0,1.012,0.453,1.012,1.013C1184.107,932.41,1183.654,932.863,1183.096,932.863z
		 M1170.867,932.863h-6.114c-0.56,0-1.012-0.453-1.012-1.012c0-0.56,0.452-1.013,1.012-1.013h6.114c0.559,0,1.012,0.453,1.012,1.013
		C1171.879,932.41,1171.426,932.863,1170.867,932.863z M1158.639,932.863h-6.114c-0.56,0-1.012-0.453-1.012-1.012
		c0-0.56,0.452-1.013,1.012-1.013h6.114c0.559,0,1.012,0.453,1.012,1.013C1159.65,932.41,1159.197,932.863,1158.639,932.863z
		 M1146.41,932.863h-6.114c-0.559,0-1.012-0.453-1.012-1.012c0-0.56,0.453-1.013,1.012-1.013h6.114c0.559,0,1.012,0.453,1.012,1.013
		C1147.422,932.41,1146.969,932.863,1146.41,932.863z M1134.182,932.863h-6.113c-0.56,0-1.012-0.453-1.012-1.012
		c0-0.56,0.452-1.013,1.012-1.013h6.113c0.56,0,1.012,0.453,1.012,1.013C1135.193,932.41,1134.741,932.863,1134.182,932.863z
		 M1121.953,932.863h-6.114c-0.559,0-1.012-0.453-1.012-1.012c0-0.56,0.453-1.013,1.012-1.013h6.114c0.56,0,1.012,0.453,1.012,1.013
		C1122.965,932.41,1122.513,932.863,1121.953,932.863z M1109.725,932.863h-6.113c-0.559,0-1.012-0.453-1.012-1.012
		c0-0.56,0.453-1.013,1.012-1.013h6.113c0.56,0,1.013,0.453,1.013,1.013C1110.737,932.41,1110.284,932.863,1109.725,932.863z
		 M1097.497,932.863h-5.905c-0.087,0-0.174-0.002-0.259-0.006c-0.558-0.028-0.989-0.503-0.961-1.062
		c0.028-0.558,0.482-0.995,1.062-0.962c0.052,0.003,0.105,0.005,0.158,0.005h5.905c0.56,0,1.012,0.453,1.012,1.013
		C1098.509,932.41,1098.057,932.863,1097.497,932.863z M1211.553,928.989c-0.012,0-0.021,0-0.033,0
		c-0.559-0.019-0.997-0.485-0.979-1.045l0.002-0.096v-5.985c0-0.559,0.453-1.012,1.012-1.012c0.56,0,1.013,0.453,1.013,1.012
		l-0.002,6.146C1212.546,928.558,1212.097,928.989,1211.553,928.989z M1087.591,928.826c-0.56,0-1.013-0.453-1.013-1.013v-6.114
		c0-0.559,0.453-1.012,1.013-1.012c0.559,0,1.012,0.453,1.012,1.012v6.114C1088.603,928.373,1088.149,928.826,1087.591,928.826z
		 M1211.554,916.761c-0.559,0-1.012-0.452-1.012-1.012v-6.114c0-0.559,0.453-1.012,1.012-1.012c0.56,0,1.013,0.453,1.013,1.012
		v6.114C1212.566,916.309,1212.113,916.761,1211.554,916.761z M1087.591,916.598c-0.56,0-1.013-0.453-1.013-1.012v-6.115
		c0-0.559,0.453-1.012,1.013-1.012c0.559,0,1.012,0.453,1.012,1.012v6.115C1088.603,916.145,1088.149,916.598,1087.591,916.598z
		 M1211.554,904.532c-0.559,0-1.012-0.453-1.012-1.012v-6.114c0-0.559,0.453-1.012,1.012-1.012c0.56,0,1.013,0.453,1.013,1.012
		v6.114C1212.566,904.079,1212.113,904.532,1211.554,904.532z M1087.591,904.369c-0.56,0-1.013-0.453-1.013-1.013v-5.962
		c0-0.064,0.001-0.129,0.004-0.192c0.022-0.559,0.473-0.997,1.053-0.971c0.559,0.022,0.992,0.494,0.97,1.053l-0.002,0.11v5.962
		C1088.603,903.916,1088.149,904.369,1087.591,904.369z M1207.739,894.408c-0.015,0-0.03,0-0.045-0.001l-0.143-0.003h-5.927
		c-0.559,0-1.012-0.453-1.012-1.012c0-0.56,0.453-1.013,1.012-1.013h5.927c0.077,0,0.154,0.002,0.231,0.005
		c0.559,0.024,0.992,0.498,0.967,1.056C1208.727,893.984,1208.277,894.408,1207.739,894.408z M1195.51,894.404h-6.113
		c-0.56,0-1.013-0.453-1.013-1.012c0-0.56,0.453-1.013,1.013-1.013h6.113c0.56,0,1.012,0.453,1.012,1.013
		C1196.521,893.951,1196.069,894.404,1195.51,894.404z M1183.282,894.404h-6.114c-0.56,0-1.012-0.453-1.012-1.012
		c0-0.56,0.452-1.013,1.012-1.013h6.114c0.559,0,1.012,0.453,1.012,1.013C1184.294,893.951,1183.841,894.404,1183.282,894.404z
		 M1171.054,894.404h-6.114c-0.559,0-1.012-0.453-1.012-1.012c0-0.56,0.453-1.013,1.012-1.013h6.114c0.56,0,1.013,0.453,1.013,1.013
		C1172.066,893.951,1171.613,894.404,1171.054,894.404z M1158.825,894.404h-6.114c-0.559,0-1.012-0.453-1.012-1.012
		c0-0.56,0.453-1.013,1.012-1.013h6.114c0.559,0,1.012,0.453,1.012,1.013C1159.837,893.951,1159.384,894.404,1158.825,894.404z
		 M1146.597,894.404h-6.114c-0.559,0-1.012-0.453-1.012-1.012c0-0.56,0.453-1.013,1.012-1.013h6.114c0.56,0,1.012,0.453,1.012,1.013
		C1147.608,893.951,1147.156,894.404,1146.597,894.404z M1134.369,894.404h-6.115c-0.559,0-1.012-0.453-1.012-1.012
		c0-0.56,0.453-1.013,1.012-1.013h6.115c0.559,0,1.012,0.453,1.012,1.013C1135.381,893.951,1134.928,894.404,1134.369,894.404z
		 M1122.14,894.404h-6.114c-0.559,0-1.012-0.453-1.012-1.012c0-0.56,0.453-1.013,1.012-1.013h6.114c0.56,0,1.013,0.453,1.013,1.013
		C1123.152,893.951,1122.699,894.404,1122.14,894.404z M1109.912,894.404h-6.114c-0.559,0-1.012-0.453-1.012-1.012
		c0-0.56,0.453-1.013,1.012-1.013h6.114c0.559,0,1.012,0.453,1.012,1.013C1110.924,893.951,1110.471,894.404,1109.912,894.404z
		 M1097.684,894.404h-6.092c-0.559,0-1.023-0.453-1.023-1.012c0-0.56,0.441-1.013,1.001-1.013h6.114
		c0.559,0,1.012,0.453,1.012,1.013C1098.695,893.951,1098.242,894.404,1097.684,894.404z"/>
</g>
<g>
	<path fill="#151F2C" d="M725.084,890.351h-6.104c-0.559,0-1.012-0.453-1.012-1.012s0.453-1.012,1.012-1.012h6.062
		c0.559,0,1.033,0.453,1.033,1.012S725.643,890.351,725.084,890.351z M712.919,890.351h-6.062c-0.559,0-1.012-0.453-1.012-1.012
		s0.453-1.012,1.012-1.012h6.062c0.56,0,1.013,0.453,1.013,1.012S713.479,890.351,712.919,890.351z M700.797,890.351h-6.062
		c-0.56,0-1.013-0.453-1.013-1.012s0.453-1.012,1.013-1.012h6.062c0.559,0,1.012,0.453,1.012,1.012S701.355,890.351,700.797,890.351
		z M688.674,890.351h-6.062c-0.56,0-1.013-0.453-1.013-1.012s0.453-1.012,1.013-1.012h6.062c0.559,0,1.012,0.453,1.012,1.012
		S689.232,890.351,688.674,890.351z M676.551,890.351h-6.062c-0.559,0-1.012-0.453-1.012-1.012s0.453-1.012,1.012-1.012h6.062
		c0.559,0,1.012,0.453,1.012,1.012S677.109,890.351,676.551,890.351z M664.428,890.351h-6.062c-0.559,0-1.012-0.453-1.012-1.012
		s0.453-1.012,1.012-1.012h6.062c0.56,0,1.013,0.453,1.013,1.012S664.987,890.351,664.428,890.351z M652.305,890.351h-6.061
		c-0.56,0-1.013-0.453-1.013-1.012s0.453-1.012,1.013-1.012h6.061c0.56,0,1.013,0.453,1.013,1.012S652.864,890.351,652.305,890.351z
		 M640.183,890.351h-6.062c-0.559,0-1.013-0.453-1.013-1.012s0.454-1.012,1.013-1.012h6.062c0.559,0,1.013,0.453,1.013,1.012
		S640.741,890.351,640.183,890.351z M628.06,890.351h-6.062c-0.559,0-1.012-0.453-1.012-1.012s0.453-1.012,1.012-1.012h6.062
		c0.56,0,1.013,0.453,1.013,1.012S628.619,890.351,628.06,890.351z M615.937,890.351h-6.062c-0.559,0-1.012-0.453-1.012-1.012
		s0.453-1.012,1.012-1.012h6.062c0.56,0,1.013,0.453,1.013,1.012S616.496,890.351,615.937,890.351z M603.814,890.351h-6.062
		c-0.56,0-1.013-0.453-1.013-1.012s0.453-1.012,1.013-1.012h6.062c0.559,0,1.012,0.453,1.012,1.012S604.373,890.351,603.814,890.351
		z M591.691,890.351h-6.062c-0.56,0-1.013-0.453-1.013-1.012s0.453-1.012,1.013-1.012h6.062c0.559,0,1.012,0.453,1.012,1.012
		S592.25,890.351,591.691,890.351z M579.568,890.351h-6.062c-0.559,0-1.012-0.453-1.012-1.012s0.453-1.012,1.012-1.012h6.062
		c0.56,0,1.013,0.453,1.013,1.012S580.128,890.351,579.568,890.351z M567.446,890.351h-6.062c-0.56,0-1.013-0.453-1.013-1.012
		s0.453-1.012,1.013-1.012h6.062c0.559,0,1.012,0.453,1.012,1.012S568.005,890.351,567.446,890.351z M555.322,890.351h-6.062
		c-0.559,0-1.012-0.453-1.012-1.012s0.453-1.012,1.012-1.012h6.062c0.56,0,1.013,0.453,1.013,1.012S555.882,890.351,555.322,890.351
		z M543.2,890.351h-4.839c-0.448,0-0.898-0.025-1.338-0.078c-0.556-0.065-0.952-0.568-0.887-1.123
		c0.065-0.556,0.57-0.954,1.124-0.887c0.36,0.042,0.731,0.064,1.101,0.064h4.839c0.559,0,1.013,0.453,1.013,1.012
		S543.759,890.351,543.2,890.351z M730.795,888.603c-0.326,0-0.646-0.157-0.841-0.448c-0.312-0.464-0.188-1.093,0.275-1.404
		c1.531-1.028,2.713-2.47,3.419-4.168c0.215-0.517,0.808-0.759,1.323-0.546c0.516,0.215,0.761,0.807,0.546,1.323
		c-0.858,2.066-2.297,3.82-4.159,5.071C731.186,888.547,730.989,888.603,730.795,888.603z M531.668,887.889
		c-0.232,0-0.465-0.079-0.656-0.241c-1.71-1.456-2.939-3.362-3.555-5.512c-0.153-0.538,0.158-1.099,0.695-1.252
		c0.539-0.155,1.098,0.157,1.252,0.694c0.504,1.766,1.515,3.331,2.92,4.528c0.426,0.363,0.478,1.001,0.114,1.427
		C532.238,887.769,531.954,887.889,531.668,887.889z M735.369,878.026c-0.559,0-1.012-0.453-1.012-1.012v-6.062
		c0-0.56,0.453-1.012,1.012-1.012c0.56,0,1.013,0.452,1.013,1.012v6.062C736.382,877.573,735.929,878.026,735.369,878.026z
		 M528.034,876.845c-0.559,0-1.013-0.453-1.013-1.012v-6.062c0-0.56,0.454-1.012,1.013-1.012s1.013,0.452,1.013,1.012v6.062
		C529.047,876.392,528.593,876.845,528.034,876.845z M735.369,865.903c-0.559,0-1.012-0.453-1.012-1.012v-6.062
		c0-0.559,0.453-1.012,1.012-1.012c0.56,0,1.013,0.453,1.013,1.012v6.062C736.382,865.45,735.929,865.903,735.369,865.903z
		 M528.034,864.722c-0.559,0-1.013-0.453-1.013-1.012v-6.062c0-0.559,0.454-1.012,1.013-1.012s1.013,0.453,1.013,1.012v6.062
		C529.047,864.269,528.593,864.722,528.034,864.722z M735.369,853.781c-0.559,0-1.012-0.453-1.012-1.013v-6.062
		c0-0.559,0.453-1.012,1.012-1.012c0.56,0,1.013,0.453,1.013,1.012v6.062C736.382,853.328,735.929,853.781,735.369,853.781z
		 M528.034,852.6c-0.559,0-1.013-0.453-1.013-1.013v-6.062c0-0.559,0.454-1.012,1.013-1.012s1.013,0.453,1.013,1.012v6.062
		C529.047,852.146,528.593,852.6,528.034,852.6z M735.369,841.658c-0.559,0-1.012-0.453-1.012-1.012v-6.063
		c0-0.559,0.453-1.012,1.012-1.012c0.56,0,1.013,0.453,1.013,1.012v6.063C736.382,841.205,735.929,841.658,735.369,841.658z
		 M528.034,840.477c-0.559,0-1.013-0.453-1.013-1.012v-6.062c0-0.56,0.454-1.013,1.013-1.013s1.013,0.453,1.013,1.013v6.062
		C529.047,840.023,528.593,840.477,528.034,840.477z M735.369,829.535c-0.559,0-1.012-0.453-1.012-1.013v-6.062
		c0-0.559,0.453-1.012,1.012-1.012c0.56,0,1.013,0.453,1.013,1.012v6.062C736.382,829.082,735.929,829.535,735.369,829.535z
		 M528.034,828.354c-0.559,0-1.013-0.453-1.013-1.012v-6.062c0-0.559,0.454-1.012,1.013-1.012s1.013,0.453,1.013,1.012v6.062
		C529.047,827.9,528.593,828.354,528.034,828.354z M735.369,817.412c-0.559,0-1.012-0.453-1.012-1.012v-6.062
		c0-0.56,0.453-1.013,1.012-1.013c0.56,0,1.013,0.453,1.013,1.013v6.062C736.382,816.959,735.929,817.412,735.369,817.412z
		 M528.034,816.23c-0.559,0-1.013-0.452-1.013-1.012v-6.061c0-0.56,0.454-1.013,1.013-1.013s1.013,0.453,1.013,1.013v6.061
		C529.047,815.778,528.593,816.23,528.034,816.23z M735.369,805.289c-0.559,0-1.012-0.453-1.012-1.012v-6.062
		c0-0.559,0.453-1.012,1.012-1.012c0.56,0,1.013,0.453,1.013,1.012v6.062C736.382,804.836,735.929,805.289,735.369,805.289z
		 M528.034,804.108c-0.559,0-1.013-0.453-1.013-1.012v-6.062c0-0.56,0.454-1.012,1.013-1.012s1.013,0.452,1.013,1.012v6.062
		C529.047,803.655,528.593,804.108,528.034,804.108z M735.369,793.166c-0.559,0-1.012-0.452-1.012-1.012v-6.062
		c0-0.559,0.453-1.012,1.012-1.012c0.56,0,1.013,0.453,1.013,1.012v6.062C736.382,792.714,735.929,793.166,735.369,793.166z
		 M528.034,791.985c-0.559,0-1.013-0.453-1.013-1.012v-6.062c0-0.559,0.454-1.012,1.013-1.012s1.013,0.453,1.013,1.012v6.062
		C529.047,791.532,528.593,791.985,528.034,791.985z M735.369,781.044c-0.559,0-1.012-0.453-1.012-1.012v-6.062
		c0-0.56,0.453-1.012,1.012-1.012c0.56,0,1.013,0.452,1.013,1.012v6.062C736.382,780.591,735.929,781.044,735.369,781.044z
		 M528.034,779.863c-0.559,0-1.013-0.453-1.013-1.013v-6.062c0-0.559,0.454-1.012,1.013-1.012s1.013,0.453,1.013,1.012v6.062
		C529.047,779.41,528.593,779.863,528.034,779.863z M735.369,768.921c-0.559,0-1.012-0.453-1.012-1.012v-6.062
		c0-0.559,0.453-1.012,1.012-1.012c0.56,0,1.013,0.453,1.013,1.012v6.062C736.382,768.468,735.929,768.921,735.369,768.921z
		 M528.034,767.739c-0.559,0-1.013-0.453-1.013-1.012v-6.062c0-0.559,0.454-1.012,1.013-1.012s1.013,0.453,1.013,1.012v6.062
		C529.047,767.286,528.593,767.739,528.034,767.739z M735.369,756.798c-0.559,0-1.012-0.452-1.012-1.012v-6.062
		c0-0.559,0.453-1.012,1.012-1.012c0.56,0,1.013,0.453,1.013,1.012v6.062C736.382,756.346,735.929,756.798,735.369,756.798z
		 M528.034,755.616c-0.559,0-1.013-0.452-1.013-1.012v-6.062c0-0.559,0.454-1.012,1.013-1.012s1.013,0.453,1.013,1.012v6.062
		C529.047,755.164,528.593,755.616,528.034,755.616z M734.967,744.714c-0.439,0-0.844-0.289-0.972-0.732
		c-0.509-1.763-1.522-3.327-2.931-4.521c-0.426-0.361-0.479-1-0.117-1.427c0.362-0.427,1.002-0.479,1.427-0.117
		c1.714,1.453,2.947,3.357,3.565,5.505c0.155,0.537-0.154,1.098-0.691,1.253C735.154,744.701,735.06,744.714,734.967,744.714z
		 M528.828,743.601c-0.13,0-0.262-0.025-0.39-0.079c-0.516-0.215-0.759-0.808-0.544-1.323c0.862-2.065,2.305-3.815,4.17-5.063
		c0.465-0.311,1.093-0.187,1.404,0.279c0.311,0.464,0.186,1.093-0.279,1.403c-1.533,1.025-2.718,2.464-3.427,4.159
		C529.601,743.367,529.224,743.601,528.828,743.601z M726.242,737.321c-0.039,0-0.078-0.003-0.117-0.007
		c-0.357-0.041-0.722-0.063-1.083-0.063h-4.859c-0.56,0-1.013-0.453-1.013-1.012c0-0.56,0.453-1.012,1.013-1.012h4.859
		c0.438,0,0.881,0.025,1.313,0.074c0.557,0.063,0.954,0.565,0.891,1.121C727.187,736.939,726.749,737.321,726.242,737.321z
		 M714.121,737.252h-6.062c-0.559,0-1.013-0.453-1.013-1.012c0-0.56,0.454-1.012,1.013-1.012h6.062c0.559,0,1.012,0.452,1.012,1.012
		C715.133,736.799,714.68,737.252,714.121,737.252z M701.998,737.252h-6.061c-0.56,0-1.013-0.453-1.013-1.012
		c0-0.56,0.453-1.012,1.013-1.012h6.061c0.559,0,1.013,0.452,1.013,1.012C703.011,736.799,702.557,737.252,701.998,737.252z
		 M689.876,737.252h-6.062c-0.56,0-1.013-0.453-1.013-1.012c0-0.56,0.453-1.012,1.013-1.012h6.062c0.559,0,1.012,0.452,1.012,1.012
		C690.888,736.799,690.435,737.252,689.876,737.252z M677.753,737.252h-6.062c-0.559,0-1.012-0.453-1.012-1.012
		c0-0.56,0.453-1.012,1.012-1.012h6.062c0.56,0,1.013,0.452,1.013,1.012C678.766,736.799,678.313,737.252,677.753,737.252z
		 M665.63,737.252h-6.062c-0.559,0-1.012-0.453-1.012-1.012c0-0.56,0.453-1.012,1.012-1.012h6.062c0.56,0,1.013,0.452,1.013,1.012
		C666.643,736.799,666.189,737.252,665.63,737.252z M653.507,737.252h-6.062c-0.559,0-1.012-0.453-1.012-1.012
		c0-0.56,0.453-1.012,1.012-1.012h6.062c0.56,0,1.013,0.452,1.013,1.012C654.52,736.799,654.066,737.252,653.507,737.252z
		 M641.385,737.252h-6.062c-0.56,0-1.013-0.453-1.013-1.012c0-0.56,0.453-1.012,1.013-1.012h6.062c0.559,0,1.012,0.452,1.012,1.012
		C642.396,736.799,641.943,737.252,641.385,737.252z M629.262,737.252H623.2c-0.56,0-1.013-0.453-1.013-1.012
		c0-0.56,0.453-1.012,1.013-1.012h6.062c0.559,0,1.012,0.452,1.012,1.012C630.273,736.799,629.82,737.252,629.262,737.252z
		 M617.139,737.252h-6.062c-0.559,0-1.012-0.453-1.012-1.012c0-0.56,0.453-1.012,1.012-1.012h6.062c0.56,0,1.013,0.452,1.013,1.012
		C618.151,736.799,617.698,737.252,617.139,737.252z M605.016,737.252h-6.061c-0.56,0-1.013-0.453-1.013-1.012
		c0-0.56,0.453-1.012,1.013-1.012h6.061c0.56,0,1.013,0.452,1.013,1.012C606.028,736.799,605.575,737.252,605.016,737.252z
		 M592.894,737.252h-6.062c-0.56,0-1.013-0.453-1.013-1.012c0-0.56,0.453-1.012,1.013-1.012h6.062c0.559,0,1.012,0.452,1.012,1.012
		C593.905,736.799,593.452,737.252,592.894,737.252z M580.771,737.252h-6.062c-0.559,0-1.012-0.453-1.012-1.012
		c0-0.56,0.453-1.012,1.012-1.012h6.062c0.559,0,1.012,0.452,1.012,1.012C581.782,736.799,581.329,737.252,580.771,737.252z
		 M568.647,737.252h-6.062c-0.559,0-1.012-0.453-1.012-1.012c0-0.56,0.453-1.012,1.012-1.012h6.062c0.56,0,1.013,0.452,1.013,1.012
		C569.66,736.799,569.207,737.252,568.647,737.252z M556.524,737.252h-6.061c-0.56,0-1.013-0.453-1.013-1.012
		c0-0.56,0.453-1.012,1.013-1.012h6.061c0.56,0,1.013,0.452,1.013,1.012C557.537,736.799,557.084,737.252,556.524,737.252z
		 M544.402,737.252h-6.041c-0.559,0-1.022-0.453-1.022-1.012c0-0.56,0.442-1.012,1.001-1.012h6.063c0.559,0,1.012,0.452,1.012,1.012
		C545.414,736.799,544.961,737.252,544.402,737.252z"/>
</g>
<g>
	<path fill="#E9E9E9" d="M784.001,704.561H539.016c-5.287,0-9.573-4.286-9.573-9.573V561.034c0-5.287,4.286-9.573,9.573-9.573
		h244.985c5.287,0,9.572,4.286,9.572,9.573v133.953C793.573,700.274,789.288,704.561,784.001,704.561z"/>
	<path fill="#43A1F6" d="M631.702,597.643v60.736c0,3.798,4.222,6.074,7.395,3.987l46.158-30.369c2.866-1.885,2.866-6.088,0-7.973
		l-46.158-30.369C635.924,591.568,631.702,593.844,631.702,597.643z"/>
	<g>
		<circle fill="#AEC3FF" cx="547.912" cy="690.75" r="4.74"/>
		<path fill="#AEC3FF" d="M763.594,692.026H549.188c-0.704,0-1.275-0.571-1.275-1.276l0,0c0-0.705,0.571-1.276,1.275-1.276h214.405
			c0.705,0,1.276,0.571,1.276,1.276l0,0C764.87,691.455,764.299,692.026,763.594,692.026z"/>
	</g>
</g>
<rect x="776.453" y="736.24" fill="#E9E9E9" width="136.648" height="203.984"/>
<g>
	<g>
		<g>
			<path fill="#384152" d="M857.896,801.776h-1.869v-8.406c0-3.015,2.452-5.467,5.467-5.467h23.12c1.633,0,3.063-1.104,3.479-2.684
				l3.657-13.9c0.286-1.087,0.057-2.222-0.63-3.112c-0.687-0.89-1.725-1.4-2.85-1.4h-30.166v-1.87h30.166
				c1.709,0,3.287,0.776,4.33,2.13c1.043,1.353,1.392,3.076,0.957,4.729l-3.656,13.9c-0.632,2.399-2.806,4.076-5.287,4.076h-23.12
				c-1.983,0-3.598,1.613-3.598,3.598V801.776z"/>
		</g>
		<path fill="#43A1F6" d="M879.629,773.758H839.9c-3.354,0-6.07-2.718-6.07-6.07v-3.631c0-3.354,2.717-6.07,6.07-6.07h39.729
			c3.354,0,6.071,2.717,6.071,6.07v3.631C885.7,771.04,882.982,773.758,879.629,773.758z"/>
		<path fill="#384152" d="M856.961,836.668L856.961,836.668c-2.839,0-5.141-2.301-5.141-5.14v-31.153
			c0-2.839,2.302-5.141,5.141-5.141l0,0c2.839,0,5.141,2.302,5.141,5.141v31.153C862.102,834.367,859.8,836.668,856.961,836.668z"/>
	</g>
	<g>
		<path fill="#EE805F" d="M1053.678,904.224c0,0,3.536,10.892,3.232,13.383s-2.524,11.003-4.11,13.181
			c-1.586,2.18-2.368-8.873-3.623-10.535c-1.255-1.663-0.258,4.161-1.143,4.7c-0.886,0.539-2.73-4.284-3.523-5.985
			c-0.794-1.702,1.939-7.977,1.946-12.35C1046.465,902.244,1053.678,904.224,1053.678,904.224z"/>
		<path fill="#151F2C" d="M970.504,817.705c-0.98-12.489,12.586-21.052,23.299-14.557c0.22,0.134,0.438,0.27,0.653,0.408
			c16.038,10.322,50.644,58.492,53.024,63.317c2.379,4.825,9.41,43.214,9.41,43.214s-8.687,3.178-12.748-0.119
			c0,0-14.089-36.407-16.172-38.227c-2.082-1.819-56.35-32.269-56.813-43.685C971.036,825.039,970.794,821.41,970.504,817.705z"/>
	</g>
	<g>
		<path fill="#2A4A7C" d="M1067.342,1099.647c0,0,6.466,5.9,5.205,10.095c-1.262,4.192-7.098,6.987-7.886,12.112
			c-0.789,5.125-3.943,7.92-6.782,7.92s-13.534,0-13.534,0s-2.091-3.605,2.957-4.693c5.047-1.087,6.949-7.109,6.634-12.7
			c-0.315-5.59,0.474-13.044,0.474-13.044l10.725-2.485L1067.342,1099.647z"/>
		<path fill="#2A4A7C" d="M988.011,1114.91c0,0,1.161,13.43-1.679,14.827l-36.331-0.073c0,0,0-4.194,5.836-5.125
			c5.835-0.932,16.087-4.349,17.821-11.958C975.394,1104.972,988.011,1114.91,988.011,1114.91z"/>
		<path fill="#43A1F6" d="M957.337,925.2c0,0,1.917,23.541,4.169,51.839c3.062,38.44,6.742,85.658,7.107,94.604
			c0.628,15.532,3.155,40.378,3.155,40.378s5.99,5.903,17.979,3.415c0,0,10.684-35.468,13.735-72.995
			c0.047-0.615,0.095-1.235,0.142-1.854c2.84-38.202,7.254-118.646,7.254-118.646L957.337,925.2z"/>
		<path fill="#2B6EB2" d="M957.337,925.2c0,0,1.917,23.541,4.169,51.839l41.978,65.401c0.047-0.615,0.095-1.235,0.142-1.854
			c2.84-38.202,7.254-118.646,7.254-118.646L957.337,925.2z"/>
		<path fill="#43A1F6" d="M966.088,927.996c0,0,34.54,85.257,57.251,125.323c22.712,40.066,29.809,51.247,29.809,51.247
			s13.012-5.125,14.194-8.619c0,0-8.686-77.35-23.895-96.205c-8.593-10.654-18.688-42.628-19.162-53.81
			c-0.473-11.181-3.075-33.311-3.075-33.311L966.088,927.996z"/>
	</g>
	<path fill="#EE805F" d="M995.871,800.105c0,0-23.142,11.737-36.695,7.821c0,0,3.232-4.248,8.973-7.476
		c-0.519-2.695-0.928-5.033-1.175-7.02c-0.661-4.58-0.713-7.182-0.713-7.182l8.874-7.27l8.414-6.955
		C983.254,791.118,995.871,800.105,995.871,800.105z"/>
	<path fill="#384152" d="M1018.857,919.368c-9.344,5.654-18.189,9.906-28.541,12.295c-12.211,2.896-27.219,2.042-32.238,2.806
		c-0.518,0.07-1.005-0.065-1.465-0.37c-0.395-0.202-2.609-15.096-4.829-33.896c-0.099-0.755-0.201-1.52-0.243-2.285l-0.033-0.253
		c-0.863-7.349-1.619-15.069-2.275-22.807c-0.535-6.021-0.977-11.976-1.282-17.569c-0.385-6.997-0.544-13.426-0.385-18.715
		c0.07-2.416,0.212-4.589,0.428-6.476c1.323-10.981,6.56-18.827,11.491-24.669l4.093-4.655c4.744,0.3,9.587-0.597,14.157-3.613
		c4.998-3.29,10.39-6.828,11.408-6.237c7.659,4.191,13.896,15.05,18.349,29.391c2.553,8.255,4.515,17.621,5.768,27.541
		c0.403,3.079,0.745,6.236,1.009,9.381c0.052,0.582,0.094,1.163,0.141,1.736c0.601,8.597,1.582,16.654,2.67,23.849
		c1.465,9.704,3.13,17.831,4.309,23.557c0.591,2.914,1.042,5.167,1.309,6.78C1022.935,916.566,1020.114,918.585,1018.857,919.368z"
		/>
	<path fill="#DE6B4D" d="M983.849,779.318c0,0-5.692,10.881-16.875,14.113c-0.661-4.58-0.713-7.182-0.713-7.182l8.874-7.27
		L983.849,779.318z"/>
	<path fill="#EE805F" d="M962.145,786.021c0,0,22.361,3.204,24.183-10.54c1.82-13.744,5.933-22.588-8.269-25.215
		c-14.2-2.626-17.675,2.264-19.415,6.706C956.902,761.414,956.374,784.833,962.145,786.021z"/>
	<path fill="#151F2C" d="M993.893,748.311c0.197-0.236,0.66-0.433,1.697-0.51c0,0-0.84-0.502-1.95-0.508
		c-0.246-1.439-1.065-3.981-3.563-4.553c0,0,1.35,0.686,1.556,2.217c-2.938-2.899-9.15-4.929-26.205-3.241
		c-22.479,2.224-14.772,16.49-11.824,18.15c2.949,1.661,10.192-3.195,15.631-2.872c5.438,0.322,6.628,8.149,8.49,9.189
		c1.864,1.041,1.102-0.85,3.571-2.025c2.471-1.176,2.79,2.949,2.123,5.648c-0.667,2.7,2.828,6.175,2.828,6.175s0,0,3.387-3.796
		c3.388-3.796,6.336-19.647,4.696-22.982C994.184,748.908,994.04,748.61,993.893,748.311z"/>
	<path fill="#151F2C" d="M986.792,839.799c0,0-18.855,14.346-38.842,17.49c-0.385-6.997-0.544-13.426-0.385-18.715L986.792,839.799z
		"/>
	<g>
		<path fill="#EE805F" d="M871.002,821.287c-0.298-0.318-4.143-13.172-10.789-12.234c-4.339,0.612-11.429,3.123-9.546,8.838
			c0.74,2.248,13.957,9.987,13.957,9.987L871.002,821.287z"/>
		<path fill="#384152" d="M989.123,812.08c10.751,6.432,9.879,22.45-1.619,27.425c-0.235,0.102-0.473,0.201-0.711,0.296
			c-17.701,7.102-77.012,7.432-82.324,6.579s-40.684-17.344-40.684-17.344s2.438-8.923,7.477-10.325c0,0,37.843,9.588,40.531,8.943
			c2.69-0.645,58.934-27.265,68.51-21.033C982.836,808.269,985.934,810.172,989.123,812.08z"/>
	</g>
</g>
<g>
	<path fill="#EBF3FA" d="M1388.115,390.121h-47.213c-1.984,0-3.607-1.624-3.607-3.608l0,0c0-1.984,1.623-3.608,3.607-3.608h47.213
		c1.984,0,3.608,1.624,3.608,3.608l0,0C1391.724,388.498,1390.1,390.121,1388.115,390.121z"/>
	<path fill="#EBF3FA" d="M1388.115,404.218h-47.213c-1.984,0-3.607-1.624-3.607-3.608l0,0c0-1.984,1.623-3.608,3.607-3.608h47.213
		c1.984,0,3.608,1.624,3.608,3.608l0,0C1391.724,402.595,1390.1,404.218,1388.115,404.218z"/>
	<path fill="#EBF3FA" d="M1388.115,418.679h-47.213c-1.984,0-3.607-1.624-3.607-3.608l0,0c0-1.984,1.623-3.608,3.607-3.608h47.213
		c1.984,0,3.608,1.624,3.608,3.608l0,0C1391.724,417.055,1390.1,418.679,1388.115,418.679z"/>
</g>
<path fill="#EBF3FA" d="M1203.231,759.097h-112.397c-2.631,0-4.784-2.153-4.784-4.784l0,0c0-2.632,2.153-4.785,4.784-4.785h112.397
	c2.632,0,4.784,2.153,4.784,4.785l0,0C1208.016,756.943,1205.863,759.097,1203.231,759.097z"/>
<path fill="#EBF3FA" d="M653.81,430.708H541.412c-2.632,0-4.784-2.153-4.784-4.785l0,0c0-2.631,2.152-4.785,4.784-4.785H653.81
	c2.631,0,4.784,2.153,4.784,4.785l0,0C658.594,428.555,656.44,430.708,653.81,430.708z"/>
<path fill="#EBF3FA" d="M1203.231,806.561h-112.397c-2.631,0-4.784-2.152-4.784-4.784l0,0c0-2.632,2.153-4.784,4.784-4.784h112.397
	c2.632,0,4.784,2.152,4.784,4.784l0,0C1208.016,804.408,1205.863,806.561,1203.231,806.561z"/>
<path fill="#EBF3FA" d="M1203.231,782.829h-134.429c-2.632,0-4.785-2.153-4.785-4.785l0,0c0-2.631,2.153-4.784,4.785-4.784h134.429
	c2.632,0,4.784,2.153,4.784,4.784l0,0C1208.016,780.676,1205.863,782.829,1203.231,782.829z"/>
<g>
	<path fill="#EBF3FA" d="M620.446,460.792h-63.42c-2.004,0-3.643-1.639-3.643-3.643v-2.283c0-2.003,1.639-3.643,3.643-3.643h63.42
		c2.003,0,3.643,1.64,3.643,3.643v2.283C624.089,459.153,622.449,460.792,620.446,460.792z"/>
	<circle fill="#EBF3FA" cx="537.166" cy="456.008" r="4.785"/>
</g>
<g>
	<path fill="#EBF3FA" d="M632.484,479.833h-75.152c-2.172,0-3.948-1.777-3.948-3.948v-1.673c0-2.171,1.776-3.948,3.948-3.948h75.152
		c2.171,0,3.948,1.777,3.948,3.948v1.673C636.433,478.057,634.655,479.833,632.484,479.833z"/>
	<circle fill="#EBF3FA" cx="537.166" cy="475.049" r="4.785"/>
</g>
<g>
	<path fill="#EBF3FA" d="M620.446,500.502h-63.42c-2.004,0-3.643-1.639-3.643-3.643v-2.283c0-2.003,1.639-3.643,3.643-3.643h63.42
		c2.003,0,3.643,1.64,3.643,3.643v2.283C624.089,498.863,622.449,500.502,620.446,500.502z"/>
	<circle fill="#EBF3FA" cx="537.166" cy="495.718" r="4.785"/>
</g>
<g>
	<g>
		<path fill="#151F2C" d="M735.813,471.508c-0.83,0.114-1.675,0.167-2.529,0.158c-4.508-0.053-8.727-1.857-11.877-5.082
			c-6.505-6.657-6.381-17.365,0.275-23.87v0c6.658-6.504,17.365-6.38,23.87,0.277s6.381,17.366-0.276,23.87
			C742.661,469.414,739.367,471.02,735.813,471.508z M723.625,444.702c-5.561,5.433-5.664,14.377-0.231,19.938
			c2.633,2.694,6.156,4.202,9.922,4.245c3.763,0.043,7.322-1.381,10.017-4.013c5.561-5.434,5.665-14.378,0.232-19.939
			C738.13,439.372,729.186,439.269,723.625,444.702L723.625,444.702z"/>
	</g>
	
		<rect x="712.772" y="462.144" transform="matrix(0.6989 0.7152 -0.7152 0.6989 553.8129 -368.1644)" fill="#151F2C" width="2.781" height="23.036"/>
	<path fill="#151F2C" d="M700.197,487.306L700.197,487.306c-0.959-0.981-0.939-2.553,0.041-3.511l9.703-9.481
		c0.98-0.958,2.552-0.94,3.51,0.041l0,0c0.959,0.98,0.94,2.552-0.04,3.51l-9.704,9.481
		C702.727,488.305,701.155,488.286,700.197,487.306z"/>
</g>
<g>
	<path fill="#151F2C" d="M1522.739,1130.091L1522.739,1130.091c-2.153,0.013-4.413-1.544-5.048-3.476l-129.689-394.879
		c-0.635-1.933,0.596-3.509,2.748-3.521l0,0c2.152-0.013,4.413,1.544,5.047,3.476l129.69,394.879
		C1526.122,1128.502,1524.893,1130.078,1522.739,1130.091z"/>
	<path fill="#151F2C" d="M1627.262,1129.485L1627.262,1129.485c-2.153,0.013-4.413-1.543-5.047-3.476l-129.691-394.879
		c-0.634-1.932,0.597-3.509,2.75-3.521l0,0c2.152-0.013,4.412,1.543,5.046,3.476l129.691,394.879
		C1630.646,1127.896,1629.414,1129.474,1627.262,1129.485z"/>
	<path fill="#151F2C" d="M1514.719,786.153l-104.959,0.607c-2.023,0.012-4.168-1.465-4.764-3.281l0,0
		c-0.597-1.816,0.57-3.313,2.594-3.324l104.96-0.607c2.023-0.012,4.167,1.465,4.765,3.281l0,0
		C1517.91,784.646,1516.743,786.142,1514.719,786.153z"/>
	<path fill="#151F2C" d="M1537.363,855.099l-104.96,0.606c-2.023,0.013-4.167-1.465-4.764-3.28l0,0
		c-0.597-1.816,0.57-3.313,2.595-3.324l104.959-0.608c2.023-0.012,4.168,1.466,4.764,3.282l0,0
		C1540.555,853.591,1539.387,855.087,1537.363,855.099z"/>
	<path fill="#151F2C" d="M1559.172,921.5l-104.96,0.607c-2.023,0.012-4.167-1.465-4.765-3.281l0,0
		c-0.596-1.816,0.572-3.313,2.595-3.324l104.96-0.607c2.023-0.012,4.168,1.465,4.764,3.281l0,0
		C1562.362,919.992,1561.195,921.488,1559.172,921.5z"/>
	<path fill="#151F2C" d="M1583.723,996.254l-104.959,0.607c-2.023,0.012-4.168-1.465-4.764-3.281l0,0
		c-0.598-1.816,0.57-3.313,2.594-3.324l104.959-0.607c2.024-0.012,4.168,1.465,4.765,3.281l0,0
		C1586.914,994.747,1585.747,996.242,1583.723,996.254z"/>
	<path fill="#151F2C" d="M1609.42,1074.496l-104.959,0.607c-2.024,0.012-4.168-1.465-4.765-3.281l0,0
		c-0.597-1.816,0.571-3.313,2.595-3.324l104.959-0.607c2.024-0.012,4.169,1.465,4.765,3.281l0,0
		C1612.611,1072.989,1611.443,1074.484,1609.42,1074.496z"/>
</g>
<g>
	<path fill="#151F2C" d="M1383.473,550.879L1383.473,550.879c-0.822,0.159-1.625-0.383-1.784-1.206l-1.681-8.677
		c-0.158-0.823,0.385-1.626,1.207-1.785l0,0c0.822-0.159,1.625,0.383,1.785,1.206l1.68,8.677
		C1384.839,549.917,1384.297,550.72,1383.473,550.879z"/>
	
		<rect x="1379.072" y="524.461" transform="matrix(0.9817 -0.1902 0.1902 0.9817 -75.7821 272.0833)" fill="#151F2C" width="1.047" height="12.774"/>
	<path fill="#EE805F" d="M1378.9,453.893c0,0-0.992-8.638-3.086-11.939s-10.004-5.422-10.506-4.938
		c-1.549,1.501,4.577,6.806,4.816,8.761c0.24,1.956-3.109,0.604-1.5,4.415c1.357,3.219,5.836,7.394,5.836,7.394L1378.9,453.893z"/>
	<path fill="#2B6EB2" d="M1375.085,452.93c2.886-2.264,3.498-2.221,3.498-2.221s26.688,23.122,29.288,25.18
		c2.598,2.059,42.683,13.683,42.683,13.683l6.369,32.585c0,0-54.239-26.198-60.72-31.544c-10.711-8.834-24.224-33.559-24.224-33.559
		S1372.818,454.709,1375.085,452.93z"/>
	<path fill="#151F2C" d="M1451.415,766.1c0,0-0.46,11.137-2.599,13.845l-29.75,0.172c0.208-1.148,0.333-3.805,4.446-4.522
		c5.198-0.905,11.304-4.531,14.449-11.402C1441.275,756.964,1451.415,766.1,1451.415,766.1z"/>
	<path fill="#151F2C" d="M1509.797,764.494c0,0,2.073,14.795-0.742,15.054c-0.375,0.034-11.989,0.222-17.018,0.306
		c-5.916,0.099-15.633-0.109-15.633-0.109c-1.223,0.05-2.023-1.273-1.4-2.326c0.683-1.155,1.985-2.39,4.469-2.867
		c5.181-0.998,13.814-4.804,16.842-11.727C1499.499,755.54,1509.797,764.494,1509.797,764.494z"/>
	<path fill="#151F2C" d="M1435.945,612.878c0,0,8.272,28.946,31.98,79.212c23.709,50.266,24.734,74.49,24.734,74.49
		s3.589,1.27,8.35,0.762c5.15-0.55,8.787-2.848,8.787-2.848s-1.536-59.83-12.734-85.196c-11.199-25.367-13.481-94.781-13.481-94.781
		L1435.945,612.878z"/>
	<path fill="#384152" d="M1422.665,587.972c0,0-0.659,44.822,7.097,99.854c7.755,55.033,4.129,80.627,4.129,80.627
		s2.055,1.496,8.378,1.472c7.401-0.029,11.192-3.087,11.192-3.087s11.1-55.054,7.917-82.599c-3.182-27.546,15.2-94.521,15.2-94.521
		L1422.665,587.972z"/>
	<path fill="#EE805F" d="M1459.314,483.084l-8.761,6.488l-12.66-2.666c0.175-1.154,1.011-5.939,1.771-10.274
		c0.046-0.255,0.092-0.511,0.136-0.761c0.651-3.688,1.215-6.856,1.215-6.856l11.824-5.894l4.409-2.197
		c-0.012,0.078-0.343,4.093-0.388,4.679C1456.034,476.013,1459.314,483.084,1459.314,483.084z"/>
	<path fill="#43A1F6" d="M1484.406,593.508c-2.864,13.101-64.169,7.35-63.369-0.647c0.031-0.267,0.191-3.968,0.412-8.957
		c0.465-10.792,1.173-27.655,1.264-28.973c0-0.023,0.008-0.046,0.008-0.068c1.104-11.135,2.163-22.026,2.231-29.141
		c0.062-6.169,0.914-12.475,2.042-18.203c1.043-5.286,2.323-10.084,3.435-13.824c0.784-2.636,2.247-4.951,4.181-6.771
		c1.379-1.294,2.994-2.338,4.776-3.046c0.487-0.206,0.982-0.373,1.484-0.518c7.213-2.094,17.198-4.684,19.902-3.892
		c7.327,2.155,12.772,15.057,16.626,31.501C1484.611,541.747,1486.28,584.97,1484.406,593.508z"/>
	<path fill="#DE6B4D" d="M1455.974,465.788c-2.597,4.969-12.272,9.266-16.309,10.845c0.046-0.255,0.092-0.511,0.136-0.761
		c0.651-3.688,1.215-6.856,1.215-6.856l11.824-5.894C1455.453,463.083,1457.045,463.743,1455.974,465.788z"/>
	<path fill="#EE805F" d="M1435.27,468.324c0,0,21.333,6.654,25.272-6.694c3.939-13.349,9.347-21.48-4.106-26.294
		c-13.455-4.813-17.617-0.504-20.016,3.632C1434.021,443.104,1429.821,466.249,1435.27,468.324z"/>
	<path fill="#151F2C" d="M1437.258,437.681c0,0,1.36,15.534,4.572,14.86c3.213-0.675,6.127-1.174,5.656,3.508
		c-0.471,4.683-4.926,10.09,4.975,10.918c9.901,0.829,24.134-24.704,21.414-29.539
		C1466.027,423.48,1425.915,420.665,1437.258,437.681z"/>
	<path fill="#2B6EB2" d="M1421.449,583.904c0.465-10.792,1.173-27.655,1.264-28.973c0-0.023,0.008-0.046,0.008-0.068l36.216-21.654
		C1458.937,533.209,1460.338,583.76,1421.449,583.904z"/>
	<path fill="#EE805F" d="M1392.662,538.591c0,0-7.36-4.979-8.757-5.413s-5.973-0.904-6.186-0.543
		c-0.212,0.361-0.839,1.465-0.04,1.839c0.801,0.374,1.796,0.242,1.496,0.504c-0.298,0.261-3.307-1.171-4.001,0.363
		c-0.694,1.534-1.305,6.791,2.226,8.384s12.245,0.154,12.873,0.336C1395.603,545.611,1392.662,538.591,1392.662,538.591z"/>
	<path fill="#43A1F6" d="M1392.594,537.246c0,0,35.922,6.107,39.105,4.557c5.08-2.474-1.972-38.921-1.972-38.921
		s-0.304-8.26,9.346-10.208c8.385-1.693,16.474,4.588,16.474,4.588s7.357,6.583,6.418,13.884
		c-2.084,16.186-5.325,49.104-16.15,54.15c-13.963,6.508-54.366-18.047-54.366-18.047s-1.345-1.647-1.154-4.707
		C1390.463,539.843,1392.594,537.246,1392.594,537.246z"/>
	<path fill="#EE805F" d="M1368.455,449.757c0,0-2.299-4.57-2.666-5.428c-0.368-0.858,0.527-0.673,1.412-0.194
		c0.885,0.479,2.091,3.131,3.456,2.811C1371.74,446.692,1368.455,449.757,1368.455,449.757z"/>
</g>
</svg>
