<svg xmlns="http://www.w3.org/2000/svg" width="81.627" height="70.728" viewBox="0 0 81.627 70.728">
  <path id="healthcare" d="M23.251,1.074q-1.085-.04-2.184.027a22.726,22.726,0,0,0-8.6,2.29A22.332,22.332,0,0,0,5.7,8.651,22.264,22.264,0,0,0,3.234,12.1,22.159,22.159,0,0,0,.3,24.438a22.2,22.2,0,0,0,.723,4.415q0,.011,0,.021A53.819,53.819,0,0,0,4.2,37.45,54.945,54.945,0,0,0,8.452,44.9a60.435,60.435,0,0,0,5.021,6.408,70.3,70.3,0,0,0,5.462,5.462c1.869,1.675,3.767,3.2,5.643,4.618s3.738,2.722,5.526,3.916,3.516,2.29,5.117,3.295,3.068,1.91,4.378,2.752a2.721,2.721,0,0,0,2.955,0c1.31-.842,2.8-1.748,4.4-2.752s3.313-2.1,5.1-3.295,3.644-2.5,5.521-3.916,3.773-2.943,5.643-4.618A70.541,70.541,0,0,0,68.7,51.308a60.272,60.272,0,0,0,5-6.408,54.931,54.931,0,0,0,4.256-7.449,53.815,53.815,0,0,0,3.172-8.576q0-.011,0-.021a22.221,22.221,0,0,0,.723-4.415A21.81,21.81,0,0,0,78.926,12.1a22.19,22.19,0,0,0-17.838-11A21.527,21.527,0,0,0,52.6,2.264,22.487,22.487,0,0,0,42.353,9.575a22.181,22.181,0,0,0-1.265,2.03A22.4,22.4,0,0,0,39.8,9.575a21.965,21.965,0,0,0-2.933-3.092A22.268,22.268,0,0,0,25.4,1.26,21.222,21.222,0,0,0,23.251,1.074Zm-.213,5.441c.547.025,1.086.074,1.621.149A16.58,16.58,0,0,1,33.3,10.58a16.563,16.563,0,0,1,3.953,5.1,16.721,16.721,0,0,1,1.206,3.151,2.721,2.721,0,0,0,5.26,0,16.613,16.613,0,0,1,13.8-12.168,16.365,16.365,0,0,1,3.252-.138,16.716,16.716,0,0,1,6.488,1.743,16.926,16.926,0,0,1,6.966,6.546,16.847,16.847,0,0,1,1.328,2.917,16.607,16.607,0,0,1,.744,3.13,16.361,16.361,0,0,1,.117,3.252,16.8,16.8,0,0,1-.542,3.337,48.653,48.653,0,0,1-2.237,6.265H64.3l-4.639-6.966a2.72,2.72,0,0,0-4.819.558l-5.462,14.58L43.66,24.676a2.724,2.724,0,0,0-5.08-.2L32.512,38.635l-5.42-9.06a2.72,2.72,0,0,0-4.262-.521l-4.639,4.66H8.537A47.809,47.809,0,0,1,6.284,27.45v-.021a16.781,16.781,0,0,1-.542-3.316,16.362,16.362,0,0,1,.122-3.252,16.646,16.646,0,0,1,.76-3.13,16.838,16.838,0,0,1,1.328-2.917A16.676,16.676,0,0,1,21.386,6.525,15.752,15.752,0,0,1,23.038,6.515ZM40.769,33.194l5.882,17.694a2.72,2.72,0,0,0,5.144.1l6.28-16.807,2.514,3.757a2.72,2.72,0,0,0,2.247,1.2H70.9c-.548.927-1.108,1.84-1.7,2.715a54.846,54.846,0,0,1-4.559,5.824,64.972,64.972,0,0,1-5.059,5.037c-1.738,1.558-3.508,3-5.282,4.341s-3.539,2.586-5.26,3.736-3.4,2.2-4.984,3.193c-1.058.664-2,1.277-2.97,1.886-.969-.611-1.909-1.22-2.97-1.886-1.584-.994-3.263-2.044-4.984-3.193s-3.487-2.4-5.26-3.736-3.565-2.784-5.3-4.341a64.778,64.778,0,0,1-5.037-5.037,55,55,0,0,1-4.58-5.824c-.592-.874-1.146-1.789-1.69-2.715h8.055a2.72,2.72,0,0,0,1.908-.781l2.991-2.992,6.366,10.622a2.72,2.72,0,0,0,4.841-.319Z" transform="translate(-0.264 -1.059)" fill="#fff" fill-rule="evenodd" opacity="0.7"/>
</svg>
