<svg xmlns="http://www.w3.org/2000/svg" xmlns:xlink="http://www.w3.org/1999/xlink" width="738.582" height="435.237" viewBox="0 0 738.582 435.237">
  <defs>
    <linearGradient id="linear-gradient" x1="-0.075" y1="-0.382" x2="2.491" y2="1.83" gradientUnits="objectBoundingBox">
      <stop offset="0" stop-color="#a8dadc"/>
      <stop offset="1" stop-color="#457b9d"/>
    </linearGradient>
    <linearGradient id="linear-gradient-2" x1="-30.289" y1="0.542" x2="-29.117" y2="0.542" gradientUnits="objectBoundingBox">
      <stop offset="0" stop-color="#9f5699"/>
      <stop offset="1" stop-color="#202278"/>
    </linearGradient>
    <linearGradient id="linear-gradient-3" y1="0.5" x2="1" y2="0.5" gradientUnits="objectBoundingBox">
      <stop offset="0" stop-color="#2b3582"/>
      <stop offset="1" stop-color="#150e42"/>
    </linearGradient>
    <linearGradient id="linear-gradient-4" x1="-19.212" y1="-0.188" x2="-14.398" y2="-1.527" xlink:href="#linear-gradient"/>
    <linearGradient id="linear-gradient-5" x1="0.091" y1="0.657" x2="0.946" y2="0.657" gradientUnits="objectBoundingBox">
      <stop offset="0" stop-color="#147dbe"/>
      <stop offset="1" stop-color="#154e72"/>
    </linearGradient>
    <linearGradient id="linear-gradient-7" x1="-0.175" y1="0.576" x2="3.346" y2="1.579" xlink:href="#linear-gradient"/>
    <linearGradient id="linear-gradient-8" x1="0.52" y1="1.509" x2="0.468" y2="0.18" gradientUnits="objectBoundingBox">
      <stop offset="0" stop-color="#184473"/>
      <stop offset="1" stop-color="#021a33"/>
    </linearGradient>
    <linearGradient id="linear-gradient-9" x1="0" y1="0.5" x2="1" y2="0.5" xlink:href="#linear-gradient-8"/>
    <linearGradient id="linear-gradient-10" x1="0.265" y1="0.861" x2="1.243" y2="-0.665" gradientUnits="objectBoundingBox">
      <stop offset="0" stop-color="#73a1d2"/>
      <stop offset="1" stop-color="#0f3a67"/>
    </linearGradient>
    <linearGradient id="linear-gradient-11" x1="0.525" y1="0.297" x2="0.225" y2="5.134" xlink:href="#linear-gradient-8"/>
    <linearGradient id="linear-gradient-12" x1="0.562" y1="0.422" x2="-0.179" y2="1.458" gradientUnits="objectBoundingBox">
      <stop offset="0" stop-color="#f96a67"/>
      <stop offset="1" stop-color="#ec322e"/>
    </linearGradient>
    <linearGradient id="linear-gradient-13" x1="-0.139" y1="0.686" x2="-1.266" y2="1.016" xlink:href="#linear-gradient-8"/>
    <linearGradient id="linear-gradient-14" x1="-0.73" y1="1.305" x2="2.336" y2="-0.717" xlink:href="#linear-gradient-10"/>
    <linearGradient id="linear-gradient-15" x1="1.042" y1="0.01" x2="-0.339" y2="1.292" gradientUnits="objectBoundingBox">
      <stop offset="0" stop-color="#53d8ff"/>
      <stop offset="1" stop-color="#3840f7"/>
    </linearGradient>
    <linearGradient id="linear-gradient-16" x1="0.318" y1="1.581" x2="-0.549" y2="6.383" xlink:href="#linear-gradient-8"/>
    <linearGradient id="linear-gradient-17" x1="36.385" y1="30.163" x2="37.388" y2="30.163" xlink:href="#linear-gradient-15"/>
    <linearGradient id="linear-gradient-18" x1="670.901" y1="-217.675" x2="665.311" y2="-220.432" xlink:href="#linear-gradient-15"/>
    <linearGradient id="linear-gradient-19" x1="31.272" y1="1.122" x2="31.457" y2="-1.927" xlink:href="#linear-gradient-15"/>
    <linearGradient id="linear-gradient-20" x1="125.134" y1="-94.146" x2="124.159" y2="-95.268" xlink:href="#linear-gradient-15"/>
    <linearGradient id="linear-gradient-21" x1="-1436.73" y1="-309.817" x2="-1432.985" y2="-310.703" xlink:href="#linear-gradient-15"/>
    <linearGradient id="linear-gradient-22" x1="0.788" y1="-0.281" x2="-0.257" y2="2.528" xlink:href="#linear-gradient-5"/>
    <linearGradient id="linear-gradient-23" x1="-0.003" y1="0.5" x2="1.016" y2="0.5" xlink:href="#linear-gradient"/>
    <linearGradient id="linear-gradient-24" x1="0" y1="0.5" x2="1" y2="0.5" xlink:href="#linear-gradient"/>
    <linearGradient id="linear-gradient-25" y1="0.5" x2="1" y2="0.5" gradientUnits="objectBoundingBox">
      <stop offset="0" stop-color="#f9b776"/>
      <stop offset="1" stop-color="#f47960"/>
    </linearGradient>
    <linearGradient id="linear-gradient-26" x1="0" y1="0.5" x2="1" y2="0.5" xlink:href="#linear-gradient-25"/>
    <linearGradient id="linear-gradient-27" x1="3.672" y1="-3.524" x2="-2.066" y2="3.756" gradientUnits="objectBoundingBox">
      <stop offset="0" stop-color="#cb236d"/>
      <stop offset="1" stop-color="#4c246d"/>
    </linearGradient>
    <linearGradient id="linear-gradient-28" x1="1.669" y1="-0.236" x2="-0.474" y2="1.254" xlink:href="#linear-gradient-25"/>
    <linearGradient id="linear-gradient-29" x1="0.403" y1="1.31" x2="0.624" y2="0.352" xlink:href="#linear-gradient-25"/>
    <linearGradient id="linear-gradient-30" x1="1.119" y1="-1.084" x2="-0.594" y2="3.3" xlink:href="#linear-gradient-5"/>
    <linearGradient id="linear-gradient-32" x1="0.821" y1="0.35" x2="-0.291" y2="1.106" xlink:href="#linear-gradient-25"/>
    <linearGradient id="linear-gradient-33" x1="0.281" y1="0.154" x2="1.01" y2="1.105" xlink:href="#linear-gradient-3"/>
    <linearGradient id="linear-gradient-34" x1="2.74" y1="-0.685" x2="-1.811" y2="1.784" xlink:href="#linear-gradient-25"/>
    <linearGradient id="linear-gradient-35" x1="0.786" y1="-0.23" x2="-1.156" y2="3.848" xlink:href="#linear-gradient-25"/>
    <linearGradient id="linear-gradient-36" x1="0.757" y1="-0.057" x2="0.265" y2="0.791" xlink:href="#linear-gradient-25"/>
    <linearGradient id="linear-gradient-38" x1="1.703" y1="-5.593" x2="0.5" y2="0.571" xlink:href="#linear-gradient"/>
    <linearGradient id="linear-gradient-39" x1="1.464" y1="-14.746" x2="0.605" y2="-0.838" xlink:href="#linear-gradient"/>
    <linearGradient id="linear-gradient-43" x1="0.95" y1="0.531" x2="4.931" y2="0.806" xlink:href="#linear-gradient-25"/>
    <linearGradient id="linear-gradient-44" x1="0.785" y1="0.163" x2="0.062" y2="1.097" xlink:href="#linear-gradient-3"/>
    <linearGradient id="linear-gradient-45" x1="0" y1="0.5" x2="1" y2="0.5" xlink:href="#linear-gradient-15"/>
    <linearGradient id="linear-gradient-46" x1="0" y1="0.5" x2="1" y2="0.5" xlink:href="#linear-gradient-15"/>
    <linearGradient id="linear-gradient-47" x1="0.325" y1="-0.171" x2="1.035" y2="2.647" xlink:href="#linear-gradient-12"/>
  </defs>
  <g id="hire-pwa-develoers" transform="translate(-85.159 -96.658)">
    <path id="Path_1" data-name="Path 1" d="M471.433,510.44s-232.809,2.545-297.655-54.718S133.339,341.369,182.992,325.2s58.123-32.991,31.405-55.677-60.65-69.255-4.309-116.054,120.628,20.42,170.984,11.494,30.411-38.988,96.633-18.227,51.621-39.686,104.858-45.165,47.781,62.872,102.54,37.071,99.55-22.241,123.092,18.734,13.316,96.162-38.332,129.051-46.1,30.647-26.8,62.966,36.611,138.6-51.262,153.777S471.433,510.44,471.433,510.44Z" transform="translate(-13.882 -1.299)" fill="#e6edff" opacity="0.5"/>
    <g id="Group_7" data-name="Group 7" transform="translate(679.621 384.808)" opacity="0.4">
      <g id="Group_4" data-name="Group 4" transform="translate(0 0)">
        <g id="Group_1" data-name="Group 1" transform="translate(17.872)">
          <path id="Path_2" data-name="Path 2" d="M939.316,515.8a.717.717,0,0,1-.465-1.263c.736-.627,1.5-1.239,2.271-1.821a.717.717,0,0,1,.864,1.145c-.748.565-1.491,1.16-2.206,1.768A.713.713,0,0,1,939.316,515.8Z" transform="translate(-938.598 -502.345)" fill="#eac4f9"/>
          <path id="Path_3" data-name="Path 3" d="M1026.823,547.366a.718.718,0,0,1-.715-.674,49.837,49.837,0,0,0-.7-5.822.717.717,0,0,1,1.412-.255,51.174,51.174,0,0,1,.719,5.99.716.716,0,0,1-.672.759Zm-3.319-15.2a.718.718,0,0,1-.669-.459,50.681,50.681,0,0,0-2.423-5.34.717.717,0,1,1,1.269-.669,51.884,51.884,0,0,1,2.492,5.492.717.717,0,0,1-.411.927A.709.709,0,0,1,1023.5,532.161Zm-7.751-13.489a.713.713,0,0,1-.56-.268,49.764,49.764,0,0,0-3.932-4.344.718.718,0,0,1,1.006-1.025,51.557,51.557,0,0,1,4.045,4.47.717.717,0,0,1-.559,1.167Zm-11.493-10.481a.717.717,0,0,1-.4-.119,50.285,50.285,0,0,0-5.068-2.947.718.718,0,0,1,.648-1.281,52.1,52.1,0,0,1,5.213,3.032.718.718,0,0,1-.4,1.316Zm-50.352-3.267a.717.717,0,0,1-.316-1.362,52.081,52.081,0,0,1,5.054-2.15l.511-.183a.717.717,0,1,1,.475,1.354l-.495.177a50.57,50.57,0,0,0-4.914,2.091A.715.715,0,0,1,953.907,504.924Zm36.223-3.246a.75.75,0,0,1-.2-.027,50.137,50.137,0,0,0-5.724-1.279.718.718,0,0,1,.23-1.417,51.853,51.853,0,0,1,5.888,1.316.718.718,0,0,1-.2,1.408Zm-21.367-1.393a.717.717,0,0,1-.105-1.427,51.372,51.372,0,0,1,6.009-.542.718.718,0,0,1,.044,1.435,49.721,49.721,0,0,0-5.84.527A.773.773,0,0,1,968.762,500.284Z" transform="translate(-942.721 -498.315)" fill="#eac4f9"/>
          <path id="Path_4" data-name="Path 4" d="M1054.419,582.451a.742.742,0,0,1-.136-.013.718.718,0,0,1-.569-.84c.176-.919.329-1.858.453-2.79a.717.717,0,1,1,1.422.189c-.128.959-.285,1.925-.466,2.872A.718.718,0,0,1,1054.419,582.451Z" transform="translate(-971.126 -520.886)" fill="#eac4f9"/>
        </g>
        <g id="Group_2" data-name="Group 2" transform="translate(0 38.878)">
          <path id="Path_5" data-name="Path 5" d="M1022.722,629.464a.718.718,0,0,1-.382-1.325c.794-.5,1.585-1.029,2.349-1.573a.717.717,0,0,1,.832,1.169c-.787.56-1.6,1.1-2.418,1.62A.718.718,0,0,1,1022.722,629.464Z" transform="translate(-944.296 -573.399)" fill="#eac4f9"/>
          <path id="Path_6" data-name="Path 6" d="M965.08,621.238c-.748,0-1.509-.017-2.264-.051a.717.717,0,0,1,.064-1.433,49.788,49.788,0,0,0,5.77-.08.717.717,0,1,1,.1,1.43C967.535,621.193,966.3,621.238,965.08,621.238Zm-11.641-1.363a.738.738,0,0,1-.166-.019,51.877,51.877,0,0,1-5.686-1.7.718.718,0,0,1,.49-1.349,50.342,50.342,0,0,0,5.528,1.653.717.717,0,0,1-.165,1.415Zm24.632-.343a.717.717,0,0,1-.184-1.41c1.436-.383,2.88-.838,4.292-1.352q.6-.218,1.188-.451a.717.717,0,0,1,.526,1.335q-.607.239-1.222.463c-1.452.529-2.936,1-4.415,1.39A.71.71,0,0,1,978.071,619.532Zm-38.83-5.388a.71.71,0,0,1-.365-.1,51.564,51.564,0,0,1-4.924-3.31.717.717,0,0,1,.868-1.142,50.374,50.374,0,0,0,4.786,3.218.717.717,0,0,1-.366,1.334ZM927.4,604.451a.712.712,0,0,1-.533-.237,51.163,51.163,0,0,1-3.7-4.631.717.717,0,0,1,1.171-.829,49.9,49.9,0,0,0,3.6,4.5.717.717,0,0,1-.533,1.2Zm-8.389-12.8a.715.715,0,0,1-.653-.42c-.565-1.235-1.087-2.512-1.554-3.794q-.316-.866-.6-1.737a.717.717,0,0,1,1.364-.443q.274.846.582,1.689c.454,1.246.962,2.487,1.511,3.689a.718.718,0,0,1-.355.951A.726.726,0,0,1,919.01,591.653ZM914.8,576.93a.718.718,0,0,1-.711-.626,51.534,51.534,0,0,1-.407-5.921.718.718,0,0,1,.71-.725h.007a.717.717,0,0,1,.717.71,49.924,49.924,0,0,0,.4,5.755.718.718,0,0,1-.621.8A.786.786,0,0,1,914.8,576.93Z" transform="translate(-913.686 -557.354)" fill="#eac4f9"/>
          <path id="Path_7" data-name="Path 7" d="M915.523,556.748a.717.717,0,0,1-.707-.845c.171-.945.372-1.9.6-2.846a.718.718,0,0,1,1.4.335c-.22.917-.416,1.847-.582,2.766A.717.717,0,0,1,915.523,556.748Z" transform="translate(-914.002 -552.507)" fill="#eac4f9"/>
        </g>
        <g id="Group_3" data-name="Group 3" transform="translate(13.326 12.795)">
          <path id="Path_8" data-name="Path 8" d="M933.913,540.981a.608.608,0,0,0,.107.7l5.157,5.307a32.236,32.236,0,0,0-.786,10.415l-5.889,4.474a.608.608,0,0,0-.21.674l2.773,8.433a.608.608,0,0,0,.569.418l7.395.107a32.233,32.233,0,0,0,6.813,7.916l-1,7.333a.609.609,0,0,0,.329.625l7.924,4a.607.607,0,0,0,.7-.107l5.308-5.157a32.254,32.254,0,0,0,10.414.787l4.474,5.889a.607.607,0,0,0,.674.21l8.433-2.772a.608.608,0,0,0,.418-.569l.107-7.395a32.221,32.221,0,0,0,7.916-6.814l7.333,1a.606.606,0,0,0,.624-.328l4-7.923a.608.608,0,0,0-.107-.7l-5.157-5.308a32.232,32.232,0,0,0,.786-10.414l5.89-4.475a.608.608,0,0,0,.209-.674l-2.773-8.433a.608.608,0,0,0-.568-.418l-7.4-.106a32.233,32.233,0,0,0-6.813-7.917l1-7.333a.608.608,0,0,0-.328-.625l-7.923-4a.608.608,0,0,0-.7.106l-5.308,5.157a32.21,32.21,0,0,0-10.414-.787l-4.474-5.889a.607.607,0,0,0-.674-.209l-8.432,2.772a.608.608,0,0,0-.418.569l-.107,7.395a32.243,32.243,0,0,0-7.916,6.813l-7.333-1a.608.608,0,0,0-.625.328Z" transform="translate(-932.261 -516.15)" fill="#c0cef2"/>
          <path id="Path_9" data-name="Path 9" d="M982.334,575.164a8.955,8.955,0,1,1,4.781-1.39A8.96,8.96,0,0,1,982.334,575.164Zm-.026-15.76a6.8,6.8,0,1,0,5.76,3.16A6.768,6.768,0,0,0,982.308,559.4Z" transform="translate(-943.876 -527.765)" fill="#fff"/>
          <path id="Path_10" data-name="Path 10" d="M977.292,583.467A22.535,22.535,0,0,1,955.905,568h0a22.658,22.658,0,0,1-.964-4.3l0-.029c-.014-.117-.028-.235-.04-.352l2.14-.227a20.488,20.488,0,0,0,.912,4.236l.024.076a20.375,20.375,0,0,0,21.381,13.81l.025,0a.024.024,0,0,1,.012,0,20.361,20.361,0,0,0,4.089-.862l.148-.048A20.344,20.344,0,1,0,961.9,547.644l-1.627-1.408a22.5,22.5,0,1,1,17.02,37.231Z" transform="translate(-938.658 -522.455)" fill="#fff"/>
        </g>
      </g>
      <path id="Path_11" data-name="Path 11" d="M1037.943,600.877l3.116,2.735a18.062,18.062,0,0,0,.023,5.852l-3.09,2.761a.341.341,0,0,0-.088.385l1.923,4.587a.339.339,0,0,0,.336.208l4.135-.268a18.053,18.053,0,0,0,4.157,4.119l-.234,4.14a.341.341,0,0,0,.212.334l4.6,1.884a.341.341,0,0,0,.385-.091l2.736-3.116a18.063,18.063,0,0,0,5.852-.023l2.76,3.091a.342.342,0,0,0,.386.087l4.586-1.923a.341.341,0,0,0,.209-.336l-.269-4.135a18.063,18.063,0,0,0,4.119-4.157l4.14.233a.339.339,0,0,0,.334-.211l1.884-4.6a.341.341,0,0,0-.09-.385l-3.116-2.735a18.062,18.062,0,0,0-.023-5.852l3.091-2.761a.341.341,0,0,0,.088-.386l-1.923-4.587a.341.341,0,0,0-.336-.208l-4.135.269a18.068,18.068,0,0,0-4.157-4.119l.234-4.14a.34.34,0,0,0-.212-.334l-4.6-1.884a.341.341,0,0,0-.385.09l-2.735,3.116a18.041,18.041,0,0,0-5.852.023l-2.761-3.091a.341.341,0,0,0-.386-.088l-4.586,1.923a.34.34,0,0,0-.208.336l.268,4.135a18.068,18.068,0,0,0-4.119,4.157l-4.14-.234a.341.341,0,0,0-.334.212l-1.884,4.6A.342.342,0,0,0,1037.943,600.877Z" transform="translate(-948.768 -522.892)" fill="#c0cef2"/>
      <path id="Path_12" data-name="Path 12" d="M1065.193,618.131a5.488,5.488,0,0,1-4.4-2.192h0a5.5,5.5,0,1,1,4.4,2.192Zm-2.677-3.484a3.34,3.34,0,1,0,.664-4.677,3.344,3.344,0,0,0-.664,4.677Z" transform="translate(-954.948 -529.072)" fill="#fff"/>
      <g id="Group_5" data-name="Group 5" transform="translate(87.103 56.362)">
        <path id="Path_13" data-name="Path 13" d="M1035.817,594.2a.717.717,0,0,1-.6-1.105,27.106,27.106,0,0,1,1.726-2.388.717.717,0,1,1,1.116.9,26.031,26.031,0,0,0-1.636,2.262A.716.716,0,0,1,1035.817,594.2Z" transform="translate(-1035.1 -580.71)" fill="#eac4f9"/>
        <path id="Path_14" data-name="Path 14" d="M1083.993,589.763a.718.718,0,0,1-.593-.313q-.326-.478-.679-.946a26.176,26.176,0,0,0-3.344-3.67.718.718,0,1,1,.964-1.064,27.627,27.627,0,0,1,3.528,3.873q.371.493.717,1a.718.718,0,0,1-.592,1.123Zm-34.955-8.275a.718.718,0,0,1-.349-1.344,27.182,27.182,0,0,1,5.98-2.451.717.717,0,1,1,.382,1.382,25.754,25.754,0,0,0-5.664,2.322A.72.72,0,0,1,1049.038,581.487Zm22.1-1.727a.72.72,0,0,1-.246-.044,26.057,26.057,0,0,0-5.96-1.408.717.717,0,1,1,.164-1.425,27.49,27.49,0,0,1,6.286,1.485.718.718,0,0,1-.245,1.392Z" transform="translate(-1038.836 -576.878)" fill="#eac4f9"/>
        <path id="Path_15" data-name="Path 15" d="M1103.853,610.17a.717.717,0,0,1-.712-.642,26.037,26.037,0,0,0-.443-2.755.718.718,0,0,1,1.4-.3,27.572,27.572,0,0,1,.468,2.908.718.718,0,0,1-.638.789A.687.687,0,0,1,1103.853,610.17Z" transform="translate(-1054.198 -585.081)" fill="#eac4f9"/>
      </g>
      <g id="Group_6" data-name="Group 6" transform="translate(82.909 84.456)">
        <path id="Path_16" data-name="Path 16" d="M1093.906,640.106a.717.717,0,0,1-.518-1.214,26.114,26.114,0,0,0,1.823-2.115.717.717,0,1,1,1.136.877,27.538,27.538,0,0,1-1.923,2.232A.715.715,0,0,1,1093.906,640.106Z" transform="translate(-1047.322 -621.821)" fill="#eac4f9"/>
        <path id="Path_17" data-name="Path 17" d="M1053.275,646.917a.679.679,0,0,1-.13-.011,27.445,27.445,0,0,1-6.073-1.861.718.718,0,0,1,.577-1.314,26.028,26.028,0,0,0,5.756,1.764.717.717,0,0,1-.129,1.423Zm10.014-.065a.718.718,0,0,1-.138-1.422,25.747,25.747,0,0,0,5.726-1.848.717.717,0,1,1,.6,1.3,27.189,27.189,0,0,1-6.045,1.952A.723.723,0,0,1,1063.289,646.852Zm-24.173-7.43a.713.713,0,0,1-.512-.214,27.85,27.85,0,0,1-2.4-2.786c-.536-.715-1.044-1.461-1.506-2.221a.717.717,0,0,1,1.225-.747c.438.72.919,1.428,1.428,2.106a26.313,26.313,0,0,0,2.274,2.643.717.717,0,0,1-.511,1.22Z" transform="translate(-1030.764 -620.863)" fill="#eac4f9"/>
        <path id="Path_18" data-name="Path 18" d="M1030.294,620.324a.719.719,0,0,1-.707-.6,27.426,27.426,0,0,1-.332-2.926.717.717,0,0,1,1.432-.086,26.033,26.033,0,0,0,.315,2.774.718.718,0,0,1-.588.826A.748.748,0,0,1,1030.294,620.324Z" transform="translate(-1029.254 -616.039)" fill="#eac4f9"/>
      </g>
      <path id="Path_19" data-name="Path 19" d="M1062.424,622.781a13.105,13.105,0,0,1-12.061-8.028c-.019-.044-.037-.088-.054-.132a13.165,13.165,0,0,1-.7-2.294l-.005-.024-.016-.083,0-.012q-.013-.061-.024-.123l2.116-.4a11.006,11.006,0,0,0,.668,2.229q.06.142.123.282a10.919,10.919,0,1,0,1.155-10.986l-1.735-1.273a13.073,13.073,0,1,1,10.534,20.838Z" transform="translate(-952.085 -526.095)" fill="#fff"/>
    </g>
    <path id="Path_20" data-name="Path 20" d="M485.631,495.6s-209.363,2.237-267.68-48.095S181.585,347,226.238,332.783s52.269-29,28.242-48.938-54.541-60.872-3.875-102.006,108.48,17.949,153.764,10.1,27.35-34.269,86.9-16.02,46.422-34.882,94.3-39.7,42.969,55.262,92.214,32.584,89.524-19.548,110.7,16.467S800.453,269.8,754.007,298.7s-41.462,26.937-24.1,55.344,32.924,121.822-46.1,135.164S485.631,495.6,485.631,495.6Z" transform="translate(-27.482 -11.103)" fill="#e6edff" opacity="0.5"/>
    <g id="Group_8" data-name="Group 8" transform="translate(229.204 96.658)" opacity="0.7">
      <path id="Path_21" data-name="Path 21" d="M359.314,300.983s2.759-43.621-16.891-56.1-57.6-21.291-56.561-84.043c.607-36.737.331-52.821,0-59.842a4.136,4.136,0,0,1,5.056-4.233c18.9,4.338,80.2,21.545,91.5,64.287C395.825,211.724,359.314,300.983,359.314,300.983Z" transform="translate(-285.841 -96.658)" fill="url(#linear-gradient)"/>
      <path id="Path_22" data-name="Path 22" d="M311.983,121.749a227.465,227.465,0,0,1,29.6,36.713c2.115,3.322,4.268,6.625,6.229,10.044.986,1.706,2.042,3.373,2.97,5.113l2.847,5.185c.481.861.933,1.738,1.367,2.623l1.327,2.644,1.326,2.645c.449.879.885,1.763,1.285,2.665,1.626,3.6,3.36,7.127,4.81,10.857.751,1.844,1.407,3.725,2.1,5.593.608,1.894,1.3,3.764,1.833,5.68,1.186,3.8,2.123,7.665,2.983,11.544a164.174,164.174,0,0,1,3.235,23.559,179.14,179.14,0,0,1-.006,23.721q-.41,5.914-1.189,11.793c-.516,3.929-1.162,7.793-2.08,11.718a1.547,1.547,0,0,1-3.033-.6l.011-.068a175.114,175.114,0,0,0,2.157-23.052,200.541,200.541,0,0,0-.562-23.165,176.165,176.165,0,0,0-3.4-22.851,146.806,146.806,0,0,0-6.67-22.039,291.333,291.333,0,0,0-21.034-41.4c-2.063-3.288-4.109-6.589-6.287-9.807-1.052-1.634-2.156-3.232-3.265-4.827l-1.658-2.4-1.71-2.36-1.7-2.372-1.744-2.337c-1.151-1.57-2.353-3.1-3.548-4.632s-2.421-3.045-3.671-4.533c-1.228-1.5-2.492-3-3.773-4.425l-.024-.027a.877.877,0,0,1,1.269-1.21Z" transform="translate(-292.807 -103.678)" fill="#222669"/>
    </g>
    <g id="Group_11" data-name="Group 11" transform="translate(629.349 190.948)">
      <g id="Group_9" data-name="Group 9" opacity="0.7">
        <path id="Path_23" data-name="Path 23" d="M843.919,523.4c-3.487,3.106,23.969-61.82,13.949-148.984-4.722-41.073-18.373-90.379-1.258-115.615,14.244-21,80.483-28.706,102.3-30.7a3.233,3.233,0,0,1,2.966,5.044c-7.628,11.137-23.432,36.8-23.443,58.223-.014,28.241-20.281,51.848-41.326,62.573S864.88,372.5,863.953,411.2,853.824,514.581,843.919,523.4Z" transform="translate(-843.61 -228.09)" fill="url(#linear-gradient-2)"/>
        <path id="Path_24" data-name="Path 24" d="M940.259,255.942s-.6.21-1.715.663-2.738,1.153-4.779,2.1-4.487,2.164-7.219,3.691-5.744,3.372-8.935,5.514a103.231,103.231,0,0,0-9.835,7.531,91.08,91.08,0,0,0-9.694,9.782A73.048,73.048,0,0,0,883.7,311.075l-.532,1.821-.266.91-.213.925c-.269,1.233-.583,2.465-.832,3.69q-.72,3.8-1.431,7.554t-1.41,7.434c-.467,2.449-.864,4.871-1.29,7.253-.838,4.763-1.654,9.366-2.339,13.753l-1.033,6.382q-.468,3.1-.9,5.973c-.286,1.915-.56,3.751-.821,5.5-.244,1.748-.476,3.406-.692,4.964-.451,3.116-.787,5.837-1.061,8.08s-.48,4-.624,5.205l-.2,1.839,0,.015a.6.6,0,0,1-1.2-.1l.1-1.867c.081-1.212.155-3,.357-5.254.18-2.26.4-5.006.721-8.147.154-1.572.316-3.244.489-5.007q.313-2.638.658-5.537c.237-1.928.448-3.943.735-6.018s.591-4.219.9-6.424.6-4.474.979-6.782.759-4.669,1.149-7.068.769-4.845,1.207-7.3q.686-3.68,1.385-7.439t1.408-7.558c.26-1.3.573-2.572.867-3.86l.229-.963.282-.948.566-1.9a71.787,71.787,0,0,1,6.306-14.4,78.413,78.413,0,0,1,8.883-12.326,88.606,88.606,0,0,1,10.2-9.826,105.149,105.149,0,0,1,19.506-12.718c2.832-1.438,5.358-2.568,7.46-3.446s3.789-1.48,4.942-1.882,1.787-.583,1.787-.583h0a.484.484,0,0,1,.3.922Z" transform="translate(-850.743 -235.695)" fill="url(#linear-gradient-3)"/>
      </g>
      <g id="Group_10" data-name="Group 10" transform="translate(31.946 124.954)" opacity="0.7">
        <path id="Path_25" data-name="Path 25" d="M888.408,573.764c-2.388,1.484,12.052-28.014,11.539-53.06s2.085-68.041,21.793-95.054,43.109-31.014,74.455-9.964c26.121,17.541,42.251,26.184,51.433,27.35a3.43,3.43,0,0,1,2.65,4.825c-5.046,11.106-19.714,36.836-47.4,37.07-35.316.3-79.554-19.526-91.183.465s-9.2,30.541-8.959,39.606S904.211,563.938,888.408,573.764Z" transform="translate(-888.141 -402.265)" fill="url(#linear-gradient-4)"/>
        <path id="Path_26" data-name="Path 26" d="M992.953,459.393c-2.168-1.444-4.433-2.805-6.718-4.083s-4.641-2.438-7.008-3.542a72.148,72.148,0,0,0-14.692-5.059,43.161,43.161,0,0,0-7.6-.987,31.068,31.068,0,0,0-7.523.555c-.606.15-1.226.253-1.821.438s-1.189.35-1.789.567l-3.61,1.386L938.7,450.3l-3.35,1.89a45.18,45.18,0,0,0-11.47,10.119A58.742,58.742,0,0,0,916,475.6l-.783,1.788c-.27.592-.458,1.22-.691,1.828-.436,1.229-.912,2.445-1.316,3.687-.737,2.509-1.545,5-2.139,7.559-1.351,5.076-2.177,10.285-3.053,15.488l0,.016a.538.538,0,0,1-1.066-.141,139.689,139.689,0,0,1,2.257-15.789c.282-1.3.484-2.625.857-3.911l1.035-3.875c.377-1.284.828-2.548,1.24-3.824.222-.633.4-1.282.657-1.9l.754-1.87a57.684,57.684,0,0,1,7.909-14.118,46.4,46.4,0,0,1,12.093-10.924l3.55-2.028,3.688-1.745,3.791-1.478c.642-.235,1.331-.414,2-.621s1.359-.316,2.037-.476a34.091,34.091,0,0,1,8.265-.556,45.849,45.849,0,0,1,8.094,1.225,66.228,66.228,0,0,1,15.05,5.817c2.38,1.232,4.679,2.6,6.919,4.059a70.94,70.94,0,0,1,6.5,4.694.559.559,0,0,1-.664.9Z" transform="translate(-893.455 -413.682)" fill="#222669"/>
      </g>
    </g>
    <g id="Group_14" data-name="Group 14" transform="translate(85.423 199.34)" opacity="0.7">
      <g id="Group_12" data-name="Group 12" transform="translate(48.756)">
        <path id="Path_27" data-name="Path 27" d="M316.061,514.572c3.928,2.524-33.318-57.326-37.015-144.984-1.743-41.307,4.051-92.14-16.79-114.4-17.345-18.525-83.976-15.8-105.84-14.368a3.233,3.233,0,0,0-2.144,5.445c9.271,9.811,28.884,32.693,32.237,53.855,4.418,27.893,28.12,48.049,50.58,55.361s34.731,13.3,41.681,51.38S304.9,507.4,316.061,514.572Z" transform="translate(-153.385 -239.788)" fill="url(#linear-gradient-5)"/>
        <path id="Path_28" data-name="Path 28" d="M197.511,262.146s.656.085,1.856.3,2.963.547,5.175,1.089,4.885,1.261,7.905,2.239a105.2,105.2,0,0,1,21.251,9.521,88.571,88.571,0,0,1,11.605,8.115A78.441,78.441,0,0,1,256,294.2a71.788,71.788,0,0,1,8.475,13.24l.855,1.786.427.894.376.915c.492,1.227,1,2.436,1.459,3.678l2.57,7.246,2.529,7.131c.816,2.36,1.564,4.721,2.331,7.026l2.238,6.8c.736,2.221,1.364,4.421,2.025,6.546l1.891,6.2c.607,2.005,1.128,3.962,1.664,5.83l1.513,5.367,1.263,4.87c.806,3.053,1.453,5.73,1.983,7.935.552,2.2.9,3.95,1.172,5.134l.386,1.829a.6.6,0,0,1-1.172.284l0-.016-.485-1.786c-.329-1.164-.813-2.872-1.428-5.045s-1.376-4.809-2.308-7.816q-.687-2.258-1.458-4.8-.8-2.526-1.669-5.3l-1.824-5.759q-.976-2.975-2.016-6.143c-1.361-4.225-2.884-8.645-4.455-13.219-.792-2.286-1.562-4.616-2.405-6.963l-2.552-7.124-2.592-7.237c-.437-1.172-.939-2.34-1.4-3.516l-.354-.88-.405-.858-.81-1.717a73.037,73.037,0,0,0-18.237-23.295,91.062,91.062,0,0,0-11.1-8.15,103.027,103.027,0,0,0-10.889-5.9c-3.486-1.618-6.746-2.977-9.686-4.053s-5.544-1.9-7.706-2.52-3.875-1.058-5.048-1.327-1.8-.387-1.8-.387a.484.484,0,0,1,.149-.957Z" transform="translate(-165.699 -246.105)" fill="url(#linear-gradient-3)"/>
      </g>
      <g id="Group_13" data-name="Group 13" transform="translate(-0.265 150.012) rotate(-17)">
        <path id="Path_29" data-name="Path 29" d="M265.518,568.8c2.591,1.095-16.275-25.79-19.674-50.61s-12.671-66.884-36.351-90.491-47.419-23.911-75.1,1.77c-23.065,21.4-37.65,32.453-46.538,35.038a3.429,3.429,0,0,0-1.865,5.178c6.716,10.184,25.217,33.311,52.6,29.223,34.93-5.215,75.535-31.695,90.14-13.763s13.854,28.732,15.026,37.724S248.375,561.561,265.518,568.8Z" transform="translate(-85.423 -410.099)" fill="url(#linear-gradient-7)"/>
        <path id="Path_30" data-name="Path 30" d="M171.3,469.936a70.755,70.755,0,0,1,5.685-5.65c1.985-1.786,4.042-3.5,6.2-5.089a66.278,66.278,0,0,1,13.959-8.093,45.823,45.823,0,0,1,7.8-2.471,34.068,34.068,0,0,1,8.25-.74c.7.052,1.394.058,2.087.152s1.4.171,2.068.3l3.974.869,3.915,1.148,3.823,1.449a46.421,46.421,0,0,1,13.649,8.905,57.637,57.637,0,0,1,10.014,12.711l1.037,1.73c.354.572.628,1.186.946,1.776.605,1.2,1.248,2.375,1.821,3.583l1.627,3.667c.569,1.211.974,2.486,1.456,3.729a139.678,139.678,0,0,1,4.692,15.243.538.538,0,0,1-1.03.306l-.006-.017c-1.676-5-3.3-10.018-5.43-14.822-.986-2.435-2.172-4.769-3.291-7.133-.594-1.164-1.253-2.291-1.876-3.436-.325-.565-.608-1.156-.968-1.7l-1.052-1.643a58.705,58.705,0,0,0-9.861-11.9,45.184,45.184,0,0,0-12.908-8.206l-3.6-1.344-3.705-1.065-3.781-.806c-.627-.121-1.237-.184-1.856-.282s-1.245-.095-1.867-.149a31.09,31.09,0,0,0-7.518.626,43.216,43.216,0,0,0-7.351,2.159,72.116,72.116,0,0,0-13.723,7.29c-2.165,1.459-4.305,2.973-6.37,4.591s-4.082,3.317-6,5.082l-.013.011a.559.559,0,0,1-.8-.782Z" transform="translate(-109.653 -420.773)" fill="#222669"/>
      </g>
    </g>
    <g id="Group_15" data-name="Group 15" transform="translate(223.053 172.282)">
      <path id="Path_31" data-name="Path 31" d="M567.118,555.04l-8.645,77.53H658.768L645.7,555.04Z" transform="translate(-356.736 -301.819)" fill="url(#linear-gradient-8)"/>
      <path id="Path_32" data-name="Path 32" d="M277.268,225.852v213.28a32.354,32.354,0,0,0,31.521,32.345c77.9,2.009,350.358,6.88,424.514,5.787a23.807,23.807,0,0,0,23.438-23.129c1.43-49.547,3.753-168.694-4.842-224.009a24.5,24.5,0,0,0-23.425-20.736c-65.271-2.088-354.094-8.719-428.216-7.053A23.517,23.517,0,0,0,277.268,225.852Z" transform="translate(-277.268 -202.071)" fill="url(#linear-gradient-9)"/>
      <path id="Path_33" data-name="Path 33" d="M295.922,228.078v202.63a18.747,18.747,0,0,0,18.466,18.744l413.517,5.109a18.244,18.244,0,0,0,18.517-18.174l.692-200.82A13.342,13.342,0,0,0,734.1,222.179l-423.365-8.554A14.457,14.457,0,0,0,295.922,228.078Z" transform="translate(-282.54 -205.335)" fill="url(#linear-gradient-10)"/>
      <path id="Path_34" data-name="Path 34" d="M749.253,557.638h-.013l-453.613-7.729a.718.718,0,0,1-.705-.73.7.7,0,0,1,.73-.705L749.265,556.2a.717.717,0,0,1-.011,1.435Z" transform="translate(-282.257 -299.963)" fill="#fff" opacity="0.65"/>
      <path id="Path_35" data-name="Path 35" d="M616.167,570.123a5.437,5.437,0,1,1,5.437-5.437A5.443,5.443,0,0,1,616.167,570.123Zm0-9.439a4,4,0,1,0,4,4A4.007,4.007,0,0,0,616.167,560.684Z" transform="translate(-371.503 -303.009)" fill="#fff" opacity="0.65"/>
      <path id="Path_36" data-name="Path 36" d="M668.072,676.661H521.284c-3.988,0-6.982-2.839-6.211-5.888l1.883-11.45c.567-2.24,3.031-3.885,5.959-3.976l141.508-.416c3.058-.1,5.766,1.528,6.432,3.856l3.4,11.865C675.134,673.734,672.125,676.661,668.072,676.661Z" transform="translate(-344.437 -330.047)" fill="url(#linear-gradient-11)"/>
      <path id="Path_37" data-name="Path 37" d="M633.642,663.634a.717.717,0,0,1-.01-1.435l6.064-.089a.731.731,0,0,1,.727.707.717.717,0,0,1-.707.727l-6.064.089Z" transform="translate(-377.776 -332.077)" fill="#fff"/>
      <path id="Path_38" data-name="Path 38" d="M522.414,674.911a.672.672,0,0,1-.114-.009.716.716,0,0,1-.6-.821l.865-5.418a6.281,6.281,0,0,1,6.122-5.3l64.316-.94h.011a.717.717,0,0,1,.01,1.435l-64.316.94a4.85,4.85,0,0,0-4.726,4.091l-.865,5.418A.718.718,0,0,1,522.414,674.911Z" transform="translate(-346.342 -332.165)" fill="#fff"/>
      <path id="Path_39" data-name="Path 39" d="M721.086,243.717l-395.162-4.652a11.131,11.131,0,0,0-11.372,10.89l-2.535,175.97a11.17,11.17,0,0,0,10.916,11.2l397.423,13.446a20.131,20.131,0,0,0,14.653-5.591,19.532,19.532,0,0,0,6-14.351V263.669A19.976,19.976,0,0,0,721.086,243.717Z" transform="translate(-287.088 -212.525)" fill="#fff" opacity="0.3"/>
    </g>
    <g id="Group_20" data-name="Group 20" transform="translate(265.573 221.598)">
      <g id="Group_17" data-name="Group 17">
        <path id="Path_44" data-name="Path 44" d="M695.693,455.47h-.231L355.137,452.8c-6.3-.049-12.11-2.2-15.534-5.752a10.03,10.03,0,0,1-3.061-7.3L345.3,283.309c.2-6.922,8.607-12.5,18.812-12.5h.358l339.733,4.32c6.258.08,12.02,2.235,15.413,5.766a10.035,10.035,0,0,1,3.047,7.264l0,.037L714.5,442.956C714.3,449.986,706.064,455.47,695.693,455.47ZM364.1,273.684c-8.662,0-15.779,4.33-15.936,9.747l-8.758,156.445a7.227,7.227,0,0,0,2.26,5.182c2.9,3.009,7.943,4.831,13.491,4.874L695.484,452.6c8.731.046,16-4.309,16.144-9.759l8.166-154.77a7.244,7.244,0,0,0-2.248-5.182c-2.872-2.989-7.873-4.814-13.38-4.884l-339.733-4.32Zm357.125,14.443h0Z" transform="translate(-336.538 -270.814)" fill="#fff"/>
        <path id="Path_45" data-name="Path 45" d="M720.051,315.75H349.412a1.435,1.435,0,0,1,0-2.87h370.64a1.435,1.435,0,0,1,0,2.87Z" transform="translate(-339.77 -282.702)" fill="#fff"/>
      </g>
      <g id="Group_18" data-name="Group 18" transform="translate(18.267 39.807)">
        <path id="Path_46" data-name="Path 46" d="M713.2,358.785l-1.552-17.874a7,7,0,0,0-6.582-6.618l-326.875-7.986a15.318,15.318,0,0,0-11.293,4.67,17.376,17.376,0,0,0-4.9,11.73v12.979a17.385,17.385,0,0,0,4.858,11.685,14.98,14.98,0,0,0,11.054,4.716l328.555-5.317a6.663,6.663,0,0,0,4.985-2.426A7.714,7.714,0,0,0,713.2,358.785Z" transform="translate(-362 -326.302)" fill="#fff" opacity="0.7"/>
        <path id="Path_47" data-name="Path 47" d="M778.085,460.873l-137.762-3.068a6.523,6.523,0,0,1-6.44-6.458v-36.11a6.526,6.526,0,0,1,6.59-6.459H778.235a6.525,6.525,0,0,1,6.589,6.459v39.178A6.529,6.529,0,0,1,778.085,460.873Z" transform="translate(-438.833 -349.609)" fill="#fff" opacity="0.7"/>
        <path id="Path_48" data-name="Path 48" d="M632.485,514.938,785.47,516.09l-.543-16.458a5.866,5.866,0,0,0-5.682-5.238l-139.99-4.751a5.869,5.869,0,0,0-6.108,5.452Z" transform="translate(-438.438 -372.461)" fill="#fff" opacity="0.7"/>
        <path id="Path_49" data-name="Path 49" d="M365.544,489.741l162.868.873L527.09,416.47a8.495,8.495,0,0,0-8.5-8.258l-141.115-1.185a9.934,9.934,0,0,0-10.11,9.637Z" transform="translate(-363.002 -349.115)" fill="#fff" opacity="0.7"/>
      </g>
      <g id="Group_19" data-name="Group 19" transform="translate(295.592 10.565)">
        <path id="Path_50" data-name="Path 50" d="M756.818,302.041a8.25,8.25,0,1,1,8.25-8.25A8.26,8.26,0,0,1,756.818,302.041Zm0-13.631a5.381,5.381,0,1,0,5.38,5.381A5.386,5.386,0,0,0,756.818,288.411Z" transform="translate(-748.568 -285.541)" fill="#fff"/>
        <path id="Path_51" data-name="Path 51" d="M793.818,302.041a8.25,8.25,0,1,1,8.25-8.25A8.26,8.26,0,0,1,793.818,302.041Zm0-13.631a5.381,5.381,0,1,0,5.38,5.381A5.386,5.386,0,0,0,793.818,288.411Z" transform="translate(-759.024 -285.541)" fill="#fff"/>
        <path id="Path_52" data-name="Path 52" d="M830.818,302.041a8.25,8.25,0,1,1,8.25-8.25A8.26,8.26,0,0,1,830.818,302.041Zm0-13.631a5.381,5.381,0,1,0,5.38,5.381A5.386,5.386,0,0,0,830.818,288.411Z" transform="translate(-769.48 -285.541)" fill="#fff"/>
      </g>
    </g>
    <g id="Group_33" data-name="Group 33" transform="translate(189 119.989)">
      <path id="Path_66" data-name="Path 66" d="M231.005,137.487l-1.2,74.493a8.443,8.443,0,0,0,8.442,8.58H324.01a8.444,8.444,0,0,0,8.444-8.444V137.623a8.444,8.444,0,0,0-8.444-8.444H239.448A8.444,8.444,0,0,0,231.005,137.487Z" transform="translate(-229.8 -129.179)" fill="url(#linear-gradient-12)"/>
      <g id="Group_32" data-name="Group 32" transform="translate(12.962 8.058)" opacity="0.73">
        <path id="Path_67" data-name="Path 67" d="M286.564,212.239q-.923,0-1.851-.04c-21.164-.933-37.678-17.784-36.813-37.564a34.518,34.518,0,0,1,12.42-24.934,39.6,39.6,0,0,1,27.531-9.249c21.164.933,37.68,17.783,36.814,37.563h0a34.527,34.527,0,0,1-12.421,24.933A39.436,39.436,0,0,1,286.564,212.239ZM286,145.473a34.383,34.383,0,0,0-22.4,8.083,29.51,29.51,0,0,0-10.644,21.3c-.743,16.992,13.6,31.476,31.977,32.285a34.563,34.563,0,0,0,24.027-8.047,29.514,29.514,0,0,0,10.646-21.3c.742-16.991-13.6-31.475-31.979-32.285C287.086,145.485,286.543,145.473,286,145.473Z" transform="translate(-247.868 -140.411)" fill="#fff"/>
        <g id="Group_31" data-name="Group 31" transform="translate(4.919 2.545)">
          <g id="Group_24" data-name="Group 24" transform="translate(23.441 0.18)">
            <path id="Path_68" data-name="Path 68" d="M306.959,177.9a101.2,101.2,0,0,1-1.444,17.589c-.262,1.45-.565,2.893-.927,4.322a41.765,41.765,0,0,1-1.293,4.228,20.157,20.157,0,0,1-1.93,3.987,7.944,7.944,0,0,1-1.448,1.7,4.128,4.128,0,0,1-.948.613,2.833,2.833,0,0,1-1.107.262,2.786,2.786,0,0,1-1.118-.207,3.881,3.881,0,0,1-.971-.58,7.559,7.559,0,0,1-1.479-1.669,19.43,19.43,0,0,1-1.958-3.972,40.925,40.925,0,0,1-1.307-4.225c-.365-1.428-.671-2.87-.935-4.319-.527-2.9-.886-5.826-1.128-8.761s-.362-5.881-.376-8.825c-.007-1.473.032-2.945.085-4.416s.136-2.942.244-4.411c.217-2.936.541-5.865,1.022-8.771.242-1.453.524-2.9.862-4.332a41.748,41.748,0,0,1,1.225-4.246c.246-.7.515-1.382.822-2.053a15.051,15.051,0,0,1,1.053-1.948,7.222,7.222,0,0,1,1.447-1.679,3.667,3.667,0,0,1,.957-.576,2.686,2.686,0,0,1,1.1-.2,2.915,2.915,0,0,1,1.087.255,4.251,4.251,0,0,1,.945.592,8.107,8.107,0,0,1,1.479,1.651,19.922,19.922,0,0,1,2.027,3.926,40.494,40.494,0,0,1,1.39,4.195c.391,1.42.722,2.857,1.009,4.3A92.716,92.716,0,0,1,306.959,177.9Zm-.434,0q.008-4.4-.349-8.79a84.882,84.882,0,0,0-1.143-8.72c-.27-1.441-.584-2.873-.958-4.29a40.173,40.173,0,0,0-1.336-4.184,19.716,19.716,0,0,0-1.964-3.908,7.917,7.917,0,0,0-1.43-1.634,4.094,4.094,0,0,0-.906-.582,2.713,2.713,0,0,0-1.035-.254,2.543,2.543,0,0,0-1.044.2,3.545,3.545,0,0,0-.913.564,7.1,7.1,0,0,0-1.4,1.657,15.071,15.071,0,0,0-1.019,1.935c-.3.668-.556,1.353-.793,2.045a41.6,41.6,0,0,0-1.172,4.233c-.321,1.43-.587,2.873-.811,4.322-.448,2.9-.74,5.821-.924,8.749s-.25,5.863-.245,8.8.09,5.867.307,8.792.554,5.842,1.056,8.731c.251,1.443.544,2.88.9,4.3a40.392,40.392,0,0,0,1.265,4.2,19.143,19.143,0,0,0,1.9,3.929,7.315,7.315,0,0,0,1.415,1.624,3.63,3.63,0,0,0,.906.551,2.48,2.48,0,0,0,1.024.2,2.581,2.581,0,0,0,1.014-.249,3.9,3.9,0,0,0,.887-.585,7.708,7.708,0,0,0,1.387-1.652,19.811,19.811,0,0,0,1.87-3.944,41.468,41.468,0,0,0,1.25-4.206c.348-1.423.638-2.86.887-4.3.5-2.89.829-5.807,1.05-8.732S306.526,180.831,306.525,177.9Z" transform="translate(-287.735 -144.548)" fill="#fff"/>
            <path id="Path_69" data-name="Path 69" d="M297.442,211.115a3.666,3.666,0,0,1-1.354-.27,4.7,4.7,0,0,1-1.182-.7,8.266,8.266,0,0,1-1.654-1.857,20.066,20.066,0,0,1-2.051-4.151,41.489,41.489,0,0,1-1.336-4.317c-.352-1.377-.662-2.809-.948-4.378-.5-2.78-.877-5.673-1.139-8.845-.237-2.883-.364-5.874-.379-8.891-.008-1.577.038-3.134.085-4.451.057-1.5.138-2.99.246-4.442.235-3.19.573-6.084,1.032-8.849.263-1.576.548-3.012.874-4.391a42.38,42.38,0,0,1,1.251-4.332c.278-.788.557-1.483.852-2.126a15.926,15.926,0,0,1,1.113-2.059,8,8,0,0,1,1.625-1.877,4.532,4.532,0,0,1,1.182-.707,3.568,3.568,0,0,1,1.446-.256,3.73,3.73,0,0,1,1.4.328,5.043,5.043,0,0,1,1.137.71,8.773,8.773,0,0,1,1.641,1.824,20.546,20.546,0,0,1,2.121,4.1,40.659,40.659,0,0,1,1.421,4.286c.381,1.382.716,2.809,1.024,4.363a92.744,92.744,0,0,1,1.629,17.735v0a101.284,101.284,0,0,1-1.458,17.738c-.283,1.568-.59,3-.939,4.383A42.326,42.326,0,0,1,303.759,204a20.809,20.809,0,0,1-2.017,4.157,8.689,8.689,0,0,1-1.611,1.88,4.985,4.985,0,0,1-1.147.74,3.654,3.654,0,0,1-1.444.337ZM297,146.055a1.689,1.689,0,0,0-.648.133,2.714,2.714,0,0,0-.694.433,6.171,6.171,0,0,0-1.22,1.458,14.007,14.007,0,0,0-.957,1.821c-.264.593-.514,1.239-.766,1.975a40.32,40.32,0,0,0-1.146,4.144c-.3,1.339-.563,2.734-.8,4.265-.42,2.713-.719,5.549-.915,8.67-.17,2.668-.25,5.528-.244,8.741-.008,2.966.095,5.9.3,8.731.232,3.1.574,5.933,1.045,8.647.265,1.518.554,2.906.885,4.243a39.665,39.665,0,0,0,1.238,4.112,18.142,18.142,0,0,0,1.809,3.752,6.342,6.342,0,0,0,1.241,1.431,2.752,2.752,0,0,0,.687.423,1.818,1.818,0,0,0,.675.134,1.74,1.74,0,0,0,.686-.172,3.028,3.028,0,0,0,.689-.457,6.764,6.764,0,0,0,1.227-1.469,18.848,18.848,0,0,0,1.783-3.769,40.5,40.5,0,0,0,1.222-4.118c.326-1.329.612-2.718.875-4.246.463-2.69.8-5.519,1.039-8.649.215-2.822.324-5.758.322-8.729h0c.006-2.959-.11-5.892-.345-8.718a83.362,83.362,0,0,0-1.131-8.633c-.281-1.5-.59-2.887-.944-4.23a39.211,39.211,0,0,0-1.306-4.092,18.732,18.732,0,0,0-1.875-3.737,7,7,0,0,0-1.269-1.455,3.261,3.261,0,0,0-.715-.461,1.828,1.828,0,0,0-.7-.176Z" transform="translate(-287.399 -144.21)" fill="#fff"/>
          </g>
          <g id="Group_25" data-name="Group 25" transform="translate(6.755)">
            <path id="Path_70" data-name="Path 70" d="M315.179,177.826a43.094,43.094,0,0,1-1.516,11.24,36.264,36.264,0,0,1-4.685,10.306,29.64,29.64,0,0,1-3.578,4.4,25.131,25.131,0,0,1-4.4,3.559,21.183,21.183,0,0,1-5.139,2.359,19.145,19.145,0,0,1-11.174.005,21.192,21.192,0,0,1-5.142-2.355,25.086,25.086,0,0,1-4.41-3.556,29.67,29.67,0,0,1-3.585-4.4,36.317,36.317,0,0,1-4.7-10.311,40.963,40.963,0,0,1-1.137-5.573,42.03,42.03,0,0,1,0-11.35,40.824,40.824,0,0,1,1.141-5.571,36.305,36.305,0,0,1,4.7-10.3,29.6,29.6,0,0,1,3.586-4.392,25.014,25.014,0,0,1,4.408-3.55,21.3,21.3,0,0,1,5.139-2.346,19.007,19.007,0,0,1,11.156.005,21.275,21.275,0,0,1,5.135,2.349,25.023,25.023,0,0,1,4.4,3.553,29.613,29.613,0,0,1,3.578,4.393,36.23,36.23,0,0,1,4.69,10.3A43.05,43.05,0,0,1,315.179,177.826Zm-.5,0a42.582,42.582,0,0,0-1.456-11.118,36.09,36.09,0,0,0-4.535-10.236,29.343,29.343,0,0,0-3.5-4.385,24.458,24.458,0,0,0-4.326-3.56,20.859,20.859,0,0,0-5.073-2.354,18.542,18.542,0,0,0-11.045,0,20.849,20.849,0,0,0-5.069,2.359,24.427,24.427,0,0,0-4.32,3.563,29.339,29.339,0,0,0-3.489,4.386,36.045,36.045,0,0,0-4.523,10.232,41.306,41.306,0,0,0-1.088,5.507,43.032,43.032,0,0,0,0,11.2,41.332,41.332,0,0,0,1.091,5.505,36.054,36.054,0,0,0,4.53,10.225,29.385,29.385,0,0,0,3.49,4.381,24.35,24.35,0,0,0,4.318,3.556,20.921,20.921,0,0,0,5.065,2.349,18.4,18.4,0,0,0,11.028.005,20.927,20.927,0,0,0,5.069-2.346,24.367,24.367,0,0,0,4.324-3.553,29.388,29.388,0,0,0,3.5-4.38,36.085,36.085,0,0,0,4.541-10.229A42.568,42.568,0,0,0,314.682,177.826Z" transform="translate(-264.477 -144.297)" fill="#fff"/>
            <path id="Path_71" data-name="Path 71" d="M289.937,211.044a20.179,20.179,0,0,1-5.835-.867,21.97,21.97,0,0,1-5.35-2.45,25.937,25.937,0,0,1-4.562-3.677,30.656,30.656,0,0,1-3.689-4.524,37.081,37.081,0,0,1-4.809-10.554,41.975,41.975,0,0,1-1.162-5.694,42.934,42.934,0,0,1,0-11.577,41.809,41.809,0,0,1,1.165-5.688,37.059,37.059,0,0,1,4.817-10.551,30.487,30.487,0,0,1,3.69-4.52,25.883,25.883,0,0,1,4.56-3.671,22.1,22.1,0,0,1,5.346-2.441,19.873,19.873,0,0,1,11.649.005,22.1,22.1,0,0,1,5.34,2.443,25.978,25.978,0,0,1,4.554,3.675,30.528,30.528,0,0,1,3.682,4.52,37,37,0,0,1,4.8,10.544,43.917,43.917,0,0,1,1.557,11.466v.01a43.918,43.918,0,0,1-1.548,11.464,37.009,37.009,0,0,1-4.8,10.554,30.454,30.454,0,0,1-3.682,4.526,26.025,26.025,0,0,1-4.555,3.68,22.039,22.039,0,0,1-5.348,2.454A20.2,20.2,0,0,1,289.937,211.044Zm0-65.19a18.287,18.287,0,0,0-5.269.806,20.031,20.031,0,0,0-4.861,2.263,23.582,23.582,0,0,0-4.165,3.437,28.518,28.518,0,0,0-3.388,4.258,35.114,35.114,0,0,0-4.413,9.988A40.618,40.618,0,0,0,266.772,172a42.172,42.172,0,0,0,0,10.983,40.6,40.6,0,0,0,1.068,5.39,35.082,35.082,0,0,0,4.42,9.98,28.356,28.356,0,0,0,3.388,4.253,23.557,23.557,0,0,0,4.165,3.433,20.09,20.09,0,0,0,4.856,2.253,17.564,17.564,0,0,0,10.529.005,20.114,20.114,0,0,0,4.863-2.251,23.552,23.552,0,0,0,4.17-3.428,28.6,28.6,0,0,0,3.394-4.252,35.16,35.16,0,0,0,4.431-9.986,42.225,42.225,0,0,0,.007-21.779,35.191,35.191,0,0,0-4.425-9.991,28.594,28.594,0,0,0-3.395-4.256,23.581,23.581,0,0,0-4.173-3.436,19.976,19.976,0,0,0-4.862-2.257A18.243,18.243,0,0,0,289.933,145.854Z" transform="translate(-264.14 -143.959)" fill="#fff"/>
          </g>
          <g id="Group_26" data-name="Group 26" transform="translate(2.6 19.61)">
            <path id="Path_72" data-name="Path 72" d="M259.57,172.613l7.48-.061,7.48-.034,14.96-.028,14.96.03,7.48.038,7.48.065a.022.022,0,0,1,.022.022s-.01.022-.022.022l-7.48.065-7.48.037-14.96.031-14.96-.028-7.48-.034-7.48-.06a.055.055,0,0,1-.032-.015C259.538,172.627,259.553,172.613,259.57,172.613Z" transform="translate(-258.684 -171.632)" fill="#fff"/>
            <path id="Path_73" data-name="Path 73" d="M289.156,173.321l-22.446-.062-7.839-.065-.523-.524v-.384l.02-.838.86-.033,14.962-.1,14.963-.028,22.446.069,8.33.073.022,1.73-.876.022-14.956.1Z" transform="translate(-258.348 -171.294)" fill="#fff"/>
          </g>
          <g id="Group_27" data-name="Group 27" transform="translate(11.277 7.033)">
            <path id="Path_74" data-name="Path 74" d="M271.666,155.082c1.771-.028,3.54-.04,5.311-.061l5.31-.034c1.77-.015,3.54-.014,5.311-.018l5.31-.01,10.621.031,5.31.037c1.771.022,3.54.035,5.311.065a.041.041,0,0,1,.022.01c0,.024-.01.034-.022.034-1.771.03-3.54.043-5.311.065l-5.31.037-10.621.031-5.31-.01c-1.771,0-3.541,0-5.311-.018l-5.31-.034c-1.771-.02-3.54-.032-5.311-.06a.033.033,0,0,1,0-.066Z" transform="translate(-270.78 -154.101)" fill="#fff"/>
            <path id="Path_75" data-name="Path 75" d="M292.575,155.79l-6.691-.014c-1.314,0-2.626,0-3.94-.014l-7.081-.053c-1.182-.012-2.365-.023-3.546-.042l-.842-.013-.032-1.736.874-.032c1.143-.019,2.287-.029,3.431-.041l7.2-.055q1.868-.015,3.741-.014l6.884-.014,17.873.09c1.128.013,2.257.024,3.385.044l.87.015-.039,1.723-.847.022c-1.167.02-2.349.033-3.532.045l-7.084.058Z" transform="translate(-270.443 -153.763)" fill="#fff"/>
          </g>
          <g id="Group_28" data-name="Group 28" transform="translate(0 32.187)">
            <path id="Path_76" data-name="Path 76" d="M255.947,190.144l8.13-.06,8.13-.035,16.259-.027,16.259.03,8.13.038,8.13.065a.022.022,0,0,1,.022.022s-.01.022-.022.022l-8.13.065-8.13.037-16.259.03-16.259-.027-8.13-.034-8.13-.061a.033.033,0,0,1,0-.065Z" transform="translate(-255.06 -189.163)" fill="#fff"/>
            <path id="Path_77" data-name="Path 77" d="M288.132,190.852l-24.4-.062-8.98-.067-.033-1.743.881-.033,16.262-.095,16.262-.028,24.394.068,8.491.068.516.527L321.5,190.7l-.848.022-16.255.1Z" transform="translate(-254.724 -188.825)" fill="#fff"/>
          </g>
          <g id="Group_29" data-name="Group 29" transform="translate(2.6 44.764)">
            <path id="Path_78" data-name="Path 78" d="M259.57,207.674l7.48-.061,7.48-.034,14.96-.028,14.96.031,7.48.038,7.48.065a.034.034,0,0,1,.022.01c0,.024-.01.034-.022.034l-7.48.065-7.48.038-14.96.031-14.96-.028-7.48-.034-7.48-.061a.033.033,0,0,1,0-.065Z" transform="translate(-258.684 -206.694)" fill="#fff"/>
            <path id="Path_79" data-name="Path 79" d="M289.156,208.382l-22.446-.062-7.839-.063-.523-.524v-.384l.019-.839.86-.032,14.963-.1,14.962-.028,22.446.068,8.33.073.022,1.731-.876.022-14.956.1Z" transform="translate(-258.348 -206.356)" fill="#fff"/>
          </g>
          <g id="Group_30" data-name="Group 30" transform="translate(12.265 57.381)">
            <path id="Path_80" data-name="Path 80" d="M315.61,225.369H273.126a.115.115,0,0,1,0-.23H315.61a.115.115,0,0,1,0,.23Z" transform="translate(-272.157 -224.282)" fill="#fff"/>
            <path id="Path_81" data-name="Path 81" d="M315.273,225.889H272.789a.972.972,0,0,1,0-1.945h42.484a.972.972,0,0,1,0,1.945Z" transform="translate(-271.82 -223.944)" fill="#fff"/>
          </g>
        </g>
      </g>
    </g>
    <g id="Group_37" data-name="Group 37" transform="translate(617.089 316.145)">
      <g id="Group_35" data-name="Group 35" transform="translate(0 0)">
        <g id="Group_34" data-name="Group 34">
          <path id="Path_82" data-name="Path 82" d="M828.676,413.077c-.694,32.736-2.943,145.653-1.869,185.667.113,4.239,3.018,7.642,6.642,7.78,17.922.687,83.623,2.426,112.937.986,6.106-.3,10.961-6.085,11.088-13.232.609-34.361,1.953-135-1.241-179.274-.383-5.3-3.942-9.529-8.47-10.059-19.518-2.284-85.5-3.867-110.827-1.944C832.369,403.348,828.79,407.724,828.676,413.077Z" transform="translate(-826.521 -402.605)" fill="url(#linear-gradient-13)"/>
          <path id="Path_83" data-name="Path 83" d="M839.4,427.762c-.964,26.423-4.007,114.324-3.042,146.828.141,4.751,3.342,8.592,7.4,8.87,16.7,1.144,73.687,3.665,98.185,1.37,4.411-.413,7.873-4.587,8.111-9.757,1.242-26.956,2.806-112.8,1.88-144.945-.148-5.127-3.543-9.314-7.911-9.773-18.069-1.9-76.622-2.414-97.439-1.085C842.676,419.52,839.567,423.188,839.4,427.762Z" transform="translate(-829.248 -407.247)" fill="url(#linear-gradient-14)"/>
          <path id="Path_84" data-name="Path 84" d="M900.883,675.541c-4.446,0-8.064-4.177-8.064-9.312s3.617-9.311,8.064-9.311,8.063,4.177,8.063,9.311S905.329,675.541,900.883,675.541Zm0-17.188c-3.655,0-6.629,3.534-6.629,7.876s2.974,7.877,6.629,7.877,6.629-3.534,6.629-7.877S904.538,658.353,900.883,658.353Z" transform="translate(-845.257 -474.473)" fill="#fff" opacity="0.65"/>
          <path id="Path_85" data-name="Path 85" d="M891.265,410.366h0a1.783,1.783,0,0,0,1.527,1.885c4.233.259,16.158.993,21.487,1.354a1.8,1.8,0,0,0,1.677-2.243l-.034-.206a1.734,1.734,0,0,0-1.436-1.523c-3.6-.386-14.471-1.456-21.673-1.156A1.777,1.777,0,0,0,891.265,410.366Z" transform="translate(-844.818 -404.25)" fill="#fff" opacity="0.5"/>
        </g>
        <path id="Path_86" data-name="Path 86" d="M947.229,477.553l.212-36.048c.026-3.737-2.379-6.914-5.475-7.147l-80.346-1.084c-3.259-.245-6.109,2.76-6.254,6.69,0,0-3.827,93.213-3.827,94.348h0l-1.166,36.6c-.146,3.934,2.513,7.246,5.782,7.347l84.376,2.58c3.263.1,5.985-3.109,6.012-7.041l.418-57.5h0l.261-38.74Z" transform="translate(-833.26 -411.268)" fill="#fff" opacity="0.3"/>
      </g>
      <g id="Group_36" data-name="Group 36" transform="translate(30.929 67.515)">
        <path id="Path_87" data-name="Path 87" d="M917.677,560.731h-32.07a15.991,15.991,0,0,1-15.973-15.973v-32.07a15.992,15.992,0,0,1,15.973-15.973h32.07a15.991,15.991,0,0,1,15.972,15.973v32.07A15.991,15.991,0,0,1,917.677,560.731Zm-32.07-62.581a14.555,14.555,0,0,0-14.538,14.538v32.07A14.555,14.555,0,0,0,885.607,559.3h32.07a14.555,14.555,0,0,0,14.537-14.538v-32.07a14.555,14.555,0,0,0-14.537-14.538Z" transform="translate(-869.634 -496.715)" fill="#fff"/>
        <path id="Path_88" data-name="Path 88" d="M892.167,531.587,907.35,555l18.1-45.1-21.092,27.608Z" transform="translate(-876.002 -500.44)" fill="#fff"/>
      </g>
    </g>
    <g id="Group_41" data-name="Group 41" transform="translate(694.08 133.003)">
      <g id="Group_40" data-name="Group 40">
        <path id="Path_93" data-name="Path 93" d="M943.4,230.5a9.564,9.564,0,1,1,9.565-9.564A9.576,9.576,0,0,1,943.4,230.5Zm0-15.332a5.768,5.768,0,1,0,5.768,5.768A5.774,5.774,0,0,0,943.4,215.171Z" transform="translate(-933.84 -165.421)" fill="#b1c2e9"/>
        <g id="Group_39" data-name="Group 39" transform="translate(0.182)">
          <path id="Path_94" data-name="Path 94" d="M945.42,194.022a20.426,20.426,0,0,1,20.4,20.4,19.826,19.826,0,0,1-.109,2.064,1.392,1.392,0,0,0,1.58,1.542l2.969-.443a1.4,1.4,0,0,0,1.182-1.288c.046-.62.071-1.245.071-1.875a26.128,26.128,0,0,0-26.1-26.1,25.762,25.762,0,0,0-3.218.2,1.4,1.4,0,0,0-1.208,1.616l.491,2.886a1.381,1.381,0,0,0,1.533,1.14A19.52,19.52,0,0,1,945.42,194.022Z" transform="translate(-936.038 -158.909)" fill="#b1c2e9"/>
          <path id="Path_95" data-name="Path 95" d="M944.447,173.518a35.153,35.153,0,0,1,35.113,35.113v.016a1.378,1.378,0,0,0,1.576,1.377l2.913-.435,1.2-1.392a40.855,40.855,0,0,0-40.805-40.375,40.384,40.384,0,0,0-5.746.415,1.379,1.379,0,0,0-1.149,1.6l.49,2.879a1.378,1.378,0,0,0,1.542,1.143A34.75,34.75,0,0,1,944.447,173.518Z" transform="translate(-935.065 -153.114)" fill="#b1c2e9"/>
          <path id="Path_96" data-name="Path 96" d="M943.475,153.015a49.876,49.876,0,0,1,49.766,47.692,1.392,1.392,0,0,0,1.59,1.334l2.89-.432a1.391,1.391,0,0,0,1.188-1.432,55.422,55.422,0,0,0-63.647-52.234,1.389,1.389,0,0,0-1.15,1.609l.49,2.875a1.388,1.388,0,0,0,1.584,1.133A49.44,49.44,0,0,1,943.475,153.015Z" transform="translate(-934.093 -147.32)" fill="#b1c2e9"/>
        </g>
      </g>
    </g>
    <g id="Group_42" data-name="Group 42" transform="translate(407.471 286.943)">
      <path id="Path_97" data-name="Path 97" d="M586.32,403.89l5.085-38.136a1.73,1.73,0,0,0-2.128-1.7L553.19,377.394c-.824.3-.792,1.426.06,2.107l5.025,4.019a1.355,1.355,0,0,1,.461,1.823l-22.13,27.671a1.356,1.356,0,0,0,.461,1.823l16.27,13.012a1.355,1.355,0,0,0,1.88.048l22.13-27.671a1.356,1.356,0,0,1,1.88.049l5.026,4.02C585.1,404.976,586.2,404.76,586.32,403.89Z" transform="translate(-534.918 -362.487)" fill="#fff"/>
      <path id="Path_98" data-name="Path 98" d="M553.822,429.159a3.227,3.227,0,0,1-2-.734l-16.27-13.012a3.25,3.25,0,0,1-1.134-1.72,2.5,2.5,0,0,1,.44-2.2L556.765,384.1l-.007-.005-5.025-4.019a3.031,3.031,0,0,1-1.186-2.8,2.371,2.371,0,0,1,1.54-1.865l36.086-13.344a3.207,3.207,0,0,1,4.122,3.3L587.21,403.5a2.372,2.372,0,0,1-1.481,1.911,3.032,3.032,0,0,1-2.994-.54l-5.026-4.02-.006-.005-21.909,27.395A2.48,2.48,0,0,1,553.822,429.159ZM537.4,413.081l.006.005L553.681,426.1l.006.005,21.91-27.395a2.794,2.794,0,0,1,3.974-.184l4.787,3.828,4.974-37.3a.55.55,0,0,0-.2-.163l-35.293,13.05,4.786,3.827a2.8,2.8,0,0,1,.694,3.918Zm46.851-9.977v0Z" transform="translate(-534.331 -361.9)" fill="url(#linear-gradient-15)"/>
    </g>
    <g id="Group_45" data-name="Group 45" transform="translate(346.052 124.699)">
      <g id="Group_43" data-name="Group 43" transform="translate(3.232 8.805)">
        <path id="Path_99" data-name="Path 99" d="M458.807,147.789c31.643-.466,188.168.794,220.292.23a5.67,5.67,0,0,1,5.769,5.67v14.654a5.67,5.67,0,0,1-5.67,5.67h-220.3a5.67,5.67,0,0,1-5.67-5.67V153.458A5.668,5.668,0,0,1,458.807,147.789Z" transform="translate(-453.223 -148.018)" fill="url(#linear-gradient-16)"/>
        <path id="Path_100" data-name="Path 100" d="M516.616,164.954v-4c0,3.19,2.616,9.761,5.805,9.7l127.648-.214c3.661-.064,6.315-5.51,5.443-9.065l-.58-2.368a5.706,5.706,0,0,0-5.748-4.343l-127.068.583C519.047,155.362,516.616,161.882,516.616,164.954Z" transform="translate(-471.138 -149.896)" fill="#fff" opacity="0.64"/>
      </g>
      <g id="Group_44" data-name="Group 44" transform="translate(11.937 10.352)">
        <path id="Path_101" data-name="Path 101" d="M457.716,170.113l-8.741,8.9a.9.9,0,0,0,.063,1.316l.066.055a.834.834,0,0,0,1.179-.106l8-9.654Z" transform="translate(-448.717 -159.13)" fill="#fff"/>
        <path id="Path_102" data-name="Path 102" d="M481.575,140.966a5.788,5.788,0,1,1-7.67-2.636A5.735,5.735,0,0,1,481.575,140.966Z" transform="translate(-463.596 -137.113)" opacity="0.2" fill="url(#linear-gradient-17)"/>
        <path id="Path_103" data-name="Path 103" d="M472.244,136.384a6.324,6.324,0,1,0,8.534,2.933A6.381,6.381,0,0,0,472.244,136.384Zm5.046,10.574a5.395,5.395,0,1,1,2.634-7.234A5.444,5.444,0,0,1,477.291,146.958Z" transform="translate(-462.211 -135.744)" fill="#fff"/>
        <path id="Path_104" data-name="Path 104" d="M469.813,157.893a.16.16,0,0,1-.154-.117,5.94,5.94,0,0,1-.2-1.247.16.16,0,0,1,.319-.017,5.64,5.64,0,0,0,.192,1.18.16.16,0,0,1-.112.2A.177.177,0,0,1,469.813,157.893Z" transform="translate(-462.829 -149.772)" fill="#fff"/>
        <path id="Path_105" data-name="Path 105" d="M454.114,193.6a.16.16,0,0,1-.117-.269l.134-.143a.16.16,0,0,1,.233.219l-.134.143A.159.159,0,0,1,454.114,193.6Z" transform="translate(-452.281 -174.798)" fill="#fff"/>
      </g>
    </g>
    <g id="Group_48" data-name="Group 48" transform="translate(147.894 233.714)">
      <g id="Group_46" data-name="Group 46" transform="translate(0 34.43)">
        <path id="Path_106" data-name="Path 106" d="M871.008,417.387l-1.354-1.641-.016-.019a.381.381,0,0,1,.588-.484l.005.006,1.349,1.707a.358.358,0,0,1-.557.451Z" transform="translate(-369.486 -358.135)" fill="#fff"/>
        <path id="Path_107" data-name="Path 107" d="M864.006,410.34l-1.674-1.306-.023-.018a.455.455,0,0,1,.56-.718l.007.006,1.692,1.376a.433.433,0,0,1-.539.677Z" transform="translate(-367.39 -356.185)" fill="#fff"/>
        <path id="Path_108" data-name="Path 108" d="M855.681,404.937l-1.9-.941-.027-.014a.529.529,0,1,1,.47-.948l.009.005,1.935,1.008a.507.507,0,0,1-.458.9Z" transform="translate(-364.938 -354.708)" fill="#fff"/>
        <path id="Path_109" data-name="Path 109" d="M846.49,401.189l-2.035-.612-.026-.008a.6.6,0,1,1,.344-1.144l.009,0,2.077.66a.581.581,0,0,1-.343,1.11Z" transform="translate(-362.266 -353.697)" fill="#fff"/>
        <path id="Path_110" data-name="Path 110" d="M836.83,398.88l-2.1-.332-.023,0a.653.653,0,0,1,.2-1.29l.01,0,2.142.372a.636.636,0,0,1-.208,1.255Z" transform="translate(-359.483 -353.089)" fill="#fff"/>
        <path id="Path_111" data-name="Path 111" d="M826.948,397.764l-2.129-.107h-.02a.708.708,0,0,1,.071-1.415h.011l2.168.142a.691.691,0,0,1-.08,1.38Z" transform="translate(-356.649 -352.804)" fill="#fff"/>
        <path id="Path_112" data-name="Path 112" d="M816.993,397.589l-2.134.075h-.017a.763.763,0,1,1-.054-1.526h.012l2.169-.043a.747.747,0,0,1,.042,1.493Z" transform="translate(-353.802 -352.763)" fill="#fff"/>
        <path id="Path_113" data-name="Path 113" d="M807.049,398.145l-2.125.223h-.015a.818.818,0,1,1-.171-1.628h.012l2.159-.193a.8.8,0,0,1,.156,1.6Z" transform="translate(-350.963 -352.89)" fill="#fff"/>
        <path id="Path_114" data-name="Path 114" d="M797.159,399.349l-2.111.346-.014,0a.874.874,0,1,1-.283-1.725l.013,0,2.143-.318a.857.857,0,0,1,.266,1.694Z" transform="translate(-348.141 -353.201)" fill="#fff"/>
        <path id="Path_115" data-name="Path 115" d="M787.347,401.092l-2.1.439h-.007a.929.929,0,0,1-.379-1.819l.014,0,2.118-.408a.912.912,0,0,1,.36,1.789Z" transform="translate(-345.344 -353.665)" fill="#fff"/>
        <path id="Path_116" data-name="Path 116" d="M777.574,403.166l-2.09.485h-.006a.984.984,0,1,1-.446-1.918l.015,0,2.11-.456a.968.968,0,0,1,.424,1.889Z" transform="translate(-342.56 -354.221)" fill="#fff"/>
        <path id="Path_117" data-name="Path 117" d="M767.849,405.453l-2.08.53h-.006a1.04,1.04,0,1,1-.514-2.015l.015,0,2.1-.5a1.023,1.023,0,0,1,.491,1.986Z" transform="translate(-339.789 -354.838)" fill="#fff"/>
        <path id="Path_118" data-name="Path 118" d="M758.179,407.942l-2.07.567H756.1a1.085,1.085,0,0,1-.573-2.093l.01,0,2.087-.55a1.075,1.075,0,0,1,.559,2.075Z" transform="translate(-337.039 -355.514)" fill="#fff"/>
        <path id="Path_119" data-name="Path 119" d="M748.562,410.618l-2.057.607-.006,0a1.119,1.119,0,1,1-.633-2.146l.011,0,2.075-.592a1.109,1.109,0,0,1,.618,2.129Z" transform="translate(-334.306 -356.253)" fill="#fff"/>
        <path id="Path_120" data-name="Path 120" d="M739,413.48l-2.046.646-.007,0a1.152,1.152,0,1,1-.694-2.2l.01,0,2.065-.631a1.142,1.142,0,0,1,.678,2.182Z" transform="translate(-331.589 -357.045)" fill="#fff"/>
        <path id="Path_121" data-name="Path 121" d="M729.49,416.52l-2.034.683h-.006a1.186,1.186,0,0,1-.755-2.248l.011,0,2.052-.668a1.176,1.176,0,0,1,.738,2.233Z" transform="translate(-328.887 -357.887)" fill="#fff"/>
        <path id="Path_122" data-name="Path 122" d="M720.038,419.727l-2.022.718-.006,0a1.22,1.22,0,0,1-.816-2.3l.011,0,2.04-.7a1.21,1.21,0,0,1,.8,2.283Z" transform="translate(-326.201 -358.777)" fill="#fff"/>
        <path id="Path_123" data-name="Path 123" d="M710.639,423.092l-2.011.75-.005,0a1.254,1.254,0,1,1-.877-2.349l.011,0,2.029-.735a1.243,1.243,0,0,1,.859,2.334Z" transform="translate(-323.53 -359.711)" fill="#fff"/>
        <path id="Path_124" data-name="Path 124" d="M701.295,426.606l-2,.781-.005,0a1.287,1.287,0,0,1-.937-2.4l.011,0,2.017-.766a1.277,1.277,0,0,1,.919,2.384Z" transform="translate(-320.875 -360.688)" fill="#fff"/>
        <path id="Path_125" data-name="Path 125" d="M692,430.259l-1.988.809-.005,0a1.321,1.321,0,0,1-1-2.448l.012,0,2.006-.795a1.311,1.311,0,0,1,.978,2.433Z" transform="translate(-318.234 -361.703)" fill="#fff"/>
        <path id="Path_126" data-name="Path 126" d="M682.762,434.04l-1.978.837h0a1.355,1.355,0,0,1-1.055-2.5l.011-.005,2-.821a1.345,1.345,0,0,1,1.036,2.482Z" transform="translate(-315.608 -362.756)" fill="#fff"/>
        <path id="Path_127" data-name="Path 127" d="M673.57,437.943l-1.967.86h0a1.388,1.388,0,1,1-1.113-2.544l.011-.006,1.984-.845a1.378,1.378,0,0,1,1.094,2.53Z" transform="translate(-312.995 -363.842)" fill="#fff"/>
        <path id="Path_128" data-name="Path 128" d="M664.424,441.954l-1.957.883,0,0a1.422,1.422,0,1,1-1.169-2.593l.012-.006,1.974-.868a1.412,1.412,0,0,1,1.149,2.58Z" transform="translate(-310.396 -364.959)" fill="#fff"/>
        <path id="Path_129" data-name="Path 129" d="M655.323,446.067l-1.948.9,0,0a1.456,1.456,0,1,1-1.225-2.642l.013-.006,1.965-.889a1.446,1.446,0,0,1,1.2,2.629Z" transform="translate(-307.809 -366.105)" fill="#fff"/>
        <path id="Path_130" data-name="Path 130" d="M646.262,450.272l-1.941.922h0a1.49,1.49,0,1,1-1.278-2.691l.012-.006,1.956-.907a1.48,1.48,0,0,1,1.258,2.679Z" transform="translate(-305.234 -367.277)" fill="#fff"/>
        <path id="Path_131" data-name="Path 131" d="M637.239,454.56l-1.933.939h0a1.524,1.524,0,1,1-1.331-2.741l.013-.006,1.948-.923a1.514,1.514,0,0,1,1.311,2.729Z" transform="translate(-302.669 -368.472)" fill="#fff"/>
        <path id="Path_132" data-name="Path 132" d="M628.251,458.923l-1.926.953a1.557,1.557,0,0,1-1.387-2.789l.016-.008,1.941-.938a1.547,1.547,0,0,1,1.357,2.781Z" transform="translate(-300.115 -369.688)" fill="#fff"/>
        <path id="Path_133" data-name="Path 133" d="M619.3,463.342l-1.923.961a1.568,1.568,0,1,1-1.407-2.8l.006,0,1.931-.957a1.565,1.565,0,0,1,1.392,2.8Z" transform="translate(-297.579 -370.929)" fill="#fff"/>
        <path id="Path_134" data-name="Path 134" d="M610.364,467.818l-1.915.971a1.58,1.58,0,1,1-1.432-2.816l.007,0,1.922-.967a1.576,1.576,0,0,1,1.418,2.816Z" transform="translate(-295.05 -372.188)" fill="#fff"/>
        <path id="Path_135" data-name="Path 135" d="M601.462,472.338l-1.913.981a1.591,1.591,0,0,1-1.456-2.829l.006,0,1.92-.977a1.587,1.587,0,0,1,1.443,2.828Z" transform="translate(-292.529 -373.461)" fill="#fff"/>
        <path id="Path_136" data-name="Path 136" d="M592.571,476.9l-1.91.989a1.6,1.6,0,0,1-1.477-2.843l.007,0,1.916-.986a1.6,1.6,0,0,1,1.465,2.842Z" transform="translate(-290.011 -374.746)" fill="#fff"/>
        <path id="Path_137" data-name="Path 137" d="M583.695,481.5l-1.91,1a1.613,1.613,0,0,1-1.5-2.859l.006,0,1.915-.992a1.61,1.61,0,0,1,1.484,2.857Z" transform="translate(-287.497 -376.041)" fill="#fff"/>
        <path id="Path_138" data-name="Path 138" d="M574.829,486.13l-1.905,1a1.624,1.624,0,0,1-1.511-2.876l0,0,1.91-.994a1.621,1.621,0,0,1,1.5,2.874Z" transform="translate(-284.987 -377.343)" fill="#fff"/>
        <path id="Path_139" data-name="Path 139" d="M565.972,490.771l-1.9,1a1.635,1.635,0,1,1-1.525-2.894l.005,0,1.908-1a1.632,1.632,0,0,1,1.516,2.891Z" transform="translate(-282.48 -378.649)" fill="#fff"/>
        <path id="Path_140" data-name="Path 140" d="M557.119,495.422l-1.9,1a1.647,1.647,0,0,1-1.535-2.913l.005,0,1.907-1a1.643,1.643,0,0,1,1.527,2.91Z" transform="translate(-279.973 -379.957)" fill="#fff"/>
        <path id="Path_141" data-name="Path 141" d="M548.264,500.075l-1.9,1a1.658,1.658,0,0,1-1.545-2.934l.005,0,1.908-1a1.655,1.655,0,0,1,1.537,2.931Z" transform="translate(-277.466 -381.266)" fill="#fff"/>
        <path id="Path_142" data-name="Path 142" d="M539.405,504.723l-1.906,1a1.669,1.669,0,0,1-1.551-2.956l.005,0,1.908-.994a1.666,1.666,0,0,1,1.544,2.952Z" transform="translate(-274.958 -382.573)" fill="#fff"/>
        <path id="Path_143" data-name="Path 143" d="M530.537,509.356l-1.909,1a1.68,1.68,0,0,1-1.555-2.979l.006,0,1.91-.989a1.677,1.677,0,0,1,1.548,2.974Z" transform="translate(-272.447 -383.876)" fill="#fff"/>
        <path id="Path_144" data-name="Path 144" d="M521.655,513.969l-1.913.991a1.691,1.691,0,1,1-1.556-3l.006,0,1.913-.984a1.688,1.688,0,0,1,1.549,3Z" transform="translate(-269.933 -385.173)" fill="#fff"/>
        <path id="Path_145" data-name="Path 145" d="M512.756,518.551l-1.917.984a1.7,1.7,0,0,1-1.555-3.03l.007,0,1.915-.975a1.7,1.7,0,0,1,1.549,3.025Z" transform="translate(-267.414 -386.461)" fill="#fff"/>
        <path id="Path_146" data-name="Path 146" d="M503.835,523.1l-1.922.974a1.714,1.714,0,1,1-1.55-3.057l.007,0,1.92-.966a1.71,1.71,0,0,1,1.545,3.052Z" transform="translate(-264.889 -387.739)" fill="#fff"/>
        <path id="Path_147" data-name="Path 147" d="M494.89,527.6l-1.928.963a1.725,1.725,0,1,1-1.542-3.086l.007,0,1.926-.955a1.722,1.722,0,0,1,1.537,3.081Z" transform="translate(-262.358 -389.003)" fill="#fff"/>
        <path id="Path_148" data-name="Path 148" d="M485.916,532.044l-1.935.951a1.736,1.736,0,0,1-1.532-3.116l.005,0h0l1.931-.942h0a1.733,1.733,0,0,1,1.524,3.112Z" transform="translate(-259.818 -390.253)" fill="#fff"/>
        <path id="Path_149" data-name="Path 149" d="M476.91,536.429l-1.943.936a1.747,1.747,0,1,1-1.517-3.147l.005,0,0,0,1.938-.927h0a1.744,1.744,0,0,1,1.51,3.144Z" transform="translate(-257.269 -391.484)" fill="#fff"/>
        <path id="Path_150" data-name="Path 150" d="M467.867,540.744l-1.951.921a1.758,1.758,0,1,1-1.5-3.18l.005,0,0,0,1.945-.91,0,0a1.755,1.755,0,0,1,1.493,3.177Z" transform="translate(-254.711 -392.696)" fill="#fff"/>
        <path id="Path_151" data-name="Path 151" d="M458.785,544.981l-1.96.9a1.769,1.769,0,0,1-1.48-3.215l.005,0,.005,0,1.953-.892,0,0a1.766,1.766,0,0,1,1.473,3.21Z" transform="translate(-252.142 -393.885)" fill="#fff"/>
        <path id="Path_152" data-name="Path 152" d="M449.662,549.131l-1.973.882a1.778,1.778,0,0,1-1.45-3.247h0l.005,0,1.964-.875.005,0a1.777,1.777,0,1,1,1.448,3.246Z" transform="translate(-249.562 -395.05)" fill="#fff"/>
        <path id="Path_153" data-name="Path 153" d="M440.491,553.177l-1.984.856a1.768,1.768,0,1,1-1.4-3.246h0l1.97-.857.006,0a1.771,1.771,0,0,1,1.412,3.248Z" transform="translate(-246.977 -396.194)" fill="#fff"/>
        <path id="Path_154" data-name="Path 154" d="M431.272,557.116l-1.994.832a1.758,1.758,0,0,1-1.353-3.245h0l1.979-.832.006,0a1.761,1.761,0,0,1,1.364,3.246Z" transform="translate(-244.378 -397.31)" fill="#fff"/>
        <path id="Path_155" data-name="Path 155" d="M422,560.941l-2,.806a1.748,1.748,0,0,1-1.3-3.243h0l1.989-.806.006,0a1.751,1.751,0,1,1,1.314,3.246Z" transform="translate(-241.765 -398.394)" fill="#fff"/>
        <path id="Path_156" data-name="Path 156" d="M412.681,564.643l-2.015.778a1.738,1.738,0,0,1-1.25-3.243h0l2-.778.006,0a1.74,1.74,0,1,1,1.262,3.244Z" transform="translate(-239.139 -399.443)" fill="#fff"/>
        <path id="Path_157" data-name="Path 157" d="M403.31,568.211l-2.027.747a1.727,1.727,0,1,1-1.2-3.241h0l2.009-.748.007,0a1.731,1.731,0,1,1,1.207,3.244Z" transform="translate(-236.498 -400.455)" fill="#fff"/>
        <path id="Path_158" data-name="Path 158" d="M393.884,571.637l-2.039.715a1.717,1.717,0,1,1-1.137-3.24h0l2.021-.715.008,0a1.72,1.72,0,0,1,1.149,3.243Z" transform="translate(-233.842 -401.426)" fill="#fff"/>
        <path id="Path_159" data-name="Path 159" d="M384.4,574.909l-2.053.679a1.707,1.707,0,1,1-1.073-3.241l.006,0,2.032-.678.009,0a1.71,1.71,0,1,1,1.083,3.245Z" transform="translate(-231.17 -402.353)" fill="#fff"/>
        <path id="Path_160" data-name="Path 160" d="M374.848,578l-2.069.635a1.7,1.7,0,0,1-1-3.245l.007,0,2.045-.633.011,0A1.7,1.7,0,0,1,374.853,578Z" transform="translate(-228.479 -403.229)" fill="#fff"/>
        <path id="Path_161" data-name="Path 161" d="M365.222,580.869l-2.087.582a1.687,1.687,0,1,1-.907-3.25l.009,0,2.057-.58.014,0a1.69,1.69,0,0,1,.918,3.253Z" transform="translate(-225.769 -404.042)" fill="#fff"/>
        <path id="Path_162" data-name="Path 162" d="M355.514,583.48l-2.1.521a1.677,1.677,0,1,1-.806-3.256l.011,0,2.073-.519.015,0a1.68,1.68,0,1,1,.816,3.26Z" transform="translate(-223.038 -404.782)" fill="#fff"/>
        <path id="Path_163" data-name="Path 163" d="M345.725,585.792l-2.123.451a1.667,1.667,0,0,1-.692-3.261l.014,0,2.086-.449.017,0a1.67,1.67,0,0,1,.7,3.266Z" transform="translate(-220.285 -405.437)" fill="#fff"/>
        <path id="Path_164" data-name="Path 164" d="M335.855,587.762l-2.14.37a1.657,1.657,0,1,1-.565-3.265l.015,0,2.1-.369.019,0a1.66,1.66,0,1,1,.575,3.27Z" transform="translate(-217.512 -405.996)" fill="#fff"/>
        <path id="Path_165" data-name="Path 165" d="M325.909,589.344l-2.156.281a1.647,1.647,0,1,1-.425-3.266l.017,0,2.112-.281.022,0a1.65,1.65,0,0,1,.435,3.271Z" transform="translate(-214.719 -406.446)" fill="#fff"/>
        <path id="Path_166" data-name="Path 166" d="M315.9,590.494l-2.167.18a1.637,1.637,0,1,1-.272-3.262l.019,0,2.118-.182.024,0a1.64,1.64,0,0,1,.282,3.268Z" transform="translate(-211.913 -406.774)" fill="#fff"/>
        <path id="Path_167" data-name="Path 167" d="M305.846,591.164l-2.174.071a1.627,1.627,0,0,1-.106-3.252h.022l2.123-.075h.025a1.63,1.63,0,0,1,.115,3.258Z" transform="translate(-209.096 -406.968)" fill="#fff"/>
        <path id="Path_168" data-name="Path 168" d="M295.767,591.294l-2.179-.048a1.617,1.617,0,0,1,.072-3.233h.023l2.124.041h.027a1.62,1.62,0,1,1-.062,3.239Z" transform="translate(-206.274 -406.999)" fill="#fff"/>
        <path id="Path_169" data-name="Path 169" d="M285.687,590.819l-2.175-.182a1.607,1.607,0,1,1,.267-3.2l.027,0,2.114.171.031,0a1.61,1.61,0,1,1-.258,3.21Z" transform="translate(-203.457 -406.834)" fill="#fff"/>
        <path id="Path_170" data-name="Path 170" d="M275.651,589.7l-2.16-.322a1.6,1.6,0,0,1,.471-3.159l.027,0,2.1.307.031,0a1.6,1.6,0,0,1-.463,3.166Z" transform="translate(-200.657 -406.488)" fill="#fff"/>
        <path id="Path_171" data-name="Path 171" d="M265.707,587.934l-2.134-.465a1.587,1.587,0,0,1,.676-3.1l.027.006,2.073.446.032.006a1.59,1.59,0,0,1-.669,3.108Z" transform="translate(-197.885 -405.958)" fill="#fff"/>
        <path id="Path_172" data-name="Path 172" d="M255.9,585.5l-2.1-.612a1.576,1.576,0,0,1,.882-3.027l.028.008,2.036.588.032.009a1.58,1.58,0,0,1-.876,3.035Z" transform="translate(-195.157 -405.241)" fill="#fff"/>
        <path id="Path_173" data-name="Path 173" d="M246.291,582.373l-2.05-.763a1.567,1.567,0,0,1,1.093-2.936l.029.011,1.986.732.033.012a1.569,1.569,0,0,1-1.086,2.945Z" transform="translate(-192.487 -404.331)" fill="#fff"/>
        <path id="Path_174" data-name="Path 174" d="M236.934,578.543l-1.987-.92a1.555,1.555,0,0,1,1.306-2.822l.028.013,1.923.88.034.016a1.559,1.559,0,0,1-1.3,2.835Z" transform="translate(-189.894 -403.224)" fill="#fff"/>
        <path id="Path_175" data-name="Path 175" d="M227.916,573.979l-1.907-1.084a1.525,1.525,0,0,1,1.5-2.657l.034.019,1.848,1.031.034.019a1.534,1.534,0,1,1-1.494,2.679Z" transform="translate(-187.405 -401.921)" fill="#fff"/>
        <path id="Path_176" data-name="Path 176" d="M219.312,568.669l-1.8-1.244a1.494,1.494,0,0,1,1.686-2.466l.034.023,1.745,1.183.033.022a1.5,1.5,0,0,1-1.687,2.489Z" transform="translate(-185.039 -400.411)" fill="#fff"/>
        <path id="Path_177" data-name="Path 177" d="M211.214,562.61l-1.683-1.408a1.464,1.464,0,0,1,1.868-2.254l.033.027,1.63,1.34.032.027a1.473,1.473,0,0,1-1.87,2.276Z" transform="translate(-182.818 -398.691)" fill="#fff"/>
        <path id="Path_178" data-name="Path 178" d="M203.722,555.807l-1.537-1.562a1.433,1.433,0,0,1,2.035-2.019l.031.031,1.489,1.489.03.029a1.443,1.443,0,0,1-2.04,2.04Z" transform="translate(-180.774 -396.767)" fill="#fff"/>
        <path id="Path_179" data-name="Path 179" d="M196.941,548.294l-1.372-1.714a1.4,1.4,0,0,1,2.182-1.763l.027.034,1.332,1.634.028.034a1.412,1.412,0,0,1-2.19,1.784Z" transform="translate(-178.934 -394.646)" fill="#fff"/>
        <path id="Path_180" data-name="Path 180" d="M190.962,540.128l-1.191-1.842a1.372,1.372,0,0,1,2.3-1.5l.023.034,1.161,1.763.022.034a1.381,1.381,0,1,1-2.307,1.52Z" transform="translate(-177.32 -392.348)" fill="#fff"/>
        <path id="Path_181" data-name="Path 181" d="M185.83,531.415l-1.006-1.946a1.342,1.342,0,0,1,2.38-1.242l.018.034.986,1.87.018.034a1.351,1.351,0,0,1-2.39,1.26Z" transform="translate(-175.942 -389.901)" fill="#fff"/>
        <path id="Path_182" data-name="Path 182" d="M181.555,522.26l-.82-2.028a1.312,1.312,0,0,1,2.428-.994l.014.034.81,1.955.014.033a1.321,1.321,0,1,1-2.441,1.011Z" transform="translate(-174.802 -387.334)" fill="#fff"/>
        <path id="Path_183" data-name="Path 183" d="M178.132,512.762l-.638-2.09a1.281,1.281,0,0,1,2.448-.758l.01.032.636,2.021.009.032a1.29,1.29,0,1,1-2.462.773Z" transform="translate(-173.897 -384.674)" fill="#fff"/>
        <path id="Path_184" data-name="Path 184" d="M175.54,503.011l-.461-2.134a1.251,1.251,0,0,1,2.443-.538l.007.03.464,2.07.007.03a1.26,1.26,0,0,1-2.459.552Z" transform="translate(-173.222 -381.946)" fill="#fff"/>
        <path id="Path_185" data-name="Path 185" d="M173.758,493.086l-.288-2.162a1.22,1.22,0,0,1,2.418-.334l0,.029.3,2.1,0,.029a1.23,1.23,0,1,1-2.435.346Z" transform="translate(-172.772 -379.171)" fill="#fff"/>
        <path id="Path_186" data-name="Path 186" d="M172.758,483.059l-.122-2.173a1.19,1.19,0,0,1,2.376-.144v.027l.137,2.118,0,.027a1.2,1.2,0,0,1-2.394.155Z" transform="translate(-172.539 -376.369)" fill="#fff"/>
        <path id="Path_187" data-name="Path 187" d="M172.5,472.99l.039-2.18a1.16,1.16,0,0,1,2.319.032v.026L174.84,473v.026A1.169,1.169,0,0,1,172.5,473Z" transform="translate(-172.502 -373.555)" fill="#fff"/>
        <path id="Path_188" data-name="Path 188" d="M172.938,462.929l.2-2.168a1.129,1.129,0,0,1,2.25.194l0,.024-.174,2.121,0,.024a1.139,1.139,0,1,1-2.27-.186Z" transform="translate(-172.624 -370.747)" fill="#fff"/>
        <path id="Path_189" data-name="Path 189" d="M174.1,452.935l.351-2.147a1.1,1.1,0,0,1,2.17.344l0,.024-.325,2.1,0,.024a1.108,1.108,0,0,1-2.191-.339Z" transform="translate(-172.949 -367.958)" fill="#fff"/>
        <path id="Path_190" data-name="Path 190" d="M175.972,443.055l.5-2.116a1.068,1.068,0,0,1,2.08.485l-.005.024-.476,2.075-.005.023a1.078,1.078,0,0,1-2.1-.481Z" transform="translate(-173.474 -365.204)" fill="#fff"/>
        <path id="Path_191" data-name="Path 191" d="M178.574,433.352l.66-2.07a1.019,1.019,0,0,1,1.946.605l-.006.02-.619,2.039-.006.021a1.034,1.034,0,0,1-1.979-.6Z" transform="translate(-174.204 -362.506)" fill="#fff"/>
        <path id="Path_192" data-name="Path 192" d="M181.848,423.867l.791-2.022a.969.969,0,0,1,1.809.692l-.006.018-.749,2-.006.017a.984.984,0,0,1-1.843-.691Z" transform="translate(-175.124 -359.866)" fill="#fff"/>
        <path id="Path_193" data-name="Path 193" d="M185.713,414.613l.911-1.968a.919.919,0,0,1,1.674.76l-.007.016-.87,1.951-.006.015a.935.935,0,0,1-1.707-.762Z" transform="translate(-176.211 -357.289)" fill="#fff"/>
        <path id="Path_194" data-name="Path 194" d="M190.124,405.613l1.023-1.91a.869.869,0,0,1,1.539.809l-.007.014-.982,1.9-.007.014a.885.885,0,0,1-1.571-.814Z" transform="translate(-177.452 -354.783)" fill="#fff"/>
        <path id="Path_195" data-name="Path 195" d="M195.039,396.882l1.125-1.85a.82.82,0,0,1,1.407.842l-.006.012-1.086,1.842-.006.012a.835.835,0,0,1-1.438-.847Z" transform="translate(-178.837 -352.351)" fill="#fff"/>
        <path id="Path_196" data-name="Path 196" d="M200.414,388.432l1.218-1.788a.77.77,0,0,1,1.279.857l-.007.01-1.179,1.786-.006.01a.785.785,0,0,1-1.31-.865Z" transform="translate(-180.352 -349.997)" fill="#fff"/>
        <path id="Path_197" data-name="Path 197" d="M206.208,380.266l1.3-1.727a.72.72,0,0,1,1.156.859l-.006.009-1.266,1.728-.006.008a.735.735,0,0,1-1.186-.869Z" transform="translate(-181.985 -347.721)" fill="#fff"/>
        <path id="Path_198" data-name="Path 198" d="M212.379,372.385l1.375-1.663a.671.671,0,0,1,1.04.847l-.006.007-1.342,1.668-.005.007a.686.686,0,0,1-1.068-.86Z" transform="translate(-183.727 -345.524)" fill="#fff"/>
        <path id="Path_199" data-name="Path 199" d="M218.886,364.792l1.446-1.6a.621.621,0,0,1,.928.824l-.005.006-1.414,1.613-.005.006a.636.636,0,0,1-.956-.838Z" transform="translate(-185.564 -343.405)" fill="#fff"/>
        <path id="Path_200" data-name="Path 200" d="M225.705,357.47l1.512-1.545a.567.567,0,0,1,.818.786l0,.006-1.477,1.56,0,.005a.586.586,0,0,1-.852-.8Z" transform="translate(-187.49 -341.363)" fill="#fff"/>
        <path id="Path_201" data-name="Path 201" d="M232.823,350.434l1.567-1.484a.5.5,0,0,1,.7.72l0,0-1.532,1.505,0,0a.521.521,0,1,1-.73-.743Z" transform="translate(-189.502 -339.401)" fill="#fff"/>
        <path id="Path_202" data-name="Path 202" d="M240.19,343.666l1.617-1.428a.434.434,0,0,1,.581.646l0,0-1.584,1.451,0,0a.454.454,0,1,1-.614-.669Z" transform="translate(-191.587 -337.513)" fill="#fff"/>
        <path id="Path_203" data-name="Path 203" d="M247.788,337.151l1.663-1.373a.368.368,0,0,1,.471.565l-1.632,1.4,0,0a.387.387,0,1,1-.5-.588Z" transform="translate(-193.738 -335.694)" fill="#fff"/>
      </g>
      <g id="Group_47" data-name="Group 47" transform="translate(44.738)">
        <path id="Path_204" data-name="Path 204" d="M254.6,316.462l2.991,12.51,7.187-7.4Z" transform="translate(-240.441 -295.83)" fill="url(#linear-gradient-18)"/>
        <path id="Path_205" data-name="Path 205" d="M303.565,287.7l-26.7,37.713a3.255,3.255,0,0,1-4.637.7l-36.855-28.233a1.305,1.305,0,0,1,.643-2.332Z" transform="translate(-234.862 -287.702)" fill="url(#linear-gradient-19)"/>
        <path id="Path_206" data-name="Path 206" d="M254.61,308.335,309.145,287.7l-48.6,25.208.682,3.5Z" transform="translate(-240.443 -287.702)" fill="url(#linear-gradient-20)"/>
        <path id="Path_207" data-name="Path 207" d="M265.258,325.526l-6.485,5.249,2.947-7.935Z" transform="translate(-241.62 -297.632)" fill="url(#linear-gradient-21)"/>
      </g>
    </g>
    <g id="Group_55" data-name="Group 55" transform="translate(276.218 232.072)">
      <g id="Group_54" data-name="Group 54">
        <g id="Group_53" data-name="Group 53">
          <g id="Group_49" data-name="Group 49" transform="translate(84.837)">
            <path id="Path_208" data-name="Path 208" d="M667.293,380.5H480.421c-5.959,0-10.79-2.268-10.79-5.066V290.717c0-2.793,4.813-5.058,10.761-5.066l188.366-.237c5.993-.008,10.851,2.279,10.818,5.092l-1.494,84.953C678.051,378.247,673.23,380.5,667.293,380.5Z" transform="translate(-469.631 -285.414)" fill="url(#linear-gradient-22)"/>
            <path id="Path_209" data-name="Path 209" d="M662.284,294.452l-167.094.483c-6.04.017-10.908,2.329-10.88,5.164l1.166,71.251c.027,2.793,4.8,5.064,10.748,5.115l162.353,1.391c6.064.052,11.062-2.22,11.146-5.068l3.576-73.124C673.384,296.785,668.417,294.434,662.284,294.452Z" transform="translate(-473.779 -287.968)" fill="#fff" opacity="0.6"/>
            <path id="Path_210" data-name="Path 210" d="M669.626,303.057v.541c0,.849-1.466,1.537-3.275,1.537H537.606c-1.809,0-3.275-.688-3.275-1.537v-.541c0-.849,1.466-1.538,3.275-1.538H666.351C668.16,301.519,669.626,302.208,669.626,303.057Z" transform="translate(-487.915 -289.965)" fill="#fff" opacity="0.6"/>
            <path id="Path_211" data-name="Path 211" d="M655.967,312.507h0c-.093.8-1.494,1.439-3.211,1.454l-112.594.963c-1.832.016-3.335-.677-3.335-1.537v-.126c0-.84,1.435-1.525,3.223-1.538l112.594-.838C654.543,310.872,656.069,311.617,655.967,312.507Z" transform="translate(-488.62 -292.612)" fill="#fff" opacity="0.6"/>
            <path id="Path_212" data-name="Path 212" d="M655.318,381.916H655.2l-152.289-.857c-3.443-.019-6.523-1.017-8.039-2.6a3.547,3.547,0,0,1-1.071-2.611l3.921-50.354c.113-2.822,4.156-4.936,9.373-4.906l152.024,1.39c3.417.032,6.474,1.029,7.977,2.6a3.55,3.55,0,0,1,1.07,2.6c0,.016,0,.034,0,.051L664.507,377C664.416,379.426,661.229,381.916,655.318,381.916Zm-148.4-58.463c-3.88,0-6.305,1.418-6.337,2.207l-3.922,50.355c0,.13.175.346.283.459.8.841,2.964,1.7,5.979,1.716l152.289.857h.091c3.883,0,6.308-1.422,6.338-2.206l3.653-49.785a.9.9,0,0,0-.278-.5c-.8-.834-2.938-1.689-5.927-1.716l-152.024-1.39Zm159.809,3.672h0Z" transform="translate(-476.46 -295.353)" fill="#fff"/>
            <path id="Path_213" data-name="Path 213" d="M666.2,336.982H500.35a1.435,1.435,0,0,1,0-2.87H666.2a1.435,1.435,0,1,1,0,2.87Z" transform="translate(-477.907 -299.176)" fill="#fff"/>
          </g>
          <path id="Path_214" data-name="Path 214" d="M422.929,697.448c5.608.258,11.036.1,14.661-.09-3.3-2.349-10.9-7.46-17.264-9.494l-4.367-.261s-1.48,2.251-2.008,7.4C414.675,695.906,416.79,697.165,422.929,697.448Z" transform="translate(-369.059 -399.071)" fill="url(#linear-gradient-23)"/>
          <path id="Path_215" data-name="Path 215" d="M366.122,696.047c-.411-2.633-1.07-6.439-1.578-7.412-.8-1.527-3.531,0-3.531,0a7.258,7.258,0,0,0-2.8,2.385c-.562.951-2.119,3.655-3.174,5.491a1.237,1.237,0,0,0-.166.654l10.943.383A2.186,2.186,0,0,0,366.122,696.047Z" transform="translate(-352.363 -399.171)" fill="url(#linear-gradient-24)"/>
          <path id="Path_216" data-name="Path 216" d="M368.837,676.166c-.094.316-1.508,7.17-2.127,10.179a1.719,1.719,0,0,1-1.768,1.373c-.463-.024-1-.065-1.567-.138a2.073,2.073,0,0,1-1.8-1.976c-.1-2.635-.149-7.694.818-9.655C363.724,673.243,368.837,676.166,368.837,676.166Z" transform="translate(-354.242 -395.453)" fill="url(#linear-gradient-25)"/>
          <path id="Path_217" data-name="Path 217" d="M415.552,678.581c.607-.019-.242,3.131.676,6.228a1.593,1.593,0,0,0,1.458,1.255c.472.006,1.031,0,1.6-.048a1.76,1.76,0,0,0,1.62-1.585l.746-8.031Z" transform="translate(-369.512 -395.906)" fill="url(#linear-gradient-26)"/>
          <path id="Path_218" data-name="Path 218" d="M417.139,558.9c-.27,1.317-9.825,57.043-10.4,85.878a.981.981,0,0,1-.844.956,19.273,19.273,0,0,1-5.865-.038.691.691,0,0,1-.57-.635c-.334-5.373-3.02-50.806.269-72.194,0,0-27.164,57.171-31.282,72.936a.829.829,0,0,1-.848.621,20.555,20.555,0,0,1-5.5-.978,1.439,1.439,0,0,1-.907-1.69c2.3-9.435,18.424-74.434,29.371-88.756Z" transform="translate(-354.136 -361.598)" fill="#283357"/>
          <path id="Path_219" data-name="Path 219" d="M414.783,578.654a.357.357,0,0,1-.255-.606l3.637-3.72a.357.357,0,0,1,.51.5l-3.637,3.72A.356.356,0,0,1,414.783,578.654Z" transform="translate(-369.194 -367.03)" fill="url(#linear-gradient-27)"/>
          <path id="Path_220" data-name="Path 220" d="M465.105,460.869a34.481,34.481,0,0,1-18.066.044c-7.95-2.085-23.62-5.533-34.292-3.611l-.886,27.918,36.478,4.17.327-7.412s22.178-3.2,34.173-17.783a59.394,59.394,0,0,1-6.7-9.081A28.671,28.671,0,0,1,465.105,460.869Z" transform="translate(-368.469 -333.37)" fill="#dc231f"/>
          <path id="Path_221" data-name="Path 221" d="M514.6,424.3l-2.814-1.235s.14,14.05-10.33,22.993a59.393,59.393,0,0,0,6.7,9.081C514.074,447.949,517.514,438,514.6,424.3Z" transform="translate(-393.789 -324.313)" fill="url(#linear-gradient-28)"/>
          <path id="Path_222" data-name="Path 222" d="M436.5,436.538s-2.118,12.636-2.4,16.606c0,0,10.227,2.825,12.9,1.311l-.334-15.286Z" transform="translate(-374.753 -328.121)" fill="url(#linear-gradient-29)"/>
          <g id="Group_50" data-name="Group 50" transform="translate(0 145.684)">
            <path id="Path_223" data-name="Path 223" d="M355.05,489.09l90.132-.6a3.7,3.7,0,0,1,3.723,3.727L448.527,542a3.7,3.7,0,0,1-3.811,3.67l-89.155-2.68a3.7,3.7,0,0,1-3.588-3.65l-.6-46.5A3.7,3.7,0,0,1,355.05,489.09Z" transform="translate(-351.376 -488.485)" fill="url(#linear-gradient-30)"/>
            <path id="Path_224" data-name="Path 224" d="M446.011,543.85l-89.18-2.68a.7.7,0,0,1-.681-.692l-.6-46.5a.7.7,0,0,1,.7-.711l90.132-.605a.7.7,0,0,1,.706.707l-.379,49.783A.7.7,0,0,1,446.011,543.85Zm-89.143-3.4,89.154,2.68.35-49.768-90.116.621Z" transform="translate(-352.556 -489.665)" fill="#fff"/>
            <path id="Path_225" data-name="Path 225" d="M363.744,500.3h0c0,1.606.936,2.907,2.088,2.907h76.661c1.154,0,2.088-1.3,2.088-2.907h0c0-1.606-.935-2.907-2.088-2.907H365.832C364.68,497.4,363.744,498.7,363.744,500.3Z" transform="translate(-354.871 -491.003)" fill="#fff"/>
            <path id="Path_226" data-name="Path 226" d="M363.453,511.5h32.276a2.069,2.069,0,0,1,2.069,2.069v26.648a2.069,2.069,0,0,1-2.126,2.068l-31.615-.877a2.069,2.069,0,0,1-2.011-2.015l-.661-25.771A2.069,2.069,0,0,1,363.453,511.5Z" transform="translate(-354.204 -494.988)" fill="#fff"/>
            <path id="Path_227" data-name="Path 227" d="M420.971,512.411H457a1.607,1.607,0,0,1,1.42,1.743h0A1.607,1.607,0,0,1,457,515.9H420.971a1.607,1.607,0,0,1-1.419-1.743h0A1.607,1.607,0,0,1,420.971,512.411Z" transform="translate(-370.642 -495.246)" fill="#fff"/>
            <path id="Path_228" data-name="Path 228" d="M419.552,524.138h0a1.6,1.6,0,0,0,1.417,1.74H457a1.6,1.6,0,0,0,1.417-1.74v-1.075a1.593,1.593,0,0,0-1.451-1.74L420.934,522.4A1.614,1.614,0,0,0,419.552,524.138Z" transform="translate(-370.642 -497.765)" fill="#fff"/>
          </g>
          <path id="Path_229" data-name="Path 229" d="M412.446,473.231l-8.952-15.067S384.774,474.2,379.113,496.5l9.929,6.238C393.115,495.464,400.213,485.776,412.446,473.231Z" transform="translate(-359.214 -334.233)" fill="#dc231f"/>
          <path id="Path_230" data-name="Path 230" d="M392.233,550.934a2.43,2.43,0,0,1-2.158-1.413,61.174,61.174,0,0,0-4.052-7.767,5.071,5.071,0,0,1,3.183-.088c2.035.476,3.758-.357,3.818-1.486l-9.516-4.078c-.342-.972-1.725-6.423,4.9-18.259l-9.929-6.239a47.473,47.473,0,0,0,.8,27.169s1.872,10.9,5.662,13.1,9.554-.895,9.554-.895Z" transform="translate(-358.582 -349.335)" fill="url(#linear-gradient-25)"/>
          <g id="Group_51" data-name="Group 51" transform="translate(53.505 88.241)">
            <path id="Path_231" data-name="Path 231" d="M448.094,420.3s3.4,7.81,3.628,11.909,1.112,6.759-3.628,7.584-8.732-1.535-10.9-5.619c0,0-3.388-6.292-2.629-8.868S448.094,420.3,448.094,420.3Z" transform="translate(-428.36 -411.774)" fill="url(#linear-gradient-32)"/>
            <path id="Path_232" data-name="Path 232" d="M436.416,427.882h.6s-2.469-5.063-.3-5.953,10.761-2.642,12.615-5.69a5.669,5.669,0,0,0-2.191-7.8.319.319,0,0,0-.406.149l-.2.374a.321.321,0,0,1-.593-.061h0a.321.321,0,0,0-.578-.088c-.567.912-2.1,2.395-6.225,3.155-5.848,1.08-9.714,3.446-9.809,7.487a.322.322,0,0,1-.5.264c-.432-.263-1.123-.387-2.046.39-1.606,1.35-.948,4.853,2.572,7.734a.32.32,0,0,1-.016.517c-.638.415-1.589,1.4.876,2.721,2.522,1.348,4.014,1.2,4.577,1.057a.322.322,0,0,0,.243-.333l-.221-3.582a.322.322,0,0,1,.321-.341Z" transform="translate(-425.957 -408.414)" fill="url(#linear-gradient-33)"/>
            <path id="Path_233" data-name="Path 233" d="M439.059,435.083s-1.3-4.989-3.533-3.59,1.161,5.589,2.959,5.776Z" transform="translate(-428.453 -414.866)" fill="url(#linear-gradient-34)"/>
          </g>
          <path id="Path_234" data-name="Path 234" d="M505.04,408.455V414.1s4.594,5.843,10.574,6.073c0,0,5.268-.346,5.089-4.248l-8.425-1.61a40.48,40.48,0,0,1-4.525-1.578S507.026,408.634,505.04,408.455Z" transform="translate(-394.801 -320.185)" fill="url(#linear-gradient-35)"/>
          <g id="Group_52" data-name="Group 52" transform="translate(218.933 82.597)">
            <path id="Path_235" data-name="Path 235" d="M720.637,415.338s-21.423,27.428,3.019,55.325l9.189-.856s-17.689-28.4-9.81-51.043l13.017.95,7.2-4.692Z" transform="translate(-672.206 -404.637)" fill="url(#linear-gradient-36)"/>
            <path id="Path_236" data-name="Path 236" d="M740.413,599.8s17.358,37.83,26.464,53.5c0,0,1.809,9.859,0,12.96l-1.542.685,7.194-.214s.638-13.261.14-14a1.831,1.831,0,0,0-1.5-.692s-3.085-24.438-12.018-29.654L750.5,592.56Z" transform="translate(-680.249 -454.809)" fill="url(#linear-gradient-25)"/>
            <path id="Path_237" data-name="Path 237" d="M770.87,692.2c-.011.174,5.618.094,8.675.038a2.432,2.432,0,0,0,2.332-1.917l2.309-12.13a2.181,2.181,0,0,0-1.656-2.534l-1.289-.295s-1.839,2.522-1.26,4.9,1.093,8.525-.369,9.242-5.67.842-5.67.842S770.966,690.636,770.87,692.2Z" transform="translate(-688.856 -478.208)" fill="url(#linear-gradient-38)"/>
            <path id="Path_238" data-name="Path 238" d="M717.355,696.647a.635.635,0,0,0,.32,1.187c5.116-.052,16.581-.213,17.6-.637,1.315-.547-.479-5.273-2.368-6.873l-10.428,3.4Z" transform="translate(-673.642 -482.437)" fill="url(#linear-gradient-39)"/>
            <path id="Path_239" data-name="Path 239" d="M712.969,599.286s11.217,54.261,14.39,64.846l-7.506,4.711s3.762-.64,6.551-.842,5.355-3.4,5.355-3.4l-.9-1.434s-2.813-53.966-2.129-60.094Z" transform="translate(-672.494 -456.71)" fill="url(#linear-gradient-25)"/>
            <path id="Path_240" data-name="Path 240" d="M669.182,416.557s-1.547,28.226,24.151,42.65l-6.187,14.111s-23.267-14.073-22.406-52.455a4.46,4.46,0,0,0-1.093-3.005l-4.944-5.737a8.874,8.874,0,0,1-1.888-7.95l.651-2.6a1.349,1.349,0,0,1,1.986-.839l.517.3a9.076,9.076,0,0,1,3.728,4.143l2.428,5.428a5.217,5.217,0,0,0,5.21,3.068l1.5-.13Z" transform="translate(-656.55 -400.547)" fill="url(#linear-gradient-25)"/>
            <path id="Path_241" data-name="Path 241" d="M704.133,479.347c4.3,1.192,18.865,5.024,27.958,4.868l-5.583,31.5.444,5.139-18.2-.082s-5.124-11.9-9.167-17.833c-1.167-1.713-.3-3.757.363-5.723l-.909-.6a2.476,2.476,0,0,1-.981-2.83l4.433-13.562A1.354,1.354,0,0,1,704.133,479.347Z" transform="translate(-668.245 -422.801)" fill="#dc231f"/>
            <path id="Path_242" data-name="Path 242" d="M710.458,533.119l.358,3.114s-5.144,15.4,2.573,51.385c0,0,16.711,4.734,30.446-6.594,0,0-3.875-33.96-4.933-35.542-5.271-7.879-8.782-9.592-8.782-9.592l-.158-3.4S715.27,535.145,710.458,533.119Z" transform="translate(-671.411 -437.833)" fill="#dc231f"/>
            <path id="Path_243" data-name="Path 243" d="M720.91,478.31c-.064-.085,3.8-11.666,3.8-11.666l5.535.5,2.162,13.139S723.733,482.036,720.91,478.31Z" transform="translate(-674.738 -419.226)" fill="url(#linear-gradient-25)"/>
            <path id="Path_244" data-name="Path 244" d="M728.25,440.962c-.369.23-11.827,4.965-9.365,16.861a2.236,2.236,0,0,0,1.27,1.591,19.421,19.421,0,0,0,9.631,1.594c6-.611,9.936-11.085,9.769-14.133S731.908,438.685,728.25,440.962Z" transform="translate(-674.068 -411.808)" fill="url(#linear-gradient-43)"/>
            <path id="Path_245" data-name="Path 245" d="M732.424,434.63c-.3.039-6.621,2.24-3.487,6.82s4.31,7.276,2.828,9.287c-1.351,1.832-4.342.788-4.081,4.6a2.14,2.14,0,0,1-.911,1.933c-2.819,1.908-9.7,7.783-2.883,16.16a2.135,2.135,0,0,1,.241,2.387c-2,3.58-6.189,14.068,8.99,19.886,15,5.749,20.414-4.055,21.928-7.975a2.091,2.091,0,0,1,2.069-1.324c1.649.077,3.984-.2,3.877-2.4a5.5,5.5,0,0,0-1.887-3.5,2.09,2.09,0,0,1,.4-3.291,4.093,4.093,0,0,0,2.022-2.542c.909-3.368-.906-13.44-10.56-15.147a2.278,2.278,0,0,1-1.766-1.706l-.006-.037a2.087,2.087,0,0,1,.775-2.052,5.419,5.419,0,0,0,1.913-7.059A7.912,7.912,0,0,0,745.7,444a2.1,2.1,0,0,1-1.723-2.513C744.666,438.262,744.069,433.1,732.424,434.63Z" transform="translate(-674.755 -410.101)" fill="url(#linear-gradient-44)"/>
          </g>
        </g>
        <path id="Path_246" data-name="Path 246" d="M437.464,700.378l-.045-.032c-3.624.187-9.053.349-14.661.09-6.14-.283-8.254-1.542-8.978-2.444-.024.237-.049.473-.07.722a2.044,2.044,0,0,0,1.879,2.207c4.593.347,15.981,1.134,21.473.846A.766.766,0,0,0,437.464,700.378Z" transform="translate(-368.989 -402.007)" fill="url(#linear-gradient-45)"/>
      </g>
      <path id="Path_247" data-name="Path 247" d="M354.872,700.772a1.247,1.247,0,0,0,1.212,1.211l7.8.214a2.2,2.2,0,0,0,1.934-1.042Z" transform="translate(-352.364 -402.793)" fill="url(#linear-gradient-46)"/>
    </g>
    <g id="Group_16" data-name="Group 16" transform="translate(636.302 243.162)">
      <path id="Path_40" data-name="Path 40" d="M853.3,307.154l.586,31.946c.045,3.371,2.251,6.074,4.957,6.074h112.48c2.738,0,4.957-2.766,4.957-6.177V309.83c0-3.334-2.123-6.066-4.8-6.173L858.42,300.876C855.588,300.762,853.255,303.623,853.3,307.154Z" transform="translate(-853.302 -300.872)" fill="url(#linear-gradient-47)"/>
      <path id="Path_41" data-name="Path 41" d="M861.189,314.353l1.483,28.457a2.558,2.558,0,0,0,2.313,2.7l106.369-1.365a2.615,2.615,0,0,0,2.235-2.834V318.153a2.637,2.637,0,0,0-2.163-2.831l-107.852-3.931C862.234,311.307,861.127,312.682,861.189,314.353Z" transform="translate(-855.53 -303.844)" fill="#fff" opacity="0.6"/>
      <path id="Path_42" data-name="Path 42" d="M868.108,320.023V322.9a1.658,1.658,0,0,0,1.479,1.814L967.4,323.62a1.672,1.672,0,0,0,1.432-1.814h0a1.677,1.677,0,0,0-1.417-1.814L869.6,318.21A1.653,1.653,0,0,0,868.108,320.023Z" transform="translate(-857.486 -305.772)" fill="#fff" opacity="0.6"/>
      <path id="Path_43" data-name="Path 43" d="M869.225,335v2.636a1.649,1.649,0,0,0,1.507,1.813l95.259-2.22a1.68,1.68,0,0,0,1.405-1.812v-.822a1.662,1.662,0,0,0-1.465-1.814l-95.259.4A1.668,1.668,0,0,0,869.225,335Z" transform="translate(-857.802 -309.889)" fill="#fff" opacity="0.6"/>
    </g>
  </g>
</svg>
