<svg width="62" height="55" viewBox="0 0 62 55" fill="none" xmlns="http://www.w3.org/2000/svg">
<path d="M57.263 48.0192C57.263 48.95 50.3694 49.7115 41.9111 49.7115C33.4527 49.7115 26.5591 48.95 26.5591 48.0192C26.5591 47.0884 33.4527 46.3269 41.9111 46.3269C50.3694 46.3269 57.263 47.0884 57.263 48.0192Z" fill="white"/>
<path d="M57.0936 48.0192C57.0936 48.95 50.2846 49.7115 41.9108 49.7115C33.537 49.7115 26.728 48.95 26.728 48.0192C26.728 47.0884 33.537 46.3269 41.9108 46.3269C50.2846 46.3692 57.0936 47.0884 57.0936 48.0192Z" fill="#FDFEFD"/>
<path d="M56.8826 48.0192C56.8826 48.95 50.2005 49.6692 41.9113 49.6692C33.6644 49.6692 26.9399 48.95 26.9399 48.0192C26.9399 47.0884 33.6221 46.3692 41.9113 46.3692C50.1582 46.3692 56.8826 47.0884 56.8826 48.0192Z" fill="#FCFCFC"/>
<path d="M56.6712 48.0192C56.6712 48.9077 50.0736 49.6692 41.9113 49.6692C33.7489 49.6692 27.1514 48.95 27.1514 48.0192C27.1514 47.1307 33.7489 46.3692 41.9113 46.3692C50.0736 46.3692 56.6712 47.1307 56.6712 48.0192Z" fill="#FAFBFB"/>
<path d="M56.4595 48.0192C56.4595 48.9077 49.9465 49.6269 41.8687 49.6269C33.8333 49.6269 27.3203 48.9077 27.3203 48.0192C27.3203 47.1307 33.8333 46.4115 41.8687 46.4115C49.9465 46.4115 56.4595 47.1307 56.4595 48.0192Z" fill="#F9FAF9"/>
<path d="M56.2903 48.0192C56.2903 48.9077 49.8619 49.6269 41.911 49.6269C33.9601 49.6269 27.5317 48.9077 27.5317 48.0192C27.5317 47.1307 33.9601 46.4115 41.911 46.4115C49.8619 46.4115 56.2903 47.1307 56.2903 48.0192Z" fill="#F8F9F8"/>
<path d="M56.0788 47.9769C56.0788 48.823 49.735 49.5423 41.911 49.5423C34.087 49.5423 27.7432 48.823 27.7432 47.9769C27.7432 47.1307 34.087 46.4115 41.911 46.4115C49.735 46.4115 56.0788 47.1307 56.0788 47.9769Z" fill="#F6F8F7"/>
<path d="M55.8673 47.9769C55.8673 48.8231 49.6081 49.5423 41.9109 49.5423C34.2138 49.5423 27.9546 48.8654 27.9546 47.9769C27.9546 47.1308 34.2138 46.4539 41.9109 46.4539C49.6081 46.4539 55.8673 47.1308 55.8673 47.9769Z" fill="#F5F7F6"/>
<path d="M55.6984 47.9769C55.6984 48.8231 49.5238 49.5 41.9112 49.5C34.2986 49.5 28.124 48.8231 28.124 47.9769C28.124 47.1308 34.2986 46.4539 41.9112 46.4539C49.5238 46.4539 55.6984 47.1308 55.6984 47.9769Z" fill="#F4F6F5"/>
<path d="M55.4869 47.9769C55.4869 48.8231 49.3968 49.4577 41.9112 49.4577C34.4255 49.4577 28.3354 48.7808 28.3354 47.9769C28.3354 47.1308 34.4255 46.4961 41.9112 46.4961C49.3968 46.4538 55.4869 47.1308 55.4869 47.9769Z" fill="#F3F5F4"/>
<path d="M55.2754 47.9769C55.2754 48.7808 49.2699 49.4577 41.9111 49.4577C34.51 49.4577 28.5469 48.7808 28.5469 47.9769C28.5469 47.1731 34.5523 46.4962 41.9111 46.4962C49.3122 46.4962 55.2754 47.1308 55.2754 47.9769Z" fill="#F2F4F3"/>
<path d="M55.064 47.9769C55.064 48.7808 49.1431 49.4154 41.8689 49.4154C34.5947 49.4154 28.6738 48.7808 28.6738 47.9769C28.6738 47.1731 34.5524 46.5384 41.8689 46.5384C49.1854 46.4961 55.064 47.1731 55.064 47.9769Z" fill="#F1F3F3"/>
<path d="M54.8945 47.9346C54.8945 48.7385 49.1005 49.3731 41.9109 49.3731C34.7635 49.3731 28.9272 48.7385 28.9272 47.9346C28.9272 47.1308 34.7212 46.4962 41.9109 46.4962C49.0582 46.4962 54.8945 47.1731 54.8945 47.9346Z" fill="#F0F2F2"/>
<path d="M54.683 47.9346C54.683 48.6961 48.9736 49.3308 41.9108 49.3308C34.8481 49.3308 29.1387 48.6961 29.1387 47.9346C29.1387 47.1731 34.8481 46.5385 41.9108 46.5385C48.9736 46.5385 54.683 47.1731 54.683 47.9346Z" fill="#EFF1F1"/>
<path d="M54.472 47.9346C54.472 48.6961 48.8472 49.3308 41.9113 49.3308C34.9754 49.3308 29.3506 48.6961 29.3506 47.9346C29.3506 47.1731 34.9754 46.5385 41.9113 46.5385C48.8472 46.5385 54.472 47.1731 54.472 47.9346Z" fill="#EEF1F0"/>
<path d="M54.3026 47.9346C54.3026 48.6961 48.7624 49.2884 41.9111 49.2884C35.0598 49.2884 29.5195 48.6961 29.5195 47.9346C29.5195 47.1731 35.0598 46.5807 41.9111 46.5807C48.7624 46.5807 54.3026 47.1731 54.3026 47.9346Z" fill="#EDF0EF"/>
<path d="M54.0911 47.9346C54.0911 48.6961 48.6355 49.2884 41.911 49.2884C35.1866 49.2884 29.731 48.6961 29.731 47.9346C29.731 47.1731 35.1866 46.5807 41.911 46.5807C48.6355 46.5807 54.0911 47.1731 54.0911 47.9346Z" fill="#ECEFEF"/>
<path d="M53.8796 47.9346C53.8796 48.6538 48.5085 49.2461 41.911 49.2461C35.3135 49.2461 29.9424 48.6538 29.9424 47.9346C29.9424 47.2154 35.3135 46.623 41.911 46.623C48.5085 46.5807 53.8796 47.173 53.8796 47.9346Z" fill="#EBEEEE"/>
<path d="M53.7107 47.8923C53.7107 48.6115 48.4242 49.2038 41.9113 49.2038C35.3983 49.2038 30.1118 48.6115 30.1118 47.8923C30.1118 47.1731 35.3983 46.5807 41.9113 46.5807C48.4242 46.6231 53.7107 47.1731 53.7107 47.8923Z" fill="#EAEDED"/>
<path d="M53.4992 47.8923C53.4992 48.6115 48.2973 49.1615 41.9112 49.1615C35.5252 49.1615 30.3232 48.5692 30.3232 47.8923C30.3232 47.173 35.5252 46.623 41.9112 46.623C48.2973 46.623 53.4992 47.2154 53.4992 47.8923Z" fill="#E9EDEC"/>
<path d="M53.2877 47.8923C53.2877 48.5692 48.1704 49.1615 41.9112 49.1615C35.6097 49.1615 30.5347 48.6115 30.5347 47.8923C30.5347 47.2154 35.652 46.623 41.9112 46.623C48.2127 46.623 53.2877 47.2154 53.2877 47.8923Z" fill="#E9ECEC"/>
<path d="M53.0764 47.8923C53.0764 48.5692 48.0859 49.1192 41.869 49.1192C35.6944 49.1192 30.6616 48.5692 30.6616 47.8923C30.6616 47.2153 35.6521 46.6653 41.869 46.6653C48.0859 46.6653 53.0764 47.2153 53.0764 47.8923Z" fill="#E8EBEB"/>
<path d="M52.9069 47.8923C52.9069 48.5692 48.001 49.1192 41.9109 49.1192C35.8209 49.1192 30.915 48.5692 30.915 47.8923C30.915 47.2153 35.8209 46.6653 41.9109 46.6653C47.9587 46.6653 52.9069 47.2153 52.9069 47.8923Z" fill="#E7EBEA"/>
<path d="M52.6954 47.8923C52.6954 48.5692 47.8741 49.0769 41.9109 49.0769C35.9477 49.0769 31.1265 48.5269 31.1265 47.8923C31.1265 47.2154 35.9477 46.7077 41.9109 46.7077C47.8741 46.6654 52.6954 47.2154 52.6954 47.8923Z" fill="#E6EAEA"/>
<path d="M52.4839 47.85C52.4839 48.4846 47.7472 49.0346 41.9109 49.0346C36.0746 49.0346 31.3379 48.5269 31.3379 47.85C31.3379 47.2153 36.0746 46.6653 41.9109 46.6653C47.7472 46.7077 52.4839 47.2153 52.4839 47.85Z" fill="#E5E9E9"/>
<path d="M52.315 47.85C52.315 48.4846 47.6628 48.9923 41.9111 48.9923C36.1594 48.9923 31.5073 48.4846 31.5073 47.85C31.5073 47.2154 36.1594 46.7077 41.9111 46.7077C47.6628 46.7077 52.315 47.2154 52.315 47.85Z" fill="#E4E8E8"/>
<path d="M52.1035 47.85C52.1035 48.4846 47.5359 48.9923 41.9111 48.9923C36.2863 48.9923 31.7188 48.4846 31.7188 47.85C31.7188 47.2154 36.2863 46.7077 41.9111 46.7077C47.5359 46.7077 52.1035 47.2154 52.1035 47.85Z" fill="#E3E8E7"/>
<path d="M51.892 47.85C51.892 48.4423 47.409 48.95 41.9111 48.95C36.3708 48.95 31.9302 48.4423 31.9302 47.85C31.9302 47.2577 36.4131 46.75 41.9111 46.75C47.409 46.75 51.892 47.2577 51.892 47.85Z" fill="#E2E7E7"/>
<path d="M51.7226 47.85C51.7226 48.4423 47.3242 48.95 41.9109 48.95C36.4975 48.95 32.0991 48.4846 32.0991 47.85C32.0991 47.2577 36.4975 46.75 41.9109 46.75C47.3242 46.75 51.7226 47.2577 51.7226 47.85Z" fill="#E1E6E6"/>
<path d="M51.5111 47.85C51.5111 48.4423 47.1973 48.9077 41.9108 48.9077C36.6243 48.9077 32.3105 48.4423 32.3105 47.85C32.3105 47.2577 36.6243 46.7923 41.9108 46.7923C47.1973 46.7923 51.5111 47.2577 51.5111 47.85Z" fill="#E0E5E5"/>
<path d="M51.3001 47.8077C51.3001 48.4 47.1132 48.8654 41.9113 48.8654C36.7094 48.8654 32.5225 48.4 32.5225 47.8077C32.5225 47.2154 36.7517 46.75 41.9113 46.75C47.1132 46.7923 51.3001 47.2577 51.3001 47.8077Z" fill="#DFE5E5"/>
<path d="M51.0882 47.8077C51.0882 48.3577 46.9859 48.8231 41.8686 48.8231C36.7935 48.8231 32.6489 48.3577 32.6489 47.8077C32.6489 47.2577 36.7512 46.7923 41.8686 46.7923C46.9859 46.7923 51.0882 47.2577 51.0882 47.8077Z" fill="#DEE4E4"/>
<path d="M50.9192 47.8077C50.9192 48.3577 46.9015 48.8231 41.911 48.8231C36.9206 48.8231 32.9028 48.3577 32.9028 47.8077C32.9028 47.2577 36.9206 46.7923 41.911 46.7923C46.8592 46.8346 50.9192 47.2577 50.9192 47.8077Z" fill="#DDE3E3"/>
<path d="M50.7077 47.8077C50.7077 48.3577 46.7746 48.7808 41.911 48.7808C37.0474 48.7808 33.1143 48.3577 33.1143 47.8077C33.1143 47.2577 37.0474 46.8346 41.911 46.8346C46.7746 46.8346 50.7077 47.2577 50.7077 47.8077Z" fill="#DCE3E3"/>
<path d="M50.4962 47.8076C50.4962 48.3153 46.6476 48.7384 41.9109 48.7384C37.1742 48.7384 33.3257 48.3153 33.3257 47.8076C33.3257 47.3 37.1742 46.8769 41.9109 46.8769C46.6476 46.8346 50.4962 47.2576 50.4962 47.8076Z" fill="#DBE2E2"/>
<path d="M50.3273 47.8077C50.3273 48.3154 46.5633 48.7384 41.9112 48.7384C37.2591 48.7384 33.4951 48.3154 33.4951 47.8077C33.4951 47.3 37.2591 46.8769 41.9112 46.8769C46.5633 46.8769 50.3273 47.2577 50.3273 47.8077Z" fill="#DAE1E1"/>
<path d="M22.7107 30.2077C22.7107 30.2077 20.8921 30.2923 20.8075 30.2077C20.6807 30.1231 20.1309 27.3308 20.1309 26.9077C20.1309 26.4846 20.2577 25.0462 20.8075 25.0462C21.3573 25.0462 25.4174 23.9885 25.9671 24.8346C26.5169 25.6808 24.6138 31.3077 22.7107 30.2077Z" fill="#CCCCCC"/>
<path d="M22.7109 20.3077L20.1733 19.0385V24.8346C20.1733 24.8346 21.1461 26.0192 22.7109 26.0192C24.5717 26.0192 25.2484 24.9192 25.2484 24.9192V19.8846L22.7109 20.3077Z" fill="#FFDBA8"/>
<path d="M25.2482 21.2808C25.2482 21.2808 24.0217 22.4231 20.1309 24.5385V20.7308L25.2482 21.2808Z" fill="#F0BD6D"/>
<path d="M22.7108 24.6231V26.7808L22.0764 27.0346L21.146 25.4269C21.146 25.4269 21.9918 24.6654 22.7108 24.6231Z" fill="#5A8997"/>
<path d="M20.1733 23.1423L19.4966 23.4808L20.8499 27.4154L22.7108 24.5808C22.7108 24.6231 21.6535 24.4538 20.1733 23.1423Z" fill="#DFE1DE"/>
<path d="M18.6932 15.9923C18.6932 15.9923 19.2853 20.6885 19.4122 20.9C19.539 21.1115 21.9074 22.4231 22.6686 22.3808V11C22.7109 11 17.7628 8.96923 18.6932 15.9923Z" fill="#FFDBA8"/>
<path d="M26.7287 15.9923C26.7287 15.9923 26.1366 20.6885 26.0097 20.9C25.8828 21.1116 23.5145 22.4231 22.7532 22.3808V11C22.7109 11 27.363 10.0269 26.7287 15.9923Z" fill="#FFDBA8"/>
<path d="M26.0098 18.7423C26.0098 18.7423 26.6864 18.9962 27.1094 17.6423C27.6169 16.0769 27.2785 15.3577 26.8133 15.4C26.6441 15.4 26.5596 15.4423 26.4327 15.4846C26.1366 15.6539 26.0521 15.9923 26.0521 15.9923L26.0098 18.7423Z" fill="#FFDBA8"/>
<path d="M19.412 18.7423C19.412 18.7423 18.7354 18.9962 18.3124 17.6423C17.8049 16.0769 18.1433 15.3577 18.6085 15.4C18.7777 15.4 18.8622 15.4423 18.9891 15.4846C19.2852 15.6539 19.3697 15.9923 19.3697 15.9923L19.412 18.7423Z" fill="#FFDBA8"/>
<path d="M18.27 11.7615C17.9317 12.6923 18.6084 15.5269 18.6084 15.5269L19.0736 16.2462L18.9467 14.6808C18.9467 14.6808 19.9194 12.5231 19.6657 11.7615L19.0313 10.8731C19.0736 10.8308 18.3969 11.4654 18.27 11.7615Z" fill="#A84024"/>
<path d="M27.1515 11.7615C27.4899 12.6923 26.7709 15.4846 26.7709 15.4846L26.3057 16.2039L26.4326 14.6385C26.4326 14.6385 25.4599 12.4808 25.7136 11.7192L26.348 10.8308C26.348 10.8308 27.067 11.4654 27.1515 11.7615Z" fill="#A84024"/>
<path d="M22.7108 8.84232C21.5267 8.84232 19.7927 9.39232 19.0737 10.8308L19.7081 11.7192C19.7081 11.7192 21.3998 12.6077 22.7531 12.7346C23.6413 12.8192 24.9946 12.8615 26.0519 12.0154L26.3479 10.8308C26.3479 10.8308 25.5021 8.84232 22.7108 8.84232Z" fill="#A84024"/>
<path d="M22.7109 24.6231V26.7808L23.3453 27.0346L24.2757 25.4692C24.2757 25.4269 23.4299 24.6654 22.7109 24.6231Z" fill="#4EBCCA"/>
<path d="M25.2483 23.1L25.7981 23.4385L24.6139 27.3731L22.6685 24.5808C22.7107 24.6231 23.768 24.4115 25.2483 23.1Z" fill="#FAF8FA"/>
<path d="M18.0589 27.7115L18.6087 26.95L18.8624 26.5692L17.8897 24.9615L17.5091 24.3692L13.7028 26.1038C13.4491 26.4 12.9838 28.6423 12.6455 30.9269L23.3031 34.0577L18.0589 27.7115Z" fill="#3C566D"/>
<path d="M22.7107 32.5346V26.7808L22.0764 27.0346C22.0764 27.0346 21.6534 28.9385 21.5688 29.8692L21.9918 31.35L22.7107 32.5346Z" fill="#5A8997"/>
<path d="M23.4719 31.3077L23.8948 29.8269C23.8102 28.8538 23.3873 26.9923 23.3873 26.9923L22.7529 26.7385V32.4923L23.4719 31.3077Z" fill="#4EBCCA"/>
<path d="M18.8621 26.5692L18.6084 26.95L18.0586 27.7115L22.7107 33.3808V32.5346L19.4965 23.4808L17.5088 24.3269L17.8894 24.9615L18.8621 26.5692Z" fill="#5A7E90"/>
<path d="M27.3629 27.7115L26.8131 26.95L26.5593 26.5692L27.532 24.9615L27.9127 24.3692L31.7189 26.1038C31.9727 26.4 32.4379 28.6423 32.7762 30.9269L22.1187 34.0577L27.3629 27.7115Z" fill="#3C566D"/>
<path d="M26.5595 26.5692L26.8133 26.95L27.3631 27.7115L22.7109 33.3808V32.5346L25.9251 23.4808L27.9128 24.3269L27.5322 24.9615L26.5595 26.5692Z" fill="#5A7E90"/>
<path d="M17.8894 24.9616L17.5088 24.3269V24.3692L17.8894 24.9616Z" fill="#5A7E90"/>
<path d="M46.1404 40.5308L42.884 43.7885L30.3232 31.2231L32.5647 30.25L33.7066 27.9654L46.1404 40.5308Z" fill="#959595"/>
<path d="M12.0955 9.8577C6.25919 15.6962 6.25919 25.2154 12.0955 31.0539C17.9318 36.8923 27.4475 36.8923 33.2837 31.0539C39.12 25.2154 39.12 15.6962 33.2837 9.8577C27.4475 4.01924 17.9741 4.01924 12.0955 9.8577ZM32.7762 30.5462C27.236 36.0885 18.1855 36.0885 12.6453 30.5462C7.10503 25.0038 7.10503 15.95 12.6453 10.4077C18.1855 4.86539 27.236 4.86539 32.7762 10.4077C38.3165 15.95 38.3165 24.9615 32.7762 30.5462Z" fill="#959595"/>
<path d="M38.2372 29.5019L31.8975 35.8441L43.5603 47.5112L49.9001 41.1691L38.2372 29.5019Z" fill="#C7302E"/>
<path d="M33.168 34.5814L31.9116 35.8377L43.5728 47.5082L44.8291 46.2519L33.168 34.5814Z" fill="#962623"/>
<path d="M38.2295 29.5023L36.9736 30.7591L48.6397 42.4246L49.8956 41.1678L38.2295 29.5023Z" fill="#D35B57"/>
<path d="M32.7764 10.4077C27.2361 4.8654 18.1857 4.8654 12.6454 10.4077C7.10517 15.95 7.10517 25.0039 12.6454 30.5462C18.1857 36.0885 27.2361 36.0885 32.7764 30.5462C38.3166 24.9616 38.3166 15.95 32.7764 10.4077ZM22.7109 33.2116C15.6904 33.2116 9.98103 27.5 9.98103 20.4769C9.98103 13.4539 15.6904 7.74232 22.7109 7.74232C29.7314 7.74232 35.4408 13.4539 35.4408 20.4769C35.4408 27.5 29.7314 33.2116 22.7109 33.2116Z" fill="#C7C6C5"/>
</svg>
