<?xml version="1.0" encoding="utf-8"?>
<!-- Generator: Adobe Illustrator 16.0.0, SVG Export Plug-In . SVG Version: 6.00 Build 0)  -->
<!DOCTYPE svg PUBLIC "-//W3C//DTD SVG 1.1//EN" "http://www.w3.org/Graphics/SVG/1.1/DTD/svg11.dtd">
<svg version="1.1" xmlns="http://www.w3.org/2000/svg" xmlns:xlink="http://www.w3.org/1999/xlink" x="0px" y="0px"
	 width="3097.239px" height="3121.249px" viewBox="0 0 3097.239 3121.249" enable-background="new 0 0 3097.239 3121.249"
	 xml:space="preserve">
<g id="Background">
</g>
<g id="Illustration">
	<g>
		<linearGradient id="SVGID_1_" gradientUnits="userSpaceOnUse" x1="3264.1035" y1="3762.6885" x2="783.6689" y2="682.144">
			<stop  offset="0" style="stop-color:#DAE3FE"/>
			<stop  offset="1" style="stop-color:#E9EFFD"/>
		</linearGradient>
		<path fill="url(#SVGID_1_)" d="M2581.721,2547.833c-56.975,59.98-110.883,98.661-153.476,129.222
			C1927.581,3036.287,1335.162,2931.573,1209.256,2906c-185.923-37.763-545.309-110.755-805.138-416.31
			c-393.1-462.277-331.889-1190.583-26.974-1671.348c55.773-87.94,350.387-576.028,949.187-654.302
			c362.387-47.371,784.814,48.17,1090.724,304.462C3059.188,1006.483,3013.474,2093.297,2581.721,2547.833z"/>
		<g>
			<g>
				<circle fill="#BDD0FB" cx="1335.797" cy="1522.239" r="1074.288"/>
				<g>
					<linearGradient id="SVGID_2_" gradientUnits="userSpaceOnUse" x1="2134.5557" y1="461.7588" x2="70.1255" y2="3202.6245">
						<stop  offset="0" style="stop-color:#4F52FF"/>
						<stop  offset="1" style="stop-color:#4042E2"/>
					</linearGradient>
					<circle fill="url(#SVGID_2_)" cx="1335.798" cy="1522.239" r="916.864"/>
					<path fill="#FFFFFF" d="M1335.796,2485.026c-530.879,0-962.784-431.9-962.784-962.788S804.917,559.45,1335.796,559.45
						s962.784,431.901,962.784,962.788S1866.675,2485.026,1335.796,2485.026z M1335.796,605.375
						c-505.559,0-916.859,411.3-916.859,916.863c0,505.565,411.3,916.863,916.859,916.863c505.56,0,916.859-411.298,916.859-916.863
						C2252.655,1016.675,1841.356,605.375,1335.796,605.375z"/>
				</g>
				<g>
					<linearGradient id="SVGID_3_" gradientUnits="userSpaceOnUse" x1="2134.5557" y1="461.7588" x2="70.1282" y2="3202.6213">
						<stop  offset="0" style="stop-color:#4F52FF"/>
						<stop  offset="1" style="stop-color:#4042E2"/>
					</linearGradient>
					<circle fill="url(#SVGID_3_)" cx="1335.798" cy="1522.239" r="558.964"/>
					<path fill="#FFFFFF" d="M1335.796,2127.128c-333.535,0-604.885-271.354-604.885-604.89s271.351-604.882,604.885-604.882
						s604.886,271.347,604.886,604.882S1669.331,2127.128,1335.796,2127.128z M1335.796,1009.2
						c-282.892,0-513.042,230.146-513.042,513.039c0,282.892,230.15,513.047,513.042,513.047s513.042-230.155,513.042-513.047
						C1848.839,1239.346,1618.688,1009.2,1335.796,1009.2z"/>
				</g>
				<g>
					<linearGradient id="SVGID_4_" gradientUnits="userSpaceOnUse" x1="1523.0049" y1="46.5879" x2="1408.0881" y2="952.408">
						<stop  offset="0" style="stop-color:#FF928E"/>
						<stop  offset="1" style="stop-color:#FE7062"/>
					</linearGradient>
					<circle fill="url(#SVGID_4_)" cx="1335.797" cy="1522.239" r="216.559"/>
					<path fill="#FFFFFF" d="M1335.796,1784.722c-144.732,0-262.48-117.747-262.48-262.483s117.748-262.484,262.48-262.484
						c144.732,0,262.484,117.748,262.484,262.484S1480.529,1784.722,1335.796,1784.722z M1335.796,1351.598
						c-94.089,0-170.636,76.547-170.636,170.641c0,94.094,76.547,170.641,170.636,170.641c94.09,0,170.64-76.547,170.64-170.641
						C1506.437,1428.145,1429.886,1351.598,1335.796,1351.598z"/>
				</g>
			</g>
			<g>
				
					<linearGradient id="SVGID_5_" gradientUnits="userSpaceOnUse" x1="-137.5132" y1="3574.4365" x2="-395.5789" y2="4622.8247" gradientTransform="matrix(-0.7071 -0.7071 0.7071 -0.7071 -1532.8657 3886.7832)">
					<stop  offset="0" style="stop-color:#09005D"/>
					<stop  offset="1" style="stop-color:#1A0F91"/>
				</linearGradient>
				<polygon fill="url(#SVGID_5_)" points="2360.856,499.947 2383.667,522.757 1519.921,1386.503 1497.11,1363.694 				"/>
				
					<linearGradient id="SVGID_6_" gradientUnits="userSpaceOnUse" x1="-357.5615" y1="3794.8047" x2="-436.418" y2="4640.7266" gradientTransform="matrix(-0.7071 -0.7071 0.7071 -0.7071 -1532.8657 3886.7832)">
					<stop  offset="0" style="stop-color:#09005D"/>
					<stop  offset="1" style="stop-color:#1A0F91"/>
				</linearGradient>
				<path fill="url(#SVGID_6_)" d="M1513.266,1308.657c13.085-13.086,74.778,48.605,61.691,61.691l-228.811,179.881
					c-8.454,6.645-19.407-4.308-12.761-12.762L1513.266,1308.657z"/>
				<path fill="#91B3FA" d="M2383.174,523.25l116.2,11.549l-159.521,159.521c-52.266,52.265-125.22,78.332-198.772,71.021l0,0
					L2383.174,523.25z"/>
				<path fill="#91B3FA" d="M2360.364,500.44l-11.55-116.201l-159.521,159.521c-52.266,52.266-78.332,125.219-71.022,198.771l0,0
					L2360.364,500.44z"/>
			</g>
		</g>
		<g>
			<g>
				<g opacity="0.3">
					<path fill="#91B3FA" d="M765.7,339.596c-3.247,3.247-8.512,3.244-11.756-0.003c-6.306-6.308-12.978-12.437-19.835-18.215
						c-3.469-2.924-3.945-8.08-1.101-11.588c0.034-0.042,0.067-0.083,0.102-0.126c2.958-3.51,8.203-3.956,11.714-0.997
						c7.216,6.083,14.242,12.534,20.879,19.175c3.036,3.036,3.229,7.839,0.583,11.103C766.104,339.169,765.91,339.388,765.7,339.596
						z M698.81,295.542c-7.575-4.788-15.428-9.296-23.346-13.405c-4.072-2.113-5.664-7.13-3.551-11.206
						c2.136-4.083,7.133-5.664,11.208-3.549c8.33,4.321,16.597,9.067,24.569,14.103c3.88,2.453,5.038,7.588,2.586,11.469
						c-0.178,0.282-0.371,0.55-0.576,0.802C707.084,296.982,702.409,297.815,698.81,295.542z M635.348,264.751
						c-8.429-2.973-17.088-5.615-25.744-7.854c-4.443-1.149-7.115-5.686-5.966-10.129c1.153-4.438,5.684-7.113,10.129-5.966
						c9.115,2.358,18.237,5.141,27.111,8.271c4.33,1.527,6.6,6.275,5.075,10.605c-0.326,0.922-0.798,1.752-1.381,2.471
						C642.42,264.803,638.753,265.954,635.348,264.751z M566.593,248.929c-8.891-1.016-17.928-1.655-26.863-1.906
						c-4.589-0.13-8.206-3.955-8.077-8.542c0.134-4.588,3.958-8.201,8.542-8.077c9.408,0.265,18.922,0.94,28.279,2.005
						c4.56,0.521,7.837,4.641,7.316,9.201c-0.186,1.632-0.833,3.1-1.796,4.288C572.267,248.03,569.521,249.261,566.593,248.929z
						 M496.027,248.817c-8.873,0.982-17.83,2.358-26.62,4.094c-4.505,0.887-8.876-2.044-9.765-6.548
						c-0.89-4.507,2.044-8.877,6.548-9.762c9.247-1.825,18.672-3.273,28.008-4.306c4.562-0.506,8.67,2.783,9.175,7.347
						c0.255,2.299-0.454,4.483-1.805,6.149C500.24,247.431,498.291,248.567,496.027,248.817z M427.195,264.322
						c-8.449,2.924-16.875,6.248-25.048,9.879c-4.195,1.864-9.108-0.026-10.971-4.219c-1.865-4.196,0.022-9.107,4.219-10.974
						c8.6-3.822,17.472-7.32,26.362-10.397c4.339-1.5,9.071,0.798,10.574,5.137c0.976,2.818,0.346,5.802-1.404,7.96
						C429.984,262.873,428.717,263.796,427.195,264.322z M215.168,488.654c-4.442-1.156-7.107-5.695-5.95-10.139
						c2.371-9.101,5.173-18.222,8.326-27.107c1.536-4.327,6.288-6.59,10.614-5.053c4.325,1.533,6.587,6.286,5.053,10.611
						c-2.994,8.437-5.652,17.097-7.902,25.74c-0.309,1.186-0.858,2.243-1.583,3.138
						C221.735,488.298,218.425,489.504,215.168,488.654z M363.552,294.681c-7.583,4.727-15.052,9.84-22.199,15.202
						c-3.675,2.754-8.886,2.009-11.639-1.664c-2.755-3.674-1.994-8.867,1.665-11.638c7.528-5.645,15.394-11.03,23.379-16.007
						c3.896-2.428,9.022-1.24,11.452,2.657c1.926,3.089,1.576,6.955-0.596,9.633C365.048,293.562,364.356,294.178,363.552,294.681z
						 M239.463,420.403c-4.07-2.121-5.649-7.143-3.527-11.214c4.348-8.337,9.114-16.598,14.16-24.554
						c2.444-3.892,7.596-5.023,11.473-2.566c3.875,2.459,5.024,7.595,2.565,11.473c-4.796,7.561-9.326,15.411-13.457,23.335
						c-0.263,0.505-0.574,0.971-0.919,1.397C247.321,421.281,243.027,422.262,239.463,420.403z M308.299,338.493
						c-6.329,6.301-12.47,12.958-18.251,19.789c-2.965,3.507-8.209,3.943-11.715,0.977c-3.458-2.927-3.929-8.074-1.089-11.577
						c0.037-0.046,0.075-0.092,0.114-0.136c6.083-7.194,12.548-14.203,19.208-20.835c3.256-3.237,8.518-3.226,11.758,0.027
						c3.025,3.038,3.213,7.833,0.571,11.091C308.71,338.058,308.51,338.28,308.299,338.493z"/>
					<path fill="#91B3FA" d="M214.186,543.428c1.03-1.271,1.699-2.859,1.829-4.616c0.314-4.274,0.725-8.612,1.214-12.897
						c0.524-4.56-2.75-8.684-7.309-9.206c-4.561-0.525-8.689,2.747-9.205,7.312c-0.519,4.506-0.949,9.069-1.281,13.567
						c-0.338,4.577,3.101,8.565,7.677,8.901C209.934,546.698,212.529,545.471,214.186,543.428z"/>
				</g>
				<g opacity="0.3">
					<path fill="#91B3FA" d="M295.717,783.38c2.526-3.116,2.49-7.691-0.272-10.775c-2.86-3.19-5.702-6.496-8.443-9.822
						c-2.921-3.543-8.16-4.047-11.702-1.127c-3.557,2.933-4.046,8.161-1.127,11.702c2.888,3.501,5.879,6.982,8.89,10.343
						c3.064,3.419,8.319,3.707,11.739,0.644C295.138,784.042,295.442,783.719,295.717,783.38z"/>
					<path fill="#91B3FA" d="M777.641,784.114c-3.062,3.42-8.317,3.71-11.739,0.646c-3.419-3.063-3.706-8.309-0.646-11.737
						c5.831-6.511,11.474-13.373,16.842-20.467c2.744-3.653,7.984-4.383,11.645-1.613c3.661,2.77,4.383,7.983,1.615,11.645
						c-2.326,3.074-4.693,6.098-7.102,9.069C784.819,775.896,781.249,780.087,777.641,784.114z M808.855,727.864
						c-4-2.248-5.422-7.315-3.172-11.316c4.316-7.685,8.356-15.632,12.004-23.627c1.891-4.177,6.835-6.018,11.013-4.113
						c4.174,1.905,6.016,6.836,4.11,11.011c-3.84,8.417-8.092,16.786-12.636,24.87c-0.235,0.419-0.502,0.811-0.795,1.172
						C816.875,728.949,812.44,729.877,808.855,727.864z M745.185,815.71c-7.053,5.981-14.459,11.745-22.014,17.125
						c-3.74,2.663-8.93,1.791-11.595-1.95c-2.662-3.739-1.785-8.924,1.95-11.593c7.177-5.108,14.208-10.579,20.904-16.26
						c3.502-2.968,8.747-2.539,11.718,0.963c2.626,3.097,2.59,7.56,0.122,10.604C745.949,814.995,745.587,815.368,745.185,815.71z
						 M838.401,662.983c-4.397-1.314-6.899-5.947-5.582-10.344c2.521-8.431,4.711-17.071,6.51-25.678
						c0.938-4.498,5.341-7.376,9.837-6.436c4.493,0.939,7.374,5.341,6.435,9.834c-1.895,9.065-4.201,18.164-6.855,27.041
						c-0.322,1.073-0.837,2.034-1.502,2.853C845.186,662.793,841.726,663.978,838.401,662.983z M684.583,856.495
						c-8.191,4.281-16.68,8.271-25.233,11.86c-4.233,1.777-9.102-0.213-10.88-4.444c-1.779-4.235,0.214-9.106,4.447-10.883
						c8.124-3.41,16.188-7.199,23.965-11.266c4.069-2.126,9.092-0.552,11.218,3.518c1.584,3.032,1.114,6.592-0.911,9.089
						C686.497,855.222,685.62,855.953,684.583,856.495z M616.506,882.999c-8.951,2.393-18.106,4.436-27.212,6.073
						c-4.52,0.811-8.84-2.193-9.652-6.712c-0.813-4.525,2.192-8.844,6.712-9.65c8.652-1.556,17.354-3.497,25.859-5.77
						c4.435-1.186,8.991,1.449,10.178,5.884c0.713,2.672,0.04,5.389-1.579,7.385C619.745,881.526,618.267,882.529,616.506,882.999z
						 M544.268,894.039c-9.264,0.388-18.648,0.387-27.887,0.002c-4.588-0.192-8.149-4.065-7.958-8.651
						c0.191-4.593,4.066-8.15,8.651-7.958c8.781,0.368,17.694,0.366,26.5-0.002c4.587-0.192,8.461,3.372,8.652,7.957
						c0.088,2.107-0.615,4.062-1.846,5.581C548.93,892.754,546.748,893.935,544.268,894.039z M471.343,889.058
						c-9.123-1.647-18.282-3.704-27.222-6.114c-4.433-1.194-7.059-5.756-5.863-10.19c1.193-4.425,5.758-7.054,10.19-5.86
						c8.487,2.287,17.183,4.24,25.851,5.804c4.518,0.816,7.518,5.138,6.702,9.655c-0.258,1.427-0.865,2.701-1.718,3.753
						C477.435,888.385,474.436,889.615,471.343,889.058z M401.258,868.163c-8.516-3.608-16.989-7.629-25.188-11.953
						c-4.061-2.142-5.619-7.171-3.476-11.231c2.136-4.047,7.167-5.618,11.229-3.476c7.788,4.107,15.836,7.926,23.925,11.355
						c4.226,1.79,6.2,6.67,4.408,10.896c-0.312,0.736-0.716,1.405-1.196,1.997C408.687,868.554,404.749,869.642,401.258,868.163z
						 M337.539,832.426c-5.545-3.961-11.038-8.143-16.322-12.427c-1.914-1.552-3.804-3.119-5.674-4.705
						c-3.5-2.967-4.04-8.226-0.965-11.713c2.966-3.504,8.212-3.937,11.716-0.968c1.777,1.505,3.575,2.999,5.394,4.473
						c5.024,4.074,10.242,8.047,15.515,11.814c3.735,2.667,4.6,7.86,1.931,11.594c-0.101,0.14-0.204,0.278-0.311,0.41
						C346.076,834.29,341.132,834.995,337.539,832.426z"/>
					<path fill="#91B3FA" d="M859.986,589.924c1.041-1.284,1.71-2.887,1.833-4.658c0.309-4.49,0.529-9.071,0.653-13.617
						c0.126-4.589-3.492-8.412-8.081-8.537c-4.589-0.124-8.412,3.487-8.537,8.081c-0.119,4.318-0.328,8.669-0.62,12.932
						c-0.316,4.577,3.141,8.546,7.721,8.862C855.763,593.18,858.341,591.955,859.986,589.924z"/>
				</g>
				<g>
					<path fill="#91B3FA" d="M766.482,482.387c-0.338-1.623-1.667-2.853-3.312-3.062l-46.904-5.989
						c-9.309-20.024-21.877-38.708-37.538-55.174l11.612-45.805c0.407-1.607-0.25-3.295-1.637-4.204l-47.431-31.098
						c-1.386-0.91-3.197-0.839-4.507,0.175l-37.377,28.913c-21.345-7.797-43.491-11.874-65.566-12.426l-24.194-40.625
						c-0.848-1.424-2.506-2.153-4.129-1.815l-55.529,11.549c-1.623,0.337-2.854,1.667-3.063,3.312l-5.988,46.903
						c-20.024,9.308-38.709,21.876-55.174,37.539L339.94,398.97c-1.607-0.408-3.295,0.249-4.204,1.635l-31.099,47.432
						c-0.909,1.386-0.837,3.196,0.176,4.507l28.914,37.377c-7.798,21.345-11.874,43.491-12.425,65.566l-40.626,24.194
						c-1.424,0.848-2.154,2.506-1.815,4.129l11.549,55.529c0.337,1.623,1.668,2.853,3.311,3.063l46.905,5.988
						c9.307,20.025,21.876,38.708,37.538,55.174l-11.611,45.806c-0.408,1.606,0.249,3.295,1.635,4.204l47.432,31.098
						c1.386,0.909,3.196,0.838,4.507-0.176l37.377-28.913c21.345,7.797,43.492,11.874,65.566,12.425l24.194,40.625
						c0.848,1.424,2.506,2.153,4.129,1.816l55.529-11.55c1.623-0.337,2.852-1.667,3.063-3.311l5.988-46.904
						c20.024-9.308,38.708-21.876,55.174-37.538l45.805,11.612c1.605,0.406,3.294-0.25,4.203-1.636l31.098-47.432
						c0.909-1.386,0.839-3.196-0.176-4.507l-28.913-37.376c7.797-21.346,11.873-43.492,12.425-65.567l40.626-24.194
						c1.424-0.848,2.153-2.506,1.815-4.129L766.482,482.387z"/>
					<g>
						<path fill="#BDD0FB" d="M567.021,602.841c-23.147,21.27-59.281,19.745-80.555-3.403
							c-10.305-11.212-15.626-25.767-14.982-40.981c0.642-15.212,7.168-29.268,18.385-39.571
							c23.147-21.27,59.282-19.745,80.555,3.402c19.351,21.06,19.834,52.867,2.332,74.454
							C571.022,598.882,569.108,600.923,567.021,602.841z M484.773,559.019c-0.493,11.667,3.586,22.824,11.488,31.423
							c16.308,17.745,44.016,18.917,61.762,2.608c17.757-16.307,18.917-44.016,2.608-61.764
							c-16.308-17.744-44.016-18.917-61.762-2.608c-1.609,1.479-3.089,3.057-4.44,4.724
							C488.558,540.641,485.174,549.538,484.773,559.019z"/>
					</g>
					<path fill="#BDD0FB" d="M635.984,649.506c3.006-3.708,5.843-7.588,8.496-11.634l0,0c0.835-1.273,1.649-2.561,2.444-3.86
						c3.914-6.41,7.311-13.121,10.141-20.029c0.038-0.094,0.077-0.188,0.116-0.282c0.108-0.268,0.216-0.535,0.322-0.805
						c0.209-0.521,0.413-1.046,0.616-1.569c0.532-1.378,0.084-2.893-1.004-3.778c-0.265-0.215-0.568-0.392-0.903-0.521
						c-1.713-0.661-3.633,0.197-4.296,1.907c-3.399,8.817-7.772,17.325-12.997,25.29c-25.938,39.576-69.46,60.836-113.593,60.268
						c-24.547-0.312-49.285-7.381-71.293-21.812c-3.86-2.53-7.563-5.236-11.099-8.104c-23.797-19.298-40.097-45.972-46.419-76.372
						c-7.264-34.92-0.494-70.581,19.063-100.407c40.395-61.598,123.314-78.826,184.886-38.456c3.796,2.489,7.453,5.161,10.955,8.003
						c15.179,12.311,27.495,27.806,36.011,45.417c0.221,0.455,0.529,0.837,0.898,1.134c0.969,0.785,2.344,0.991,3.542,0.411
						c1.652-0.805,2.35-2.785,1.545-4.442c-8.94-18.489-21.87-34.76-37.806-47.684c-3.676-2.983-7.514-5.787-11.498-8.401
						c-64.645-42.385-151.726-24.252-194.096,40.369c-20.531,31.314-27.637,68.749-20.011,105.409
						c6.636,31.916,23.749,59.917,48.73,80.178c3.712,3.01,7.6,5.851,11.649,8.507c31.317,20.531,68.751,27.639,105.411,20.014
						C587.717,691.617,615.724,674.496,635.984,649.506z"/>
				</g>
			</g>
			<g>
				<g opacity="0.3">
					<path fill="#91B3FA" d="M1115.087,256.564c1.399-1.725,1.562-4.227,0.235-6.148c-2.475-3.587-5.093-7.149-7.781-10.584
						c-1.747-2.232-4.971-2.626-7.207-0.88c-2.243,1.741-2.625,4.974-0.879,7.207c2.561,3.273,5.056,6.668,7.419,10.091
						c1.607,2.333,4.805,2.917,7.142,1.31C1114.429,257.273,1114.785,256.937,1115.087,256.564z"/>
					<path fill="#91B3FA" d="M1089.417,226.648c-2.001,2.008-5.25,2.017-7.261,0.015c-5.074-5.046-10.465-9.892-16.022-14.398
						c-1.172-0.95-2.36-1.89-3.561-2.822c-2.236-1.739-2.643-4.963-0.904-7.204c1.729-2.052,4.964-2.643,7.208-0.904
						c1.255,0.976,2.497,1.959,3.724,2.954c5.826,4.724,11.479,9.804,16.798,15.098c1.883,1.872,2.009,4.846,0.37,6.867
						C1089.659,226.389,1089.541,226.519,1089.417,226.648z M1041.045,194.735c-7.449-4.449-15.239-8.477-23.156-11.968
						c-2.595-1.146-3.769-4.172-2.625-6.769c1.142-2.579,4.174-3.771,6.77-2.625c8.297,3.658,16.466,7.88,24.275,12.547
						c2.435,1.455,3.229,4.606,1.777,7.043c-0.127,0.212-0.272,0.415-0.425,0.604
						C1046.078,195.517,1043.264,196.059,1041.045,194.735z M993.421,173.753c-8.299-2.485-16.841-4.472-25.395-5.912
						c-2.794-0.471-4.68-3.12-4.209-5.914c0.474-2.804,3.114-4.684,5.914-4.212c8.969,1.508,17.931,3.597,26.633,6.2
						c2.715,0.813,4.262,3.675,3.448,6.391c-0.201,0.661-0.52,1.254-0.93,1.76C997.611,173.633,995.475,174.366,993.421,173.753z
						 M942.097,165.113c-8.668-0.374-17.441-0.213-26.061,0.483c-2.83,0.226-5.304-1.88-5.53-4.707
						c-0.226-2.819,1.877-5.3,4.703-5.53c9.045-0.728,18.238-0.897,27.331-0.505c2.832,0.122,5.031,2.521,4.909,5.353
						c-0.053,1.141-0.47,2.181-1.14,3.006C945.32,164.434,943.787,165.187,942.097,165.113z M890.218,169.266
						c-8.495,1.745-16.959,4.032-25.165,6.796c-2.684,0.906-5.597-0.539-6.503-3.227c-0.907-2.688,0.534-5.603,3.227-6.504
						c8.598-2.898,17.472-5.294,26.374-7.126c2.778-0.568,5.492,1.22,6.062,3.995c0.323,1.569-0.107,3.118-1.042,4.271
						C892.449,168.36,891.427,169.016,890.218,169.266z M840.92,185.885c-7.808,3.755-15.452,8.033-22.724,12.719
						c-2.381,1.536-5.561,0.849-7.095-1.534c-1.534-2.383-0.851-5.55,1.534-7.099c7.625-4.914,15.646-9.402,23.835-13.341
						c2.556-1.226,5.623-0.153,6.851,2.401c0.889,1.85,0.572,3.968-0.639,5.462C842.22,185.064,841.628,185.546,840.92,185.885z
						 M797.202,214.045c-6.627,5.539-12.994,11.568-18.922,17.925c-1.937,2.07-5.185,2.183-7.256,0.248
						c-2.073-1.932-2.157-5.149-0.253-7.259c6.22-6.66,12.895-12.982,19.845-18.792c2.177-1.817,5.415-1.528,7.233,0.647
						c1.6,1.913,1.566,4.652,0.051,6.521C797.694,213.589,797.462,213.828,797.202,214.045z M740.723,276.095
						c-2.481-1.373-3.378-4.495-2.005-6.977c3.8-6.869,8.043-13.646,12.595-20.128c0.687-0.989,1.385-1.962,2.089-2.934
						c1.592-2.33,4.879-2.802,7.174-1.126c2.293,1.669,2.796,4.878,1.128,7.173c-0.664,0.907-1.318,1.826-1.974,2.769
						c-4.358,6.203-8.406,12.668-12.031,19.217c-0.148,0.271-0.32,0.522-0.506,0.751
						C745.654,276.74,742.932,277.319,740.723,276.095z"/>
				</g>
				<g opacity="0.3">
					<path fill="#91B3FA" d="M1103.067,518.439c-5.725,6.877-11.921,13.46-18.411,19.579c-2.064,1.941-5.313,1.847-7.259-0.218
						c-1.947-2.065-1.815-5.309,0.218-7.259c6.191-5.83,12.1-12.113,17.561-18.674c1.813-2.18,5.052-2.474,7.229-0.661
						c2.161,1.8,2.471,5.001,0.706,7.178C1103.098,518.402,1103.082,518.421,1103.067,518.439z M1111.9,498.294
						c-2.379-1.54-3.061-4.719-1.52-7.097c4.632-7.162,8.878-14.676,12.617-22.336c1.244-2.529,4.317-3.606,6.868-2.357
						c2.549,1.243,3.602,4.314,2.36,6.864c-3.919,8.027-8.368,15.902-13.226,23.405c-0.103,0.159-0.209,0.307-0.327,0.451
						C1117.044,499.234,1114.127,499.735,1111.9,498.294z M1063.986,555.225c-7.221,5.292-14.826,10.189-22.604,14.552
						c-2.473,1.387-5.605,0.505-6.99-1.966c-1.39-2.473-0.509-5.589,1.962-6.99c7.421-4.161,14.674-8.832,21.566-13.877
						c2.288-1.676,5.5-1.179,7.173,1.104c1.41,1.924,1.283,4.5-0.15,6.268C1064.671,554.651,1064.352,554.957,1063.986,555.225z
						 M1135.996,451.698c-2.681-0.921-4.105-3.845-3.184-6.525c2.775-8.064,5.081-16.377,6.851-24.714
						c0.593-2.769,3.32-4.541,6.086-3.957c2.774,0.591,4.547,3.316,3.957,6.09c-1.854,8.743-4.272,17.466-7.185,25.922
						c-0.203,0.584-0.499,1.108-0.867,1.562C1140.335,451.704,1138.091,452.418,1135.996,451.698z M1017.189,581.466
						c-8.263,3.393-16.821,6.313-25.438,8.686c-2.734,0.752-5.561-0.856-6.313-3.589c-0.753-2.734,0.85-5.563,3.589-6.314
						c8.221-2.258,16.381-5.046,24.26-8.284c2.622-1.076,5.622,0.175,6.7,2.802c0.739,1.796,0.38,3.774-0.764,5.186
						C1018.7,580.597,1018.012,581.127,1017.189,581.466z M965.455,595.717c-8.853,1.317-17.865,2.107-26.783,2.352
						c-2.833,0.078-5.192-2.154-5.269-4.988c-0.08-2.831,2.154-5.196,4.992-5.273c8.503-0.234,17.101-0.991,25.549-2.247
						c2.804-0.418,5.416,1.519,5.833,4.323c0.219,1.481-0.216,2.91-1.092,3.991C967.906,594.836,966.776,595.521,965.455,595.717z
						 M911.793,597.172c-8.917-0.84-17.86-2.236-26.575-4.146c-2.772-0.608-4.523-3.345-3.917-6.115
						c0.605-2.769,3.347-4.519,6.112-3.917c8.313,1.824,16.839,3.154,25.34,3.95c2.824,0.266,4.898,2.771,4.63,5.594
						c-0.096,1.049-0.503,1.99-1.119,2.749C915.219,596.577,913.57,597.338,911.793,597.172z"/>
					<path fill="#91B3FA" d="M1152.583,398.536c0.624-0.77,1.032-1.726,1.124-2.788c0.38-4.378,0.63-8.786,0.75-13.104
						c0.076-2.833-2.158-5.196-4.993-5.274c-2.829-0.07-5.191,2.159-5.274,4.993c-0.111,4.118-0.353,8.324-0.713,12.502
						c-0.245,2.825,1.85,5.314,4.672,5.557C1149.913,400.572,1151.546,399.815,1152.583,398.536z"/>
				</g>
				<g>
					<path fill="#91B3FA" d="M1090.65,322.924c-0.227-1.086-1.116-1.909-2.216-2.049l-31.386-4.008
						c-6.229-13.399-14.639-25.901-25.119-36.919l7.77-30.651c0.272-1.075-0.167-2.204-1.095-2.813l-31.739-20.809
						c-0.927-0.609-2.139-0.561-3.016,0.117l-25.011,19.348c-14.284-5.218-29.103-7.946-43.874-8.315l-16.19-27.185
						c-0.567-0.953-1.677-1.441-2.763-1.215l-37.157,7.729c-1.086,0.226-1.909,1.116-2.049,2.216l-4.007,31.385
						c-13.399,6.229-25.902,14.639-36.92,25.12l-30.651-7.771c-1.075-0.272-2.205,0.167-2.813,1.094l-20.81,31.74
						c-0.608,0.928-0.56,2.139,0.118,3.016l19.348,25.011c-5.218,14.283-7.946,29.103-8.314,43.874l-27.186,16.189
						c-0.953,0.567-1.441,1.677-1.215,2.763l7.729,37.158c0.226,1.085,1.116,1.908,2.215,2.049l31.387,4.007
						c6.228,13.399,14.638,25.902,25.119,36.92l-7.77,30.651c-0.273,1.075,0.166,2.205,1.094,2.813l31.739,20.81
						c0.928,0.608,2.139,0.561,3.016-0.118l25.01-19.347c14.283,5.217,29.103,7.945,43.875,8.314l16.189,27.185
						c0.567,0.953,1.677,1.44,2.763,1.215l37.157-7.729c1.086-0.226,1.909-1.116,2.05-2.216l4.007-31.386
						c13.399-6.229,25.901-14.639,36.92-25.119l30.651,7.77c1.075,0.272,2.205-0.167,2.813-1.095l20.809-31.739
						c0.608-0.928,0.561-2.139-0.118-3.016l-19.347-25.011c5.218-14.283,7.945-29.103,8.314-43.874l27.185-16.19
						c0.953-0.567,1.44-1.677,1.215-2.763L1090.65,322.924z"/>
					<g>
						<path fill="#BDD0FB" d="M957.645,404.028c-7.637,7.023-17.553,10.647-27.918,10.208c-10.361-0.436-19.935-4.883-26.954-12.523
							c-14.488-15.765-13.445-40.337,2.317-54.874c15.772-14.485,40.385-13.445,54.868,2.319
							c7.02,7.637,10.646,17.551,10.208,27.915c-0.356,8.424-3.363,16.327-8.579,22.76
							C960.389,401.312,959.071,402.715,957.645,404.028z M910.331,394.764c5.164,5.62,12.206,8.892,19.832,9.214
							c7.621,0.321,14.915-2.346,20.533-7.508l0,0c5.612-5.17,8.889-12.205,9.211-19.832c0.324-7.621-2.347-14.915-7.507-20.531
							c-10.658-11.597-28.762-12.363-40.362-1.708c-1.046,0.963-2.003,1.984-2.873,3.058
							C900.395,368.273,900.637,384.215,910.331,394.764z"/>
					</g>
					<path fill="#BDD0FB" d="M1005.645,436.503c2.046-2.523,3.979-5.171,5.8-7.942c3.611-5.505,6.667-11.382,9.085-17.487
						c0.107-0.275,0.213-0.55,0.32-0.825c0.822-2.129,0.13-4.468-1.551-5.833c-0.409-0.332-0.877-0.605-1.394-0.804
						c-2.645-1.021-5.607,0.308-6.634,2.944c-2.204,5.72-5.036,11.227-8.413,16.371l-0.001,0.001
						c-0.185,0.283-0.374,0.564-0.561,0.843c-8.101,12.102-18.912,21.726-31.478,28.309c-6.822,3.573-14.167,6.248-21.885,7.926
						c-0.063,0.014-0.125,0.027-0.188,0.042c-0.194,0.04-0.384,0.083-0.576,0.121c-22.606,4.7-45.692,0.319-65.001-12.342
						c-2.5-1.636-4.896-3.388-7.185-5.245c-15.405-12.493-25.957-29.762-30.053-49.445c-4.7-22.607-0.315-45.689,12.344-64.997
						c12.659-19.292,32.083-32.533,54.688-37.239c22.606-4.701,45.692-0.319,65.001,12.342c2.458,1.609,4.825,3.341,7.091,5.178
						c9.828,7.972,17.801,18.001,23.312,29.402c0.34,0.702,0.817,1.292,1.387,1.751c1.496,1.213,3.62,1.531,5.469,0.635
						c2.549-1.241,3.623-4.302,2.386-6.86c-6.168-12.756-15.088-23.98-26.079-32.898c-2.539-2.059-5.185-3.994-7.933-5.796
						c-21.607-14.166-47.433-19.068-72.727-13.807c-25.289,5.262-47.025,20.034-61.182,41.658
						c-14.166,21.603-19.07,47.427-13.806,72.722c4.577,22.019,16.384,41.338,33.619,55.315c2.559,2.075,5.241,4.037,8.034,5.869
						C919.364,483.834,974.799,474.548,1005.645,436.503z"/>
				</g>
			</g>
		</g>
		<g>
			
				<linearGradient id="SVGID_7_" gradientUnits="userSpaceOnUse" x1="14421.1162" y1="2743.6455" x2="13891.5176" y2="3319.7009" gradientTransform="matrix(1 0.0095 -0.0095 1 -13738.5547 -60.3887)">
				<stop  offset="0" style="stop-color:#09005D"/>
				<stop  offset="1" style="stop-color:#1A0F91"/>
			</linearGradient>
			<path fill="url(#SVGID_7_)" d="M488.687,2861.575c0,0-5.781,30.999-8.763,61.711c-1.167,12.002,7.996,22.52,20.039,23.139
				c40.916,2.094,128.44,6.244,159.872,5.142c4.725-0.166,7.859-4.972,6.153-9.38c-1.43-3.695-4.226-6.699-7.811-8.388
				l-143.992-67.85L488.687,2861.575z"/>
			
				<linearGradient id="SVGID_8_" gradientUnits="userSpaceOnUse" x1="14249.2197" y1="2786.4268" x2="14296.2607" y2="2786.4268" gradientTransform="matrix(1 0.0095 -0.0095 1 -13738.5547 -60.3887)">
				<stop  offset="0" style="stop-color:#FEBBBA"/>
				<stop  offset="1" style="stop-color:#FF928E"/>
			</linearGradient>
			<path fill="url(#SVGID_8_)" d="M484.367,2843.289l4.052,37.183c0,0,25.223,12.035,42.65-1.08l-10.096-41.49L484.367,2843.289z"/>
			
				<linearGradient id="SVGID_9_" gradientUnits="userSpaceOnUse" x1="14462.8486" y1="2092.1475" x2="14012.1826" y2="2702.9678" gradientTransform="matrix(1 0.0095 -0.0095 1 -13738.5547 -60.3887)">
				<stop  offset="0" style="stop-color:#09005D"/>
				<stop  offset="1" style="stop-color:#1A0F91"/>
			</linearGradient>
			<path fill="url(#SVGID_9_)" d="M494.34,2145.063c-1.996,9.68-14.834,483.908,33.837,696.947c0.794,3.475-0.998,7.033-4.312,8.351
				c-7.807,3.103-23.095,7.559-41.371,7.997c-5.659,0.137-10.697-3.59-12.242-9.035c-14.021-49.454-81.11-297.202-87.917-533.322
				c-7.607-263.842,0.085-8.98,0.085-8.98l7.492-162.974L494.34,2145.063z"/>
			
				<linearGradient id="SVGID_10_" gradientUnits="userSpaceOnUse" x1="14302.3115" y1="2634.4033" x2="13772.6914" y2="3210.4814" gradientTransform="matrix(1 0.0095 -0.0095 1 -13738.5547 -60.3887)">
				<stop  offset="0" style="stop-color:#09005D"/>
				<stop  offset="1" style="stop-color:#1A0F91"/>
			</linearGradient>
			<path fill="url(#SVGID_10_)" d="M322.164,2876.188c0,0-8.88,15.592-17.73,57.164c-1.599,7.508,3.589,14.758,11.221,15.582
				c13.504,1.458,34.294,3.365,50.963,3.41c7.683,0.02,13.744-6.613,12.891-14.248c-1.701-15.223-7.215-40.223-24.797-59.834
				L322.164,2876.188z"/>
			
				<linearGradient id="SVGID_11_" gradientUnits="userSpaceOnUse" x1="14079.6787" y1="2784.0078" x2="14120.292" y2="2784.0078" gradientTransform="matrix(1 0.0095 -0.0095 1 -13738.5547 -60.3887)">
				<stop  offset="0" style="stop-color:#FEBBBA"/>
				<stop  offset="1" style="stop-color:#FF928E"/>
			</linearGradient>
			<path fill="url(#SVGID_11_)" d="M314.951,2828.343l9.76,56.266c0,0,10.109,7.67,30.301,2.372l-4.338-60.479L314.951,2828.343z"/>
			
				<linearGradient id="SVGID_12_" gradientUnits="userSpaceOnUse" x1="14382.5264" y1="2032.8877" x2="13931.8652" y2="2643.7012" gradientTransform="matrix(1 0.0095 -0.0095 1 -13738.5547 -60.3887)">
				<stop  offset="0" style="stop-color:#09005D"/>
				<stop  offset="1" style="stop-color:#1A0F91"/>
			</linearGradient>
			<path fill="url(#SVGID_12_)" d="M293.53,2157.704c-43.853,249.854,3.094,618.596,19.425,690.836c1,4.424,4.529,7.838,8.995,8.623
				c7.584,1.33,20.081,2.478,32.445-0.986c4.26-1.193,7.281-4.996,7.496-9.416c2.839-58.25,2.143-416.027,42.128-557.037
				c2.026-7.146,6.461-13.354,12.557-17.601l75.499-52.596l6.572-86.12L293.53,2157.704z"/>
			<g>
				
					<linearGradient id="SVGID_13_" gradientUnits="userSpaceOnUse" x1="11868.9365" y1="-8575.9131" x2="11388.9863" y2="-8221.0205" gradientTransform="matrix(-1 0 0 1 -1841.8428 0)">
					<stop  offset="0" style="stop-color:#FF928E"/>
					<stop  offset="1" style="stop-color:#FE7062"/>
				</linearGradient>
				<path fill="url(#SVGID_13_)" d="M562.274,1686.051c-124.245-3.239-261.688,30.135-261.688,30.135
					c-39.104,215.778-10.917,465.364-10.917,465.364c95.962,26.145,204.872-13.473,204.872-13.473
					c16.852-90.186,93.881-343.715,93.881-343.715c60.787-6.956,110.971-23.996,152.38-46.762
					c-31.07-36.719-45.44-83.201-51.611-110.654C645.125,1680.181,600.597,1687.05,562.274,1686.051z"/>
				
					<linearGradient id="SVGID_14_" gradientUnits="userSpaceOnUse" x1="14442.8506" y1="1559.1387" x2="14683.1924" y2="1559.1387" gradientTransform="matrix(1 0.0095 -0.0095 1 -13738.5547 -60.3887)">
					<stop  offset="0" style="stop-color:#FEBBBA"/>
					<stop  offset="1" style="stop-color:#FF928E"/>
				</linearGradient>
				<path fill="url(#SVGID_14_)" d="M931.078,1506.517c-12.066-14.861-27.583-8.033-27.583-8.033
					c-19.024,77.07-115.505,138.787-214.305,168.462c6.171,27.453,20.541,73.936,51.611,110.654
					C905.162,1687.24,931.078,1506.517,931.078,1506.517z"/>
			</g>
			<g>
				
					<linearGradient id="SVGID_15_" gradientUnits="userSpaceOnUse" x1="-4832.6958" y1="1517.9248" x2="-4671.4243" y2="1884.8534" gradientTransform="matrix(-1 -0.0095 -0.0095 1 -3941.6035 33.6152)">
					<stop  offset="0" style="stop-color:#FEBBBA"/>
					<stop  offset="1" style="stop-color:#FF928E"/>
				</linearGradient>
				<path fill="url(#SVGID_15_)" d="M928.079,1510.238c1.239,4.073-13.611,10.115-22.163-6.576
					c-0.228-7.962-4.743-42.107,0.075-48.546c25.66-34.292,75.184-77.115,75.184-77.115c8.222,8.27,1.308,16.25,1.308,16.25
					l-24.062,24.591c4.898,9.052,10.904,16.712,13.649,27.632c2.079,8.269,0.675,17.071-3.563,24.539
					c-4.254,7.495-10.053,17.234-15.52,24.847C942.639,1510.268,928.079,1510.238,928.079,1510.238z"/>
				
					<linearGradient id="SVGID_16_" gradientUnits="userSpaceOnUse" x1="14682.0439" y1="1396.6587" x2="14749.3369" y2="1293.1963" gradientTransform="matrix(1 0.0095 -0.0095 1 -13738.5547 -60.3887)">
					<stop  offset="0" style="stop-color:#FEBBBA"/>
					<stop  offset="1" style="stop-color:#FF928E"/>
				</linearGradient>
				<path fill="url(#SVGID_16_)" d="M947.848,1434.845l-21.887,18.198l-6.991,18.259l19.152,21.658c0,0,6.855-36.296,11.768-44.12
					C954.802,1441.019,952.33,1437.189,947.848,1434.845z"/>
			</g>
			
				<linearGradient id="SVGID_17_" gradientUnits="userSpaceOnUse" x1="11902.8389" y1="-8530.0205" x2="11422.8906" y2="-8175.1289" gradientTransform="matrix(-1 0 0 1 -1841.8428 0)">
				<stop  offset="0" style="stop-color:#FF928E"/>
				<stop  offset="1" style="stop-color:#FE7062"/>
			</linearGradient>
			<path fill="url(#SVGID_17_)" d="M347.101,1836.966l-46.514-120.78c0,0-116.824,77.757-136.866,177.567
				c21.917,1.824,61.77,7.91,100.645,28.006C273.399,1874.626,347.101,1836.966,347.101,1836.966z"/>
			
				<linearGradient id="SVGID_18_" gradientUnits="userSpaceOnUse" x1="13916.9365" y1="1899.5439" x2="14221.0811" y2="1899.5439" gradientTransform="matrix(1 0.0095 -0.0095 1 -13738.5547 -60.3887)">
				<stop  offset="0" style="stop-color:#FEBBBA"/>
				<stop  offset="1" style="stop-color:#FF928E"/>
			</linearGradient>
			<path fill="url(#SVGID_18_)" d="M447.454,1951.155c0,0-131.021,72.406-174.392,9.099c-9.004-13.146-11.064-26.144-8.696-38.495
				c-38.875-20.096-78.729-26.182-100.645-28.006c-6.042,30.09-3.306,62.18,14.098,94.751
				c75.679,141.632,286.575-5.053,286.575-5.053L447.454,1951.155z"/>
			<linearGradient id="SVGID_19_" gradientUnits="userSpaceOnUse" x1="383.9409" y1="1803.417" x2="498.8581" y2="1580.3423">
				<stop  offset="0" style="stop-color:#FEBBBA"/>
				<stop  offset="1" style="stop-color:#FF928E"/>
			</linearGradient>
			<path fill="url(#SVGID_19_)" d="M437.367,1583.966l-40.631,113.969c-0.673,1.887,0.085,3.992,1.831,4.979
				c10.721,6.062,49.387,23.656,96.465-5.564c4.904-3.045,8.271-8.055,9.066-13.771l13.748-98.844L437.367,1583.966z"/>
			<g>
				
					<linearGradient id="SVGID_20_" gradientUnits="userSpaceOnUse" x1="5027.4209" y1="7965.6855" x2="4982.4834" y2="7817.4717" gradientTransform="matrix(0.7523 -0.6588 0.6588 0.7523 -8483.3613 -1107.1626)">
					<stop  offset="0" style="stop-color:#FEBBBA"/>
					<stop  offset="1" style="stop-color:#FF928E"/>
				</linearGradient>
				<path fill="url(#SVGID_20_)" d="M524.408,1478.9c0,0,42.64,82.144,36.759,115.106c-5.88,32.961-59.668,30.077-106.401,2.815
					l-31.993-88.563L524.408,1478.9z"/>
				
					<linearGradient id="SVGID_21_" gradientUnits="userSpaceOnUse" x1="4986.8809" y1="7707.4434" x2="5024.4702" y2="7921.8418" gradientTransform="matrix(0.7523 -0.6588 0.6588 0.7523 -8483.3613 -1107.1626)">
					<stop  offset="0" style="stop-color:#09005D"/>
					<stop  offset="1" style="stop-color:#1A0F91"/>
				</linearGradient>
				<path fill="url(#SVGID_21_)" d="M457.257,1553.503c1.917-0.828,2.644-3.158,1.518-4.917
					c-3.429-5.347-9.845-16.251-11.836-25.762c0,0-7.757-5.073,19.977-11.433c27.735-6.359,69.099-16.246,77.996-39.716
					c8.676-22.884-12.992-80.846-48.88-35.169c-1.365,1.738-4.007,1.751-5.338-0.014c-5.738-7.619-20.866-23.464-42.168-14.149
					c-19.934,8.717-22.309,23.241-22.106,30.575c0.06,2.157-1.885,3.815-4,3.391c-10.017-2.01-34.084-3.883-45.562,20.714
					c-9.453,20.261-3.544,31.838,1.882,37.523c1.758,1.843,0.951,4.841-1.491,5.562c-6.616,1.957-15.185,7.468-14.48,22.929
					c0.976,21.375,24.878,19.72,31.687,18.81c1.116-0.147,2.235,0.244,2.981,1.087c5.77,6.508,31.778,34.156,60.18,37.73
					c2.459,0.31,4.391-2.103,3.607-4.455l-11.964-35.886c-0.556-1.666,0.257-3.481,1.869-4.178L457.257,1553.503z"/>
				
					<linearGradient id="SVGID_22_" gradientUnits="userSpaceOnUse" x1="4981.4854" y1="7964.9912" x2="4941.0557" y2="7831.6445" gradientTransform="matrix(0.7523 -0.6588 0.6588 0.7523 -8483.3613 -1107.1626)">
					<stop  offset="0" style="stop-color:#FEBBBA"/>
					<stop  offset="1" style="stop-color:#FF928E"/>
				</linearGradient>
				<path fill="url(#SVGID_22_)" d="M462.154,1558.627c0,0-30.711-21.505-33.141-3.665c-2.428,17.84,27.591,26.139,42.563,19.621
					L462.154,1558.627z"/>
			</g>
			<g>
				<g>
					
						<linearGradient id="SVGID_23_" gradientUnits="userSpaceOnUse" x1="14013.4248" y1="1778.1123" x2="14181.251" y2="2477.3911" gradientTransform="matrix(1 0 0 1 -13467.3906 0)">
						<stop  offset="0" style="stop-color:#09005D"/>
						<stop  offset="1" style="stop-color:#1A0F91"/>
					</linearGradient>
					<path fill="url(#SVGID_23_)" d="M420.677,2065.585l71.373-249.248c0.81-2.83,3.224-4.893,6.147-5.234
						c12.931-1.508,50.402-5.744,93.665-9.404c52.112-4.408,112.63-7.979,148.793-4.941c5.141,0.433,8.248,5.871,5.961,10.495
						c-20.564,41.605-105.154,210.845-147.515,266.285c-1.403,1.837-3.574,2.911-5.885,2.889l-165.596-1.54
						C422.802,2074.841,419.351,2070.218,420.677,2065.585z"/>
					
						<linearGradient id="SVGID_24_" gradientUnits="userSpaceOnUse" x1="13898.4248" y1="1963.1084" x2="13993.5127" y2="1963.1084" gradientTransform="matrix(1 0 0 1 -13467.3906 0)">
						<stop  offset="0" style="stop-color:#FEBBBA"/>
						<stop  offset="1" style="stop-color:#FF928E"/>
					</linearGradient>
					<path fill="url(#SVGID_24_)" d="M437.921,2005.366c0,0-9.942-40.882-5.932-55.386c4.01-14.505,11.781-33.153,37.681-29.009
						c25.901,4.145,56.453,15.055,56.453,15.055s-1.543,18.893-21.228,12.797l12.207,9.445c0,0-1.745,15.127-18.372,7.046
						l11.354,12.525c0,0-7.141,12.424-19.374,4.456C478.477,1974.327,472.612,2010.29,437.921,2005.366z"/>
				</g>
				<circle fill="#91B3FA" cx="608.054" cy="1876.104" r="20.951"/>
				<path fill="#BDD0FB" d="M500.125,1889.915l14.531-49.294c1.783-6.054,6.65-10.599,12.7-11.863
					c45.546-9.503,170.207-11.519,171.46-11.536l-0.083-5.57c-5.142,0.079-126.451,2.046-172.515,11.657
					c-8.062,1.682-14.539,7.712-16.907,15.735l-14.531,49.295L500.125,1889.915z"/>
			</g>
		</g>
		<g>
			<g>
				
					<linearGradient id="SVGID_25_" gradientUnits="userSpaceOnUse" x1="5120.0186" y1="1390.1401" x2="4815.8999" y2="1764.0112" gradientTransform="matrix(-0.9922 -0.1247 -0.1247 0.9922 7579.543 672.543)">
					<stop  offset="0" style="stop-color:#FEBBBA"/>
					<stop  offset="1" style="stop-color:#FF928E"/>
				</linearGradient>
				<path fill="url(#SVGID_25_)" d="M2355.085,1519.238c1.98-3.784,7.582-3.189,8.725,0.927c4.233,15.235,14.479,41.82,35.974,51.26
					c1.083,0.477,2.108,0.957,3.1,1.441c0.976-2.924,0.989-6.317-1.347-9.887c-6.683-10.213,5.381-24.161,5.381-24.161
					s0.8,12.285,10.138,20.02c8.044,6.664,11.905,21.49,6.409,33.654c-11.635,45.188-29.057,104.956,38.806,148.62
					c67.86,43.664,163.428-82.403,163.428-82.403l-47.433,150.368c0,0-73.212,54.025-158.37-21.943
					c-85.159-75.97-28.714-186.518-28.714-186.518S2326.228,1574.414,2355.085,1519.238z"/>
				
					<linearGradient id="SVGID_26_" gradientUnits="userSpaceOnUse" x1="-5401.6299" y1="2091.8105" x2="-5601.0552" y2="2328.7749" gradientTransform="matrix(0.9602 0.2794 -0.2794 0.9602 8805.4375 876.4023)">
					<stop  offset="0" style="stop-color:#09005D"/>
					<stop  offset="1" style="stop-color:#1A0F91"/>
				</linearGradient>
				<path fill="url(#SVGID_26_)" d="M2637.582,1437.772c0,0-19.66-88.189,81.358-64.843c0,0,49.035-8.013,51.529,38.269
					c0,0,31.608,20.829,8.466,60.882c0,0,93.937-36.284,134.865,46.054c40.929,82.338,3.307,127.643-36.132,139.443
					c0,0,31.953,16.043,16.828,52.27s-91.721,61.764-136.968,17.708c0,0-128.747,17.015-126.171-73.926
					c0,0-59.881-38.669,3.014-113.825C2697.268,1464.648,2637.582,1437.772,2637.582,1437.772z"/>
				<linearGradient id="SVGID_27_" gradientUnits="userSpaceOnUse" x1="2962.0938" y1="1404.5806" x2="2776.1973" y2="1691.8755">
					<stop  offset="0" style="stop-color:#FF928E"/>
					<stop  offset="1" style="stop-color:#FE7062"/>
				</linearGradient>
				<path fill="url(#SVGID_27_)" d="M2632.034,1642.188c20.299-6.084,79.404-17.32,135.624,34.561
					c9.535,8.801,13.431,22.17,10.032,34.691c-15.102,55.592-54.941,219.834-20.008,290.899c0,0-61.562,67.862-128.722,13.166
					c0,0-30.133-131.329-69.601-188.983c-27.249-39.803,43.45-149.469,61.337-175.963
					C2623.406,1646.548,2627.398,1643.58,2632.034,1642.188z"/>
				
					<linearGradient id="SVGID_28_" gradientUnits="userSpaceOnUse" x1="-5690.4102" y1="2509.5957" x2="-5674.1626" y2="2394.239" gradientTransform="matrix(0.9602 0.2794 -0.2794 0.9602 8805.4375 876.4023)">
					<stop  offset="0" style="stop-color:#FEBBBA"/>
					<stop  offset="1" style="stop-color:#FF928E"/>
				</linearGradient>
				<path fill="url(#SVGID_28_)" d="M2688.083,1531.743c0,0,30.021,84.918,32.279,122.381c0,0-33.18,15.087-64.444-10.379
					c0,0-3.28-84.818-8.021-100.006L2688.083,1531.743z"/>
				
					<linearGradient id="SVGID_29_" gradientUnits="userSpaceOnUse" x1="-5764.8984" y1="2262.416" x2="-5612.979" y2="2437.0825" gradientTransform="matrix(0.9602 0.2794 -0.2794 0.9602 8805.4375 876.4023)">
					<stop  offset="0" style="stop-color:#FEBBBA"/>
					<stop  offset="1" style="stop-color:#FF928E"/>
				</linearGradient>
				<path fill="url(#SVGID_29_)" d="M2646.382,1415.96c0,0-78.523,109.888-31.584,141.807
					c46.938,31.92,102.836-46.174,102.836-46.174s18.221-60.146-0.831-80.55S2646.382,1415.96,2646.382,1415.96z"/>
				
					<linearGradient id="SVGID_30_" gradientUnits="userSpaceOnUse" x1="-5497.1455" y1="2011.4287" x2="-5696.5752" y2="2248.3984" gradientTransform="matrix(0.9602 0.2794 -0.2794 0.9602 8805.4375 876.4023)">
					<stop  offset="0" style="stop-color:#09005D"/>
					<stop  offset="1" style="stop-color:#1A0F91"/>
				</linearGradient>
				<path fill="url(#SVGID_30_)" d="M2682.728,1389.699c0,0-36.072,8.548-41.129,24.869c-5.055,16.322,51.155,31.457,66.905,32.197
					l12.69,65.862c0,0,37.516-61.958,22.654-97.741C2728.989,1379.104,2682.728,1389.699,2682.728,1389.699z"/>
				
					<linearGradient id="SVGID_31_" gradientUnits="userSpaceOnUse" x1="-5726.9424" y1="2229.4014" x2="-5575.0264" y2="2404.064" gradientTransform="matrix(0.9602 0.2794 -0.2794 0.9602 8805.4375 876.4023)">
					<stop  offset="0" style="stop-color:#FEBBBA"/>
					<stop  offset="1" style="stop-color:#FF928E"/>
				</linearGradient>
				<path fill="url(#SVGID_31_)" d="M2702.412,1503.507c0,0,30.563-35.396,42.72-12.32c12.158,23.076-27.51,40.4-41.242,29.07
					L2702.412,1503.507z"/>
				
					<linearGradient id="SVGID_32_" gradientUnits="userSpaceOnUse" x1="4418.4688" y1="3007.2021" x2="4780.9136" y2="2367.4092" gradientTransform="matrix(-1 -0.0095 -0.0095 1 7355.769 53.8584)">
					<stop  offset="0" style="stop-color:#FEBBBA"/>
					<stop  offset="1" style="stop-color:#FF928E"/>
				</linearGradient>
				<path fill="url(#SVGID_32_)" d="M2550.56,2291.247c0.23,5.961-10.237,53.252-15.934,78.478
					c-2.293,10.149-0.696,20.771,4.472,29.802l197.295,332.057c2.387,4.018,4.124,8.367,5.18,12.92
					c3.615,15.582,11.114,53.771,7.199,88.514l-10.206,21.198l44.142-10.022l9.604-118.541l-12.497-7.619
					c-10.795-6.582-19.201-16.424-24.014-28.115c-17.84-43.334-62.142-153.644-73.563-207.402
					c-12.978-61.097-80.824-110.721-80.824-110.721l11.92-28.18L2550.56,2291.247z"/>
				
					<linearGradient id="SVGID_33_" gradientUnits="userSpaceOnUse" x1="4497.4795" y1="2780.9971" x2="4603.4229" y2="2780.9971" gradientTransform="matrix(-1 -0.0095 -0.0095 1 7355.769 53.8584)">
					<stop  offset="0" style="stop-color:#09005D"/>
					<stop  offset="1" style="stop-color:#1A0F91"/>
				</linearGradient>
				<path fill="url(#SVGID_33_)" d="M2831.764,2803.402c0,0-23.837-37.792-26.642-52.503c-2.805-14.71-10.612-40.688-25.309-32.867
					c0,0-6.925,71.46-4.537,99.383c2.387,27.922-31.564,27.023-31.564,27.023s-9.358,1.316-16.211,8.167
					c-4.732,4.731-1.348,12.938,5.328,13.368c11.111,0.717,28.76,0.904,47.29-2.676c6.477-1.252,11.277-6.763,11.67-13.348
					l4.892-82.244l30.068,37.967L2831.764,2803.402z"/>
				
					<linearGradient id="SVGID_34_" gradientUnits="userSpaceOnUse" x1="4829.208" y1="2533.8975" x2="4287.1592" y2="2707.2273" gradientTransform="matrix(-1 -0.0095 -0.0095 1 7355.769 53.8584)">
					<stop  offset="0" style="stop-color:#FEBBBA"/>
					<stop  offset="1" style="stop-color:#FF928E"/>
				</linearGradient>
				<path fill="url(#SVGID_34_)" d="M2668.421,2344.14c0,0,6.959,297.023,7.9,339.207c0.942,42.186-6.661,135.672-48.95,163.615
					l18.401,13.623c0,0,22.997-19.545,45.465-57.162c25.238-42.258,32.87-49.979,32.87-49.979l-8.375-17.151
					c-3.667-7.509-4.744-16.003-3.056-24.188c9.126-44.231,39.612-191.347,47.929-223.028
					c9.817-37.398,10.515-87.342-23.638-129.146S2668.421,2344.14,2668.421,2344.14z"/>
				
					<linearGradient id="SVGID_35_" gradientUnits="userSpaceOnUse" x1="4595.7031" y1="2800.1318" x2="4721.998" y2="2800.1318" gradientTransform="matrix(-1 -0.0095 -0.0095 1 7355.769 53.8584)">
					<stop  offset="0" style="stop-color:#09005D"/>
					<stop  offset="1" style="stop-color:#1A0F91"/>
				</linearGradient>
				<path fill="url(#SVGID_35_)" d="M2707.472,2873.972c1.313,0.012,2.428-0.927,2.612-2.227c1.408-9.901,7.266-49.6,12.061-59.881
					c5.492-11.771,23.431-61.322-0.011-65.529c0,0-58.272,85.138-69.458,96.616c-11.187,11.479-25.305,4.011-25.305,4.011
					s-10.899,3.219-19.118,13.723c-3.912,5-0.268,12.338,6.08,12.398l39.25,0.375c11.399,0.107,21.652-6.816,25.89-17.399
					c6.91-17.257,18.778-42.569,32.61-53.799l-7.188,68.823C2704.735,2872.618,2705.929,2873.958,2707.472,2873.972
					L2707.472,2873.972z"/>
				<linearGradient id="SVGID_36_" gradientUnits="userSpaceOnUse" x1="3109.8672" y1="1865.3486" x2="2805.6736" y2="2098.564">
					<stop  offset="0" style="stop-color:#09005D"/>
					<stop  offset="1" style="stop-color:#1A0F91"/>
				</linearGradient>
				<path fill="url(#SVGID_36_)" d="M2619.671,1983.481c0,0,8.845,28.191-4.743,74.627l-84.294,294.357
					c-1.324,4.625,1.172,9.467,5.7,11.092c25.214,9.049,108.1,34.627,221.247,26.826c5.696-0.393,10.474-4.426,11.712-10
					c7.455-33.559,32.892-148.054,38.129-171.58c19.958-89.641,42.24-186.313-55.787-244.766
					C2706.458,1983.388,2664.321,1994.794,2619.671,1983.481z"/>
				
					<linearGradient id="SVGID_37_" gradientUnits="userSpaceOnUse" x1="4499.4229" y1="1930.2959" x2="5100.6748" y2="1242.5521" gradientTransform="matrix(-0.9922 -0.1247 -0.1247 0.9922 7579.543 672.543)">
					<stop  offset="0" style="stop-color:#FEBBBA"/>
					<stop  offset="1" style="stop-color:#FF928E"/>
				</linearGradient>
				<path fill="url(#SVGID_37_)" d="M2775.702,1687.843c0,0,95.908,79.703,119.709,188.616
					c23.801,108.912-140.146,120.487-140.146,120.487s-22.256-24.854-48.68-15.988c-26.422,8.863-2.046-43.376,28.87-43.238
					c30.915,0.137,16.594,24.582,60.327,4.771c42.603-19.297,68.936-78.979-39.763-169.449c-6.301-5.244-11.328-11.93-14.355-19.549
					C2720.548,1700.337,2737.297,1665.492,2775.702,1687.843z"/>
			</g>
			<g>
				<g>
					<g>
						<rect x="2141.347" y="2501.587" fill="#7D97F4" width="34.209" height="369.957"/>
					</g>
					<g>
						<path fill="#7D97F4" d="M2308.265,2878.677h-299.627v-19.796c0-1.366,1.107-2.473,2.473-2.473h294.682
							c1.365,0,2.473,1.106,2.473,2.473V2878.677z"/>
					</g>
					<path fill="#7D97F4" d="M2364.926,2487.94c0,21.504-17.594,39.099-39.099,39.099h-322.169
						c-21.504,0-39.099-17.595-39.099-39.099v-35.352c0-21.504,17.595-39.098,39.099-39.098h322.169
						c21.505,0,39.099,17.594,39.099,39.098V2487.94z"/>
				</g>
				<g>
					
						<linearGradient id="SVGID_38_" gradientUnits="userSpaceOnUse" x1="335.7061" y1="2594.5107" x2="275.3205" y2="2713.269" gradientTransform="matrix(-0.9764 -0.2161 -0.2161 0.9764 2677.6951 211.1763)">
						<stop  offset="0" style="stop-color:#09005D"/>
						<stop  offset="1" style="stop-color:#1A0F91"/>
					</linearGradient>
					<path fill="url(#SVGID_38_)" d="M1855.197,2759.192c0,0-110.597,47.635-104.26,97.488c0,0,114.323-21.926,134.782-54.602
						s9.187-51.604,9.187-51.604L1855.197,2759.192z"/>
					
						<linearGradient id="SVGID_39_" gradientUnits="userSpaceOnUse" x1="220.8745" y1="2641.7695" x2="281.0313" y2="2641.7695" gradientTransform="matrix(-0.9764 -0.2161 -0.2161 0.9764 2677.6951 211.1763)">
						<stop  offset="0" style="stop-color:#FEBBBA"/>
						<stop  offset="1" style="stop-color:#FF928E"/>
					</linearGradient>
					<path fill="url(#SVGID_39_)" d="M1882.284,2704.748l5.615,48.538c0.847,7.324-3.222,14.552-10.158,17.05
						c-3.475,1.251-8.034,2.11-14.014,2.141c-8.437,0.042-15.908-5.504-18.162-13.636l-10.879-39.258L1882.284,2704.748z"/>
					
						<linearGradient id="SVGID_40_" gradientUnits="userSpaceOnUse" x1="137.6211" y1="2482.5928" x2="393.2604" y2="2124.2949" gradientTransform="matrix(-0.9764 -0.2161 -0.2161 0.9764 2677.6951 211.1763)">
						<stop  offset="0" style="stop-color:#09005D"/>
						<stop  offset="1" style="stop-color:#1A0F91"/>
					</linearGradient>
					<path fill="url(#SVGID_40_)" d="M2123.887,2332.53c0,0-203.419-9.412-304.639,49.615
						c-101.22,59.028,5.132,342.334,5.132,342.334s26.442,5.684,64.514-14.661c0,0-54.334-207.394,40.044-243.474
						c106.105-40.564,215.852-30.695,215.852-30.695l-20.333-96.713L2123.887,2332.53z"/>
					
						<linearGradient id="SVGID_41_" gradientUnits="userSpaceOnUse" x1="300.667" y1="2714.5811" x2="91.3137" y2="2988.3503" gradientTransform="matrix(-0.9764 -0.2161 -0.2161 0.9764 2677.6951 211.1763)">
						<stop  offset="0" style="stop-color:#09005D"/>
						<stop  offset="1" style="stop-color:#1A0F91"/>
					</linearGradient>
					<path fill="url(#SVGID_41_)" d="M1773.164,2834.804c23.128-5.068,91.721-33.488,102.138-33.106
						c10.418,0.382,25.178,15.99,25.178,15.99s2.541,8.531-4.908,20.781c-17.674,13.781-55.743,39.083-100.005,41.854
						c-32.559,2.038-52.148-10.916-63.354-23.483C1742.021,2847.292,1757.762,2838.18,1773.164,2834.804z"/>
					
						<linearGradient id="SVGID_42_" gradientUnits="userSpaceOnUse" x1="195.8975" y1="2773.874" x2="357.6606" y2="2773.874" gradientTransform="matrix(-0.9764 -0.2161 -0.2161 0.9764 2677.6951 211.1763)">
						<stop  offset="0" style="stop-color:#4F52FF"/>
						<stop  offset="1" style="stop-color:#4042E2"/>
					</linearGradient>
					<path fill="url(#SVGID_42_)" d="M1795.566,2880.323c44.262-2.771,82.331-28.073,100.005-41.854
						c-5.035,8.276-14.626,18.251-32.663,28.442c-44.729,25.271-118.657,21.586-133.312,15.898
						c-11.744-4.558-8.114-15.525,2.616-25.97C1743.418,2869.407,1763.008,2882.361,1795.566,2880.323z"/>
					
						<linearGradient id="SVGID_43_" gradientUnits="userSpaceOnUse" x1="177.375" y1="2697.2871" x2="233.8345" y2="2697.2871" gradientTransform="matrix(-0.9764 -0.2161 -0.2161 0.9764 2677.6951 211.1763)">
						<stop  offset="0" style="stop-color:#FEBBBA"/>
						<stop  offset="1" style="stop-color:#FF928E"/>
					</linearGradient>
					<path fill="url(#SVGID_43_)" d="M1924.765,2792.281c-1.514,5.729-17.716,22.935-27.082,32.527
						c-4.45,4.559-10.914,6.515-17.138,5.155c-3.947-0.863-8.407-2.211-12.264-4.305c-5.79-3.144-7.804-10.498-4.629-16.271
						l23.688-43.08L1924.765,2792.281z"/>
					
						<linearGradient id="SVGID_44_" gradientUnits="userSpaceOnUse" x1="45.4761" y1="2661.1455" x2="59.5665" y2="2182.0762" gradientTransform="matrix(-0.9764 -0.2161 -0.2161 0.9764 2677.6951 211.1763)">
						<stop  offset="0" style="stop-color:#09005D"/>
						<stop  offset="1" style="stop-color:#1A0F91"/>
					</linearGradient>
					<path fill="url(#SVGID_44_)" d="M2325.479,2315.471c0,0,17.755,125.965-33.583,151.712
						c-51.338,25.746-163.944,42.602-202.728,107.935c-38.784,65.332-108.443,193.566-171.833,230.411
						c0,0-36.202-11.773-46.783-29.58c0,0,75.243-197.799,106.633-245.877c27.183-41.635,66.934-101.617,123.407-127.561
						c16.166-7.426,17.434-24.578,14.588-42.139l-5.183-31.979L2325.479,2315.471z"/>
					<linearGradient id="SVGID_45_" gradientUnits="userSpaceOnUse" x1="2233.6836" y1="1890.1328" x2="1691.231" y2="2310.9143">
						<stop  offset="0" style="stop-color:#FF928E"/>
						<stop  offset="1" style="stop-color:#FE7062"/>
					</linearGradient>
					<path fill="url(#SVGID_45_)" d="M1849.659,2172.679c71.976,20.547,104.19-182.018,103.901-186.944l110.354,129.028
						c0,0-65.753,115.7-165.043,128.016c-25.12,3.115-46.486-1.231-64.41-9.442
						C1847.667,2211.71,1850.685,2190.349,1849.659,2172.679z"/>
					
						<linearGradient id="SVGID_46_" gradientUnits="userSpaceOnUse" x1="380.5674" y1="2103.0176" x2="577.5176" y2="2103.0176" gradientTransform="matrix(-0.9764 -0.2161 -0.2161 0.9764 2677.6951 211.1763)">
						<stop  offset="0" style="stop-color:#FEBBBA"/>
						<stop  offset="1" style="stop-color:#FF928E"/>
					</linearGradient>
					<path fill="url(#SVGID_46_)" d="M1716.37,2106.378c31.369-12.891,57.98,12.834,57.98,12.834
						c31.084,31.816,55.736,47.879,75.309,53.467c1.025,17.67-1.992,39.031-15.197,60.657
						c-38.781-17.767-61.389-53.683-70.699-71.605c-3.353-6.452-11.213-9.185-17.759-6.02c-6.65,3.215-13.502,8.119-13.931,14.781
						c-0.847,13.139-16.481,13.913-16.573,9.062c-0.091-4.854,12.108-30.803,12.108-30.803s-36.045,23.12-50.074,31.964
						c-14.03,8.845-25.98-5.751-25.98-5.751S1685.001,2119.27,1716.37,2106.378z"/>
					<linearGradient id="SVGID_47_" gradientUnits="userSpaceOnUse" x1="1610.0449" y1="2474.3604" x2="2127.1482" y2="2154.9734">
						<stop  offset="0" style="stop-color:#FF928E"/>
						<stop  offset="1" style="stop-color:#FE7062"/>
					</linearGradient>
					<path fill="url(#SVGID_47_)" d="M2297.752,1902.382c0,0-96.722-65.985-330.323,53.354c0,0-24.057,30.496-12.787,64.874
						c11.269,34.378,149.967,220.437,155.356,307.784c0,0,94.813,55.81,217.892,0.479
						C2327.89,2328.873,2369.163,2098.233,2297.752,1902.382z"/>
					
						<linearGradient id="SVGID_48_" gradientUnits="userSpaceOnUse" x1="161.938" y1="1755.5576" x2="292.6094" y2="1755.5576" gradientTransform="matrix(-0.9764 -0.2161 -0.2161 0.9764 2677.6951 211.1763)">
						<stop  offset="0" style="stop-color:#FEBBBA"/>
						<stop  offset="1" style="stop-color:#FF928E"/>
					</linearGradient>
					<path fill="url(#SVGID_48_)" d="M2096.344,1818.019l38.224,74.9c3.795,7.436,3.002,16.436-2.206,22.961
						c-10.526,13.188-32.499,30.914-69.999,19.489c-11.155-3.399-19.691-12.474-22.381-23.821l-19.813-83.602L2096.344,1818.019z"/>
					<linearGradient id="SVGID_49_" gradientUnits="userSpaceOnUse" x1="1641.3018" y1="2524.958" x2="2158.4038" y2="2205.5718">
						<stop  offset="0" style="stop-color:#FF928E"/>
						<stop  offset="1" style="stop-color:#FE7062"/>
					</linearGradient>
					<path fill="url(#SVGID_49_)" d="M2369.378,2163.924c6.547-45.53-113.764-133.774-113.764-133.774l42.138-127.768
						c0,0,229.579,163.836,181.299,297.633c-6.921,19.18-17.244,33.153-29.832,43.057
						C2424.907,2193.211,2391.937,2172.49,2369.378,2163.924z"/>
					
						<linearGradient id="SVGID_50_" gradientUnits="userSpaceOnUse" x1="456.6514" y1="2250.4717" x2="21.7665" y2="3006.1733" gradientTransform="matrix(-0.9952 0.0978 0.0978 0.9952 2475.8892 -75.0986)">
						<stop  offset="0" style="stop-color:#FEBBBA"/>
						<stop  offset="1" style="stop-color:#FF928E"/>
					</linearGradient>
					<path fill="url(#SVGID_50_)" d="M2201.53,2176.558c0,0,136.097,38.012,164.332-3.416c1.915-2.811,3.039-5.905,3.516-9.218
						c22.559,8.566,55.529,29.287,79.841,79.147c-64.618,50.834-189.207-6.15-223.061-23.231
						c-5.568-2.811-11.972-3.358-17.927-1.501c-12.04,3.758-32.903,9.592-44.528,8.953c-17.006-0.935-35.26,60.522-64.202,44.965
						C2099.501,2272.257,2112.655,2167.257,2201.53,2176.558z"/>
					<g>
						
							<linearGradient id="SVGID_51_" gradientUnits="userSpaceOnUse" x1="355.6289" y1="-355.3149" x2="170.2401" y2="-110.0608" gradientTransform="matrix(-0.6545 -0.7561 -0.7561 0.6545 2033.6912 2228.2241)">
							<stop  offset="0" style="stop-color:#FEBBBA"/>
							<stop  offset="1" style="stop-color:#FF928E"/>
						</linearGradient>
						<path fill="url(#SVGID_51_)" d="M2047.351,1695.614c-1.214,1.05-51.633,89.108-77.296,133.998
							c-7.836,13.705-1.969,31.152,12.541,37.371l11.118,4.766c15.193,6.512,47.861,11.965,60.721,1.578l81.053-85.557
							C2135.487,1787.771,2074.613,1672.017,2047.351,1695.614z"/>
						
							<linearGradient id="SVGID_52_" gradientUnits="userSpaceOnUse" x1="236.9238" y1="-369.7993" x2="432.0596" y2="-369.7993" gradientTransform="matrix(-0.6545 -0.7561 -0.7561 0.6545 2033.6912 2228.2241)">
							<stop  offset="0" style="stop-color:#09005D"/>
							<stop  offset="1" style="stop-color:#1A0F91"/>
						</linearGradient>
						<path fill="url(#SVGID_52_)" d="M2158.324,1764.429c9.939-5.584,21.892-16.895,12.587-36.896
							c-9.458-20.328-28.149-22.094-40.189-20.797c-4.869,0.523-9.272-2.57-10.688-7.258c-0.806-2.67-2.78-5.026-7.049-5.701
							c-5.752-0.91-9.324-6.783-7.823-12.41c2.884-10.809,2.393-25.489-14.992-36.015c-30.849-18.679-59.687,8.452-67.717,32.035
							s26.567,41.934,48.656,45.677c16.794,2.847,24.99,22.22,27.954,31.344c0.938,2.889,0.49,6.036-1.181,8.575l-24.644,37.444
							c6.777,8.526,12.784,17.537,18.704,26.652c2.216-2.388,4.155-4.375,5.67-5.765c10.703-9.806,29.735-4.745,37.575-2.05
							c2.571,0.885,5.365,0.678,7.779-0.57c8.535-4.411,25.768-16.804,11.645-40.237
							C2151.656,1773.552,2153.332,1767.235,2158.324,1764.429z"/>
						
							<linearGradient id="SVGID_53_" gradientUnits="userSpaceOnUse" x1="122.4307" y1="-186.8091" x2="253.4553" y2="-321.2369" gradientTransform="matrix(-0.6545 -0.7561 -0.7561 0.6545 2033.6912 2228.2241)">
							<stop  offset="0" style="stop-color:#FEBBBA"/>
							<stop  offset="1" style="stop-color:#FF928E"/>
						</linearGradient>
						<path fill="url(#SVGID_53_)" d="M2082.973,1843.085c0,0,15.755-40.494,33.663-38.234c17.909,2.258,31.305,20.752,8.192,39.947
							C2096.079,1868.675,2082.973,1843.085,2082.973,1843.085z"/>
					</g>
				</g>
				<g>
					
						<linearGradient id="SVGID_54_" gradientUnits="userSpaceOnUse" x1="12468.9287" y1="2869.5869" x2="12212.7559" y2="2939.7971" gradientTransform="matrix(0.9988 -0.0494 0.0494 0.9988 -10514.0273 -71.4453)">
						<stop  offset="0" style="stop-color:#09005D"/>
						<stop  offset="1" style="stop-color:#1A0F91"/>
					</linearGradient>
					<path fill="url(#SVGID_54_)" d="M2027.751,2263.212c-0.242,0.012-0.485,0.018-0.73,0.016l-317.949-0.347
						c-7.859-0.007-14.225-6.386-14.217-14.245c0.008-7.863,6.41-14.357,14.248-14.217l317.949,0.348
						c7.86,0.006,14.225,6.385,14.217,14.244C2041.26,2256.626,2035.271,2262.839,2027.751,2263.212z"/>
					
						<linearGradient id="SVGID_55_" gradientUnits="userSpaceOnUse" x1="12222.0967" y1="2013.2432" x2="12040.3301" y2="2205.3589" gradientTransform="matrix(1 0 0 1 -10487.1211 0)">
						<stop  offset="0" style="stop-color:#09005D"/>
						<stop  offset="1" style="stop-color:#1A0F91"/>
					</linearGradient>
					<path fill="url(#SVGID_55_)" d="M1423.249,1974.533h264.79c19.534,0,37.313,11.272,45.646,28.94l122.412,259.567h-329.064
						c-12.588,0-23.898-7.69-28.524-19.397l-94.926-240.192C1398.098,1989.573,1408.326,1974.533,1423.249,1974.533z"/>
					
						<ellipse transform="matrix(0.9519 -0.3064 0.3064 0.9519 -571.2527 588.8217)" fill="#91B3FA" cx="1589.938" cy="2114.014" rx="20.861" ry="33.91"/>
				</g>
				<g>
					<g>
						<path fill="#91B3FA" d="M1466.177,2945.151c-1.761,0-3.551-0.342-5.273-1.057c-6.778-2.823-9.91-10.432-6.994-16.994
							l280.214-630.646c2.914-6.56,10.77-9.59,17.554-6.771c6.778,2.823,9.909,10.432,6.993,16.994l-280.214,630.646
							C1476.283,2942.22,1471.355,2945.151,1466.177,2945.151z"/>
						<path fill="#91B3FA" d="M1781.851,2945.151c-5.178,0-10.105-2.93-12.28-7.827l-280.214-630.646
							c-2.917-6.563,0.215-14.171,6.994-16.994c6.774-2.823,14.635,0.207,17.553,6.771l280.214,630.646
							c2.917,6.563-0.215,14.171-6.993,16.994C1785.403,2944.81,1783.611,2945.151,1781.851,2945.151z"/>
						<path fill="#91B3FA" d="M2333.56,2945.151c-1.762,0-3.551-0.342-5.273-1.057c-6.777-2.823-9.909-10.432-6.993-16.994
							l280.214-630.646c2.916-6.56,10.767-9.59,17.554-6.771c6.778,2.823,9.909,10.432,6.994,16.994l-280.215,630.646
							C2343.665,2942.22,2338.738,2945.151,2333.56,2945.151z"/>
						<path fill="#91B3FA" d="M2649.231,2945.151c-5.179,0-10.105-2.93-12.28-7.827l-280.214-630.646
							c-2.916-6.563,0.215-14.171,6.993-16.994c6.774-2.823,14.636,0.207,17.554,6.771l280.214,630.646
							c2.916,6.563-0.216,14.171-6.993,16.994C2652.784,2944.81,2650.993,2945.151,2649.231,2945.151z"/>
					</g>
					<path fill="#91B3FA" d="M2682.099,2276.985c0.715-4.137-0.259-8.414-2.653-11.664s-5.961-5.133-9.726-5.133H1394.951
						c-4.949,0-9.556,2.824-12.222,7.492c-2.667,4.668-3.024,10.535-0.949,15.564l13.814,33.473
						c3.164,7.666,10.018,12.574,17.56,12.574h1247.82c7.016,0,13.046-5.57,14.379-13.283L2682.099,2276.985z"/>
				</g>
			</g>
		</g>
	</g>
</g>
</svg>
