<?xml version="1.0" encoding="utf-8"?>
<!-- Generator: Adobe Illustrator 16.0.0, SVG Export Plug-In . SVG Version: 6.00 Build 0)  -->
<!DOCTYPE svg PUBLIC "-//W3C//DTD SVG 1.1//EN" "http://www.w3.org/Graphics/SVG/1.1/DTD/svg11.dtd">
<svg version="1.1" id="Ñëîé_1" xmlns="http://www.w3.org/2000/svg" xmlns:xlink="http://www.w3.org/1999/xlink" x="0px" y="0px"
	 width="463px" height="335px" viewBox="0 0 463 335" enable-background="new 0 0 463 335" xml:space="preserve">
<g>
	<path fill="#FFFFFF" d="M197.616,364.748v-9.715h3.036c1.688,0,2.531,0.93,2.531,2.789c0,0.504-0.066,0.934-0.199,1.291
		c-0.133,0.357-0.325,0.637-0.575,0.838s-0.533,0.346-0.849,0.434c-0.316,0.088-0.68,0.133-1.09,0.133h-0.879v4.23H197.616z
		 M199.591,359.135h0.633c0.438,0,0.73-0.1,0.879-0.297s0.223-0.543,0.223-1.039c0-0.254-0.012-0.455-0.033-0.602
		s-0.068-0.285-0.14-0.416c-0.073-0.131-0.184-0.223-0.334-0.277c-0.151-0.055-0.348-0.082-0.594-0.082h-0.633V359.135z"/>
	<path fill="#FFFFFF" d="M204.161,364.748v-9.715h2.455c0.516,0,0.959,0.039,1.33,0.119c0.372,0.08,0.699,0.217,0.986,0.408
		s0.502,0.457,0.645,0.797c0.142,0.34,0.214,0.758,0.214,1.254c0,0.625-0.089,1.131-0.268,1.518
		c-0.178,0.387-0.482,0.68-0.916,0.879l1.341,4.74h-2.015l-1.114-4.383h-0.685v4.383H204.161z M206.136,359.17h0.492
		c0.477,0,0.815-0.113,1.014-0.338c0.199-0.225,0.299-0.582,0.299-1.074c0-0.48-0.088-0.832-0.262-1.053s-0.486-0.33-0.939-0.33
		h-0.604V359.17z"/>
	<path fill="#FFFFFF" d="M213.824,364.877c-0.528,0-0.977-0.072-1.348-0.215s-0.668-0.355-0.889-0.639s-0.38-0.615-0.48-0.998
		c-0.1-0.383-0.149-0.834-0.149-1.354v-3.586c0-0.52,0.049-0.971,0.149-1.352c0.1-0.381,0.259-0.709,0.48-0.986
		s0.518-0.486,0.889-0.627s0.82-0.211,1.348-0.211c1.027,0,1.763,0.268,2.21,0.803c0.448,0.535,0.672,1.326,0.672,2.373v3.586
		c0,1.047-0.225,1.842-0.672,2.387C215.587,364.604,214.851,364.877,213.824,364.877z M213.443,363.379
		c0.105,0.049,0.232,0.074,0.381,0.074c0.148,0,0.275-0.025,0.383-0.074c0.107-0.049,0.191-0.109,0.251-0.184
		c0.061-0.074,0.11-0.172,0.145-0.293c0.035-0.121,0.057-0.238,0.067-0.35c0.009-0.111,0.016-0.244,0.016-0.4v-4.547
		c0-0.156-0.006-0.291-0.016-0.402c-0.01-0.111-0.032-0.225-0.067-0.342c-0.035-0.117-0.083-0.213-0.145-0.285
		c-0.06-0.072-0.145-0.131-0.251-0.178c-0.108-0.047-0.235-0.07-0.383-0.07c-0.149,0-0.275,0.023-0.381,0.07
		c-0.106,0.047-0.188,0.105-0.247,0.178s-0.105,0.168-0.139,0.287s-0.055,0.234-0.064,0.344c-0.01,0.109-0.014,0.242-0.014,0.398
		v4.547c0,0.156,0.004,0.289,0.014,0.4c0.009,0.111,0.031,0.229,0.064,0.35s0.08,0.219,0.139,0.293S213.337,363.33,213.443,363.379z
		"/>
	<path fill="#FFFFFF" d="M220.491,364.883c-0.48,0-0.893-0.078-1.236-0.234s-0.617-0.385-0.82-0.686
		c-0.203-0.301-0.352-0.652-0.444-1.053s-0.137-0.865-0.137-1.396v-3.199c0-0.438,0.027-0.826,0.084-1.166s0.154-0.654,0.291-0.941
		s0.313-0.523,0.527-0.709s0.484-0.33,0.811-0.434c0.326-0.104,0.705-0.154,1.135-0.154c0.508,0,0.943,0.063,1.306,0.189
		c0.364,0.127,0.65,0.318,0.864,0.572c0.213,0.254,0.367,0.551,0.463,0.891s0.144,0.738,0.144,1.195v0.551h-1.916v-0.656
		c0-0.18-0.003-0.326-0.011-0.439s-0.028-0.232-0.059-0.355c-0.032-0.123-0.077-0.219-0.135-0.289
		c-0.059-0.07-0.141-0.129-0.244-0.174c-0.104-0.045-0.231-0.066-0.383-0.066c-0.161,0-0.295,0.027-0.404,0.084
		c-0.11,0.057-0.194,0.125-0.252,0.205s-0.105,0.193-0.139,0.338s-0.053,0.273-0.059,0.387c-0.005,0.113-0.008,0.262-0.008,0.445
		V362c0,0.473,0.065,0.832,0.193,1.078c0.129,0.246,0.369,0.369,0.721,0.369c0.356,0,0.602-0.133,0.74-0.396
		c0.139-0.264,0.209-0.639,0.209-1.127v-0.955h-0.956v-1.219h2.737v4.998h-1.295l-0.129-0.891
		C221.798,364.541,221.265,364.883,220.491,364.883z"/>
	<path fill="#FFFFFF" d="M224.851,364.748v-9.715h2.456c0.515,0,0.959,0.039,1.33,0.119c0.371,0.08,0.699,0.217,0.986,0.408
		c0.287,0.191,0.502,0.457,0.645,0.797s0.215,0.758,0.215,1.254c0,0.625-0.09,1.131-0.268,1.518
		c-0.178,0.387-0.482,0.68-0.916,0.879l1.342,4.74h-2.016l-1.113-4.383h-0.686v4.383H224.851z M226.825,359.17h0.493
		c0.477,0,0.814-0.113,1.014-0.338c0.199-0.225,0.298-0.582,0.298-1.074c0-0.48-0.088-0.832-0.261-1.053
		c-0.174-0.221-0.487-0.33-0.94-0.33h-0.604V359.17z"/>
	<path fill="#FFFFFF" d="M231.313,364.748l1.898-9.715h2.168l1.893,9.715h-1.834l-0.357-2.15h-1.541l-0.357,2.15H231.313z
		 M233.728,361.373h1.154l-0.58-3.867L233.728,361.373z"/>
	<path fill="#FFFFFF" d="M238.21,364.748l0.158-9.715h2.08l1.225,6.199l1.289-6.199h2.021l0.158,9.715h-1.447l-0.135-6.557
		l-1.26,6.557h-1.207l-1.295-6.592l-0.123,6.592H238.21z"/>
	<path fill="#FFFFFF" d="M246.536,364.748l0.158-9.715h2.08l1.225,6.199l1.289-6.199h2.021l0.158,9.715h-1.447l-0.135-6.557
		l-1.26,6.557h-1.207l-1.295-6.592l-0.123,6.592H246.536z"/>
	<path fill="#FFFFFF" d="M254.921,364.748v-9.715h1.963v9.715H254.921z"/>
	<path fill="#FFFFFF" d="M258.349,364.748v-9.715h1.377l2.168,5.045v-5.045h1.641v9.715h-1.318l-2.18-5.367v5.367H258.349z"/>
	<path fill="#FFFFFF" d="M267.466,364.883c-0.48,0-0.893-0.078-1.236-0.234s-0.617-0.385-0.82-0.686s-0.352-0.652-0.443-1.053
		s-0.137-0.865-0.137-1.396v-3.199c0-0.438,0.027-0.826,0.084-1.166s0.154-0.654,0.291-0.941s0.313-0.523,0.527-0.709
		s0.484-0.33,0.811-0.434s0.705-0.154,1.135-0.154c0.508,0,0.943,0.063,1.307,0.189s0.65,0.318,0.863,0.572s0.367,0.551,0.463,0.891
		s0.145,0.738,0.145,1.195v0.551h-1.916v-0.656c0-0.18-0.004-0.326-0.012-0.439s-0.027-0.232-0.059-0.355s-0.076-0.219-0.135-0.289
		s-0.141-0.129-0.244-0.174s-0.23-0.066-0.383-0.066c-0.16,0-0.295,0.027-0.404,0.084s-0.193,0.125-0.252,0.205
		s-0.105,0.193-0.139,0.338s-0.053,0.273-0.059,0.387s-0.008,0.262-0.008,0.445V362c0,0.473,0.064,0.832,0.193,1.078
		s0.369,0.369,0.721,0.369c0.355,0,0.602-0.133,0.74-0.396s0.209-0.639,0.209-1.127v-0.955h-0.955v-1.219h2.736v4.998h-1.295
		l-0.129-0.891C268.772,364.541,268.239,364.883,267.466,364.883z"/>
</g>
<linearGradient id="SVGID_1_" gradientUnits="userSpaceOnUse" x1="415.0586" y1="261.917" x2="447.6699" y2="261.917">
	<stop  offset="0" style="stop-color:#E39A65"/>
	<stop  offset="1" style="stop-color:#E95F8D"/>
</linearGradient>
<path fill="url(#SVGID_1_)" d="M431.364,271.506c-1.204,0-2.407-0.311-3.481-0.932l-11.736-6.775
	c-0.681-0.393-1.088-1.098-1.088-1.883s0.407-1.49,1.088-1.883l11.736-6.775c2.146-1.24,4.815-1.24,6.962,0l11.737,6.775
	c0.681,0.393,1.088,1.098,1.088,1.883s-0.407,1.49-1.088,1.883l-11.736,6.775C433.772,271.195,432.568,271.506,431.364,271.506z
	 M431.364,254.188c-0.883,0-1.765,0.227-2.552,0.682l-11.736,6.775c-0.136,0.08-0.156,0.205-0.156,0.271s0.021,0.191,0.156,0.271
	l11.737,6.775c0.001,0,0.001,0,0.001,0c1.572,0.908,3.527,0.908,5.102,0l11.736-6.775c0.136-0.08,0.156-0.205,0.156-0.271
	s-0.021-0.191-0.156-0.271l-11.737-6.775C433.128,254.414,432.246,254.188,431.364,254.188z"/>
<linearGradient id="SVGID_2_" gradientUnits="userSpaceOnUse" x1="370.4072" y1="217.2236" x2="425.1855" y2="217.2236">
	<stop  offset="0" style="stop-color:#E39A65"/>
	<stop  offset="1" style="stop-color:#E95F8D"/>
</linearGradient>
<path fill="url(#SVGID_2_)" d="M397.797,233.055c-1.956,0-3.911-0.504-5.655-1.512l-20.198-11.662
	c-0.962-0.555-1.536-1.547-1.536-2.658c0-1.109,0.574-2.104,1.536-2.658l20.197-11.66c3.486-2.016,7.822-2.016,11.311,0
	l20.199,11.66c0.961,0.555,1.535,1.549,1.535,2.658s-0.573,2.104-1.534,2.66l-20.199,11.66
	C401.709,232.551,399.752,233.055,397.797,233.055z M393.071,229.932c2.916,1.682,6.535,1.682,9.451,0l20.198-11.66
	c0.545-0.316,0.604-0.838,0.604-1.049c0-0.209-0.059-0.73-0.604-1.047l-20.199-11.66c-2.916-1.682-6.535-1.682-9.451,0
	l-20.197,11.66c-0.545,0.316-0.604,0.838-0.604,1.047c0,0.211,0.06,0.732,0.604,1.047L393.071,229.932z"/>
<linearGradient id="SVGID_3_" gradientUnits="userSpaceOnUse" x1="9.1851" y1="235.5752" x2="63.9629" y2="235.5752">
	<stop  offset="0" style="stop-color:#E39A65"/>
	<stop  offset="1" style="stop-color:#E95F8D"/>
</linearGradient>
<path fill="url(#SVGID_3_)" d="M36.574,251.406c-1.956,0-3.911-0.502-5.655-1.51l-20.2-11.662c-0.962-0.555-1.535-1.549-1.535-2.66
	c0-1.109,0.574-2.102,1.535-2.656l20.199-11.662c3.487-2.016,7.823-2.016,11.31,0l20.199,11.662
	c0.962,0.555,1.536,1.549,1.536,2.658c0,1.111-0.574,2.104-1.536,2.658l-20.198,11.662
	C40.486,250.902,38.529,251.406,36.574,251.406z M36.574,221.605c-1.634,0-3.268,0.422-4.726,1.262l-20.199,11.662
	c-0.545,0.314-0.604,0.836-0.604,1.047c0,0.209,0.059,0.732,0.605,1.047l20.198,11.662l0,0c2.917,1.682,6.535,1.682,9.451,0
	l20.198-11.662c0.546-0.314,0.604-0.836,0.604-1.047c0-0.209-0.059-0.73-0.604-1.047l-20.199-11.662
	C39.841,222.027,38.207,221.605,36.574,221.605z"/>
<g>
	<path opacity="0.6" fill="#020230" d="M241.12,302.281L96.69,218.894c-2.105-1.216-1.841-3.339,0.589-4.741l92.697-53.519
		c2.431-1.403,6.108-1.556,8.213-0.34L342.62,243.68c2.104,1.216,1.841,3.339-0.59,4.742l-92.697,53.519
		C246.902,303.344,243.226,303.496,241.12,302.281z"/>
	<linearGradient id="SVGID_4_" gradientUnits="userSpaceOnUse" x1="72.959" y1="232.0625" x2="365.3174" y2="232.0625">
		<stop  offset="0" style="stop-color:#E39A65"/>
		<stop  offset="1" style="stop-color:#E95F8D"/>
	</linearGradient>
	<path fill="url(#SVGID_4_)" d="M244.429,317.336c-1.688,0-3.308-0.352-4.545-1.066h0.001L75.047,221.102
		c-1.347-0.777-2.088-1.898-2.088-3.156c0-1.445,1.006-2.855,2.76-3.867l112.364-65.833c3.082-1.78,7.61-1.951,10.31-0.392
		l164.837,95.169c1.347,0.777,2.088,1.898,2.088,3.156c0,1.445-1.006,2.854-2.761,3.867l-112.363,65.832
		C248.522,316.844,246.428,317.336,244.429,317.336z M193.87,148.658c-1.688,0-3.483,0.407-4.851,1.196L76.656,215.686
		c-1.152,0.666-1.835,1.51-1.835,2.26c0,0.725,0.629,1.24,1.157,1.545l164.837,95.168c0.001,0,0.001,0,0.001,0
		c2.104,1.217,5.972,1.039,8.441-0.389l112.364-65.832c1.151-0.664,1.835-1.508,1.835-2.258c0-0.725-0.629-1.24-1.156-1.545
		l-164.837-95.169C196.523,148.923,195.231,148.658,193.87,148.658z"/>
	<radialGradient id="SVGID_5_" cx="234.4453" cy="15.6074" r="223.296" gradientUnits="userSpaceOnUse">
		<stop  offset="0" style="stop-color:#E39A65"/>
		<stop  offset="0.4742" style="stop-color:#A92FFB"/>
		<stop  offset="0.5947" style="stop-color:#891CFB"/>
		<stop  offset="0.7421" style="stop-color:#6507FA"/>
		<stop  offset="0.8016" style="stop-color:#0D0C6F"/>
	</radialGradient>
	<path fill="url(#SVGID_5_)" d="M380.989,103.881L237.127,20.822c-0.988-0.571-2.021-0.688-2.936-0.421v0l-0.001,0.001
		c-0.004,0.001-0.009,0.003-0.013,0.004l-2.664,0.928l0.938,0.222c-0.376,0.445-0.679,0.998-0.878,1.646l-32.534,105.631
		c-0.806,2.62,0.375,5.802,2.637,7.108l143.861,83.058c0.35,0.202,0.705,0.341,1.059,0.433l-0.356,0.776l2.545-0.894l-0.006-0.003
		c1.042-0.414,1.9-1.346,2.314-2.69l32.533-105.631C384.432,108.37,383.251,105.187,380.989,103.881z"/>
	<radialGradient id="SVGID_6_" cx="97.8735" cy="194.9316" r="244.1717" gradientUnits="userSpaceOnUse">
		<stop  offset="0" style="stop-color:#E39A65"/>
		<stop  offset="0.4742" style="stop-color:#A92FFB"/>
		<stop  offset="0.5679" style="stop-color:#891CFB"/>
		<stop  offset="0.6825" style="stop-color:#6507FA"/>
		<stop  offset="0.7381" style="stop-color:#0D0C6F"/>
	</radialGradient>
	<path fill="url(#SVGID_6_)" d="M340.388,222.942l0.051,0.062l-142.098-82.041c-2.09-1.207-5.742-1.056-8.155,0.338l-91.81,53.005
		l-3.061-1.168l0.86,4.295l0.004-0.003c0.114,0.646,0.566,1.251,1.378,1.72l143.412,82.799c2.091,1.207,5.741,1.056,8.155-0.338
		l92.043-53.141c1.136-0.656,1.788-1.47,1.95-2.273l0.006,0.006l0.878-4.18L340.388,222.942z"/>
	<radialGradient id="SVGID_7_" cx="120.3306" cy="145.9209" r="218.9599" gradientUnits="userSpaceOnUse">
		<stop  offset="0" style="stop-color:#E39A65"/>
		<stop  offset="0.4742" style="stop-color:#A92FFB"/>
		<stop  offset="0.5875" style="stop-color:#891CFB"/>
		<stop  offset="0.7262" style="stop-color:#6507FA"/>
		<stop  offset="1" style="stop-color:#3919BB"/>
	</radialGradient>
	<path fill="url(#SVGID_7_)" d="M241.12,278.17L96.69,194.783c-2.105-1.215-1.841-3.338,0.589-4.741l92.697-53.519
		c2.431-1.404,6.108-1.556,8.213-0.341L342.62,219.57c2.104,1.215,1.841,3.338-0.59,4.741l-92.697,53.519
		C246.902,279.233,243.226,279.387,241.12,278.17z"/>
	<path fill="#FFFFFF" d="M342.03,223.188l-92.697,53.518c-2.431,1.404-6.107,1.557-8.213,0.342L96.689,193.658
		c-0.717-0.414-1.138-0.937-1.313-1.497c-0.279,0.968,0.129,1.938,1.313,2.622L241.12,278.17c2.105,1.217,5.782,1.063,8.213-0.34
		l92.697-53.519c1.603-0.925,2.241-2.159,1.902-3.243C343.716,221.82,343.094,222.572,342.03,223.188z"/>
	<g opacity="0.4">
		<path fill="#06033E" d="M165.581,181.252l-4.876-2.816c-0.392-0.226-0.343-0.621,0.109-0.882l5.756-3.323
			c0.452-0.261,1.136-0.29,1.527-0.063l4.876,2.815c0.392,0.226,0.343,0.621-0.109,0.882l-5.756,3.322
			C166.656,181.449,165.973,181.478,165.581,181.252z"/>
		<path fill="#06033E" d="M173.111,185.6l-4.876-2.816c-0.392-0.226-0.343-0.621,0.109-0.881l5.756-3.324
			c0.452-0.261,1.136-0.289,1.527-0.063l4.876,2.814c0.392,0.227,0.343,0.621-0.109,0.883l-5.756,3.322
			C174.187,185.797,173.503,185.825,173.111,185.6z"/>
		<path fill="#06033E" d="M180.642,189.947l-4.876-2.816c-0.392-0.226-0.343-0.621,0.109-0.881l5.756-3.324
			c0.452-0.26,1.136-0.289,1.527-0.063l4.876,2.814c0.392,0.227,0.343,0.621-0.109,0.883l-5.756,3.322
			C181.717,190.145,181.033,190.172,180.642,189.947z"/>
		<path fill="#06033E" d="M191.057,186.355l-4.876-2.814c-0.392-0.227-0.342-0.621,0.11-0.882l4.831-2.79
			c0.452-0.261,1.136-0.29,1.528-0.063l4.876,2.815c0.392,0.227,0.342,0.621-0.109,0.883l-4.832,2.789
			C192.132,186.554,191.448,186.582,191.057,186.355z"/>
		<path fill="#06033E" d="M198.587,190.703l-4.876-2.814c-0.392-0.227-0.342-0.621,0.11-0.883l4.832-2.789
			c0.452-0.261,1.136-0.289,1.527-0.063l4.876,2.814c0.392,0.227,0.342,0.621-0.109,0.883l-4.832,2.789
			C199.662,190.901,198.978,190.93,198.587,190.703z"/>
		<path fill="#06033E" d="M206.117,195.051l-4.876-2.814c-0.392-0.227-0.342-0.621,0.11-0.883l4.832-2.789
			c0.452-0.261,1.136-0.289,1.527-0.063l4.876,2.814c0.392,0.227,0.342,0.621-0.11,0.883l-4.831,2.789
			C207.192,195.249,206.508,195.277,206.117,195.051z"/>
		<path fill="#06033E" d="M213.647,199.398l-4.876-2.814c-0.392-0.227-0.342-0.621,0.11-0.883l4.831-2.789
			c0.452-0.261,1.136-0.289,1.528-0.063l4.876,2.814c0.392,0.227,0.342,0.621-0.109,0.883l-4.832,2.789
			C214.723,199.597,214.039,199.625,213.647,199.398z"/>
		<path fill="#06033E" d="M221.177,203.746l-4.876-2.814c-0.392-0.227-0.342-0.621,0.11-0.883l4.831-2.789
			c0.452-0.261,1.136-0.289,1.528-0.063l4.876,2.814c0.392,0.227,0.342,0.621-0.109,0.882l-4.832,2.79
			C222.253,203.944,221.569,203.973,221.177,203.746z"/>
		<path fill="#06033E" d="M228.708,208.094l-4.876-2.814c-0.392-0.227-0.342-0.621,0.11-0.883l4.832-2.789
			c0.452-0.261,1.136-0.289,1.527-0.063l4.876,2.814c0.391,0.227,0.342,0.621-0.11,0.882l-4.831,2.79
			C229.783,208.292,229.099,208.32,228.708,208.094z"/>
		<path fill="#06033E" d="M236.238,212.441l-4.876-2.814c-0.392-0.227-0.342-0.621,0.11-0.883l4.831-2.789
			c0.452-0.261,1.136-0.289,1.527-0.063l4.877,2.814c0.391,0.227,0.342,0.621-0.11,0.883l-4.831,2.789
			C237.313,212.64,236.63,212.668,236.238,212.441z"/>
		<path fill="#06033E" d="M243.769,216.789l-4.876-2.814c-0.392-0.227-0.343-0.621,0.109-0.883l4.831-2.789
			c0.452-0.261,1.136-0.289,1.527-0.063l4.876,2.815c0.392,0.227,0.343,0.621-0.109,0.882l-4.831,2.79
			C244.844,216.986,244.16,217.016,243.769,216.789z"/>
		<path fill="#06033E" d="M251.299,221.137l-4.877-2.814c-0.391-0.227-0.342-0.621,0.11-0.883l4.831-2.789
			c0.452-0.262,1.136-0.289,1.527-0.063l4.877,2.815c0.391,0.227,0.342,0.621-0.11,0.882l-4.831,2.79
			C252.374,221.334,251.69,221.363,251.299,221.137z"/>
		<path fill="#06033E" d="M258.829,225.484l-4.876-2.814c-0.392-0.227-0.343-0.621,0.109-0.883l4.831-2.789
			c0.452-0.261,1.136-0.289,1.527-0.063l4.877,2.815c0.391,0.227,0.342,0.621-0.11,0.882l-4.831,2.79
			C259.904,225.682,259.221,225.711,258.829,225.484z"/>
		<path fill="#06033E" d="M202.152,184.298l-4.876-2.815c-0.392-0.227-0.343-0.621,0.109-0.882l4.832-2.79
			c0.452-0.261,1.136-0.289,1.527-0.063l4.876,2.815c0.392,0.226,0.343,0.621-0.109,0.882l-4.832,2.789
			C203.227,184.496,202.543,184.523,202.152,184.298z"/>
		<path fill="#06033E" d="M194.509,179.885l-4.876-2.815c-0.392-0.226-0.342-0.621,0.11-0.882l4.832-2.79
			c0.452-0.261,1.136-0.289,1.527-0.063l4.876,2.815c0.392,0.226,0.343,0.621-0.109,0.882l-4.832,2.789
			C195.584,180.083,194.901,180.111,194.509,179.885z"/>
		<path fill="#06033E" d="M186.854,175.465l-10.502-6.063c-0.392-0.226-0.342-0.621,0.109-0.882l4.832-2.79
			c0.452-0.261,1.136-0.29,1.527-0.063l10.502,6.063c0.391,0.226,0.342,0.621-0.11,0.882l-4.832,2.79
			C187.929,175.663,187.246,175.692,186.854,175.465z"/>
		<path fill="#06033E" d="M192.205,170.091l-8.523-4.921c-0.392-0.226-0.342-0.621,0.11-0.882l4.832-2.79
			c0.452-0.261,1.136-0.289,1.527-0.063l8.522,4.92c0.392,0.226,0.342,0.621-0.109,0.882l-4.832,2.789
			C193.28,170.289,192.596,170.317,192.205,170.091z"/>
		<path fill="#06033E" d="M209.682,188.646l-4.876-2.815c-0.391-0.227-0.342-0.621,0.11-0.882l4.832-2.79
			c0.452-0.26,1.136-0.289,1.527-0.063l4.876,2.814c0.391,0.227,0.342,0.621-0.11,0.883l-4.832,2.789
			C210.757,188.844,210.074,188.871,209.682,188.646z"/>
		<path fill="#06033E" d="M217.212,192.993l-4.876-2.815c-0.391-0.227-0.342-0.621,0.11-0.882l4.832-2.79
			c0.452-0.261,1.136-0.289,1.527-0.063l4.876,2.814c0.391,0.227,0.342,0.621-0.11,0.883l-4.832,2.789
			C218.288,193.19,217.604,193.219,217.212,192.993z"/>
		<path fill="#06033E" d="M224.743,197.34l-4.876-2.814c-0.391-0.227-0.342-0.621,0.11-0.882l4.832-2.79
			c0.452-0.26,1.136-0.289,1.527-0.063l4.876,2.814c0.392,0.227,0.343,0.621-0.109,0.883l-4.832,2.789
			C225.818,197.538,225.134,197.566,224.743,197.34z"/>
		<path fill="#06033E" d="M232.273,201.688l-4.876-2.814c-0.392-0.227-0.342-0.621,0.11-0.882l4.832-2.79
			c0.452-0.261,1.136-0.289,1.527-0.063l4.876,2.814c0.392,0.227,0.343,0.621-0.109,0.883l-4.832,2.789
			C233.348,201.886,232.665,201.914,232.273,201.688z"/>
		<path fill="#06033E" d="M239.803,206.035l-4.876-2.814c-0.391-0.227-0.342-0.621,0.11-0.882l4.831-2.79
			c0.452-0.261,1.136-0.289,1.527-0.063l4.876,2.814c0.392,0.227,0.343,0.621-0.109,0.883l-4.832,2.789
			C240.879,206.233,240.194,206.262,239.803,206.035z"/>
		<path fill="#06033E" d="M247.333,210.383l-4.876-2.814c-0.392-0.227-0.342-0.621,0.109-0.883l4.832-2.789
			c0.452-0.261,1.136-0.289,1.527-0.063l4.876,2.814c0.392,0.227,0.343,0.621-0.109,0.883l-4.831,2.789
			C248.409,210.581,247.725,210.609,247.333,210.383z"/>
		<path fill="#06033E" d="M254.863,214.73l-4.876-2.814c-0.392-0.227-0.343-0.621,0.109-0.883l4.832-2.789
			c0.452-0.261,1.136-0.289,1.527-0.063l4.876,2.814c0.392,0.227,0.343,0.621-0.109,0.883l-4.831,2.789
			C255.939,214.929,255.255,214.957,254.863,214.73z"/>
		<path fill="#06033E" d="M262.394,219.078l-4.876-2.814c-0.392-0.227-0.342-0.621,0.109-0.883l4.832-2.789
			c0.452-0.261,1.136-0.289,1.527-0.063l4.876,2.814c0.392,0.227,0.343,0.621-0.109,0.883l-4.832,2.789
			C263.47,219.276,262.785,219.305,262.394,219.078z"/>
		<path fill="#06033E" d="M269.924,223.426l-4.876-2.814c-0.392-0.227-0.342-0.621,0.11-0.883l4.831-2.789
			c0.452-0.261,1.136-0.289,1.527-0.063l4.876,2.814c0.392,0.227,0.343,0.621-0.109,0.882l-4.832,2.79
			C271,223.624,270.315,223.652,269.924,223.426z"/>
		<path fill="#06033E" d="M283.312,231.155l-10.64-6.143c-0.392-0.226-0.343-0.621,0.109-0.882l4.832-2.789
			c0.452-0.262,1.136-0.29,1.527-0.063l10.64,6.142c0.392,0.227,0.342,0.621-0.11,0.883l-4.831,2.789
			C284.387,231.354,283.703,231.381,283.312,231.155z"/>
		<path fill="#06033E" d="M297.972,222.691l-8.979-5.186c-0.392-0.226-0.343-0.62,0.109-0.881l4.831-2.79
			c0.452-0.261,1.136-0.289,1.527-0.063l8.98,5.186c0.392,0.226,0.343,0.62-0.109,0.881l-4.832,2.79
			C299.047,222.889,298.363,222.917,297.972,222.691z"/>
		<path fill="#06033E" d="M222.869,187.795l-4.876-2.815c-0.392-0.226-0.343-0.62,0.109-0.882l4.832-2.789
			c0.452-0.262,1.136-0.29,1.527-0.064l4.876,2.816c0.391,0.226,0.342,0.621-0.11,0.881l-4.832,2.79
			C223.944,187.992,223.261,188.021,222.869,187.795z"/>
		<path fill="#06033E" d="M215.151,183.34l-4.876-2.816c-0.392-0.226-0.342-0.621,0.11-0.882l4.831-2.79
			c0.452-0.261,1.136-0.29,1.528-0.063l4.876,2.815c0.392,0.226,0.342,0.621-0.109,0.882l-4.832,2.789
			C216.227,183.537,215.543,183.564,215.151,183.34z"/>
		<path fill="#06033E" d="M207.434,178.883l-4.876-2.815c-0.391-0.227-0.342-0.621,0.11-0.882l4.832-2.79
			c0.452-0.261,1.136-0.289,1.527-0.063l4.876,2.815c0.392,0.226,0.343,0.621-0.109,0.882l-4.832,2.79
			C208.509,179.081,207.826,179.109,207.434,178.883z"/>
		<path fill="#06033E" d="M199.716,174.427l-4.876-2.815c-0.392-0.226-0.342-0.621,0.109-0.882l4.832-2.79
			c0.452-0.261,1.136-0.29,1.527-0.063l4.876,2.815c0.392,0.226,0.342,0.621-0.11,0.882l-4.832,2.79
			C200.792,174.625,200.108,174.653,199.716,174.427z"/>
		<path fill="#06033E" d="M230.399,192.143l-4.876-2.815c-0.392-0.226-0.343-0.621,0.109-0.882l4.832-2.789
			c0.452-0.262,1.136-0.29,1.527-0.064l4.876,2.816c0.392,0.226,0.342,0.62-0.109,0.881l-4.832,2.79
			C231.475,192.34,230.791,192.368,230.399,192.143z"/>
		<path fill="#06033E" d="M237.93,196.49l-4.876-2.815c-0.392-0.226-0.343-0.621,0.109-0.882l4.832-2.789
			c0.451-0.262,1.136-0.289,1.527-0.064l4.876,2.816c0.392,0.226,0.342,0.62-0.109,0.881l-4.832,2.79
			C239.005,196.688,238.321,196.717,237.93,196.49z"/>
		<path fill="#06033E" d="M245.46,200.838l-4.876-2.815c-0.392-0.226-0.343-0.621,0.109-0.882l4.832-2.789
			c0.451-0.262,1.136-0.29,1.527-0.064l4.876,2.816c0.392,0.226,0.342,0.62-0.109,0.881l-4.832,2.79
			C246.535,201.035,245.852,201.063,245.46,200.838z"/>
		<path fill="#06033E" d="M252.99,205.186l-4.876-2.816c-0.392-0.225-0.343-0.62,0.109-0.881l4.832-2.789
			c0.452-0.262,1.136-0.29,1.527-0.064l4.876,2.816c0.392,0.226,0.342,0.62-0.109,0.881l-4.832,2.79
			C254.065,205.383,253.382,205.411,252.99,205.186z"/>
		<path fill="#06033E" d="M260.521,209.533l-4.876-2.816c-0.392-0.226-0.343-0.62,0.109-0.881l4.831-2.789
			c0.452-0.262,1.137-0.29,1.528-0.064l4.876,2.815c0.392,0.226,0.343,0.621-0.109,0.882l-4.832,2.789
			C261.596,209.73,260.912,209.759,260.521,209.533z"/>
		<path fill="#06033E" d="M268.051,213.881l-4.876-2.816c-0.392-0.226-0.343-0.62,0.109-0.881l4.831-2.79
			c0.452-0.261,1.137-0.289,1.528-0.063l4.876,2.816c0.392,0.225,0.342,0.62-0.109,0.881l-4.832,2.789
			C269.126,214.078,268.442,214.106,268.051,213.881z"/>
		<path fill="#06033E" d="M275.581,218.229l-4.876-2.816c-0.392-0.226-0.343-0.62,0.109-0.881l4.832-2.79
			c0.451-0.261,1.136-0.289,1.527-0.063l4.876,2.815c0.392,0.226,0.342,0.621-0.11,0.882l-4.831,2.789
			C276.656,218.426,275.973,218.454,275.581,218.229z"/>
		<path fill="#06033E" d="M283.111,222.576l-4.876-2.816c-0.392-0.226-0.343-0.62,0.109-0.881l4.832-2.789
			c0.451-0.262,1.136-0.29,1.527-0.064l4.876,2.816c0.392,0.226,0.342,0.62-0.109,0.881l-4.832,2.789
			C284.187,222.773,283.503,222.802,283.111,222.576z"/>
		<path fill="#06033E" d="M290.642,226.924l-4.876-2.815c-0.392-0.227-0.343-0.622,0.109-0.882l4.832-2.79
			c0.451-0.261,1.136-0.289,1.527-0.063l4.876,2.815c0.392,0.226,0.343,0.621-0.109,0.882l-4.832,2.789
			C291.717,227.121,291.033,227.148,290.642,226.924z"/>
		<path fill="#06033E" d="M218.904,177.041l-4.876-2.815c-0.392-0.226-0.342-0.621,0.11-0.882l4.831-2.79
			c0.452-0.261,1.136-0.29,1.528-0.063l4.876,2.815c0.392,0.226,0.342,0.621-0.11,0.882l-4.831,2.79
			C219.979,177.239,219.295,177.267,218.904,177.041z"/>
		<path fill="#06033E" d="M211.411,172.715l-4.876-2.815c-0.392-0.226-0.342-0.621,0.109-0.882l4.832-2.79
			c0.452-0.261,1.136-0.289,1.528-0.063l4.876,2.815c0.392,0.226,0.342,0.621-0.11,0.882l-4.832,2.79
			C212.486,172.913,211.803,172.941,211.411,172.715z"/>
		<path fill="#06033E" d="M203.918,168.389l-4.876-2.815c-0.391-0.226-0.342-0.621,0.11-0.882l4.832-2.79
			c0.452-0.261,1.136-0.29,1.527-0.063l4.876,2.815c0.391,0.226,0.342,0.621-0.11,0.882l-4.832,2.79
			C204.994,168.587,204.31,168.615,203.918,168.389z"/>
		<path fill="#06033E" d="M196.426,164.063l-4.876-2.815c-0.392-0.226-0.342-0.621,0.11-0.882l4.832-2.79
			c0.452-0.261,1.136-0.29,1.527-0.063l4.876,2.815c0.392,0.226,0.343,0.621-0.109,0.882l-4.832,2.79
			C197.501,164.261,196.817,164.29,196.426,164.063z"/>
		<path fill="#06033E" d="M204.13,159.615l-4.876-2.815c-0.392-0.226-0.343-0.621,0.109-0.882l1.597-0.922
			c0.452-0.261,1.136-0.29,1.528-0.063l4.876,2.815c0.392,0.226,0.342,0.621-0.11,0.882l-1.597,0.922
			C205.206,159.813,204.522,159.841,204.13,159.615z"/>
		<path fill="#06033E" d="M213.909,165.26l-4.876-2.815c-0.391-0.226-0.342-0.621,0.11-0.882l1.597-0.922
			c0.452-0.261,1.136-0.29,1.527-0.063l4.876,2.815c0.392,0.226,0.343,0.621-0.109,0.882l-1.597,0.922
			C214.984,165.458,214.3,165.486,213.909,165.26z"/>
		<path fill="#06033E" d="M221.37,169.568l-4.876-2.815c-0.392-0.226-0.343-0.621,0.109-0.882l1.597-0.922
			c0.452-0.261,1.136-0.29,1.528-0.063l4.876,2.815c0.392,0.227,0.342,0.621-0.11,0.882l-1.597,0.923
			C222.445,169.766,221.762,169.794,221.37,169.568z"/>
		<path fill="#06033E" d="M228.832,173.876l-4.876-2.815c-0.392-0.226-0.342-0.621,0.11-0.882l1.597-0.922
			c0.452-0.261,1.136-0.29,1.527-0.064l4.876,2.815c0.392,0.226,0.342,0.621-0.109,0.882l-1.597,0.922
			C229.907,174.074,229.223,174.102,228.832,173.876z"/>
		<path fill="#06033E" d="M236.293,178.184l-4.876-2.815c-0.391-0.226-0.342-0.621,0.11-0.881l1.597-0.922
			c0.452-0.261,1.136-0.29,1.527-0.063l4.876,2.815c0.392,0.226,0.343,0.621-0.109,0.882l-1.598,0.922
			C237.369,178.382,236.685,178.41,236.293,178.184z"/>
		<path fill="#06033E" d="M277.95,202.234l-4.876-2.814c-0.392-0.227-0.343-0.621,0.109-0.883l1.598-0.922
			c0.452-0.261,1.136-0.289,1.527-0.063l4.876,2.814c0.392,0.227,0.343,0.621-0.109,0.882l-1.598,0.923
			C279.025,202.433,278.342,202.461,277.95,202.234z"/>
		<path fill="#06033E" d="M285.412,206.543l-4.876-2.815c-0.392-0.226-0.343-0.621,0.109-0.882l1.597-0.922
			c0.452-0.262,1.137-0.289,1.527-0.064l4.877,2.816c0.392,0.226,0.342,0.621-0.11,0.881l-1.597,0.923
			C286.487,206.74,285.804,206.769,285.412,206.543z"/>
		<path fill="#06033E" d="M292.873,210.851l-4.876-2.815c-0.392-0.226-0.342-0.621,0.109-0.882l1.598-0.922
			c0.452-0.261,1.136-0.29,1.527-0.063l4.876,2.815c0.392,0.226,0.343,0.62-0.109,0.882l-1.598,0.922
			C293.949,211.049,293.265,211.076,292.873,210.851z"/>
		<path fill="#06033E" d="M300.335,215.158l-4.876-2.814c-0.392-0.227-0.343-0.621,0.109-0.883l1.598-0.922
			c0.452-0.261,1.136-0.289,1.527-0.063l4.876,2.814c0.392,0.227,0.343,0.621-0.109,0.883l-1.598,0.922
			C301.41,215.356,300.727,215.385,300.335,215.158z"/>
		<path fill="#06033E" d="M226.434,181.389l-4.876-2.815c-0.392-0.226-0.342-0.621,0.11-0.882l4.831-2.79
			c0.452-0.261,1.136-0.29,1.528-0.063l4.876,2.815c0.392,0.226,0.342,0.621-0.109,0.882l-4.832,2.79
			C227.51,181.586,226.826,181.615,226.434,181.389z"/>
		<path fill="#06033E" d="M233.964,185.736l-4.876-2.814c-0.392-0.227-0.342-0.621,0.11-0.883l4.831-2.789
			c0.452-0.261,1.136-0.29,1.527-0.063l4.877,2.815c0.391,0.227,0.342,0.621-0.11,0.882l-4.831,2.789
			C235.04,185.934,234.356,185.963,233.964,185.736z"/>
		<path fill="#06033E" d="M241.495,190.084l-4.876-2.815c-0.392-0.226-0.343-0.62,0.109-0.882l4.831-2.789
			c0.452-0.262,1.136-0.289,1.527-0.063l4.877,2.815c0.391,0.227,0.342,0.621-0.11,0.882l-4.831,2.79
			C242.57,190.281,241.887,190.311,241.495,190.084z"/>
		<path fill="#06033E" d="M249.025,194.432l-4.877-2.815c-0.391-0.226-0.342-0.62,0.11-0.882l4.831-2.789
			c0.452-0.262,1.136-0.289,1.527-0.063l4.877,2.815c0.391,0.226,0.342,0.621-0.11,0.881l-4.831,2.79
			C250.101,194.629,249.417,194.658,249.025,194.432z"/>
		<path fill="#06033E" d="M256.556,198.779l-4.877-2.814c-0.391-0.227-0.342-0.621,0.11-0.883l4.831-2.789
			c0.452-0.262,1.136-0.289,1.527-0.063l4.876,2.815c0.392,0.226,0.343,0.621-0.109,0.881l-4.831,2.791
			C257.631,198.977,256.947,199.006,256.556,198.779z"/>
		<path fill="#06033E" d="M264.086,203.127l-4.877-2.815c-0.391-0.226-0.342-0.621,0.11-0.882l4.831-2.789
			c0.452-0.262,1.136-0.289,1.527-0.063l4.877,2.815c0.391,0.226,0.342,0.621-0.11,0.881l-4.831,2.79
			C265.161,203.324,264.478,203.354,264.086,203.127z"/>
		<path fill="#06033E" d="M271.616,207.475l-4.877-2.815c-0.391-0.226-0.342-0.62,0.11-0.882l4.831-2.789
			c0.452-0.262,1.136-0.29,1.527-0.064l4.876,2.816c0.392,0.226,0.343,0.621-0.109,0.881l-4.831,2.79
			C272.691,207.672,272.008,207.701,271.616,207.475z"/>
		<path fill="#06033E" d="M279.146,211.822l-4.877-2.815c-0.391-0.226-0.342-0.62,0.11-0.882l4.831-2.789
			c0.452-0.262,1.136-0.29,1.527-0.064l4.876,2.816c0.392,0.226,0.343,0.621-0.109,0.881l-4.831,2.79
			C280.222,212.02,279.538,212.048,279.146,211.822z"/>
		<path fill="#06033E" d="M286.677,216.17l-4.877-2.815c-0.391-0.226-0.342-0.621,0.11-0.882l4.831-2.789
			c0.452-0.262,1.136-0.29,1.527-0.064l4.876,2.816c0.392,0.226,0.343,0.62-0.109,0.881l-4.831,2.79
			C287.752,216.367,287.068,216.396,286.677,216.17z"/>
		<path fill="#06033E" d="M183.382,181.926l-14.361-8.292c-0.391-0.226-0.342-0.621,0.11-0.882l4.832-2.79
			c0.452-0.261,1.136-0.289,1.527-0.063l14.361,8.291c0.392,0.226,0.342,0.621-0.11,0.882l-4.831,2.79
			C184.458,182.123,183.774,182.152,183.382,181.926z"/>
		<path fill="#06033E" d="M275.894,235.338l-14.36-8.292c-0.392-0.226-0.343-0.621,0.109-0.882l4.831-2.789
			c0.452-0.262,1.137-0.29,1.527-0.064l14.361,8.291c0.392,0.227,0.343,0.621-0.109,0.883l-4.832,2.789
			C276.969,235.535,276.285,235.563,275.894,235.338z"/>
		<path fill="#06033E" d="M245.779,227.554l-4.876-2.815c-0.392-0.227-0.343-0.621,0.109-0.882l5.756-3.323
			c0.452-0.261,1.136-0.289,1.527-0.063l4.876,2.814c0.392,0.227,0.342,0.621-0.109,0.883l-5.756,3.322
			C246.854,227.752,246.171,227.779,245.779,227.554z"/>
		<path fill="#06033E" d="M191.094,195.981l-7.798-4.503c-0.392-0.226-0.343-0.62,0.109-0.881l5.756-3.324
			c0.452-0.26,1.136-0.289,1.527-0.063l7.798,4.502c0.392,0.227,0.342,0.621-0.11,0.883l-5.755,3.322
			C192.169,196.18,191.486,196.207,191.094,195.981z"/>
		<path fill="#06033E" d="M238.523,223.365l-7.798-4.503c-0.392-0.226-0.342-0.621,0.11-0.882l5.756-3.323
			c0.452-0.261,1.136-0.289,1.527-0.063l7.798,4.503c0.392,0.226,0.343,0.62-0.109,0.882l-5.756,3.322
			C239.599,223.563,238.915,223.591,238.523,223.365z"/>
		<path fill="#06033E" d="M201.958,202.254l-7.798-4.502c-0.391-0.227-0.342-0.621,0.11-0.883l5.755-3.322
			c0.452-0.262,1.136-0.289,1.528-0.063l7.798,4.503c0.391,0.226,0.342,0.62-0.11,0.881l-5.755,3.323
			C203.034,202.451,202.35,202.48,201.958,202.254z"/>
		<path fill="#06033E" d="M201.606,193.514l33.905,19.576c0.421,0.242,0.421,0.636,0,0.879l-5.869,3.389
			c-0.421,0.242-1.103,0.242-1.523,0l-33.905-19.575L201.606,193.514z"/>
		<path fill="#06033E" d="M266.825,235.437l5.432,3.136c0.32,0.186,0.28,0.509-0.09,0.723l-2.354,1.359
			c-0.371,0.214-0.932,0.237-1.252,0.053l-5.432-3.137c-0.321-0.186-0.281-0.509,0.09-0.723l2.354-1.359
			C265.943,235.274,266.504,235.251,266.825,235.437z"/>
		<path fill="#06033E" d="M259.232,231.053l5.432,3.136c0.32,0.186,0.28,0.509-0.09,0.724l-2.354,1.359
			c-0.371,0.213-0.932,0.236-1.252,0.051l-5.432-3.136c-0.321-0.185-0.281-0.509,0.09-0.723l2.354-1.359
			C258.351,230.891,258.911,230.867,259.232,231.053z"/>
		<path fill="#06033E" d="M251.702,226.705l5.432,3.137c0.32,0.185,0.28,0.508-0.09,0.723l-2.354,1.359
			c-0.371,0.213-0.932,0.236-1.252,0.051l-5.432-3.135c-0.321-0.186-0.281-0.51,0.09-0.724l2.354-1.358
			C250.82,226.543,251.381,226.52,251.702,226.705z"/>
		<path fill="#06033E" d="M263.391,228.652l5.432,3.135c0.321,0.186,0.28,0.51-0.09,0.724l-2.354,1.359
			c-0.37,0.214-0.932,0.237-1.252,0.052l-5.432-3.136c-0.321-0.186-0.28-0.509,0.09-0.724l2.354-1.359
			C262.509,228.49,263.069,228.467,263.391,228.652z"/>
	</g>
	<g opacity="0.4">
		<path fill="#06033E" d="M165.581,181.252l-4.876-2.816c-0.392-0.226-0.343-0.621,0.109-0.882l5.756-3.323
			c0.452-0.261,1.136-0.29,1.527-0.063l4.876,2.815c0.392,0.226,0.343,0.621-0.109,0.882l-5.756,3.322
			C166.656,181.449,165.973,181.478,165.581,181.252z"/>
		<path fill="#06033E" d="M173.111,185.6l-4.876-2.816c-0.392-0.226-0.343-0.621,0.109-0.881l5.756-3.324
			c0.452-0.261,1.136-0.289,1.527-0.063l4.876,2.814c0.392,0.227,0.343,0.621-0.109,0.883l-5.756,3.322
			C174.187,185.797,173.503,185.825,173.111,185.6z"/>
		<path fill="#06033E" d="M180.642,189.947l-4.876-2.816c-0.392-0.226-0.343-0.621,0.109-0.881l5.756-3.324
			c0.452-0.26,1.136-0.289,1.527-0.063l4.876,2.814c0.392,0.227,0.343,0.621-0.109,0.883l-5.756,3.322
			C181.717,190.145,181.033,190.172,180.642,189.947z"/>
		<path fill="#06033E" d="M191.057,186.355l-4.876-2.814c-0.392-0.227-0.342-0.621,0.11-0.882l4.831-2.79
			c0.452-0.261,1.136-0.29,1.528-0.063l4.876,2.815c0.392,0.227,0.342,0.621-0.109,0.883l-4.832,2.789
			C192.132,186.554,191.448,186.582,191.057,186.355z"/>
		<path fill="#06033E" d="M198.587,190.703l-4.876-2.814c-0.392-0.227-0.342-0.621,0.11-0.883l4.832-2.789
			c0.452-0.261,1.136-0.289,1.527-0.063l4.876,2.814c0.392,0.227,0.342,0.621-0.109,0.883l-4.832,2.789
			C199.662,190.901,198.978,190.93,198.587,190.703z"/>
		<path fill="#06033E" d="M206.117,195.051l-4.876-2.814c-0.392-0.227-0.342-0.621,0.11-0.883l4.832-2.789
			c0.452-0.261,1.136-0.289,1.527-0.063l4.876,2.814c0.392,0.227,0.342,0.621-0.11,0.883l-4.831,2.789
			C207.192,195.249,206.508,195.277,206.117,195.051z"/>
		<path fill="#06033E" d="M213.647,199.398l-4.876-2.814c-0.392-0.227-0.342-0.621,0.11-0.883l4.831-2.789
			c0.452-0.261,1.136-0.289,1.528-0.063l4.876,2.814c0.392,0.227,0.342,0.621-0.109,0.883l-4.832,2.789
			C214.723,199.597,214.039,199.625,213.647,199.398z"/>
		<path fill="#06033E" d="M221.177,203.746l-4.876-2.814c-0.392-0.227-0.342-0.621,0.11-0.883l4.831-2.789
			c0.452-0.261,1.136-0.289,1.528-0.063l4.876,2.814c0.392,0.227,0.342,0.621-0.109,0.882l-4.832,2.79
			C222.253,203.944,221.569,203.973,221.177,203.746z"/>
		<path fill="#06033E" d="M228.708,208.094l-4.876-2.814c-0.392-0.227-0.342-0.621,0.11-0.883l4.832-2.789
			c0.452-0.261,1.136-0.289,1.527-0.063l4.876,2.814c0.391,0.227,0.342,0.621-0.11,0.882l-4.831,2.79
			C229.783,208.292,229.099,208.32,228.708,208.094z"/>
		<path fill="#06033E" d="M236.238,212.441l-4.876-2.814c-0.392-0.227-0.342-0.621,0.11-0.883l4.831-2.789
			c0.452-0.261,1.136-0.289,1.527-0.063l4.877,2.814c0.391,0.227,0.342,0.621-0.11,0.883l-4.831,2.789
			C237.313,212.64,236.63,212.668,236.238,212.441z"/>
		<path fill="#06033E" d="M243.769,216.789l-4.876-2.814c-0.392-0.227-0.343-0.621,0.109-0.883l4.831-2.789
			c0.452-0.261,1.136-0.289,1.527-0.063l4.876,2.815c0.392,0.227,0.343,0.621-0.109,0.882l-4.831,2.79
			C244.844,216.986,244.16,217.016,243.769,216.789z"/>
		<path fill="#06033E" d="M251.299,221.137l-4.877-2.814c-0.391-0.227-0.342-0.621,0.11-0.883l4.831-2.789
			c0.452-0.262,1.136-0.289,1.527-0.063l4.877,2.815c0.391,0.227,0.342,0.621-0.11,0.882l-4.831,2.79
			C252.374,221.334,251.69,221.363,251.299,221.137z"/>
		<path fill="#06033E" d="M258.829,225.484l-4.876-2.814c-0.392-0.227-0.343-0.621,0.109-0.883l4.831-2.789
			c0.452-0.261,1.136-0.289,1.527-0.063l4.877,2.815c0.391,0.227,0.342,0.621-0.11,0.882l-4.831,2.79
			C259.904,225.682,259.221,225.711,258.829,225.484z"/>
		<path fill="#06033E" d="M202.152,184.298l-4.876-2.815c-0.392-0.227-0.343-0.621,0.109-0.882l4.832-2.79
			c0.452-0.261,1.136-0.289,1.527-0.063l4.876,2.815c0.392,0.226,0.343,0.621-0.109,0.882l-4.832,2.789
			C203.227,184.496,202.543,184.523,202.152,184.298z"/>
		<path fill="#06033E" d="M194.509,179.885l-4.876-2.815c-0.392-0.226-0.342-0.621,0.11-0.882l4.832-2.79
			c0.452-0.261,1.136-0.289,1.527-0.063l4.876,2.815c0.392,0.226,0.343,0.621-0.109,0.882l-4.832,2.789
			C195.584,180.083,194.901,180.111,194.509,179.885z"/>
		<path fill="#06033E" d="M186.854,175.465l-10.502-6.063c-0.392-0.226-0.342-0.621,0.109-0.882l4.832-2.79
			c0.452-0.261,1.136-0.29,1.527-0.063l10.502,6.063c0.391,0.226,0.342,0.621-0.11,0.882l-4.832,2.79
			C187.929,175.663,187.246,175.692,186.854,175.465z"/>
		<path fill="#06033E" d="M192.205,170.091l-8.523-4.921c-0.392-0.226-0.342-0.621,0.11-0.882l4.832-2.79
			c0.452-0.261,1.136-0.289,1.527-0.063l8.522,4.92c0.392,0.226,0.342,0.621-0.109,0.882l-4.832,2.789
			C193.28,170.289,192.596,170.317,192.205,170.091z"/>
		<path fill="#06033E" d="M209.682,188.646l-4.876-2.815c-0.391-0.227-0.342-0.621,0.11-0.882l4.832-2.79
			c0.452-0.26,1.136-0.289,1.527-0.063l4.876,2.814c0.391,0.227,0.342,0.621-0.11,0.883l-4.832,2.789
			C210.757,188.844,210.074,188.871,209.682,188.646z"/>
		<path fill="#06033E" d="M217.212,192.993l-4.876-2.815c-0.391-0.227-0.342-0.621,0.11-0.882l4.832-2.79
			c0.452-0.261,1.136-0.289,1.527-0.063l4.876,2.814c0.391,0.227,0.342,0.621-0.11,0.883l-4.832,2.789
			C218.288,193.19,217.604,193.219,217.212,192.993z"/>
		<path fill="#06033E" d="M224.743,197.34l-4.876-2.814c-0.391-0.227-0.342-0.621,0.11-0.882l4.832-2.79
			c0.452-0.26,1.136-0.289,1.527-0.063l4.876,2.814c0.392,0.227,0.343,0.621-0.109,0.883l-4.832,2.789
			C225.818,197.538,225.134,197.566,224.743,197.34z"/>
		<path fill="#06033E" d="M232.273,201.688l-4.876-2.814c-0.392-0.227-0.342-0.621,0.11-0.882l4.832-2.79
			c0.452-0.261,1.136-0.289,1.527-0.063l4.876,2.814c0.392,0.227,0.343,0.621-0.109,0.883l-4.832,2.789
			C233.348,201.886,232.665,201.914,232.273,201.688z"/>
		<path fill="#06033E" d="M239.803,206.035l-4.876-2.814c-0.391-0.227-0.342-0.621,0.11-0.882l4.831-2.79
			c0.452-0.261,1.136-0.289,1.527-0.063l4.876,2.814c0.392,0.227,0.343,0.621-0.109,0.883l-4.832,2.789
			C240.879,206.233,240.194,206.262,239.803,206.035z"/>
		<path fill="#06033E" d="M247.333,210.383l-4.876-2.814c-0.392-0.227-0.342-0.621,0.109-0.883l4.832-2.789
			c0.452-0.261,1.136-0.289,1.527-0.063l4.876,2.814c0.392,0.227,0.343,0.621-0.109,0.883l-4.831,2.789
			C248.409,210.581,247.725,210.609,247.333,210.383z"/>
		<path fill="#06033E" d="M254.863,214.73l-4.876-2.814c-0.392-0.227-0.343-0.621,0.109-0.883l4.832-2.789
			c0.452-0.261,1.136-0.289,1.527-0.063l4.876,2.814c0.392,0.227,0.343,0.621-0.109,0.883l-4.831,2.789
			C255.939,214.929,255.255,214.957,254.863,214.73z"/>
		<path fill="#06033E" d="M262.394,219.078l-4.876-2.814c-0.392-0.227-0.342-0.621,0.109-0.883l4.832-2.789
			c0.452-0.261,1.136-0.289,1.527-0.063l4.876,2.814c0.392,0.227,0.343,0.621-0.109,0.883l-4.832,2.789
			C263.47,219.276,262.785,219.305,262.394,219.078z"/>
		<path fill="#06033E" d="M269.924,223.426l-4.876-2.814c-0.392-0.227-0.342-0.621,0.11-0.883l4.831-2.789
			c0.452-0.261,1.136-0.289,1.527-0.063l4.876,2.814c0.392,0.227,0.343,0.621-0.109,0.882l-4.832,2.79
			C271,223.624,270.315,223.652,269.924,223.426z"/>
		<path fill="#06033E" d="M283.312,231.155l-10.64-6.143c-0.392-0.226-0.343-0.621,0.109-0.882l4.832-2.789
			c0.452-0.262,1.136-0.29,1.527-0.063l10.64,6.142c0.392,0.227,0.342,0.621-0.11,0.883l-4.831,2.789
			C284.387,231.354,283.703,231.381,283.312,231.155z"/>
		<path fill="#06033E" d="M297.972,222.691l-8.979-5.186c-0.392-0.226-0.343-0.62,0.109-0.881l4.831-2.79
			c0.452-0.261,1.136-0.289,1.527-0.063l8.98,5.186c0.392,0.226,0.343,0.62-0.109,0.881l-4.832,2.79
			C299.047,222.889,298.363,222.917,297.972,222.691z"/>
		<path fill="#06033E" d="M222.869,187.795l-4.876-2.815c-0.392-0.226-0.343-0.62,0.109-0.882l4.832-2.789
			c0.452-0.262,1.136-0.29,1.527-0.064l4.876,2.816c0.391,0.226,0.342,0.621-0.11,0.881l-4.832,2.79
			C223.944,187.992,223.261,188.021,222.869,187.795z"/>
		<path fill="#06033E" d="M215.151,183.34l-4.876-2.816c-0.392-0.226-0.342-0.621,0.11-0.882l4.831-2.79
			c0.452-0.261,1.136-0.29,1.528-0.063l4.876,2.815c0.392,0.226,0.342,0.621-0.109,0.882l-4.832,2.789
			C216.227,183.537,215.543,183.564,215.151,183.34z"/>
		<path fill="#06033E" d="M207.434,178.883l-4.876-2.815c-0.391-0.227-0.342-0.621,0.11-0.882l4.832-2.79
			c0.452-0.261,1.136-0.289,1.527-0.063l4.876,2.815c0.392,0.226,0.343,0.621-0.109,0.882l-4.832,2.79
			C208.509,179.081,207.826,179.109,207.434,178.883z"/>
		<path fill="#06033E" d="M199.716,174.427l-4.876-2.815c-0.392-0.226-0.342-0.621,0.109-0.882l4.832-2.79
			c0.452-0.261,1.136-0.29,1.527-0.063l4.876,2.815c0.392,0.226,0.342,0.621-0.11,0.882l-4.832,2.79
			C200.792,174.625,200.108,174.653,199.716,174.427z"/>
		<path fill="#06033E" d="M230.399,192.143l-4.876-2.815c-0.392-0.226-0.343-0.621,0.109-0.882l4.832-2.789
			c0.452-0.262,1.136-0.29,1.527-0.064l4.876,2.816c0.392,0.226,0.342,0.62-0.109,0.881l-4.832,2.79
			C231.475,192.34,230.791,192.368,230.399,192.143z"/>
		<path fill="#06033E" d="M237.93,196.49l-4.876-2.815c-0.392-0.226-0.343-0.621,0.109-0.882l4.832-2.789
			c0.451-0.262,1.136-0.289,1.527-0.064l4.876,2.816c0.392,0.226,0.342,0.62-0.109,0.881l-4.832,2.79
			C239.005,196.688,238.321,196.717,237.93,196.49z"/>
		<path fill="#06033E" d="M245.46,200.838l-4.876-2.815c-0.392-0.226-0.343-0.621,0.109-0.882l4.832-2.789
			c0.451-0.262,1.136-0.29,1.527-0.064l4.876,2.816c0.392,0.226,0.342,0.62-0.109,0.881l-4.832,2.79
			C246.535,201.035,245.852,201.063,245.46,200.838z"/>
		<path fill="#06033E" d="M252.99,205.186l-4.876-2.816c-0.392-0.225-0.343-0.62,0.109-0.881l4.832-2.789
			c0.452-0.262,1.136-0.29,1.527-0.064l4.876,2.816c0.392,0.226,0.342,0.62-0.109,0.881l-4.832,2.79
			C254.065,205.383,253.382,205.411,252.99,205.186z"/>
		<path fill="#06033E" d="M260.521,209.533l-4.876-2.816c-0.392-0.226-0.343-0.62,0.109-0.881l4.831-2.789
			c0.452-0.262,1.137-0.29,1.528-0.064l4.876,2.815c0.392,0.226,0.343,0.621-0.109,0.882l-4.832,2.789
			C261.596,209.73,260.912,209.759,260.521,209.533z"/>
		<path fill="#06033E" d="M268.051,213.881l-4.876-2.816c-0.392-0.226-0.343-0.62,0.109-0.881l4.831-2.79
			c0.452-0.261,1.137-0.289,1.528-0.063l4.876,2.816c0.392,0.225,0.342,0.62-0.109,0.881l-4.832,2.789
			C269.126,214.078,268.442,214.106,268.051,213.881z"/>
		<path fill="#06033E" d="M275.581,218.229l-4.876-2.816c-0.392-0.226-0.343-0.62,0.109-0.881l4.832-2.79
			c0.451-0.261,1.136-0.289,1.527-0.063l4.876,2.815c0.392,0.226,0.342,0.621-0.11,0.882l-4.831,2.789
			C276.656,218.426,275.973,218.454,275.581,218.229z"/>
		<path fill="#06033E" d="M283.111,222.576l-4.876-2.816c-0.392-0.226-0.343-0.62,0.109-0.881l4.832-2.789
			c0.451-0.262,1.136-0.29,1.527-0.064l4.876,2.816c0.392,0.226,0.342,0.62-0.109,0.881l-4.832,2.789
			C284.187,222.773,283.503,222.802,283.111,222.576z"/>
		<path fill="#06033E" d="M290.642,226.924l-4.876-2.815c-0.392-0.227-0.343-0.622,0.109-0.882l4.832-2.79
			c0.451-0.261,1.136-0.289,1.527-0.063l4.876,2.815c0.392,0.226,0.343,0.621-0.109,0.882l-4.832,2.789
			C291.717,227.121,291.033,227.148,290.642,226.924z"/>
		<path fill="#06033E" d="M218.904,177.041l-4.876-2.815c-0.392-0.226-0.342-0.621,0.11-0.882l4.831-2.79
			c0.452-0.261,1.136-0.29,1.528-0.063l4.876,2.815c0.392,0.226,0.342,0.621-0.11,0.882l-4.831,2.79
			C219.979,177.239,219.295,177.267,218.904,177.041z"/>
		<path fill="#06033E" d="M211.411,172.715l-4.876-2.815c-0.392-0.226-0.342-0.621,0.109-0.882l4.832-2.79
			c0.452-0.261,1.136-0.289,1.528-0.063l4.876,2.815c0.392,0.226,0.342,0.621-0.11,0.882l-4.832,2.79
			C212.486,172.913,211.803,172.941,211.411,172.715z"/>
		<path fill="#06033E" d="M203.918,168.389l-4.876-2.815c-0.391-0.226-0.342-0.621,0.11-0.882l4.832-2.79
			c0.452-0.261,1.136-0.29,1.527-0.063l4.876,2.815c0.391,0.226,0.342,0.621-0.11,0.882l-4.832,2.79
			C204.994,168.587,204.31,168.615,203.918,168.389z"/>
		<path fill="#06033E" d="M196.426,164.063l-4.876-2.815c-0.392-0.226-0.342-0.621,0.11-0.882l4.832-2.79
			c0.452-0.261,1.136-0.29,1.527-0.063l4.876,2.815c0.392,0.226,0.343,0.621-0.109,0.882l-4.832,2.79
			C197.501,164.261,196.817,164.29,196.426,164.063z"/>
		<path fill="#06033E" d="M204.13,159.615l-4.876-2.815c-0.392-0.226-0.343-0.621,0.109-0.882l1.597-0.922
			c0.452-0.261,1.136-0.29,1.528-0.063l4.876,2.815c0.392,0.226,0.342,0.621-0.11,0.882l-1.597,0.922
			C205.206,159.813,204.522,159.841,204.13,159.615z"/>
		<path fill="#06033E" d="M213.909,165.26l-4.876-2.815c-0.391-0.226-0.342-0.621,0.11-0.882l1.597-0.922
			c0.452-0.261,1.136-0.29,1.527-0.063l4.876,2.815c0.392,0.226,0.343,0.621-0.109,0.882l-1.597,0.922
			C214.984,165.458,214.3,165.486,213.909,165.26z"/>
		<path fill="#06033E" d="M221.37,169.568l-4.876-2.815c-0.392-0.226-0.343-0.621,0.109-0.882l1.597-0.922
			c0.452-0.261,1.136-0.29,1.528-0.063l4.876,2.815c0.392,0.227,0.342,0.621-0.11,0.882l-1.597,0.923
			C222.445,169.766,221.762,169.794,221.37,169.568z"/>
		<path fill="#06033E" d="M228.832,173.876l-4.876-2.815c-0.392-0.226-0.342-0.621,0.11-0.882l1.597-0.922
			c0.452-0.261,1.136-0.29,1.527-0.064l4.876,2.815c0.392,0.226,0.342,0.621-0.109,0.882l-1.597,0.922
			C229.907,174.074,229.223,174.102,228.832,173.876z"/>
		<path fill="#06033E" d="M236.293,178.184l-4.876-2.815c-0.391-0.226-0.342-0.621,0.11-0.881l1.597-0.922
			c0.452-0.261,1.136-0.29,1.527-0.063l4.876,2.815c0.392,0.226,0.343,0.621-0.109,0.882l-1.598,0.922
			C237.369,178.382,236.685,178.41,236.293,178.184z"/>
		<path fill="#06033E" d="M277.95,202.234l-4.876-2.814c-0.392-0.227-0.343-0.621,0.109-0.883l1.598-0.922
			c0.452-0.261,1.136-0.289,1.527-0.063l4.876,2.814c0.392,0.227,0.343,0.621-0.109,0.882l-1.598,0.923
			C279.025,202.433,278.342,202.461,277.95,202.234z"/>
		<path fill="#06033E" d="M285.412,206.543l-4.876-2.815c-0.392-0.226-0.343-0.621,0.109-0.882l1.597-0.922
			c0.452-0.262,1.137-0.289,1.527-0.064l4.877,2.816c0.392,0.226,0.342,0.621-0.11,0.881l-1.597,0.923
			C286.487,206.74,285.804,206.769,285.412,206.543z"/>
		<path fill="#06033E" d="M292.873,210.851l-4.876-2.815c-0.392-0.226-0.342-0.621,0.109-0.882l1.598-0.922
			c0.452-0.261,1.136-0.29,1.527-0.063l4.876,2.815c0.392,0.226,0.343,0.62-0.109,0.882l-1.598,0.922
			C293.949,211.049,293.265,211.076,292.873,210.851z"/>
		<path fill="#06033E" d="M300.335,215.158l-4.876-2.814c-0.392-0.227-0.343-0.621,0.109-0.883l1.598-0.922
			c0.452-0.261,1.136-0.289,1.527-0.063l4.876,2.814c0.392,0.227,0.343,0.621-0.109,0.883l-1.598,0.922
			C301.41,215.356,300.727,215.385,300.335,215.158z"/>
		<path fill="#06033E" d="M226.434,181.389l-4.876-2.815c-0.392-0.226-0.342-0.621,0.11-0.882l4.831-2.79
			c0.452-0.261,1.136-0.29,1.528-0.063l4.876,2.815c0.392,0.226,0.342,0.621-0.109,0.882l-4.832,2.79
			C227.51,181.586,226.826,181.615,226.434,181.389z"/>
		<path fill="#06033E" d="M233.964,185.736l-4.876-2.814c-0.392-0.227-0.342-0.621,0.11-0.883l4.831-2.789
			c0.452-0.261,1.136-0.29,1.527-0.063l4.877,2.815c0.391,0.227,0.342,0.621-0.11,0.882l-4.831,2.789
			C235.04,185.934,234.356,185.963,233.964,185.736z"/>
		<path fill="#06033E" d="M241.495,190.084l-4.876-2.815c-0.392-0.226-0.343-0.62,0.109-0.882l4.831-2.789
			c0.452-0.262,1.136-0.289,1.527-0.063l4.877,2.815c0.391,0.227,0.342,0.621-0.11,0.882l-4.831,2.79
			C242.57,190.281,241.887,190.311,241.495,190.084z"/>
		<path fill="#06033E" d="M249.025,194.432l-4.877-2.815c-0.391-0.226-0.342-0.62,0.11-0.882l4.831-2.789
			c0.452-0.262,1.136-0.289,1.527-0.063l4.877,2.815c0.391,0.226,0.342,0.621-0.11,0.881l-4.831,2.79
			C250.101,194.629,249.417,194.658,249.025,194.432z"/>
		<path fill="#06033E" d="M256.556,198.779l-4.877-2.814c-0.391-0.227-0.342-0.621,0.11-0.883l4.831-2.789
			c0.452-0.262,1.136-0.289,1.527-0.063l4.876,2.815c0.392,0.226,0.343,0.621-0.109,0.881l-4.831,2.791
			C257.631,198.977,256.947,199.006,256.556,198.779z"/>
		<path fill="#06033E" d="M264.086,203.127l-4.877-2.815c-0.391-0.226-0.342-0.621,0.11-0.882l4.831-2.789
			c0.452-0.262,1.136-0.289,1.527-0.063l4.877,2.815c0.391,0.226,0.342,0.621-0.11,0.881l-4.831,2.79
			C265.161,203.324,264.478,203.354,264.086,203.127z"/>
		<path fill="#06033E" d="M271.616,207.475l-4.877-2.815c-0.391-0.226-0.342-0.62,0.11-0.882l4.831-2.789
			c0.452-0.262,1.136-0.29,1.527-0.064l4.876,2.816c0.392,0.226,0.343,0.621-0.109,0.881l-4.831,2.79
			C272.691,207.672,272.008,207.701,271.616,207.475z"/>
		<path fill="#06033E" d="M279.146,211.822l-4.877-2.815c-0.391-0.226-0.342-0.62,0.11-0.882l4.831-2.789
			c0.452-0.262,1.136-0.29,1.527-0.064l4.876,2.816c0.392,0.226,0.343,0.621-0.109,0.881l-4.831,2.79
			C280.222,212.02,279.538,212.048,279.146,211.822z"/>
		<path fill="#06033E" d="M286.677,216.17l-4.877-2.815c-0.391-0.226-0.342-0.621,0.11-0.882l4.831-2.789
			c0.452-0.262,1.136-0.29,1.527-0.064l4.876,2.816c0.392,0.226,0.343,0.62-0.109,0.881l-4.831,2.79
			C287.752,216.367,287.068,216.396,286.677,216.17z"/>
		<path fill="#06033E" d="M183.382,181.926l-14.361-8.292c-0.391-0.226-0.342-0.621,0.11-0.882l4.832-2.79
			c0.452-0.261,1.136-0.289,1.527-0.063l14.361,8.291c0.392,0.226,0.342,0.621-0.11,0.882l-4.831,2.79
			C184.458,182.123,183.774,182.152,183.382,181.926z"/>
		<path fill="#06033E" d="M275.894,235.338l-14.36-8.292c-0.392-0.226-0.343-0.621,0.109-0.882l4.831-2.789
			c0.452-0.262,1.137-0.29,1.527-0.064l14.361,8.291c0.392,0.227,0.343,0.621-0.109,0.883l-4.832,2.789
			C276.969,235.535,276.285,235.563,275.894,235.338z"/>
		<path fill="#06033E" d="M245.779,227.554l-4.876-2.815c-0.392-0.227-0.343-0.621,0.109-0.882l5.756-3.323
			c0.452-0.261,1.136-0.289,1.527-0.063l4.876,2.814c0.392,0.227,0.342,0.621-0.109,0.883l-5.756,3.322
			C246.854,227.752,246.171,227.779,245.779,227.554z"/>
		<path fill="#06033E" d="M191.094,195.981l-7.798-4.503c-0.392-0.226-0.343-0.62,0.109-0.881l5.756-3.324
			c0.452-0.26,1.136-0.289,1.527-0.063l7.798,4.502c0.392,0.227,0.342,0.621-0.11,0.883l-5.755,3.322
			C192.169,196.18,191.486,196.207,191.094,195.981z"/>
		<path fill="#06033E" d="M238.523,223.365l-7.798-4.503c-0.392-0.226-0.342-0.621,0.11-0.882l5.756-3.323
			c0.452-0.261,1.136-0.289,1.527-0.063l7.798,4.503c0.392,0.226,0.343,0.62-0.109,0.882l-5.756,3.322
			C239.599,223.563,238.915,223.591,238.523,223.365z"/>
		<path fill="#06033E" d="M201.958,202.254l-7.798-4.502c-0.391-0.227-0.342-0.621,0.11-0.883l5.755-3.322
			c0.452-0.262,1.136-0.289,1.528-0.063l7.798,4.503c0.391,0.226,0.342,0.62-0.11,0.881l-5.755,3.323
			C203.034,202.451,202.35,202.48,201.958,202.254z"/>
		<path fill="#06033E" d="M201.606,193.514l33.905,19.576c0.421,0.242,0.421,0.636,0,0.879l-5.869,3.389
			c-0.421,0.242-1.103,0.242-1.523,0l-33.905-19.575L201.606,193.514z"/>
		<path fill="#06033E" d="M266.825,235.437l5.432,3.136c0.32,0.186,0.28,0.509-0.09,0.723l-2.354,1.359
			c-0.371,0.214-0.932,0.237-1.252,0.053l-5.432-3.137c-0.321-0.186-0.281-0.509,0.09-0.723l2.354-1.359
			C265.943,235.274,266.504,235.251,266.825,235.437z"/>
		<path fill="#06033E" d="M259.232,231.053l5.432,3.136c0.32,0.186,0.28,0.509-0.09,0.724l-2.354,1.359
			c-0.371,0.213-0.932,0.236-1.252,0.051l-5.432-3.136c-0.321-0.185-0.281-0.509,0.09-0.723l2.354-1.359
			C258.351,230.891,258.911,230.867,259.232,231.053z"/>
		<path fill="#06033E" d="M251.702,226.705l5.432,3.137c0.32,0.185,0.28,0.508-0.09,0.723l-2.354,1.359
			c-0.371,0.213-0.932,0.236-1.252,0.051l-5.432-3.135c-0.321-0.186-0.281-0.51,0.09-0.724l2.354-1.358
			C250.82,226.543,251.381,226.52,251.702,226.705z"/>
		<path fill="#06033E" d="M263.391,228.652l5.432,3.135c0.321,0.186,0.28,0.51-0.09,0.724l-2.354,1.359
			c-0.37,0.214-0.932,0.237-1.252,0.052l-5.432-3.136c-0.321-0.186-0.28-0.509,0.09-0.724l2.354-1.359
			C262.509,228.49,263.069,228.467,263.391,228.652z"/>
	</g>
	<radialGradient id="SVGID_8_" cx="174.8774" cy="62.1846" r="223.3408" gradientUnits="userSpaceOnUse">
		<stop  offset="0" style="stop-color:#E39A65"/>
		<stop  offset="0.4742" style="stop-color:#A92FFB"/>
		<stop  offset="0.5875" style="stop-color:#891CFB"/>
		<stop  offset="0.7262" style="stop-color:#6507FA"/>
		<stop  offset="1" style="stop-color:#3919BB"/>
	</radialGradient>
	<path fill="url(#SVGID_8_)" d="M343.086,219.856l-143.862-83.059c-2.262-1.306-3.443-4.489-2.637-7.108l32.534-105.631
		c0.806-2.62,3.293-3.685,5.555-2.378l143.862,83.059c2.262,1.306,3.442,4.488,2.637,7.108l-32.533,105.631
		C347.836,220.098,345.349,221.162,343.086,219.856z"/>
	<linearGradient id="SVGID_9_" gradientUnits="userSpaceOnUse" x1="199.4253" y1="120.8125" x2="378.3916" y2="120.8125">
		<stop  offset="0" style="stop-color:#3919BB"/>
		<stop  offset="1" style="stop-color:#6507FA"/>
	</linearGradient>
	<path fill="url(#SVGID_9_)" d="M341.729,216.157l-139.538-80.629c-2.165-1.25-3.295-4.296-2.523-6.802l31.104-100.983
		c0.771-2.507,3.151-3.526,5.316-2.276l139.538,80.629c2.165,1.25,3.295,4.295,2.523,6.802l-31.104,100.982
		C346.274,216.389,343.895,217.407,341.729,216.157z"/>
	<path opacity="0.4" fill="#06033E" d="M341.729,216.157l-139.538-80.629c-2.165-1.25-3.295-4.296-2.523-6.802l31.104-100.983
		c0.771-2.507,3.151-3.526,5.316-2.276l139.538,80.629c2.165,1.25,3.295,4.295,2.523,6.802l-31.104,100.982
		C346.274,216.389,343.895,217.407,341.729,216.157z"/>
	<path opacity="0.4" fill="#06033E" d="M341.729,216.157l-139.538-80.629c-2.165-1.25-3.295-4.296-2.523-6.802l31.104-100.983
		c0.771-2.507,3.151-3.526,5.316-2.276l139.538,80.629c2.165,1.25,3.295,4.295,2.523,6.802l-31.104,100.982
		C346.274,216.389,343.895,217.407,341.729,216.157z"/>
	<path opacity="0.5" fill="#06033E" d="M334.232,185.297l-94.46-54.536c-1.484-0.858-2.26-2.947-1.731-4.667l21.362-69.357
		c0.529-1.72,2.162-2.419,3.647-1.562l94.46,54.537c1.485,0.857,2.261,2.947,1.731,4.667l-21.361,69.357
		C337.352,185.455,335.719,186.154,334.232,185.297z"/>
	<g>
		<radialGradient id="SVGID_10_" cx="93.3462" cy="14.4917" r="347.8467" gradientUnits="userSpaceOnUse">
			<stop  offset="0" style="stop-color:#E39A65"/>
			<stop  offset="0.4742" style="stop-color:#A92FFB"/>
			<stop  offset="0.5875" style="stop-color:#891CFB"/>
			<stop  offset="0.7262" style="stop-color:#6507FA"/>
			<stop  offset="1" style="stop-color:#3919BB"/>
		</radialGradient>
		<path fill="url(#SVGID_10_)" d="M321.471,186.971l-94.46-54.536c-1.485-0.857-2.261-2.947-1.731-4.667l21.362-69.358
			c0.529-1.72,2.162-2.419,3.647-1.562l94.46,54.537c1.485,0.858,2.261,2.947,1.731,4.667l-21.361,69.358
			C324.589,187.13,322.956,187.828,321.471,186.971z"/>
	</g>
	<g opacity="0.5">
		<path fill="#06033E" d="M321.471,186.971l-94.46-54.536c-1.485-0.857-2.261-2.947-1.731-4.667l21.362-69.358
			c0.529-1.72,2.162-2.419,3.647-1.562l94.46,54.537c1.485,0.858,2.261,2.947,1.731,4.667l-21.361,69.358
			C324.589,187.13,322.956,187.828,321.471,186.971z"/>
	</g>
	<path fill="#FFFFFF" d="M344.748,111.385l-94.46-54.537c-0.931-0.537-1.919-0.462-2.658,0.091c0.445-0.013,0.91,0.087,1.364,0.349
		l94.46,54.537c1.485,0.857,2.261,2.947,1.731,4.667l-21.361,69.358c-0.198,0.643-0.55,1.141-0.99,1.471
		c1.014-0.03,1.916-0.717,2.284-1.91l21.361-69.358C347.009,114.332,346.233,112.242,344.748,111.385z"/>
	<path opacity="0.4" fill="#06033E" d="M202.334,243.609c-1.302,0-2.548-0.271-3.5-0.82l0,0l-37.846-21.85
		c-1.002-0.58-1.555-1.406-1.555-2.332c-0.001-1.072,0.761-2.127,2.087-2.893l19.48-11.248c2.381-1.373,5.874-1.508,7.957-0.307
		l37.845,21.85c1.003,0.58,1.555,1.408,1.556,2.332c0,1.072-0.761,2.127-2.087,2.893l-19.481,11.248
		C205.499,243.229,203.878,243.609,202.334,243.609z M185.476,204.447c-1.368,0-2.821,0.328-3.927,0.967l-19.48,11.248
		c-0.98,0.564-1.542,1.275-1.542,1.945c0,0.664,0.548,1.119,1.01,1.385l37.846,21.852c1.717,0.988,4.858,0.85,6.862-0.309
		l19.481-11.246c0.979-0.566,1.541-1.275,1.541-1.947c0-0.662-0.549-1.119-1.009-1.385l-37.845-21.85
		C187.643,204.664,186.587,204.447,185.476,204.447z"/>
</g>
<g>
	<g>
		<path fill="#FFFFFF" d="M273.295,93.236l-5.84-3.372c-0.541-0.313-0.832-1.065-0.648-1.679l0,0
			c0.184-0.615,0.771-0.859,1.313-0.546l5.84,3.372c0.542,0.313,0.833,1.064,0.649,1.679l0,0
			C274.425,93.304,273.837,93.548,273.295,93.236z"/>
		<path fill="#FFFFFF" d="M287.206,101.267l-8.611-4.972c-0.542-0.313-0.832-1.064-0.648-1.679l0,0
			c0.183-0.615,0.771-0.859,1.313-0.546l8.611,4.972c0.542,0.313,0.832,1.064,0.649,1.679l0,0
			C288.336,101.335,287.748,101.58,287.206,101.267z"/>
		<path fill="#FFFFFF" d="M261.518,119.235l-5.84-3.372c-0.541-0.313-0.832-1.064-0.648-1.679l0,0
			c0.184-0.614,0.771-0.859,1.313-0.546l5.84,3.372c0.542,0.313,0.833,1.064,0.649,1.679l0,0
			C262.647,119.304,262.06,119.548,261.518,119.235z"/>
		<path fill="#FFFFFF" d="M273.918,126.395l-8.61-4.971c-0.542-0.313-0.833-1.065-0.649-1.68l0,0
			c0.184-0.614,0.771-0.859,1.313-0.546l8.61,4.972c0.542,0.313,0.833,1.065,0.649,1.679l0,0
			C275.048,126.463,274.46,126.708,273.918,126.395z"/>
		<path fill="#FFFFFF" d="M255.802,88.603l-3.648-2.106c-0.541-0.313-0.832-1.064-0.648-1.679l0,0
			c0.184-0.615,0.771-0.859,1.313-0.546l3.648,2.106c0.542,0.313,0.832,1.064,0.649,1.679l0,0
			C256.932,88.67,256.344,88.915,255.802,88.603z"/>
		<path fill="#FFFFFF" d="M266.779,100.407l-11.146-6.436c-0.542-0.313-0.833-1.064-0.649-1.679l0,0
			c0.184-0.615,0.771-0.859,1.313-0.546l11.146,6.436c0.541,0.313,0.832,1.064,0.648,1.679l0,0
			C267.909,100.475,267.321,100.719,266.779,100.407z"/>
		<path fill="#FFFFFF" d="M256.498,105.404l-3.647-2.106c-0.542-0.313-0.833-1.064-0.649-1.679l0,0
			c0.184-0.614,0.771-0.859,1.313-0.546l3.647,2.106c0.542,0.313,0.833,1.064,0.649,1.679l0,0
			C257.628,105.473,257.04,105.717,256.498,105.404z"/>
		<path fill="#FFFFFF" d="M275.263,138.104l-9.744-5.625c-0.542-0.313-0.832-1.065-0.648-1.679l0,0
			c0.183-0.615,0.771-0.859,1.313-0.547l9.744,5.626c0.542,0.313,0.832,1.065,0.648,1.679l0,0
			C276.393,138.172,275.805,138.417,275.263,138.104z"/>
		<path fill="#FFFFFF" d="M252.41,113.977l-2.342-1.352c-0.542-0.313-0.833-1.064-0.649-1.679l0,0
			c0.184-0.614,0.771-0.859,1.313-0.546l2.341,1.352c0.542,0.313,0.833,1.064,0.649,1.679l0,0
			C253.539,114.045,252.951,114.29,252.41,113.977z"/>
		<path fill="#FFFFFF" d="M250.193,123.63l-2.907-1.679c-0.542-0.313-0.833-1.065-0.649-1.679v0
			c0.184-0.614,0.771-0.859,1.313-0.546l2.908,1.679c0.542,0.313,0.833,1.064,0.649,1.679l0,0
			C251.323,123.699,250.735,123.943,250.193,123.63z"/>
		<path fill="#FFFFFF" d="M261.507,130.162l-7.667-4.427c-0.542-0.313-0.832-1.064-0.649-1.679l0,0
			c0.184-0.614,0.771-0.859,1.313-0.546l7.667,4.427c0.542,0.313,0.832,1.064,0.649,1.679l0,0
			C262.637,130.23,262.049,130.475,261.507,130.162z"/>
		<path fill="#FFFFFF" d="M251.407,129.797l-5.513-3.183c-0.542-0.313-0.832-1.064-0.649-1.679l0,0
			c0.184-0.614,0.771-0.859,1.313-0.546l5.513,3.183c0.542,0.313,0.832,1.064,0.648,1.679l0,0
			C252.537,129.866,251.949,130.11,251.407,129.797z"/>
		<path fill="#FFFFFF" d="M283.622,142.954l-3.54-2.044c-0.542-0.313-0.833-1.064-0.649-1.679l0,0
			c0.184-0.614,0.771-0.859,1.313-0.546l3.54,2.044c0.542,0.313,0.832,1.065,0.649,1.679l0,0
			C284.752,143.022,284.164,143.267,283.622,142.954z"/>
		<path fill="#FFFFFF" d="M270.068,113.239l-9.743-5.626c-0.542-0.313-0.833-1.064-0.649-1.679l0,0
			c0.184-0.614,0.771-0.859,1.313-0.546l9.743,5.626c0.542,0.313,0.833,1.064,0.649,1.679l0,0
			C271.198,113.307,270.61,113.552,270.068,113.239z"/>
	</g>
	<path fill="#E8975B" d="M271.224,108.439l-16.982-9.805c-0.541-0.313-0.832-1.065-0.648-1.679l0,0
		c0.183-0.615,0.771-0.859,1.313-0.546l16.982,9.805c0.542,0.313,0.833,1.064,0.649,1.679l0,0
		C272.354,108.507,271.766,108.752,271.224,108.439z"/>
	<path fill="#E8975B" d="M261.203,113.587l-9.744-5.625c-0.542-0.313-0.832-1.064-0.648-1.679l0,0
		c0.183-0.615,0.771-0.859,1.313-0.546l9.744,5.625c0.542,0.313,0.832,1.065,0.648,1.679l0,0
		C262.333,113.655,261.745,113.9,261.203,113.587z"/>
	<path fill="#E8975B" d="M277.459,117.506l-3.54-2.044c-0.542-0.313-0.832-1.064-0.649-1.679l0,0
		c0.184-0.615,0.771-0.859,1.313-0.546l3.54,2.044c0.542,0.313,0.832,1.064,0.649,1.679l0,0
		C278.589,117.574,278.001,117.819,277.459,117.506z"/>
	<path fill="#E8975B" d="M313.471,116.431l-20.965-12.104c-0.542-0.313-0.833-1.064-0.649-1.679l0,0
		c0.184-0.614,0.771-0.859,1.313-0.546l20.965,12.104c0.541,0.313,0.832,1.064,0.648,1.679l0,0
		C314.6,116.499,314.012,116.744,313.471,116.431z"/>
	<path fill="#F8359E" d="M260.39,124.05l-11.713-6.762c-0.542-0.313-0.832-1.064-0.649-1.679l0,0
		c0.184-0.615,0.771-0.859,1.313-0.546l11.713,6.762c0.542,0.313,0.832,1.065,0.649,1.679l0,0
		C261.52,124.119,260.932,124.363,260.39,124.05z"/>
	<path fill="#F8359E" d="M262.156,86.804l-8.611-4.972c-0.542-0.313-0.832-1.064-0.649-1.679l0,0
		c0.184-0.614,0.771-0.859,1.313-0.546l8.611,4.972c0.541,0.313,0.832,1.065,0.648,1.68l0,0
		C263.285,86.873,262.697,87.117,262.156,86.804z"/>
	<path fill="#E8975B" d="M249.606,134.224l-9.974-5.758c-0.541-0.313-0.832-1.064-0.648-1.679l0,0
		c0.184-0.615,0.771-0.859,1.313-0.546l9.974,5.758c0.542,0.313,0.832,1.065,0.648,1.68l0,0
		C250.736,134.292,250.148,134.537,249.606,134.224z"/>
</g>
<g>
	<path fill="#FFFFFF" d="M315.823,105.649l-4.269-2.465c-0.396-0.229-0.608-0.778-0.474-1.227l0,0
		c0.134-0.449,0.563-0.628,0.959-0.399l4.269,2.464c0.396,0.229,0.608,0.778,0.475,1.228l0,0
		C316.649,105.699,316.22,105.877,315.823,105.649z"/>
	<path fill="#FFFFFF" d="M323.966,110.35l-4.269-2.464c-0.396-0.229-0.608-0.778-0.475-1.228l0,0
		c0.134-0.449,0.563-0.628,0.96-0.399l4.269,2.464c0.396,0.229,0.608,0.778,0.475,1.228l0,0
		C324.791,110.399,324.361,110.578,323.966,110.35z"/>
	<path fill="#FFFFFF" d="M332.107,115.051l-4.268-2.465c-0.396-0.229-0.609-0.778-0.475-1.227l0,0
		c0.134-0.449,0.563-0.628,0.959-0.399l4.269,2.464c0.396,0.229,0.608,0.778,0.475,1.227l0,0
		C332.934,115.101,332.504,115.279,332.107,115.051z"/>
	<path fill="#F8359E" d="M336.11,117.364l-0.129-0.077c-0.396-0.229-0.608-0.778-0.475-1.228l0,0
		c0.134-0.449,0.563-0.628,0.96-0.399l0.129,0.077c0.396,0.229,0.608,0.778,0.474,1.228l0,0
		C336.936,117.414,336.506,117.593,336.11,117.364z"/>
</g>
<linearGradient id="SVGID_11_" gradientUnits="userSpaceOnUse" x1="77.4092" y1="145.2939" x2="154.1851" y2="145.2939">
	<stop  offset="0" style="stop-color:#E39A65"/>
	<stop  offset="1" style="stop-color:#E95F8D"/>
</linearGradient>
<path fill="url(#SVGID_11_)" d="M115.797,167.319c-2.701,0-5.403-0.695-7.812-2.087l0,0l-28.595-16.51
	c-1.241-0.716-1.981-1.997-1.981-3.429s0.74-2.713,1.981-3.429l28.593-16.509c4.819-2.782,10.808-2.783,15.626,0l28.594,16.51
	c1.24,0.716,1.981,1.997,1.981,3.429s-0.741,2.713-1.981,3.429l-28.593,16.509C121.202,166.624,118.499,167.319,115.797,167.319z
	 M108.915,163.621c4.246,2.45,9.521,2.45,13.767,0l28.593-16.509c0.657-0.38,1.049-1.059,1.049-1.817s-0.393-1.438-1.049-1.817
	l-28.595-16.51c-4.248-2.452-9.522-2.45-13.767,0l-28.594,16.509c-0.656,0.38-1.049,1.059-1.049,1.817s0.393,1.438,1.049,1.817
	L108.915,163.621z"/>
<g>
	<path opacity="0.6" fill="#020230" d="M129.541,153.701c-7.67,4.428-20.105,4.429-27.776,0c-7.67-4.429-7.67-11.608,0-16.037
		c7.67-4.428,20.105-4.428,27.776,0C137.21,142.093,137.211,149.272,129.541,153.701z"/>
	<radialGradient id="SVGID_12_" cx="84.2163" cy="82.668" r="165.3481" gradientUnits="userSpaceOnUse">
		<stop  offset="0" style="stop-color:#E39A65"/>
		<stop  offset="0.1528" style="stop-color:#A92FFB"/>
		<stop  offset="0.4087" style="stop-color:#3919BB"/>
		<stop  offset="0.9311" style="stop-color:#3919BB"/>
	</radialGradient>
	<path fill="url(#SVGID_12_)" d="M144.767,64.863H88.825l5.203,60.569l0,0c0,3.364,2.223,6.728,6.669,9.294
		c8.892,5.134,23.308,5.134,32.199,0c4.446-2.567,6.668-5.931,6.668-9.295L144.767,64.863z"/>
	<path opacity="0.4" fill="#06033E" d="M144.767,64.863H88.825l0.856,9.965c1.282,1.644,3.007,3.219,5.185,4.664
		c10.69,7.091,28.328,8.458,40.364,3.351l-1.861,44.3c-0.081,1.931-0.748,3.809-1.999,5.282c-1.812,2.133-5.303,4.642-12.014,6.061
		c4.947-0.321,9.748-1.568,13.541-3.758c4.446-2.567,6.668-5.931,6.668-9.295l4.173-48.575l0,0L144.767,64.863z"/>
	<path opacity="0.4" fill="#06033E" d="M136.575,76.283c-10.923,6.307-28.634,6.307-39.557,0c-10.924-6.307-10.924-16.531,0-22.838
		c10.923-6.307,28.633-6.307,39.557,0C147.498,59.751,147.498,69.976,136.575,76.283z"/>
	<path opacity="0.4" fill="#06033E" d="M133.832,69.007c-9.408,5.432-24.663,5.432-34.071,0s-9.409-14.239,0-19.671
		c9.409-5.432,24.663-5.432,34.071,0S143.24,63.575,133.832,69.007z"/>
	<linearGradient id="SVGID_13_" gradientUnits="userSpaceOnUse" x1="87.1426" y1="62.1846" x2="146.4517" y2="62.1846">
		<stop  offset="0" style="stop-color:#E39A65"/>
		<stop  offset="0.252" style="stop-color:#A92FFB"/>
		<stop  offset="0.5556" style="stop-color:#3919BB"/>
	</linearGradient>
	<path fill="url(#SVGID_13_)" d="M146.423,64.103l0.003,0.004l-0.005-0.049c-0.002-0.028-0.006-0.056-0.008-0.083l-0.537-5.423
		l-0.023,0.061c-0.24-4.104-3.067-8.168-8.494-11.302c-11.357-6.557-29.77-6.557-41.126,0c-5.564,3.212-8.395,7.403-8.506,11.613
		l-0.007-0.014l-0.512,4.829c-0.014,0.125-0.03,0.251-0.04,0.376l-0.008,0.08l0.005-0.003c-0.307,4.6,2.576,9.259,8.66,12.771
		c11.583,6.687,30.361,6.687,41.944,0C143.89,73.427,146.773,68.732,146.423,64.103z"/>
	<linearGradient id="SVGID_14_" gradientUnits="userSpaceOnUse" x1="92.7036" y1="59.1709" x2="140.8877" y2="59.1709">
		<stop  offset="0" style="stop-color:#4F1FEC"/>
		<stop  offset="1" style="stop-color:#A92FFB"/>
	</linearGradient>
	<path fill="url(#SVGID_14_)" d="M133.832,69.007c-9.408,5.432-24.663,5.432-34.071,0s-9.409-14.239,0-19.671
		c9.409-5.432,24.663-5.432,34.071,0S143.24,63.575,133.832,69.007z"/>
	<linearGradient id="SVGID_15_" gradientUnits="userSpaceOnUse" x1="91.5605" y1="59.1709" x2="139.7446" y2="59.1709">
		<stop  offset="0" style="stop-color:#4F1FEC"/>
		<stop  offset="1" style="stop-color:#A92FFB"/>
	</linearGradient>
	<path fill="url(#SVGID_15_)" d="M132.688,69.007c-9.408,5.432-24.663,5.432-34.071,0s-9.409-14.239,0-19.671
		c9.408-5.432,24.663-5.432,34.071,0S142.097,63.575,132.688,69.007z"/>
	<path opacity="0.4" fill="#06033E" d="M102.618,51.407c9.408-5.432,24.663-5.432,34.071,0c0.12,0.069,0.22,0.145,0.337,0.215
		c-0.908-0.809-1.967-1.578-3.195-2.287c-9.409-5.432-24.663-5.433-34.071,0c-9.289,5.363-9.389,14.009-0.336,19.456
		C93.379,63.402,94.438,56.13,102.618,51.407z"/>
	<linearGradient id="SVGID_16_" gradientUnits="userSpaceOnUse" x1="92.7075" y1="52.8203" x2="153.4597" y2="52.8203">
		<stop  offset="0" style="stop-color:#131060"/>
		<stop  offset="0.1857" style="stop-color:#141062"/>
		<stop  offset="0.2823" style="stop-color:#19106A"/>
		<stop  offset="0.3584" style="stop-color:#221078"/>
		<stop  offset="0.4238" style="stop-color:#2E0F8B"/>
		<stop  offset="0.4823" style="stop-color:#3E0FA3"/>
		<stop  offset="0.5359" style="stop-color:#510EC2"/>
		<stop  offset="0.5848" style="stop-color:#680DE5"/>
		<stop  offset="0.6071" style="stop-color:#740DF8"/>
		<stop  offset="0.6179" style="stop-color:#7A14F0"/>
		<stop  offset="0.6826" style="stop-color:#9B3CC3"/>
		<stop  offset="0.7477" style="stop-color:#B75D9D"/>
		<stop  offset="0.8123" style="stop-color:#CC7680"/>
		<stop  offset="0.8762" style="stop-color:#DC886C"/>
		<stop  offset="0.9391" style="stop-color:#E5935F"/>
		<stop  offset="1" style="stop-color:#E8975B"/>
	</linearGradient>
	<path fill="url(#SVGID_16_)" d="M99.76,51.75c9.409-5.432,24.663-5.432,34.071,0c4.172,2.409,6.49,5.481,6.962,8.629
		c0.592-3.95-1.726-8.019-6.962-11.042c-9.409-5.432-24.663-5.433-34.071,0c-5.236,3.023-7.554,7.092-6.962,11.042
		C93.27,57.23,95.588,54.158,99.76,51.75z"/>
	<radialGradient id="SVGID_17_" cx="79.7402" cy="45.4048" r="108.1634" gradientUnits="userSpaceOnUse">
		<stop  offset="0" style="stop-color:#E39A65"/>
		<stop  offset="0.252" style="stop-color:#A92FFB"/>
		<stop  offset="0.7357" style="stop-color:#3919BB"/>
	</radialGradient>
	<path fill="url(#SVGID_17_)" d="M137.539,47.437c-11.341-6.681-29.821-6.844-41.277-0.363s-11.549,17.15-0.209,23.831
		s29.82,6.844,41.276,0.364S148.879,54.119,137.539,47.437z M133.832,69.007c-3.143,1.814-6.943,3.008-10.955,3.611l-0.438-1.437
		c-0.177-0.58-0.712-0.977-1.318-0.977h-8.651c-0.606,0-1.142,0.397-1.318,0.977l-0.437,1.437
		c-4.012-0.602-7.812-1.796-10.955-3.611c-9.409-5.432-9.409-14.239,0-19.671c9.408-5.432,24.663-5.432,34.071,0
		C143.24,54.768,143.24,63.575,133.832,69.007z"/>
	<g>
		<path fill="#FFFFFF" d="M133.831,48.306c-9.409-5.432-24.663-5.432-34.071,0c-4.931,2.847-7.273,6.621-7.035,10.35
			c0.216-3.386,2.558-6.735,7.035-9.32c9.409-5.432,24.663-5.432,34.071,0c4.478,2.585,6.819,5.934,7.036,9.32
			C141.104,54.927,138.763,51.153,133.831,48.306z"/>
		<path fill="#FFFFFF" d="M137.329,70.239c-11.456,6.48-29.936,6.317-41.276-0.364c-5.396-3.18-8.198-7.262-8.424-11.367
			c-0.224,4.445,2.576,8.951,8.424,12.396c11.34,6.681,29.821,6.844,41.276,0.364c6.004-3.396,8.882-7.944,8.633-12.464
			C145.752,62.979,142.877,67.1,137.329,70.239z"/>
	</g>
	<path fill="#0C0A78" d="M119.381,73.366h-5.171c-0.361,0-0.653-0.292-0.653-0.653v-0.091c0-0.361,0.292-0.653,0.653-0.653h5.171
		c0.361,0,0.653,0.292,0.653,0.653v0.091C120.034,73.074,119.742,73.366,119.381,73.366z"/>
	<linearGradient id="SVGID_18_" gradientUnits="userSpaceOnUse" x1="112.9824" y1="72.4277" x2="121.387" y2="72.4277">
		<stop  offset="0" style="stop-color:#131060"/>
		<stop  offset="0.1857" style="stop-color:#141062"/>
		<stop  offset="0.2823" style="stop-color:#19106A"/>
		<stop  offset="0.3584" style="stop-color:#221078"/>
		<stop  offset="0.4238" style="stop-color:#2E0F8B"/>
		<stop  offset="0.4823" style="stop-color:#3E0FA3"/>
		<stop  offset="0.5359" style="stop-color:#510EC2"/>
		<stop  offset="0.5848" style="stop-color:#680DE5"/>
		<stop  offset="0.6071" style="stop-color:#740DF8"/>
		<stop  offset="0.6179" style="stop-color:#7A14F0"/>
		<stop  offset="0.6826" style="stop-color:#9B3CC3"/>
		<stop  offset="0.7477" style="stop-color:#B75D9D"/>
		<stop  offset="0.8123" style="stop-color:#CC7680"/>
		<stop  offset="0.8762" style="stop-color:#DC886C"/>
		<stop  offset="0.9391" style="stop-color:#E5935F"/>
		<stop  offset="1" style="stop-color:#E8975B"/>
	</linearGradient>
	<path fill="url(#SVGID_18_)" d="M119.381,71.968h-5.171c-0.361,0-0.653,0.292-0.653,0.653v0.091c0,0.062,0.019,0.117,0.035,0.174
		c0.078-0.274,0.319-0.479,0.618-0.479h5.171c0.299,0,0.541,0.205,0.619,0.479c0.016-0.057,0.035-0.112,0.035-0.174v-0.091
		C120.034,72.261,119.742,71.968,119.381,71.968z"/>
	<g>
		<path fill="#E8975B" d="M117.588,119.21c-0.634,2.386-3.083,3.805-5.468,3.171s-3.805-3.082-3.17-5.467
			c0.634-2.386,2.884-3.061,5.27-2.427S118.222,116.825,117.588,119.21z"/>
		<path fill="#E8975B" d="M121.106,114.502c-0.9,0.879-2.051,0.766-2.815-0.016c-0.764-0.782-0.851-1.935,0.048-2.814
			c0.9-0.879,2.61-1.313,3.374-0.531C122.478,111.923,122.006,113.623,121.106,114.502z"/>
		<path fill="#E8975B" d="M116.432,110.763c-0.221,1.239-1.223,1.815-2.299,1.625c-1.076-0.191-1.818-1.079-1.598-2.317
			c0.221-1.239,1.36-2.586,2.436-2.395C116.048,107.867,116.652,109.524,116.432,110.763z"/>
		<path fill="#E8975B" d="M110.671,110.191c0.479,1.164-0.058,2.188-1.068,2.604c-1.011,0.416-2.113,0.065-2.592-1.099
			c-0.479-1.163-0.24-2.912,0.771-3.328C108.792,107.954,110.192,109.028,110.671,110.191z"/>
	</g>
</g>
<path opacity="0.5" fill="#FFFFFF" d="M118.628,72.667c0,0,15.64-5.241,9.308-23.212c-6.333-17.971-18.663-23.448-13.696-37.824
	c0,0-7.784,11.638-0.51,27.384s8.869,13.937,8.784,21.468c-0.102,8.947-7.329,12.185-7.329,12.185H118.628z"/>
<path opacity="0.5" fill="#FFFFFF" d="M120.034,14.131c0,0-1.628-10.75,8.456-21.583c0,0-8.917,19.917-6,29.75
	C122.49,22.297,120.13,16.047,120.034,14.131z"/>
</svg>
