<?xml version="1.0" encoding="utf-8"?>
<!-- Generator: Adobe Illustrator 16.0.0, SVG Export Plug-In . SVG Version: 6.00 Build 0)  -->
<!DOCTYPE svg PUBLIC "-//W3C//DTD SVG 1.1//EN" "http://www.w3.org/Graphics/SVG/1.1/DTD/svg11.dtd">
<svg version="1.1" id="_x2018_лой_x5F_1" xmlns="http://www.w3.org/2000/svg" xmlns:xlink="http://www.w3.org/1999/xlink"
	 x="0px" y="0px" width="2926.12px" height="1488px" viewBox="0 0 2926.12 1488" enable-background="new 0 0 2926.12 1488"
	 xml:space="preserve">
<g>
	<path fill="#EDF4FF" d="M1921.482,694.012c-114.878,46.23-224.853-13.743-354.564-101.655
		c-12.359-7.396-25.688-16.509-40.051-27.493c-27.785-19.241-56.526-39.341-86.443-59.605
		C1110.892,299.647,553.947,170.933,270.52,582.225c-265.54,385.335-98.458,770.826-45.014,873.565
		c9.18,17.105,14.725,26.501,14.725,26.501l2456.716,0.698C2819.352,528.405,2238.998,566.211,1921.482,694.012z"/>
	<g>
		<g>
			<polygon fill="#DB6161" points="1268.693,1102.336 921.858,1102.336 921.858,1396.018 1310.463,1396.018 			"/>
			<polygon fill="#233862" points="1253.509,1112.39 860.425,1112.39 860.425,1396.018 1294.272,1396.018 			"/>
			<g>
				<g>
					<g>
						<g>
							<rect x="1083.97" y="1341.821" fill="#E69D43" width="53.455" height="54.196"/>
							<rect x="1135.199" y="1341.821" fill="#D57912" width="32.352" height="54.196"/>
						</g>
					</g>
				</g>
			</g>
			<g>
				<g>
					<g>
						<g>
							<rect x="1081.132" y="1273.728" fill="#E69D43" width="88.644" height="68.836"/>
							<rect x="1167.551" y="1289.109" fill="#D57912" width="24.473" height="53.454"/>
						</g>
					</g>
				</g>
			</g>
			<path fill="#B65615" d="M708.086,1416.519H593.94c-2.774,0-5.044-2.271-5.044-5.044v-45.017c0-2.774,2.27-5.044,5.044-5.044
				h114.146c2.774,0,5.043,2.27,5.043,5.044v45.017C713.129,1414.248,710.86,1416.519,708.086,1416.519z"/>
			<circle fill="#233862" cx="1077.82" cy="1434.718" r="49.801"/>
			<circle fill="#233862" cx="1245.281" cy="1434.718" r="49.8"/>
			<circle fill="#233862" cx="655.662" cy="1434.718" r="49.8"/>
			<circle fill="#D36E2A" cx="655.662" cy="1434.718" r="25.135"/>
			<circle fill="#F59040" cx="655.662" cy="1434.718" r="25.135"/>
			<path fill="#D36E2A" d="M672.393,1415.966c1.412,3.142,2.204,6.622,2.204,10.289c0,13.882-11.253,25.136-25.135,25.136
				c-6.427,0-12.287-2.416-16.731-6.384c3.932,8.749,12.717,14.846,22.931,14.846c13.882,0,25.135-11.253,25.135-25.135
				C680.797,1427.263,677.549,1420.568,672.393,1415.966z"/>
			<circle fill="#B65615" cx="655.662" cy="1434.718" r="7.792"/>
			<circle fill="#B65615" cx="642.404" cy="1448.07" r="3.016"/>
			<circle fill="#B65615" cx="638.885" cy="1425.669" r="3.016"/>
			<circle fill="#B65615" cx="672.063" cy="1425.669" r="3.016"/>
			<circle fill="#B65615" cx="669.549" cy="1448.07" r="3.016"/>
			<circle fill="#B65615" cx="655.662" cy="1415.513" r="3.016"/>
			<circle fill="#D36E2A" cx="1076.892" cy="1434.718" r="25.135"/>
			<circle fill="#D36E2A" cx="1076.892" cy="1434.718" r="25.135"/>
			<circle fill="#B65615" cx="1076.892" cy="1434.718" r="7.792"/>
			<circle fill="#B65615" cx="1063.633" cy="1448.07" r="3.016"/>
			<circle fill="#B65615" cx="1062.503" cy="1425.669" r="3.016"/>
			<circle fill="#B65615" cx="1090.779" cy="1448.07" r="3.016"/>
			<circle fill="#B65615" cx="1053.8" cy="1415.513" r="3.016"/>
			<circle fill="#233862" cx="797.158" cy="1434.718" r="49.8"/>
			<path fill="#D57912" d="M655.11,1165.817c0,0,27.022-40.759,58.261-41.096l-2.787,44.1L655.11,1165.817z"/>
			<path fill="#E69D43" d="M814.297,1352.029H598.021l18.001-146.088c2.926-23.746,23.097-41.583,47.022-41.583h151.253V1352.029z"
				/>
			<path fill="#D57912" d="M688.577,1262.727h-60.648l8.034-57.684c1.654-11.878,11.813-20.72,23.806-20.72h30.687L688.577,1262.727
				z"/>
			<path fill="#DCE7F9" d="M684.093,1258.389h-39.931c-6.026,0-10.673-5.306-9.88-11.279l5.299-39.911
				c1.399-10.542,9.994-18.388,20.14-18.388h25.961L684.093,1258.389z"/>
			<polygon fill="#D15050" points="1108.466,1396.018 692.474,1396.018 711.03,1102.336 1083.88,1102.336 			"/>
			<polygon fill="#B64C41" points="1092.184,1384.88 707.75,1384.88 724.898,1113.476 1069.462,1113.476 1087.878,1333.469 			"/>
			<path fill="#D57912" d="M729.987,1352.029H598.021c-11.621,0.773-12.745,6.519-12.745,6.519l-11.284,54.579
				c0,1.865,1.714,3.392,3.81,3.392h33.18c2.095,0,3.607-1.535,4.501-3.479c0,0,5.105-6.307,8.53-8.564
				c8.579-5.655,17.891-9.363,31.648-9.363c16.916,0,31.858,5.381,40.859,13.604h33.466c4.04,0,7.345-2.108,7.345-4.686v-47.315
				C737.332,1354.138,734.027,1352.029,729.987,1352.029z"/>
			<path fill="#D15050" d="M1144.913,1459.172h-41.823c-0.962-5.066-2.78-9.532-5.24-13.467
				c-12.645-20.266-42.212-26.459-59.055-28.352c-7.381-0.831-12.321-0.835-12.321-0.835h71.893
				c18.805,2.549,30.352,12.804,37.235,22.622C1142.8,1449.396,1144.913,1459.172,1144.913,1459.172z"/>
			<path fill="#D15050" d="M1310.462,1459.172h-41.822c-1.094-5.767-3.301-10.758-6.292-15.067
				c-19.101-27.549-70.324-27.586-70.324-27.586h71.897c15.725,2.131,26.369,9.653,33.465,17.8
				C1307.636,1446.095,1310.462,1459.172,1310.462,1459.172z"/>
			<path fill="#A03C37" d="M1135.602,1439.141c0,0-27.525-5.808-37.752,6.564c-12.645-20.266-42.212-26.459-59.055-28.352
				c-0.343-0.281-0.681-0.559-1.014-0.835h60.586C1117.171,1419.067,1128.718,1429.322,1135.602,1439.141z"/>
			<path fill="#A03C37" d="M1297.386,1434.318c0,0.005,0,0.005,0,0.005s-23.022-0.517-35.038,9.781
				c-19.101-27.549-70.324-27.586-70.324-27.586h71.897C1279.646,1418.649,1290.29,1426.172,1297.386,1434.318z"/>
			<path fill="#A03C37" d="M701.9,1424.501h613.296c3.079,0,5.598-2.52,5.598-5.599v-17.286c0-3.079-2.519-5.599-5.598-5.599H701.9
				c-3.08,0-5.599,2.52-5.599,5.599v17.286C696.301,1421.981,698.821,1424.501,701.9,1424.501z"/>
			<path fill="#A03C37" d="M841.561,1466.261H728.122c-2.968,0-5.396-2.429-5.396-5.396v-52.294c0-2.968,2.428-5.396,5.396-5.396
				h113.439c2.968,0,5.397,2.429,5.397,5.396v52.294C846.958,1463.832,844.529,1466.261,841.561,1466.261z"/>
			<path fill="#C44943" d="M1092.686,1384.88H708.251l17.148-271.404h67.146c21.021,61.999,92.125,208.982,295.834,219.993
				L1092.686,1384.88z"/>
			<g>
				<path fill="#B64C41" d="M601.956,1234.455c0,0-5.407,29.055-5.138,33.792s4.741,7.049,8.141,7.049L601.956,1234.455z"/>
				<path fill="#D57912" d="M618.371,1275.296h-13.14c-1.921,0-3.494-1.572-3.494-3.493v-36.278c0-1.921,1.572-3.493,3.494-3.493
					h13.14c1.921,0,3.493,1.572,3.493,3.493v36.278C621.864,1273.724,620.292,1275.296,618.371,1275.296z"/>
				<path fill="#DCE7F9" d="M617.362,1273.192h-10.407c-1.64,0-2.981-1.342-2.981-2.981v-32.774c0-1.64,1.342-2.981,2.981-2.981
					h10.407c1.64,0,2.981,1.342,2.981,2.981v32.774C620.344,1271.851,619.002,1273.192,617.362,1273.192z"/>
				<g>
					<path fill="#B64C41" d="M611.801,1232.82c-0.371,0-0.671-0.353-0.671-0.789v-12.212c0-0.033,0.002-0.066,0.005-0.099
						c0.008-0.07,0.837-7.021,8.153-6.797c6.69,0.206,9.573,0.003,9.602,0.001c0.37-0.027,0.688,0.304,0.711,0.738
						c0.023,0.436-0.258,0.811-0.627,0.837c-0.118,0.01-2.97,0.212-9.721,0.002c-5.892-0.18-6.709,4.81-6.781,5.371v12.158
						C612.472,1232.468,612.171,1232.82,611.801,1232.82z"/>
				</g>
			</g>
			<path fill="#D57912" d="M682.957,1281.527H670.72c-1.713,0-3.116-1.402-3.116-3.116l0,0c0-1.714,1.402-3.115,3.116-3.115h12.237
				c1.714,0,3.116,1.401,3.116,3.115l0,0C686.073,1280.125,684.671,1281.527,682.957,1281.527z"/>
			<g>
				<g>
					<g>
						<g>
							<rect x="1172.696" y="1342.563" fill="#E69D43" width="53.454" height="53.454"/>
							<rect x="1223.926" y="1342.563" fill="#D57912" width="24.473" height="53.454"/>
						</g>
					</g>
				</g>
			</g>
			<g>
				<path fill="#FFFFFF" d="M801.208,1232.463c2.355,0,4.401,0.311,6.137,0.932c1.734,0.621,3.183,1.504,4.346,2.65
					c1.162,1.146,2.053,2.531,2.674,4.154c0.621,1.624,0.995,3.438,1.123,5.444c0.126,2.356,0.126,4.713,0,7.068
					c-0.128,2.006-0.502,3.82-1.123,5.444c-0.621,1.623-1.504,3.009-2.65,4.154c-1.146,1.146-2.572,2.03-4.274,2.65
					c-1.704,0.621-3.701,0.932-5.994,0.932h-12.034c-0.351,0-0.653-0.127-0.907-0.382c-0.255-0.255-0.382-0.557-0.382-0.907v-30.851
					c0-0.351,0.127-0.652,0.382-0.907c0.254-0.255,0.557-0.383,0.907-0.383H801.208z M809.04,1245.644
					c-0.064-1.019-0.262-1.965-0.597-2.841s-0.828-1.64-1.48-2.293c-0.653-0.652-1.473-1.161-2.459-1.527
					c-0.987-0.366-2.166-0.55-3.534-0.55h-6.399v21.49h6.638c1.305,0,2.436-0.183,3.391-0.549s1.75-0.867,2.388-1.505
					c0.636-0.636,1.122-1.4,1.457-2.292c0.334-0.891,0.533-1.846,0.597-2.865C809.167,1250.356,809.167,1248,809.04,1245.644z"/>
				<path fill="#FFFFFF" d="M843.998,1259.923c0.35,0,0.652,0.128,0.907,0.382c0.254,0.256,0.382,0.558,0.382,0.908v3.391
					c0,0.351-0.128,0.652-0.382,0.907c-0.255,0.255-0.558,0.382-0.907,0.382h-20.965c-0.351,0-0.653-0.127-0.907-0.382
					c-0.255-0.255-0.382-0.557-0.382-0.907v-30.851c0-0.351,0.127-0.652,0.382-0.907c0.254-0.255,0.557-0.383,0.907-0.383h20.583
					c0.35,0,0.652,0.128,0.907,0.383c0.254,0.255,0.382,0.557,0.382,0.907v3.391c0,0.351-0.128,0.652-0.382,0.907
					c-0.255,0.255-0.557,0.382-0.907,0.382H828.19v7.594h14.375c0.35,0,0.652,0.127,0.908,0.382
					c0.254,0.255,0.382,0.558,0.382,0.907v3.391c0,0.351-0.127,0.653-0.382,0.907c-0.255,0.256-0.558,0.382-0.908,0.382H828.19
					v7.928H843.998z"/>
				<path fill="#FFFFFF" d="M873.415,1259.923c0.35,0,0.652,0.128,0.908,0.382c0.254,0.256,0.382,0.558,0.382,0.908v3.391
					c0,0.351-0.127,0.652-0.382,0.907c-0.255,0.255-0.558,0.382-0.908,0.382h-20.917c-0.351,0-0.653-0.127-0.907-0.382
					c-0.255-0.255-0.382-0.557-0.382-0.907v-30.851c0-0.351,0.127-0.652,0.382-0.907c0.254-0.255,0.556-0.383,0.907-0.383h3.868
					c0.35,0,0.652,0.128,0.907,0.383c0.254,0.255,0.382,0.557,0.382,0.907v26.17H873.415z"/>
				<path fill="#FFFFFF" d="M880.578,1265.893c-0.351,0-0.653-0.127-0.907-0.382c-0.255-0.255-0.382-0.557-0.382-0.907v-30.851
					c0-0.351,0.127-0.652,0.382-0.907c0.254-0.255,0.556-0.383,0.907-0.383h3.868c0.35,0,0.652,0.128,0.907,0.383
					c0.254,0.255,0.382,0.557,0.382,0.907v30.851c0,0.351-0.128,0.652-0.382,0.907c-0.255,0.255-0.558,0.382-0.907,0.382H880.578z"
					/>
				<path fill="#FFFFFF" d="M905.315,1256.437l8.023-22.779c0.095-0.255,0.262-0.518,0.501-0.788
					c0.239-0.27,0.597-0.406,1.074-0.406h3.629c0.35,0,0.652,0.128,0.908,0.383c0.254,0.255,0.382,0.557,0.382,0.907
					c0,0.063,0,0.119,0,0.167s-0.032,0.151-0.096,0.311l-10.697,30.038c-0.191,0.542-0.414,0.948-0.668,1.218
					c-0.255,0.271-0.637,0.406-1.146,0.406h-3.821c-0.51,0-0.892-0.135-1.146-0.406c-0.255-0.27-0.478-0.676-0.668-1.218
					l-10.698-30.038c-0.064-0.159-0.095-0.263-0.095-0.311s0-0.104,0-0.167c0-0.351,0.126-0.652,0.382-0.907
					c0.254-0.255,0.557-0.383,0.907-0.383h3.629c0.478,0,0.836,0.137,1.075,0.406c0.239,0.271,0.406,0.533,0.501,0.788
					L905.315,1256.437z"/>
				<path fill="#FFFFFF" d="M947.149,1259.923c0.35,0,0.652,0.128,0.908,0.382c0.254,0.256,0.382,0.558,0.382,0.908v3.391
					c0,0.351-0.127,0.652-0.382,0.907c-0.255,0.255-0.558,0.382-0.908,0.382h-20.965c-0.351,0-0.653-0.127-0.907-0.382
					c-0.255-0.255-0.382-0.557-0.382-0.907v-30.851c0-0.351,0.127-0.652,0.382-0.907c0.254-0.255,0.556-0.383,0.907-0.383h20.583
					c0.351,0,0.652,0.128,0.908,0.383c0.254,0.255,0.382,0.557,0.382,0.907v3.391c0,0.351-0.128,0.652-0.382,0.907
					c-0.255,0.255-0.557,0.382-0.908,0.382h-15.425v7.594h14.375c0.35,0,0.652,0.127,0.907,0.382
					c0.254,0.255,0.382,0.558,0.382,0.907v3.391c0,0.351-0.128,0.653-0.382,0.907c-0.255,0.256-0.557,0.382-0.907,0.382h-14.375
					v7.928H947.149z"/>
				<path fill="#FFFFFF" d="M967.97,1232.463c3.979,0,7.004,0.924,9.074,2.771c2.069,1.847,3.104,4.409,3.104,7.688
					c0,2.324-0.534,4.307-1.6,5.945c-1.067,1.641-2.635,2.858-4.704,3.653l6.59,11.796c0.096,0.191,0.144,0.367,0.144,0.525
					c0,0.287-0.104,0.533-0.311,0.74c-0.208,0.207-0.454,0.311-0.74,0.311h-4.06c-0.637,0-1.106-0.15-1.409-0.454
					c-0.303-0.302-0.518-0.58-0.645-0.835l-6.256-11.127h-6.352v11.127c0,0.351-0.127,0.652-0.382,0.907
					c-0.255,0.255-0.558,0.382-0.908,0.382h-3.868c-0.351,0-0.653-0.127-0.907-0.382c-0.255-0.255-0.382-0.557-0.382-0.907v-30.851
					c0-0.351,0.126-0.652,0.382-0.907c0.254-0.255,0.557-0.383,0.907-0.383H967.97z M960.807,1247.506h6.925
					c1.815,0,3.263-0.317,4.346-0.955c1.082-0.636,1.624-1.846,1.624-3.629s-0.542-2.977-1.624-3.582
					c-1.083-0.604-2.531-0.907-4.346-0.907h-6.925V1247.506z"/>
				<path fill="#FFFFFF" d="M1010.521,1232.463c0.35,0,0.652,0.128,0.908,0.383c0.254,0.255,0.382,0.557,0.382,0.907
					c0,0.159-0.032,0.303-0.095,0.43l-11.318,19.914v10.507c0,0.351-0.127,0.652-0.382,0.907c-0.255,0.255-0.558,0.382-0.908,0.382
					h-3.82c-0.351,0-0.653-0.127-0.908-0.382s-0.382-0.557-0.382-0.907v-10.507l-11.318-19.914c-0.064-0.127-0.096-0.271-0.096-0.43
					c0-0.351,0.127-0.652,0.382-0.907c0.254-0.255,0.557-0.383,0.907-0.383h3.582c0.637,0,1.114,0.16,1.433,0.478
					c0.318,0.319,0.509,0.558,0.573,0.717l7.737,13.515l7.736-13.515c0.063-0.159,0.254-0.397,0.573-0.717
					c0.318-0.317,0.795-0.478,1.433-0.478H1010.521z"/>
			</g>
		</g>
		<g>
			<path fill="#85B2EF" d="M1328.76,584.466c-77.09,0-148.052,27.058-203.699,72.242
				c-73.006,59.477-119.465,149.843-119.465,250.925c0,178.436,323.165,575.103,323.165,575.103s146.776-180.204,242.245-352.257
				c46.459-83.211,80.918-164.65,80.918-222.846C1651.923,729.209,1507.189,584.466,1328.76,584.466z M1328.76,1055.17
				c-83.472,0-151.115-67.38-151.115-150.854c0-20.428,4.083-39.822,11.486-57.696c22.719-54.877,76.579-93.417,139.629-93.417
				c83.472,0,151.116,67.642,151.116,151.113c0,72.242-50.542,132.23-118.188,147.025
				C1351.224,1053.898,1339.992,1055.17,1328.76,1055.17z"/>
			<path fill="#578DDD" d="M1571.005,1130.479c-95.469,172.053-242.245,352.257-242.245,352.257s-323.165-396.667-323.165-575.103
				c0-101.082,46.459-191.448,119.465-250.925c12.251,58.456,32.162,125.336,64.07,189.912
				c-7.403,17.874-11.486,37.269-11.486,57.696c0,83.474,67.644,150.854,151.115,150.854c11.232,0,22.464-1.271,32.929-3.828
				C1418.103,1089.894,1487.023,1118.226,1571.005,1130.479z"/>
		</g>
		<path fill="#F99746" d="M2466.328,1146.771c-65.893,0-119.31,53.417-119.31,119.31c0,65.894,119.31,212.391,119.31,212.391
			s119.313-146.497,119.313-212.391C2585.641,1200.188,2532.222,1146.771,2466.328,1146.771z M2466.328,1320.638
			c-30.8,0-55.768-24.97-55.768-55.768c0-30.8,24.968-55.77,55.768-55.77c30.801,0,55.769,24.97,55.769,55.77
			C2522.097,1295.668,2497.129,1320.638,2466.328,1320.638z"/>
		<path fill="#85B2EF" d="M320.753,1296.099c-37.749,0-68.35,30.602-68.35,68.351c0,37.748,68.35,121.673,68.35,121.673
			s68.351-83.925,68.351-121.673C389.104,1326.7,358.502,1296.099,320.753,1296.099z M320.753,1395.703
			c-17.645,0-31.948-14.305-31.948-31.948c0-17.645,14.304-31.949,31.948-31.949s31.948,14.305,31.948,31.949
			C352.701,1381.398,338.397,1395.703,320.753,1395.703z"/>
		<g>
			<g>
				<g>
					<g>
						<path fill="#2B478B" d="M1039.88,1482.988h-78.854c0.818-2.829,3.479-7.687,12.2-9.106
							c12.17-1.979,33.258-9.046,37.958-24.605c0.148-0.502,0.286-1.016,0.404-1.538c3.735-16.633,30.893,5.095,30.893,5.095
							s0.079,0.671,0.197,1.804C1043.31,1460.707,1044.906,1480.189,1039.88,1482.988z"/>
						<path fill="#2B478B" d="M976.46,1038.114c0,0,4.125,51.462,8.973,113.323c6.59,84.033,14.513,187.255,15.298,206.81
							c1.354,33.956,6.793,88.27,6.793,88.27s12.894,12.904,38.702,7.466c0,0,22.997-77.536,29.565-159.573
							c0.102-1.344,0.204-2.698,0.306-4.054c6.111-83.514,15.614-259.371,15.614-259.371L976.46,1038.114z"/>
						<path fill="#233862" d="M976.46,1038.114c0,0,4.125,51.462,8.973,113.323l90.358,142.972c0.102-1.344,0.204-2.698,0.306-4.054
							c6.111-83.514,15.614-259.371,15.614-259.371L976.46,1038.114z"/>
						<path fill="#2B478B" d="M995.297,1044.225c0,0,74.348,186.379,123.234,273.967c48.886,87.588,64.163,112.031,64.163,112.031
							s28.007-11.204,30.554-18.842c0,0-18.694-169.093-51.433-210.313c-18.499-23.291-40.229-93.188-41.248-117.632
							c-1.018-24.443-6.619-72.82-6.619-72.82L995.297,1044.225z"/>
					</g>
					<path fill="#FFB27D" d="M1093.117,757.001c0,0-50.305,24.65-79.305,15.504c0,0,7.139-9.145,19.631-15.951
						c-1.003-5.912-1.784-11.042-2.231-15.393c-1.227-10.039-1.227-15.728-1.227-15.728l19.408-15.503l18.405-14.835
						C1066.347,736.812,1093.117,757.001,1093.117,757.001z"/>
					<path fill="#B64C41" d="M1119.626,1020.162c0.112,3.123-6.469,6.692-9.369,8.031c-21.528,9.592-41.604,16.283-64.358,18.516
						c-26.882,2.788-58.67-3.347-69.601-3.123c-1.116,0-2.12-0.446-3.012-1.228c-0.78-0.558-1.338-33.462-0.78-74.843
						c0-1.674,0-3.347,0.112-5.02v-0.558c0.223-16.174,0.78-33.127,1.561-50.081c1.562-37.256,4.461-73.172,9.369-93.025
						c5.912-23.423,19.297-38.928,31.455-50.193l10.039-8.925c10.038,2.01,20.635,1.452,31.231-3.79
						c11.6-5.689,24.292-12.071,26.3-10.51c15.17,11.266,25.232,36.832,30.697,69.179c3.123,18.628,4.686,39.486,4.573,61.348
						c0,8.032-0.224,16.285-0.669,24.428c-2.677,44.17,0,82.539,1.561,104.735
						C1119.181,1011.574,1119.515,1016.593,1119.626,1020.162z"/>
					<path fill="#A03C37" d="M1118.733,1005.104c-243.715-0.334-44.95-181.699-44.95-181.699l39.485-8.812
						c3.123,18.628,4.686,39.486,4.573,61.348c0,8.032-0.224,16.285-0.669,24.428
						C1114.496,944.538,1117.173,982.907,1118.733,1005.104z"/>
					<g>
						<rect x="818.915" y="852.385" fill="#E69D43" width="151.536" height="151.536"/>
						<rect x="964.144" y="852.385" fill="#D57912" width="69.377" height="151.536"/>
					</g>
					<path fill="#FFB27D" d="M947.687,930.387l-9.024-2.894c0,0-6.313-20.887-27.655-11.538c0,0-8.665,4.595-4.849,10.031
						c3.815,5.436,3.118,2.573,8.334,10.403c5.215,7.832,13.469,11.546,20.048,8.587l7.497,0.216L947.687,930.387z"/>
					<path fill="#B64C41" d="M1093.128,756.947c0,0,55.192,87.776-3.599,189.208c-18.353,31.663-156.97,1.569-156.97,1.569
						s-5.403-9.76,9.063-20.044c0,0,92.29-15.621,103.291-18.24c9.76-2.324,3.253-92.021,14.407-118.047
						C1070.474,765.367,1093.128,756.947,1093.128,756.947z"/>
					<path fill="#ED985F" d="M1068.132,711.047c0,0-12.715,23.535-36.92,30.115c-1.227-10.039-1.227-15.728-1.227-15.728
						l19.408-15.503L1068.132,711.047z"/>
					<path fill="#FFB27D" d="M1021.136,724.756c0,0,47.989,7.972,52.494-21.99c4.504-29.961,13.732-49.111-16.717-55.468
						c-30.449-6.357-38.135,4.179-42.071,13.814C1010.906,670.747,1008.769,721.909,1021.136,724.756z"/>
					<path fill="#233862" d="M1073.313,704.833c0,0-0.968-40.134-44.694-46.576c-29.95-4.412-27.458-26.109-24.035-30.072
						c0,0,38.71,0.321,61.974,6.183C1101.739,643.232,1078.511,698.866,1073.313,704.833z"/>
				</g>
			</g>
			<path fill="#2B478B" d="M1213.246,1417.664l-2.325-2.996l-26.43,14.812c-0.246,5.055-0.385,10.898-0.099,16.022
				c0.194,3.474-0.009,7.019-0.634,10.375c-0.551,2.623-3.349,13.814-11.533,16.753c-9.291,3.335-10.035,10.473,5.82,10.358
				c2.842-0.021,5.625-0.034,8.28-0.042c9.896-0.029,18.347-6.76,21.044-16.28c1.061-3.743,3.023-7.951,6.425-12.431
				c4.165-4.871,9.072-9.175,10.655-14.507C1227.17,1430.563,1213.246,1417.664,1213.246,1417.664z"/>
		</g>
		<g>
			<g>
				<polygon fill="#A03C37" points="1511.648,1227.27 1516.863,1223.022 1447.006,1131.728 1421.794,1130.675 				"/>
			</g>
			<g>
				<polygon fill="#A03C37" points="1602.923,1227.27 1607.237,1223.022 1549.442,1131.728 1528.583,1130.675 				"/>
			</g>
			<g>
				<ellipse fill="#B64C41" cx="1998.849" cy="989.333" rx="30.634" ry="31.372"/>
				<path fill="#B64C41" d="M1640.867,1412.248h311.492c3.385,0,6.153-2.79,6.153-6.199v-29.438c0-3.41-2.769-6.2-6.153-6.2
					h-275.161c-3.384,0-6.153,2.79-6.153,6.2L1640.867,1412.248z"/>
				<circle fill="#233862" cx="1545.034" cy="1389.189" r="93.091"/>
				<circle fill="#ED7D2B" cx="1545.034" cy="1389.192" r="47.454"/>
				<g>
					<path fill="#B64C41" d="M2023.523,1257.791c13.146-4.188,27.136-6.437,41.638-6.437c10.243,0,20.239,1.13,29.845,3.265
						c55.135,12.213,97.941,57.557,106.439,113.973c1.633,10.848-6.814,20.599-17.785,20.599h-0.605
						c-5.912,0-10.797-4.517-11.361-10.407c-5.255-54.158-51.029-96.639-106.532-96.639c-16.575,0-32.288,3.787-46.308,10.541
						c-35.9,17.304-60.737,54.056-60.737,96.505h-30.79C1927.326,1327.692,1967.805,1275.474,2023.523,1257.791z"/>
				</g>
				<g>
					<path fill="#B64C41" d="M1880.68,1370.408l46.646,18.782c32.298-62.811,65.284-93.632,93.498-108.832
						c50.751-27.361,86.077-4.187,74.182-25.739l-87.063-183.701c-8.159-11.341-18.791-19.952-30.676-25.576
						c-12.926-6.111-27.332-8.684-41.643-7.365c-16.613,1.531-27.471,18.294-22.18,34.117
						c11.396,34.085,15.779,68.347,15.779,100.882C1929.225,1281.252,1880.68,1370.408,1880.68,1370.408z"/>
				</g>
				<path fill="#B64C41" d="M1928.236,1059.225l35.133-13.423c4.781,0,13.898,4.321,13.898-0.46l-5.205-85.804
					c0-4.781-3.912-8.692-8.693-8.692h-22.646c-4.781,0-23.947,9.168-22.595,26.335l-6.025,86.491
					C1912.103,1068.454,1923.455,1059.225,1928.236,1059.225z"/>
				<path fill="#A03C37" d="M1329.813,1134.925h233.989c6.772,0,12.314-5.541,12.314-12.315v-8.449
					c0-6.773-5.542-12.316-12.314-12.316h-233.989c-6.773,0-12.315,5.543-12.315,12.316v8.449
					C1317.498,1129.384,1323.04,1134.925,1329.813,1134.925z"/>
				<circle fill="#233862" cx="2065.153" cy="1389.189" r="93.09"/>
				<path fill="#F99746" d="M2017.703,1389.19c0,7.994,1.981,15.528,5.471,22.127c0.227,0.431,0.463,0.853,0.709,1.272
					c8.139,14.368,23.574,24.057,41.268,24.057c26.212,0,47.457-21.244,47.457-47.456c0-19.747-12.059-36.671-29.219-43.804
					c-0.175-0.082-0.359-0.154-0.544-0.227c-5.47-2.206-11.443-3.416-17.694-3.416
					C2038.949,1341.744,2017.703,1362.988,2017.703,1389.19z"/>
				<path fill="#B64C41" d="M1724.195,1201.687c0,0-24.042,95.313,57.037,183.193l-199.379-14.469l25.384-192.384L1724.195,1201.687
					z"/>
				<path fill="#B64C41" d="M1357.38,1399.936c0,3.387,1.385,6.466,3.623,8.703c2.227,2.228,5.306,3.613,8.691,3.613h298.63
					c6.773,0,12.315-5.543,12.315-12.316l-3.962-195.319l-100.559-6.157C1442.164,1198.459,1357.38,1265.98,1357.38,1399.936z"/>
				<path fill="#D15050" d="M1968.215,987.55c0,3.028,0.277,5.983,0.811,8.857c4.156,22.373,23.79,39.308,47.365,39.308v-96.33
					C1989.788,939.385,1968.215,960.947,1968.215,987.55z"/>
				<g>
					<path fill="#2B478B" d="M1892.182,994.054c0.187,0,2.185-0.392,2.374-0.428l52.995-14.704c2.104-0.411,3.559-3.017,3.25-5.82
						c-0.308-2.805-2.258-4.746-4.366-4.334l-53.12,10.372c-2.104,0.411-3.778,3.604-4.275,6.36
						C1888.205,990.119,1890.303,994.054,1892.182,994.054z"/>
				</g>
				<path fill="#B64C41" d="M2020.239,1284.074c-0.482,2.967-0.944,5.84-1.386,8.611c0.134-0.062,0.268-0.134,0.41-0.195
					c13.917-6.63,29.486-10.346,45.897-10.346c55.503,0,101.277,42.48,106.532,96.639c0.564,5.891,5.449,10.407,11.361,10.407h0.605
					c10.971,0,19.418-9.751,17.785-20.599c-8.467-56.232-51.018-101.451-105.885-113.84c-0.185-0.051-0.369-0.092-0.555-0.133
					l-87.063-183.701c-8.159-11.341-18.791-19.952-30.676-25.576c14.84,24.971,55.779,104.828,46.256,212.449
					c-0.657,7.389-1.551,14.911-2.699,22.567C2020.629,1281.591,2020.444,1282.832,2020.239,1284.074z"/>
				<path fill="#F99746" d="M1524.208,1163.522v29.015c0,5.028,4.115,9.154,9.154,9.154h190.834c5.029,0,9.155-4.126,9.155-9.154
					v-29.015c0-5.039-4.126-9.155-9.155-9.155h-190.834C1528.323,1154.367,1524.208,1158.483,1524.208,1163.522z"/>
				<path fill="#A03C37" d="M1381.036,1412.252h287.288c0,0,17.529-106.368-47.129-142.289
					c-15.569-8.652-35.131-11.629-56.447-9.546C1497.575,1266.996,1412.986,1323.916,1381.036,1412.252z"/>
				<path fill="#A03C37" d="M1969.025,996.407c4.156,22.373,23.79,39.308,47.365,39.308v-26.879
					C2002.237,1009.4,1981.844,1007.861,1969.025,996.407z"/>
				<path fill="#ED7D2B" d="M1584.617,1201.691h139.579c5.029,0,9.155-4.126,9.155-9.154v-29.015c0-5.039-4.126-9.155-9.155-9.155
					h-95.622C1620.261,1166.099,1604.641,1185.988,1584.617,1201.691z"/>
				<path fill="#D15050" d="M1381.036,1412.252h119.32c72.017-36.548,67.614-124.719,64.392-151.835
					C1497.575,1266.996,1412.986,1323.916,1381.036,1412.252z"/>
				<path fill="#ED7D2B" d="M2023.883,1412.59c8.139,14.368,23.574,24.057,41.268,24.057c26.212,0,47.457-21.244,47.457-47.456
					c0-19.747-12.059-36.671-29.219-43.804C2079.263,1365.924,2065.982,1403.979,2023.883,1412.59z"/>
				<path fill="#A03C37" d="M2020.239,1284.074c-0.482,2.967-0.944,5.84-1.386,8.611c0.134-0.062,0.268-0.134,0.41-0.195
					c17.191-15.897,53.513-29.979,76.297-37.738c-0.185-0.051-0.369-0.092-0.555-0.133l-87.063-183.701
					c-8.159-11.341-18.791-19.952-30.676-25.576c14.84,24.971,55.779,104.828,46.256,212.449
					c-0.657,7.389-1.551,14.911-2.699,22.567C2020.629,1281.591,2020.444,1282.832,2020.239,1284.074z"/>
			</g>
			<g>
				<rect x="1408.177" y="979.206" fill="#D3671E" width="148.728" height="122.635"/>
				<rect x="1333.817" y="979.209" fill="#F1A34F" width="148.724" height="122.635"/>
				<polygon fill="#F1A34F" points="1556.817,1070.74 1533.25,1070.74 1535.327,1064.108 1533.25,1059.37 1556.817,1059.37 				"/>
				<polygon fill="#E78B37" points="1333.817,1060.514 1333.817,1101.844 1482.541,1101.844 1482.541,979.209 1456.195,979.209 				
					"/>
				<polygon opacity="0.4" fill="#D86713" points="1333.814,1006.715 1357.382,1006.715 1355.306,1000.083 1357.382,995.345 
					1333.814,995.345 				"/>
				<polygon fill="#F1A34F" points="1333.814,1082.11 1357.382,1082.11 1355.306,1075.479 1357.382,1070.74 1333.814,1070.74 				
					"/>
			</g>
			<g>
				<path fill="#FFB27D" d="M1707.605,868.072c-25.713,10.441-72.716-11.883-72.716-11.883s15.604-13.812,18.575-39.969
					c0.153-1.318,0.266-2.662,0.349-4.04c2.71-0.965,7.821-2.784,13.289-4.726l22.775,15.506c0,0,0.546,7.629-0.262,20.973
					c-0.136,2.33-0.317,4.832-0.556,7.504C1700.881,856.741,1707.605,868.072,1707.605,868.072z"/>
				<path fill="#ED975D" d="M1689.878,822.961c0,0,0.546,7.629-0.262,20.973c-20.722-3.766-32.126-20.504-36.151-27.713
					c0.153-1.318,0.266-2.662,0.349-4.04c2.71-0.965,7.821-2.784,13.289-4.726L1689.878,822.961z"/>
				<path fill="#FFB27D" d="M1694.082,834.072c0,0-44.284-1.443-42.961-29.007c1.322-27.563-3.502-46.313,24.827-46.558
					c28.33-0.244,33.314,10.537,35.11,19.845C1712.855,787.66,1705.635,833.736,1694.082,834.072z"/>
				<path fill="#2B478B" d="M1653.465,816.221c0,0-1.729-9.164,3.26-15.214c0,0-3.22-8.991,0.238-11.006
					c3.458-2.015,5.26,5.665,6.775,4.22s8.217-8.241,10.279-17.213c2.062-8.972,32.768-2.541,36.391-1.458
					c3.623,1.082-20.373-43.697-46.287-33.092s-27.863,23.91-24.87,34.691C1642.244,787.929,1641.976,814.004,1653.465,816.221z"/>
				<path fill="#2B478B" d="M1611.105,1079.299c0,0,3.07,54.093,15.387,69.503c12.316,15.409,248.369,9.429,248.369,9.429
					s1.027-34.684-8.21-43.603c-9.236-8.917-52.343-34.535-189.971-49.058L1611.105,1079.299z"/>
				<path fill="#B64C41" d="M1607.957,966.079c3.849,46.462-1.221,117.134,3.151,129.378c3.767,10.561,46.697,4.279,63.826,0.76
					c6.343-1.314,14.03-3.171,21.964-5.379c22.127-6.147,46.246-14.933,48.831-21.46c0.104-0.256,0.186-0.503,0.236-0.749
					c0.247-0.944,0.195-1.837-0.04-2.73c-0.637-2.462-2.627-5.069-3.777-9.596c-0.4-1.591-0.698-3.418-0.8-5.563
					c-0.4-8.416-0.38-18.197-0.668-28.727c-0.031-0.965-0.062-1.939-0.092-2.915c-0.021-1.313-0.041-2.739-0.195-4.044l-0.011-0.482
					c0-0.246-0.01-0.492-0.021-0.738c-0.369-12.983-1.128-26.623-2.001-40.16c-0.277-4.219-0.575-8.416-0.903-12.563
					c-0.103-1.468-0.226-2.925-0.338-4.372c-0.227-2.709-0.451-5.398-0.698-8.046c-1.93-20.814-4.536-39.329-7.975-51.029
					c-5.625-19.079-18.032-31.518-29.321-40.631l-8.17-6.292c-9.113,1.786-19.891,0.596-29.641-3.541
					c-10.54-4.505-14.184-7.728-16.021-6.507C1620.93,857.566,1603.411,909.272,1607.957,966.079z"/>
				<path fill="#1C4575" d="M1789.931,1336.193c0,0,2.087,33.671,8.602,34.154c0.866,0.063,33.04,0.063,33.04,0.063l41.07-0.238
					c0,0-0.268-9.896-12.273-11.988s-32.1-10.529-39.373-26.396C1813.346,1315.096,1789.931,1336.193,1789.931,1336.193z"/>
				<path fill="#2B478B" d="M1781.344,1338.387c0,0,7.943,6.107,24.119,6.887c4.166,0.195,7.984-0.02,11.33-0.451
					c8.918-1.13,14.492-3.705,14.492-3.705l43.577-182.891c0,0-47.211-41.247-71.843-15.6c-3.212,3.346-5.953,9.144-8.293,16.708
					C1779.106,1209.759,1781.344,1338.387,1781.344,1338.387z"/>
				<path fill="#A03C37" d="M1676.68,930.764c0,0,30.563,111.899,65.469,125.539c-0.4-1.591-0.698-3.418-0.8-5.563
					c-0.4-8.416-0.38-18.197-0.668-28.727c-0.031-0.965-0.062-1.939-0.092-2.915c-0.021-1.313-0.041-2.739-0.195-4.044l-0.011-0.482
					c0-0.246-0.01-0.492-0.021-0.738c-0.369-12.983-1.128-26.623-2.001-40.16c-0.277-4.219-0.575-8.416-0.903-12.563
					C1722.094,942.545,1701.24,929.203,1676.68,930.764z"/>
				<path fill="#FFB27D" d="M1860.014,973.869c0,0,13.309,1.025,16.73,0c3.421-1.026,19.5-10.605,25.315-8.553
					s20.526,17.105,16.764,23.947c0,0-6.843,0.171-13.172-6.329s-13.171-2.053-12.486-1.197c0.684,0.854,10.605,4.79,8.895,6.5
					c-1.71,1.711-14.711,1.368-17.789-0.684c-3.079-2.054-26.001,0.513-26.001,0.513L1860.014,973.869z"/>
				<path fill="#B64C41" d="M1676.681,871.75c0,0,82.768,70.555,104.554,77.356c21.785,6.802,98.76,21.763,98.76,21.763
					s2.119,18.224-5.099,25.065c0,0-98.902-5.734-111.219-8.341c-12.315-2.606-104.082-50.159-111.567-53.752
					C1644.625,930.25,1645.789,865.934,1676.681,871.75z"/>
				<path fill="#233862" d="M1781.344,1338.387c0,0,7.943,6.107,24.119,6.887c4.166,0.195,7.984-0.02,11.33-0.451
					c-24.857-31.437-22.066-185.487-22.066-185.487C1779.106,1209.759,1781.344,1338.387,1781.344,1338.387z"/>
				<path fill="#B64C41" d="M1632.719,778.971v0.42c0,1.16,0.533,2.155,1.293,2.576c0.257,0.144,0.534,0.226,0.811,0.226h104.931
					c1.16,0,2.104-1.263,2.104-2.802v-0.42c0-1.54-0.944-2.802-2.104-2.802l-23.431-3.007c-2.186-17.407-13.753-31.61-29.033-36.506
					c0,0-0.012,0-0.021,0c-3.727-1.201-7.666-1.837-11.741-1.837c-21.532,0-39.175,17.786-41.012,40.458
					c-0.021,0.267-0.041,0.523-0.062,0.79c-0.268,0.195-0.421,0.318-0.441,0.329
					C1633.252,776.815,1632.719,777.821,1632.719,778.971z"/>
				<path fill="#A03C37" d="M1668.178,775.276c-7.82-41.381,18.217-38.723,19.09-38.621c-3.727-1.201-7.666-1.837-11.741-1.837
					c-21.532,0-39.175,17.786-41.012,40.458H1668.178z"/>
			</g>
		</g>
		<g>
			<path fill="#FF9136" d="M1566.224,648.863c-1.188,0-2.346-0.604-3.003-1.696c-0.996-1.656-0.461-3.807,1.195-4.803
				c0.074-0.045,1.868-1.122,5.301-3.037c1.689-0.941,3.82-0.336,4.762,1.352c0.941,1.688,0.337,3.82-1.352,4.762
				c-3.319,1.852-5.086,2.912-5.104,2.922C1567.459,648.702,1566.837,648.863,1566.224,648.863z"/>
			<path fill="#FF9136" d="M2466.945,1086.856c-0.007,0-0.013,0-0.02,0c-1.933-0.011-3.491-1.586-3.481-3.519
				c0.005-0.729,0.007-1.48,0.007-2.251c-0.001-3.189-0.04-6.475-0.115-9.764c-0.044-1.933,1.486-3.535,3.419-3.579
				c1.907-0.054,3.535,1.485,3.579,3.419c0.076,3.342,0.116,6.68,0.117,9.923c0,0.784-0.002,1.548-0.007,2.289
				C2470.435,1085.302,2468.869,1086.856,2466.945,1086.856z M2466.399,1062.622c-1.855,0-3.402-1.457-3.493-3.33
				c-0.192-3.965-0.437-8.009-0.727-12.02c-0.14-1.929,1.31-3.604,3.238-3.744c1.932-0.14,3.604,1.311,3.743,3.238
				c0.294,4.067,0.542,8.167,0.737,12.186c0.093,1.932-1.396,3.572-3.327,3.666
				C2466.514,1062.621,2466.456,1062.622,2466.399,1062.622z M2464.652,1038.44c-1.783,0-3.308-1.356-3.48-3.168
				c-0.378-3.967-0.808-7.995-1.276-11.972c-0.226-1.92,1.146-3.66,3.066-3.886c1.921-0.231,3.659,1.146,3.886,3.065
				c0.475,4.029,0.91,8.109,1.293,12.128c0.184,1.924-1.228,3.633-3.152,3.816C2464.876,1038.436,2464.764,1038.44,2464.652,1038.44
				z M2461.817,1014.373c-1.717,0-3.216-1.265-3.461-3.014c-0.556-3.964-1.162-7.969-1.801-11.904
				c-0.31-1.908,0.985-3.706,2.894-4.016c1.906-0.304,3.706,0.985,4.016,2.895c0.646,3.984,1.26,8.04,1.823,12.053
				c0.269,1.914-1.065,3.684-2.979,3.952C2462.144,1014.362,2461.979,1014.373,2461.817,1014.373z M2457.935,990.459
				c-1.655,0-3.127-1.18-3.438-2.866c-0.723-3.916-1.501-7.891-2.313-11.813c-0.393-1.893,0.824-3.745,2.717-4.137
				c1.896-0.394,3.746,0.825,4.138,2.717c0.822,3.972,1.61,7.996,2.343,11.963c0.351,1.9-0.906,3.726-2.807,4.076
				C2458.359,990.439,2458.146,990.459,2457.935,990.459z M2453.022,966.74c-1.595,0-3.035-1.097-3.408-2.717
				c-0.896-3.896-1.846-7.833-2.824-11.699c-0.474-1.874,0.661-3.777,2.535-4.252c1.873-0.47,3.776,0.661,4.251,2.535
				c0.991,3.916,1.953,7.901,2.86,11.848c0.434,1.884-0.743,3.762-2.627,4.195C2453.546,966.711,2453.282,966.74,2453.022,966.74z
				 M2447.084,943.259c-1.535,0-2.943-1.017-3.372-2.568c-1.067-3.859-2.189-7.749-3.335-11.561
				c-0.556-1.851,0.494-3.803,2.345-4.358c1.852-0.561,3.803,0.493,4.359,2.345c1.16,3.859,2.296,7.799,3.378,11.709
				c0.515,1.862-0.578,3.791-2.44,4.306C2447.706,943.218,2447.392,943.259,2447.084,943.259z M2440.114,920.066
				c-1.475,0-2.847-0.94-3.327-2.419c-1.233-3.795-2.528-7.63-3.847-11.398c-0.639-1.824,0.322-3.821,2.146-4.46
				c1.823-0.639,3.821,0.322,4.46,2.147c1.336,3.817,2.647,7.703,3.897,11.547c0.598,1.839-0.408,3.813-2.247,4.41
				C2440.838,920.011,2440.474,920.066,2440.114,920.066z M2432.112,897.213c-1.416,0-2.749-0.866-3.276-2.271
				c-1.402-3.734-2.869-7.505-4.36-11.207c-0.722-1.793,0.147-3.832,1.94-4.554c1.795-0.72,3.832,0.147,4.554,1.94
				c1.51,3.752,2.997,7.574,4.419,11.358c0.68,1.81-0.236,3.828-2.046,4.508C2432.938,897.141,2432.521,897.213,2432.112,897.213z
				 M2423.076,874.75c-1.357,0-2.648-0.794-3.218-2.119c-1.584-3.685-3.225-7.383-4.876-10.991
				c-0.804-1.757-0.031-3.834,1.727-4.639c1.758-0.803,3.835-0.031,4.639,1.727c1.674,3.657,3.337,7.405,4.941,11.14
				c0.764,1.775-0.057,3.834-1.833,4.598C2424.006,874.658,2423.537,874.75,2423.076,874.75z M2413.001,852.738
				c-1.298,0-2.544-0.725-3.15-1.97c-1.742-3.582-3.555-7.197-5.388-10.746c-0.887-1.718-0.214-3.829,1.504-4.716
				c1.714-0.889,3.827-0.214,4.716,1.503c1.858,3.599,3.696,7.266,5.463,10.896c0.846,1.738,0.122,3.833-1.616,4.679
				C2414.037,852.625,2413.515,852.738,2413.001,852.738z M2401.893,831.23c-1.237,0-2.438-0.658-3.073-1.82
				c-1.922-3.511-3.906-7.035-5.897-10.474c-0.969-1.673-0.398-3.813,1.274-4.782c1.673-0.97,3.815-0.398,4.783,1.274
				c2.02,3.487,4.031,7.061,5.98,10.62c0.928,1.695,0.306,3.822-1.39,4.751C2403.037,831.092,2402.461,831.23,2401.893,831.23z
				 M2389.761,810.282c-1.178,0-2.327-0.594-2.988-1.673c-2.077-3.393-4.229-6.814-6.399-10.172c-1.049-1.623-0.584-3.79,1.04-4.839
				c1.624-1.051,3.791-0.583,4.839,1.04c2.201,3.404,4.385,6.875,6.49,10.316c1.01,1.648,0.491,3.803-1.157,4.813
				C2391.016,810.116,2390.384,810.282,2389.761,810.282z M2376.621,789.954c-1.118,0-2.217-0.534-2.895-1.528
				c-2.253-3.303-4.571-6.614-6.891-9.844c-1.128-1.569-0.77-3.757,0.8-4.885c1.569-1.126,3.757-0.771,4.885,0.801
				c2.353,3.274,4.704,6.634,6.989,9.983c1.09,1.598,0.678,3.775-0.919,4.864C2377.987,789.757,2377.301,789.954,2376.621,789.954z
				 M2362.498,770.301c-1.059,0-2.105-0.479-2.793-1.389c-2.399-3.17-4.877-6.363-7.368-9.49c-1.204-1.513-0.954-3.715,0.558-4.919
				c1.511-1.203,3.714-0.954,4.918,0.558c2.526,3.173,5.041,6.412,7.475,9.629c1.166,1.541,0.862,3.736-0.68,4.902
				C2363.976,770.07,2363.234,770.301,2362.498,770.301z M2347.422,751.368c-1,0-1.992-0.426-2.685-1.253
				c-2.551-3.046-5.185-6.112-7.827-9.115c-1.277-1.451-1.136-3.663,0.314-4.94c1.452-1.275,3.663-1.135,4.94,0.315
				c2.68,3.046,5.352,6.156,7.938,9.246c1.241,1.481,1.046,3.689-0.437,4.931C2349.012,751.101,2348.215,751.368,2347.422,751.368z
				 M2331.433,733.204c-0.942,0-1.881-0.378-2.571-1.124c-2.697-2.918-5.479-5.853-8.264-8.721
				c-1.347-1.387-1.314-3.603,0.072-4.949c1.387-1.348,3.603-1.315,4.949,0.072c2.825,2.909,5.646,5.886,8.382,8.846
				c1.313,1.419,1.226,3.634-0.193,4.946C2333.134,732.896,2332.282,733.204,2331.433,733.204z M2314.573,715.845
				c-0.885,0-1.77-0.333-2.451-1.002c-2.835-2.782-5.755-5.579-8.679-8.311c-1.412-1.319-1.486-3.534-0.167-4.946
				c1.321-1.413,3.535-1.486,4.947-0.167c2.964,2.77,5.925,5.605,8.801,8.428c1.38,1.354,1.401,3.569,0.047,4.949
				C2316.387,715.494,2315.48,715.845,2314.573,715.845z M2296.895,699.318c-0.828,0-1.659-0.292-2.327-0.887
				c-2.981-2.656-6.032-5.31-9.066-7.886c-1.473-1.251-1.653-3.46-0.401-4.934c1.251-1.474,3.46-1.653,4.934-0.402
				c3.075,2.612,6.168,5.303,9.19,7.995c1.443,1.285,1.571,3.498,0.285,4.941C2298.817,698.923,2297.858,699.318,2296.895,699.318z
				 M2278.452,683.654c-0.774,0-1.553-0.255-2.201-0.78c-3.084-2.497-6.255-5.006-9.427-7.456c-1.53-1.182-1.813-3.38-0.631-4.909
				c1.184-1.53,3.38-1.812,4.91-0.63c3.214,2.482,6.428,5.024,9.553,7.556c1.503,1.217,1.734,3.42,0.518,4.923
				C2280.482,683.211,2279.472,683.654,2278.452,683.654z M2259.302,668.863c-0.72,0-1.447-0.222-2.072-0.682
				c-3.208-2.363-6.491-4.725-9.758-7.02c-1.582-1.111-1.964-3.294-0.853-4.876c1.112-1.582,3.295-1.963,4.876-0.853
				c3.31,2.325,6.636,4.718,9.886,7.111c1.557,1.146,1.889,3.338,0.742,4.895C2261.437,668.37,2260.377,668.863,2259.302,668.863z
				 M2239.504,654.951c-0.67,0-1.347-0.191-1.945-0.593c-3.31-2.218-6.694-4.433-10.06-6.583c-1.628-1.041-2.105-3.205-1.064-4.834
				c1.04-1.629,3.205-2.105,4.834-1.064c3.407,2.178,6.835,4.421,10.187,6.667c1.606,1.076,2.035,3.25,0.96,4.855
				C2241.739,654.407,2240.633,654.951,2239.504,654.951z M2219.117,641.922c-0.621,0-1.25-0.165-1.818-0.512
				c-3.408-2.077-6.886-4.146-10.334-6.152c-1.672-0.971-2.239-3.113-1.268-4.784s3.114-2.237,4.785-1.268
				c3.49,2.029,7.009,4.124,10.459,6.226c1.65,1.006,2.174,3.16,1.167,4.811C2221.449,641.324,2220.297,641.922,2219.117,641.922z
				 M1582.079,640.147c-1.263,0-2.481-0.686-3.106-1.882c-0.894-1.714-0.229-3.828,1.484-4.722
				c3.493-1.823,7.149-3.682,10.867-5.522c1.731-0.856,3.833-0.148,4.689,1.583c0.858,1.732,0.149,3.832-1.583,4.69
				c-3.674,1.819-7.285,3.654-10.735,5.454C1583.178,640.02,1582.624,640.147,1582.079,640.147z M2198.195,629.76
				c-0.574,0-1.155-0.142-1.693-0.439c-3.511-1.945-7.071-3.87-10.583-5.723c-1.71-0.901-2.364-3.019-1.463-4.729
				c0.901-1.711,3.019-2.364,4.729-1.463c3.554,1.874,7.157,3.823,10.71,5.791c1.69,0.937,2.303,3.066,1.365,4.758
				C2200.621,629.108,2199.427,629.76,2198.195,629.76z M1603.788,629.387c-1.313,0-2.57-0.741-3.167-2.007
				c-0.826-1.748-0.078-3.834,1.671-4.659c3.624-1.711,7.344-3.427,11.055-5.1c1.762-0.797,3.835-0.011,4.63,1.752
				c0.794,1.762,0.01,3.835-1.753,4.629c-3.674,1.657-7.356,3.355-10.944,5.049C1604.797,629.278,1604.288,629.387,1603.788,629.387
				z M1625.871,619.426c-1.355,0-2.646-0.792-3.216-2.115c-0.766-1.775,0.053-3.834,1.828-4.6c3.703-1.597,7.477-3.188,11.213-4.728
				c1.787-0.736,3.833,0.115,4.57,1.903c0.736,1.787-0.116,3.833-1.903,4.569c-3.702,1.525-7.439,3.101-11.108,4.683
				C1626.803,619.334,1626.334,619.426,1625.871,619.426z M2176.787,618.467c-0.527,0-1.063-0.12-1.566-0.372
				c-3.587-1.798-7.224-3.574-10.81-5.279c-1.745-0.83-2.488-2.919-1.657-4.664c0.83-1.746,2.918-2.487,4.663-1.658
				c3.63,1.727,7.311,3.524,10.94,5.344c1.729,0.866,2.428,2.97,1.561,4.697C2179.305,617.759,2178.069,618.467,2176.787,618.467z
				 M1648.265,610.191c-1.396,0-2.714-0.841-3.258-2.218c-0.708-1.798,0.175-3.831,1.974-4.539c3.778-1.489,7.598-2.96,11.354-4.372
				c1.808-0.681,3.827,0.234,4.508,2.045c0.68,1.81-0.235,3.827-2.045,4.508c-3.721,1.398-7.506,2.855-11.25,4.331
				C1649.125,610.112,1648.691,610.191,1648.265,610.191z M2154.929,608.073c-0.48,0-0.969-0.1-1.435-0.31
				c-3.643-1.639-7.35-3.261-11.021-4.819c-1.779-0.756-2.608-2.811-1.853-4.59s2.813-2.607,4.589-1.854
				c3.716,1.578,7.47,3.221,11.157,4.88c1.763,0.793,2.549,2.865,1.755,4.628C2157.539,607.305,2156.264,608.073,2154.929,608.073z
				 M1670.933,601.663c-1.436,0-2.782-0.891-3.295-2.319c-0.652-1.819,0.294-3.823,2.113-4.477c3.824-1.371,7.687-2.724,11.479-4.02
				c1.829-0.623,3.818,0.352,4.443,2.182c0.625,1.829-0.352,3.818-2.181,4.443c-3.76,1.284-7.588,2.624-11.379,3.984
				C1671.724,601.597,1671.325,601.663,1670.933,601.663z M2132.652,598.608c-0.434,0-0.873-0.081-1.299-0.251
				c-3.708-1.483-7.481-2.946-11.215-4.349c-1.811-0.679-2.727-2.697-2.047-4.507c0.679-1.81,2.695-2.727,4.507-2.046
				c3.78,1.419,7.601,2.9,11.354,4.401c1.795,0.719,2.668,2.755,1.949,4.55C2135.355,597.775,2134.041,598.608,2132.652,598.608z
				 M1693.85,593.833c-1.476,0-2.848-0.94-3.328-2.42c-0.597-1.839,0.41-3.813,2.249-4.41c3.848-1.249,7.749-2.482,11.598-3.666
				c1.85-0.571,3.806,0.469,4.374,2.317c0.568,1.847-0.469,3.806-2.316,4.374c-3.813,1.173-7.681,2.395-11.494,3.633
				C1694.572,593.777,1694.208,593.833,1693.85,593.833z M2109.994,590.099c-0.386,0-0.776-0.063-1.16-0.198
				c-3.797-1.334-7.629-2.634-11.391-3.866c-1.837-0.602-2.839-2.579-2.237-4.416c0.602-1.836,2.579-2.837,4.416-2.236
				c3.808,1.247,7.688,2.564,11.531,3.913c1.823,0.641,2.783,2.639,2.143,4.462C2112.79,589.197,2111.438,590.099,2109.994,590.099z
				 M1716.996,586.712c-1.518,0-2.915-0.994-3.36-2.523c-0.539-1.856,0.527-3.799,2.384-4.338c3.894-1.133,7.832-2.245,11.704-3.308
				c1.862-0.507,3.79,0.587,4.301,2.451c0.512,1.863-0.586,3.789-2.45,4.3c-3.838,1.053-7.74,2.155-11.6,3.277
				C1717.647,586.667,1717.318,586.712,1716.996,586.712z M2086.992,582.564c-0.337,0-0.681-0.049-1.02-0.152
				c-3.805-1.157-7.688-2.293-11.545-3.376c-1.86-0.523-2.945-2.455-2.423-4.316s2.458-2.945,4.315-2.424
				c3.905,1.097,7.838,2.247,11.689,3.419c1.85,0.563,2.893,2.519,2.33,4.367C2089.88,581.592,2088.492,582.564,2086.992,582.564z
				 M1740.349,580.31c-1.56,0-2.981-1.049-3.388-2.629c-0.481-1.872,0.646-3.78,2.518-4.262c3.897-1.003,7.868-1.991,11.803-2.938
				c1.879-0.447,3.77,0.705,4.222,2.584c0.452,1.88-0.705,3.77-2.584,4.222c-3.899,0.938-7.834,1.919-11.696,2.912
				C1740.931,580.273,1740.637,580.31,1740.349,580.31z M2063.69,576.018c-0.289,0-0.584-0.036-0.877-0.112
				c-3.882-1.002-7.811-1.972-11.679-2.882c-1.881-0.443-3.048-2.328-2.604-4.21c0.443-1.881,2.328-3.048,4.209-2.604
				c3.916,0.923,7.895,1.904,11.823,2.919c1.872,0.482,2.998,2.392,2.516,4.264C2066.67,574.97,2065.248,576.018,2063.69,576.018z
				 M1763.891,574.646c-1.603,0-3.048-1.107-3.412-2.737c-0.422-1.886,0.765-3.758,2.651-4.18c3.974-0.889,7.975-1.75,11.892-2.56
				c1.896-0.388,3.744,0.827,4.136,2.719c0.392,1.894-0.826,3.745-2.719,4.137c-3.88,0.802-7.844,1.655-11.78,2.536
				C1764.4,574.618,1764.144,574.646,1763.891,574.646z M2040.131,570.466c-0.242,0-0.488-0.025-0.734-0.078
				c-3.888-0.83-7.854-1.633-11.791-2.387c-1.898-0.363-3.143-2.197-2.778-4.096s2.199-3.145,4.096-2.779
				c3.984,0.764,8,1.576,11.935,2.416c1.891,0.403,3.096,2.263,2.693,4.153C2043.199,569.34,2041.747,570.466,2040.131,570.466z
				 M1787.602,569.744c-1.648,0-3.116-1.17-3.435-2.848c-0.361-1.899,0.887-3.731,2.785-4.092c3.988-0.758,8.016-1.487,11.971-2.17
				c1.905-0.32,3.716,0.949,4.044,2.854c0.329,1.904-0.949,3.715-2.854,4.044c-3.917,0.676-7.905,1.398-11.855,2.148
				C1788.038,569.724,1787.817,569.744,1787.602,569.744z M2016.357,565.911c-0.194,0-0.392-0.017-0.59-0.051
				c-3.951-0.671-7.948-1.308-11.882-1.893c-1.912-0.284-3.231-2.064-2.947-3.977s2.068-3.238,3.978-2.947
				c3.98,0.592,8.025,1.236,12.023,1.916c1.906,0.323,3.188,2.131,2.864,4.036C2019.514,564.704,2018.033,565.911,2016.357,565.911z
				 M1811.46,565.623c-1.695,0-3.186-1.234-3.454-2.963c-0.297-1.91,1.012-3.699,2.922-3.996c4.014-0.623,8.063-1.218,12.036-1.766
				c1.914-0.269,3.682,1.073,3.946,2.988c0.264,1.915-1.074,3.682-2.989,3.945c-3.934,0.544-7.944,1.132-11.919,1.75
				C1811.82,565.609,1811.639,565.623,1811.46,565.623z M1992.416,562.348c-0.148,0-0.298-0.009-0.449-0.028
				c-3.943-0.504-7.964-0.976-11.949-1.402c-1.923-0.206-3.313-1.931-3.107-3.854c0.205-1.922,1.931-3.319,3.853-3.107
				c4.032,0.433,8.102,0.91,12.092,1.42c1.918,0.245,3.273,1.998,3.028,3.915C1995.657,561.059,1994.15,562.348,1992.416,562.348z
				 M1835.444,562.313c-1.746,0-3.256-1.305-3.471-3.082c-0.23-1.919,1.138-3.662,3.057-3.893c4.038-0.486,8.106-0.94,12.094-1.349
				c1.92-0.211,3.642,1.202,3.839,3.124c0.196,1.924-1.202,3.642-3.125,3.839c-3.946,0.405-7.974,0.854-11.971,1.335
				C1835.726,562.306,1835.584,562.313,1835.444,562.313z M1859.528,559.841c-1.799,0-3.329-1.379-3.483-3.204
				c-0.163-1.927,1.266-3.62,3.192-3.783c4.071-0.345,8.154-0.654,12.135-0.918c1.928-0.114,3.597,1.332,3.724,3.261
				c0.128,1.929-1.332,3.596-3.261,3.724c-3.938,0.262-7.978,0.567-12.007,0.908
				C1859.728,559.837,1859.628,559.841,1859.528,559.841z M1968.346,559.769c-0.101,0-0.203-0.004-0.306-0.013
				c-3.962-0.344-7.999-0.653-11.999-0.92c-1.929-0.129-3.389-1.797-3.26-3.726c0.129-1.928,1.787-3.384,3.726-3.259
				c4.046,0.27,8.129,0.583,12.137,0.93c1.926,0.167,3.353,1.863,3.186,3.789C1971.671,558.394,1970.143,559.769,1968.346,559.769z
				 M1883.687,558.232c-1.855,0-3.403-1.458-3.493-3.331c-0.093-1.931,1.396-3.572,3.327-3.665
				c4.064-0.196,8.156-0.355,12.161-0.474c1.942-0.086,3.545,1.462,3.602,3.395c0.058,1.932-1.463,3.545-3.395,3.602
				c-3.961,0.118-8.009,0.275-12.031,0.47C1883.801,558.231,1883.743,558.232,1883.687,558.232z M1944.192,558.159
				c-0.056,0-0.111-0.001-0.168-0.004c-3.989-0.188-8.036-0.338-12.026-0.446c-1.933-0.053-3.456-1.662-3.403-3.595
				s1.679-3.476,3.594-3.403c4.037,0.11,8.13,0.263,12.165,0.452c1.931,0.091,3.423,1.729,3.332,3.66
				C1947.597,556.698,1946.049,558.159,1944.192,558.159z M1907.886,557.514c-1.915,0-3.478-1.542-3.499-3.462
				c-0.021-1.933,1.529-3.517,3.462-3.538c4.04-0.043,8.097-0.051,12.171-0.019c1.934,0.016,3.487,1.595,3.472,3.528
				c-0.016,1.923-1.579,3.472-3.499,3.472c-0.01,0-0.02,0-0.028,0c-4.032-0.032-8.043-0.024-12.039,0.019
				C1907.912,557.514,1907.899,557.514,1907.886,557.514z"/>
			<path fill="#FF9136" d="M2466.332,1104.805c-0.1,0-0.199-0.005-0.301-0.013c-1.926-0.164-3.354-1.859-3.19-3.784
				c0.002-0.021,0.175-2.07,0.333-5.837c0.082-1.931,1.707-3.422,3.645-3.35c1.932,0.082,3.432,1.714,3.35,3.645
				c-0.166,3.938-0.345,6.049-0.352,6.137C2469.66,1103.428,2468.131,1104.805,2466.332,1104.805z"/>
		</g>
		<g>
			<path fill="#FF9136" d="M976.465,799.788c-0.135,0-0.271-0.008-0.408-0.023c-1.987-0.23-3.968-0.454-5.943-0.673
				c-1.921-0.212-3.306-1.941-3.095-3.862c0.213-1.921,1.94-3.309,3.864-3.095c1.988,0.219,3.981,0.444,5.982,0.677
				c1.92,0.223,3.296,1.96,3.073,3.88C979.729,798.475,978.217,799.788,976.465,799.788z"/>
			<path fill="#FF9136" d="M323.242,1252.779c-0.15,0-0.302-0.01-0.456-0.029c-1.917-0.249-3.269-2.005-3.02-3.922
				c0.507-3.902,1.088-7.953,1.726-12.041c0.298-1.91,2.092-3.219,3.998-2.918c1.91,0.298,3.217,2.088,2.918,3.998
				c-0.628,4.028-1.201,8.021-1.701,11.863C326.479,1251.494,324.974,1252.779,323.242,1252.779z M326.95,1228.933
				c-0.205,0-0.413-0.019-0.622-0.056c-1.902-0.342-3.168-2.161-2.827-4.063c0.706-3.933,1.469-7.94,2.268-11.912
				c0.381-1.896,2.228-3.126,4.122-2.741c1.895,0.382,3.122,2.228,2.741,4.122c-0.79,3.924-1.543,7.883-2.241,11.768
				C330.087,1227.743,328.612,1228.933,326.95,1228.933z M331.704,1205.307c-0.252,0-0.508-0.027-0.764-0.085
				c-1.887-0.42-3.076-2.29-2.656-4.177c0.869-3.901,1.794-7.87,2.751-11.797c0.458-1.878,2.354-3.03,4.229-2.571
				c1.878,0.458,3.03,2.351,2.572,4.229c-0.946,3.881-1.86,7.804-2.719,11.66C334.753,1204.197,333.308,1205.307,331.704,1205.307z
				 M337.404,1181.908c-0.297,0-0.598-0.038-0.898-0.117c-1.869-0.495-2.982-2.411-2.488-4.279
				c1.028-3.884,2.109-7.811,3.212-11.673c0.531-1.859,2.467-2.934,4.327-2.403c1.858,0.531,2.935,2.469,2.403,4.327
				c-1.091,3.818-2.16,7.7-3.176,11.54C340.37,1180.871,338.954,1181.908,337.404,1181.908z M344.017,1158.761
				c-0.34,0-0.687-0.05-1.029-0.155c-1.848-0.567-2.886-2.525-2.318-4.373c1.181-3.845,2.415-7.726,3.667-11.535
				c0.604-1.836,2.583-2.834,4.418-2.232c1.836,0.604,2.836,2.582,2.232,4.418c-1.238,3.767-2.458,7.604-3.625,11.404
				C346.899,1157.793,345.514,1158.761,344.017,1158.761z M351.533,1135.896c-0.384,0-0.775-0.063-1.159-0.198
				c-1.824-0.64-2.784-2.638-2.144-4.461c1.33-3.79,2.716-7.619,4.12-11.379c0.676-1.811,2.69-2.733,4.503-2.054
				c1.811,0.676,2.73,2.692,2.054,4.503c-1.388,3.717-2.758,7.5-4.072,11.246C354.331,1134.995,352.978,1135.896,351.533,1135.896z
				 M359.951,1113.356c-0.43,0-0.866-0.079-1.29-0.247c-1.797-0.713-2.676-2.747-1.963-4.544c1.482-3.737,3.022-7.507,4.577-11.204
				c0.75-1.781,2.802-2.618,4.583-1.869c1.782,0.75,2.619,2.802,1.869,4.584c-1.536,3.652-3.058,7.377-4.522,11.069
				C362.661,1112.52,361.344,1113.356,359.951,1113.356z M369.278,1091.18c-0.476,0-0.959-0.098-1.422-0.304
				c-1.766-0.786-2.56-2.855-1.773-4.621c1.64-3.682,3.335-7.384,5.04-11.003c0.824-1.748,2.908-2.5,4.658-1.675
				c1.749,0.823,2.499,2.908,1.675,4.657c-1.684,3.575-3.358,7.231-4.978,10.868C371.897,1090.405,370.618,1091.18,369.278,1091.18z
				 M379.527,1069.419c-0.524,0-1.055-0.118-1.556-0.367c-1.731-0.86-2.437-2.961-1.576-4.692c1.797-3.613,3.649-7.24,5.506-10.778
				c0.898-1.712,3.014-2.367,4.726-1.473c1.711,0.898,2.371,3.015,1.473,4.727c-1.833,3.492-3.663,7.073-5.437,10.642
				C382.052,1068.706,380.813,1069.419,379.527,1069.419z M390.703,1048.122c-0.573,0-1.154-0.142-1.691-0.438
				c-1.691-0.937-2.303-3.066-1.368-4.757c1.957-3.535,3.968-7.076,5.979-10.524c0.974-1.67,3.117-2.233,4.787-1.26
				c1.669,0.974,2.233,3.117,1.26,4.787c-1.985,3.402-3.971,6.896-5.901,10.386C393.129,1047.47,391.935,1048.122,390.703,1048.122z
				 M402.819,1027.352c-0.625,0-1.258-0.168-1.829-0.52c-1.647-1.012-2.162-3.167-1.149-4.814c2.117-3.444,4.289-6.89,6.455-10.238
				c1.049-1.625,3.215-2.092,4.84-1.038c1.623,1.049,2.088,3.216,1.038,4.839c-2.137,3.305-4.28,6.704-6.369,10.104
				C405.143,1026.759,403.995,1027.352,402.819,1027.352z M415.879,1007.16c-0.679,0-1.365-0.196-1.968-0.607
				c-1.598-1.089-2.01-3.266-0.922-4.863c2.278-3.343,4.61-6.682,6.933-9.923c1.125-1.57,3.313-1.931,4.883-0.806
				c1.571,1.126,1.932,3.313,0.806,4.884c-2.291,3.196-4.591,6.488-6.837,9.786C418.097,1006.625,416.998,1007.16,415.879,1007.16z
				 M429.885,987.622c-0.734,0-1.474-0.229-2.104-0.705c-1.543-1.164-1.852-3.358-0.688-4.902c2.419-3.208,4.911-6.431,7.408-9.577
				c1.201-1.513,3.402-1.766,4.917-0.566c1.514,1.202,1.768,3.403,0.566,4.918c-2.46,3.102-4.917,6.277-7.302,9.44
				C431.994,987.142,430.946,987.622,429.885,987.622z M444.829,968.792c-0.791,0-1.586-0.267-2.241-0.813
				c-1.484-1.238-1.683-3.446-0.443-4.93c2.569-3.077,5.219-6.171,7.877-9.195c1.276-1.451,3.487-1.594,4.939-0.318
				c1.452,1.276,1.595,3.487,0.318,4.939c-2.619,2.98-5.23,6.028-7.762,9.061C446.826,968.364,445.831,968.792,444.829,968.792z
				 M460.699,950.739c-0.85,0-1.703-0.308-2.376-0.931c-1.419-1.313-1.505-3.527-0.192-4.946c2.737-2.958,5.542-5.913,8.335-8.781
				c1.35-1.385,3.565-1.414,4.95-0.064c1.384,1.349,1.414,3.564,0.064,4.949c-2.752,2.826-5.516,5.736-8.212,8.65
				C462.58,950.361,461.641,950.739,460.699,950.739z M477.472,933.525c-0.912,0-1.821-0.354-2.507-1.058
				c-1.349-1.385-1.32-3.601,0.064-4.949c2.887-2.813,5.842-5.617,8.781-8.336c1.419-1.313,3.634-1.227,4.946,0.193
				c1.313,1.419,1.226,3.633-0.193,4.945c-2.895,2.678-5.805,5.44-8.649,8.211C479.233,933.195,478.352,933.525,477.472,933.525z
				 M495.116,917.21c-0.973,0-1.941-0.403-2.633-1.192c-1.274-1.453-1.13-3.664,0.324-4.939c3.013-2.643,6.11-5.288,9.206-7.862
				c1.487-1.237,3.693-1.033,4.93,0.452c1.236,1.486,1.033,3.693-0.453,4.929c-3.049,2.536-6.1,5.143-9.067,7.745
				C496.758,916.924,495.936,917.21,495.116,917.21z M513.592,901.845c-1.035,0-2.061-0.457-2.751-1.334
				c-1.196-1.519-0.936-3.719,0.583-4.915c3.158-2.488,6.391-4.967,9.607-7.367c1.549-1.157,3.743-0.836,4.898,0.713
				c1.156,1.549,0.837,3.742-0.712,4.898c-3.167,2.363-6.351,4.804-9.461,7.254C515.114,901.6,514.35,901.845,513.592,901.845z
				 M532.85,887.478c-1.099,0-2.181-0.516-2.863-1.481c-1.114-1.58-0.737-3.764,0.842-4.878c3.287-2.32,6.645-4.624,9.981-6.85
				c1.607-1.073,3.781-0.639,4.854,0.969c1.073,1.608,0.639,3.781-0.969,4.854c-3.285,2.192-6.592,4.462-9.83,6.746
				C534.251,887.27,533.547,887.478,532.85,887.478z M552.835,874.143c-1.162,0-2.298-0.577-2.964-1.633
				c-1.031-1.635-0.542-3.796,1.093-4.827c3.367-2.124,6.84-4.251,10.324-6.322c1.661-0.988,3.809-0.441,4.797,1.221
				c0.988,1.661,0.442,3.809-1.22,4.797c-3.431,2.039-6.851,4.134-10.167,6.225C554.119,873.969,553.473,874.143,552.835,874.143z
				 M573.483,861.866c-1.225,0-2.415-0.646-3.056-1.79c-0.945-1.687-0.344-3.819,1.342-4.765c3.495-1.958,7.072-3.902,10.632-5.78
				c1.709-0.9,3.827-0.248,4.729,1.463c0.902,1.71,0.247,3.827-1.463,4.729c-3.508,1.851-7.032,3.767-10.476,5.696
				C574.65,861.722,574.063,861.866,573.483,861.866z M594.733,850.659c-1.288,0-2.527-0.714-3.139-1.946
				c-0.859-1.731-0.151-3.832,1.581-4.69c3.572-1.771,7.242-3.533,10.908-5.238c1.753-0.813,3.834-0.054,4.649,1.698
				c0.815,1.753,0.055,3.834-1.698,4.649c-3.613,1.68-7.229,3.417-10.749,5.162C595.785,850.542,595.255,850.659,594.733,850.659z
				 M616.513,840.527c-1.351,0-2.638-0.786-3.211-2.104c-0.772-1.771,0.039-3.834,1.811-4.606c3.681-1.604,7.432-3.184,11.147-4.697
				c1.79-0.733,3.832,0.13,4.562,1.921c0.729,1.79-0.13,3.832-1.921,4.562c-3.664,1.492-7.362,3.051-10.992,4.633
				C617.454,840.434,616.979,840.527,616.513,840.527z M638.758,831.465c-1.411,0-2.74-0.859-3.272-2.257
				c-0.687-1.807,0.221-3.828,2.027-4.516c3.729-1.418,7.548-2.819,11.354-4.165c1.822-0.646,3.822,0.311,4.467,2.133
				s-0.311,3.822-2.133,4.467c-3.755,1.328-7.523,2.71-11.2,4.108C639.592,831.391,639.172,831.465,638.758,831.465z
				 M661.404,823.451c-1.472,0-2.842-0.936-3.325-2.41c-0.603-1.837,0.398-3.814,2.235-4.417c3.825-1.254,7.703-2.479,11.527-3.641
				c1.852-0.565,3.804,0.48,4.366,2.331c0.562,1.85-0.481,3.805-2.331,4.366c-3.775,1.147-7.604,2.356-11.381,3.596
				C662.133,823.395,661.765,823.451,661.404,823.451z M684.387,816.469c-1.53,0-2.935-1.011-3.368-2.557
				c-0.521-1.861,0.564-3.793,2.426-4.314c3.851-1.079,7.779-2.134,11.674-3.136c1.871-0.48,3.78,0.646,4.261,2.518
				c0.481,1.872-0.646,3.78-2.518,4.262c-3.847,0.989-7.726,2.031-11.528,3.097C685.017,816.427,684.699,816.469,684.387,816.469z
				 M707.65,810.48c-1.588,0-3.025-1.088-3.404-2.7c-0.442-1.882,0.725-3.766,2.607-4.208c3.89-0.914,7.856-1.805,11.79-2.646
				c1.889-0.402,3.75,0.8,4.155,2.691c0.404,1.89-0.801,3.75-2.691,4.154c-3.887,0.831-7.808,1.711-11.652,2.614
				C708.185,810.45,707.916,810.48,707.65,810.48z M731.141,805.454c-1.644,0-3.109-1.163-3.433-2.837
				c-0.367-1.897,0.875-3.733,2.772-4.101c3.923-0.758,7.921-1.49,11.883-2.176c1.904-0.333,3.716,0.947,4.046,2.851
				c0.33,1.905-0.947,3.717-2.852,4.046c-3.917,0.679-7.871,1.402-11.75,2.152C731.585,805.433,731.361,805.454,731.141,805.454z
				 M754.812,801.35c-1.698,0-3.188-1.237-3.455-2.968c-0.294-1.91,1.017-3.697,2.927-3.991c3.949-0.608,7.97-1.189,11.952-1.729
				c1.916-0.257,3.679,1.084,3.938,2.999c0.259,1.916-1.083,3.679-2.999,3.938c-3.94,0.533-7.919,1.108-11.826,1.709
				C755.168,801.337,754.989,801.35,754.812,801.35z M778.619,798.128c-1.751,0-3.263-1.312-3.472-3.093
				c-0.225-1.92,1.149-3.659,3.069-3.884c3.968-0.464,8.006-0.901,12.003-1.3c1.917-0.189,3.638,1.212,3.83,3.135
				c0.191,1.924-1.212,3.639-3.136,3.83c-3.957,0.395-7.955,0.828-11.884,1.288C778.892,798.12,778.754,798.128,778.619,798.128z
				 M958.547,797.863c-0.115,0-0.231-0.006-0.348-0.017c-4.009-0.396-8.022-0.77-11.928-1.109c-1.926-0.167-3.351-1.864-3.184-3.789
				c0.167-1.927,1.865-3.353,3.79-3.185c3.933,0.343,7.974,0.718,12.01,1.116c1.923,0.19,3.329,1.903,3.139,3.827
				C961.847,796.514,960.325,797.863,958.547,797.863z M934.596,795.779c-0.088,0-0.177-0.003-0.266-0.01
				c-3.938-0.295-7.959-0.572-11.95-0.822c-1.929-0.121-3.395-1.783-3.274-3.712s1.783-3.389,3.712-3.274
				c4.019,0.252,8.069,0.53,12.035,0.828c1.928,0.145,3.373,1.824,3.229,3.752C937.945,794.38,936.41,795.779,934.596,795.779z
				 M802.525,795.743c-1.802,0-3.333-1.384-3.484-3.212c-0.159-1.927,1.274-3.617,3.2-3.776c3.963-0.327,8.013-0.628,12.037-0.895
				c1.93-0.145,3.596,1.333,3.724,3.261c0.128,1.929-1.332,3.596-3.261,3.724c-3.987,0.264-7.999,0.563-11.924,0.887
				C802.72,795.739,802.623,795.743,802.525,795.743z M910.6,794.28c-0.059,0-0.118-0.001-0.177-0.004
				c-3.973-0.198-7.999-0.373-11.964-0.518c-1.932-0.071-3.44-1.694-3.37-3.626c0.07-1.932,1.704-3.428,3.625-3.37
				c3.997,0.146,8.053,0.322,12.057,0.521c1.931,0.097,3.417,1.74,3.321,3.671C914,792.826,912.453,794.28,910.6,794.28z
				 M826.501,794.156c-1.853,0-3.399-1.454-3.493-3.325c-0.097-1.931,1.391-3.574,3.321-3.671c4.011-0.2,8.067-0.371,12.056-0.51
				c1.923-0.03,3.552,1.445,3.619,3.377s-1.446,3.552-3.377,3.619c-3.954,0.137-7.974,0.307-11.949,0.506
				C826.619,794.155,826.56,794.156,826.501,794.156z M886.571,793.4c-0.027,0-0.055,0-0.083-0.001
				c-4.001-0.093-8.029-0.159-11.972-0.195c-1.933-0.019-3.485-1.6-3.467-3.532c0.018-1.934,1.591-3.462,3.533-3.468
				c3.976,0.037,8.036,0.104,12.069,0.197c1.933,0.045,3.463,1.647,3.418,3.58C890.024,791.887,888.466,793.4,886.571,793.4z
				 M850.514,793.324c-1.9,0-3.46-1.521-3.498-3.431c-0.038-1.933,1.497-3.53,3.43-3.568c3.952-0.079,8.012-0.129,12.066-0.148
				c0.006,0,0.012,0,0.018,0c1.925,0,3.49,1.556,3.5,3.483c0.009,1.933-1.55,3.507-3.483,3.517c-4.02,0.02-8.043,0.069-11.96,0.146
				C850.561,793.324,850.538,793.324,850.514,793.324z"/>
			<path fill="#FF9136" d="M321.378,1270.637c-0.07,0-0.139-0.002-0.209-0.007c-1.93-0.113-3.401-1.77-3.288-3.699
				c0.005-0.087,0.131-2.193,0.51-6.106c0.187-1.924,1.901-3.349,3.822-3.146c1.924,0.187,3.333,1.897,3.146,3.821
				c-0.365,3.763-0.489,5.822-0.49,5.843C324.759,1269.202,323.217,1270.637,321.378,1270.637z"/>
		</g>
	</g>
	<path fill="#2E3552" d="M2756.01,1488H82.033c-1.656,0-3.011-1.355-3.011-3.012l0,0c0-1.656,1.355-3.012,3.012-3.012H2756.01
		c1.656,0,3.012,1.355,3.012,3.012v0.001C2759.021,1486.645,2757.666,1488,2756.01,1488z"/>
</g>
</svg>
