<?xml version="1.0" encoding="utf-8"?>
<!-- Generator: Adobe Illustrator 16.0.0, SVG Export Plug-In . SVG Version: 6.00 Build 0)  -->
<!DOCTYPE svg PUBLIC "-//W3C//DTD SVG 1.1//EN" "http://www.w3.org/Graphics/SVG/1.1/DTD/svg11.dtd">
<svg version="1.1" id="_x2018_лой_x5F_1" xmlns="http://www.w3.org/2000/svg" xmlns:xlink="http://www.w3.org/1999/xlink"
	 x="0px" y="0px" width="2926.12px" height="1488px" viewBox="0 0 2926.12 1488" enable-background="new 0 0 2926.12 1488"
	 xml:space="preserve">
<g>
	<path fill="#90D8F7" d="M2229.156,1023.703h-416.722c-27.793,0-50.338-28.003-50.338-62.555c0-34.544,22.545-62.555,50.338-62.555
		h416.722c27.803,0,50.338-28.004,50.338-62.556c0-34.543-22.535-62.551-50.338-62.551h-166.438
		c27.798,0,50.338-28.007,50.338-62.555s-22.54-62.555-50.338-62.555h-275.867c-27.803,0-50.339-28.008-50.339-62.555
		c0-34.548,22.536-62.56,50.339-62.56h189.306c27.803,0,50.339-28.003,50.339-62.555c0-34.543-22.536-62.555-50.339-62.555H749.123
		c-27.807,0-50.338,28.011-50.338,62.555c0,34.552,22.531,62.555,50.338,62.555h86.553c-27.802,0-50.338,28.012-50.338,62.56
		c0,34.547,22.536,62.555,50.338,62.555h198.394c27.798,0,50.338,28.007,50.338,62.555s-22.54,62.555-50.338,62.555H835.676
		c-27.802,0-50.338,28.008-50.338,62.551c0,34.552,22.536,62.556,50.338,62.556h404.766c27.802,0,50.338,28.011,50.338,62.555
		c0,34.552-22.536,62.555-50.338,62.555H835.676c-27.802,0-50.338,28.016-50.338,62.56c0,34.548,22.536,62.555,50.338,62.555
		h111.833c27.802,0,50.338,28.008,50.338,62.555c0,34.552-22.536,62.555-50.338,62.555H749.123
		c-27.807,0-50.338,28.013-50.338,62.556c0,34.547,22.531,62.556,50.338,62.556h1393.471c27.799,0,50.34-28.009,50.34-62.556
		c0-34.543-22.541-62.556-50.34-62.556h-166.437c27.803,0,50.339-28.003,50.339-62.555c0-34.547-22.536-62.555-50.339-62.555
		h252.999c27.803,0,50.338-28.007,50.338-62.555C2279.494,1051.719,2256.959,1023.703,2229.156,1023.703z"/>
	<path fill="#BBBDBF" d="M2141.484,1437.09c0,25.285-301.218,45.786-672.786,45.786c-371.581,0-672.793-20.501-672.793-45.786
		c0-25.284,301.212-45.785,672.793-45.785C1840.267,1391.305,2141.484,1411.806,2141.484,1437.09z"/>
	<g>
		<g>
			<path fill="#FBB024" d="M1605.832,1163.515c-63.071,60.023-162.875,57.553-222.908-5.528
				c-10.555-11.092-39.831-42.088-39.831-42.088l227.936-217.674l40.331,42.379
				C1671.389,1003.685,1668.909,1103.48,1605.832,1163.515z"/>
			<path fill="#FFC71F" d="M1570.538,1126.419c-63.077,60.028-162.881,57.553-222.911-5.524
				c-60.032-63.084-57.554-162.885,5.528-222.908c63.076-60.033,162.88-57.554,222.901,5.526
				C1636.094,966.59,1633.618,1066.394,1570.538,1126.419z"/>
			<path fill="#FFDD15" d="M1545.686,1100.305c-48.663,46.299-125.641,44.396-171.948-4.267
				c-46.303-48.658-44.393-125.636,4.27-171.935c48.654-46.307,125.632-44.4,171.938,4.262
				C1596.254,977.016,1594.348,1053.997,1545.686,1100.305z"/>
			<g>
				<path fill="#FBB024" d="M1380.939,1075.816l18.343-17.458c-9.844-10.705-16.94-24.712-18.458-35.396l16.326-7.223
					c1.862,10.689,7.391,23.416,17.081,33.59c12.264,12.896,28.016,14.524,38.369,4.676c9.989-9.507,9.416-22.467,2.086-41.096
					c-10.37-25.439-12.901-44.834,2.894-59.871c15.081-14.346,36.724-14.521,55.353-0.401l18.342-17.458l10.712,11.263
					l-17.615,16.767c10.007,11.242,14.188,21.454,16.115,29.661l-16.315,6.87c-1.453-5.891-4.536-17.142-15.599-28.765
					c-13.312-13.986-26.683-11.307-33.94-4.39c-9.447,8.988-7.772,20.206,0.727,42.229c10.17,25.969,9.721,44.4-6.446,59.785
					c-14.354,13.648-37.304,16.458-58.186,0.684l-18.898,17.979L1380.939,1075.816z"/>
			</g>
			<g>
				<g>
					<path fill="#F89C27" d="M1608.206,1152.579c0,0-2.224-0.799-4.942-2.568c-1.39-0.859-2.897-1.963-4.419-3.241
						c-1.539-1.265-3.096-2.688-4.553-4.218c-2.907-3.044-5.395-6.485-7.006-9.32c-1.634-2.803-2.31-5.061-2.31-5.061
						s2.223,0.79,4.938,2.561c2.753,1.749,6.062,4.407,8.96,7.464c1.458,1.526,2.804,3.15,3.988,4.745
						c1.201,1.585,2.228,3.154,3.018,4.577C1607.522,1150.322,1608.206,1152.579,1608.206,1152.579z"/>
				</g>
			</g>
			<g>
				<g>
					<path fill="#F89C27" d="M1626.976,1131.001c0,0-2.334-0.919-5.229-2.874c-1.475-0.957-3.086-2.162-4.718-3.551
						c-1.646-1.38-3.322-2.928-4.882-4.574c-3.147-3.291-5.875-6.979-7.657-9.994c-1.803-2.987-2.607-5.369-2.607-5.369
						s2.348,0.915,5.246,2.868c2.915,1.928,6.463,4.831,9.596,8.132c1.569,1.649,3.026,3.397,4.326,5.103
						c1.313,1.706,2.441,3.377,3.322,4.895C1626.172,1128.623,1626.976,1131.001,1626.976,1131.001z"/>
				</g>
			</g>
			<g>
				<g>
					<path fill="#F89C27" d="M1641.787,1100.84c0,0-2.214-0.787-4.925-2.544c-1.376-0.859-2.881-1.953-4.407-3.224
						c-1.521-1.258-3.072-2.676-4.521-4.193c-2.894-3.031-5.366-6.459-6.964-9.279c-1.625-2.796-2.305-5.045-2.305-5.045
						s2.219,0.782,4.938,2.544c2.736,1.731,6.036,4.377,8.912,7.42c1.449,1.513,2.787,3.138,3.972,4.724
						c1.188,1.578,2.206,3.138,3.001,4.557C1641.112,1098.594,1641.787,1100.84,1641.787,1100.84z"/>
				</g>
			</g>
			<g>
				<g>
					<path fill="#F89C27" d="M1650.768,1069.147c0,0-2.2-0.787-4.911-2.548c-1.39-0.855-2.894-1.949-4.411-3.224
						c-1.522-1.257-3.083-2.672-4.515-4.193c-2.897-3.026-5.377-6.459-6.976-9.275c-1.624-2.796-2.291-5.045-2.291-5.045
						s2.215,0.782,4.924,2.544c2.736,1.735,6.036,4.377,8.913,7.416c1.453,1.518,2.791,3.138,3.971,4.724
						c1.197,1.581,2.211,3.142,3.001,4.561C1650.097,1066.902,1650.768,1069.147,1650.768,1069.147z"/>
				</g>
			</g>
			<g>
				<g>
					<path fill="#F89C27" d="M1651.089,1032.239c0,0-1.898-0.457-4.146-1.727c-1.146-0.611-2.381-1.424-3.599-2.386
						c-1.24-0.949-2.48-2.039-3.608-3.231c-2.274-2.373-4.129-5.146-5.258-7.472c-1.153-2.309-1.518-4.232-1.518-4.232
						s1.897,0.462,4.147,1.727c2.265,1.245,4.949,3.232,7.211,5.617c1.123,1.193,2.153,2.483,3.043,3.762
						c0.901,1.273,1.646,2.548,2.206,3.719C1650.721,1030.325,1651.089,1032.239,1651.089,1032.239z"/>
				</g>
			</g>
			<g>
				<g>
					<path fill="#F89C27" d="M1560.077,1189.718c0,0-2.313-0.907-5.193-2.843c-1.462-0.944-3.069-2.143-4.693-3.519
						c-1.638-1.368-3.292-2.907-4.852-4.539c-3.116-3.267-5.818-6.926-7.584-9.926c-1.782-2.967-2.568-5.335-2.568-5.335
						s2.325,0.897,5.202,2.834c2.903,1.911,6.433,4.787,9.536,8.066c1.553,1.633,3.006,3.368,4.292,5.07
						c1.3,1.684,2.411,3.347,3.282,4.855C1559.295,1187.353,1560.077,1189.718,1560.077,1189.718z"/>
				</g>
			</g>
			<g>
				<g>
					<path fill="#F89C27" d="M1584.473,1173.102c0,0-2.325-0.906-5.201-2.843c-1.463-0.944-3.07-2.142-4.69-3.521
						c-1.633-1.368-3.3-2.903-4.848-4.54c-3.12-3.258-5.821-6.921-7.587-9.917c-1.796-2.976-2.577-5.339-2.577-5.339
						s2.333,0.897,5.206,2.834c2.906,1.91,6.43,4.788,9.527,8.066c1.569,1.632,3.015,3.367,4.306,5.065
						c1.291,1.688,2.406,3.351,3.279,4.859C1583.678,1170.737,1584.473,1173.102,1584.473,1173.102z"/>
				</g>
			</g>
			<g>
				<g>
					<path fill="#F89C27" d="M1533.387,1198.66c0,0-2.287-0.868-5.112-2.75c-1.432-0.909-3.006-2.076-4.592-3.414
						c-1.594-1.334-3.219-2.826-4.735-4.426c-3.049-3.188-5.673-6.77-7.379-9.706c-1.731-2.912-2.487-5.241-2.487-5.241
						s2.296,0.863,5.112,2.736c2.848,1.854,6.306,4.649,9.331,7.853c1.522,1.594,2.929,3.291,4.189,4.954
						c1.257,1.65,2.344,3.278,3.186,4.753C1532.634,1196.33,1533.378,1198.66,1533.387,1198.66z"/>
				</g>
			</g>
			<g>
				<g>
					<path fill="#F89C27" d="M1416.018,1171.875c0,0,1.945,0.512,4.263,1.863c1.184,0.653,2.466,1.51,3.74,2.515
						c1.282,1.004,2.569,2.145,3.753,3.39c2.364,2.479,4.325,5.355,5.527,7.762c1.223,2.381,1.636,4.361,1.636,4.361
						s-1.954-0.51-4.27-1.856c-2.343-1.325-5.121-3.415-7.477-5.907c-1.188-1.243-2.266-2.591-3.197-3.92
						c-0.953-1.316-1.74-2.638-2.329-3.852C1416.433,1173.85,1416.018,1171.875,1416.018,1171.875z"/>
				</g>
			</g>
			<g>
				<g>
					<path fill="#F89C27" d="M1451.489,1180.138c0,0,2.052,0.624,4.521,2.133c1.262,0.735,2.634,1.684,4.001,2.796
						c1.377,1.106,2.77,2.355,4.057,3.711c2.578,2.697,4.74,5.795,6.1,8.365c1.386,2.547,1.906,4.63,1.906,4.63
						s-2.061-0.616-4.531-2.13c-2.505-1.487-5.488-3.796-8.053-6.507c-1.292-1.35-2.472-2.803-3.509-4.239
						c-1.04-1.42-1.925-2.834-2.587-4.129C1452.01,1182.22,1451.489,1180.138,1451.489,1180.138z"/>
				</g>
			</g>
			<g>
				<g>
					<path fill="#F89C27" d="M1481.249,1180.244c0,0,2.137,0.705,4.724,2.339c1.321,0.795,2.753,1.816,4.197,3.006
						c1.449,1.179,2.92,2.509,4.287,3.944c2.732,2.859,5.044,6.117,6.523,8.811c1.497,2.667,2.095,4.834,2.095,4.834
						s-2.138-0.701-4.728-2.329c-2.616-1.612-5.754-4.082-8.473-6.959c-1.368-1.429-2.624-2.967-3.728-4.472
						c-1.12-1.5-2.068-2.987-2.795-4.343C1481.848,1182.408,1481.257,1180.244,1481.249,1180.244z"/>
				</g>
			</g>
		</g>
		<g>
			<path fill="#FBB024" d="M1536.341,838.42c69.997,51.79,84.766,150.526,32.966,220.522c-9.104,12.308-34.591,46.491-34.591,46.491
				l-253.691-187.02l34.795-47.037C1367.612,801.38,1466.348,786.627,1536.341,838.42z"/>
			<path fill="#FFC71F" d="M1505.888,879.584c69.994,51.791,84.753,150.527,32.962,220.523
				c-51.801,69.997-150.531,84.754-220.525,32.958c-70.001-51.791-84.757-150.522-32.965-220.52
				C1337.151,842.544,1435.886,827.788,1505.888,879.584z"/>
			<path fill="#FFDD15" d="M1484.446,908.562c53.997,39.946,65.376,116.112,25.426,170.104
				c-39.956,53.994-116.107,65.377-170.109,25.426c-53.993-39.95-65.373-116.112-25.421-170.105
				C1354.292,879.994,1430.445,868.606,1484.446,908.562z"/>
			<g>
				<path fill="#FBB024" d="M1488.708,1075.063l-20.352-15.068c-8.857,11.547-21.428,20.951-31.693,24.281l-9.917-14.838
					c10.2-3.672,21.784-11.315,30.137-22.604c10.592-14.312,9.48-30.103-2.013-38.6c-11.081-8.203-23.746-5.416-40.828,5.023
					c-23.284,14.597-41.943,20.436-59.481,7.459c-16.727-12.381-20.629-33.668-9.935-54.45l-20.355-15.061l9.255-12.495
					l19.543,14.465c9.353-11.793,18.697-17.671,26.443-20.979l9.572,14.881c-5.549,2.44-16.095,7.425-25.635,20.325
					c-11.491,15.521-6.545,28.227,1.521,34.189c10.481,7.758,21.241,4.176,41.469-7.986c23.83-14.499,42.066-17.23,60.003-3.949
					c15.926,11.772,22.634,33.898,10.702,57.195l20.963,15.509L1488.708,1075.063z"/>
			</g>
			<g>
				<g>
					<path fill="#F89C27" d="M1525.167,837.971c0,0-0.402,2.325-1.676,5.309c-0.62,1.514-1.437,3.193-2.429,4.916
						c-0.983,1.727-2.124,3.509-3.373,5.197c-2.501,3.395-5.463,6.438-7.972,8.511c-2.479,2.091-4.591,3.151-4.591,3.151
						s0.402-2.321,1.676-5.311c1.244-3.009,3.292-6.732,5.805-10.108c1.249-1.697,2.612-3.301,3.984-4.745
						c1.359-1.453,2.727-2.735,3.991-3.762C1523.063,839.039,1525.167,837.971,1525.167,837.971z"/>
				</g>
			</g>
			<g>
				<g>
					<path fill="#F89C27" d="M1500.677,823.192c0,0-0.505,2.458-1.927,5.643c-0.685,1.616-1.6,3.416-2.686,5.263
						c-1.081,1.859-2.32,3.774-3.667,5.6c-2.702,3.663-5.865,6.979-8.524,9.254c-2.633,2.296-4.852,3.493-4.852,3.493
						c0.009,0,0.505-2.462,1.929-5.651c1.401-3.211,3.649-7.207,6.36-10.857c1.346-1.83,2.825-3.569,4.283-5.143
						c1.448-1.582,2.901-2.976,4.249-4.107C1498.476,824.39,1500.677,823.192,1500.677,823.192z"/>
				</g>
			</g>
			<g>
				<g>
					<path fill="#F89C27" d="M1468.416,813.801c0,0-0.397,2.313-1.658,5.288c-0.607,1.505-1.427,3.181-2.415,4.89
						c-0.979,1.728-2.112,3.497-3.355,5.177c-2.48,3.378-5.434,6.408-7.938,8.469c-2.471,2.077-4.569,3.134-4.569,3.134
						s0.385-2.317,1.645-5.293c1.245-2.996,3.274-6.707,5.779-10.066c1.24-1.684,2.608-3.283,3.972-4.723
						c1.351-1.441,2.71-2.719,3.975-3.741C1466.321,814.857,1468.416,813.801,1468.416,813.801z"/>
				</g>
			</g>
			<g>
				<g>
					<path fill="#F89C27" d="M1435.655,810.411c0,0-0.405,2.317-1.667,5.288c-0.607,1.51-1.432,3.185-2.41,4.895
						c-0.98,1.723-2.112,3.492-3.36,5.177c-2.479,3.372-5.433,6.407-7.938,8.464c-2.476,2.077-4.58,3.129-4.58,3.129
						s0.394-2.317,1.659-5.287c1.24-2.997,3.274-6.708,5.779-10.068c1.244-1.684,2.608-3.282,3.967-4.718
						c1.347-1.445,2.709-2.719,3.976-3.741C1433.557,811.467,1435.655,810.411,1435.655,810.411z"/>
				</g>
			</g>
			<g>
				<g>
					<path fill="#F89C27" d="M1399.235,816.46c0,0-0.128,1.949-0.987,4.377c-0.41,1.236-0.987,2.591-1.727,3.963
						c-0.727,1.382-1.578,2.787-2.565,4.112c-1.945,2.646-4.355,4.95-6.451,6.463c-2.073,1.535-3.911,2.223-3.911,2.223
						s0.124-1.953,0.988-4.386c0.833-2.445,2.334-5.424,4.292-8.065c0.975-1.32,2.077-2.557,3.18-3.65
						c1.103-1.107,2.223-2.061,3.287-2.809C1397.411,817.153,1399.235,816.46,1399.235,816.46z"/>
				</g>
			</g>
			<g>
				<g>
					<path fill="#F89C27" d="M1570.042,878.973c0,0-0.496,2.44-1.906,5.612c-0.681,1.604-1.582,3.39-2.658,5.224
						c-1.069,1.847-2.292,3.748-3.64,5.562c-2.671,3.637-5.817,6.925-8.463,9.182c-2.624,2.271-4.822,3.454-4.822,3.454
						s0.491-2.449,1.898-5.617c1.384-3.188,3.612-7.155,6.306-10.781c1.342-1.816,2.799-3.543,4.252-5.099
						c1.44-1.569,2.886-2.959,4.219-4.079C1567.844,880.161,1570.042,878.973,1570.042,878.973z"/>
				</g>
			</g>
			<g>
				<g>
					<path fill="#F89C27" d="M1549.473,857.809c0,0-0.492,2.445-1.897,5.617c-0.685,1.603-1.596,3.39-2.672,5.224
						c-1.056,1.847-2.288,3.749-3.63,5.562c-2.677,3.634-5.821,6.925-8.464,9.178c-2.625,2.273-4.826,3.457-4.826,3.457
						s0.487-2.443,1.897-5.616c1.386-3.189,3.612-7.155,6.306-10.78c1.342-1.817,2.799-3.544,4.254-5.104
						c1.439-1.568,2.884-2.953,4.227-4.073C1547.283,858.997,1549.473,857.809,1549.473,857.809z"/>
				</g>
			</g>
			<g>
				<g>
					<path fill="#F89C27" d="M1583.447,903.727c0,0-0.462,2.397-1.821,5.502c-0.659,1.568-1.53,3.321-2.582,5.116
						c-1.034,1.8-2.222,3.659-3.539,5.43c-2.607,3.548-5.685,6.749-8.284,8.938c-2.573,2.21-4.74,3.347-4.74,3.347
						s0.452-2.406,1.816-5.51c1.328-3.12,3.496-7.001,6.125-10.537c1.313-1.773,2.74-3.453,4.159-4.976
						c1.407-1.521,2.821-2.872,4.139-3.958C1581.284,904.869,1583.447,903.727,1583.447,903.727z"/>
				</g>
			</g>
			<g>
				<g>
					<path fill="#F89C27" d="M1577.291,1023.959c0,0,0.171-2.013,1.1-4.525c0.437-1.274,1.056-2.686,1.829-4.113
						c0.774-1.436,1.668-2.901,2.692-4.278c2.031-2.767,4.532-5.185,6.699-6.788c2.129-1.62,4.01-2.369,4.01-2.369
						s-0.163,2.014-1.095,4.532c-0.897,2.534-2.483,5.634-4.531,8.386c-1.018,1.381-2.158,2.672-3.301,3.821
						c-1.14,1.159-2.303,2.168-3.394,2.959C1579.164,1023.208,1577.291,1023.959,1577.291,1023.959z"/>
				</g>
			</g>
			<g>
				<g>
					<path fill="#F89C27" d="M1579.317,987.595c0,0,0.265-2.128,1.324-4.825c0.506-1.368,1.207-2.881,2.065-4.425
						c0.848-1.548,1.843-3.138,2.954-4.634c2.209-3.005,4.891-5.667,7.19-7.455c2.266-1.804,4.231-2.667,4.231-2.667
						s-0.256,2.129-1.321,4.83c-1.029,2.718-2.795,6.058-5.022,9.05c-1.107,1.504-2.334,2.92-3.564,4.18
						c-1.223,1.274-2.463,2.386-3.625,3.271C1581.284,986.723,1579.317,987.595,1579.317,987.595z"/>
				</g>
			</g>
			<g>
				<g>
					<path fill="#F89C27" d="M1574.29,958.255c0,0,0.33-2.219,1.488-5.053c0.552-1.437,1.316-3.026,2.235-4.651
						c0.911-1.633,1.971-3.308,3.147-4.899c2.35-3.188,5.162-6.03,7.562-7.946c2.362-1.937,4.398-2.898,4.398-2.898
						s-0.321,2.224-1.484,5.058c-1.132,2.854-3.03,6.373-5.386,9.55c-1.18,1.589-2.471,3.095-3.775,4.44
						c-1.278,1.359-2.576,2.548-3.795,3.497C1576.316,957.292,1574.29,958.255,1574.29,958.255z"/>
				</g>
			</g>
		</g>
		<g>
			<g>
				
					<polygon fill="none" stroke="#FFFFFF" stroke-width="2.8158" stroke-linecap="round" stroke-linejoin="round" stroke-miterlimit="10" points="
					1616.566,1200.07 1301.539,1200.07 1244.597,1003.754 1669.188,1045.085 				"/>
				
					<path fill="none" stroke="#FFFFFF" stroke-width="2.8158" stroke-linecap="round" stroke-linejoin="round" stroke-miterlimit="10" d="
					M1153.76,982.987c0,0,21.979-4.048,51.907-11.431c27.019-6.668,32.568,16.094,38.929,32.197
					c12.978,32.832,66.018,257.947,88.66,321.765c7.776,21.877,33.885,36.851,56.232,39.731
					c22.344,2.89,216.259,0.278,216.259,0.278"/>
				
					<line fill="none" stroke="#FFFFFF" stroke-width="2.8158" stroke-linecap="round" stroke-linejoin="round" stroke-miterlimit="10" x1="1646.063" y1="1101.912" x2="1267.491" y2="1065.437"/>
				
					<line fill="none" stroke="#FFFFFF" stroke-width="2.8158" stroke-linecap="round" stroke-linejoin="round" stroke-miterlimit="10" x1="1298.389" y1="1151.369" x2="1629.425" y2="1157.29"/>
				
					<line fill="none" stroke="#FFFFFF" stroke-width="2.8158" stroke-linecap="round" stroke-linejoin="round" stroke-miterlimit="10" x1="1494.74" y1="1200.07" x2="1494.74" y2="1031.025"/>
				
					<line fill="none" stroke="#FFFFFF" stroke-width="2.8158" stroke-linecap="round" stroke-linejoin="round" stroke-miterlimit="10" x1="1555.29" y1="1200.07" x2="1565.673" y2="1038.049"/>
				
					<line fill="none" stroke="#FFFFFF" stroke-width="2.8158" stroke-linecap="round" stroke-linejoin="round" stroke-miterlimit="10" x1="1431.304" y1="1200.07" x2="1411.473" y2="1021.579"/>
				
					<line fill="none" stroke="#FFFFFF" stroke-width="2.8158" stroke-linecap="round" stroke-linejoin="round" stroke-miterlimit="10" x1="1364.982" y1="1200.07" x2="1333.257" y2="1016.637"/>
				
					<line fill="none" stroke="#140F3F" stroke-width="2.8158" stroke-linecap="round" stroke-linejoin="round" stroke-miterlimit="10" x1="1192.207" y1="974.745" x2="1146.109" y2="984.629"/>
				<g>
					<path fill="#140F3F" d="M1422.746,1414.042c0,19.509-15.811,35.325-35.317,35.325c-19.514,0-35.325-15.816-35.325-35.325
						c0-19.51,15.811-35.322,35.325-35.322C1406.935,1378.72,1422.746,1394.532,1422.746,1414.042z"/>
					<path fill="#D0D2D3" d="M1410.256,1414.042c0,12.605-10.216,22.821-22.827,22.821c-12.603,0-22.827-10.216-22.827-22.821
						c0-12.603,10.224-22.823,22.827-22.823C1400.04,1391.219,1410.256,1401.439,1410.256,1414.042z"/>
					<path fill="#A8ABAD" d="M1392.867,1414.042c0,3.009-2.437,5.437-5.438,5.437s-5.442-2.428-5.442-5.437
						c0-3.001,2.441-5.434,5.442-5.434S1392.867,1411.041,1392.867,1414.042z"/>
					<path fill="#D0D2D3" d="M1391.34,1431.436c-12.605,0-22.821-10.221-22.821-22.827c0-3.894,1.068-7.511,2.787-10.717
						c-4.138,4.126-6.703,9.836-6.703,16.15c0,12.605,10.224,22.821,22.827,22.821c8.711,0,16.184-4.932,20.035-12.101
						C1403.331,1428.888,1397.637,1431.436,1391.34,1431.436z"/>
				</g>
				
					<line fill="none" stroke="#FFFFFF" stroke-width="2.8158" stroke-linecap="round" stroke-linejoin="round" stroke-miterlimit="10" x1="1307.301" y1="1210.104" x2="1547.36" y2="1210.104"/>
				<path fill="#FFFFFF" d="M1396.337,1408.421c-3.68,8.845-14.777,8.845-14.777,0c0-8.854,0-44.696,0-44.696h29.555
					C1411.115,1363.725,1400.017,1399.576,1396.337,1408.421z"/>
				<g>
					<path fill="#140F3F" d="M1605.863,1414.042c0,19.509-15.82,35.325-35.325,35.325c-19.506,0-35.317-15.816-35.317-35.325
						c0-19.51,15.812-35.322,35.317-35.322C1590.043,1378.72,1605.863,1394.532,1605.863,1414.042z"/>
					<path fill="#D0D2D3" d="M1593.364,1414.042c0,12.605-10.217,22.821-22.826,22.821c-12.603,0-22.819-10.216-22.819-22.821
						c0-12.603,10.217-22.823,22.819-22.823C1583.147,1391.219,1593.364,1401.439,1593.364,1414.042z"/>
					<path fill="#A8ABAD" d="M1575.975,1414.042c0,3.009-2.427,5.437-5.437,5.437c-3.001,0-5.441-2.428-5.441-5.437
						c0-3.001,2.44-5.434,5.441-5.434C1573.548,1408.608,1575.975,1411.041,1575.975,1414.042z"/>
					<path fill="#D0D2D3" d="M1574.449,1431.436c-12.598,0-22.813-10.221-22.813-22.827c0-3.894,1.06-7.511,2.787-10.717
						c-4.147,4.126-6.704,9.836-6.704,16.15c0,12.605,10.217,22.821,22.819,22.821c8.711,0,16.192-4.932,20.035-12.101
						C1586.448,1428.888,1580.745,1431.436,1574.449,1431.436z"/>
				</g>
				<path fill="#FFFFFF" d="M1579.454,1408.421c-3.676,8.845-14.786,8.845-14.786,0c0-8.854,0-44.696,0-44.696h29.564
					C1594.232,1363.725,1583.126,1399.576,1579.454,1408.421z"/>
			</g>
			<g>
				<path fill="#171D2E" d="M1148.31,1416.727c0,0,30.038,8.471,61.619,5.138c14.03-1.479,19.638,7.186,14.632,11.037
					c-16.422,7.587-95.136,31.581-100.667,24.544c-7.391-9.403-0.825-31.909-3.299-37.253
					C1116.922,1412.229,1148.31,1416.727,1148.31,1416.727z"/>
				<path fill="#171D2E" d="M911.739,1386.077l19.364,40.147c0,0,6.994-1.877,11.071,0.607c7.19,4.359,11.285,15.136,2.54,15.311
					c-10.781,0.21-25.426,0.578-29.222-3.354c-6.463-6.725-52.971-43.49-51.133-49.515c3.514-11.438,25.733-18.901,28.705-23.98
					C897.508,1357.731,911.739,1386.077,911.739,1386.077z"/>
				<path fill="#22293A" d="M1077.941,1104.345c-10.165,24.659-33.919,95.051-61.679,145.586
					c-17.855,32.507-100.604,142.942-100.604,142.942l-30.816-39.159c7.66-18.12,86.279-131.339,86.279-131.339
					s11.529-103.43,25.768-130.367C1024.991,1039.464,1092.77,1068.355,1077.941,1104.345z"/>
				<path fill="#323A4D" d="M960.205,1038.229c8.584-37.869,99.514-37.317,110.568,0c7.575,25.58,38.211,89.339,62.265,183.215
					c18.235,71.186,40.447,198.108,40.447,198.108l-55.469,6.165c-5.411-18.912-37.975-188.222-37.975-188.222
					s-48.466-81.8-54.297-111.7C990.602,1123.742,948.728,1088.853,960.205,1038.229z"/>
				<path fill="#FFFFFF" d="M1075.009,936.727c-4.493-56.643-16.706-103.138-32.354-109.814c-7.438-3.168-27.948-2.262-36.005-1.715
					c-10.208,0.688-29.379,7.626-36.954,20.288c-14.551,24.31-4.395,92.271-6.468,118.317c-3.44,43.438-4.535,84.954-4.535,84.954
					h115.099C1073.791,1048.757,1078.467,980.171,1075.009,936.727z"/>
				<path fill="#F9B28D" d="M1035.934,808.355c0-10.917-28.247-14.675-26.96-4.933c1.287,9.751-2.325,21.774-2.325,21.774
					s7.348,13.743,22.686,13.765c15.333,0.021,13.32-12.05,13.32-12.05l-7.049-4.364
					C1035.605,822.548,1035.934,813.827,1035.934,808.355z"/>
				<g>
					<path fill="#22293A" d="M1071.863,729.202c0,51.732-16.483,61.278-53.087,71.262c-24.485,6.678-67.89-8.331-70.822-82.556
						c-0.872-21.924,2.351-52.902,19.202-50.676c10.78-29.88,25.434-24.344,47.282-24.344
						C1059.607,642.889,1109.369,670.032,1071.863,729.202z"/>
					<path fill="#E19A7F" d="M1078.347,739.684c0,53.159-19.047,74.836-42.413,74.836c-26.708,0-62.794-31.663-62.794-74.836
						c0-53.159,23.544-82.432,52.603-82.432C1054.798,657.251,1078.347,686.524,1078.347,739.684z"/>
					<path fill="#F9B28D" d="M1075.757,736.776c0,51.292-10.764,72.926-38.391,72.926c-27.618,0-61.64-17.658-64.226-73.481
						c-2.381-51.235,24.977-78.969,52.603-78.969C1053.366,657.251,1075.757,685.489,1075.757,736.776z"/>
					<g>
						<path fill="#22293A" d="M1029.6,654.888c-23.365,0-51.228,12.986-53.874,35.876c15.098,14.572,35.783,21.339,58.592,21.339
							c23.399,0,47.525-2.752,49.146-22.022C1068.362,673.555,1052.443,654.888,1029.6,654.888z"/>
					</g>
					<path fill="#F9B28D" d="M959.875,740.308c-12.247,4.898-1.137,28.314,11.396,26.263c5.374-0.88,13.23-1.154,13.23-9.635
						c0-8.477-9.909-8.792-9.909-8.792S971.071,735.828,959.875,740.308z"/>
					<path fill="#BA9A9D" d="M968.198,743.983c0,0-6.241-2.398-8.806,2.557c-3.206,6.232,6.403,15.996,6.403,15.996
						s-6.356-9.566-3.364-15.508C964.338,743.24,968.198,743.983,968.198,743.983z"/>
					<path fill="#BA9A9D" d="M1039.798,756.12c-1.996,0-3.817,0.491-5.283,1.308c0.799-2.449,2.851-4.198,5.283-4.198
						c2.419,0,4.48,1.749,5.275,4.198C1043.611,756.61,1041.782,756.12,1039.798,756.12z"/>
					<path fill="#F9F9F9" d="M1016.442,773.582c0,0,3.146,18.552,20.924,18.552c17.795,0,20.937-18.552,20.937-18.552H1016.442z"/>
					<path fill="#22293A" d="M998.659,723.149c3.677-5.207,11.439-4.788,19.373-2.586c2.642,0.735,1.333,4.476-1.359,4.035
						c-4.882-0.8-10.576-0.8-14.696,4.467C1000.284,731.224,997.078,725.402,998.659,723.149z"/>
					<g>
						<path fill="#22293A" d="M976.294,731.39c-8.096-31.837,17.997-27.759,17.997-27.759s-15.389-28.914-21.348-17.047
							c-2.231,4.454-14.55,41.712-3.018,54.596c-0.008,7.856,6.865,13.833,9.314,13.063
							C981.685,753.474,978.748,741.052,976.294,731.39z"/>
					</g>
					<path fill="#22293A" d="M1014.262,742.667c0,1.154-0.932,2.086-2.094,2.086l0,0c-1.15,0-2.091-0.932-2.091-2.086v-6.686
						c0-1.146,0.941-2.086,2.091-2.086l0,0c1.163,0,2.094,0.94,2.094,2.086V742.667z"/>
					<path fill="#22293A" d="M1071.85,723.149c-3.668-5.207-11.435-4.788-19.364-2.586c-2.65,0.735-1.347,4.476,1.359,4.035
						c4.881-0.8,10.575-0.8,14.696,4.467C1070.226,731.224,1073.431,725.402,1071.85,723.149z"/>
					<path fill="#22293A" d="M1056.252,742.667c0,1.154,0.927,2.086,2.09,2.086l0,0c1.154,0,2.082-0.932,2.082-2.086v-6.686
						c0-1.146-0.928-2.086-2.082-2.086l0,0c-1.163,0-2.09,0.94-2.09,2.086V742.667z"/>
				</g>
				<path fill="none" stroke="#F9B28D" stroke-width="5.6315" stroke-miterlimit="10" d="M979.355,863.178
					c0,0,59.563,76.695,77.61,87.023c14.422,8.249,79.807,27.438,79.807,27.438"/>
				<path fill="#CEECFB" d="M1015.647,939.895l33.017-16.791c0,0-38.01-102.63-69.027-86.21
					C933.873,861.113,1015.647,939.895,1015.647,939.895z"/>
				<path fill="#F9B28D" d="M1134.738,964.158c0,0,8.233,0.927,23.604,0.385c9.421-0.33,18.834,7.565,20.703,19.213
					c1.542,9.563-4.382,11.316-11.571,16.124c1.154,0.873-1.638,4.144-4.699,6.275c-3.061,2.129-5.665,1.12-9.229-1.15
					c-9.72-6.167-13.508-15.768-19.842-15.426C1127.382,989.925,1134.738,964.158,1134.738,964.158z"/>
			</g>
		</g>
	</g>
	<g>
		<path fill="#D19679" d="M1773.575,887.773l-6.819-10.473c0,0-12.452-10.007-11.302-15.97c1.154-5.95,8.151-11.546,13.949-14.247
			c5.787-2.714,10.899,4.32,10.899,4.32s5.967-5.454,9.733-4.32c3.774,1.145,3.928,4.745,5.065,10.818
			c1.132,6.079-2.334,27.453-2.334,27.453L1773.575,887.773z"/>
		<g>
			<g>
				<path fill="#D19679" d="M1891.648,871.521c0,0-1.06,3.176-2.925,8.741c-1.885,5.51-4.607,13.346-8.099,22.708
					c-3.497,9.361-7.713,20.236-12.872,31.841c-2.608,5.81-5.424,11.79-8.789,17.911c-1.701,3.069-3.547,6.172-5.771,9.375
					c-1.149,1.611-2.376,3.248-3.907,4.962c-1.59,1.711-3.266,3.553-6.586,5.522c-1.6,0.933-3.963,1.972-6.994,2.282
					c-3.201,0.347-6.911-0.628-9.43-2.256c-1.185-0.761-2.316-1.667-3.022-2.449l-0.599-0.624l-0.291-0.32l-0.525-0.658
					l-0.359-0.501l-1.414-1.996c-1.889-2.659-3.783-5.231-5.626-8.293c-1.847-2.94-3.681-5.856-5.488-8.736
					c-1.637-2.759-3.244-5.481-4.835-8.161c-6.33-10.708-11.974-20.732-16.803-29.351c-9.542-17.285-15.906-28.811-15.906-28.811
					l17.479-9.775c0,0,6.621,11.233,16.561,28.089c5.026,8.386,10.912,18.18,17.389,28.443c1.616,2.561,3.257,5.164,4.92,7.801
					c1.62,2.433,3.254,4.894,4.903,7.374c1.509,2.445,3.54,5.065,5.51,7.673l1.472,1.953l0.366,0.492l0.056,0.06
					c0.368,0.461-0.453-0.556-0.385-0.479l-0.076-0.102l-0.163-0.188c-0.183-0.154-0.624-0.607-1.146-0.897
					c-1.111-0.79-3.181-1.317-4.745-1.124c-1.401,0.089-2.196,0.576-2.401,0.653c-0.484,0.309,0.205-0.188,0.773-0.927
					c0.619-0.749,1.338-1.74,2.057-2.81c1.431-2.205,2.862-4.728,4.201-7.348c2.701-5.258,5.159-10.837,7.426-16.308
					c4.514-10.978,8.292-21.604,11.412-30.747c3.116-9.152,5.558-16.855,7.232-22.245c1.616-5.361,2.549-8.426,2.549-8.426
					L1891.648,871.521z"/>
			</g>
		</g>
		<path fill="#171D2E" d="M1837.433,1405.873c0,0-28.55,16.367-61.738,21.043c-14.722,2.078-18.253,12.393-12.145,15.048
			c18.749,3.553,105.452,7.955,109.315-0.667c5.151-11.516-7.331-32.876-6.173-38.968
			C1868.419,1393.236,1837.433,1405.873,1837.433,1405.873z"/>
		<path fill="#171D2E" d="M2000.353,1402.611c0,0,11.101,28.67,43.046,32.76c14.188,1.817,12.388,17.501,6.454,20.121
			c-8.19,1.646-41.002,5.314-41.002,5.314s-52.382-20.712-54.365-25.213c-4.839-10.989,14.603-26.746,13.555-32.58
			C1966.493,1394.311,2000.353,1402.611,2000.353,1402.611z"/>
		<path fill="#22293A" d="M1839.861,1060.396c-2.856,27.991-4.468,120.267-3.865,181.087c0.381,39.13,1.437,164.39,1.437,164.39
			l43.943,6.42c1.929-20.663,12.932-164.308,12.932-164.308s11.242-113.591,11.442-145.731
			C1905.823,1039.392,1844.024,1019.544,1839.861,1060.396z"/>
		<path fill="#323A4D" d="M1836.035,1032.68c-2.488-40.887,103.019-38.723,116.646,0c19.719,56.027,53.039,374.587,53.039,374.587
			l-45.464-0.79c-5.716-19.946-38.031-223.987-59.367-273.89C1867.677,1115.258,1839.831,1094.799,1836.035,1032.68z"/>
		<path fill="#FFFFFF" d="M1833.624,925.702c4.754-59.754,17.633-108.806,34.146-115.847c7.849-3.347,29.469-2.386,37.979-1.809
			c10.764,0.723,30.992,8.045,38.989,21.404c15.351,25.639,4.63,97.338,6.817,124.819c3.634,45.823,4.783,89.627,4.783,89.627
			h-121.416C1834.924,1043.897,1829.99,971.531,1833.624,925.702z"/>
		<path fill="#F9B28D" d="M1874.857,790.282c0-11.524,29.803-15.482,28.443-5.202c-1.363,10.28,2.449,22.967,2.449,22.967
			s-7.754,14.491-23.938,14.522c-16.172,0.017-14.042-12.714-14.042-12.714l7.429-4.599
			C1875.199,805.257,1874.857,796.049,1874.857,790.282z"/>
		<g>
			<path fill="#22293A" d="M1836.945,706.777c0,54.574,17.402,64.641,56.015,75.174c25.832,7.048,71.613-8.784,74.704-87.092
				c0.928-23.129-2.479-55.805-20.248-53.458c-11.372-31.521-26.837-25.682-49.877-25.682
				C1849.885,615.719,1797.389,644.354,1836.945,706.777z"/>
			<path fill="#E19A7F" d="M1830.11,717.832c0,56.083,20.1,78.952,44.747,78.952c28.174,0,66.243-33.402,66.243-78.952
				c0-56.075-24.853-86.955-55.501-86.955C1854.954,630.877,1830.11,661.757,1830.11,717.832z"/>
			<path fill="#F9B28D" d="M1832.838,714.771c0,54.104,11.362,76.926,40.503,76.926c29.14,0,65.029-18.624,67.76-77.516
				c2.506-54.049-26.353-83.304-55.501-83.304C1856.473,630.877,1832.838,660.663,1832.838,714.771z"/>
			<g>
				<path fill="#22293A" d="M1881.543,628.372c24.647,0,54.036,13.708,56.827,37.856c-9.726,9.387-21.654,15.705-34.95,19.201
					c-8.463,2.223-20.715-11.72-30.079-11.72c-12.957,0-22.918,14.23-32.74,10.528c-8.904-3.343-15.08-9.071-15.886-18.728
					C1840.647,648.074,1857.435,628.372,1881.543,628.372z"/>
			</g>
			<path fill="#F9B28D" d="M1955.093,718.489c12.917,5.168,1.201,29.88-12.029,27.709c-5.663-0.928-13.952-1.214-13.952-10.161
				c0-8.946,10.455-9.28,10.455-9.28S1943.286,713.766,1955.093,718.489z"/>
			<path fill="#BA9A9D" d="M1946.32,722.371c0,0,6.574-2.53,9.276,2.697c3.391,6.579-6.759,16.876-6.759,16.876
				s6.716-10.097,3.553-16.368C1950.382,721.585,1946.32,722.371,1946.32,722.371z"/>
			<path fill="#BA9A9D" d="M1870.78,735.174c2.093,0,4.021,0.517,5.573,1.376c-0.842-2.582-3.013-4.424-5.573-4.424
				c-2.557,0-4.733,1.842-5.566,4.424C1866.757,735.691,1868.681,735.174,1870.78,735.174z"/>
			<path fill="#F9F9F9" d="M1895.427,753.593c0,0-3.317,19.574-22.086,19.574c-18.771,0-22.084-19.574-22.084-19.574H1895.427z"/>
			<path fill="#22293A" d="M1914.176,700.395c-3.874-5.493-12.063-5.052-20.434-2.732c-2.786,0.778-1.41,4.72,1.437,4.258
				c5.155-0.847,11.153-0.847,15.5,4.715C1912.465,708.911,1915.843,702.764,1914.176,700.395z"/>
			<g>
				<path fill="#22293A" d="M1937.767,709.085c8.554-33.59-18.975-29.29-18.975-29.29s16.231-30.504,22.52-17.983
					c2.35,4.706,15.342,44.003,3.18,57.601c0.018,8.289-7.241,14.594-9.823,13.781
					C1932.086,732.382,1935.182,719.276,1937.767,709.085z"/>
			</g>
			<path fill="#22293A" d="M1897.714,720.986c0,1.21,0.988,2.206,2.211,2.206l0,0c1.218,0,2.205-0.996,2.205-2.206v-7.053
				c0-1.214-0.987-2.206-2.205-2.206l0,0c-1.223,0-2.211,0.992-2.211,2.206V720.986z"/>
			<path fill="#22293A" d="M1836.968,700.395c3.871-5.493,12.063-5.052,20.424-2.732c2.795,0.778,1.41,4.72-1.429,4.258
				c-5.15-0.847-11.156-0.847-15.499,4.715C1838.672,708.911,1835.301,702.764,1836.968,700.395z"/>
			<path fill="#22293A" d="M1853.424,720.986c0,1.21-0.982,2.206-2.205,2.206l0,0c-1.223,0-2.206-0.996-2.206-2.206v-7.053
				c0-1.214,0.983-2.206,2.206-2.206l0,0c1.223,0,2.205,0.992,2.205,2.206V720.986z"/>
		</g>
		<g>
			<g>
				<path fill="#F9B28D" d="M1941.184,901.962c0,0-1.062,3.18-2.921,8.741c-1.89,5.511-4.612,13.351-8.1,22.707
					c-3.497,9.36-7.716,20.24-12.875,31.846c-2.608,5.805-5.425,11.789-8.793,17.912c-1.698,3.068-3.536,6.172-5.771,9.373
					c-1.146,1.611-2.372,3.249-3.902,4.963c-1.586,1.705-3.267,3.552-6.583,5.52c-1.603,0.931-3.968,1.974-6.997,2.286
					c-3.203,0.346-6.912-0.629-9.427-2.254c-1.188-0.765-2.32-1.675-3.025-2.453l-0.599-0.624l-0.291-0.32l-0.526-0.663
					l-0.358-0.496l-1.415-1.995c-1.894-2.658-3.778-5.232-5.626-8.294c-1.846-2.94-3.68-5.855-5.488-8.737
					c-1.633-2.761-3.24-5.484-4.834-8.164c-6.331-10.703-11.975-20.732-16.804-29.345c-9.545-17.291-15.902-28.815-15.902-28.815
					l17.476-9.775c0,0,6.621,11.237,16.56,28.088c5.027,8.392,10.918,18.185,17.389,28.442c1.611,2.562,3.258,5.168,4.921,7.807
					c1.62,2.432,3.252,4.891,4.903,7.373c1.509,2.445,3.539,5.066,5.514,7.669l1.466,1.958l0.368,0.487l0.051,0.06
					c0.377,0.466-0.448-0.556-0.38-0.478l-0.076-0.104l-0.163-0.188c-0.18-0.154-0.625-0.604-1.146-0.895
					c-1.111-0.795-3.18-1.32-4.735-1.124c-1.41,0.087-2.207,0.577-2.402,0.65c-0.492,0.312,0.195-0.185,0.77-0.924
					c0.619-0.747,1.342-1.743,2.051-2.813c1.432-2.206,2.864-4.723,4.202-7.344c2.702-5.258,5.16-10.836,7.426-16.309
					c4.514-10.977,8.293-21.603,11.409-30.747c3.124-9.151,5.562-16.855,7.236-22.25c1.616-5.359,2.548-8.42,2.548-8.42
					L1941.184,901.962z"/>
			</g>
		</g>
		<path fill="#CEECFB" d="M1931.506,967.526l-40.824-3.112c0,0,6.566-145.363,43.563-144.029
			C1988.832,822.351,1931.506,967.526,1931.506,967.526z"/>
		<g>
			<rect x="1754.817" y="859.625" fill="#44535A" width="52.415" height="8.07"/>
			<polygon fill="#3A484E" points="1807.232,867.695 1754.817,867.695 1805.604,904.758 1843.392,904.758 			"/>
			<polygon fill="#2E3B41" points="1807.232,867.695 1843.392,904.758 1843.392,896.69 1807.232,859.625 			"/>
		</g>
		<path fill="#F9B28D" d="M1823.882,917.782l-9.54-8.066l-16.257-6.135l10.952-24.993l10.789,2.424l-0.427-8.908
			c0,0,4.406-1.479,8.348-1.487c3.932,0.013,4.406,4.71,7.253,10.194c2.839,5.485,6.558,29.11,6.558,29.11L1823.882,917.782z"/>
		<path fill="#F9B28D" d="M1798.085,903.581c0,0-18.488-6.663-20.723-8.288c-2.236-1.625-2.267-5.364,0.2-4.672
			c2.471,0.692,26.823,7.515,26.823,7.515L1798.085,903.581z"/>
		<path fill="#F9B28D" d="M1800.914,898.136c0,0-27.613-9.558-29.85-11.183c-2.235-1.629-2.272-5.365,0.201-4.676
			c2.471,0.692,33.12,9.361,33.12,9.361L1800.914,898.136z"/>
		<path fill="#F9B28D" d="M1805.565,891.639c0,0-27.613-9.563-29.846-11.191c-2.231-1.625-2.266-5.365,0.205-4.672
			c2.472,0.692,33.112,9.357,33.112,9.357L1805.565,891.639z"/>
		<path fill="#F9B28D" d="M1812.105,886.555c0,0-27.626-9.562-29.854-11.182c-2.231-1.629-2.266-5.364,0.205-4.673
			c2.467,0.688,33.107,9.358,33.107,9.358L1812.105,886.555z"/>
	</g>
	<path fill="#5A8AC7" d="M800.206,840.758c0,69.979-56.733,126.703-126.709,126.703c-69.989,0-126.709-56.725-126.709-126.703
		c0-69.98,56.72-126.714,126.709-126.714C743.472,714.044,800.206,770.777,800.206,840.758z"/>
	<path fill="#5A8AC7" d="M2350.21,635.079c0,69.98-56.72,126.709-126.71,126.709c-69.975,0-126.708-56.729-126.708-126.709
		c0-69.979,56.733-126.708,126.708-126.708C2293.49,508.37,2350.21,565.099,2350.21,635.079z"/>
	<path fill="#7872B4" d="M1811.055,318.717c0,69.976-56.733,126.709-126.71,126.709c-69.988,0-126.707-56.733-126.707-126.709
		c0-69.98,56.719-126.708,126.707-126.708C1754.321,192.009,1811.055,248.737,1811.055,318.717z"/>
	<path fill="#FCB728" d="M1217.008,269.576c0,69.984-56.724,126.708-126.708,126.708c-69.976,0-126.709-56.724-126.709-126.708
		c0-69.976,56.733-126.709,126.709-126.709C1160.284,142.867,1217.008,199.6,1217.008,269.576z"/>
	<path fill="#EF536C" d="M947.826,518.595c0,49.778-40.353,90.131-90.126,90.131c-49.783,0-90.135-40.353-90.135-90.131
		c0-49.778,40.353-90.13,90.135-90.13C907.473,428.464,947.826,468.817,947.826,518.595z"/>
	<path fill="#EF536C" d="M2095.892,333.819c0,50.761-41.141,91.904-91.897,91.904c-50.762,0-91.909-41.143-91.909-91.904
		c0-50.757,41.147-91.9,91.909-91.9C2054.751,241.919,2095.892,283.063,2095.892,333.819z"/>
	<path fill="#EF658E" d="M1489.14,396.285c0,46.884-38.001,84.885-84.89,84.885c-46.872,0-84.874-38.001-84.874-84.885
		c0-46.875,38.002-84.877,84.874-84.877C1451.138,311.408,1489.14,349.409,1489.14,396.285z"/>
	<g>
		<path fill="none" stroke="#FFFFFF" stroke-width="0.9799" stroke-linecap="round" stroke-miterlimit="10" d="M723.629,838.787
			c0,27.686-22.442,50.133-50.133,50.133c-27.696,0-50.138-22.447-50.138-50.133c0-27.688,22.442-50.129,50.138-50.129
			C701.188,788.658,723.629,811.1,723.629,838.787z"/>
		<path fill="none" stroke="#FFFFFF" stroke-width="0.9799" stroke-linecap="round" stroke-miterlimit="10" d="M774.096,845.43
			v-16.326l-26.554-10.689c-1.719-6.271-4.224-12.217-7.382-17.74l9.19-28.332L737.813,760.8l-26.374,11.226
			c-5.519-3.138-11.456-5.617-17.723-7.327l-13.542-26.545h-16.325l-10.708,26.583c-6.258,1.714-12.191,4.207-17.705,7.357
			l-28.354-9.199L595.54,774.44l11.221,26.353c-3.146,5.531-5.634,11.478-7.348,17.754l-26.515,13.529v16.323l26.532,10.688
			c1.723,6.288,4.219,12.252,7.391,17.791l-9.182,28.285l11.542,11.546l26.306-11.2c5.549,3.168,11.524,5.664,17.83,7.379
			l13.499,26.465h16.325l10.674-26.504c6.305-1.731,12.281-4.231,17.816-7.412l28.277,9.174l11.542-11.542l-11.208-26.314
			c3.164-5.544,5.651-11.516,7.357-17.808L774.096,845.43z"/>
	</g>
	<g>
		
			<path fill="none" stroke="#FFFFFF" stroke-width="0.6109" stroke-linecap="round" stroke-linejoin="round" stroke-miterlimit="10" d="
			M855.908,463.529c-24.301,0-43.999,19.702-43.999,44.007c0,30.974,30.072,34.086,30.072,49.201v4.155h30.756v-5.232
			c0-15.149,27.174-17.15,27.174-48.124C899.911,483.231,880.213,463.529,855.908,463.529z"/>
		<path fill="none" stroke="#FFFFFF" stroke-width="0.6109" stroke-miterlimit="10" d="M843.507,583.967
			c1.193,5.07,6.934,8.909,13.85,8.909c6.917,0,12.657-3.838,13.858-8.909H843.507z"/>
		
			<rect x="841.981" y="568.476" fill="none" stroke="#FFFFFF" stroke-width="0.6109" stroke-linecap="round" stroke-linejoin="round" stroke-miterlimit="10" width="30.756" height="7.48"/>
		
			<rect x="839.985" y="576.161" fill="none" stroke="#FFFFFF" stroke-width="0.6109" stroke-miterlimit="10" width="34.749" height="7.353"/>
		
			<rect x="839.985" y="561.124" fill="none" stroke="#FFFFFF" stroke-width="0.6109" stroke-linecap="round" stroke-linejoin="round" stroke-miterlimit="10" width="34.749" height="7.352"/>
		
			<line fill="none" stroke="#FFFFFF" stroke-width="0.6109" stroke-linecap="round" stroke-linejoin="round" stroke-miterlimit="10" x1="855.908" y1="455.172" x2="855.908" y2="441.468"/>
		
			<line fill="none" stroke="#FFFFFF" stroke-width="0.6109" stroke-linecap="round" stroke-linejoin="round" stroke-miterlimit="10" x1="908.828" y1="506.639" x2="921.537" y2="506.639"/>
		
			<line fill="none" stroke="#FFFFFF" stroke-width="0.6109" stroke-linecap="round" stroke-linejoin="round" stroke-miterlimit="10" x1="793.849" y1="506.639" x2="806.557" y2="506.639"/>
		
			<line fill="none" stroke="#FFFFFF" stroke-width="0.6109" stroke-linecap="round" stroke-linejoin="round" stroke-miterlimit="10" x1="885.767" y1="467.201" x2="896" y2="455.172"/>
		
			<line fill="none" stroke="#FFFFFF" stroke-width="0.6109" stroke-linecap="round" stroke-linejoin="round" stroke-miterlimit="10" x1="818.582" y1="537.057" x2="806.557" y2="547.085"/>
		
			<line fill="none" stroke="#FFFFFF" stroke-width="0.6109" stroke-linecap="round" stroke-linejoin="round" stroke-miterlimit="10" x1="818.582" y1="471.881" x2="809.229" y2="463.529"/>
		
			<line fill="none" stroke="#FFFFFF" stroke-width="0.6109" stroke-linecap="round" stroke-linejoin="round" stroke-miterlimit="10" x1="893.46" y1="537.057" x2="902.146" y2="547.085"/>
		
			<line fill="none" stroke="#FFFFFF" stroke-width="0.6109" stroke-linecap="round" stroke-linejoin="round" stroke-miterlimit="10" x1="851.347" y1="561.124" x2="843.661" y2="506.639"/>
		
			<line fill="none" stroke="#FFFFFF" stroke-width="0.6109" stroke-linecap="round" stroke-linejoin="round" stroke-miterlimit="10" x1="864.042" y1="561.124" x2="871.737" y2="506.639"/>
		
			<line fill="none" stroke="#FFFFFF" stroke-width="0.6109" stroke-linecap="round" stroke-linejoin="round" stroke-miterlimit="10" x1="844.371" y1="511.7" x2="870.651" y2="511.7"/>
	</g>
	<g>
		
			<path fill="none" stroke="#FFFFFF" stroke-width="0.457" stroke-linecap="round" stroke-linejoin="round" stroke-miterlimit="10" d="
			M1399.911,334.576c0-4.873,3.94-8.818,8.814-8.818c4.859,0,8.809,3.946,8.809,8.818"/>
		
			<polyline fill="none" stroke="#FFFFFF" stroke-width="0.457" stroke-linecap="round" stroke-linejoin="round" stroke-miterlimit="10" points="
			1423.464,340.236 1448.48,340.236 1448.48,456.232 1368.817,456.232 1368.817,340.236 1393.832,340.236 		"/>
		
			<polyline fill="none" stroke="#FFFFFF" stroke-width="0.457" stroke-linecap="round" stroke-linejoin="round" stroke-miterlimit="10" points="
			1423.464,347.566 1442.029,347.566 1442.029,427.233 1415.898,446.99 1375.267,446.99 1375.267,347.566 1393.832,347.566 		"/>
		
			<polygon fill="none" stroke="#FFFFFF" stroke-width="0.457" stroke-linecap="round" stroke-linejoin="round" stroke-miterlimit="10" points="
			1442.029,427.233 1415.898,446.99 1428.962,421.813 		"/>
		
			<rect x="1393.832" y="335.141" fill="none" stroke="#FFFFFF" stroke-width="0.457" stroke-linecap="round" stroke-linejoin="round" stroke-miterlimit="10" width="29.632" height="14.337"/>
		
			<path fill="none" stroke="#FFFFFF" stroke-width="0.457" stroke-linecap="round" stroke-linejoin="round" stroke-miterlimit="10" d="
			M1404.955,342.04c0,1.88-1.525,3.403-3.398,3.403c-1.877,0-3.398-1.522-3.398-3.403c0-1.873,1.521-3.394,3.398-3.394
			C1403.43,338.646,1404.955,340.167,1404.955,342.04z"/>
		
			<path fill="none" stroke="#FFFFFF" stroke-width="0.457" stroke-linecap="round" stroke-linejoin="round" stroke-miterlimit="10" d="
			M1419.002,342.04c0,1.88-1.523,3.403-3.394,3.403c-1.881,0-3.408-1.522-3.408-3.403c0-1.873,1.526-3.394,3.408-3.394
			C1417.479,338.646,1419.002,340.167,1419.002,342.04z"/>
		<g>
			
				<line fill="none" stroke="#FFFFFF" stroke-width="0.457" stroke-miterlimit="10" x1="1385.945" y1="367.645" x2="1433.099" y2="367.645"/>
			
				<line fill="none" stroke="#FFFFFF" stroke-width="0.457" stroke-miterlimit="10" x1="1385.945" y1="376.724" x2="1413.042" y2="376.724"/>
			
				<line fill="none" stroke="#FFFFFF" stroke-width="0.457" stroke-miterlimit="10" x1="1417.558" y1="376.724" x2="1433.099" y2="376.724"/>
			
				<line fill="none" stroke="#FFFFFF" stroke-width="0.457" stroke-miterlimit="10" x1="1385.945" y1="384.957" x2="1413.042" y2="384.957"/>
			
				<line fill="none" stroke="#FFFFFF" stroke-width="0.457" stroke-miterlimit="10" x1="1417.558" y1="384.957" x2="1433.099" y2="384.957"/>
			
				<line fill="none" stroke="#FFFFFF" stroke-width="0.457" stroke-miterlimit="10" x1="1385.945" y1="393.189" x2="1413.042" y2="393.189"/>
			
				<line fill="none" stroke="#FFFFFF" stroke-width="0.457" stroke-miterlimit="10" x1="1417.558" y1="393.189" x2="1433.099" y2="393.189"/>
			
				<line fill="none" stroke="#FFFFFF" stroke-width="0.457" stroke-miterlimit="10" x1="1385.945" y1="401.098" x2="1413.042" y2="401.098"/>
			
				<line fill="none" stroke="#FFFFFF" stroke-width="0.457" stroke-miterlimit="10" x1="1417.558" y1="401.098" x2="1433.099" y2="401.098"/>
			
				<line fill="none" stroke="#FFFFFF" stroke-width="0.457" stroke-miterlimit="10" x1="1385.945" y1="409.331" x2="1413.042" y2="409.331"/>
			
				<line fill="none" stroke="#FFFFFF" stroke-width="0.457" stroke-miterlimit="10" x1="1417.558" y1="409.331" x2="1433.099" y2="409.331"/>
			
				<line fill="none" stroke="#FFFFFF" stroke-width="0.457" stroke-miterlimit="10" x1="1385.945" y1="417.564" x2="1413.042" y2="417.564"/>
			
				<line fill="none" stroke="#FFFFFF" stroke-width="0.457" stroke-miterlimit="10" x1="1417.558" y1="417.564" x2="1433.099" y2="417.564"/>
		</g>
	</g>
	<g>
		
			<path fill="none" stroke="#FFFFFF" stroke-width="0.7952" stroke-linecap="round" stroke-linejoin="round" stroke-miterlimit="10" d="
			M1669.624,231.959h32.188c47.91,0,86.749,38.839,86.749,86.758c0,47.91-38.839,86.75-86.749,86.75
			c-8.429,0-31.889-0.086-31.889-0.086"/>
		
			<path fill="none" stroke="#FFFFFF" stroke-width="0.7952" stroke-linecap="round" stroke-linejoin="round" stroke-miterlimit="10" d="
			M1760.392,318.717c0,47.91-38.84,86.75-86.759,86.75c-47.91,0-86.749-38.839-86.749-86.75c0-47.919,38.839-86.758,86.749-86.758
			C1721.552,231.959,1760.392,270.798,1760.392,318.717z"/>
		
			<path fill="none" stroke="#FFFFFF" stroke-width="0.7952" stroke-linecap="round" stroke-linejoin="round" stroke-miterlimit="10" d="
			M1740.553,318.717c0,36.954-29.966,66.915-66.92,66.915s-66.915-29.96-66.915-66.915c0-36.958,29.961-66.919,66.915-66.919
			S1740.553,281.759,1740.553,318.717z"/>
		<g>
			<path fill="#FFFFFF" stroke="#FFFFFF" stroke-width="0.49" stroke-miterlimit="10" d="M1668.308,375.091v-13.935
				c-8.002-0.137-16.287-2.62-21.113-6.07l3.313-9.247c4.967,3.313,12.14,5.934,19.868,5.934c9.793,0,16.423-5.656,16.423-13.521
				c0-7.592-5.382-12.285-15.594-16.422c-14.076-5.519-22.771-11.867-22.771-23.871c0-11.456,8.144-20.15,20.838-22.219v-13.935
				h8.555v13.383c8.279,0.278,13.935,2.484,17.939,4.831l-3.453,9.11c-2.894-1.659-8.549-4.694-17.381-4.694
				c-10.626,0-14.627,6.348-14.627,11.866c0,7.173,5.099,10.764,17.106,15.73c14.217,5.797,21.39,12.97,21.39,25.255
				c0,10.901-7.592,21.108-21.801,23.459v14.346H1668.308z"/>
		</g>
		
			<line fill="none" stroke="#FFFFFF" stroke-width="0.7952" stroke-linecap="round" stroke-linejoin="round" stroke-miterlimit="10" x1="1786.723" y1="313.622" x2="1768.181" y2="313.622"/>
		
			<line fill="none" stroke="#FFFFFF" stroke-width="0.7952" stroke-linecap="round" stroke-linejoin="round" stroke-miterlimit="10" x1="1785.244" y1="297.951" x2="1765.222" y2="297.951"/>
		
			<line fill="none" stroke="#FFFFFF" stroke-width="0.7952" stroke-linecap="round" stroke-linejoin="round" stroke-miterlimit="10" x1="1778.841" y1="280.613" x2="1760.392" y2="280.613"/>
		
			<line fill="none" stroke="#FFFFFF" stroke-width="0.7952" stroke-linecap="round" stroke-linejoin="round" stroke-miterlimit="10" x1="1769.611" y1="265.01" x2="1751.167" y2="265.01"/>
		
			<line fill="none" stroke="#FFFFFF" stroke-width="0.7952" stroke-linecap="round" stroke-linejoin="round" stroke-miterlimit="10" x1="1755.018" y1="250.887" x2="1740.553" y2="250.887"/>
		
			<line fill="none" stroke="#FFFFFF" stroke-width="0.7952" stroke-linecap="round" stroke-linejoin="round" stroke-miterlimit="10" x1="1783.269" y1="346.891" x2="1763.401" y2="346.891"/>
		
			<line fill="none" stroke="#FFFFFF" stroke-width="0.7952" stroke-linecap="round" stroke-linejoin="round" stroke-miterlimit="10" x1="1785.902" y1="330.866" x2="1766.021" y2="330.866"/>
		
			<line fill="none" stroke="#FFFFFF" stroke-width="0.7952" stroke-linecap="round" stroke-linejoin="round" stroke-miterlimit="10" x1="1776.712" y1="360.925" x2="1757.313" y2="360.925"/>
		
			<line fill="none" stroke="#FFFFFF" stroke-width="0.7952" stroke-linecap="round" stroke-linejoin="round" stroke-miterlimit="10" x1="1721.514" y1="397.55" x2="1736.624" y2="397.55"/>
		
			<line fill="none" stroke="#FFFFFF" stroke-width="0.7952" stroke-linecap="round" stroke-linejoin="round" stroke-miterlimit="10" x1="1738.267" y1="386.543" x2="1754.697" y2="386.543"/>
		
			<line fill="none" stroke="#FFFFFF" stroke-width="0.7952" stroke-linecap="round" stroke-linejoin="round" stroke-miterlimit="10" x1="1749.594" y1="374.715" x2="1767.018" y2="374.715"/>
	</g>
	<g>
		
			<path fill="none" stroke="#FFFFFF" stroke-width="0.4347" stroke-linecap="round" stroke-linejoin="round" stroke-miterlimit="10" d="
			M1945.281,319.081c0,0-8.476,3.048-7.407,7.921c1.069,4.881,2.855,13.042,3.731,17.021c1.305,5.976,10.165,5.185,10.165,5.185"/>
		
			<path fill="none" stroke="#FFFFFF" stroke-width="0.4347" stroke-linecap="round" stroke-linejoin="round" stroke-miterlimit="10" d="
			M1989.722,351.008c0,0,18.714,34.877,21.258,39.737c2.547,4.865,2.334,9.502-1.073,10.251c-6.596,1.445-16.722,3.663-19.416,4.253
			c-4.077,0.893-9.143-0.483-10.498-6.041c-1.368-5.565-10.721-43.721-10.721-43.721"/>
		
			<path fill="none" stroke="#FFFFFF" stroke-width="0.4347" stroke-linecap="round" stroke-linejoin="round" stroke-miterlimit="10" d="
			M1983.797,301.393l-29.867,6.544c-5.934,1.3-9.69,7.173-8.396,13.11l5.942,27.075c1.295,5.938,7.163,9.695,13.105,8.4
			l29.862-6.548L1983.797,301.393z"/>
		
			<polygon fill="none" stroke="#FFFFFF" stroke-width="0.4347" stroke-linecap="round" stroke-linejoin="round" stroke-miterlimit="10" points="
			2011.966,346.135 1994.444,349.974 1983.797,301.393 2001.322,297.554 2034.832,267.674 2055.867,363.635 		"/>
		
			<polygon fill="none" stroke="#FFFFFF" stroke-width="0.4347" stroke-linecap="round" stroke-linejoin="round" stroke-miterlimit="10" points="
			1993.637,381.033 1985.579,382.802 1982.288,367.815 1990.354,366.046 		"/>
		
			<line fill="none" stroke="#FFFFFF" stroke-width="0.4347" stroke-linecap="round" stroke-linejoin="round" stroke-miterlimit="10" x1="1983.929" y1="375.309" x2="1990.897" y2="373.783"/>
		
			<path fill="none" stroke="#FFFFFF" stroke-width="0.4347" stroke-linecap="round" stroke-linejoin="round" stroke-miterlimit="10" d="
			M2061.967,362.926c0.358,1.649-0.68,3.278-2.333,3.642l0,0c-1.646,0.363-3.275-0.685-3.635-2.334l-21.556-98.352
			c-0.364-1.65,0.679-3.283,2.324-3.641l0,0c1.658-0.364,3.283,0.679,3.643,2.329L2061.967,362.926z"/>
		
			<polygon fill="none" stroke="#FFFFFF" stroke-width="0.4347" stroke-linecap="round" stroke-linejoin="round" stroke-miterlimit="10" points="
			2066.887,320.607 2054.815,330.276 2047.399,296.429 2062.48,300.511 		"/>
		
			<line fill="none" stroke="#FFFFFF" stroke-width="0.4347" stroke-linecap="round" stroke-linejoin="round" stroke-miterlimit="10" x1="1965.774" y1="325.792" x2="1969.618" y2="343.313"/>
		
			<line fill="none" stroke="#FFFFFF" stroke-width="0.4347" stroke-linecap="round" stroke-linejoin="round" stroke-miterlimit="10" x1="1972.738" y1="324.265" x2="1976.581" y2="341.783"/>
		
			<line fill="none" stroke="#FFFFFF" stroke-width="0.4347" stroke-linecap="round" stroke-linejoin="round" stroke-miterlimit="10" x1="1979.71" y1="322.735" x2="1983.544" y2="340.257"/>
	</g>
	<g>
		
			<rect x="1085.922" y="187.913" fill="none" stroke="#FFFFFF" stroke-width="0.6633" stroke-linecap="round" stroke-miterlimit="10" width="12.144" height="11.26"/>
		
			<rect x="1085.922" y="307.475" fill="none" stroke="#FFFFFF" stroke-width="0.6633" stroke-linecap="round" stroke-miterlimit="10" width="12.144" height="49.954"/>
		<polygon fill="none" stroke="#FFFFFF" stroke-width="0.6633" stroke-linecap="round" stroke-miterlimit="10" points="
			1049.639,307.475 1032.339,348.379 1043.526,353.111 1062.817,307.475 		"/>
		<polygon fill="none" stroke="#FFFFFF" stroke-width="0.6633" stroke-linecap="round" stroke-miterlimit="10" points="
			1132.662,307.475 1119.487,307.475 1138.769,353.111 1149.957,348.379 		"/>
		
			<rect x="1008.859" y="199.583" fill="none" stroke="#FFFFFF" stroke-width="0.6633" stroke-linecap="round" stroke-miterlimit="10" width="166.275" height="107.926"/>
		<g>
			<polyline fill="none" stroke="#FFFFFF" stroke-width="0.6633" stroke-linecap="round" stroke-miterlimit="10" points="
				1135.02,288.684 1054.179,288.684 1054.179,213.685 			"/>
			
				<line fill="none" stroke="#FFFFFF" stroke-width="0.6633" stroke-linecap="round" stroke-miterlimit="10" x1="1065.139" y1="288.136" x2="1065.139" y2="283.203"/>
			
				<line fill="none" stroke="#FFFFFF" stroke-width="0.6633" stroke-linecap="round" stroke-miterlimit="10" x1="1076.646" y1="288.136" x2="1076.646" y2="283.203"/>
			
				<line fill="none" stroke="#FFFFFF" stroke-width="0.6633" stroke-linecap="round" stroke-miterlimit="10" x1="1088.162" y1="288.136" x2="1088.162" y2="283.203"/>
			
				<line fill="none" stroke="#FFFFFF" stroke-width="0.6633" stroke-linecap="round" stroke-miterlimit="10" x1="1099.665" y1="288.136" x2="1099.665" y2="283.203"/>
			
				<line fill="none" stroke="#FFFFFF" stroke-width="0.6633" stroke-linecap="round" stroke-miterlimit="10" x1="1111.176" y1="288.136" x2="1111.176" y2="283.203"/>
			
				<line fill="none" stroke="#FFFFFF" stroke-width="0.6633" stroke-linecap="round" stroke-miterlimit="10" x1="1122.692" y1="288.136" x2="1122.692" y2="283.203"/>
			<polyline fill="none" stroke="#FFFFFF" stroke-width="0.6633" stroke-linecap="round" stroke-miterlimit="10" points="
				1129.814,293.616 1135.02,288.82 1129.814,283.203 			"/>
			<polyline fill="none" stroke="#FFFFFF" stroke-width="0.6633" stroke-linecap="round" stroke-miterlimit="10" points="
				1059.385,218.554 1054.584,213.347 1048.968,218.554 			"/>
			<path fill="none" stroke="#FFFFFF" stroke-width="0.6633" stroke-linecap="round" stroke-miterlimit="10" d="M1117.247,222.867
				c8.421-1.74,13.85,12.538,13.85,12.538"/>
			<path fill="none" stroke="#FFFFFF" stroke-width="0.6633" stroke-linecap="round" stroke-miterlimit="10" d="M1103.683,256.829
				c5.182-5.527,3.553-20.715,7.485-28.777"/>
			<path fill="none" stroke="#FFFFFF" stroke-width="0.6633" stroke-linecap="round" stroke-miterlimit="10" d="M1066.737,258.633
				c3.014-4.958,6.395-8.913,9.909-10.19c10.545-3.839,10.614,9.771,17.954,11.314"/>
			<path fill="none" stroke="#FFFFFF" stroke-width="0.6633" stroke-linecap="round" stroke-miterlimit="10" d="M1054.179,288.684
				c0,0,3.487-12.029,8.771-22.998"/>
			<path fill="none" stroke="#FFFFFF" stroke-width="0.6633" stroke-linecap="round" stroke-miterlimit="10" d="M1068.977,262.215
				c0,2.223-1.804,4.018-4.018,4.018c-2.223,0-4.022-1.795-4.022-4.018c0-2.223,1.8-4.019,4.022-4.019
				C1067.173,258.197,1068.977,259.992,1068.977,262.215z"/>
			<path fill="none" stroke="#FFFFFF" stroke-width="0.6633" stroke-linecap="round" stroke-miterlimit="10" d="M1103.683,258.197
				c0,2.214-1.791,4.019-4.018,4.019c-2.21,0-4.018-1.804-4.018-4.019c0-2.223,1.808-4.022,4.018-4.022
				C1101.892,254.174,1103.683,255.974,1103.683,258.197z"/>
			<path fill="none" stroke="#FFFFFF" stroke-width="0.6633" stroke-linecap="round" stroke-miterlimit="10" d="M1117.939,225.128
				c0,2.219-1.794,4.018-4.018,4.018s-4.019-1.799-4.019-4.018c0-2.223,1.795-4.023,4.019-4.023S1117.939,222.905,1117.939,225.128z
				"/>
		</g>
	</g>
	<g>
		<g>
			
				<rect x="2139.2" y="564.816" fill="none" stroke="#FFFFFF" stroke-width="0.556" stroke-linecap="round" stroke-miterlimit="10" width="159.863" height="123.366"/>
			
				<line fill="none" stroke="#FFFFFF" stroke-width="0.556" stroke-linecap="round" stroke-miterlimit="10" x1="2139.2" y1="585.608" x2="2299.063" y2="585.608"/>
			<path fill="none" stroke="#FFFFFF" stroke-width="0.556" stroke-linecap="round" stroke-miterlimit="10" d="M2252.607,575.037
				c0,2.745-2.223,4.963-4.973,4.963c-2.739,0-4.958-2.219-4.958-4.963c0-2.74,2.219-4.962,4.958-4.962
				C2250.385,570.075,2252.607,572.297,2252.607,575.037z"/>
			<path fill="none" stroke="#FFFFFF" stroke-width="0.556" stroke-linecap="round" stroke-miterlimit="10" d="M2290.882,575.037
				c0,2.745-2.227,4.963-4.966,4.963c-2.742,0-4.965-2.219-4.965-4.963c0-2.74,2.223-4.962,4.965-4.962
				C2288.655,570.075,2290.882,572.297,2290.882,575.037z"/>
			<path fill="none" stroke="#FFFFFF" stroke-width="0.556" stroke-linecap="round" stroke-miterlimit="10" d="M2272.468,575.037
				c0,2.745-2.224,4.963-4.967,4.963c-2.746,0-4.961-2.219-4.961-4.963c0-2.74,2.215-4.962,4.961-4.962
				C2270.244,570.075,2272.468,572.297,2272.468,575.037z"/>
			<path fill="none" stroke="#FFFFFF" stroke-width="0.556" stroke-linecap="round" stroke-miterlimit="10" d="M2233.919,574.952
				c0,2.792-2.676,5.049-5.98,5.049h-75.375c-3.305,0-5.973-2.257-5.973-5.049l0,0c0-2.787,2.668-5.048,5.973-5.048h75.375
				C2231.243,569.903,2233.919,572.165,2233.919,574.952L2233.919,574.952z"/>
			<polyline fill="none" stroke="#FFFFFF" stroke-width="0.556" stroke-linecap="round" stroke-miterlimit="10" points="
				2186.782,606.862 2164.608,606.862 2164.608,668.314 2186.782,668.314 			"/>
			<polyline fill="none" stroke="#FFFFFF" stroke-width="0.556" stroke-linecap="round" stroke-miterlimit="10" points="
				2256.558,668.314 2275.501,668.314 2275.501,606.862 2256.558,606.862 			"/>
			
				<line fill="none" stroke="#FFFFFF" stroke-width="0.556" stroke-miterlimit="10" x1="2175.698" y1="617.031" x2="2262.54" y2="617.031"/>
			
				<line fill="none" stroke="#FFFFFF" stroke-width="0.556" stroke-miterlimit="10" x1="2175.698" y1="630.197" x2="2219.161" y2="630.197"/>
			
				<line fill="none" stroke="#FFFFFF" stroke-width="0.556" stroke-miterlimit="10" x1="2233.919" y1="630.197" x2="2262.54" y2="630.197"/>
			
				<line fill="none" stroke="#FFFFFF" stroke-width="0.556" stroke-miterlimit="10" x1="2175.698" y1="642.132" x2="2219.161" y2="642.132"/>
			
				<line fill="none" stroke="#FFFFFF" stroke-width="0.556" stroke-miterlimit="10" x1="2233.919" y1="642.132" x2="2262.54" y2="642.132"/>
			
				<line fill="none" stroke="#FFFFFF" stroke-width="0.556" stroke-miterlimit="10" x1="2175.698" y1="654.071" x2="2219.161" y2="654.071"/>
			
				<line fill="none" stroke="#FFFFFF" stroke-width="0.556" stroke-miterlimit="10" x1="2233.919" y1="654.071" x2="2262.54" y2="654.071"/>
			<g>
				<path fill="#FFFFFF" d="M2250.478,613.299h-53.843c-2.367,2.078-4.125,4.57-5.463,7.459h63.974
					C2253.91,618.053,2252.474,615.445,2250.478,613.299z"/>
			</g>
			<g>
				<path fill="#FFFFFF" d="M2187.979,626.466c-0.467,2.214-0.833,4.406-0.855,6.71c-0.005,0.291-0.076,0.526-0.159,0.752h37.059
					v-7.463H2187.979z"/>
			</g>
			<g>
				<path fill="#FFFFFF" d="M2257.169,626.466h-26.854v7.463h28.275C2258.288,631.424,2257.84,628.936,2257.169,626.466z"/>
			</g>
			<g>
				<path fill="#FFFFFF" d="M2186.833,638.4c0.389,0.885,0.191,1.996-0.568,2.62v0.132c0.013,0.013,0.013,0.026,0.025,0.034
					c0.467,0.398,0.777,0.975,0.834,1.642c0.043,0.539,0.214,1.069,0.27,1.607c0.02,0.316-0.061,0.607-0.188,0.872
					c0.051,0.18,0.076,0.368,0.084,0.556h36.733V638.4H2186.833z"/>
			</g>
			<g>
				<path fill="#FFFFFF" d="M2259.011,638.4h-28.695v7.463h28.918C2259.217,643.358,2259.161,640.871,2259.011,638.4z"/>
			</g>
			<g>
				<path fill="#FFFFFF" d="M2188.039,650.339c1.312,2.5,2.398,5.108,3.95,7.464h32.034v-7.464H2188.039z"/>
			</g>
			<g>
				<path fill="#FFFFFF" d="M2257.916,650.339h-27.601v7.464h23.519C2255.928,656.063,2257.026,653.147,2257.916,650.339z"/>
			</g>
		</g>
		<g>
			<path fill="none" stroke="#FFFFFF" stroke-width="0.5868" stroke-miterlimit="10" d="M2254.278,618.797
				c10.439,17.291,4.883,39.771-12.412,50.21c-17.283,10.438-39.77,4.881-50.206-12.41c-10.444-17.291-4.883-39.771,12.413-50.206
				C2221.36,595.948,2243.84,601.506,2254.278,618.797z"/>
			
				<line fill="none" stroke="#FFFFFF" stroke-width="0.5868" stroke-miterlimit="10" x1="2241.866" y1="669.007" x2="2247.746" y2="678.749"/>
			
				<line fill="none" stroke="#FFFFFF" stroke-width="1.7603" stroke-linecap="round" stroke-miterlimit="10" x1="2249.765" y1="682.087" x2="2275.135" y2="724.106"/>
		</g>
	</g>
	<g>
		<g>
			
				<line fill="none" stroke="#003E5B" stroke-width="1.1984" stroke-linecap="round" stroke-linejoin="round" stroke-miterlimit="10" x1="2326.341" y1="844.874" x2="2326.341" y2="913.07"/>
			
				<line fill="none" stroke="#003E5B" stroke-width="1.1984" stroke-linecap="round" stroke-linejoin="round" stroke-miterlimit="10" x1="2360.436" y1="878.977" x2="2292.236" y2="878.977"/>
			
				<line fill="none" stroke="#003E5B" stroke-width="1.1984" stroke-linecap="round" stroke-linejoin="round" stroke-miterlimit="10" x1="2350.453" y1="854.859" x2="2302.231" y2="903.086"/>
			
				<line fill="none" stroke="#003E5B" stroke-width="1.1984" stroke-linecap="round" stroke-linejoin="round" stroke-miterlimit="10" x1="2350.453" y1="903.086" x2="2302.231" y2="854.859"/>
		</g>
		<g>
			<g>
				<g>
					
						<line fill="none" stroke="#003E5B" stroke-width="0.8988" stroke-linecap="round" stroke-linejoin="round" x1="2224.953" y1="1098.834" x2="2232.641" y2="1098.834"/>
					
						<line fill="none" stroke="#003E5B" stroke-width="0.8988" stroke-linecap="round" stroke-linejoin="round" stroke-dasharray="2.7388,2.7388" x1="2244.63" y1="1098.834" x2="2262.618" y2="1098.834"/>
					
						<line fill="none" stroke="#003E5B" stroke-width="0.8988" stroke-linecap="round" stroke-linejoin="round" x1="2268.606" y1="1098.834" x2="2276.298" y2="1098.834"/>
				</g>
			</g>
			<g>
				<g>
					
						<line fill="none" stroke="#003E5B" stroke-width="0.8988" stroke-linecap="round" stroke-linejoin="round" x1="2242.796" y1="1078.563" x2="2250.483" y2="1078.563"/>
					
						<line fill="none" stroke="#003E5B" stroke-width="0.8988" stroke-linecap="round" stroke-linejoin="round" stroke-dasharray="2.7388,2.7388" x1="2262.469" y1="1078.563" x2="2280.447" y2="1078.563"/>
					
						<line fill="none" stroke="#003E5B" stroke-width="0.8988" stroke-linecap="round" stroke-linejoin="round" x1="2286.448" y1="1078.563" x2="2294.136" y2="1078.563"/>
				</g>
			</g>
		</g>
		<g>
			<g>
				<g>
					
						<line fill="none" stroke="#003E5B" stroke-width="0.8988" stroke-linecap="round" stroke-linejoin="round" x1="2275.016" y1="357.706" x2="2282.7" y2="357.706"/>
					
						<line fill="none" stroke="#003E5B" stroke-width="0.8988" stroke-linecap="round" stroke-linejoin="round" stroke-dasharray="2.7379,2.7379" x1="2294.686" y1="357.706" x2="2312.654" y2="357.706"/>
					
						<line fill="none" stroke="#003E5B" stroke-width="0.8988" stroke-linecap="round" stroke-linejoin="round" x1="2318.649" y1="357.706" x2="2326.345" y2="357.706"/>
				</g>
			</g>
			<g>
				<g>
					
						<line fill="none" stroke="#003E5B" stroke-width="0.8988" stroke-linecap="round" stroke-linejoin="round" x1="2292.844" y1="337.428" x2="2300.531" y2="337.428"/>
					
						<line fill="none" stroke="#003E5B" stroke-width="0.8988" stroke-linecap="round" stroke-linejoin="round" stroke-dasharray="2.7385,2.7385" x1="2312.528" y1="337.428" x2="2330.509" y2="337.428"/>
					
						<line fill="none" stroke="#003E5B" stroke-width="0.8988" stroke-linecap="round" stroke-linejoin="round" x1="2336.496" y1="337.428" x2="2344.182" y2="337.428"/>
				</g>
			</g>
		</g>
		<g>
			
				<line fill="none" stroke="#003E5B" stroke-width="1.1984" stroke-linecap="round" stroke-linejoin="round" stroke-miterlimit="10" x1="2275.501" y1="131.539" x2="2275.501" y2="199.737"/>
			
				<line fill="none" stroke="#003E5B" stroke-width="1.1984" stroke-linecap="round" stroke-linejoin="round" stroke-miterlimit="10" x1="2309.591" y1="165.634" x2="2241.395" y2="165.634"/>
			
				<line fill="none" stroke="#003E5B" stroke-width="1.1984" stroke-linecap="round" stroke-linejoin="round" stroke-miterlimit="10" x1="2299.611" y1="141.525" x2="2251.385" y2="189.751"/>
			
				<line fill="none" stroke="#003E5B" stroke-width="1.1984" stroke-linecap="round" stroke-linejoin="round" stroke-miterlimit="10" x1="2299.611" y1="189.751" x2="2251.385" y2="141.525"/>
		</g>
		<g>
			
				<line fill="none" stroke="#003E5B" stroke-width="1.1984" stroke-linecap="round" stroke-linejoin="round" stroke-miterlimit="10" x1="1435.651" y1="97.441" x2="1435.651" y2="165.634"/>
			
				<line fill="none" stroke="#003E5B" stroke-width="1.1984" stroke-linecap="round" stroke-linejoin="round" stroke-miterlimit="10" x1="1469.745" y1="131.539" x2="1401.557" y2="131.539"/>
			
				<line fill="none" stroke="#003E5B" stroke-width="1.1984" stroke-linecap="round" stroke-linejoin="round" stroke-miterlimit="10" x1="1459.765" y1="107.422" x2="1411.542" y2="155.648"/>
			
				<line fill="none" stroke="#003E5B" stroke-width="1.1984" stroke-linecap="round" stroke-linejoin="round" stroke-miterlimit="10" x1="1459.765" y1="155.648" x2="1411.542" y2="107.422"/>
		</g>
		<g>
			<g>
				<g>
					
						<line fill="none" stroke="#003E5B" stroke-width="0.8988" stroke-linecap="round" stroke-linejoin="round" x1="1872.268" y1="92.991" x2="1879.952" y2="92.991"/>
					
						<line fill="none" stroke="#003E5B" stroke-width="0.8988" stroke-linecap="round" stroke-linejoin="round" stroke-dasharray="2.7385,2.7385" x1="1891.935" y1="92.991" x2="1909.918" y2="92.991"/>
					
						<line fill="none" stroke="#003E5B" stroke-width="0.8988" stroke-linecap="round" stroke-linejoin="round" x1="1915.919" y1="92.991" x2="1923.601" y2="92.991"/>
				</g>
			</g>
			<g>
				<g>
					
						<line fill="none" stroke="#003E5B" stroke-width="0.8988" stroke-linecap="round" stroke-linejoin="round" x1="1890.108" y1="72.721" x2="1897.791" y2="72.721"/>
					
						<line fill="none" stroke="#003E5B" stroke-width="0.8988" stroke-linecap="round" stroke-linejoin="round" stroke-dasharray="2.7385,2.7385" x1="1909.781" y1="72.721" x2="1927.76" y2="72.721"/>
					
						<line fill="none" stroke="#003E5B" stroke-width="0.8988" stroke-linecap="round" stroke-linejoin="round" x1="1933.749" y1="72.721" x2="1941.438" y2="72.721"/>
				</g>
			</g>
		</g>
		<g>
			
				<line fill="none" stroke="#003E5B" stroke-width="1.1984" stroke-linecap="round" stroke-linejoin="round" stroke-miterlimit="10" x1="557.585" y1="1081.449" x2="557.585" y2="1149.646"/>
			
				<line fill="none" stroke="#003E5B" stroke-width="1.1984" stroke-linecap="round" stroke-linejoin="round" stroke-miterlimit="10" x1="523.478" y1="1115.552" x2="591.68" y2="1115.552"/>
			
				<line fill="none" stroke="#003E5B" stroke-width="1.1984" stroke-linecap="round" stroke-linejoin="round" stroke-miterlimit="10" x1="533.463" y1="1091.435" x2="581.677" y2="1139.662"/>
			
				<line fill="none" stroke="#003E5B" stroke-width="1.1984" stroke-linecap="round" stroke-linejoin="round" stroke-miterlimit="10" x1="533.463" y1="1139.662" x2="581.677" y2="1091.435"/>
		</g>
		<g>
			<g>
				<g>
					
						<line fill="none" stroke="#003E5B" stroke-width="0.8988" stroke-linecap="round" stroke-linejoin="round" x1="785.24" y1="1296.493" x2="777.559" y2="1296.493"/>
					
						<line fill="none" stroke="#003E5B" stroke-width="0.8988" stroke-linecap="round" stroke-linejoin="round" stroke-dasharray="2.7385,2.7385" x1="765.572" y1="1296.493" x2="747.593" y2="1296.493"/>
					
						<line fill="none" stroke="#003E5B" stroke-width="0.8988" stroke-linecap="round" stroke-linejoin="round" x1="741.596" y1="1296.493" x2="733.906" y2="1296.493"/>
				</g>
			</g>
			<g>
				<g>
					
						<line fill="none" stroke="#003E5B" stroke-width="0.8988" stroke-linecap="round" stroke-linejoin="round" x1="767.41" y1="1276.218" x2="759.716" y2="1276.218"/>
					
						<line fill="none" stroke="#003E5B" stroke-width="0.8988" stroke-linecap="round" stroke-linejoin="round" stroke-dasharray="2.7385,2.7385" x1="747.729" y1="1276.218" x2="729.75" y2="1276.218"/>
					
						<line fill="none" stroke="#003E5B" stroke-width="0.8988" stroke-linecap="round" stroke-linejoin="round" x1="723.758" y1="1276.218" x2="716.067" y2="1276.218"/>
				</g>
			</g>
		</g>
		<g>
			<g>
				<g>
					
						<line fill="none" stroke="#003E5B" stroke-width="0.8988" stroke-linecap="round" stroke-linejoin="round" x1="657.954" y1="618.865" x2="650.268" y2="618.865"/>
					
						<line fill="none" stroke="#003E5B" stroke-width="0.8988" stroke-linecap="round" stroke-linejoin="round" stroke-dasharray="2.7379,2.7379" x1="638.282" y1="618.865" x2="620.303" y2="618.865"/>
					
						<line fill="none" stroke="#003E5B" stroke-width="0.8988" stroke-linecap="round" stroke-linejoin="round" x1="614.306" y1="618.865" x2="606.624" y2="618.865"/>
				</g>
			</g>
			<g>
				<g>
					
						<line fill="none" stroke="#003E5B" stroke-width="0.8988" stroke-linecap="round" stroke-linejoin="round" x1="640.128" y1="598.586" x2="632.434" y2="598.586"/>
					
						<line fill="none" stroke="#003E5B" stroke-width="0.8988" stroke-linecap="round" stroke-linejoin="round" stroke-dasharray="2.7392,2.7392" x1="620.448" y1="598.586" x2="602.46" y2="598.586"/>
					
						<line fill="none" stroke="#003E5B" stroke-width="0.8988" stroke-linecap="round" stroke-linejoin="round" x1="596.467" y1="598.586" x2="588.777" y2="598.586"/>
				</g>
			</g>
		</g>
		<g>
			
				<line fill="none" stroke="#003E5B" stroke-width="1.1984" stroke-linecap="round" stroke-linejoin="round" stroke-miterlimit="10" x1="657.954" y1="73.327" x2="657.954" y2="141.525"/>
			
				<line fill="none" stroke="#003E5B" stroke-width="1.1984" stroke-linecap="round" stroke-linejoin="round" stroke-miterlimit="10" x1="623.855" y1="107.422" x2="692.057" y2="107.422"/>
			
				<line fill="none" stroke="#003E5B" stroke-width="1.1984" stroke-linecap="round" stroke-linejoin="round" stroke-miterlimit="10" x1="633.836" y1="83.317" x2="682.071" y2="131.539"/>
			
				<line fill="none" stroke="#003E5B" stroke-width="1.1984" stroke-linecap="round" stroke-linejoin="round" stroke-miterlimit="10" x1="633.836" y1="131.539" x2="682.071" y2="83.317"/>
		</g>
		<g>
			<g>
				<g>
					
						<line fill="none" stroke="#003E5B" stroke-width="0.8988" stroke-linecap="round" stroke-linejoin="round" x1="828.443" y1="257.897" x2="820.753" y2="257.897"/>
					
						<line fill="none" stroke="#003E5B" stroke-width="0.8988" stroke-linecap="round" stroke-linejoin="round" stroke-dasharray="2.7382,2.7382" x1="808.763" y1="257.897" x2="790.788" y2="257.897"/>
					
						<line fill="none" stroke="#003E5B" stroke-width="0.8988" stroke-linecap="round" stroke-linejoin="round" x1="784.795" y1="257.897" x2="777.105" y2="257.897"/>
				</g>
			</g>
			<g>
				<g>
					
						<line fill="none" stroke="#003E5B" stroke-width="0.8988" stroke-linecap="round" stroke-linejoin="round" x1="810.601" y1="237.627" x2="802.915" y2="237.627"/>
					
						<line fill="none" stroke="#003E5B" stroke-width="0.8988" stroke-linecap="round" stroke-linejoin="round" stroke-dasharray="2.7382,2.7382" x1="790.925" y1="237.627" x2="772.95" y2="237.627"/>
					
						<line fill="none" stroke="#003E5B" stroke-width="0.8988" stroke-linecap="round" stroke-linejoin="round" x1="766.957" y1="237.627" x2="759.267" y2="237.627"/>
				</g>
			</g>
		</g>
	</g>
</g>
</svg>
