<?xml version="1.0" encoding="utf-8"?>
<!-- Generator: Adobe Illustrator 16.0.0, SVG Export Plug-In . SVG Version: 6.00 Build 0)  -->
<!DOCTYPE svg PUBLIC "-//W3C//DTD SVG 1.1//EN" "http://www.w3.org/Graphics/SVG/1.1/DTD/svg11.dtd">
<svg version="1.1" id="_x2018_лой_x5F_1" xmlns="http://www.w3.org/2000/svg" xmlns:xlink="http://www.w3.org/1999/xlink"
	 x="0px" y="0px" width="2926.12px" height="1488px" viewBox="0 0 2926.12 1488" enable-background="new 0 0 2926.12 1488"
	 xml:space="preserve">
<g>
	<path fill="#EBF3FA" d="M2855.531,1371.475c-0.396,1.218-0.812,2.436-1.218,3.665c-3.545,10.392-7.439,20.937-11.709,31.646
		c-0.592,1.492-1.195,2.985-1.811,4.478c-5.189,12.75-10.918,25.731-17.217,38.943c0,0.011,0,0.011-0.011,0.022
		c-0.065,0.153-0.143,0.317-0.22,0.472l-2671.849,3.632c0.625-10.688-244.032-356.112,11.972-692.298
		C419.463,425.86,718.8,607.017,780.217,370.468c13.267-51.113,34.62-94.205,62.031-130.043c1.449-1.92,2.93-3.819,4.444-5.685
		c3.84-4.817,7.802-9.491,11.862-14.034c1.13-1.262,2.261-2.513,3.402-3.753c10.348-11.204,21.354-21.573,32.93-31.131
		c2.327-1.92,4.675-3.819,7.056-5.673h0.011c142.224-111.279,365.769-106.528,525.462-40.348
		c212.079,87.884,600.244-64.874,931.919,46.746c5.498,1.843,10.984,3.764,16.438,5.772h0.012
		c11.488,4.191,22.89,8.713,34.214,13.596c24.657,10.622,46.208,22.692,65.038,35.97c2.678,1.887,5.3,3.808,7.868,5.739h0.021
		c229.768,173.354,25.502,536.841,144.177,593.046c74.464,35.268,184.394,114.461,231.94,243.034
		c0.604,1.635,1.195,3.27,1.777,4.916c0.647,1.832,1.284,3.665,1.898,5.508c0.56,1.657,1.108,3.325,1.635,4.993
		C2888.33,1173.804,2891.228,1264.267,2855.531,1371.475z"/>
	<g opacity="0.4">
		<g>
			<rect x="1316.305" y="340.208" fill="#C3DAFC" width="206.634" height="170.383"/>
			<rect x="1419.622" y="340.208" fill="#D4E4F8" width="206.634" height="170.383"/>
			<polygon fill="#9DC3F3" points="1316.425,467.382 1349.168,467.382 1346.284,458.168 1349.168,451.584 1316.425,451.584 			"/>
			<polygon fill="#E3F0FF" points="1419.622,392.937 1452.365,392.937 1449.48,383.724 1452.365,377.14 1419.622,377.14 			"/>
			<polygon fill="#9DC3F3" points="1419.622,377.14 1386.879,377.14 1389.763,386.354 1386.879,392.937 1419.622,392.937 			"/>
			<polygon fill="#E3F0FF" points="1626.261,469.211 1593.518,469.211 1596.401,478.424 1593.518,485.008 1626.261,485.008 			"/>
			<rect x="1553.265" y="351.761" fill="#FFFFFF" width="59.462" height="23.133"/>
		</g>
		<g>
			<rect x="951.39" y="340.208" fill="#C3DAFC" width="206.634" height="170.383"/>
			<rect x="1054.707" y="340.208" fill="#D4E4F8" width="206.634" height="170.383"/>
			<polygon fill="#9DC3F3" points="951.511,467.382 984.253,467.382 981.369,458.168 984.253,451.584 951.511,451.584 			"/>
			<polygon fill="#E3F0FF" points="1054.707,392.937 1087.45,392.937 1084.566,383.724 1087.45,377.14 1054.707,377.14 			"/>
			<polygon fill="#9DC3F3" points="1054.707,377.14 1021.964,377.14 1024.848,386.354 1021.964,392.937 1054.707,392.937 			"/>
			<polygon fill="#E3F0FF" points="1261.345,469.211 1228.603,469.211 1231.486,478.424 1228.603,485.008 1261.345,485.008 			"/>
			<rect x="1188.35" y="351.761" fill="#FFFFFF" width="59.462" height="23.133"/>
		</g>
		<g>
			<rect x="817.73" y="510.592" fill="#C3DAFC" width="79.475" height="947.958"/>
			<rect x="1689.085" y="510.592" fill="#C3DAFC" width="66.064" height="947.958"/>
			<rect x="897.205" y="510.592" fill="#C3DAFC" width="857.944" height="24.671"/>
			<rect x="897.205" y="959.899" fill="#C3DAFC" width="857.944" height="24.671"/>
			<rect x="897.205" y="1336.738" fill="#C3DAFC" width="857.944" height="24.672"/>
			<g>
				<rect x="1330.614" y="783.745" fill="#A9C8ED" width="213.633" height="176.155"/>
				<rect x="1437.431" y="783.745" fill="#D4E4F8" width="213.633" height="176.155"/>
				<polygon fill="#9DC3F3" points="1330.738,915.226 1364.591,915.226 1361.608,905.7 1364.591,898.894 1330.738,898.894 				"/>
				<polygon fill="#E3F0FF" points="1437.431,838.26 1471.282,838.26 1468.301,828.733 1471.282,821.927 1437.431,821.927 				"/>
				<polygon fill="#9DC3F3" points="1437.431,821.927 1403.578,821.927 1406.561,831.453 1403.578,838.26 1437.431,838.26 				"/>
				<polygon fill="#E3F0FF" points="1651.068,917.116 1617.217,917.116 1620.198,926.643 1617.217,933.449 1651.068,933.449 				"/>
				<rect x="1575.6" y="795.688" fill="#FFFFFF" width="61.477" height="23.917"/>
			</g>
			<g>
				<rect x="1056.454" y="783.745" fill="#C3DAFC" width="213.633" height="176.155"/>
				<rect x="1163.271" y="783.745" fill="#D4E4F8" width="213.633" height="176.155"/>
				<polygon fill="#9DC3F3" points="1056.578,915.226 1090.431,915.226 1087.448,905.7 1090.431,898.894 1056.578,898.894 				"/>
				<polygon fill="#E3F0FF" points="1163.271,838.26 1197.123,838.26 1194.141,828.733 1197.123,821.927 1163.271,821.927 				"/>
				<polygon fill="#9DC3F3" points="1163.271,821.927 1129.418,821.927 1132.4,831.453 1129.418,838.26 1163.271,838.26 				"/>
				<polygon fill="#E3F0FF" points="1376.908,917.116 1343.056,917.116 1346.038,926.643 1343.056,933.449 1376.908,933.449 				"/>
				<polygon fill="#E3F0FF" points="1376.908,819.605 1343.056,819.605 1346.038,829.131 1343.056,835.938 1376.908,835.938 				"/>
				<rect x="1184.848" y="902.052" fill="#FFFFFF" width="100.199" height="38.981"/>
			</g>
			<g>
				<rect x="1330.614" y="1183.92" fill="#C3DAFC" width="184.646" height="152.252"/>
				<rect x="1422.937" y="1183.92" fill="#D4E4F8" width="184.646" height="152.252"/>
				<polygon fill="#9DC3F3" points="1330.722,1297.56 1359.98,1297.56 1357.403,1289.326 1359.98,1283.443 1330.722,1283.443 				
					"/>
				<polygon fill="#E3F0FF" points="1422.937,1231.037 1452.195,1231.037 1449.618,1222.804 1452.195,1216.921 1422.937,1216.921 
									"/>
				<polygon fill="#9DC3F3" points="1422.937,1216.921 1393.678,1216.921 1396.255,1225.154 1393.678,1231.037 1422.937,1231.037 
									"/>
				<polygon fill="#E3F0FF" points="1607.587,1299.194 1578.328,1299.194 1580.905,1307.428 1578.328,1313.311 1607.587,1313.311 
									"/>
				<rect x="1542.358" y="1194.242" fill="#FFFFFF" width="53.135" height="20.672"/>
			</g>
			<g>
				<rect x="979.93" y="1160.018" fill="#C3DAFC" width="213.633" height="176.154"/>
				<rect x="1086.747" y="1160.018" fill="#D4E4F8" width="213.633" height="176.154"/>
				<polygon fill="#2A4E96" points="980.055,1291.498 1013.907,1291.498 1010.925,1281.973 1013.907,1275.166 980.055,1275.166 				
					"/>
				<polygon fill="#618DC1" points="1086.747,1214.532 1120.599,1214.532 1117.617,1205.006 1120.599,1198.199 1086.747,1198.199 
									"/>
				<polygon fill="#2A4E96" points="1086.747,1198.199 1052.895,1198.199 1055.876,1207.726 1052.895,1214.532 1086.747,1214.532 
									"/>
				<polygon fill="#618DC1" points="1300.385,1293.389 1266.533,1293.389 1269.515,1302.915 1266.533,1309.722 1300.385,1309.722 
									"/>
				<rect x="1224.916" y="1171.961" fill="#FFFFFF" width="61.477" height="23.917"/>
			</g>
			<g>
				<rect x="1040.061" y="648.269" fill="#C3DAFC" width="163.321" height="134.669"/>
				<rect x="1121.722" y="648.269" fill="#D4E4F8" width="163.321" height="134.669"/>
				<polygon fill="#9DC3F3" points="1040.156,748.785 1066.036,748.785 1063.756,741.503 1066.036,736.299 1040.156,736.299 				"/>
				<polygon fill="#E3F0FF" points="1121.722,689.945 1147.602,689.945 1145.322,682.663 1147.602,677.459 1121.722,677.459 				"/>
				<polygon fill="#9DC3F3" points="1121.722,677.459 1095.842,677.459 1098.122,684.741 1095.842,689.945 1121.722,689.945 				"/>
				<polygon fill="#E3F0FF" points="1285.047,750.231 1259.167,750.231 1261.446,757.513 1259.167,762.717 1285.047,762.717 				"/>
				<rect x="1227.352" y="657.4" fill="#FFFFFF" width="46.998" height="18.284"/>
			</g>
			<g>
				<rect x="1331.864" y="648.269" fill="#C3DAFC" width="163.321" height="134.669"/>
				<rect x="1413.524" y="648.269" fill="#D4E4F8" width="163.321" height="134.669"/>
				<polygon fill="#9DC3F3" points="1331.959,748.785 1357.839,748.785 1355.559,741.503 1357.839,736.299 1331.959,736.299 				"/>
				<polygon fill="#E3F0FF" points="1413.524,689.945 1439.404,689.945 1437.125,682.663 1439.404,677.459 1413.524,677.459 				"/>
				<polygon fill="#9DC3F3" points="1413.524,677.459 1387.645,677.459 1389.924,684.741 1387.645,689.945 1413.524,689.945 				"/>
				<polygon fill="#E3F0FF" points="1576.85,750.231 1550.97,750.231 1553.249,757.513 1550.97,762.717 1576.85,762.717 				"/>
				<rect x="1519.154" y="657.4" fill="#FFFFFF" width="46.998" height="18.284"/>
			</g>
		</g>
	</g>
	<g>
		<g>
			<path fill="#2B478B" d="M2639.877,1195.281l-4.063-1.195c10.737-36.49-8.747-74.479-43.435-84.686l-87.372-25.711
				c-17.983-5.291-28.085-24.987-22.518-43.905c17.991-61.144-14.658-124.801-72.781-141.904l1.258-4.275
				c60.364,17.763,94.271,83.875,75.587,147.376c-4.874,16.561,3.97,33.803,19.712,38.435l87.372,25.71
				C2630.563,1115.991,2651.308,1156.435,2639.877,1195.281z"/>
		</g>
		<g>
			<path fill="#2B478B" d="M2631.053,1225.269l-4.063-1.196c10.737-36.489-8.746-74.48-43.434-84.688l-87.372-25.71
				c-17.983-5.292-28.085-24.987-22.519-43.903c17.992-61.144-14.657-124.804-72.78-141.906l1.258-4.275
				c60.364,17.763,94.271,83.876,75.586,147.377c-4.873,16.561,3.971,33.801,19.713,38.434l87.372,25.71
				C2621.74,1145.977,2642.484,1186.422,2631.053,1225.269z"/>
		</g>
		<g>
			<rect x="1993.182" y="782.268" fill="#ED823A" width="183.964" height="151.69"/>
			<rect x="1901.2" y="782.268" fill="#FF9E55" width="183.963" height="151.69"/>
			<polygon fill="#DD732C" points="2177.038,895.488 2147.888,895.488 2150.455,887.286 2147.888,881.425 2177.038,881.425 			"/>
			<polygon fill="#FFB27D" points="2085.163,829.212 2056.013,829.212 2058.581,821.009 2056.013,815.147 2085.163,815.147 			"/>
			<polygon fill="#DD732C" points="2085.163,815.147 2114.313,815.147 2111.747,823.351 2114.313,829.212 2085.163,829.212 			"/>
			<polygon fill="#FFB27D" points="1901.196,897.117 1930.347,897.117 1927.778,905.32 1930.347,911.182 1901.196,911.182 			"/>
			<rect x="1913.245" y="792.553" fill="#FFFFFF" width="52.938" height="20.595"/>
		</g>
		<g>
			<path fill="#2B478B" d="M2183.75,369.781c-26.377,0-54.039-4.186-69.386-13.042c-24.421-14.092-55.397-8.117-55.709-8.055
				l-0.752-3.744c1.324-0.266,32.677-6.335,58.371,8.491c25.318,14.611,88.232,15.907,116.713,6.211
				c28.056-9.551,65.311-19.831,80.805-19.831v3.818c-15.061,0-51.805,10.174-79.574,19.627
				C2221.628,367.543,2203.031,369.78,2183.75,369.781z"/>
		</g>
		<rect x="2020.06" y="642.453" fill="#2B478B" width="12.066" height="78.702"/>
		<rect x="2043.946" y="642.453" fill="#2B478B" width="12.066" height="78.702"/>
		<g>
			<path fill="#2B478B" d="M2183.75,361.306c-26.377,0-54.039-4.186-69.386-13.042c-24.421-14.093-55.397-8.117-55.709-8.056
				l-0.752-3.744c1.324-0.266,32.677-6.335,58.371,8.491c25.318,14.61,88.232,15.907,116.713,6.211
				c28.056-9.551,65.311-19.831,80.805-19.831v3.819c-15.061,0-51.805,10.174-79.574,19.627
				C2221.628,359.067,2203.031,361.305,2183.75,361.306z"/>
		</g>
		<g>
			<path fill="#2B478B" d="M2437.821,821.338h-5.01v-3.818h5.01c23.201,0,42.076-18.875,42.076-42.075V339.884
				c0-23.201-18.875-42.076-42.076-42.076h-37.144v-3.819h37.144c25.307,0,45.896,20.588,45.896,45.895v435.561
				C2483.717,800.75,2463.128,821.338,2437.821,821.338z"/>
		</g>
		<g>
			<path fill="#2B478B" d="M2432.812,784.457v-3.819c16.137,0,29.265-13.128,29.265-29.264V346.501
				c0-15.649-12.731-28.38-28.38-28.38h-29.439v-3.819h29.439c17.755,0,32.199,14.444,32.199,32.199v404.873
				C2465.896,769.615,2451.054,784.457,2432.812,784.457z"/>
		</g>
		<path fill="#AEC3FF" d="M2088.468,659.924h-104.229c-14.83,0-26.852-12.022-26.852-26.852V400.219
			c0-14.83,12.021-26.852,26.852-26.852h104.229c14.83,0,26.852,12.022,26.852,26.852v232.854
			C2115.319,647.902,2103.298,659.924,2088.468,659.924z"/>
		<g>
			<circle fill="#DDE7FE" cx="2000.683" cy="414.142" r="13.744"/>
			<circle fill="#DDE7FE" cx="2000.683" cy="610.098" r="13.744"/>
			<circle fill="#DDE7FE" cx="2072.025" cy="414.142" r="13.745"/>
			<circle fill="#DDE7FE" cx="2072.025" cy="610.098" r="13.745"/>
		</g>
		<path fill="#FF9E55" d="M2095.011,734.668c0,2.83-0.63,5.578-1.803,8.194h-107.941c-1.173-2.616-1.803-5.364-1.803-8.194
			c0-17.882,24.978-32.386,55.773-32.386S2095.011,716.786,2095.011,734.668z"/>
		<g>
			<path fill="#2B478B" d="M2188.493,771.591v146.688c0,11.768-5.785,22.785-15.468,29.461l-44.736,30.852
				c-3.206,2.212-7.598,1.405-9.809-1.801l-0.003-0.005c-2.211-3.206-1.405-7.598,1.801-9.809l44.736-30.853
				c5.861-4.049,9.367-10.714,9.367-17.846V771.591c0-15.866-12.862-28.729-28.729-28.729h-212.832
				c-15.866,0-28.729,12.863-28.729,28.729v145.852c0,7.523,3.81,14.395,10.192,18.378l49.982,31.25
				c3.301,2.063,4.305,6.411,2.243,9.714l0,0c-2.063,3.305-6.415,4.31-9.719,2.245l-49.985-31.236
				c-10.54-6.589-16.825-17.932-16.825-30.351V771.591c0-23.66,19.18-42.84,42.84-42.84h212.832
				C2169.313,728.75,2188.493,747.931,2188.493,771.591z"/>
		</g>
		<rect x="2032.084" y="285.164" fill="#2B478B" width="293.27" height="8.825"/>
		<rect x="2032.084" y="309.889" fill="#2B478B" width="293.27" height="8.825"/>
		<path fill="#FF9E55" d="M2074.384,373.367h-87.445v-61.351c0-24.934,20.212-45.146,45.146-45.146l0,0
			c24.934,0,45.146,20.212,45.146,45.146v58.504C2077.229,372.092,2075.956,373.367,2074.384,373.367z"/>
		<path fill="#AEC3FF" d="M2384.833,266.87h-44.574c-20.967,0-37.964,16.997-37.964,37.964v795.464
			c0,20.968,16.997,37.965,37.964,37.965h44.574c20.967,0,37.965-16.997,37.965-37.965V304.834
			C2422.798,283.867,2405.8,266.87,2384.833,266.87z"/>
		<circle fill="#2B478B" cx="2362.546" cy="309.205" r="7.007"/>
		<path fill="#98B5F4" d="M2414.263,970.904h-107.807c-10.245,0-18.551-8.305-18.551-18.55V408.199
			c0-10.245,8.306-18.55,18.551-18.55h107.807c10.245,0,18.55,8.305,18.55,18.55v544.156
			C2432.813,962.6,2424.508,970.904,2414.263,970.904z"/>
		<path fill="#98B5F4" d="M2441.241,1182.31h-135.389c-9.912,0-17.947-8.035-17.947-17.946v-61.928
			c0-9.912,8.035-17.947,17.947-17.947h117.442c9.912,0,17.946,8.035,17.946,17.947V1182.31z"/>
		<g>
			<circle fill="#FF9E55" cx="2032.084" cy="309.889" r="26.69"/>
			<g>
				<path fill="#2B478B" d="M2032.084,337.408c-15.174,0-27.519-12.345-27.519-27.519s12.345-27.519,27.519-27.519
					s27.519,12.345,27.519,27.519S2047.258,337.408,2032.084,337.408z M2032.084,284.026c-14.261,0-25.862,11.602-25.862,25.863
					s11.602,25.863,25.862,25.863s25.862-11.602,25.862-25.863S2046.345,284.026,2032.084,284.026z"/>
			</g>
			<circle fill="#ED823A" cx="2032.084" cy="309.889" r="16.29"/>
		</g>
	</g>
	<g>
		<g>
			
				<rect x="2640.881" y="1063.73" transform="matrix(-0.9104 0.4137 -0.4137 -0.9104 5614.3535 1006.1251)" fill="#C3DAFC" width="114.694" height="94.573"/>
			
				<rect x="2693.09" y="1040.003" transform="matrix(-0.9104 0.4137 -0.4137 -0.9104 5704.2759 939.173)" fill="#D4E4F8" width="114.694" height="94.573"/>
			<polygon fill="#618DC1" points="2690.773,1094.611 2707.319,1087.092 2703.745,1083.099 2703.691,1079.109 2687.146,1086.629 			
				"/>
			<polygon fill="#2A4E96" points="2687.146,1086.629 2670.6,1094.148 2674.173,1098.143 2674.228,1102.131 2690.773,1094.611 			
				"/>
			<polygon fill="#618DC1" points="2812.709,1085.7 2796.163,1093.22 2799.737,1097.213 2799.791,1101.202 2816.337,1093.683 			"/>
			
				<rect x="2750.028" y="1035.711" transform="matrix(0.9104 -0.4137 0.4137 0.9104 -183.2783 1237.9771)" fill="#FFFFFF" width="33.005" height="12.84"/>
		</g>
		<path fill="#2B478B" d="M2855.531,1371.475c-0.396,1.218-0.812,2.436-1.218,3.665c-3.545,10.392-7.439,20.937-11.709,31.646
			c-0.592,1.492-1.195,2.985-1.811,4.478c-5.189,12.75-10.918,25.731-17.217,38.943h-140.401l-8.044-75.067l-0.395-3.665
			l-0.308-2.875l-19.981-186.292l-0.154-1.438l10.557-4.707l52.353-23.396l52.364-23.395l52.354-23.384l38.899-17.37
			c0.647,1.832,1.284,3.665,1.898,5.508c0.56,1.657,1.108,3.325,1.635,4.993C2888.33,1173.804,2891.228,1264.267,2855.531,1371.475z
			"/>
		<path fill="#D2E0FF" d="M2855.531,1371.475c-0.396,1.218-0.812,2.436-1.218,3.665h-165.158l-0.361-3.665l-0.285-2.875
			l-18.04-182.561l8.329-3.731l185.556-83.188C2888.33,1173.804,2891.228,1264.267,2855.531,1371.475z"/>
		<path fill="#AEC3FF" d="M2689.162,1375.138H1275.886c-53.247,0-96.412-43.165-96.412-96.413l0,0
			c0-53.247,43.165-96.412,96.412-96.412h1413.276c53.247,0,96.412,43.165,96.412,96.412l0,0
			C2785.574,1331.973,2742.409,1375.138,2689.162,1375.138z"/>
		<path fill="#C5D7FF" d="M2785.571,1278.72c0,26.625-10.793,50.73-28.236,68.185c-17.443,17.444-41.549,28.236-68.174,28.236
			h-239.637c-5.137,0-9.301-4.163-9.301-9.3v-174.231c0-5.137,4.164-9.3,9.301-9.3h239.637
			C2742.411,1182.31,2785.571,1225.48,2785.571,1278.72z"/>
		<path fill="#C5D7FF" d="M2855.531,1371.475c-0.396,1.218-0.812,2.436-1.218,3.665c-3.545,10.392-7.439,20.937-11.709,31.646
			c-0.592,1.492-1.195,2.985-1.811,4.478c-5.189,12.75-10.918,25.731-17.217,38.943c0,0.011,0,0.011-0.011,0.022l-152.966,0.065
			l-1404.37,0.647v-79.468H2855.531z"/>
		<g>
			<path fill="#98B5F4" d="M1689.981,1268.315l-10.874-5.048c-0.899-0.428-1.492-1.316-1.515-2.314
				c-0.032-1.273-0.12-2.558-0.263-3.841c-0.253-2.393-0.681-4.719-1.295-6.957c-0.286-1.043,0.088-2.151,0.954-2.798l9.964-7.594
				c1.064-0.801,1.339-2.305,0.614-3.446l-6.134-9.678c-0.691-1.098-2.096-1.481-3.259-0.922l-10.348,5.081
				c-0.999,0.516-2.228,0.296-3.029-0.538c-3.379-3.522-7.318-6.485-11.653-8.79c-1.054-0.56-1.591-1.788-1.306-2.94l1.679-6.814
				c0.308-1.295-0.395-2.634-1.657-3.105l-10.688-3.862c-0.219-0.088-0.438-0.143-0.669-0.153c-1.064-0.11-2.118,0.472-2.567,1.481
				l-3.786,8.12l-0.911,1.985c-2.129-0.076-4.301,0-6.474,0.242c-2.931,0.318-5.772,0.899-8.472,1.723
				c-1.031,0.307-2.15-0.033-2.798-0.9l-6.102-8.032c-0.845-1.097-2.37-1.371-3.533-0.625l-7.396,4.675l-2.118,1.35
				c-1.163,0.734-1.591,2.228-0.977,3.445l4.235,8.658c0.505,0.998,0.318,2.205-0.472,2.973c-2.305,2.349-4.367,4.928-6.123,7.692
				c-0.176,0.23-0.308,0.461-0.45,0.692c-0.043,0.087-0.099,0.164-0.164,0.229c-0.626,0.846-1.701,1.219-2.732,0.955l-11.072-2.711
				c-0.12-0.032-0.252-0.044-0.373-0.065c-1.174-0.109-2.305,0.593-2.721,1.723l-3.874,10.655c-0.461,1.284,0.121,2.71,1.372,3.303
				l11.346,5.256c0.966,0.429,1.547,1.416,1.492,2.48c-0.099,2.326-0.032,4.696,0.23,7.1c0.143,1.284,0.33,2.534,0.57,3.774
				c0.188,0.999-0.208,2.03-1.02,2.645l-9.58,7.309c-1.053,0.79-1.327,2.282-0.614,3.412l6.079,9.569
				c0.735,1.151,2.217,1.591,3.468,0.976l8.186-4.016c1.108-0.537,2.414-0.264,3.193,0.67c3.051,3.676,6.649,6.857,10.666,9.437
				c0.966,0.593,1.427,1.745,1.152,2.853l-2.447,9.975c-0.318,1.339,0.417,2.711,1.701,3.193l10.622,3.863
				c1.272,0.461,2.699-0.144,3.248-1.361l0.219-0.472l4.39-9.437c0.472-1.01,1.492-1.603,2.611-1.525h0.011
				c2.667,0.175,5.389,0.132,8.143-0.165c1.471-0.153,2.896-0.395,4.334-0.681c0.988-0.208,1.998,0.165,2.612,0.966l6.199,8.153
				c0.846,1.119,2.415,1.404,3.589,0.658l9.524-6.046c0.274-0.176,0.494-0.396,0.681-0.626c0.592-0.778,0.724-1.854,0.285-2.765
				l-3.413-6.913c-0.405-0.845-0.329-1.854,0.176-2.623c0.143-0.197,0.308-0.384,0.494-0.549c4.707-3.939,8.569-8.756,11.379-14.21
				c0.472-0.933,1.46-1.459,2.479-1.404c0.154,0.011,0.297,0.033,0.45,0.077l8.954,2.194c1.306,0.318,2.634-0.384,3.105-1.646
				l0.088-0.252l3.785-10.381C1691.848,1270.335,1691.243,1268.908,1689.981,1268.315z M1654.747,1271.75
				c-1.098,3.072-3.862,6.825-6.693,9.283c-0.659,0.56-1.317,1.064-1.943,1.449c-2.94,1.843-5.947,3.061-8.921,3.73
				c-16.986,3.774-32.854-10.49-29.901-28.596c0.296-1.811,0.779-3.665,1.471-5.542c1.327-3.588,5.047-8.24,8.273-10.282
				c0.34-0.219,0.691-0.428,1.031-0.636C1639.264,1228.725,1663.142,1248.278,1654.747,1271.75z"/>
		</g>
		<g>
			<path fill="#D2E0FF" d="M1763.579,1315.116l-7.824-3.632c-0.647-0.308-1.064-0.955-1.086-1.668
				c-0.022-0.922-0.088-1.833-0.187-2.766c-0.187-1.723-0.494-3.391-0.933-4.992c-0.197-0.758,0.065-1.559,0.68-2.02l7.166-5.465
				c0.779-0.57,0.965-1.656,0.449-2.479l-4.41-6.957c-0.505-0.79-1.504-1.064-2.349-0.67l-7.44,3.665
				c-0.724,0.362-1.602,0.209-2.172-0.395c-2.437-2.523-5.268-4.664-8.395-6.32c-0.746-0.396-1.142-1.284-0.933-2.107l1.207-4.905
				c0.219-0.933-0.286-1.897-1.186-2.238l-7.692-2.776c-0.164-0.065-0.318-0.099-0.482-0.109c-0.769-0.077-1.525,0.34-1.854,1.064
				l-2.71,5.849l-0.659,1.415c-1.536-0.043-3.095,0.012-4.663,0.176c-2.097,0.23-4.148,0.647-6.091,1.24
				c-0.734,0.22-1.547-0.021-2.008-0.647l-4.39-5.771c-0.614-0.79-1.711-0.987-2.545-0.461l-5.322,3.368l-1.515,0.977
				c-0.834,0.527-1.142,1.603-0.713,2.48l3.05,6.222c0.363,0.725,0.23,1.591-0.329,2.14c-1.667,1.69-3.149,3.545-4.411,5.53
				c-0.12,0.165-0.219,0.329-0.329,0.505c-0.021,0.055-0.065,0.11-0.109,0.165c-0.45,0.604-1.229,0.866-1.965,0.681l-7.966-1.942
				c-0.088-0.033-0.187-0.044-0.274-0.056c-0.834-0.076-1.657,0.429-1.953,1.24l-2.787,7.659c-0.329,0.933,0.088,1.953,0.987,2.382
				l8.164,3.774c0.691,0.318,1.108,1.031,1.075,1.788c-0.076,1.668-0.021,3.38,0.165,5.114c0.099,0.91,0.23,1.821,0.405,2.71
				c0.132,0.725-0.142,1.46-0.734,1.898l-6.881,5.256c-0.768,0.571-0.965,1.646-0.449,2.458l4.378,6.881
				c0.516,0.834,1.592,1.141,2.48,0.702l5.903-2.887c0.79-0.395,1.723-0.186,2.293,0.483c2.184,2.645,4.784,4.927,7.671,6.781
				c0.691,0.428,1.02,1.262,0.822,2.063l-1.755,7.165c-0.231,0.966,0.296,1.953,1.229,2.294l7.638,2.775
				c0.91,0.341,1.931-0.088,2.326-0.965l0.164-0.341l3.16-6.792c0.33-0.725,1.076-1.152,1.877-1.098h0.011
				c1.909,0.132,3.862,0.099,5.849-0.12c1.054-0.11,2.085-0.286,3.116-0.483c0.714-0.153,1.448,0.11,1.888,0.691l4.455,5.871
				c0.614,0.801,1.733,0.998,2.579,0.461l6.857-4.346c0.187-0.121,0.352-0.285,0.483-0.45c0.428-0.56,0.516-1.339,0.208-1.986
				l-2.458-4.971c-0.285-0.614-0.241-1.339,0.132-1.888c0.099-0.143,0.209-0.285,0.352-0.395c3.391-2.831,6.155-6.299,8.186-10.227
				c0.341-0.67,1.054-1.043,1.789-0.999c0.099,0,0.208,0.022,0.318,0.044l6.44,1.58c0.934,0.23,1.888-0.274,2.229-1.186l0.065-0.175
				l2.722-7.473C1764.918,1316.564,1764.489,1315.533,1763.579,1315.116z M1738.242,1317.585c-0.79,2.206-2.787,4.916-4.817,6.672
				c-0.472,0.406-0.944,0.769-1.404,1.043c-2.118,1.327-4.269,2.205-6.409,2.688c-12.224,2.71-23.625-7.55-21.507-20.575
				c0.208-1.295,0.56-2.634,1.053-3.983c0.955-2.578,3.633-5.926,5.948-7.396c0.252-0.154,0.505-0.308,0.746-0.461
				C1727.104,1286.641,1744.277,1300.697,1738.242,1317.585z"/>
		</g>
		<g>
			<path fill="#98B5F4" d="M2107.057,1268.315l-10.874-5.048c-0.9-0.428-1.482-1.316-1.515-2.314
				c-0.033-1.273-0.11-2.558-0.253-3.841c-0.264-2.393-0.68-4.719-1.295-6.957c-0.285-1.043,0.077-2.151,0.943-2.798l9.964-7.594
				c1.076-0.801,1.351-2.305,0.614-3.446l-6.122-9.678c-0.702-1.098-2.097-1.481-3.259-0.922l-10.359,5.081
				c-0.998,0.516-2.217,0.296-3.018-0.538c-3.38-3.522-7.318-6.485-11.664-8.79c-1.043-0.56-1.592-1.788-1.307-2.94l1.69-6.814
				c0.296-1.295-0.396-2.634-1.657-3.105l-10.698-3.862c-0.22-0.088-0.429-0.143-0.659-0.153c-1.064-0.11-2.117,0.472-2.578,1.481
				l-3.775,8.12l-0.91,1.985c-2.129-0.076-4.302,0-6.475,0.242c-2.93,0.318-5.771,0.899-8.471,1.723
				c-1.031,0.307-2.151-0.033-2.799-0.9l-6.111-8.032c-0.834-1.097-2.37-1.371-3.523-0.625l-7.406,4.675l-2.106,1.35
				c-1.163,0.734-1.592,2.228-0.988,3.445l4.247,8.658c0.494,0.998,0.318,2.205-0.472,2.973c-2.315,2.349-4.379,4.928-6.123,7.692
				c-0.176,0.23-0.308,0.461-0.45,0.692c-0.044,0.087-0.109,0.164-0.164,0.229c-0.626,0.846-1.712,1.219-2.732,0.955l-11.072-2.711
				c-0.121-0.032-0.252-0.044-0.373-0.065c-1.175-0.109-2.305,0.593-2.722,1.723l-3.873,10.655c-0.472,1.284,0.12,2.71,1.371,3.303
				l11.347,5.256c0.965,0.429,1.547,1.416,1.492,2.48c-0.109,2.326-0.033,4.696,0.23,7.1c0.132,1.284,0.329,2.534,0.56,3.774
				c0.187,0.999-0.197,2.03-1.01,2.645l-9.579,7.309c-1.054,0.79-1.328,2.282-0.615,3.412l6.08,9.569
				c0.724,1.151,2.205,1.591,3.456,0.976l8.197-4.016c1.097-0.537,2.403-0.264,3.193,0.67c3.039,3.676,6.649,6.857,10.666,9.437
				c0.954,0.593,1.426,1.745,1.151,2.853l-2.446,9.975c-0.329,1.339,0.417,2.711,1.7,3.193l10.611,3.863
				c1.284,0.461,2.699-0.144,3.248-1.361l0.23-0.472l4.39-9.437c0.46-1.01,1.492-1.603,2.601-1.525h0.021
				c2.655,0.175,5.377,0.132,8.131-0.165c1.471-0.153,2.908-0.395,4.335-0.681c0.999-0.208,2.008,0.165,2.622,0.966l6.2,8.153
				c0.845,1.119,2.414,1.404,3.589,0.658l9.524-6.046c0.263-0.176,0.493-0.396,0.681-0.626c0.581-0.778,0.724-1.854,0.273-2.765
				l-3.401-6.913c-0.406-0.845-0.329-1.854,0.176-2.623c0.132-0.197,0.296-0.384,0.493-0.549c4.708-3.939,8.56-8.756,11.379-14.21
				c0.462-0.933,1.46-1.459,2.48-1.404c0.143,0.011,0.297,0.033,0.438,0.077l8.966,2.194c1.295,0.318,2.623-0.384,3.095-1.646
				l0.087-0.252l3.786-10.381C2108.922,1270.335,2108.318,1268.908,2107.057,1268.315z M2071.833,1271.75
				c-1.109,3.072-3.863,6.825-6.694,9.283c-0.658,0.56-1.316,1.064-1.942,1.449c-2.951,1.843-5.947,3.061-8.932,3.73
				c-16.986,3.774-32.843-10.49-29.902-28.596c0.308-1.811,0.79-3.665,1.481-5.542c1.328-3.588,5.036-8.24,8.263-10.282
				c0.352-0.219,0.691-0.428,1.043-0.636C2056.35,1228.725,2080.216,1248.278,2071.833,1271.75z"/>
		</g>
		<g>
			<path fill="#D2E0FF" d="M2180.665,1315.116l-7.824-3.632c-0.647-0.308-1.075-0.955-1.086-1.668
				c-0.033-0.922-0.088-1.833-0.188-2.766c-0.186-1.723-0.493-3.391-0.932-4.992c-0.209-0.758,0.054-1.559,0.68-2.02l7.166-5.465
				c0.768-0.57,0.965-1.656,0.438-2.479l-4.4-6.957c-0.505-0.79-1.515-1.064-2.349-0.67l-7.45,3.665
				c-0.714,0.362-1.592,0.209-2.173-0.395c-2.426-2.523-5.268-4.664-8.383-6.32c-0.758-0.396-1.142-1.284-0.944-2.107l1.218-4.905
				c0.22-0.933-0.285-1.897-1.196-2.238l-7.692-2.776c-0.152-0.065-0.307-0.099-0.472-0.109c-0.768-0.077-1.524,0.34-1.854,1.064
				l-2.721,5.849l-0.658,1.415c-1.525-0.043-3.095,0.012-4.653,0.176c-2.106,0.23-4.147,0.647-6.09,1.24
				c-0.746,0.22-1.547-0.021-2.009-0.647l-4.399-5.771c-0.604-0.79-1.701-0.987-2.535-0.461l-5.321,3.368l-1.525,0.977
				c-0.834,0.527-1.142,1.603-0.703,2.48l3.051,6.222c0.362,0.725,0.23,1.591-0.34,2.14c-1.657,1.69-3.139,3.545-4.4,5.53
				c-0.132,0.165-0.22,0.329-0.329,0.505c-0.033,0.055-0.077,0.11-0.11,0.165c-0.46,0.604-1.229,0.866-1.975,0.681l-7.955-1.942
				c-0.089-0.033-0.188-0.044-0.275-0.056c-0.844-0.076-1.656,0.429-1.953,1.24l-2.787,7.659c-0.34,0.933,0.088,1.953,0.988,2.382
				l8.152,3.774c0.703,0.318,1.119,1.031,1.076,1.788c-0.077,1.668-0.022,3.38,0.164,5.114c0.099,0.91,0.242,1.821,0.417,2.71
				c0.132,0.725-0.153,1.46-0.735,1.898l-6.891,5.256c-0.757,0.571-0.955,1.646-0.439,2.458l4.367,6.881
				c0.527,0.834,1.592,1.141,2.491,0.702l5.893-2.887c0.79-0.395,1.734-0.186,2.294,0.483c2.194,2.645,4.783,4.927,7.681,6.781
				c0.681,0.428,1.021,1.262,0.823,2.063l-1.756,7.165c-0.241,0.966,0.297,1.953,1.218,2.294l7.638,2.775
				c0.922,0.341,1.942-0.088,2.337-0.965l0.165-0.341l3.149-6.792c0.34-0.725,1.075-1.152,1.876-1.098h0.011
				c1.921,0.132,3.874,0.099,5.86-0.12c1.053-0.11,2.085-0.286,3.116-0.483c0.713-0.153,1.438,0.11,1.876,0.691l4.467,5.871
				c0.604,0.801,1.733,0.998,2.578,0.461l6.848-4.346c0.197-0.121,0.362-0.285,0.493-0.45c0.417-0.56,0.517-1.339,0.198-1.986
				l-2.447-4.971c-0.297-0.614-0.241-1.339,0.121-1.888c0.099-0.143,0.219-0.285,0.361-0.395c3.38-2.831,6.156-6.299,8.187-10.227
				c0.329-0.67,1.042-1.043,1.777-0.999c0.11,0,0.208,0.022,0.318,0.044l6.452,1.58c0.933,0.23,1.888-0.274,2.228-1.186l0.066-0.175
				l2.71-7.473C2182.003,1316.564,2181.564,1315.533,2180.665,1315.116z M2155.316,1317.585c-0.79,2.206-2.776,4.916-4.807,6.672
				c-0.482,0.406-0.954,0.769-1.404,1.043c-2.118,1.327-4.279,2.205-6.419,2.688c-12.213,2.71-23.625-7.55-21.508-20.575
				c0.22-1.295,0.57-2.634,1.064-3.983c0.955-2.578,3.621-5.926,5.947-7.396c0.242-0.154,0.494-0.308,0.746-0.461
				C2144.189,1286.641,2161.352,1300.697,2155.316,1317.585z"/>
		</g>
		<g>
			<path fill="#98B5F4" d="M1873.113,1258.319l-11.808-2.085c-0.977-0.187-1.777-0.9-2.052-1.854
				c-0.361-1.229-0.779-2.447-1.24-3.654c-0.866-2.238-1.864-4.378-3.028-6.386c-0.549-0.944-0.472-2.097,0.197-2.952l7.692-9.887
				c0.823-1.054,0.702-2.568-0.296-3.49l-8.405-7.79c-0.955-0.878-2.403-0.89-3.38-0.056l-8.713,7.571
				c-0.823,0.747-2.063,0.846-3.051,0.242c-4.17-2.524-8.734-4.39-13.529-5.498c-1.152-0.274-1.986-1.328-2.009-2.513l-0.12-7.012
				c-0.033-1.339-1.054-2.458-2.393-2.59l-11.335-0.999c-0.23-0.021-0.45-0.021-0.681,0.022c-1.054,0.176-1.92,1.01-2.106,2.106
				l-1.569,8.813l-0.373,2.15c-2.074,0.472-4.159,1.108-6.2,1.887c-2.743,1.064-5.344,2.359-7.747,3.841
				c-0.921,0.56-2.085,0.516-2.93-0.153l-7.967-6.2c-1.086-0.845-2.645-0.724-3.566,0.297l-5.958,6.419l-1.7,1.844
				c-0.934,1.01-0.966,2.557-0.066,3.588l6.32,7.286c0.746,0.834,0.867,2.041,0.308,2.984c-1.635,2.864-2.963,5.882-3.95,9.01
				c-0.11,0.263-0.176,0.516-0.264,0.778c-0.011,0.1-0.055,0.176-0.088,0.264c-0.395,0.977-1.35,1.613-2.403,1.624l-11.401,0.22
				c-0.12-0.011-0.252,0.011-0.372,0.033c-1.163,0.197-2.074,1.163-2.195,2.358l-1.01,11.292c-0.12,1.36,0.813,2.59,2.173,2.831
				l12.313,2.184c1.042,0.165,1.854,0.977,2.074,2.008c0.493,2.282,1.174,4.554,2.04,6.814c0.461,1.196,0.966,2.359,1.515,3.501
				c0.438,0.921,0.329,2.019-0.296,2.819l-7.396,9.515c-0.812,1.042-0.691,2.545,0.286,3.456l8.328,7.692
				c0.998,0.933,2.534,0.966,3.588,0.065l6.892-5.991c0.933-0.801,2.261-0.867,3.259-0.176c3.885,2.787,8.187,4.928,12.729,6.397
				c1.076,0.329,1.833,1.328,1.844,2.469l0.197,10.271c0.022,1.372,1.087,2.502,2.458,2.634l11.248,1.02
				c1.35,0.121,2.567-0.822,2.798-2.14l0.099-0.516l1.821-10.237c0.188-1.098,1.032-1.942,2.129-2.151l0.012-0.011
				c2.622-0.505,5.234-1.24,7.823-2.238c1.383-0.527,2.711-1.119,4.017-1.767c0.899-0.461,1.975-0.352,2.776,0.263l8.087,6.299
				c1.098,0.867,2.688,0.735,3.632-0.285l7.659-8.285c0.22-0.241,0.373-0.516,0.494-0.778c0.373-0.9,0.22-1.986-0.438-2.755
				l-5.059-5.805c-0.615-0.713-0.802-1.712-0.505-2.578c0.088-0.23,0.197-0.45,0.34-0.659c3.533-5.004,6.035-10.654,7.363-16.646
				c0.208-1.021,1.031-1.789,2.029-1.986c0.143-0.033,0.297-0.044,0.45-0.055l9.229-0.165c1.339-0.022,2.437-1.054,2.568-2.393
				l0.021-0.263l0.999-11.006C1875.429,1259.801,1874.485,1258.571,1873.113,1258.319z M1839.941,1270.675
				c-0.285,3.237-1.997,7.583-4.093,10.677c-0.505,0.714-1.01,1.361-1.515,1.898c-2.37,2.535-4.96,4.488-7.67,5.893
				c-15.45,8-34.434-1.733-36.233-19.982c-0.165-1.832-0.176-3.752,0.011-5.738c0.362-3.797,2.765-9.251,5.366-12.049
				c0.274-0.308,0.548-0.593,0.834-0.889C1813.957,1233.037,1842.037,1245.832,1839.941,1270.675z"/>
		</g>
		<path fill="#D2E0FF" d="M2855.531,1371.475c-0.396,1.218-0.812,2.436-1.218,3.665c-3.545,10.392-7.439,20.937-11.709,31.646
			c-0.592,1.492-1.195,2.985-1.811,4.478c-5.189,12.75-10.918,25.731-17.217,38.943c0,0.011,0,0.011-0.011,0.022l-152.966,0.065
			v-78.82H2855.531z"/>
		<g>
			<path fill="#2B478B" d="M2689.161,1379.467H1275.89c-55.552,0-100.747-45.195-100.747-100.747
				c0-26.902,10.482-52.2,29.515-71.232c19.025-19.025,44.323-29.504,71.232-29.504h1413.271
				c55.546,0,100.735,45.19,100.735,100.736c0,26.904-10.477,52.206-29.502,71.242
				C2741.369,1368.988,2716.071,1379.467,2689.161,1379.467z M1275.89,1186.635c-24.599,0-47.724,9.578-65.115,26.97
				c-17.398,17.398-26.98,40.523-26.98,65.115c0,50.781,41.314,92.095,92.096,92.095h1413.271c24.6,0,47.725-9.577,65.115-26.969
				c17.391-17.402,26.969-40.531,26.969-65.126c0-50.775-41.309-92.085-92.084-92.085H1275.89z"/>
		</g>
	</g>
	<g>
		<path fill="#C0D8FB" d="M494.674,783.435h-93.609c-4.297,0-7.813-3.516-7.813-7.813v-90.349c0-4.297,3.516-7.813,7.813-7.813
			h93.609c4.297,0,7.813,3.516,7.813,7.813v90.349C502.487,779.918,498.971,783.435,494.674,783.435z"/>
		<path fill="#DFEBFD" d="M490.618,778.844H405.12c-3.925,0-7.136-3.211-7.136-7.137v-82.521c0-3.925,3.211-7.137,7.136-7.137
			h85.498c3.925,0,7.136,3.211,7.136,7.137v82.521C497.754,775.632,494.543,778.844,490.618,778.844z"/>
		<g>
			<g>
				<circle fill="#B7D3F3" cx="447.869" cy="691.722" r="2.263"/>
				<circle fill="#B7D3F3" cx="465.843" cy="696.02" r="2.263"/>
				<circle fill="#B7D3F3" cx="480.734" cy="709.25" r="2.263"/>
				<circle fill="#B7D3F3" cx="487.255" cy="728.846" r="2.263"/>
				<circle fill="#B7D3F3" cx="481.699" cy="750.506" r="2.263"/>
				<circle fill="#B7D3F3" cx="467.49" cy="764.752" r="2.263"/>
				<circle fill="#B7D3F3" cx="447.869" cy="770.495" r="2.263"/>
			</g>
			<g>
				<circle fill="#B7D3F3" cx="429.823" cy="696.02" r="2.263"/>
				<circle fill="#B7D3F3" cx="414.932" cy="709.25" r="2.263"/>
				<circle fill="#B7D3F3" cx="408.411" cy="728.846" r="2.263"/>
				<circle fill="#B7D3F3" cx="413.967" cy="750.506" r="2.263"/>
				<circle fill="#B7D3F3" cx="428.176" cy="764.752" r="2.263"/>
			</g>
		</g>
		<g>
			<circle fill="#B7D3F3" cx="449.522" cy="728.846" r="2.263"/>
			<g>
				<rect x="449.213" y="700.578" fill="#B7D3F3" width="0.618" height="28.268"/>
			</g>
			<g>
				
					<rect x="455.803" y="713.398" transform="matrix(0.6175 0.7866 -0.7866 0.6175 743.358 -82.7222)" fill="#B7D3F3" width="1.854" height="19.052"/>
			</g>
		</g>
	</g>
	<g>
		<g>
			<rect x="1406.4" y="911.156" fill="#D8702A" width="139.749" height="115.231"/>
			<rect x="1476.275" y="911.156" fill="#FF9E55" width="139.749" height="115.231"/>
			<polygon fill="#C15E1B" points="1406.482,997.165 1428.626,997.165 1426.676,990.934 1428.626,986.48 1406.482,986.48 			"/>
			<polygon fill="#FFB27D" points="1476.275,946.816 1498.42,946.816 1496.469,940.586 1498.42,936.133 1476.275,936.133 			"/>
			<polygon fill="#C15E1B" points="1476.275,936.133 1454.131,936.133 1456.081,942.364 1454.131,946.816 1476.275,946.816 			"/>
			<polygon fill="#FFB27D" points="1616.027,998.401 1593.883,998.401 1595.833,1004.633 1593.883,1009.086 1616.027,1009.086 			
				"/>
			<rect x="1566.659" y="918.969" fill="#FFFFFF" width="40.215" height="15.646"/>
		</g>
		<path fill="#FFC299" d="M1550.1,1021.483c3.394-2.204,11.079-7.044,11.425-5.886c0.248,0.833-0.205,2.215-1.16,3.633
			c4.596-1.517,9.238-2.449,20.033,0.062c2.162,0.502,4.089,1.816,5.215,3.729c1.041,1.771,1.372,3.944-1.47,5.563
			c-5.684,3.237-3.994,1.231-11.902,5.958c-7.908,4.728-17.401,5.645-22.908,1.899l-7.522-1.555l-0.458-12.491
			C1541.352,1022.395,1545.688,1022.047,1550.1,1021.483z"/>
		<path fill="#FFB27D" d="M1396.407,897.499c-20.729,12.904-42.192-4.631-42.192-4.631s8.219-21.047,3.083-48.809
			c-0.208-1.13,36.157,13.859,37.254,14.101c0.011,0,0.022,0,0.022,0s0.011,0.088,0.033,0.252c0.021,0.176,0.043,0.352,0.065,0.527
			c0.57,4.894,0.966,9.755,1.229,14.287C1396.703,886.789,1396.407,897.499,1396.407,897.499z"/>
		<path fill="#ED975D" d="M1395.902,873.227c-16.515-1.493-29.21-10.754-33.424-15.967c-1.284-1.568,31.109,0.823,32.075,0.9
			c0.011,0,0.022,0,0.022,0s0.011,0.088,0.033,0.252c0.021,0.132,0.043,0.308,0.065,0.527
			C1395.243,863.833,1395.639,868.694,1395.902,873.227z"/>
		<path fill="#FFB27D" d="M1401.332,855.852c0,0-35.653,15.762-45.127-6.593c-9.474-22.354-20.456-35.375,1.907-46.384
			c22.363-11.008,30.43-4.365,35.407,2.327C1398.496,811.895,1410.362,851.176,1401.332,855.852z"/>
		<path fill="#2A4E96" d="M1358.672,855.371c-0.448,0.422-8.012,4.392-28.887-23.036c-3.277-4.306-6.83-14.283-2.973-24.41
			c3.858-10.128,22.239-20.969,38.04-27.149c7.416-2.9,14.481-2.335,19.892-0.919c6.661,1.744,10.581,8.725,8.691,15.346
			c-2.987,10.462-10.401,16.885-19.781,16.603c-6.286-0.189-5.888,12.644-5.771,15.704c0.116,3.062-0.1,5.664-8.012,4.394
			c-6.78-1.088-2.955,7.864-0.678,11.893c1.124,1.987,1.749,4.241,1.614,6.521C1360.704,852.074,1360.168,853.962,1358.672,855.371z
			"/>
		<path fill="#2C3A64" d="M1304.108,1450.801h-22.978c-4.817,0-10.169-4.823-11.509-13.652c-1.34-8.836-11.241-13.653-13.385-20.881
			c-2.144-7.229,8.836-17.404,8.836-17.404l1.835-2.358l1.909-2.459l18.202,4.281c0,0,0.449,4.334,0.73,9.854
			c0.194,3.985,0.302,8.595,0.074,12.635c-0.536,9.64,2.7,20.017,11.261,21.893
			C1307.652,1444.584,1304.108,1450.801,1304.108,1450.801z"/>
		<path fill="#2C3A64" d="M1464.07,1450.801h-60.909c-0.583-0.113-1.025-0.241-1.292-0.375c-4.066-2.036-2.794-17.605-2.305-22.415
			c0.094-0.891,0.161-1.413,0.161-1.413s21.417-17.13,24.365-4.014c0.094,0.409,0.201,0.812,0.315,1.206v0.007
			c3.718,12.273,20.338,17.847,29.938,19.4C1461.679,1444.391,1463.581,1448.664,1464.07,1450.801z"/>
		<path fill="#FF9E55" d="M1451.794,1099.563c0,0-3.253,40.582-7.076,89.364c-5.196,66.267-11.445,147.664-12.063,163.084
			c-1.068,26.776-5.357,69.607-5.357,69.607s-10.167,10.175-30.519,5.887c0,0-18.135-61.143-23.314-125.835
			c-0.081-1.06-0.161-2.128-0.241-3.195c-4.819-65.857-12.312-204.533-12.312-204.533L1451.794,1099.563z"/>
		<path fill="#2A4E96" d="M1442.76,1093.941c-8.586,0.519-99.18-2.907-99.202-7.967c-0.082-17.598-3.762-46.082-8.354-80.678
			c-0.84-6.447-1.502-12.846-1.992-19.168c-1.268-16.468-1.323-32.324-0.097-46.649c2.282-26.614,9.201-43.699,20.731-53.706
			c0,0,10.852,0.895,20.849,2.397c11.319,1.702,15.5,0.991,23.278-1.183l13.828,11.905c8.273,7.71,14.905,15.76,17.568,26.897
			C1429.37,925.791,1443.526,1093.888,1442.76,1093.941z"/>
		<path fill="#1B407A" d="M1348.133,972.234c0,0,9.535,30.205,41.357,44.836c31.822,14.631,12.802-27.799,12.802-27.799
			L1348.133,972.234z"/>
		<path fill="#FF9E55" d="M1429.37,925.791l-24.744,5.753l-34.052,92.222c-4.891,13.243-16.161,21.418-30.279,21.418l-0.047,2.2
			l1.68,43.946l109.726,9.973c0,0,0.519-55.004-1.446-72.619C1447.298,1002.6,1429.37,925.791,1429.37,925.791z"/>
		<path fill="#2A4E96" d="M1548.029,1028.475c0.781-7.205-2.913-8.553-2.913-8.553s-72.933-16.151-79.101-18.357
			c-6.167-2.206-57.407-59.81-57.407-59.81s-19.571-23.871-36.525-19.423c-14.732,3.865-20.864,15.003-23.22,25.748
			c-2.808,12.805-11.632,16.874-0.731,24.154c24.47,16.344,87.743,57.712,99.427,61.633c26.005,8.729,96.948,4.37,96.948,4.37
			S1547.415,1034.134,1548.029,1028.475z"/>
		<path fill="#ED823A" d="M1378.983,904.832c-5.762-5.353-25.136-19.059-25.136-19.059s0.779-1.296,1.922-2.439
			c1.121-1.12,2.459-1.935,2.459-1.935c2.466-0.521,21.558,13.841,27.915,19.503c7.656,6.818,28.905,28.218,28.905,28.218
			l-10.422,2.424C1404.626,931.544,1385.766,911.133,1378.983,904.832z"/>
		<g>
			<path fill="#FF9E55" d="M1402.849,803.074c0,0-14.214,7.999-19.458,9.338c-1.561,0.398-24.787,6.239-24.787,6.239l-33.266,12.229
				c0,0-11.285-24.297,2.638-43.337l0.005-0.007c0.349-0.479,0.715-0.957,1.096-1.424c3.837-4.733,9.333-9.08,17.074-12.572
				C1385.378,755.844,1402.409,801.617,1402.849,803.074z"/>
			<g>
				<path fill="#E27830" d="M1383.718,811.609l-6.335,2.031c-6.282-5.799-29.24-25.7-49.662-25.594
					c0.089-0.201,0.173-0.365,0.255-0.504l0.005-0.007c0.266-0.477,0.505-0.734,0.885-1.439c0.073,0.005,0.139,0.011,0.211,0.016
					C1355.495,787.626,1378.36,806.413,1383.718,811.609z"/>
			</g>
			<path fill="#FF9E55" d="M1358.604,818.651c0,0-3.525,5.795-3.815,10.811c-0.291,5.015-22.082,11.907-24.069,9.684
				c-1.988-2.225-5.382-8.266-5.382-8.266L1358.604,818.651z"/>
			<path fill="#E27830" d="M1358.604,818.651c0,0,41.238-6.616,58.246-19.881c1.296-1.011,0.673-3.093-0.967-3.195
				c-2.945-0.183-7.894-0.086-15.872,1.047C1400.011,796.622,1387.491,811.478,1358.604,818.651z"/>
		</g>
		<path fill="#ED823A" d="M1439.675,1096.86c0,0,2.105,25.32-9.606,72.83c-8.592,34.858-56.604,131.979-56.604,131.979
			c-0.081-1.06-0.161-2.128-0.241-3.195c-4.819-65.857-12.312-204.533-12.312-204.533L1439.675,1096.86z"/>
		<path fill="#FF9E55" d="M1439.675,1096.86c0,0-61.363,154.494-99.914,223.563s-50.597,88.345-50.597,88.345
			s-22.086-8.835-24.094-14.858c0,0,14.742-133.342,40.558-165.846c14.588-18.367,31.724-73.486,32.527-92.762
			s2.952-65.452,2.952-65.452L1439.675,1096.86z"/>
	</g>
	<g opacity="0.5">
		<path fill="#C3DAFC" d="M2359.335,186.546c5.498,1.843,10.984,3.764,16.438,5.772l-35.224-0.154h-0.011l-9.272-0.033h-0.011
			l-108.196-0.483l-9.294-0.033h-0.011l-108.206-0.482l-9.295-0.033h-0.011l-108.207-0.483l-9.294-0.033h-0.011l-108.207-0.483
			l-9.294-0.033h-0.012l-108.206-0.483l-9.294-0.033h-0.012l-108.195-0.483l-9.294-0.033h-0.011l-108.207-0.483l-9.306-0.043h-0.011
			l-108.195-0.472l-9.305-0.044h-0.011l-108.195-0.472l-9.306-0.044h-0.011l-108.185-0.472l-9.305-0.044h-0.011l-108.195-0.472
			l-9.305-0.044h-0.011l-108.195-0.472l-9.306-0.044h-0.011l-26.248-0.109c2.327-1.92,4.675-3.819,7.056-5.673h0.011l19.543,0.077
			h0.011l117.49,0.527h0.033l117.479,0.516h0.033l117.468,0.516h0.033l117.479,0.516h0.033l117.479,0.516h0.033l117.479,0.516h0.033
			l117.468,0.516h0.033l117.479,0.516h0.033l117.479,0.516h0.033l117.479,0.516h0.032l117.479,0.516h0.033l117.479,0.516
			L2359.335,186.546z"/>
		<path fill="#C3DAFC" d="M2475.036,241.884c2.678,1.887,5.3,3.808,7.868,5.739l-1640.656-7.198c1.449-1.92,2.93-3.819,4.444-5.685
			l33.929,0.143l9.305,0.044l108.207,0.472l9.294,0.044l108.207,0.472h0.011l9.294,0.044l108.207,0.472h0.011l9.294,0.043
			l108.207,0.472h0.011l9.294,0.044h0.011l108.196,0.472h0.011l9.295,0.044h0.011l108.185,0.472h0.011l9.295,0.044h0.011
			l108.195,0.472h0.011l9.295,0.044h0.011l108.195,0.472h0.011l9.295,0.044h0.011l108.195,0.472h0.012l9.294,0.044h0.011
			l108.185,0.472h0.011l9.294,0.044h0.012l108.206,0.483h0.012l9.283,0.033h0.011l108.206,0.483h0.012l9.283,0.033h0.011
			l108.206,0.482h0.012l9.283,0.033h0.011L2475.036,241.884z"/>
		<g>
			<g>
				<path fill="#C3DAFC" d="M889.949,234.938l-2.7,4.203l-6.628-4.257l-22.067-14.177c1.13-1.262,2.261-2.513,3.402-3.753
					l27.97,17.974L889.949,234.938z"/>
			</g>
			<g>
				
					<rect x="912.042" y="207.443" transform="matrix(0.8413 0.5405 -0.5405 0.8413 266.2872 -487.2709)" fill="#C3DAFC" width="102.168" height="4.993"/>
			</g>
			<g>
				
					<rect x="1029.552" y="207.959" transform="matrix(0.8413 0.5405 -0.5405 0.8413 285.2106 -550.7042)" fill="#C3DAFC" width="102.168" height="4.994"/>
			</g>
			<g>
				
					<rect x="1147.061" y="208.475" transform="matrix(0.8413 0.5405 -0.5405 0.8413 304.1339 -614.1374)" fill="#C3DAFC" width="102.168" height="4.994"/>
			</g>
			<g>
				
					<rect x="1264.57" y="208.991" transform="matrix(0.8413 0.5405 -0.5405 0.8413 323.0573 -677.5707)" fill="#C3DAFC" width="102.168" height="4.993"/>
			</g>
			<g>
				
					<rect x="1382.08" y="209.507" transform="matrix(0.8413 0.5405 -0.5405 0.8413 341.9832 -741.0067)" fill="#C3DAFC" width="102.168" height="4.993"/>
			</g>
			<g>
				
					<rect x="1499.589" y="210.023" transform="matrix(0.8413 0.5405 -0.5405 0.8413 360.9039 -804.4373)" fill="#C3DAFC" width="102.168" height="4.994"/>
			</g>
			<g>
				
					<rect x="1617.098" y="210.539" transform="matrix(0.8413 0.5405 -0.5405 0.8413 379.8274 -867.8705)" fill="#C3DAFC" width="102.168" height="4.993"/>
			</g>
			<g>
				
					<rect x="1734.607" y="211.055" transform="matrix(0.8413 0.5405 -0.5405 0.8413 398.7507 -931.3033)" fill="#C3DAFC" width="102.168" height="4.993"/>
			</g>
			<g>
				
					<rect x="1852.117" y="211.572" transform="matrix(0.8413 0.5405 -0.5405 0.8413 417.679 -994.7428)" fill="#C3DAFC" width="102.169" height="4.993"/>
			</g>
			<g>
				
					<rect x="1969.626" y="212.088" transform="matrix(0.8413 0.5405 -0.5405 0.8413 436.6027 -1058.1764)" fill="#C3DAFC" width="102.169" height="4.993"/>
			</g>
			<g>
				
					<rect x="2087.136" y="212.604" transform="matrix(0.8413 0.5405 -0.5405 0.8413 455.5264 -1121.6104)" fill="#C3DAFC" width="102.169" height="4.993"/>
			</g>
			<g>
				
					<rect x="2204.645" y="213.12" transform="matrix(0.8413 0.5405 -0.5405 0.8413 474.457 -1185.0527)" fill="#C3DAFC" width="102.168" height="4.993"/>
			</g>
			<g>
				
					<rect x="2322.154" y="213.636" transform="matrix(0.8413 0.5405 -0.5405 0.8413 493.3734 -1248.4772)" fill="#C3DAFC" width="102.169" height="4.993"/>
			</g>
		</g>
	</g>
	<g>
		<rect x="1652.103" y="1022.424" fill="#8DB0FF" width="188.606" height="155.519"/>
		<rect x="1746.405" y="1022.424" fill="#AEC3FF" width="188.607" height="155.519"/>
		<polygon fill="#2A4E96" points="1652.213,1138.502 1682.099,1138.502 1679.466,1130.093 1682.099,1124.083 1652.213,1124.083 		
			"/>
		<polygon fill="#618DC1" points="1746.405,1070.553 1776.292,1070.553 1773.659,1062.143 1776.292,1056.134 1746.405,1056.134 		
			"/>
		<polygon fill="#2A4E96" points="1746.405,1056.134 1716.52,1056.134 1719.152,1064.543 1716.52,1070.553 1746.405,1070.553 		"/>
		<polygon fill="#618DC1" points="1935.017,1140.172 1905.131,1140.172 1907.763,1148.581 1905.131,1154.591 1935.017,1154.591 		
			"/>
		<rect x="1868.39" y="1032.969" fill="#FFFFFF" width="54.274" height="21.115"/>
	</g>
	<g id="P297LW_1_">
		<path fill="#FFB27D" d="M2267.209,922.66c0,0-8.939,50.855-18.719,103.981c-10.622,57.747-22.235,118.181-24.429,118.937
			c-4.211,1.454-3.872-7.74-6.764-14.753c-2.323-5.638-9.39-53.922-7.066-84.036c0.564-7.35,2.453-97.957,15.018-108.656
			S2267.209,922.66,2267.209,922.66z"/>
		<path fill="#FFB27D" d="M2214.548,1117.335c0,0,2.176,8.324-0.984,16.474c-3.159,8.149-3.83,10.476,2.016,15.051
			s12.175,11.001,16.56,9.099c4.386-1.901,1.67-39.205,1.67-39.205L2214.548,1117.335z"/>
		<path fill="#2A4E96" d="M2226.702,1450.801c5.426-3.312,2.339-28.019,2.339-28.019s-25.284-20.227-28.761-4.74
			c-3.476,15.486-24.019,22.439-35.712,24.335c-8.073,1.31-10.571,5.78-11.346,8.424H2226.702z"/>
		<path fill="#2A4E96" d="M2338.97,1450.801c5.426-3.312,2.339-28.019,2.339-28.019s-25.284-20.227-28.761-4.74
			c-3.476,15.486-24.019,22.439-35.712,24.335c-8.073,1.31-10.571,5.78-11.346,8.424H2338.97z"/>
		<path fill="#FF9843" d="M2303.837,1164.039c-8.997,38.023-20.333,81.441-24.762,105.918c-0.517,2.837-0.936,5.419-1.252,7.703
			c-0.31,2.29-0.516,4.289-0.607,5.953c-2.352,45.849-38.588,150.673-45.07,153.115c-10.029,3.784-25.824-4.259-34.093-6.89
			c-3.42-1.1-5.735-4.55-4.97-8.056c17.945-82.504,29.009-200.582,31.408-270.925c1.209-35.429,2.824-60.63,2.824-60.63
			s88.392-23.584,88.92,6.251C2316.437,1108.04,2310.847,1134.399,2303.837,1164.039z"/>
		<path fill="#E27830" d="M2303.837,1164.039c-8.997,38.023-20.333,81.441-24.762,105.918c-0.517,2.837-3.226,26.892-3.541,29.176
			l-15.475-175.814l21.943,2.023L2303.837,1164.039z"/>
		<path fill="#FF9843" d="M2269.041,1106.714l31.186,325.822c0,0,23.085,7.493,43.942,1.719c0,0,12.124-178.138,10.984-221.683
			c-1.141-43.544,9.818-116.518-2.501-124.565S2269.041,1106.714,2269.041,1106.714z"/>
		<path fill="#2A4E96" d="M2352.038,1019.598c0.34,3.72,1.756,73.169,1.854,75.78c0.11,2.875-7.746,8.604-35.486,12.718
			c-9.953,1.482-21.684,2.491-35.169,2.646c-34.588,0.384-47.811-14.155-47.811-14.155c-2.359,0.043,2.634-16.866,3.435-126.653
			c-0.593,0-1.24,0.11-1.811-0.109c-12.257-4.763-23.669-14.715-23.669-14.715s13.892-38.604,27.026-58.257
			c3.204-4.795,11.83-8.559,23.318-11.018c3.018-0.646,6.244-1.207,9.612-1.668c15.659-2.14,34.588-2.205,52.123,0.33
			c3.05,0.428,6.058,0.943,8.998,1.547c12.981,2.634,24.667,6.858,32.964,12.894c12.213,8.877,21.306,54.317,21.306,54.317
			s-11.507,13.058-37.403,19.422C2349.964,998.825,2350.513,1002.381,2352.038,1019.598z"/>
		<path fill="#FF9843" d="M2227.318,1090.227l10.56-131.534c0.608-7.572,7.104-13.304,14.693-12.962l71.929,2.817
			c5.924,0.231,10.704,4.937,11.007,10.858c0.883,17.275,4.185,50.835,16.535,60.19l6.517,95.217l-80.386,72.777
			c0,0-9.132-53.337-21.687-68.156C2249.462,1111.144,2227.318,1090.227,2227.318,1090.227z"/>
		<g>
			<path fill="#FF9843" d="M2334.459,886.043l-8.68,67.211l-9.021-1.427l8.702-67.331
				C2328.511,884.924,2331.519,885.439,2334.459,886.043z"/>
		</g>
		<g>
			<path fill="#FF9843" d="M2273.338,884.166l-11.138,60.298l-0.933,5.059l-0.998-0.23l-7.934-1.777l11.39-61.681
				C2266.743,885.188,2269.97,884.627,2273.338,884.166z"/>
		</g>
		<path fill="#FFB27D" d="M2388.729,1024.934c0,0-5.396,16.407-74.819,39.105c0,0-0.789-18.543,3.432-21.021
			c13.047-7.66,44.138-30.52,45.205-34.544c0.709-2.673-6.371-22.861-15.332-43.161c16.459-1.829,27.063-3.309,39.191-9.814
			C2390.92,987.426,2397.142,1009.77,2388.729,1024.934z"/>
		<path fill="#FFB27D" d="M2306.004,1043.909c0,0-5.79-4.428-10.239-5.085c-4.448-0.657-11.941-3.492-10.727-0.859
			c1.216,2.633,9.417,6.784,9.417,6.784L2306.004,1043.909z"/>
		<g>
			<path fill="#233862" d="M2294.897,1073.164l-22.623,2.762c-2.5,0.306-4.857-1.232-5.584-3.645l-15.477-51.325
				c-0.928-3.076,1.141-6.245,4.33-6.635l22.623-2.762c2.5-0.306,4.857,1.233,5.584,3.645l15.477,51.326
				C2300.155,1069.605,2298.087,1072.775,2294.897,1073.164z"/>
			<path fill="#192E4F" d="M2286.886,1074.143l-22.623,2.762c-2.5,0.305-4.857-1.233-5.585-3.646l-15.476-51.325
				c-0.928-3.076,1.141-6.245,4.33-6.635l22.622-2.762c2.501-0.305,4.857,1.233,5.585,3.646l15.477,51.325
				C2292.144,1070.584,2290.075,1073.753,2286.886,1074.143z"/>
			<path fill="#192E4F" d="M2270.893,1022.415L2270.893,1022.415c-0.658,0.08-1.374-0.38-1.59-1.021l-15.156-45.031
				c-0.216-0.643,0.146-1.233,0.805-1.313l0,0c0.659-0.081,1.374,0.379,1.591,1.021l15.156,45.031
				C2271.913,1021.743,2271.552,1022.334,2270.893,1022.415z"/>
		</g>
		<path fill="#FFB27D" d="M2317.341,1043.019c0,0-4.027,2.492-6.892,1.739c-2.368-0.623-4.445-0.849-7.177-2.707
			c-2.885-1.963-9.264,0.633-11.146,1.888c-5.275,3.518-23.085,3.375-23.085,6.892c0,3.518,7.747,13.403,17.126,16.335
			c9.379,2.931,27.747-3.127,27.747-3.127L2317.341,1043.019z"/>
		<path fill="#FFB27D" d="M2317.56,882.883c0.385,10.446-8.877,15.538-22.758,13.552c-13.881-1.976-14.156-12.751-14.156-12.751
			l0.341-10.425l0.396-12.333l0.361-11.018l33.601,4.554c-0.11,0.834-0.077,2.776,0.044,5.322v0.011
			C2315.706,866.4,2316.649,877.056,2317.56,882.883z"/>
		<path fill="#ED975D" d="M2315.398,859.784c0,0,0,0-0.011,0.011c-0.318,0.45-7.988,10.918-34.401,13.464l0.396-12.333l34.006-1.142
			H2315.398z"/>
		<path fill="#FFB27D" d="M2274.916,866.742c0,0,41.345,8.353,46.149-17.475c4.805-25.828,13.377-42.145-12.817-48.569
			c-26.194-6.425-33.171,2.474-36.872,10.705C2267.676,819.634,2264.284,863.904,2274.916,866.742z"/>
		<path fill="#233862" d="M2319.161,855.007c0,0,14.376,3.239,15.737-22.927c0.524-10.076,3.03-45.45-25.755-44.238
			s-41.899,18.037-44.52,20.994c-19.646,22.172,28.158,5.67,34.521,10.821c6.363,5.151,0.304,13.635,7.575,16.665
			c7.271,3.029,13.029,3.029,11.816,9.695C2317.325,852.684,2319.161,855.007,2319.161,855.007z"/>
		<path fill="#FF9E55" d="M2260.773,809.349c0,0,15.404,5.359,20.802,5.751c1.607,0.116,25.5,1.759,25.5,1.759l34.904,6.155
			c0,0,6.812-25.91-10.259-42.189l-0.006-0.006c-0.428-0.411-0.873-0.815-1.331-1.208c-4.613-3.98-10.791-7.287-19.027-9.356
			C2269.619,759.774,2260.949,807.837,2260.773,809.349z"/>
		<g>
			<path fill="#E27830" d="M2281.111,814.367l6.595,0.879c5.158-6.817,24.236-30.465,44.354-33.97
				c-0.123-0.182-0.234-0.328-0.34-0.451l-0.006-0.006c-0.346-0.422-0.627-0.633-1.126-1.26c-0.069,0.017-0.135,0.035-0.205,0.053
				C2304.65,785.772,2285.467,808.306,2281.111,814.367z"/>
		</g>
		<path fill="#FF9E55" d="M2307.075,816.858c0,0,4.494,5.08,5.666,9.965c1.173,4.886,23.84,7.816,25.402,5.276
			c1.563-2.541,3.836-9.086,3.836-9.086L2307.075,816.858z"/>
		<path fill="#E27830" d="M2307.075,816.858c0,0-41.758,0.778-60.844-9.271c-1.454-0.766-1.209-2.926,0.388-3.315
			c2.866-0.701,7.754-1.48,15.808-1.776C2262.427,802.496,2277.374,814.904,2307.075,816.858z"/>
	</g>
	<rect x="155.166" y="1134.473" fill="#AEC3FF" width="446.271" height="324.6"/>
	<g>
		<polygon fill="#AEC3FF" points="657.96,766.744 597.106,766.744 597.106,1450.801 700.294,1450.801 700.294,1113.415 
			657.96,940.08 		"/>
		<g>
			<rect x="657.96" y="766.744" fill="#D2E0FF" width="337.344" height="173.336"/>
			<rect x="700.294" y="1113.415" fill="#D2E0FF" width="337.343" height="337.386"/>
			<polygon fill="#C1D4F7" points="1037.637,1113.415 700.294,1113.415 657.96,940.08 995.304,940.08 			"/>
			<g>
				<g>
					<g>
						<polygon fill="#AEC3FF" points="705.861,974.51 697.042,974.51 693.668,961.949 702.488,961.949 						"/>
						<polygon fill="#AEC3FF" points="725.927,974.51 717.107,974.51 713.733,961.949 722.553,961.949 						"/>
						<polygon fill="#AEC3FF" points="745.992,974.51 737.172,974.51 733.798,961.949 742.618,961.949 						"/>
						<polygon fill="#AEC3FF" points="766.057,974.51 757.237,974.51 753.864,961.949 762.684,961.949 						"/>
						<polygon fill="#AEC3FF" points="786.123,974.51 777.303,974.51 773.929,961.949 782.749,961.949 						"/>
						<polygon fill="#AEC3FF" points="806.188,974.51 797.368,974.51 793.994,961.949 802.814,961.949 						"/>
					</g>
					<g>
						<polygon fill="#AEC3FF" points="712.159,997.958 703.339,997.958 699.965,985.396 708.785,985.396 						"/>
						<polygon fill="#AEC3FF" points="732.224,997.958 723.404,997.958 720.031,985.396 728.851,985.396 						"/>
						<polygon fill="#AEC3FF" points="752.289,997.958 743.469,997.958 740.096,985.396 748.916,985.396 						"/>
						<polygon fill="#AEC3FF" points="772.354,997.958 763.535,997.958 760.161,985.396 768.981,985.396 						"/>
						<polygon fill="#AEC3FF" points="792.42,997.958 783.6,997.958 780.227,985.396 789.046,985.396 						"/>
						<polygon fill="#AEC3FF" points="812.485,997.958 803.665,997.958 800.292,985.396 809.111,985.396 						"/>
					</g>
				</g>
				<g>
					<g>
						<polygon fill="#AEC3FF" points="718.681,1022.242 709.861,1022.242 706.488,1009.682 715.308,1009.682 						"/>
						<polygon fill="#AEC3FF" points="738.747,1022.242 729.927,1022.242 726.553,1009.682 735.373,1009.682 						"/>
						<polygon fill="#AEC3FF" points="758.812,1022.242 749.992,1022.242 746.618,1009.682 755.438,1009.682 						"/>
						<polygon fill="#AEC3FF" points="778.877,1022.242 770.057,1022.242 766.684,1009.682 775.503,1009.682 						"/>
						<polygon fill="#AEC3FF" points="798.942,1022.242 790.122,1022.242 786.749,1009.682 795.568,1009.682 						"/>
						<polygon fill="#AEC3FF" points="819.007,1022.242 810.188,1022.242 806.814,1009.682 815.634,1009.682 						"/>
					</g>
					<g>
						<polygon fill="#AEC3FF" points="724.979,1045.69 716.159,1045.69 712.785,1033.129 721.605,1033.129 						"/>
						<polygon fill="#AEC3FF" points="745.044,1045.69 736.224,1045.69 732.85,1033.129 741.67,1033.129 						"/>
						<polygon fill="#AEC3FF" points="765.109,1045.69 756.289,1045.69 752.916,1033.129 761.735,1033.129 						"/>
						<polygon fill="#AEC3FF" points="785.174,1045.69 776.354,1045.69 772.981,1033.129 781.801,1033.129 						"/>
						<polygon fill="#AEC3FF" points="805.239,1045.69 796.419,1045.69 793.046,1033.129 801.866,1033.129 						"/>
						<polygon fill="#AEC3FF" points="825.305,1045.69 816.485,1045.69 813.111,1033.129 821.931,1033.129 						"/>
					</g>
				</g>
			</g>
			<g>
				<g>
					<g>
						<polygon fill="#AEC3FF" points="845.504,974.51 836.684,974.51 833.31,961.949 842.13,961.949 						"/>
						<polygon fill="#AEC3FF" points="865.569,974.51 856.749,974.51 853.375,961.949 862.195,961.949 						"/>
						<polygon fill="#AEC3FF" points="885.634,974.51 876.814,974.51 873.44,961.949 882.261,961.949 						"/>
						<polygon fill="#AEC3FF" points="905.699,974.51 896.879,974.51 893.506,961.949 902.326,961.949 						"/>
						<polygon fill="#AEC3FF" points="925.765,974.51 916.945,974.51 913.571,961.949 922.391,961.949 						"/>
						<polygon fill="#AEC3FF" points="945.83,974.51 937.01,974.51 933.636,961.949 942.456,961.949 						"/>
					</g>
					<g>
						<polygon fill="#AEC3FF" points="851.801,997.958 842.981,997.958 839.607,985.396 848.428,985.396 						"/>
						<polygon fill="#AEC3FF" points="871.866,997.958 863.046,997.958 859.673,985.396 868.493,985.396 						"/>
						<polygon fill="#AEC3FF" points="891.932,997.958 883.111,997.958 879.738,985.396 888.558,985.396 						"/>
						<polygon fill="#AEC3FF" points="911.997,997.958 903.177,997.958 899.803,985.396 908.623,985.396 						"/>
						<polygon fill="#AEC3FF" points="932.062,997.958 923.242,997.958 919.869,985.396 928.688,985.396 						"/>
						<polygon fill="#AEC3FF" points="952.127,997.958 943.307,997.958 939.934,985.396 948.753,985.396 						"/>
					</g>
				</g>
				<g>
					<g>
						<polygon fill="#AEC3FF" points="858.323,1022.242 849.503,1022.242 846.13,1009.682 854.95,1009.682 						"/>
						<polygon fill="#AEC3FF" points="878.389,1022.242 869.569,1022.242 866.195,1009.682 875.015,1009.682 						"/>
						<polygon fill="#AEC3FF" points="898.454,1022.242 889.634,1022.242 886.26,1009.682 895.08,1009.682 						"/>
						<polygon fill="#AEC3FF" points="918.519,1022.242 909.699,1022.242 906.326,1009.682 915.146,1009.682 						"/>
						<polygon fill="#AEC3FF" points="938.584,1022.242 929.765,1022.242 926.391,1009.682 935.211,1009.682 						"/>
						<polygon fill="#AEC3FF" points="958.649,1022.242 949.83,1022.242 946.456,1009.682 955.276,1009.682 						"/>
					</g>
					<g>
						<polygon fill="#AEC3FF" points="864.621,1045.69 855.801,1045.69 852.427,1033.129 861.247,1033.129 						"/>
						<polygon fill="#AEC3FF" points="884.686,1045.69 875.866,1045.69 872.493,1033.129 881.313,1033.129 						"/>
						<polygon fill="#AEC3FF" points="904.751,1045.69 895.931,1045.69 892.558,1033.129 901.377,1033.129 						"/>
						<polygon fill="#AEC3FF" points="924.816,1045.69 915.997,1045.69 912.623,1033.129 921.443,1033.129 						"/>
						<polygon fill="#AEC3FF" points="944.882,1045.69 936.062,1045.69 932.688,1033.129 941.508,1033.129 						"/>
						<polygon fill="#AEC3FF" points="964.947,1045.69 956.127,1045.69 952.753,1033.129 961.573,1033.129 						"/>
					</g>
				</g>
			</g>
			<rect x="683.856" y="822.102" fill="#2B478B" width="125.242" height="100.908"/>
			<rect x="800.292" y="822.102" fill="#699DEE" width="8.948" height="100.908"/>
			<g>
				<path fill="#AEC3FF" d="M1025.699,1416.351H723.993v-124.067h301.707V1416.351z M725.964,1414.38h297.763v-120.126H725.964
					V1414.38z"/>
			</g>
			<ellipse fill="#FFFFFF" cx="881.241" cy="795.723" rx="4.781" ry="6.81"/>
			<ellipse fill="#FF9E55" cx="903.603" cy="795.723" rx="4.781" ry="6.81"/>
			<ellipse fill="#699DEE" cx="925.965" cy="795.723" rx="4.782" ry="6.81"/>
			<ellipse fill="#FFFFFF" cx="948.327" cy="795.723" rx="4.782" ry="6.81"/>
			<ellipse fill="#FF9E55" cx="970.689" cy="795.723" rx="4.782" ry="6.81"/>
			<g>
				<path fill="#AEC3FF" d="M976.457,904.525h-99.054v-83.409h99.054V904.525z M879.375,902.555h95.11v-79.468h-95.11V902.555z"/>
			</g>
			<rect x="718.18" y="832.883" fill="#E9F3FE" width="15.288" height="2.826"/>
			<g>
				<rect x="688.486" y="832.883" fill="#E9F3FE" width="24.098" height="2.826"/>
				<rect x="688.486" y="840.42" fill="#E9F3FE" width="36.456" height="2.826"/>
				<rect x="729.866" y="840.42" fill="#E9F3FE" width="24.181" height="2.826"/>
				<rect x="736.775" y="832.883" fill="#E9F3FE" width="26.401" height="2.826"/>
			</g>
			<g>
				<rect x="688.486" y="853.412" fill="#E9F3FE" width="24.098" height="2.826"/>
				<rect x="688.486" y="860.949" fill="#E9F3FE" width="36.456" height="2.826"/>
				<rect x="729.866" y="860.949" fill="#E9F3FE" width="24.181" height="2.826"/>
				<rect x="718.18" y="853.412" fill="#E9F3FE" width="15.288" height="2.826"/>
				<rect x="736.775" y="853.412" fill="#E9F3FE" width="26.401" height="2.826"/>
			</g>
			<g>
				<rect x="688.486" y="876.022" fill="#E9F3FE" width="24.098" height="2.826"/>
				<rect x="688.486" y="883.559" fill="#E9F3FE" width="36.456" height="2.826"/>
				<rect x="729.866" y="883.559" fill="#E9F3FE" width="24.181" height="2.826"/>
				<rect x="718.18" y="876.022" fill="#E9F3FE" width="15.288" height="2.826"/>
				<rect x="736.775" y="876.022" fill="#E9F3FE" width="26.401" height="2.826"/>
			</g>
			<g>
				<rect x="688.486" y="897.795" fill="#E9F3FE" width="24.098" height="2.826"/>
				<rect x="688.486" y="905.332" fill="#E9F3FE" width="36.456" height="2.826"/>
				<rect x="729.866" y="905.332" fill="#E9F3FE" width="24.181" height="2.826"/>
				<rect x="718.18" y="897.795" fill="#E9F3FE" width="15.288" height="2.826"/>
				<rect x="736.775" y="897.795" fill="#E9F3FE" width="26.401" height="2.826"/>
			</g>
		</g>
	</g>
	<rect x="143.357" y="1134.473" fill="#D2E0FF" width="556.937" height="19.823"/>
	<g>
		<g>
			<g>
				<path fill="#D86713" d="M271.271,998.305l-10.692,127.135c0,0-1.12,7.707,4.612,7.721c9.425,0.022,46.913,0,46.913,0
					s-7.094-1.604-7.008-5.214c0.101-4.255,12.497-130.845,12.497-130.845L271.271,998.305z"/>
				<path fill="#EE9849" d="M315.146,1130.854c-1.854,0.005-37.659,0.117-46.838,0c-4-0.05-4.702-3.557-4.735-5.826
					c-0.016-1.089,0.122-1.893,0.122-1.893l0.278-3.305l0.709-8.422l0.626-7.441l0.804-9.562l0.678-8.07l7.597-90.339l46.323-1.201
					c0,0-5.221,52.977-8.914,91.54c-0.413,4.297-0.805,8.416-1.167,12.262c-0.118,1.229-0.23,2.429-0.34,3.598
					c-0.342,3.648-0.655,6.999-0.928,9.957c-0.144,1.56-0.276,3.008-0.396,4.336c-0.471,5.2-0.748,8.521-0.751,9.152
					c-0.002,0.368,0.029,0.711,0.09,1.029C309.064,1130.721,314.45,1130.854,315.146,1130.854z"/>
				<polygon fill="#F1A34F" points="158.775,929.122 184.82,1033.738 188.386,1048.066 200.517,1096.794 425.88,1096.794 
					381.169,929.122 				"/>
				<polygon fill="#EE9849" points="158.775,929.122 155.166,930.325 195.718,1100.434 200.517,1096.794 				"/>
				<polygon fill="#D86713" points="195.718,1100.434 419.694,1100.434 425.879,1096.794 200.517,1096.794 				"/>
				<rect x="274.372" y="1130.904" fill="#F1A34F" width="48.495" height="2.305"/>
				<polygon fill="#F1A34F" points="414.962,1065.897 378.394,931.339 158.415,931.339 158.415,929.122 381.169,929.122 
					417.615,1065.599 				"/>
				<polygon fill="#D86713" points="310.539,1100.433 310.288,1102.194 264.682,1111.408 265.308,1103.967 265.606,1100.433 				"/>
				<path opacity="0.4" fill="#D86713" d="M315.146,1130.854c-1.854,0.005-37.659,0.117-46.838,0c-4-0.05-4.702-3.557-4.735-5.826
					l45.391-8.54c-0.471,5.2-0.748,8.521-0.751,9.152c-0.002,0.368,0.029,0.711,0.09,1.029
					C309.064,1130.721,314.45,1130.854,315.146,1130.854z"/>
				<polygon opacity="0.4" fill="#D86713" points="299.516,1062.851 200.517,1096.794 188.386,1048.066 				"/>
				<polygon fill="#AEC3FF" points="158.775,929.122 381.169,929.122 417.253,1063.877 191.177,1063.877 				"/>
			</g>
			<polygon fill="#8AA8ED" points="406.764,1058.038 198.536,1058.038 174.954,964.097 173.147,956.893 171.604,950.748 
				167.987,936.34 373.215,936.34 377.186,950.748 378.88,956.893 380.866,964.097 			"/>
			<g>
				<polygon fill="#F9DDBF" points="353.183,942.909 343.82,943.041 343.612,942.228 352.975,942.096 				"/>
				<polygon fill="#F9DDBF" points="351.117,945.152 344.385,945.247 344.177,944.434 350.909,944.339 				"/>
				<polygon fill="#F9DDBF" points="358.851,945.044 352.119,945.139 351.911,944.324 358.642,944.229 				"/>
				<polygon fill="#F9DDBF" points="364.446,944.965 360.274,945.023 360.065,944.21 364.238,944.151 				"/>
				<polygon fill="#F9DDBF" points="360.696,942.804 354.92,942.885 354.711,942.071 360.488,941.99 				"/>
				<polygon fill="#F9DDBF" points="368.587,942.692 362.811,942.773 362.602,941.96 368.378,941.879 				"/>
			</g>
			<g>
				<polygon fill="#F9DDBF" points="378.158,1049.682 368.795,1049.813 368.587,1048.999 377.95,1048.867 				"/>
				<polygon fill="#F9DDBF" points="376.092,1051.925 369.36,1052.02 369.152,1051.205 375.883,1051.11 				"/>
				<polygon fill="#F9DDBF" points="383.826,1051.815 377.094,1051.91 376.886,1051.097 383.617,1051.002 				"/>
				<polygon fill="#F9DDBF" points="389.421,1051.736 385.249,1051.796 385.041,1050.981 389.213,1050.923 				"/>
				<polygon fill="#F9DDBF" points="385.671,1049.575 379.895,1049.657 379.687,1048.843 385.462,1048.762 				"/>
				<polygon fill="#F9DDBF" points="393.562,1049.465 387.785,1049.546 387.577,1048.732 393.353,1048.65 				"/>
			</g>
			<g>
				<g>
					<polygon fill="#F9DDBF" points="206.897,949.114 184.948,949.061 184.515,947.218 206.463,947.271 					"/>
					<polygon fill="#F9DDBF" points="201.905,954.096 186.125,954.057 185.69,952.214 201.471,952.252 					"/>
					<polygon fill="#F9DDBF" points="220.034,954.14 204.254,954.102 203.82,952.258 219.601,952.297 					"/>
					<polygon fill="#F9DDBF" points="233.152,954.172 223.371,954.148 222.937,952.305 232.718,952.329 					"/>
					<polygon fill="#F9DDBF" points="224.509,949.157 210.968,949.125 210.534,947.281 224.075,947.314 					"/>
					<polygon fill="#F9DDBF" points="243.006,949.203 229.465,949.17 229.032,947.327 242.572,947.36 					"/>
				</g>
				<g>
					<g>
						<polygon fill="#F9DDBF" points="207.31,965.342 188.77,965.297 188.336,963.454 206.876,963.499 						"/>
						<polygon fill="#F9DDBF" points="221.031,965.376 210.676,965.351 210.243,963.508 220.598,963.533 						"/>
						<polygon fill="#F9DDBF" points="241.606,965.426 225.729,965.387 225.296,963.544 241.172,963.583 						"/>
					</g>
					<g>
						<polygon fill="#F9DDBF" points="211.859,970.195 189.911,970.142 189.477,968.299 211.425,968.353 						"/>
						<polygon fill="#F9DDBF" points="206.867,975.176 191.086,975.138 190.653,973.295 206.433,973.333 						"/>
						<polygon fill="#F9DDBF" points="224.997,975.221 209.216,975.182 208.782,973.339 224.563,973.378 						"/>
						<polygon fill="#F9DDBF" points="238.114,975.253 228.333,975.229 227.899,973.386 237.68,973.41 						"/>
						<polygon fill="#F9DDBF" points="229.471,970.238 215.93,970.205 215.497,968.362 229.038,968.396 						"/>
						<polygon fill="#F9DDBF" points="247.968,970.284 234.427,970.251 233.994,968.408 247.535,968.441 						"/>
					</g>
				</g>
				<g>
					<g>
						<polygon fill="#163560" points="212.742,988.42 194.202,988.374 193.769,986.531 212.308,986.577 						"/>
						<polygon fill="#163560" points="226.463,988.453 216.108,988.428 215.675,986.585 226.03,986.61 						"/>
						<polygon fill="#163560" points="247.038,988.504 231.162,988.465 230.728,986.622 246.604,986.661 						"/>
					</g>
					<g>
						<polygon fill="#163560" points="217.292,993.273 195.343,993.22 194.909,991.377 216.857,991.431 						"/>
						<polygon fill="#163560" points="212.299,998.254 196.519,998.215 196.085,996.373 211.865,996.411 						"/>
						<polygon fill="#163560" points="230.429,998.299 214.648,998.26 214.214,996.417 229.995,996.455 						"/>
						<polygon fill="#163560" points="243.546,998.33 233.765,998.307 233.331,996.464 243.112,996.487 						"/>
						<polygon fill="#163560" points="234.903,993.316 221.362,993.283 220.929,991.44 234.47,991.474 						"/>
						<polygon fill="#163560" points="253.4,993.361 239.859,993.328 239.426,991.485 252.967,991.519 						"/>
					</g>
				</g>
				<g>
					<g>
						<polygon fill="#F9DDBF" points="217.938,1010.497 199.399,1010.452 198.965,1008.609 217.505,1008.654 						"/>
						<polygon fill="#F9DDBF" points="231.66,1010.531 221.305,1010.506 220.872,1008.663 231.227,1008.688 						"/>
						<polygon fill="#F9DDBF" points="252.235,1010.581 236.358,1010.542 235.924,1008.699 251.801,1008.738 						"/>
					</g>
					<g>
						<polygon fill="#F9DDBF" points="222.488,1015.351 200.539,1015.297 200.105,1013.454 222.054,1013.508 						"/>
						<polygon fill="#F9DDBF" points="217.496,1020.332 201.715,1020.293 201.281,1018.45 217.062,1018.488 						"/>
						<polygon fill="#F9DDBF" points="235.625,1020.376 219.845,1020.337 219.411,1018.494 235.191,1018.533 						"/>
						<polygon fill="#F9DDBF" points="248.743,1020.408 238.961,1020.384 238.528,1018.541 248.309,1018.565 						"/>
						<polygon fill="#F9DDBF" points="240.1,1015.394 226.559,1015.36 226.125,1013.518 239.666,1013.551 						"/>
						<polygon fill="#F9DDBF" points="258.597,1015.439 245.056,1015.406 244.623,1013.563 258.163,1013.597 						"/>
					</g>
				</g>
				<g>
					<g>
						<polygon fill="#163560" points="223.275,1033.171 204.736,1033.125 204.302,1031.282 222.842,1031.328 						"/>
						<polygon fill="#163560" points="236.997,1033.204 226.642,1033.179 226.208,1031.336 236.563,1031.361 						"/>
						<polygon fill="#163560" points="257.572,1033.255 241.695,1033.216 241.261,1031.373 257.138,1031.412 						"/>
					</g>
					<g>
						<polygon fill="#163560" points="227.825,1038.024 205.876,1037.971 205.442,1036.127 227.391,1036.182 						"/>
						<polygon fill="#163560" points="222.833,1043.005 207.052,1042.967 206.618,1041.123 222.399,1041.162 						"/>
						<polygon fill="#163560" points="240.962,1043.049 225.182,1043.011 224.748,1041.168 240.528,1041.207 						"/>
						<polygon fill="#163560" points="254.08,1043.082 244.298,1043.058 243.864,1041.215 253.646,1041.238 						"/>
						<polygon fill="#163560" points="245.437,1038.067 231.896,1038.034 231.462,1036.191 245.003,1036.225 						"/>
						<polygon fill="#163560" points="263.934,1038.112 250.393,1038.079 249.959,1036.236 263.5,1036.27 						"/>
					</g>
				</g>
				<g>
					<polygon fill="#F1A34F" points="303.179,950.654 281.23,950.601 280.797,948.758 302.746,948.812 					"/>
					<polygon fill="#F1A34F" points="298.187,955.635 282.406,955.597 281.973,953.754 297.753,953.793 					"/>
					<polygon fill="#F1A34F" points="316.316,955.68 300.536,955.641 300.103,953.799 315.883,953.837 					"/>
					<polygon fill="#F1A34F" points="329.434,955.712 319.653,955.688 319.219,953.845 329,953.869 					"/>
					<polygon fill="#F1A34F" points="320.791,950.697 307.25,950.664 306.816,948.821 320.357,948.854 					"/>
					<polygon fill="#F1A34F" points="339.288,950.743 325.748,950.71 325.313,948.867 338.854,948.9 					"/>
				</g>
				<g>
					<g>
						<polygon fill="#F1A34F" points="303.592,966.882 285.052,966.837 284.618,964.994 303.158,965.039 						"/>
						<polygon fill="#F1A34F" points="317.313,966.916 306.958,966.891 306.525,965.047 316.879,965.072 						"/>
						<polygon fill="#F1A34F" points="337.888,966.966 322.012,966.927 321.578,965.084 337.455,965.123 						"/>
					</g>
					<g>
						<polygon fill="#F1A34F" points="308.141,971.735 286.192,971.682 285.759,969.839 307.708,969.893 						"/>
						<polygon fill="#F1A34F" points="303.149,976.716 287.369,976.678 286.935,974.835 302.715,974.873 						"/>
						<polygon fill="#F1A34F" points="321.278,976.761 305.498,976.722 305.064,974.879 320.845,974.918 						"/>
						<polygon fill="#F1A34F" points="334.396,976.793 324.615,976.769 324.181,974.926 333.962,974.95 						"/>
						<polygon fill="#F1A34F" points="325.753,971.778 312.212,971.745 311.779,969.902 325.319,969.936 						"/>
						<polygon fill="#F1A34F" points="344.25,971.824 330.709,971.791 330.276,969.947 343.816,969.981 						"/>
					</g>
				</g>
				<g>
					<g>
						<polygon fill="#F9DDBF" points="309.024,989.96 290.484,989.914 290.05,988.071 308.59,988.117 						"/>
						<polygon fill="#F9DDBF" points="322.746,989.993 312.391,989.968 311.957,988.125 322.312,988.15 						"/>
						<polygon fill="#F9DDBF" points="343.32,990.044 327.443,990.005 327.01,988.162 342.887,988.201 						"/>
					</g>
					<g>
						<polygon fill="#F9DDBF" points="313.573,994.813 291.625,994.76 291.191,992.917 313.14,992.971 						"/>
						<polygon fill="#F9DDBF" points="308.581,999.794 292.801,999.755 292.367,997.912 308.147,997.951 						"/>
						<polygon fill="#F9DDBF" points="326.711,999.838 310.93,999.8 310.497,997.957 326.277,997.996 						"/>
						<polygon fill="#F9DDBF" points="339.828,999.87 330.047,999.847 329.613,998.004 339.395,998.027 						"/>
						<polygon fill="#F9DDBF" points="331.186,994.856 317.645,994.823 317.211,992.98 330.751,993.014 						"/>
						<polygon fill="#F9DDBF" points="349.683,994.901 336.142,994.868 335.708,993.025 349.249,993.059 						"/>
					</g>
				</g>
				<g>
					<g>
						<polygon fill="#F9DDBF" points="314.221,1012.037 295.681,1011.992 295.247,1010.149 313.787,1010.194 						"/>
						<polygon fill="#F9DDBF" points="327.942,1012.071 317.587,1012.046 317.153,1010.203 327.508,1010.229 						"/>
						<polygon fill="#F9DDBF" points="348.517,1012.121 332.64,1012.082 332.207,1010.239 348.083,1010.278 						"/>
					</g>
					<g>
						<polygon fill="#F9DDBF" points="318.77,1016.891 296.821,1016.837 296.388,1014.994 318.336,1015.048 						"/>
						<polygon fill="#F9DDBF" points="313.778,1021.871 297.997,1021.833 297.563,1019.99 313.344,1020.029 						"/>
						<polygon fill="#F9DDBF" points="331.907,1021.916 316.127,1021.877 315.693,1020.034 331.474,1020.073 						"/>
						<polygon fill="#F9DDBF" points="345.025,1021.948 335.244,1021.924 334.81,1020.081 344.591,1020.105 						"/>
						<polygon fill="#F9DDBF" points="336.382,1016.934 322.841,1016.9 322.407,1015.058 335.948,1015.091 						"/>
						<polygon fill="#F9DDBF" points="354.879,1016.979 341.338,1016.946 340.904,1015.104 354.445,1015.137 						"/>
					</g>
				</g>
				<g>
					<g>
						<polygon fill="#F9DDBF" points="319.558,1034.711 301.018,1034.665 300.584,1032.822 319.124,1032.868 						"/>
						<polygon fill="#F9DDBF" points="333.279,1034.744 322.924,1034.719 322.49,1032.876 332.845,1032.901 						"/>
						<polygon fill="#F9DDBF" points="353.854,1034.795 337.977,1034.756 337.543,1032.913 353.42,1032.952 						"/>
					</g>
					<g>
						<polygon fill="#F9DDBF" points="324.107,1039.564 302.158,1039.51 301.725,1037.668 323.673,1037.722 						"/>
						<polygon fill="#F9DDBF" points="319.115,1044.545 303.334,1044.506 302.9,1042.663 318.681,1042.702 						"/>
						<polygon fill="#F9DDBF" points="337.244,1044.59 321.464,1044.551 321.03,1042.708 336.811,1042.746 						"/>
						<polygon fill="#F9DDBF" points="350.362,1044.621 340.581,1044.598 340.146,1042.755 349.928,1042.778 						"/>
						<polygon fill="#F9DDBF" points="341.719,1039.607 328.178,1039.574 327.744,1037.731 341.285,1037.765 						"/>
						<polygon fill="#F9DDBF" points="360.216,1039.652 346.675,1039.619 346.241,1037.776 359.782,1037.81 						"/>
					</g>
				</g>
			</g>
		</g>
		<g>
			<path fill="#0E2C4F" d="M420.924,1420.688c0,0-2.007,31.271-8.058,31.706c-0.805,0.058-30.688-0.008-30.688-0.008l-38.147-0.304
				c0,0,0.27-9.191,11.425-11.11c11.155-1.919,29.836-9.715,36.623-24.438C399.218,1401.046,420.924,1420.688,420.924,1420.688z"/>
			<path fill="#163560" d="M530.12,1163.477c1.458,1.227,40.31,43.325,37.137,75.658c-0.932,9.496-9.113,16.637-18.655,16.637
				h-47.327c0,0-48.291,8.63-49.442,19.065c-1.152,10.437-11.033,66.689-30.616,146.63c0,0-14.431,4.969-23.183,1.421
				c-11.575-4.692-13.255-9.671-13.255-9.671s11.672-179.005,20.887-191.602s104.149-50.049,134.889-53.778
				S530.12,1163.477,530.12,1163.477z"/>
			<path fill="#FFB27D" d="M255.651,1118.827c0,0-27.459-6.386-34.484,0c-7.024,6.386-9.259,15.646-9.259,15.646h43.743V1118.827z"
				/>
			<path fill="#163560" d="M354.065,1420.688c0,0-2.007,31.271-8.059,31.706c-0.805,0.058-30.688-0.008-30.688-0.008l-38.147-0.304
				c0,0,0.27-9.191,11.425-11.11c11.155-1.919,29.836-9.715,36.623-24.438C332.358,1401.046,354.065,1420.688,354.065,1420.688z"/>
			<path fill="#2B478B" d="M566.013,1163.477c1.105,0.93,9.512,23.556,15.128,49.252c4.834,22.113-11.988,43.043-34.624,43.043
				H436.421c0,0-48.291,8.63-49.443,19.065c-1.152,10.437-11.033,66.689-30.616,146.63c0,0-14.481,3.801-25.787-1.031
				c-6.013-2.57-10.756-8.733-10.756-8.733s11.777-177.49,20.992-190.087s104.15-50.049,134.889-53.778
				C506.44,1164.107,566.013,1163.477,566.013,1163.477z"/>
			<path fill="#FFB27D" d="M504.987,1003.446l-17.025,16.344l-29.01,0.009c-0.033-2.333,0.064-12.061,0.166-20.876
				c0.01-0.519,0.019-1.036,0.022-1.546c0.022-1.957,0.049-3.846,0.07-5.566c0.058-4.857,0.107-8.377,0.107-8.377l7.458-5.1
				l16.569-11.344l8.96-6.125c0.005,0.15,0.742,8.164,0.854,9.329C495.139,990.942,504.987,1003.446,504.987,1003.446z"/>
			<path fill="#163560" d="M462.81,1000.497c0.554-0.233,31.942-14.313,35.613-13.102s8.246,12.424,8.246,12.424l-55.271,12.495
				C451.398,1012.314,455.749,1003.47,462.81,1000.497z"/>
			<path fill="#2A4E96" d="M598.573,1094.561c-5.98-36.877-31.23-64.478-42.034-74.822c-7.255-10.914-49.87-19.919-49.87-19.919
				s-35.304,7.981-55.271,12.495c0,0-31.151,3.381-48.719,32.437c-10.864,17.969-41.98,59.069-62.415,60.347
				c-20.435,1.277-84.613,13.729-84.613,13.729v15.786l97.843,2.684c1.198,0.033,2.384-0.059,3.562-0.281
				c8.42-1.589,44.509-8.761,62.457-18.102c2.866,46.219,6.252,116.794,22.394,128.002c17.074,11.854,137.141,13.439,149.855-4.629
				c6.507-9.246-1.471-63.996-11.44-116.789C592.713,1119.604,601.081,1110.022,598.573,1094.561z"/>
			<path fill="#EAA16E" d="M487.662,976.651l-1.479,0.919c0,0-13.652,9.83-26.974,14.24c0.058-4.857,0.107-8.377,0.107-8.377
				l7.458-5.1L487.662,976.651z"/>
			<path fill="#FFB27D" d="M449.15,983.687c0,0,44.636,5.281,47.497-22.567c2.861-27.848,10.548-45.921-17.83-50.47
				c-28.378-4.549-35.016,5.508-38.231,14.57S437.613,981.596,449.15,983.687z"/>
			<path fill="#163560" d="M441.768,922.367c0,0,8.426,30.211,14.528,27.691s11.678-4.583,12.478,4.849
				c0.799,9.432-6.013,21.768,13.868,19.749c19.88-2.018,38.593-57.754,31.431-66.309
				C493.406,883.667,413.06,892.912,441.768,922.367z"/>
		</g>
		<g>
			<path fill="#77A4E5" d="M410.155,1261.76h220.793c8.386,0,15.184-6.798,15.184-15.184v-9.873H410.155V1261.76z"/>
			<path fill="#F99746" d="M383.697,1261.76h167.039c6.201,0,11.227-5.026,11.227-11.227v-2.604c0-6.2-5.026-11.227-11.227-11.227
				H383.697c-6.201,0-11.227,5.026-11.227,11.227v2.604C372.47,1256.733,377.496,1261.76,383.697,1261.76z"/>
			<g>
				<polygon fill="#2B478B" points="522.76,1442.988 537.002,1442.988 540.998,1261.76 519.242,1261.76 				"/>
				<polygon fill="#2B478B" points="460.865,1442.988 599.375,1442.988 599.375,1430.478 528.779,1424.111 460.865,1430.478 				"/>
				<circle fill="#2B478B" cx="601.437" cy="1441.024" r="11.394"/>
				<circle fill="#2B478B" cx="462.927" cy="1441.024" r="11.393"/>
				<path fill="#2B478B" d="M465.83,1273.649H594.41c6.566,0,11.89-5.323,11.89-11.89l0,0H453.94l0,0
					C453.94,1268.326,459.263,1273.649,465.83,1273.649z"/>
			</g>
			<path fill="#F99746" d="M624.32,1261.76c5.988,0,10.841-4.854,10.841-10.842v-166.88c0-31.271-20.445-56.622-45.666-56.622
				H486.229c-25.22,0-45.666,25.351-45.666,56.622v177.722H624.32z"/>
			<path fill="#CC6A27" d="M626.36,1261.76c10.92,0,19.772-8.853,19.772-19.772v-157.949c0-31.271-20.445-56.622-45.666-56.622
				H497.2c-25.221,0-45.666,25.351-45.666,56.622v177.722H626.36z"/>
		</g>
	</g>
	<g>
		<rect x="2588.251" y="1330.52" fill="#7F9EF4" width="145.742" height="120.174"/>
		<rect x="2661.122" y="1330.52" fill="#AEC3FF" width="145.742" height="120.174"/>
		<polygon fill="#5D86E2" points="2588.336,1420.217 2611.431,1420.217 2609.396,1413.719 2611.431,1409.075 2588.336,1409.075 		
			"/>
		<polygon fill="#7F9EF4" points="2661.122,1367.71 2684.217,1367.71 2682.183,1361.211 2684.217,1356.568 2661.122,1356.568 		"/>
		<polygon fill="#5D86E2" points="2661.122,1356.568 2638.028,1356.568 2640.062,1363.066 2638.028,1367.71 2661.122,1367.71 		"/>
		<polygon fill="#7F9EF4" points="2806.868,1421.507 2783.773,1421.507 2785.808,1428.006 2783.773,1432.648 2806.868,1432.648 		
			"/>
		<rect x="2755.383" y="1338.668" fill="#FFFFFF" width="41.939" height="16.316"/>
	</g>
	<g>
		<rect x="2390.755" y="1330.398" fill="#7F9EF4" width="146.035" height="120.416"/>
		<rect x="2463.772" y="1330.398" fill="#D4E4F8" width="146.035" height="120.416"/>
		<polygon fill="#2A4E96" points="2390.84,1420.276 2413.981,1420.276 2411.942,1413.765 2413.981,1409.112 2390.84,1409.112 		"/>
		<polygon fill="#618DC1" points="2463.772,1367.664 2486.913,1367.664 2484.875,1361.152 2486.913,1356.5 2463.772,1356.5 		"/>
		<polygon fill="#2A4E96" points="2463.772,1356.5 2440.632,1356.5 2442.671,1363.011 2440.632,1367.664 2463.772,1367.664 		"/>
		<polygon fill="#618DC1" points="2609.811,1421.569 2586.671,1421.569 2588.709,1428.08 2586.671,1432.733 2609.811,1432.733 		"/>
		<rect x="2558.222" y="1338.563" fill="#FFFFFF" width="42.024" height="16.349"/>
	</g>
	<g>
		<rect x="2466.425" y="1217.613" fill="#ED823A" width="136.923" height="112.902"/>
		<rect x="2534.886" y="1217.613" fill="#FF9E55" width="136.923" height="112.902"/>
		<polygon fill="#DD732C" points="2466.505,1301.883 2488.201,1301.883 2486.29,1295.777 2488.201,1291.415 2466.505,1291.415 		"/>
		<polygon fill="#FFB27D" points="2534.886,1252.553 2556.583,1252.553 2554.672,1246.447 2556.583,1242.086 2534.886,1242.086 		
			"/>
		<polygon fill="#DD732C" points="2534.886,1242.086 2513.189,1242.086 2515.101,1248.19 2513.189,1252.553 2534.886,1252.553 		"/>
		<polygon fill="#FFB27D" points="2671.813,1303.095 2650.115,1303.095 2652.026,1309.2 2650.115,1313.563 2671.813,1313.563 		"/>
		<rect x="2623.442" y="1225.269" fill="#FFFFFF" width="39.402" height="15.329"/>
	</g>
	<g>
		<g>
			<rect x="819.007" y="853.777" fill="#AEC3FF" width="6.084" height="6.085"/>
			<rect x="834.808" y="853.777" fill="#AEC3FF" width="6.084" height="6.085"/>
			<rect x="850.607" y="853.777" fill="#AEC3FF" width="6.085" height="6.085"/>
		</g>
		<g>
			<rect x="819.007" y="867.332" fill="#AEC3FF" width="6.084" height="6.085"/>
			<rect x="834.808" y="867.332" fill="#AEC3FF" width="6.084" height="6.085"/>
			<rect x="850.607" y="867.332" fill="#AEC3FF" width="6.085" height="6.085"/>
		</g>
		<g>
			<rect x="819.007" y="882.351" fill="#AEC3FF" width="6.084" height="6.084"/>
			<rect x="834.808" y="882.351" fill="#AEC3FF" width="6.084" height="6.084"/>
			<rect x="850.607" y="882.351" fill="#AEC3FF" width="6.085" height="6.084"/>
		</g>
	</g>
	<g>
		<g>
			<path fill="#233862" d="M882.402,1020.491l9.855-1.457c1.089-0.161,1.556-1.281,1.104-2.653l-9.595-29.206
				c-0.575-1.75-2.372-3.163-3.761-2.957l-9.855,1.457c-1.089,0.161-1.556,1.281-1.105,2.653l9.595,29.205
				C879.216,1019.284,881.013,1020.697,882.402,1020.491z"/>
			<path fill="#192E4F" d="M885.892,1019.976l9.855-1.458c1.089-0.161,1.555-1.281,1.104-2.653l-9.595-29.205
				c-0.575-1.751-2.372-3.163-3.761-2.958l-9.855,1.458c-1.089,0.161-1.555,1.28-1.104,2.653l9.595,29.205
				C882.706,1018.768,884.503,1020.181,885.892,1019.976z"/>
			<path fill="#192E4F" d="M876.379,990.49L876.379,990.49c0.287-0.043,0.431-0.379,0.32-0.747l-7.79-25.827
				c-0.111-0.368-0.437-0.635-0.724-0.593l0,0c-0.287,0.043-0.431,0.379-0.32,0.747l7.79,25.827
				C875.767,990.266,876.092,990.532,876.379,990.49z"/>
		</g>
		<path fill="#FFB27D" d="M873.777,892.439c0,0-7.116-12.106-12.762-16.592c-5.646-4.486-20.56-5.737-21.139-4.589
			c-1.791,3.553,5.912,8.677,7.514,11.938c1.602,3.262,0.915,7.955,8.504,11.796c7.836,3.966,12.383,6.569,12.383,6.569
			L873.777,892.439z"/>
		<path fill="#233862" d="M867.764,890.79c3.658-5.693,4.752-5.988,4.752-5.988s60.506,24.134,66.281,26.149
			c5.775,2.015,92.102,7.09,92.102,7.09l26.053,57.263c0,0-115.042-26.237-129.572-31.63c-24.013-8.911-62.53-43.815-62.53-43.815
			S864.891,895.262,867.764,890.79z"/>
		<path fill="#163560" d="M1018.079,1426.202c0,0-1.317,21.239-5.262,26.234h-60.692c0.384-2.118,2.102-7.347,9.69-8.672
			c9.59-1.668,25.643-8.406,31.447-21.081C999.375,1409.35,1018.079,1426.202,1018.079,1426.202z"/>
		<path fill="#163560" d="M1125.782,1423.24c0,0,3.783,27.589-1.413,28.065c-0.691,0.063-23.083,0.052-31.846,0
			c-10.914-0.063-28.344,0.068-28.344,0.068c-2.255,0.094-3.732-2.349-2.584-4.291c1.26-2.132,3.663-4.408,8.245-5.29
			c9.558-1.84,25.486-8.859,31.07-21.633C1106.786,1406.722,1125.782,1423.24,1125.782,1423.24z"/>
		<path fill="#ED823A" d="M989.542,1143.538c0,0,15.261,53.4,58.998,146.131c43.738,92.73,47.113,134.989,47.113,134.989
			l30.129-1.418c0,0-2.833-110.374-23.492-157.17c-20.66-46.797-24.87-174.852-24.87-174.852L989.542,1143.538z"/>
		<path fill="#FF9E55" d="M965.042,1097.593c0,0-1.215,82.687,13.091,184.212c14.307,101.524,9.457,144.62,9.457,144.62l34.265,1.14
			c0,0,20.477-101.563,14.606-152.379c-5.871-50.815,28.041-174.37,28.041-174.37L965.042,1097.593z"/>
		<path fill="#FFB27D" d="M1032.652,904.094l-16.161,11.97l-23.356-4.917c0.323-2.13,1.865-10.957,3.27-18.953
			c0.084-0.472,0.169-0.943,0.249-1.404c1.203-6.803,2.241-12.647,2.241-12.647l21.814-10.873l8.133-4.054
			c-0.021,0.144-0.63,7.551-0.715,8.632C1026.601,891.049,1032.652,904.094,1032.652,904.094z"/>
		<path fill="#163560" d="M994.77,898.055c0.512-0.216,31.772-9.44,35.168-8.318c3.396,1.121,5.406,7.691,5.406,7.691
			l-48.262,13.747C987.082,911.175,988.237,900.805,994.77,898.055z"/>
		<path fill="#2A4E96" d="M1078.944,1107.8c-5.29,24.17-115.762-51.673-114.291-66.423c0.162-1.62,0.324-3.253,0.486-4.872
			c2.038-20.54,3.995-40.634,4.129-53.751c0.108-11.377,1.673-23.01,3.765-33.576c1.917-9.758,4.278-18.61,6.329-25.506
			c1.444-4.858,4.144-9.137,7.72-12.497c2.537-2.389,5.52-4.305,8.812-5.614c0.891-0.377,1.809-0.688,2.74-0.958
			c13.306-3.859,31.714-8.637,36.707-7.179c13.522,3.98,23.563,27.772,30.674,58.109
			C1079.321,1012.321,1082.398,1092.051,1078.944,1107.8z"/>
		<path fill="#FCA56B" d="M1026.49,872.186c-4.79,9.167-22.641,17.094-30.085,20.008c0.084-0.472,0.169-0.943,0.249-1.404
			c1.203-6.803,2.241-12.647,2.241-12.647l21.814-10.873C1025.531,867.194,1028.466,868.413,1026.49,872.186z"/>
		<path fill="#FFB27D" d="M988.293,876.864c0,0,39.356,12.277,46.624-12.35c7.268-24.626,17.243-39.627-7.578-48.507
			s-32.498-0.93-36.923,6.699C985.991,830.337,978.244,873.036,988.293,876.864z"/>
		<path fill="#163560" d="M991.962,820.335c0,0,2.51,28.657,8.437,27.413s11.301-2.166,10.434,6.473
			c-0.868,8.638-9.086,18.613,9.179,20.142c18.264,1.528,44.521-45.575,39.503-54.493
			C1045.037,794.137,971.038,788.943,991.962,820.335z"/>
		<path fill="#233862" d="M967.986,1097.593c10.941,3.954-0.189-10.872,0-13.963c0.85-13.59-4.48-30.769-2.848-47.125l66.819-39.94
			C1031.958,996.564,1047.811,1096.958,967.986,1097.593z"/>
		<path fill="#FF9E55" d="M1078.944,1107.8c-28.524,52.865-33.067,73.053-33.067,73.053c-24.826-2.829-67.367-51.637-80.86-64.665
			c0,0-1.834-60.061-0.363-74.811l20.621-0.594c0,0,37.274,9.446,46.937-3.374s5.479-75.749,5.479-75.749l28.326-6.127
			C1079.321,1012.321,1086.6,1093.61,1078.944,1107.8z"/>
		<path fill="#FFB27D" d="M916.201,1006.668c0,0-8.146-1.589-10.267-3.331c-3.136-2.575-5.599-6.89-7.135-7.367
			c-2.575-0.801-8.9-8.749-9.43-9.311c-0.206-0.218-1.912,0.608-1.497,1.917c0.419,1.319,1.365,4.161,1.704,5.187
			c1.496,4.516,1.425,5.91-3.978,4.157c-0.696-0.226-13.181-4.187-14.462-1.355c-1.28,2.83,3.89,16.461,10.402,19.401
			c6.513,2.94,22.589,0.284,23.749,0.621C915.117,1019.444,916.201,1006.668,916.201,1006.668z"/>
		<path fill="#2A4E96" d="M909.565,1004.012c0,0,66.271,11.267,72.143,8.407c9.373-4.563-3.637-71.802-3.637-71.802
			s-0.559-15.238,17.241-18.832c15.468-3.123,30.391,8.463,30.391,8.463s13.573,12.145,11.838,25.614
			c-3.844,29.858-9.823,90.587-29.794,99.896c-25.758,12.007-100.294-33.294-100.294-33.294s-2.482-3.039-2.129-8.684
			C905.635,1008.803,909.565,1004.012,909.565,1004.012z"/>
		<path fill="#FF9E55" d="M1043.182,960.473l-5.493,1.188c0,0-11.606-50.242-50.607-50.485c2.537-2.389,5.52-4.305,8.812-5.614
			C1010.186,909.394,1035.003,921.606,1043.182,960.473z"/>
		<path fill="#FFB27D" d="M852.007,885.904c0,0-10.745-6.59-11.248-3.764c-0.25,1.406,4.526,5.263,6.447,6.909
			c1.92,1.646,6.818,4.879,6.818,4.879L852.007,885.904z"/>
	</g>
	<path fill="#2E3552" d="M2892.227,1461.491H3.871c-2.129,0-3.871-1.742-3.871-3.871v-2.948c0-2.129,1.742-3.871,3.871-3.871
		h2888.356c2.129,0,3.87,1.742,3.87,3.871v2.948C2896.097,1459.749,2894.355,1461.491,2892.227,1461.491z"/>
</g>
</svg>
