<?xml version="1.0" encoding="utf-8"?>
<!-- Generator: Adobe Illustrator 16.0.0, SVG Export Plug-In . SVG Version: 6.00 Build 0)  -->
<!DOCTYPE svg PUBLIC "-//W3C//DTD SVG 1.1//EN" "http://www.w3.org/Graphics/SVG/1.1/DTD/svg11.dtd">
<svg version="1.1" id="_x2018_лой_x5F_1" xmlns="http://www.w3.org/2000/svg" xmlns:xlink="http://www.w3.org/1999/xlink"
	 x="0px" y="0px" width="2926.12px" height="1488px" viewBox="0 0 2926.12 1488" enable-background="new 0 0 2926.12 1488"
	 xml:space="preserve">
<g>
	<path fill="#F4A640" d="M1362.167,1134.82l-231.254,92.874L844.651,514.903l195.476-78.504c19.76-7.936,42.212,1.649,50.148,21.41
		L1362.167,1134.82z"/>
	<g>
		
			<rect x="887.953" y="520.128" transform="matrix(0.9846 -0.1746 0.1746 0.9846 -128.8909 207.0856)" fill="#ADCFD8" width="449.694" height="632.271"/>
		
			<rect x="968.289" y="586.783" transform="matrix(0.9846 -0.1746 0.1746 0.9846 -86.4119 195.5883)" fill="#55769F" width="200.816" height="4.508"/>
		
			<rect x="924.107" y="575.527" transform="matrix(0.9846 -0.1746 0.1746 0.9846 -84.4771 195.0656)" fill="#55769F" width="285.188" height="4.508"/>
		
			<rect x="903.96" y="633.395" transform="matrix(0.9846 -0.1746 0.1746 0.9846 -94.4224 197.7494)" fill="#55769F" width="346" height="4.509"/>
		
			<rect x="907.746" y="654.746" transform="matrix(0.9846 -0.1746 0.1746 0.9846 -98.0916 198.7388)" fill="#55769F" width="345.998" height="4.508"/>
		
			<rect x="915.315" y="697.447" transform="matrix(0.9846 -0.1746 0.1746 0.9846 -105.4286 200.7147)" fill="#55769F" width="346" height="4.509"/>
		
			<rect x="919.101" y="718.799" transform="matrix(0.9846 -0.1746 0.1746 0.9846 -109.0963 201.7004)" fill="#55769F" width="345.999" height="4.508"/>
		
			<rect x="922.886" y="740.149" transform="matrix(0.9846 -0.1746 0.1746 0.9846 -112.765 202.6889)" fill="#55769F" width="345.999" height="4.508"/>
		
			<rect x="939.533" y="834.058" transform="matrix(0.9846 -0.1746 0.1746 0.9846 -128.9014 207.0362)" fill="#55769F" width="345.999" height="4.508"/>
		
			<rect x="943.458" y="856.197" transform="matrix(0.9846 -0.1746 0.1746 0.9846 -132.7078 208.0652)" fill="#55769F" width="345.999" height="4.509"/>
		
			<rect x="947.383" y="878.337" transform="matrix(0.9846 -0.1746 0.1746 0.9846 -136.5103 209.0865)" fill="#55769F" width="345.999" height="4.509"/>
		
			<rect x="951.308" y="900.476" transform="matrix(0.9846 -0.1746 0.1746 0.9846 -140.3186 210.1191)" fill="#55769F" width="345.998" height="4.51"/>
		
			<rect x="955.233" y="922.616" transform="matrix(0.9846 -0.1746 0.1746 0.9846 -144.1206 211.1397)" fill="#55769F" width="346" height="4.51"/>
		
			<rect x="959.157" y="944.755" transform="matrix(0.9846 -0.1746 0.1746 0.9846 -147.925 212.1647)" fill="#55769F" width="346" height="4.51"/>
		
			<rect x="963.083" y="966.896" transform="matrix(0.9846 -0.1746 0.1746 0.9846 -151.7273 213.1862)" fill="#55769F" width="345.999" height="4.509"/>
	</g>
	<g>
		
			<rect x="853.367" y="517.003" transform="matrix(0.9671 -0.2545 0.2545 0.9671 -176.5342 301.8452)" fill="#DAEEF7" width="449.693" height="632.271"/>
		
			<rect x="913.629" y="588.093" transform="matrix(0.9671 -0.2545 0.2545 0.9671 -116.8566 277.521)" fill="#55769F" width="200.816" height="4.508"/>
		
			<rect x="868.534" y="577.037" transform="matrix(0.9671 -0.2545 0.2545 0.9671 -114.1382 276.4145)" fill="#55769F" width="285.189" height="4.508"/>
		
			<rect x="853.086" y="633.873" transform="matrix(0.9671 -0.2545 0.2545 0.9671 -128.1113 282.0948)" fill="#55769F" width="345.999" height="4.509"/>
		
			<rect x="858.605" y="654.842" transform="matrix(0.9671 -0.2545 0.2545 0.9671 -133.2654 284.1862)" fill="#55769F" width="345.999" height="4.509"/>
		
			<rect x="869.642" y="696.783" transform="matrix(0.9671 -0.2545 0.2545 0.9671 -143.5758 288.3763)" fill="#55769F" width="345.999" height="4.507"/>
		
			<rect x="875.16" y="717.752" transform="matrix(0.9671 -0.2545 0.2545 0.9671 -148.7314 290.4726)" fill="#55769F" width="345.999" height="4.508"/>
		
			<rect x="880.679" y="738.722" transform="matrix(0.9671 -0.2545 0.2545 0.9671 -153.8862 292.5667)" fill="#55769F" width="345.998" height="4.508"/>
		
			<rect x="904.952" y="830.953" transform="matrix(0.9671 -0.2545 0.2545 0.9671 -176.5651 301.7921)" fill="#55769F" width="345.999" height="4.509"/>
		
			<rect x="910.675" y="852.698" transform="matrix(0.9671 -0.2545 0.2545 0.9671 -181.9063 303.9536)" fill="#55769F" width="345.999" height="4.509"/>
		
			<rect x="916.397" y="874.442" transform="matrix(0.9671 -0.2545 0.2545 0.9671 -187.2532 306.1293)" fill="#55769F" width="345.999" height="4.509"/>
		
			<rect x="922.12" y="896.186" transform="matrix(0.9671 -0.2545 0.2545 0.9671 -192.5992 308.3024)" fill="#55769F" width="345.999" height="4.51"/>
		
			<rect x="927.842" y="917.931" transform="matrix(0.9671 -0.2545 0.2545 0.9671 -197.9447 310.4744)" fill="#55769F" width="345.999" height="4.509"/>
		
			<rect x="933.564" y="939.676" transform="matrix(0.9671 -0.2545 0.2545 0.9671 -203.2916 312.6495)" fill="#55769F" width="346" height="4.509"/>
		
			<rect x="939.287" y="961.42" transform="matrix(0.9671 -0.2545 0.2545 0.9671 -208.6339 314.8147)" fill="#55769F" width="346" height="4.509"/>
	</g>
	<path fill="#FEB546" d="M1274.422,1170.061l-465.569,186.976L537.312,680.9l391.222-241.337
		c21.987-13.563,50.89-4.047,60.518,19.925L1274.422,1170.061z"/>
</g>
<g>
	<path fill="#FF5B7E" d="M658.611,1247.619l-66.416-1.203c-23.058-41.791-39.977-78.128-39.977-78.128
		c75.012-17.29,138.318-10.191,191.062,10.083l29.064,70.604l6.222-54.363c130.714,70.536,184.57,219.859,184.57,219.859
		s-231.01-24.606-279.983-47.381c-18.91-8.794-42.737-40.437-64.865-75.971C635.993,1274.264,658.611,1247.619,658.611,1247.619z"/>
	<path fill="#E03268" d="M552.218,1168.288c0,0,296.588,124.811,410.918,246.183c0,0-231.01-24.606-279.983-47.381
		c-18.91-8.794-42.737-40.437-64.865-75.971c17.705-16.855,40.323-43.5,40.323-43.5l-66.416-1.203
		C569.138,1204.625,552.218,1168.288,552.218,1168.288z"/>
	<path fill="#FF5B7E" d="M561.682,1367.771c39.937-24.319,80.225-37.332,119.216-42.523c11.426,14.21,25.456,30.919,25.456,30.919
		l1.48-33.31c149.597-6.812,273.557,93.421,273.557,93.421c-86.645,54.611-160.555,69.669-221.099,64.79
		c-3.586-11.655-8.665-29.04-8.665-29.04l-10.695,26.761c-29.023-4.535-54.634-13.588-76.751-24.655
		c5.665-13.881,11.631-29.749,11.631-29.749l-32.243,18.314C589.54,1409.666,561.682,1367.771,561.682,1367.771z"/>
	<path fill="#E03268" d="M760.292,1481.068c-3.586-11.655-8.665-29.04-8.665-29.04l-10.695,26.761
		c-29.023-4.535-54.634-13.588-76.751-24.655c5.665-13.881,11.631-29.749,11.631-29.749l-32.243,18.314
		c-54.029-33.033-81.888-74.928-81.888-74.928c174.302-20.136,419.709,48.507,419.709,48.507
		C894.746,1470.89,820.836,1485.947,760.292,1481.068z"/>
</g>
<path fill="#02CCC0" d="M1434.573,469.138l53.539-39.32c-5.295-47.435-12.451-86.874-12.451-86.874
	c-71.234,29.179-118.832,71.518-150.2,118.518l17.021,74.432l-36.46-40.803c-66.026,133.05-23.813,286.073-23.813,286.073
	s174.438-153.437,201.283-200.303c10.366-18.096,11.558-57.688,9.117-99.478C1468.421,477.838,1434.573,469.138,1434.573,469.138z"
	/>
<path fill="#06BFAD" d="M1475.661,342.944c0,0-170.148,273.114-193.453,438.22c0,0,174.438-153.437,201.283-200.303
	c10.366-18.096,11.558-57.688,9.117-99.478c-24.188-3.545-58.035-12.246-58.035-12.246l53.539-39.32
	C1482.817,382.383,1475.661,342.944,1475.661,342.944z"/>
<path fill="#02CCC0" d="M1583.077,511.303c-46.648,3.194-87.059,15.823-121.895,34.089c-1.13,18.199-2.94,39.942-2.94,39.942
	l-20.436-26.346c-126.094,80.787-169.462,234.188-169.462,234.188c102.277-5.417,171.323-35.783,217.944-74.714
	c-3.798-11.587-9.686-28.715-9.686-28.715l24.181,15.678c21.082-20.455,36.77-42.631,48.443-64.434
	c-12.64-8.065-26.67-17.579-26.67-17.579l36.901-3.655C1584.512,561.595,1583.077,511.303,1583.077,511.303z"/>
<path fill="#06BFAD" d="M1486.289,718.462c-3.798-11.587-9.686-28.715-9.686-28.715l24.181,15.678
	c21.082-20.455,36.77-42.631,48.443-64.434c-12.64-8.065-26.67-17.579-26.67-17.579l36.901-3.655
	c25.053-58.162,23.618-108.454,23.618-108.454c-153.957,84.168-314.732,281.873-314.732,281.873
	C1370.622,787.759,1439.668,757.393,1486.289,718.462z"/>
<g>
	<path fill="#E03268" d="M2011.065,705.864h31.837c-5.208-3.562-11.724-5.693-18.813-5.693h-797.583
		c-41.729,0-75.557,29.987-75.557,66.977v42.542c0,36.989,33.828,66.978,75.557,66.978l788.663-0.238L2011.065,705.864z"/>
	<path fill="#FEB546" d="M1217.854,809.689v-42.542c0-36.99,33.827-66.977,75.557-66.977h-17.127
		c-41.729,0-75.557,29.987-75.557,66.977v42.542c0,36.989,33.827,66.978,75.557,66.978l16.9-0.006
		C1251.561,876.552,1217.854,846.612,1217.854,809.689z"/>
	<path fill="#FEB546" d="M1404.649,809.689v-42.542c0-36.99,33.827-66.977,75.558-66.977h-17.128
		c-41.729,0-75.558,29.987-75.558,66.977v42.542c0,36.989,33.828,66.978,75.558,66.978l16.9-0.006
		C1438.356,876.552,1404.649,846.612,1404.649,809.689z"/>
	<path fill="#FF5B7E" d="M1558.261,700.329c-39.906,0-72.256,28.676-72.256,64.051v48.077c0,35.374,32.35,64.051,72.256,64.051
		h496.516v-10.754h-2.051l-126.225-10.597l-25.514-88.721c0,0,49.241-49.027,52.453-50.292c3.211-1.265,99.285-5.1,99.285-5.1
		l2.051-0.019v-10.695H1558.261z"/>
	<path fill="#DAEEF7" d="M2022.574,788.102c0-51.873,30.239-77.019,30.239-77.019h-484.383c-36.654,0-66.368,26.341-66.368,58.832
		v37.007c0,32.492,29.714,58.832,66.368,58.832h484.383C2052.813,865.754,2022.574,853.418,2022.574,788.102z"/>
	<path fill="#DAEEF7" d="M1502.063,769.915v37.007c0,4.865,0.679,9.589,1.935,14.109c16.337-35.432,47.647-69.559,107.252-80.532
		c139.16-25.62,441.564-29.416,441.564-29.416h-484.383C1531.776,711.083,1502.063,737.424,1502.063,769.915z"/>
</g>
<g>
	<path fill="#284C7A" d="M1997.935,1058.639h36.033c-5.896-4.459-13.271-7.127-21.293-7.127h-902.71
		c-47.229,0-85.516,37.535-85.516,83.835v53.251c0,46.301,38.286,83.835,85.516,83.835l892.613-0.298L1997.935,1058.639z"/>
	<path fill="#55769F" d="M1485.445,1051.71c-45.165,0-81.779,35.895-81.779,80.172v60.18c0,44.277,36.614,80.174,81.779,80.174
		h561.962v-13.462h-2.323l-142.863-13.264l-28.875-111.054c0,0,55.731-61.366,59.366-62.951
		c3.635-1.583,112.372-6.383,112.372-6.383l2.323-0.025v-13.387H1485.445z"/>
	<path fill="#DAEEF7" d="M2010.958,1161.575c0-64.929,34.226-96.404,34.226-96.404h-548.228c-41.486,0-75.117,32.97-75.117,73.64
		v46.323c0,40.669,33.631,73.64,75.117,73.64h548.228C2045.184,1258.773,2010.958,1243.332,2010.958,1161.575z"/>
	<path fill="#DAEEF7" d="M1421.839,1138.811v46.323c0,6.088,0.77,12,2.189,17.661c18.49-44.352,53.93-87.068,121.389-100.804
		c157.502-32.069,499.767-36.82,499.767-36.82h-548.228C1455.47,1065.171,1421.839,1098.141,1421.839,1138.811z"/>
</g>
<g>
	<path fill="#02CCC0" d="M994.697,881.871h-36.048c5.897-3.538,13.276-5.655,21.302-5.655h903.063
		c47.248,0,85.55,29.783,85.55,66.521v42.254c0,36.738-38.302,66.521-85.55,66.521l-892.963-0.235L994.697,881.871z"/>
	<path fill="#06BFAD" d="M1507.385,876.373c45.185,0,81.813,28.481,81.813,63.616v47.75c0,35.134-36.629,63.615-81.813,63.615
		h-562.18v-10.681h2.324l142.918-10.525l28.886-88.119c0,0-55.753-48.692-59.389-49.947c-3.636-1.257-112.416-5.066-112.416-5.066
		l-2.324-0.02v-10.623H1507.385z"/>
	<path fill="#DAEEF7" d="M981.668,963.55c0-51.521-34.24-76.495-34.24-76.495h548.443c41.502,0,75.146,26.16,75.146,58.433v36.755
		c0,32.271-33.645,58.432-75.146,58.432H947.428C947.428,1040.674,981.668,1028.422,981.668,963.55z"/>
	<path fill="#DAEEF7" d="M1571.018,945.487v36.755c0,4.831-0.769,9.522-2.192,14.015c-18.497-35.193-53.949-69.088-121.435-79.986
		c-157.564-25.445-499.963-29.216-499.963-29.216h548.443C1537.373,887.055,1571.018,913.215,1571.018,945.487z"/>
	<path opacity="0.5" fill="#55769F" d="M1803.126,984.991v-42.254c0-36.738-38.301-66.521-85.55-66.521h85.755
		c47.247,0,85.549,29.783,85.549,66.521v42.254c0,36.738-38.302,66.521-85.549,66.521l-84.619-0.023
		C1765.433,1051.015,1803.126,1021.433,1803.126,984.991z"/>
</g>
<path fill="#FEB546" d="M926.518,1279.2h-38.86c6.358-3.952,14.312-6.318,22.964-6.318h973.521
	c50.934,0,92.225,33.276,92.225,74.324v47.21c0,41.047-41.291,74.323-92.225,74.323l-962.633-0.264L926.518,1279.2z"/>
<path fill="#F4A640" d="M1479.208,1273.058c48.709,0,88.195,31.822,88.195,71.077v53.353c0,39.254-39.486,71.076-88.195,71.076
	H873.166v-11.934h2.505l154.069-11.76l31.14-98.453c0,0-60.103-54.406-64.023-55.81c-3.919-1.403-121.186-5.659-121.186-5.659
	l-2.505-0.022v-11.868H1479.208z"/>
<path fill="#DAEEF7" d="M912.473,1370.46c0-57.563-36.911-85.468-36.911-85.468h591.233c44.74,0,81.01,29.229,81.01,65.284v41.067
	c0,36.057-36.27,65.286-81.01,65.286H875.562C875.562,1456.63,912.473,1442.941,912.473,1370.46z"/>
<path fill="#DAEEF7" d="M1547.805,1350.276v41.067c0,5.398-0.829,10.641-2.362,15.658c-19.94-39.318-58.159-77.19-130.911-89.367
	c-169.857-28.431-538.969-32.643-538.969-32.643h591.233C1511.535,1284.992,1547.805,1314.221,1547.805,1350.276z"/>
<path fill="#C4DFE8" d="M2280.523,1489H638.648c-4.851,0-8.785-3.934-8.785-8.785v-4.042c0-4.852,3.934-8.785,8.785-8.785h1641.875
	c4.853,0,8.786,3.934,8.786,8.785v4.042C2289.31,1485.066,2285.376,1489,2280.523,1489z"/>
<polygon fill="#F4A640" points="619.799,755.55 936.772,574.251 979.614,659.115 655.278,830.704 "/>
<path fill="#02CCC0" d="M1217.122,239.128c0,0-2.501,24.653-21.955,26.359c19.454,1.705,21.955,26.357,21.955,26.357
	s2.5-24.652,21.953-26.357C1219.622,263.781,1217.122,239.128,1217.122,239.128z"/>
<path fill="#FEB546" d="M881.006,49.748c0,0-3.33,32.837-29.243,35.109c25.913,2.271,29.243,35.108,29.243,35.108
	s3.33-32.836,29.242-35.108C884.336,82.584,881.006,49.748,881.006,49.748z"/>
<path fill="#FF5B7E" d="M745.249,343.44c0,0-2.236,22.05-19.636,23.575c17.4,1.525,19.636,23.575,19.636,23.575
	s2.236-22.05,19.636-23.575C747.485,365.49,745.249,343.44,745.249,343.44z"/>
<path fill="#FF5B7E" d="M2286.993,869.524c0,0-3.33,32.837-29.242,35.108c25.912,2.272,29.242,35.108,29.242,35.108
	s3.331-32.836,29.242-35.108C2290.324,902.361,2286.993,869.524,2286.993,869.524z"/>
<path fill="#02CCC0" d="M449.583,580.399c0,0-3.33,32.837-29.242,35.109c25.913,2.271,29.242,35.108,29.242,35.108
	s3.331-32.837,29.243-35.108C452.914,613.237,449.583,580.399,449.583,580.399z"/>
<path fill="#02CCC0" d="M2356.21,545.292c0,0-3.332,32.837-29.242,35.107c25.91,2.272,29.242,35.108,29.242,35.108
	s3.33-32.836,29.243-35.108C2359.54,578.129,2356.21,545.292,2356.21,545.292z"/>
<path fill="#FF5B7E" d="M1547.805,29.55c0,0-3.331,32.836-29.244,35.109c25.913,2.271,29.244,35.107,29.244,35.107
	s3.329-32.836,29.242-35.107C1551.134,62.386,1547.805,29.55,1547.805,29.55z"/>
<path fill="#FEB546" d="M2102.933,303.779c0,0-1.811,20.733-15.894,22.168c14.083,1.434,15.894,22.167,15.894,22.167
	s1.811-20.733,15.893-22.167C2104.743,324.513,2102.933,303.779,2102.933,303.779z"/>
<g>
	<path fill="#FFC0BB" d="M965.877,1314.262l-43.763,2.217l-5.536,129.819l-22.385,10.78l1.079,4.73l8.318,1.963
		c0,0,26.919-0.462,27.728-0.462s6.354-6.123,6.354-6.123l-0.834-1.066l4.472-3.038L965.877,1314.262z"/>
	<path fill="#FFC0BB" d="M1084.417,1457.078c0,0-21.856-10.983-22.397-10.78l4.952-132.194l-54.25,0.158l24.567,138.82l2.691,1.829
		c-0.671,2.305-1.208,4.304-1.333,4.933c-0.347,1.733,9.243,1.849,12.593,2.426c3.35,0.578,13.055,1.618,19.294,3.351
		c6.238,1.732,14.095-3.351,14.095-3.351L1084.417,1457.078z"/>
	<path fill="#FF5500" d="M1085.876,957.435c-6.316-16.427-12.461-9.921-23.863-29.783c-1.813-3.158-3.119-7.245-4.034-11.015
		c-2.733-11.263-8.652-21.554-17.423-29.128c-26.732-23.086-56.976-12.838-56.976-12.838s7.846,44.623,9.348,53.67
		c-6.683,9.09-13.417,18.372-13.417,18.372s-14.07,73.354,8.009,79.538c22.08,6.186,26.098-3.739,36.881-8.909
		c10.783-5.172,21.308,8.944,37.417-0.878c12.307-7.503,6.057-26.212,12.564-29.723S1092.694,975.163,1085.876,957.435z"/>
	<path fill="#FF5500" d="M972.13,911.68c-0.391-0.173-10.514-5.88-19.993-11.234L1011,834.919c0,0-17.84-3.458-18.924-3.594
		c-1.085-0.134-26.663,7.828-26.663,7.828l-26.374,7.143c-20.124,73.441-45.187,86.738-45.197,86.746
		c-3.025,2.01-5.89,4.692-8.783,9.373c-9.987,16.158,0.118,26.273,5.862,30.932c5.744,4.656-3.867,21.881,6.834,31.537
		c14.009,12.64,26.968,0.72,36.605,7.801c9.637,7.08,11.745,17.576,34.589,15.594c22.843-1.983,22.62-76.674,22.62-76.674
		S972.872,912.007,972.13,911.68z"/>
	<path fill="#FF5B7E" d="M1072.056,1045.56c0,0,19.425,92.739,13.786,102.765c-5.64,10.026-79.581,13.159-79.581,13.159
		l-3.133-119.058l28.198-42.609L1072.056,1045.56z"/>
	<path fill="#07085B" d="M1048.606,1152.914l-13.817-37.855c0,0-45.475-16.563-48.363-16.766
		c-2.889-0.201-41.387,16.766-41.387,16.766s-11.769,23.821-14.066,28.099c-1.274,2.37,1.665,16.95,4.537,29.479l-16.31,0.767
		l-10.838,239.347c0,0,23.483,12.645,48.772,1.807l20.774-209.06l18.064-2.709l27.095,207.252c0,0,21.677,16.258,52.386,2.71
		l-20.351-230.648C1054.222,1172.131,1052.038,1162.317,1048.606,1152.914z"/>
	<path fill="#FFC0BB" d="M960.162,971.664c0,0,20.175-4.229,57.711-1.566c37.535,2.663-17.362,23.812-17.362,23.812
		s-19.266-0.627-20.095-0.783C979.587,992.969,960.162,971.664,960.162,971.664z"/>
	<rect x="974.575" y="950.463" fill="#FFC0BB" width="33.323" height="58.485"/>
	<path fill="#F99893" d="M1007.843,960.457v-19.945h-33.268v16.968C981.736,961.328,992.341,963.544,1007.843,960.457z"/>
	<path fill="#FFC0BB" d="M1054.521,885.354c-3.187-1.572-6.884-1.291-10.232,0.405c1.149-30.133-23.424-55.478-54.375-54.407
		c-30.951-1.07-55.524,24.274-54.375,54.407c-3.348-1.696-7.046-1.978-10.232-0.405c-6.113,3.016-8.013,11.654-4.244,19.296
		c3.769,7.642,11.78,11.392,17.894,8.376c0.849-0.419,1.607-0.955,2.29-1.572c3.503,24.911,24.284,43.585,48.667,43.238
		c24.383,0.347,45.165-18.327,48.668-43.238c0.682,0.617,1.44,1.153,2.29,1.572c6.113,3.016,14.124-0.734,17.893-8.376
		C1062.534,897.009,1060.635,888.37,1054.521,885.354z"/>
	<circle fill="#333333" cx="971.604" cy="896.715" r="4.578"/>
	<circle fill="#333333" cx="1011" cy="897.14" r="4.578"/>
	<path fill="#FF5500" d="M981.195,887.097c-2.29-0.795-4.467-1.418-6.641-1.801c-2.168-0.387-4.309-0.486-6.399-0.263
		c-2.079,0.249-4.172,0.677-6.175,1.576l-0.777,0.29c-0.258,0.102-0.491,0.254-0.748,0.367l-1.531,0.742
		c-1.027,0.516-1.981,1.17-3.121,1.679c0.612-1.031,1.309-2.047,2.116-2.972c0.896-0.816,1.72-1.792,2.813-2.413
		c2.033-1.479,4.558-2.307,7.095-2.588c2.553-0.271,5.153,0.13,7.464,1.073C977.587,883.756,979.697,885.156,981.195,887.097z"/>
	<path fill="#FF5500" d="M999.641,887.027c1.484-1.952,3.583-3.367,5.871-4.354c2.304-0.961,4.901-1.38,7.457-1.129
		c2.539,0.263,5.07,1.071,7.114,2.534c1.098,0.613,1.93,1.582,2.831,2.393c0.813,0.918,1.519,1.928,2.139,2.956
		c-1.144-0.502-2.103-1.148-3.134-1.656l-1.536-0.73c-0.258-0.111-0.491-0.263-0.75-0.362l-0.779-0.283
		c-2.01-0.885-4.106-1.297-6.187-1.53c-2.093-0.209-4.233-0.093-6.397,0.311C1004.099,885.575,1001.926,886.216,999.641,887.027z"/>
	<path fill="#F99893" d="M992.176,890.203c-0.226,2.402-0.059,4.811,0.392,7.194c0.228,1.197,0.55,2.377,1.011,3.553
		c0.484,1.164,1.073,2.342,2.138,3.356c1.218,0.939,1.747,1.222,2.094,2.072c0.358,0.748,0.199,1.696-0.185,2.603
		c-0.856,1.847-2.816,3.231-4.966,4.25c2.363-0.111,4.971-1.055,6.518-3.367c0.757-1.121,1.166-2.704,0.678-4.199
		c-0.501-1.543-1.389-2.087-2.352-2.854c-0.855-0.678-1.402-1.639-1.948-2.729c-0.511-0.979-0.859-2.071-1.271-3.145
		C993.541,894.754,992.89,892.497,992.176,890.203z"/>
	<path fill="#F99893" d="M977.172,918.899c1.261,0.872,2.57,1.661,3.935,2.334c1.35,0.699,2.741,1.311,4.169,1.805
		c2.851,0.988,5.829,1.601,8.823,1.605c2.994,0.019,5.965-0.6,8.758-1.719c2.78-1.16,5.356-2.819,7.748-4.74
		c-1.056,1.112-2.2,2.15-3.435,3.084c-1.233,0.938-2.589,1.705-3.98,2.408c-1.413,0.66-2.896,1.182-4.426,1.528
		c-1.533,0.328-3.1,0.496-4.667,0.507c-3.139-0.031-6.249-0.707-9.112-1.909C982.123,922.602,979.431,920.99,977.172,918.899z"/>
	<path fill="#02CCC0" d="M1056.032,983.354c-18.057-17.524-43.017-13.807-43.017-13.807c-2.79,2.789-5.587,4.896-8.352,6.474
		c-3.957,2.013-8.923,3.751-14.456,3.897c-0.098,0-0.196,0.006-0.294,0.004c-0.097,0.002-0.196-0.004-0.293-0.004
		c-5.534-0.146-10.5-1.885-14.457-3.897c-2.764-1.577-5.562-3.685-8.351-6.474c0,0-24.961-3.718-43.017,13.807
		c-18.056,17.525-36.112,56.183-36.112,56.183s22.836,20.821,44.609,23.478c0,0,10.622,48.857,12.746,52.044
		c0,0,10.96,5.147,26.895,7.839c5.799,1.102,11.498,1.56,16.965,1.586c0.338,0.005,0.677,0.004,1.016,0.007
		c0.339-0.003,0.679-0.002,1.015-0.007c5.468-0.026,11.167-0.484,16.966-1.586c15.935-2.691,26.895-7.839,26.895-7.839
		c2.125-3.187,12.746-52.044,12.746-52.044c21.773-2.656,44.609-23.478,44.609-23.478S1074.088,1000.88,1056.032,983.354z"/>
	<g>
		<path fill="#E03268" d="M991.86,1101.88c0,0,6.708-1.113,10.407,3.813l-0.258,12.687l-8.199,3.819c0,0-10.15-8.642-9.387-8.863
			C985.186,1113.114,991.86,1101.88,991.86,1101.88z"/>
		<polygon fill="#E03268" points="1012.732,1184.748 904.744,1215.989 894.279,1136.933 1002.267,1105.692 		"/>
		<polygon fill="#DAEEF7" points="895.827,1203.269 905.311,1211.276 1008.666,1181.651 999.38,1107.148 992.085,1104.09 		"/>
		<polygon fill="#DAEEF7" points="1008.666,1181.651 1001.297,1175.237 987.812,1160.427 988.631,1119.665 992.085,1104.09 
			999.413,1107.023 		"/>
		<polygon fill="#FF5B7E" points="1001.297,1175.237 893.309,1206.478 883.872,1133.12 991.86,1101.88 		"/>
	</g>
	<path fill="#DAEEF7" d="M948.303,1020.61c-2.504,3.049-4.79,6.224-6.89,9.502c-2.085,3.284-3.959,6.691-5.48,10.24
		c-1.532,3.542-2.698,7.237-3.358,11.035c-0.664,3.805-0.735,7.701-0.281,11.627c-1.213-3.762-1.573-7.834-1.153-11.819
		c0.389-3.999,1.531-7.895,3.09-11.575c1.609-3.663,3.617-7.137,5.994-10.323C942.592,1026.109,945.247,1023.124,948.303,1020.61z"
		/>
	<path fill="#FFC0BB" d="M925.897,1153.952c-19.014-32.189-10.214-71.355-2.697-93.008c-14.925-4.809-28.757-15.674-33.642-19.784
		c-30.352,68.523,21.049,127.157,21.049,127.157l0.101-0.095c0.979,2.21,1.693,4.183,1.693,4.183
		c12.119,21.905,12.647,21.555,13.517,21.245c0.871-0.311-1.528-10.728-0.456-10.7c1.071,0.028,8.72,12.58,9.281,11.4
		c0.56-1.18-5.091-13.625-4.268-13.837c0.823-0.211,8.028,12.01,9.613,10.956c1.585-1.054-6.757-14.177-5.157-14.5
		c1.6-0.324,9.807,13.336,11.097,12.142c1.085-1.003-7.721-16.507-10.552-21.415c-0.365-0.633,0.128-1.416,0.857-1.375
		c11.244,0.653,12.152,0.046,11.941-1.203C948.128,1164.231,934.624,1157.936,925.897,1153.952z"/>
	<path fill="#E03268" d="M1053.104,972.979c-23.301,83.884,4.827,108.633,4.943,109.278l-4.211,19.515
		c0,0-57.395-37.319-21.016-136.753c1.022-2.795,4.07-4.26,6.77-3.008l10.891,5.047
		C1052.719,968.096,1053.765,970.602,1053.104,972.979z"/>
	<path fill="#FFC0BB" d="M1103.985,1177.82c0,0-0.74-1.861-1.436-4.056c0.001-0.008,0.004-0.021,0.006-0.028h-0.01l-1.1-8.129
		c-0.683-18.438-3.742-83.822-13.812-122.297c-7.662,6.083-23.943,17.584-39.745,19.651c9.904,20.709,30.638,68.438,34.233,111.832
		c-3.652,8.273-8.577,19.725-8.154,20.402c0.636,1.019,1.662,0.878,9.224-6.649c0.491-0.489,1.333-0.243,1.472,0.436
		c1.078,5.259,4.575,21.784,5.976,21.814c1.665,0.036-1.1-14.808,0.237-15.583c1.338-0.774,3.67,13.771,5.456,13.521
		c1.786-0.248-0.785-13.44-0.068-13.809c0.716-0.367,4.53,12.009,5.668,12.492c1.139,0.484-1.325-13.222-0.583-13.914
		c0.743-0.693,5.588,8.2,6.399,7.873C1108.561,1201.051,1109.157,1200.968,1103.985,1177.82z"/>
	<path fill="#FF5500" d="M925.955,885.032c0,0-3.371-62.362,66.121-66.483c0,0-2.162,61.265-56.537,67.211l-4.192-8.145
		L925.955,885.032z"/>
	<path fill="#FF5500" d="M992.076,818.549c0,0,56.375-3.159,59.362,65.866c0,0-4.097-0.298-7.148,1.345
		c0,0-44.648-11.167-55.732-54.435L992.076,818.549z"/>
	<path fill="#07085B" d="M913.175,1461.815c-11.33,1.136-16.678-1.327-18.982-4.737l-7.676,5.011c-3.043,1.939-1.669,6.65,1.94,6.65
		h49.867c1.758,0,3.185-1.426,3.185-3.185v-13.473C938.302,1455.38,930.748,1460.054,913.175,1461.815z"/>
	<path fill="#07085B" d="M1065.435,1461.815c11.331,1.136,16.678-1.327,18.982-4.737l7.676,5.011c3.043,1.939,1.67,6.65-1.939,6.65
		h-49.868c-1.759,0-3.185-1.426-3.185-3.185v-13.473C1040.307,1455.38,1047.861,1460.054,1065.435,1461.815z"/>
</g>
<g>
	<g>
		<path fill="#DAEEF7" d="M2108.693,1015.385l57.622,4.624l-18.598,46.614l-29.087-2.333l-12.111,38.855
			c-2.952-1.347-5.125-2.371-5.562-2.662c-0.881-0.587-4.098-19.87-6.922-38.076L2108.693,1015.385z"/>
		<path fill="#E03268" d="M2141.577,1444.036v20.314c0,1.678,1.356,3.037,3.029,3.037h47.423c3.433,0,4.739-4.494,1.845-6.344
			l-26.604-17.008C2167.27,1444.036,2156.832,1451.687,2141.577,1444.036z"/>
		<path fill="#FFC0BB" d="M2048.481,583.028c-0.692,0.272-1.416-0.331-1.262-1.059c1.188-5.64,4.812-23.414,3.445-24.042
			c-1.625-0.747-5.252,15.055-6.9,15.246c-1.649,0.192,2.276-15.132,0.411-15.651c-1.866-0.519-4.977,13.574-5.841,13.629
			c-0.862,0.056,0.676-13.765-0.239-14.729c-0.914-0.963-4.351,13.591-5.378,13.956s-1.996-10.468-2.936-10.493
			s-1.561-0.198-6.368,24.814c0,0-0.283,9.167-1.907,11.317l3.609,7.366l11.188,0.372c0,0,24.307-21.993,24.106-23.33
			C2060.22,579.149,2059.149,578.848,2048.481,583.028z"/>
		<path fill="#FFC0BB" d="M2163.638,588.566c0.492,0.557,1.411,0.351,1.605-0.367c1.514-5.562,6.389-23.034,7.891-22.971
			c1.787,0.075-2.188,15.793-0.807,16.716c1.381,0.922,4.871-14.508,6.768-14.119c1.897,0.388-1.756,14.35-1.014,14.793
			s5.673-12.56,6.926-13.001c1.254-0.442-2.32,14.08-1.572,14.874c0.749,0.792,6.548-8.409,7.396-8.002
			c0.846,0.406,1.479,0.535-5.642,24.989c0,0-3.926,8.29-3.462,10.943l-6.568,4.912l-10.129-4.769c0,0-11.611-30.655-10.824-31.753
			C2154.956,579.763,2156.046,579.984,2163.638,588.566z"/>
		<polygon fill="#FFC0BB" points="2074.727,788.853 2074.902,831.615 2033.36,825.212 2040.291,777.127 		"/>
		<path opacity="0.6" fill="#FC8D84" d="M2037.101,799.262l3.19-22.135l34.473,15.78l0.019,8.44
			C2066.476,803.379,2050.931,805.197,2037.101,799.262z"/>
		<path fill="#E03268" d="M1999.667,1441.776v22.28c0,1.84-1.492,3.331-3.332,3.331h-52.166c-3.774,0-5.212-4.929-2.028-6.957
			l29.266-18.654C1971.406,1441.776,1982.888,1450.166,1999.667,1441.776z"/>
		<g>
			<g>
				<g>
					<path fill="#07085B" d="M1952.024,1063.26c0.105-4.767-12.299,9.282-12.064,5.479c4.869-79.111,159.439-12.779,159.439-12.779
						l37.73,27.688l42.6,366.652c0,0-23.125,6.693-38.339,1.219l-94.327-314.192l-11.602-4.463
						C2035.462,1132.863,1983.873,1096.87,1952.024,1063.26z"/>
				</g>
			</g>
		</g>
		<g>
			<g>
				<g>
					<path fill="#06BFAD" d="M1939.784,1071.967c-0.045,0.926-0.087,1.868-0.124,2.845
						C1939.697,1073.835,1939.739,1072.893,1939.784,1071.967z"/>
				</g>
				<g>
					<path fill="#06BFAD" d="M1939.657,1074.857c-0.037,0.991-0.072,2.011-0.104,3.051
						C1939.585,1076.868,1939.62,1075.849,1939.657,1074.857z"/>
				</g>
				<g>
					<path fill="#06BFAD" d="M1939.541,1078.311c-0.032,1.079-0.062,2.18-0.086,3.308
						C1939.479,1080.491,1939.509,1079.389,1939.541,1078.311z"/>
				</g>
				<g>
					<path fill="#06BFAD" d="M1939.96,1068.738c-0.053,0.854-0.102,1.746-0.146,2.651
						C1939.858,1070.484,1939.907,1069.593,1939.96,1068.738z"/>
				</g>
				<g>
					<path fill="#07085B" d="M1939.978,1050.766c31.849,33.61,95.484,82.098,95.484,82.098l11.602,4.463l-11.602-4.463
						l-35.863,317.437c0,0-25.561,4.869-40.165-3.042C1959.434,1447.258,1937.899,1145.096,1939.978,1050.766z"/>
				</g>
				<g>
					<path fill="#06BFAD" d="M2179.729,1450.3c0,0-9.96,2.884-21.106,3.317C2169.77,1453.184,2179.729,1450.3,2179.729,1450.3
						L2179.729,1450.3z"/>
				</g>
				<g>
					<path fill="#06BFAD" d="M2145.852,1452.753c1.026,0.208,2.073,0.38,3.131,0.513
						C2147.925,1453.133,2146.878,1452.961,2145.852,1452.753z"/>
				</g>
				<g>
					<path fill="#06BFAD" d="M2158.623,1453.617c-2.653,0.103-5.375,0.068-8.045-0.178
						C2153.248,1453.686,2155.97,1453.72,2158.623,1453.617z"/>
				</g>
			</g>
		</g>
		<path fill="#050645" d="M2137.13,1083.647l6.08,52.328c-16.088,6.227-55.299,12.883-84.844-51.746
			c-9.317-20.383-11.713-35.053-9.996-45.586c28.298,7.566,51.029,17.315,51.029,17.315L2137.13,1083.647z"/>
		<path fill="#DAEEF7" d="M1995.306,870.059c1.784,0,28.556-60.681,28.556-60.681c22.903,16.063,53.988,4.908,53.988,4.908
			s125.081,228.894,41.198,264.588c-83.885,35.695-163.007-7.732-163.007-7.732s-17.848-46.403-17.848-48.189
			C1938.193,1021.168,1993.521,870.059,1995.306,870.059z"/>
		<path fill="#55769F" d="M2158.312,613.056c0,0,5.418,108.597-4.76,128.501c-33.76,66.036-75.702,72.729-75.702,72.729
			s-14.427,230.976-2.528,286.303c0,0,39.562,12.197,97.863-15.17c0,0-44.618-179.069-42.238-201.677
			c0,0,71.389-63.655,73.77-138.615c2.379-74.96-17.253-141.591-17.253-141.591L2158.312,613.056z"/>
		<path fill="#55769F" d="M1965.856,1092.261c0,0,4.463-85.966,24.095-167.47s33.91-115.413,33.91-115.413
			c-26.325-29.002-21.952-55.219-19.633-89.237c2.677-39.264,41.05-117.793,41.05-117.793l-25.879-16.955
			c-124.04,149.026-55.327,267.713-55.327,267.713s-46.404,164.196-52.65,214.169
			C1911.422,1067.274,1936.111,1081.552,1965.856,1092.261z"/>
		<path fill="#FFFFFF" d="M2129.741,883.495c-1.492-1.058-3.26-2.675-4.986-4.741c-5.26-6.349-7.987-13.496-9.872-21.484
			c1.142,3.411,4.192,13.318,10.619,20.856c2.88,3.285,4.403,4.401,5.797,5.297c-0.225,0.205-0.353,0.319-0.353,0.319
			c-0.016,0.149-0.028,0.308-0.039,0.47c-1.649,0.342-4.549,0.443-9.43-2.213c-3.029-1.591-5.431-3.566-7.933-5.692
			c1.64,1.164,5.022,3.621,8.224,5.12C2123.996,882.522,2127.261,883.668,2129.741,883.495z"/>
		<path fill="#FFFFFF" d="M1965.021,852.554c2.125-1.348,3.968-3.277,5.666-5.215c5.264-6.172,8.15-13.483,10.619-20.856
			c-1.877,7.946-4.587,15.108-9.871,21.484c-1.723,2.061-3.468,3.663-4.986,4.741c1.162,0.079,2.561-0.141,3.49-0.406
			c1.534-0.387,3.04-0.952,4.482-1.662c2.978-1.397,5.922-3.487,8.224-5.12c-2.221,1.887-4.765,4.028-7.933,5.693
			c-1.44,0.783-2.961,1.439-4.557,1.909c-1.619,0.407-3.256,0.754-5.085,0.259l-0.949-0.257L1965.021,852.554z"/>
		<polygon fill="#07085B" points="2015.136,701.595 2012.624,730.941 2017.262,733.859 2025.833,698.124 		"/>
		
			<ellipse transform="matrix(0.9821 -0.1884 0.1884 0.9821 -101.4475 391.9981)" fill="#F99893" cx="2011.745" cy="729.758" rx="9.804" ry="12.256"/>
		<path fill="#FFC0BB" d="M2013.765,755.04c-1.361-8.496-1.167-17.187-0.412-24.651c0.161-1.602,0.229-3.209,0.269-4.817
			c0.157-6.498,1.512-13.149,4.356-19.699c9.151-21.075,31.484-33.862,54.286-31.032c30.716,3.813,50.956,32.711,45.044,62.254
			c3.57-1.142,7.26-0.833,10.151,1.221c5.548,3.942,6.052,12.758,1.126,19.693s-13.417,9.363-18.965,5.421
			c-0.771-0.548-1.434-1.196-2.009-1.914c-7.592,24.625-32.071,39.905-56.69,34.553C2032.23,792.005,2016.802,776.5,2013.765,755.04
			z"/>
		<path fill="#333333" d="M2070.549,731.569c-1.206,3.036,0.986,6.312,4.312,6.299c1.812-0.007,3.483-1.161,4.156-2.843
			c1.217-3.039-0.981-6.326-4.313-6.307C2072.89,728.729,2071.219,729.886,2070.549,731.569z"/>
		<path fill="#333333" d="M2031.649,725.747c-1.209,3.038,0.989,6.317,4.318,6.298c1.813-0.01,3.485-1.169,4.154-2.854
			c1.204-3.036-0.99-6.31-4.316-6.294C2033.992,722.904,2032.319,724.062,2031.649,725.747z"/>
		<path fill="#F99893" d="M2064.495,763.537c-2.411,1.206-5.127,2.092-7.347,2.521c-2.528,0.491-5.117,0.648-7.648,0.292
			c-2.531-0.344-4.967-1.225-7.191-2.507c-2.208-1.314-4.186-3.027-5.974-4.94c1.818,2.56,3.467,4.045,5.603,5.535
			c2.21,1.444,4.556,2.381,7.438,2.815c2.655,0.352,5.364,0.155,7.929-0.515C2059.865,766.068,2062.335,765.032,2064.495,763.537z"
			/>
		<path fill="#07085B" d="M2066.854,722.293c2.381-0.423,4.627-0.695,6.831-0.73c2.197-0.039,4.325,0.202,6.353,0.754
			c2.01,0.575,4.007,1.329,5.838,2.535c2.496,1.421,4.29,3.16,5.597,4.018c-0.835-2.107-2.175-4.613-4.01-6.083
			c-1.77-1.779-4.126-2.994-6.581-3.673c-2.473-0.67-5.098-0.689-7.525-0.126C2070.941,719.577,2068.64,720.62,2066.854,722.293z"/>
		<path fill="#07085B" d="M2048.684,719.302c-1.156-2.156-3.001-3.883-5.101-5.215c-2.118-1.312-4.611-2.134-7.168-2.292
			c-2.543-0.143-5.165,0.251-7.41,1.369c-2.206,0.804-4.293,2.762-5.749,4.479c1.636-0.427,3.685-1.452,6.589-2.012
			c2.122-0.555,4.255-0.63,6.344-0.53c2.097,0.126,4.188,0.58,6.258,1.322C2044.522,717.16,2046.563,718.137,2048.684,719.302z"/>
		<path fill="#F99893" d="M2056.605,725.064c-2.146,2.009-4.105,4.189-5.958,6.458c-1.859,2.27-3.587,4.646-5.123,7.188
			c-0.877,1.522-1.98,3.558-2.246,5.292c-0.148,0.959-0.074,1.89,1.529,3.469c1.049,1.113,2.232,2.021,3.449,2.859
			c1.229,0.821,2.492,1.579,3.828,2.198c-2.219-1.901-4.463-3.8-6.219-5.975c-0.28-0.334-0.817-1.122-1.005-1.565
			c-0.095-0.322,0.076-1.035,0.31-1.63c0.479-1.255,1.16-2.514,1.897-3.733c1.449-2.465,3.091-4.855,4.699-7.269
			C2053.394,729.95,2055.034,727.544,2056.605,725.064z"/>
		<path fill="#07085B" d="M2020.599,670.262c0,0-15.416-2.969,3.572-12.276c18.988-9.308,65.537-14.728,89.873,6.119
			c0,0,8.185-10.5,15.539-5.887c7.355,4.612-7.657,9.712-7.657,9.712s10.276,1.979,12.257,7.688c1.465,4.22-4.818,2.97-8.196,2.03
			c5.584,2.302,22.008,17.813,0.679,60.18c-3.776-1.772-28.186-36.587-28.186-36.587s-49.068,16.124-40.123,2.752
			c0,0-57.185,14.382-43.324-11.541C2015.032,692.453,1993.953,689.282,2020.599,670.262z"/>
		<path fill="#07085B" d="M2126.665,737.829c0,0-3.7-2.833-9.357-0.735c-5.655,2.098-9.251,14.788-9.251,14.788
			s-18.517,15.163-9.485-50.924c8.87-64.931,21.155,10.809,21.155,10.809L2126.665,737.829z"/>
	</g>
	<g>
		<path fill="#E03268" d="M1999.837,532.609l-8.01-0.788c1.398-0.767,3.091-1.143,4.873-0.967l200.643,19.73
			c10.498,1.033,18.266,9.413,17.351,18.718l-1.053,10.702c-0.915,9.305-10.167,16.012-20.664,14.979l-198.392-19.569
			L1999.837,532.609z"/>
		<path fill="#FEB546" d="M2196.811,578.35l1.052-10.702c0.915-9.305-6.853-17.686-17.351-18.718l4.309,0.424
			c10.498,1.033,18.267,9.413,17.351,18.718l-1.052,10.702c-0.915,9.306-10.167,16.012-20.664,14.979l-4.252-0.419
			C2186.677,594.335,2195.897,587.638,2196.811,578.35z"/>
		<path fill="#FEB546" d="M2149.819,573.729l1.053-10.702c0.914-9.306-6.854-17.686-17.351-18.718l4.31,0.424
			c10.496,1.032,18.265,9.412,17.35,18.718l-1.053,10.702c-0.915,9.305-10.166,16.012-20.664,14.98l-4.251-0.419
			C2139.687,589.715,2148.906,583.017,2149.819,573.729z"/>
		<path fill="#FF5B7E" d="M2113.882,542.417c10.039,0.987,17.468,9.001,16.593,17.9l-1.189,12.094
			c-0.875,8.899-9.722,15.313-19.762,14.325l-124.903-12.283l0.266-2.705l0.516,0.051l32.016,0.457l8.613-21.688
			c0,0-11.175-13.551-11.951-13.95c-0.776-0.397-24.851-3.739-24.851-3.739l-0.516-0.056l0.265-2.691L2113.882,542.417z"/>
		<path fill="#DAEEF7" d="M1994.907,553.012c1.283-13.049-5.702-20.122-5.702-20.122l121.853,11.982
			c9.221,0.906,16.045,8.268,15.24,16.441l-0.915,9.31c-0.804,8.173-8.931,14.065-18.151,13.158l-121.853-11.982
			C1985.379,571.798,1993.292,569.443,1994.907,553.012z"/>
		<path fill="#DAEEF7" d="M2126.298,561.313l-0.915,9.31c-0.121,1.224-0.408,2.395-0.836,3.501
			c-3.233-9.317-10.266-18.677-24.988-22.912c-34.373-9.888-110.354-18.323-110.354-18.323l121.853,11.982
			C2120.278,545.778,2127.103,553.139,2126.298,561.313z"/>
	</g>
</g>
<g>
	<path fill="#55769F" d="M1756.508,840.696l-8.273,18.456c-0.684,1.526-0.002,3.314,1.522,3.998l43.217,19.372
		c3.128,1.404,6.149-2.146,4.266-5.01l-16.725-26.056C1780.515,851.457,1767.294,853.878,1756.508,840.696z"/>
	<path fill="#55769F" d="M1701.601,840.696l-8.273,18.456c-0.684,1.526-0.002,3.314,1.523,3.998l43.217,19.372
		c3.127,1.404,6.148-2.146,4.265-5.01l-16.724-26.056C1725.608,851.457,1712.387,853.878,1701.601,840.696z"/>
	<path fill="#07085B" d="M1608.252,331.851l-4.595,28.822l-9.709-38.428c0,0,13.607-6.603,14.207-4.202
		C1608.757,320.445,1608.252,331.851,1608.252,331.851z"/>
	<polygon fill="#FFC0BB" points="1531.015,393.885 1526.812,443.71 1570.78,441.61 1565.712,397.487 	"/>
	<path fill="#F99893" d="M1568.122,418.471l-2.41-20.984l-34.697-3.602l-1.456,17.256
		C1536.457,418.014,1548.863,425.139,1568.122,418.471z"/>
	<g>
		
			<ellipse transform="matrix(-0.9003 -0.4353 0.4353 -0.9003 2887.655 1389.7546)" fill="#F99893" cx="1603.002" cy="364.141" rx="8.798" ry="10.997"/>
		<path fill="#FFC0BB" d="M1601.462,364.316c0.23-1.425,0.543-2.834,0.883-4.238c1.368-5.671,1.732-11.75,0.781-18.087
			c-3.056-20.388-19.458-36.643-39.88-39.466c-27.513-3.804-51.747,16.567-53.459,43.546c-2.83-1.816-6.1-2.401-9.082-1.29
			c-5.722,2.132-8.198,9.659-5.534,16.811c2.666,7.153,9.466,11.222,15.188,9.09c0.795-0.297,1.52-0.706,2.184-1.195
			c0.883,23.104,18.569,42.017,41.152,43.076c11.043,0.516,21.318-3.333,29.295-10.076
			C1593.831,394.518,1599.317,377.599,1601.462,364.316z"/>
		<path fill="#F99893" d="M1567.214,349.252c0.09,2.691,0.111,5.318,0.25,7.893c0.168,2.516,0.441,5.207,1.451,6.98
			c1.027,1.433,1.838,2.353,1.863,4.115c0.061,1.781-0.879,3.373-2.051,4.349c-2.4,2.019-5.511,2.211-8.086,1.576
			c2.628-0.463,5.146-1.367,6.611-3.081c0.679-0.854,1.128-1.807,0.972-2.698c-0.111-0.987-0.415-1.189-1.606-2.84
			c-0.842-1.436-1.111-2.89-1.271-4.296c-0.131-1.413-0.112-2.782,0.018-4.143C1565.625,354.401,1566.202,351.759,1567.214,349.252z
			"/>
		<path fill="#333333" d="M1551.608,352.151c0.301,2.793-2.165,5.042-4.92,4.482c-1.711-0.348-3.053-1.825-3.234-3.563
			c-0.289-2.785,2.165-5.02,4.91-4.471C1550.077,348.942,1551.422,350.415,1551.608,352.151z"/>
		<path fill="#333333" d="M1586.681,356.118c0.291,2.786-2.166,5.021-4.91,4.471c-1.711-0.343-3.057-1.815-3.244-3.551
			c-0.3-2.791,2.166-5.04,4.918-4.482C1585.157,352.903,1586.499,354.38,1586.681,356.118z"/>
		<path fill="#F99893" d="M1544.749,380.576c1.077,0.937,2.2,1.806,3.389,2.573c1.171,0.79,2.388,1.506,3.653,2.115
			c2.522,1.219,5.2,2.11,7.958,2.445c2.756,0.348,5.563,0.107,8.262-0.608c2.692-0.756,5.257-1.995,7.688-3.492
			c-2.639,2.218-4.815,3.321-7.445,4.283c-2.766,0.921-5.527,1.234-8.636,0.885c-2.899-0.376-5.7-1.348-8.21-2.783
			C1548.897,384.561,1546.593,382.768,1544.749,380.576z"/>
		<path fill="#07085B" d="M1556.777,343.548c-2.088-0.646-4.053-1.138-5.997-1.439c-1.94-0.299-3.843-0.351-5.696-0.125
			c-1.843,0.247-3.696,0.642-5.479,1.452c-1.366,0.426-4.678,2.374-5.54,2.751c1.011-1.863,2.482-3.86,4.301-4.968
			c1.804-1.372,4.07-2.159,6.355-2.444c2.3-0.276,4.651,0.061,6.739,0.897C1553.536,340.524,1555.438,341.791,1556.777,343.548z"/>
		<path fill="#07085B" d="M1574.843,345.582c1.656-1.463,3.767-2.337,5.969-2.771c2.21-0.415,4.581-0.289,6.784,0.43
			c2.187,0.724,4.257,1.938,5.76,3.632c1.568,1.438,2.624,3.687,3.254,5.709c-0.784-0.546-3.647-3.096-4.899-3.774
			c-1.592-1.142-3.333-1.89-5.094-2.491c-1.773-0.58-3.649-0.898-5.611-0.982C1579.038,345.253,1577.017,345.354,1574.843,345.582z"
			/>
	</g>
	<path fill="#070852" d="M1555.227,627.615c0,0-9.169,62.2,50.929,73.037s134.874,7.604,134.874,7.604l10.405,142.878l31.374,1.601
		c0,0,80.787-198.52-31.034-229.554l-100.491,0.493l-41.378-2.955c0,0-41.872-10.344-42.363-8.375
		C1567.048,614.314,1556.211,628.601,1555.227,627.615z"/>
	<path fill="#10116B" d="M1499.997,627.942c0,0-9.17,62.2,50.928,73.037c60.098,10.838,134.874,7.604,134.874,7.604l10.405,142.878
		l31.375,1.602c0,0,80.786-198.521-31.035-229.554l-100.49,0.492l-41.379-2.955c0,0-41.871-10.345-42.363-8.375
		C1511.818,614.643,1500.981,628.928,1499.997,627.942z"/>
	<path fill="#FF5B7E" d="M1575.692,423.841c0,0,41.379,5.255,51.888,13.793c10.509,8.538,61.083,133.986,61.083,133.986
		l-42.035,49.261l-89.326,0.658c0,0-66.994,36.124-109.029,1.97s-20.361-153.036,3.94-178.651
		c24.303-25.615,67.652-24.958,67.652-24.958S1559.272,447.486,1575.692,423.841z"/>
	<path fill="#FFFFFF" d="M1495.563,486.237c1.479,6.836,2.386,13.778,3.03,20.74c0.357,3.48,0.511,6.976,0.711,10.47
		c0.105,3.499,0.188,6.998,0.139,10.504c-0.138,7.003-0.521,14.029-1.725,20.965c-1.176,6.907-2.885,13.837-6.096,20.08
		c2.159-6.659,3.23-13.502,4.006-20.364c0.762-6.868,1.025-13.794,1.114-20.717c0.144-6.925-0.026-13.863-0.245-20.807
		C1496.251,500.163,1495.934,493.214,1495.563,486.237z"/>
	<path fill="#FFFFFF" d="M1619.37,481.64c1.891,10.175,3.892,20.312,5.928,30.433c2.077,10.11,4.227,20.202,6.675,30.213
		c2.419,10.016,5.108,19.966,8.359,29.722c1.63,4.876,3.45,9.687,5.583,14.357c2.102,4.68,4.595,9.211,7.938,13.172
		c-3.802-3.55-6.599-8.048-9.124-12.582c-2.448-4.597-4.562-9.369-6.38-14.235c-1.859-4.855-3.454-9.803-4.965-14.768
		c-1.458-4.981-2.791-9.996-4.036-15.028c-1.186-5.047-2.324-10.104-3.345-15.184c-0.986-5.086-1.956-10.174-2.771-15.289
		C1621.541,502.236,1620.228,491.958,1619.37,481.64z"/>
	<g>
		<path fill="#EDEDED" d="M1708.968,504.334c-7.644-11.895-70.258-32.092-70.258-32.092c0,19.3,0,20.134,0,20.134l63.736,22.282
			L1708.968,504.334z"/>
		<polygon fill="#FFFFFF" points="1704.466,503.525 1631.753,469.998 1631.753,483.014 1702.671,508.598 		"/>
		<polygon fill="#EDEDED" points="1700.427,503.525 1623.674,474.486 1623.674,496.928 1699.652,508.598 		"/>
		<path fill="#FFFFFF" d="M1708.968,501.234c0,0,14.799-34.603,20.857-41.784c0,22.765-9.201,51.393-9.201,51.393L1708.968,501.234z
			"/>
		<polygon fill="#EDEDED" points="1715.431,502.763 1733.37,457.43 1733.37,479.029 1721.045,508.598 		"/>
		<polygon fill="#FFFFFF" points="1721.045,503.525 1740.598,459.45 1740.598,475.16 		"/>
		<polygon fill="#26426E" points="1721.045,639.337 1745.695,596.877 1745.695,461.066 1721.045,503.525 		"/>
		<polygon fill="#55769F" points="1607.467,618.822 1694.755,639.337 1694.755,503.525 1607.467,483.01 		"/>
		<path fill="#E0E0E0" d="M1694.755,503.525c7.691-3.68,23.793-2.379,26.29,0C1719.727,511.292,1696.713,512.816,1694.755,503.525z"
			/>
		<path fill="#3A5782" d="M1694.755,639.337c0,3.325,26.41,3.325,26.41,0V503.525c-2.673,3.951-23.432,3.839-26.41,0V639.337z"/>
	</g>
	<path fill="#FFC0BB" d="M1640.164,592.492c-0.263-2.08-16.049-4.401-21.853-4.702c-4.396-0.227-33.539-1.201-43.451-1.648
		l0.728,2.549l-0.149,11.256l-1.627,7.459c8.695,0.55,29.955,1.382,34.382,2.258c5.915,1.169,16.171,5.628,16.171,5.628
		s4.267-0.97-1.154-3.308c-4.353-1.879-7.408-4.789-8.7-6.235c-0.743-0.831,0.063-2.313,0.603-2.171
		c14.761,3.868,16.279,4.507,16.279,4.507s17.347-0.097,0.098-3.996c-10.34-2.337-14.045-3.696-14.966-4.856
		c-0.392-0.493,0.309-2.174,0.938-2.213c8.959-0.553,25.037,2.622,20.632,0.54c-3.59-1.698-14.9-3.559-19.3-4.261
		c-0.271-0.042-0.707-1.681,0.494-1.783C1627.819,590.806,1640.407,594.423,1640.164,592.492z"/>
	<path fill="#FFFFFF" d="M1485.464,567.271c3.633,0.884,7.215,1.899,10.864,2.662c3.621,0.864,7.296,1.494,10.933,2.259
		c7.323,1.335,14.669,2.498,22.035,3.532c7.375,0.969,14.761,1.859,22.165,2.574c7.376,0.732,14.878,1.36,22.179,1.768l0.982,0.055
		l0.216,0.852c0.628,2.475,1.036,4.891,1.349,7.366c0.309,2.466,0.438,4.953,0.435,7.44c-0.021,2.49-0.235,4.981-0.646,7.447
		c-0.453,2.461-1.182,4.873-2.162,7.183l-0.085,0.201l-0.159,0.105l-8.112,5.443c-2.703,1.815-5.415,3.617-8.155,5.383
		c2.543-2.039,5.111-4.041,7.691-6.029l7.732-5.969l-0.244,0.305c0.813-2.231,1.386-4.542,1.699-6.904
		c0.287-2.364,0.419-4.752,0.348-7.145c-0.079-2.391-0.315-4.778-0.65-7.15c-0.348-2.36-0.814-4.754-1.436-6.998l1.197,0.906
		c-3.858-0.103-7.512-0.351-11.266-0.624c-3.731-0.276-7.459-0.571-11.179-0.963c-7.44-0.768-14.863-1.695-22.251-2.876
		c-7.386-1.192-14.734-2.634-22.015-4.354c-3.626-0.926-7.258-1.819-10.827-2.946
		C1492.505,569.781,1488.979,568.521,1485.464,567.271z"/>
	<path fill="#07085B" d="M1609.134,304.582c0,0,13.795,0.444-0.681-11.221c-14.478-11.665-53.344-25.343-78.256-12.188
		c0,0-4.981-10.591-12.184-8.063c-7.201,2.529,4.683,9.816,4.683,9.816s-9.195-0.296-12.003,4.215
		c-2.074,3.334,3.557,3.481,6.636,3.33c-5.234,0.89-25.305,13.566-15.232,54.035c3.58-0.788,23.983-30.372,23.983-30.372
		s46.656,25.921,42.042,5.31c0,0,48.338,30.165,41.48,5.248C1609.603,324.692,1628.294,326.061,1609.134,304.582z"/>
	<path fill="#07085B" d="M1502.058,344.75c0,0,3.864-1.358,8.019,1.94c4.155,3.297,3.696,14.884,3.696,14.884
		s19.833,12.789,17.742-41.329c-2.225-57.574-16.545,4.618-16.545,4.618L1502.058,344.75z"/>
</g>
<g>
	<path fill="#07085B" d="M1286.775,1424.143l8.274,18.456c0.684,1.524,0.002,3.314-1.522,3.998l-43.217,19.372
		c-3.128,1.402-6.148-2.146-4.266-5.01l16.725-26.056C1262.77,1434.903,1275.989,1437.323,1286.775,1424.143z"/>
	<path fill="#07085B" d="M1342.781,1421.945l8.273,18.457c0.683,1.524,0.002,3.314-1.523,3.997l-43.216,19.373
		c-3.129,1.403-6.148-2.146-4.266-5.01l16.725-26.057C1318.774,1432.706,1331.995,1435.127,1342.781,1421.945z"/>
	<path fill="#FF5500" d="M1393.291,824.276c0,0-47.098-7.942-62.9,44.679l19.505,29.196c0,0,40.906-15.716,41.07-17.256
		C1391.125,879.356,1393.291,824.276,1393.291,824.276z"/>
	<path fill="#FF5500" d="M1469.099,847.982c0,0,13.736,20.66,20.744,28.851c17.627,20.607,19.898,14.143,30.854,31.868
		c11.827,19.131-0.138,31.109-6.938,36.624c-6.802,5.514,4.578,25.909-8.094,37.342c-16.588,14.965-31.932,0.853-43.343,9.237
		c-11.41,8.384-13.907,20.813-40.955,18.465c-27.049-2.349-26.784-90.788-26.784-90.788s22.14-46.887,23.018-47.273
		S1469.099,847.982,1469.099,847.982z"/>
	<path fill="#FF5500" d="M1330.391,868.955c0,0-1.616,16.229-6.983,25.576c-13.502,23.519-20.776,15.814-28.255,35.265
		c-8.075,20.992,5.905,30.545,13.609,34.701c7.707,4.158,0.306,26.311,14.879,35.195c19.074,11.629,31.534-5.085,44.304,1.039
		c12.766,6.123,17.524,17.872,43.668,10.549c26.145-7.323,9.485-94.179,9.485-94.179s-30.45-41.969-31.386-42.187
		C1388.777,874.698,1330.391,868.955,1330.391,868.955z"/>
	<path fill="#FFC0BB" d="M1398.728,973.687c0,0,45.141-8.305,65.9-7.604c20.76,0.699-12.58,54.677-12.58,54.677l-33.904,0.753
		c0,0-20.784-23.213-19.416-25.914c1.365-2.702-0.065-20.41-0.065-20.41L1398.728,973.687z"/>
	<g>
		<path fill="#FFC0BB" d="M1438.979,930.611l11.908,36.14c0,0-10.367,21.435-42.115,12.189c0,0,3.623-7.485-1.235-22.899
			C1402.57,940.29,1438.979,930.611,1438.979,930.611z"/>
		<path opacity="0.6" fill="#FC8D84" d="M1438.979,930.611l5.588,16.883c-3.328,12.339-14.132,20.741-34.508,23.351
			c0.008-3.668-0.56-8.578-2.522-14.804C1402.57,940.29,1438.979,930.611,1438.979,930.611z"/>
		<g>
			
				<ellipse transform="matrix(0.9157 -0.402 0.402 0.9157 -250.4056 622.3595)" fill="#F99893" cx="1357.845" cy="907.882" rx="9.285" ry="11.606"/>
			<path fill="#FFC0BB" d="M1365.032,930.8c-3.045-7.557-4.695-15.623-5.57-22.673c-0.188-1.512-0.462-3.011-0.765-4.504
				c-1.224-6.033-1.372-12.459-0.126-19.105c4.016-21.385,21.942-37.892,43.589-40.076c29.162-2.945,53.933,19.475,54.693,47.995
				c3.054-1.807,6.526-2.297,9.628-1.01c5.951,2.471,8.273,10.505,5.186,17.944c-3.09,7.44-10.418,11.468-16.369,8.998
				c-0.826-0.344-1.575-0.803-2.257-1.345c-1.826,24.332-21.211,43.594-45.069,43.835
				C1390.063,961.041,1372.433,950.179,1365.032,930.8z"/>
			<path fill="#F99893" d="M1396.165,893.565c0.94,2.688,1.43,5.494,1.589,8.355c0.077,1.436,0.043,2.88-0.151,4.358
				c-0.226,1.47-0.566,2.986-1.501,4.451c-1.085,1.393-1.651,1.853-1.812,2.968c-0.2,0.959,0.25,2,0.948,2.93
				c1.503,1.875,4.14,2.907,6.894,3.467c-2.741,0.539-5.996,0.197-8.424-2.016c-1.186-1.069-2.103-2.768-1.965-4.618
				c0.134-1.921,0.996-2.776,2.115-4.233c0.587-0.885,0.947-2.13,1.229-3.384c0.309-1.267,0.398-2.617,0.566-3.963
				C1395.89,899.167,1395.997,896.396,1396.165,893.565z"/>
			<path fill="#333333" d="M1412.509,897.238c-0.416,2.932,2.098,5.392,5.023,4.905c1.817-0.302,3.287-1.806,3.544-3.63
				c0.414-2.931-2.097-5.386-5.02-4.903C1414.239,893.91,1412.768,895.415,1412.509,897.238z"/>
			<path fill="#333333" d="M1375.369,900.053c-0.415,2.926,2.089,5.38,5.006,4.906c1.819-0.296,3.294-1.798,3.558-3.621
				c0.425-2.935-2.091-5.398-5.016-4.915C1377.1,896.724,1375.628,898.228,1375.369,900.053z"/>
			<path opacity="0.3" fill="#F99893" d="M1413.224,930.831c0,0-6.189-2.219-12.014,1.599c0,0-6.298-3.941-11.259-0.178
				c0,0,2.304,9.376,12.647,8.744S1413.224,930.831,1413.224,930.831z"/>
			<path fill="#F99893" d="M1418.644,927.471c-1.171,0.947-2.389,1.821-3.672,2.584c-1.266,0.787-2.577,1.495-3.935,2.088
				c-2.709,1.189-5.565,2.025-8.487,2.271c-2.922,0.262-5.871-0.102-8.69-0.962c-2.811-0.901-5.466-2.307-7.971-3.979
				c1.116,1.011,2.317,1.938,3.598,2.758c1.282,0.822,2.669,1.469,4.086,2.048c1.437,0.537,2.933,0.929,4.459,1.146
				c1.528,0.198,3.077,0.237,4.615,0.122c3.073-0.285,6.063-1.202,8.769-2.618C1414.115,931.514,1416.614,929.711,1418.644,927.471z
				"/>
			<path fill="#FF5500" d="M1407.394,887.954c2.227-0.6,4.318-1.042,6.381-1.285c2.058-0.24,4.066-0.222,6.013,0.088
				c1.933,0.333,3.874,0.82,5.721,1.745c1.419,0.498,4.845,2.687,5.737,3.117c-0.992-2-2.469-4.169-4.344-5.407
				c-1.85-1.517-4.209-2.435-6.608-2.824c-2.415-0.38-4.907-0.117-7.143,0.685C1410.929,884.891,1408.876,886.154,1407.394,887.954z
				"/>
			<path fill="#FF5500" d="M1388.263,889.4c-1.69-1.608-3.882-2.61-6.187-3.153c-2.316-0.523-4.821-0.481-7.173,0.19
				c-2.333,0.678-4.565,1.876-6.215,3.607c-1.712,1.457-2.909,3.783-3.652,5.896c0.842-0.543,3.97-3.127,5.314-3.792
				c1.721-1.143,3.587-1.862,5.465-2.429c1.895-0.544,3.885-0.807,5.958-0.819C1383.85,888.891,1385.979,889.077,1388.263,889.4z"/>
		</g>
	</g>
	<path fill="#FFC0BB" d="M1477.249,1194.503c0,0,13.313,62.65-47.094,77.526c-60.406,14.875-136.64,16.387-136.64,16.387
		l-1.411,145.935l-31.795,3.641c0,0-94.879-196.652,16.819-235.382l102.203-5.948l41.88-5.662c0,0,41.906-13.203,42.534-11.232
		C1464.373,1181.738,1476.31,1195.566,1477.249,1194.503z"/>
	<path fill="#FFC0BB" d="M1533.423,1191.291c0,0,13.313,62.651-47.094,77.526s-136.64,16.389-136.64,16.389l-1.409,145.934
		l-31.797,3.642c0,0-94.879-196.653,16.819-235.383l102.203-5.948l41.88-5.661c0,0,41.907-13.206,42.535-11.233
		C1520.549,1178.527,1532.483,1192.356,1533.423,1191.291z"/>
	<path fill="#FEB546" d="M1316.236,1183.905c-50.937,0.777-97.397,30.025-113.922,86.827
		c-16.525,56.802-54.228,115.394-50.637,114.824c79.894,44.722,105.008-0.199,160.226,13.081
		c55.219,13.279,74.791,7.271,74.791,7.271c-15.981-80.17-37.005-120.703-37.005-120.703c4.641,0.831,140.153,2.83,173.63-34.273
		c9.391-10.408,16.585-23.49,15.146-55.477C1535.788,1135.926,1331.013,1183.68,1316.236,1183.905z"/>
	<path fill="#DAEEF7" d="M1331.42,1289.391c1.743-0.317,3.483-0.611,5.201-1.017c1.719-0.397,3.418-0.862,5.098-1.367
		c0.842-0.264,1.69-0.548,2.521-0.854c-0.871-0.181-1.717-0.433-2.558-0.734c-1.66-0.586-3.21-1.429-4.667-2.389
		c-1.406-1.035-2.74-2.156-3.904-3.436c-1.169-1.272-2.173-2.678-3.059-4.138l1.729,1.878c0.621,0.581,1.196,1.197,1.843,1.737
		c1.233,1.146,2.61,2.109,4.021,2.981c1.423,0.859,2.929,1.556,4.481,2.101c1.541,0.522,3.21,0.903,4.748,0.959l2.824,0.103
		l-2.506,1.164c-1.701,0.79-3.396,1.31-5.134,1.797c-1.73,0.485-3.491,0.827-5.253,1.128c-1.766,0.285-3.533,0.534-5.314,0.666
		c-1.777,0.131-3.557,0.217-5.336,0.21C1327.918,1289.923,1329.677,1289.706,1331.42,1289.391z"/>
	<path fill="#FFC0BB" d="M1347.424,1061.637c0,0-4.112,102.364-15.624,118.396l63.311-14.388v-111.407L1347.424,1061.637z"/>
	<path fill="#FEB546" d="M1373.005,1075.614c0,0,10.204,25.766,11.806,39.449c3.979,33.984-0.343,57.959-7.377,77.302
		c-9.866,27.133,66.491,16.81,68.33,16.854c80.688,1.917,79.937-1.375,79.937-1.375l12.881-10.34
		c-1.796-33.151-6.382-61.819-5.667-91.387l0.737-30.503l-3.701-30.833l-114.214-8.995L1373.005,1075.614z"/>
	<g>
		<path fill="#EDEDED" d="M1333.906,1098.375c6.975-10.853,64.101-29.28,64.101-29.28c0,17.609,0,18.369,0,18.369l-58.15,20.329
			L1333.906,1098.375z"/>
		<path fill="#EDEDED" d="M1333.906,1098.375c6.975-10.853,64.101-29.28,64.101-29.28c0,17.609,0,18.369,0,18.369l-58.15,20.329
			L1333.906,1098.375z"/>
		<polygon fill="#FFFFFF" points="1338.014,1097.637 1404.355,1067.047 1404.355,1078.923 1339.651,1102.265 		"/>
		<polygon fill="#EDEDED" points="1341.699,1097.637 1411.726,1071.143 1411.726,1091.617 1342.406,1102.265 		"/>
		<path fill="#FFFFFF" d="M1333.906,1095.547c0,0-13.501-31.571-19.029-38.123c0,20.77,8.395,46.89,8.395,46.89L1333.906,1095.547z"
			/>
		<polygon fill="#EDEDED" points="1328.011,1096.941 1311.643,1055.58 1311.643,1075.286 1322.888,1102.265 		"/>
		<polygon fill="#FFFFFF" points="1322.888,1097.637 1305.049,1057.424 1305.049,1071.756 		"/>
		<polygon fill="#F5577A" points="1322.888,1221.547 1306.518,1183.874 1306.518,1059.964 1322.888,1097.637 		"/>
		<polygon fill="#FF5B7E" points="1426.515,1202.83 1346.875,1221.547 1346.875,1097.637 1426.515,1078.919 		"/>
		<path fill="#E0E0E0" d="M1346.875,1097.637c-7.019-3.356-21.709-2.172-23.987,0
			C1324.09,1104.723,1345.089,1106.112,1346.875,1097.637z"/>
		<path fill="#DE4B6C" d="M1346.875,1221.547c0,3.033-24.097,3.033-24.097,0v-123.91c2.438,3.604,21.379,3.503,24.097,0V1221.547z"
			/>
	</g>
	<path fill="#FFC0BB" d="M1557.571,1049.277l-54.209,25.109c0,0-4.218,69.349-6.834,72.414c-4.74,5.553-52.809,21.465-78.129,26.118
		c-4.076,0.749-8.265,0.426-12.174-0.955c-12.555-4.437-34.779-12.419-38.287-13.605c-5.505-1.863-21.031-5.531-22.043-3.696
		c-0.941,1.704,12.093,2.989,19.761,6.8c1.078,0.536,0.068,1.898-0.198,1.839c-4.347-0.973-15.546-3.418-19.51-3.165
		c-4.862,0.311,11.252,3.294,19.374,7.115c0.57,0.269,0.602,2.088,0.054,2.403c-1.283,0.738-5.228,0.634-15.701-1.011
		c-17.47-2.744-1.382,3.75-1.382,3.75s1.646-0.035,16.792,1.818c0.554,0.068,0.758,1.743-0.242,2.241
		c-1.734,0.865-5.648,2.443-10.387,2.582c-5.901,0.173-2.294,2.649-2.294,2.649s11.179-0.358,17.106,0.738
		c4.437,0.82,24.503,7.894,32.788,10.593l1.022-1.271c11.49,2.673,117.387,10.413,130.249-21.006
		C1556.976,1112.975,1557.571,1049.277,1557.571,1049.277z"/>
	<path fill="#FEB546" d="M1398.728,973.687c0,0,30.688,35.819,65.9-7.604c0,0,38.472-3.135,66.837,17.009
		c28.366,20.144,45.351,65.39,45.351,65.39s-40.714,27.133-73.527,27.133l-76.96-27.56l-53.323,27.56
		c0,0-24.761-1.645-45.726-12.334C1327.279,1063.28,1330.896,991.364,1398.728,973.687z"/>
	<path fill="#07085B" d="M1493.929,1034.797c1.322,4.44,2.514,8.919,3.695,13.401c2.213,8.801,4.247,17.185,5.738,26.188
		c2.779,0.127,5.914-0.277,8.664-0.673c14.814-2.637,24.546-6.785,37.737-12.186c19.765-9.002,17.099-8.132,27.052-13.047
		c-11.572,7.318-17.804,10.617-26.229,14.832c-11.554,5.356-22.598,10.313-38.146,13.051c-6.795,0.928-8.751,0.724-11.33,0.433
		c-1.003-6.603-2.152-13.364-5.308-28.169l-2.937-13.56l-3.022-13.556C1491.31,1025.909,1492.61,1030.354,1493.929,1034.797z"/>
	<path fill="#07085B" d="M1371.948,1043.127c-0.896,4.625-1.511,10.729-1.301,16.433c0.099,2.66,2.062,10.099,4.33,17.642
		c-0.42,0.158-0.842,0.318-1.268,0.479c-2.622-7.59-4.873-15.187-5.164-17.952c-0.688-5.709-0.218-11.472,0.743-17.075
		c1.078-5.649,2.497-10.907,4.638-16.359c2.033-5.276,4.439-10.415,7.456-15.188c-2.011,5.262-3.838,10.544-5.471,15.869
		C1374.312,1032.308,1372.894,1037.682,1371.948,1043.127z"/>
	<path fill="#FF5500" d="M1456.854,892.437c0,0-52.708-12.715-77.886-48.528c0,0-0.438-32.613,47.946-25.216
		C1473.929,825.881,1484.933,871.632,1456.854,892.437z"/>
</g>
</svg>
