<?xml version="1.0" encoding="utf-8"?>
<!-- Generator: Adobe Illustrator 16.0.0, SVG Export Plug-In . SVG Version: 6.00 Build 0)  -->
<!DOCTYPE svg PUBLIC "-//W3C//DTD SVG 1.1//EN" "http://www.w3.org/Graphics/SVG/1.1/DTD/svg11.dtd">
<svg version="1.1" id="Layer_1" xmlns="http://www.w3.org/2000/svg" xmlns:xlink="http://www.w3.org/1999/xlink" x="0px" y="0px"
	 width="84.375px" height="83.875px" viewBox="0 0 84.375 83.875" enable-background="new 0 0 84.375 83.875" xml:space="preserve">
<circle fill-rule="evenodd" clip-rule="evenodd" fill="#F2F2F2" cx="41.461" cy="41.146" r="39.773"/>
<g>
	<path fill="#985924" d="M46.793,24.241c0.134-1.743,0.726-3.571,0.301-5.189c-0.99-2.313-5.672-3.401-7.919-2.992
		c-1.406,2.365-0.825,5.282-0.566,7.979L46.793,24.241z"/>
	<path fill="#8C4C21" d="M42.675,24.14v-7.863c1.919,0.45,3.826,1.395,4.418,2.774c0.425,1.618-0.167,3.446-0.301,5.189
		L42.675,24.14z"/>
	<path fill="#B4D8DE" d="M42.604,40.598c1.242,0.019,2.463-0.036,3.67-0.162V29.364l-0.412-0.181
		c-0.908-0.396-2.03-0.854-3.258-1.021V40.598z"/>
	<path fill="#B4D8DE" d="M42.604,40.598c-1.242,0.019-2.464-0.036-3.67-0.162V29.364l0.412-0.181
		c0.907-0.396,2.03-0.854,3.259-1.021L42.604,40.598L42.604,40.598z"/>
	<path fill="#E0AE7E" d="M39.983,25.984h5.242v3.163c-1.747,1.388-3.495,1.442-5.242,0V25.984z"/>
	<path fill="#F0C195" d="M40.445,19.494c-0.743-0.146-1.453,0.614-1.586,1.358c-0.123,0.683-0.209,1.384-0.24,2.085
		c-0.021-0.003,0.089-0.006-0.06-0.006c-0.15,0-0.639,0.109-0.615,0.76c0.018,0.485,0.439,1.899,0.996,1.668
		c0.805,2.158,1.889,3.375,3.663,3.807c0.03-0.058,0.044-0.014,0.071-0.032v-9.414C41.959,19.721,41.245,19.649,40.445,19.494z"/>
	<path fill="#EBB688" d="M44.833,19.494c0.742-0.146,1.453,0.614,1.587,1.358c0.123,0.683,0.207,1.384,0.239,2.085
		c0.021-0.003-0.089-0.006,0.062-0.006c0.149,0,0.638,0.109,0.614,0.76c-0.018,0.485-0.439,1.899-0.995,1.668
		c-0.818,2.186-1.92,3.389-3.735,3.807v-9.446C43.318,19.721,44.035,19.649,44.833,19.494z"/>
	<polygon fill="#EF4124" points="42.604,30.208 43.499,30.208 43.12,31.63 42.604,31.63 42.603,31.63 42.086,31.63 41.707,30.208 	
		"/>
	<polygon fill="#F1592F" points="43.12,31.586 43.486,36.968 42.604,38.582 41.721,36.968 42.086,31.586 	"/>
	<path fill="#F2FAFB" d="M42.604,30.208l-1.538,1.494l-1.721-2.52l0.638-0.349C40.626,29.515,41.51,29.947,42.604,30.208z"/>
	<path fill="#156587" d="M42.604,38.437l-3.774-9.028c-3.411,1.472-5.601,2.606-5.985,6.925c1.549,2.766,5.25,5.029,9.761,5.025
		L42.604,38.437L42.604,38.437z"/>
	<path fill="#08446B" d="M35.928,39.482c0.136,0.096,0.292,0.174,0.435,0.263l-0.01-1.786L35.928,39.482z"/>
	<polygon fill="#0B76A5" points="42.604,38.437 42.604,40.717 39.052,34.357 40.107,33.074 38.499,32.538 37.772,29.871 
		39.529,29.103 	"/>
	<path fill="#F2FAFB" d="M42.604,30.208l1.537,1.494l1.721-2.52l-0.637-0.349C44.58,29.515,43.697,29.947,42.604,30.208z"/>
	<path fill="#125B77" d="M42.604,38.437l3.772-9.028c3.411,1.472,5.603,2.606,5.986,6.925c-1.549,2.766-5.249,5.029-9.76,5.025
		L42.604,38.437L42.604,38.437z"/>
	<path fill="#08446B" d="M49.279,39.482c-0.137,0.096-0.291,0.174-0.436,0.263l0.012-1.786L49.279,39.482z"/>
	<polygon fill="#126E96" points="42.604,38.437 42.604,40.717 46.156,34.357 45.101,33.074 46.708,32.538 47.437,29.871 
		45.74,29.118 	"/>
</g>
<g>
	<path fill="#985924" d="M61.239,54.733c0.082-1.068,0.444-2.189,0.185-3.18c-0.606-1.416-3.473-2.084-4.852-1.834
		c-0.86,1.451-0.505,3.236-0.348,4.889L61.239,54.733z"/>
	<path fill="#8C4C21" d="M58.719,54.671v-4.816c1.175,0.275,2.344,0.854,2.705,1.699c0.261,0.992-0.103,2.111-0.185,3.18
		L58.719,54.671z"/>
	<path fill="#B4D8DE" d="M58.675,64.751c0.761,0.01,1.509-0.021,2.247-0.1V57.87l-0.253-0.111c-0.556-0.242-1.242-0.521-1.994-0.623
		V64.751z"/>
	<path fill="#B4D8DE" d="M58.675,64.751c-0.762,0.01-1.511-0.021-2.248-0.1V57.87l0.252-0.111c0.557-0.242,1.245-0.521,1.996-0.623
		V64.751L58.675,64.751z"/>
	<path fill="#E0AE7E" d="M57.069,55.802h3.21v1.936c-1.07,0.852-2.139,0.885-3.21,0V55.802z"/>
	<path fill="#F0C195" d="M57.352,51.825c-0.455-0.09-0.892,0.375-0.973,0.832c-0.073,0.418-0.127,0.848-0.146,1.277
		c-0.013-0.002,0.056-0.004-0.037-0.004c-0.092,0-0.391,0.066-0.376,0.465c0.011,0.299,0.27,1.164,0.61,1.021
		c0.493,1.322,1.155,2.068,2.243,2.332c0.018-0.035,0.025-0.01,0.044-0.02v-5.768C58.279,51.964,57.842,51.921,57.352,51.825z"/>
	<path fill="#EBB688" d="M60.04,51.825c0.454-0.09,0.891,0.375,0.972,0.832c0.074,0.418,0.128,0.848,0.146,1.277
		c0.014-0.002-0.055-0.004,0.038-0.004c0.091,0,0.39,0.066,0.376,0.465c-0.011,0.299-0.27,1.164-0.611,1.021
		c-0.498,1.34-1.173,2.076-2.285,2.332v-5.785C59.111,51.964,59.552,51.921,60.04,51.825z"/>
	<polygon fill="#EF4124" points="58.675,58.388 59.224,58.388 58.989,59.259 58.675,59.259 58.675,59.259 58.356,59.259 
		58.125,58.388 	"/>
	<polygon fill="#F1592F" points="58.989,59.233 59.216,62.528 58.675,63.519 58.134,62.528 58.356,59.233 	"/>
	<path fill="#F2FAFB" d="M58.675,58.388l-0.941,0.916l-1.055-1.545l0.392-0.213C57.462,57.962,58.004,58.228,58.675,58.388z"/>
	<path fill="#156587" d="M58.675,63.427l-2.313-5.527c-2.089,0.9-3.432,1.596-3.666,4.242c0.948,1.691,3.215,3.078,5.979,3.074
		V63.427z"/>
	<path fill="#08446B" d="M54.584,64.067c0.083,0.059,0.181,0.105,0.268,0.16l-0.006-1.094L54.584,64.067z"/>
	<polygon fill="#0B76A5" points="58.675,63.427 58.675,64.825 56.498,60.927 57.146,60.146 56.16,59.815 55.715,58.183 
		56.791,57.71 	"/>
	<path fill="#F2FAFB" d="M58.675,58.388l0.94,0.916l1.054-1.545l-0.39-0.213C59.885,57.962,59.346,58.228,58.675,58.388z"/>
	<path fill="#125B77" d="M58.675,63.427l2.311-5.527c2.091,0.9,3.432,1.596,3.668,4.242c-0.95,1.691-3.216,3.078-5.979,3.074V63.427
		z"/>
	<path fill="#08446B" d="M62.763,64.067c-0.083,0.059-0.179,0.105-0.268,0.16l0.008-1.094L62.763,64.067z"/>
	<polygon fill="#126E96" points="58.675,63.427 58.675,64.825 60.85,60.927 60.201,60.146 61.188,59.815 61.633,58.183 
		60.596,57.72 	"/>
</g>
<g>
	<path fill="#985924" d="M28.288,54.757c0.082-1.066,0.445-2.188,0.186-3.178c-0.608-1.416-3.474-2.084-4.852-1.834
		c-0.86,1.449-0.506,3.236-0.347,4.887L28.288,54.757z"/>
	<path fill="#8C4C21" d="M25.768,54.694V49.88c1.176,0.273,2.344,0.854,2.706,1.699c0.259,0.99-0.104,2.111-0.186,3.178
		L25.768,54.694z"/>
	<path fill="#B4D8DE" d="M25.725,64.776c0.76,0.01,1.508-0.023,2.247-0.1v-6.781l-0.251-0.113c-0.557-0.24-1.243-0.521-1.995-0.623
		L25.725,64.776L25.725,64.776z"/>
	<path fill="#B4D8DE" d="M25.725,64.776c-0.762,0.01-1.509-0.023-2.249-0.1v-6.781l0.252-0.113c0.555-0.24,1.244-0.521,1.996-0.623
		L25.725,64.776L25.725,64.776z"/>
	<path fill="#E0AE7E" d="M24.119,55.825h3.209v1.936c-1.069,0.852-2.14,0.887-3.209,0V55.825z"/>
	<path fill="#F0C195" d="M24.401,51.849c-0.455-0.088-0.89,0.379-0.971,0.834c-0.075,0.418-0.128,0.846-0.146,1.275
		c-0.012-0.002,0.056-0.004-0.037-0.004s-0.39,0.068-0.376,0.465c0.011,0.299,0.27,1.164,0.61,1.023
		c0.493,1.32,1.157,2.064,2.244,2.33c0.018-0.035,0.026-0.01,0.043-0.02v-5.766C25.329,51.989,24.891,51.944,24.401,51.849z"/>
	<path fill="#EBB688" d="M27.09,51.849c0.454-0.088,0.889,0.379,0.972,0.834c0.075,0.418,0.127,0.846,0.146,1.275
		c0.013-0.002-0.055-0.004,0.038-0.004c0.091,0,0.391,0.068,0.375,0.465c-0.01,0.299-0.27,1.164-0.609,1.023
		c-0.5,1.338-1.176,2.076-2.287,2.33v-5.785C26.161,51.989,26.601,51.944,27.09,51.849z"/>
	<polygon fill="#EF4124" points="25.725,58.411 26.271,58.411 26.039,59.282 25.725,59.282 25.724,59.282 25.406,59.282 
		25.175,58.411 	"/>
	<polygon fill="#F1592F" points="26.039,59.257 26.265,62.552 25.725,63.54 25.183,62.552 25.406,59.257 	"/>
	<path fill="#F2FAFB" d="M25.725,58.411l-0.942,0.916l-1.054-1.545l0.391-0.211C24.513,57.987,25.055,58.253,25.725,58.411z"/>
	<path fill="#156587" d="M25.725,63.452l-2.313-5.529c-2.089,0.9-3.431,1.596-3.667,4.24c0.949,1.695,3.215,3.08,5.979,3.078V63.452
		z"/>
	<path fill="#08446B" d="M21.634,64.091c0.084,0.061,0.18,0.107,0.267,0.162l-0.006-1.096L21.634,64.091z"/>
	<polygon fill="#0B76A5" points="25.725,63.452 25.725,64.851 23.549,60.952 24.194,60.167 23.208,59.839 22.765,58.206 
		23.841,57.735 	"/>
	<path fill="#F2FAFB" d="M25.725,58.411l0.941,0.916l1.054-1.545l-0.392-0.211C26.935,57.987,26.395,58.253,25.725,58.411z"/>
	<path fill="#125B77" d="M25.725,63.452l2.312-5.529c2.089,0.9,3.431,1.596,3.667,4.24c-0.949,1.695-3.215,3.08-5.978,3.078
		L25.725,63.452L25.725,63.452z"/>
	<path fill="#08446B" d="M29.813,64.091c-0.083,0.061-0.178,0.107-0.267,0.162l0.007-1.096L29.813,64.091z"/>
	<polygon fill="#126E96" points="25.725,63.452 25.725,64.851 27.899,60.952 27.251,60.167 28.237,59.839 28.683,58.206 
		27.646,57.743 	"/>
</g>
<path fill="#BB8D58" d="M62.664,32.092c-0.202,1.103-0.489,2.173-0.858,3.207c-1.727-0.805-3.813-0.168-4.783,1.514
	c-0.971,1.68-0.479,3.803,1.077,4.897c-0.72,0.843-1.503,1.626-2.347,2.344c-1.096-1.557-3.216-2.046-4.896-1.076
	c-1.682,0.973-2.317,3.058-1.515,4.785c-1.03,0.367-2.104,0.656-3.204,0.857c-0.168-1.896-1.764-3.385-3.703-3.385
	c-1.941,0-3.535,1.487-3.705,3.385c-1.103-0.201-2.171-0.49-3.204-0.855c0.804-1.73,0.167-3.814-1.515-4.787
	c-1.681-0.97-3.803-0.479-4.897,1.076c-0.844-0.718-1.628-1.501-2.344-2.344c1.556-1.096,2.046-3.219,1.076-4.897
	c-0.971-1.682-3.057-2.317-4.783-1.514c-0.369-1.032-0.657-2.104-0.857-3.207c1.896-0.167,3.385-1.762,3.385-3.701
	c0-1.941-1.488-3.534-3.385-3.703c0.199-1.103,0.488-2.172,0.857-3.206c1.728,0.805,3.813,0.167,4.783-1.516
	c0.971-1.68,0.479-3.801-1.076-4.896c0.716-0.843,1.5-1.629,2.344-2.345c1.095,1.556,3.217,2.046,4.897,1.076
	c1.682-0.972,2.317-3.057,1.515-4.785c1.033-0.368,2.104-0.655,3.204-0.856c0.169,1.896,1.763,3.384,3.705,3.383
	c1.939,0.001,3.535-1.485,3.703-3.383c1.101,0.201,2.174,0.488,3.204,0.856c-0.804,1.729-0.167,3.813,1.515,4.785
	c1.681,0.971,3.801,0.48,4.896-1.075c0.844,0.717,1.627,1.502,2.347,2.345c-1.558,1.095-2.048,3.217-1.077,4.896
	c0.971,1.683,3.058,2.319,4.783,1.516c0.369,1.033,0.656,2.104,0.858,3.206c-1.898,0.168-3.386,1.762-3.386,3.703
	C59.278,30.331,60.766,31.924,62.664,32.092L62.664,32.092z M27.895,28.391c0,8.029,6.509,14.54,14.54,14.54
	c8.03,0,14.538-6.51,14.538-14.54c0-8.029-6.508-14.54-14.538-14.54C34.404,13.852,27.895,20.362,27.895,28.391z"/>
<path fill="#BB8D58" d="M71.305,56.882c0.028,0.686,0.003,1.363-0.076,2.031c-1.142-0.244-2.299,0.42-2.649,1.555
	c-0.35,1.137,0.232,2.336,1.312,2.779c-0.313,0.602-0.674,1.176-1.08,1.719c-0.865-0.779-2.2-0.783-3.071,0.025
	c-0.872,0.809-0.967,2.143-0.251,3.063c-0.567,0.359-1.168,0.68-1.797,0.949c-0.359-1.109-1.515-1.781-2.672-1.518
	c-1.16,0.266-1.909,1.371-1.752,2.527c-0.686,0.029-1.362,0.004-2.03-0.074c0.245-1.143-0.42-2.303-1.557-2.65
	c-1.135-0.35-2.334,0.232-2.776,1.313c-0.602-0.314-1.177-0.676-1.72-1.082c0.78-0.865,0.782-2.201-0.026-3.07
	c-0.808-0.871-2.141-0.969-3.063-0.252c-0.361-0.566-0.681-1.166-0.948-1.795c1.109-0.361,1.779-1.518,1.515-2.676
	c-0.264-1.156-1.368-1.906-2.523-1.748c-0.031-0.686-0.005-1.363,0.073-2.031c1.142,0.246,2.301-0.42,2.648-1.555
	c0.353-1.137-0.23-2.338-1.31-2.779c0.312-0.602,0.674-1.176,1.081-1.719c0.864,0.779,2.2,0.781,3.069-0.025
	c0.871-0.809,0.967-2.141,0.251-3.064c0.567-0.357,1.168-0.677,1.797-0.947c0.36,1.109,1.517,1.779,2.675,1.515
	s1.905-1.37,1.748-2.526c0.686-0.028,1.364-0.004,2.03,0.075c-0.244,1.143,0.421,2.3,1.558,2.65c1.136,0.35,2.336-0.232,2.776-1.313
	c0.603,0.314,1.176,0.676,1.721,1.082c-0.78,0.865-0.783,2.199,0.025,3.07c0.81,0.871,2.142,0.967,3.063,0.252
	c0.361,0.566,0.68,1.164,0.949,1.795c-1.109,0.361-1.78,1.516-1.517,2.674S70.146,57.04,71.305,56.882L71.305,56.882z
	 M50.039,59.413c1.095,4.795,5.868,7.795,10.663,6.697c4.795-1.094,7.794-5.867,6.698-10.664c-1.094-4.795-5.869-7.795-10.664-6.697
	C51.941,49.843,48.943,54.618,50.039,59.413z"/>
<path fill="#BB8D58" d="M38.239,56.882c0.03,0.686,0.005,1.363-0.075,2.031c-1.14-0.244-2.299,0.42-2.648,1.555
	c-0.352,1.137,0.231,2.336,1.31,2.779c-0.313,0.602-0.674,1.176-1.08,1.719c-0.867-0.779-2.2-0.783-3.07,0.025
	c-0.873,0.809-0.968,2.143-0.253,3.063c-0.564,0.359-1.165,0.68-1.796,0.949c-0.358-1.109-1.514-1.781-2.673-1.518
	c-1.159,0.266-1.908,1.371-1.75,2.527c-0.686,0.029-1.363,0.004-2.031-0.074c0.244-1.143-0.419-2.303-1.556-2.65
	c-1.136-0.35-2.336,0.232-2.776,1.313c-0.603-0.314-1.178-0.676-1.721-1.082c0.779-0.865,0.783-2.201-0.024-3.07
	c-0.81-0.871-2.142-0.969-3.064-0.252c-0.36-0.566-0.678-1.166-0.949-1.795c1.11-0.361,1.782-1.518,1.518-2.676
	c-0.267-1.156-1.37-1.906-2.525-1.748c-0.032-0.686-0.005-1.363,0.074-2.031c1.141,0.246,2.299-0.42,2.649-1.555
	c0.35-1.137-0.231-2.338-1.312-2.779c0.314-0.602,0.674-1.176,1.081-1.719c0.866,0.779,2.201,0.781,3.072-0.025
	c0.871-0.809,0.967-2.141,0.251-3.064c0.565-0.357,1.167-0.677,1.798-0.947c0.358,1.109,1.513,1.779,2.672,1.515
	c1.16-0.264,1.908-1.37,1.749-2.526c0.686-0.028,1.365-0.004,2.031,0.075c-0.244,1.143,0.42,2.3,1.557,2.65
	c1.136,0.35,2.336-0.232,2.777-1.313c0.601,0.314,1.176,0.676,1.721,1.082c-0.781,0.865-0.784,2.199,0.024,3.07
	s2.142,0.967,3.063,0.252c0.361,0.566,0.679,1.164,0.95,1.795c-1.111,0.361-1.781,1.516-1.517,2.674
	C35.978,56.29,37.082,57.04,38.239,56.882L38.239,56.882z M16.974,59.413c1.096,4.795,5.871,7.795,10.665,6.697
	c4.795-1.094,7.795-5.867,6.699-10.664c-1.096-4.795-5.87-7.795-10.666-6.697C18.876,49.843,15.877,54.618,16.974,59.413z"/>
</svg>
