<?xml version="1.0" encoding="utf-8"?>
<!-- Generator: Adobe Illustrator 16.0.0, SVG Export Plug-In . SVG Version: 6.00 Build 0)  -->
<!DOCTYPE svg PUBLIC "-//W3C//DTD SVG 1.1//EN" "http://www.w3.org/Graphics/SVG/1.1/DTD/svg11.dtd">
<svg version="1.1" id="Layer_1" xmlns="http://www.w3.org/2000/svg" xmlns:xlink="http://www.w3.org/1999/xlink" x="0px" y="0px"
	 width="3133.557px" height="2000px" viewBox="0 0 3133.557 2000" enable-background="new 0 0 3133.557 2000" xml:space="preserve">
<g>
	<g>
		<path fill="#DEEBE9" d="M571.666,1840.101c225.333,27.351,457.48,15.955,931.824-12.666
			c266.354-16.07,801.897,10.556,1069.214,12.666c194.886,1.538,352.887-139.54,352.887-311.672V1003.4V454.955
			c0-172.132-158.331-321.797-352.887-311.672c-180.679,9.402-446.434,46.627-723.461,23.834
			c-329.486-27.108-954.873-50.144-1277.577-23.834C377.598,159.105,218.78,282.824,218.78,454.955v1073.474
			C218.78,1700.561,378.588,1816.664,571.666,1840.101z"/>
	</g>
	<g opacity="0.4">
		<path fill="#FFFFFF" d="M675.19,417.802c0,0-26.741-51.434-94.411-44.989c-67.669,6.444-59.613,58.001-91.835,53.168
			c-32.224-4.833-77.337,0-87.003,32.224c-9.666,32.223-53.168,14.501-54.779,41.891c-1.611,27.389,49.946,46.724,109.559,22.556
			c59.613-24.167,88.615,18.775,172.394,10.999c83.781-7.776,94.161-17.443,143.75-12.61c49.59,4.834,48.413-29.12,25.855-51.677
			C776.163,446.805,684.859,448.952,675.19,417.802z"/>
	</g>
	<g opacity="0.6">
		<path fill="#FFFFFF" d="M1020.208,281.555c0,0-16.643-32.007-58.752-27.997c-42.109,4.012-37.097,36.095-57.148,33.087
			c-20.053-3.008-48.126,0-54.142,20.053c-6.016,20.051-33.085,9.023-34.089,26.067c-1.002,17.045,31.081,29.076,68.178,14.037
			c37.096-15.04,55.144,11.684,107.279,6.844c52.138-4.84,58.596-10.854,89.455-7.848c30.859,3.008,30.127-18.121,16.09-32.158
			C1083.042,299.604,1026.222,300.94,1020.208,281.555z"/>
	</g>
	<g opacity="0.6">
		<path fill="#FFFFFF" d="M2724.246,280.053c0,0-13.141-25.271-46.389-22.104c-33.247,3.167-29.289,28.499-45.121,26.123
			c-15.832-2.375-37.998,0-42.748,15.833c-4.75,15.832-26.122,7.125-26.914,20.581c-0.791,13.458,24.54,22.958,53.83,11.083
			c29.289-11.874,43.538,9.226,84.701,5.404c41.166-3.821,46.266-8.57,70.631-6.196c24.364,2.375,23.785-14.308,12.703-25.391
			C2773.855,294.304,2728.994,295.359,2724.246,280.053z"/>
	</g>
	<g opacity="0.6">
		<path fill="#FFFFFF" d="M2360.821,317.34c0,0-27.7-53.272-97.786-46.597c-70.085,6.676-61.743,60.075-95.116,55.069
			c-33.376-5.007-80.099,0-90.112,33.375c-10.012,33.373-55.065,15.019-56.735,43.386c-1.668,28.369,51.729,48.395,113.472,23.363
			c61.743-25.031,91.78,19.446,178.554,11.391c86.776-8.055,97.526-18.064,148.888-13.062c51.361,5.007,50.142-30.16,26.778-53.522
			S2370.831,349.604,2360.821,317.34z"/>
	</g>
	<g>
		<g>
			<path fill="#CFD3A3" d="M925.713,1416.427c0,0-299.014-732.744-501.21-629.777c-202.196,102.967,312.668,438.751,392.739,655.303
				L925.713,1416.427z"/>
		</g>
		<g>
			<g>
				<path fill="#C4C695" d="M865.138,1431.325c-52.94-150.747-154.902-291.659-231.114-383.324
					c-82.624-99.376-153.581-163.844-154.29-164.483l3.49-5.158c0.709,0.642,71.979,65.389,154.871,165.091
					c76.551,92.071,178.983,233.667,232.257,385.363L865.138,1431.325z"/>
			</g>
		</g>
	</g>
	<g>
		<g>
			<g>
				<path fill="#B2C9C6" d="M2334.793,538.987c15.356,9.68,22.999,7.681,26.793,1.661c3.794-6.018,2.303-13.776-13.053-23.457
					c-27.973-17.634-48.361-15.259-48.361-15.259S2306.414,521.095,2334.793,538.987z"/>
			</g>
			<g>
				<path fill="#B2C9C6" d="M2331.857,656.576c11.396,14.129,19.275,14.709,24.813,10.242c5.536-4.468,6.636-12.29-4.761-26.418
					c-20.761-25.737-40.822-30.088-40.822-30.088S2310.793,630.464,2331.857,656.576z"/>
			</g>
			<g>
				<g>
					<g>
						<path fill="#B2C9C6" d="M2329.4,962.773l3.432-0.191c-0.029-0.526-2.664-53.778,17.647-131.018
							c18.745-71.268,61.418-178.117,158.282-282.438l-2.517-2.338c-97.399,104.896-140.294,212.366-159.125,284.052
							C2326.699,908.562,2329.372,962.238,2329.4,962.773z"/>
					</g>
				</g>
				<g>
					<g>
						<path fill="#B2C9C6" d="M2409.922,679.323l2.953-1.76c-63.931-107.143-19.368-233.365-18.911-234.629l-3.229-1.17
							C2390.271,443.04,2345.143,570.756,2409.922,679.323z"/>
					</g>
				</g>
				<g>
					<g>
						<path fill="#B2C9C6" d="M2463.396,625.245c34.879,1.104,61.791-15.523,62.099-15.719l-1.829-2.908
							c-0.341,0.215-34.828,21.474-75.848,13.433l-0.662,3.371C2452.705,624.509,2458.145,625.078,2463.396,625.245z"/>
					</g>
				</g>
				<g>
					<g>
						<path fill="#B2C9C6" d="M2337.643,885.59c70.787-5.789,129.036-38.37,173.13-96.836c1.527-2.025,2.97-3.938,3.392-4.275
							c-0.005,0.004-0.129,0.102-0.358,0.17l-0.981-3.291c-0.972,0.289-1.604,1.094-4.793,5.327
							c-43.48,57.65-100.899,89.775-170.666,95.48L2337.643,885.59z"/>
					</g>
				</g>
				<g>
					<g>
						<path fill="#B2C9C6" d="M2438.545,851.772l3.345-0.791c-10.76-45.372,21.331-110.573,21.654-111.226l-3.073-1.532
							c-0.081,0.165-8.347,16.849-15.136,39.011C2439.043,797.767,2432.758,827.365,2438.545,851.772z"/>
					</g>
				</g>
				<g>
					<g>
						<path fill="#B2C9C6" d="M2511.661,530.053c-18.686,15.813-20.519,24.919-15.923,30.35c4.596,5.433,13.881,5.131,32.566-10.681
							c34.04-28.806,42.171-52.562,42.171-52.562S2546.198,500.828,2511.661,530.053z"/>
					</g>
				</g>
				<g>
					<g>
						<path fill="#B2C9C6" d="M2516.637,598.134c-22.585,9.442-27.077,17.572-24.332,24.137c2.744,6.565,11.686,9.076,34.271-0.366
							c41.141-17.2,56.056-37.399,56.056-37.399S2558.377,580.683,2516.637,598.134z"/>
					</g>
				</g>
				<g>
					<g>
						<path fill="#B2C9C6" d="M2453.666,728.26c-8.822,15.864-6.405,23.386-0.188,26.843c6.219,3.458,13.883,1.541,22.705-14.322
							c16.068-28.899,12.577-49.127,12.577-49.127S2469.97,698.939,2453.666,728.26z"/>
					</g>
				</g>
				<g>
					<g>
						<path fill="#B2C9C6" d="M2430.007,569.434c-4.697,17.534-0.522,24.242,6.35,26.083s13.841-1.882,18.538-19.415
							c8.557-31.941,0.248-50.712,0.248-50.712S2438.689,537.03,2430.007,569.434z"/>
					</g>
				</g>
				<g>
					<g>
						<path fill="#B2C9C6" d="M2393.701,832.143c0.419,18.148,6.31,23.411,13.424,23.247c7.112-0.166,12.754-5.696,12.332-23.844
							c-0.765-33.057-14.014-48.735-14.014-48.735S2392.924,798.604,2393.701,832.143z"/>
					</g>
				</g>
				<g>
					<g>
						<path fill="#B2C9C6" d="M2495.358,785.193c-12.014,13.607-11.264,21.474-5.93,26.183c5.333,4.707,13.23,4.478,25.243-9.13
							c21.885-24.789,22.806-45.296,22.806-45.296S2517.563,760.043,2495.358,785.193z"/>
					</g>
				</g>
				<g>
					<g>
						<path fill="#B2C9C6" d="M2383.936,427.624c-6.455,23.612-2.811,32.157,4.053,34.033c6.862,1.876,14.345-3.627,20.801-27.239
							c11.758-43.014,5.016-67.2,5.016-67.2S2395.865,383.984,2383.936,427.624z"/>
					</g>
				</g>
			</g>
		</g>
	</g>
	<g>
		<g>
			<g>
				<path fill="#B2C9C6" d="M401.458,1284.53c56.684,55.897-17.323,148.428,69.253,177.473
					c80.324,26.898,83.427,21.34,95.726,64.561c1.819,6.395,2.491,13.066,1.933,19.69c-1.187,14.108-0.373,41.962,21.711,55.833
					c94.981,59.655,115.396-37.609,231.849-53.032c32.61-4.318,71.822,44.16,100.015,38.301
					c4.678-19.148-0.825-103.793-18.424-135.48c-6.439-11.639-15.661-23.363-28.507-34.646
					c-69.72-61.157-116.36-40.933-119.472-170.784c-3.117-129.889-168.799-51.604-217.772-89.121
					c-48.972-37.518-84.83-82.087-160.144-52.749C302.278,1133.952,344.741,1228.674,401.458,1284.53z"/>
			</g>
		</g>
		<g opacity="0.4">
			<g>
				<g>
					<path fill="#74A1BD" d="M785.9,1554.543l4.792-2.104c-0.925-2.112-96.588-214.086-432.286-438.159l-2.909,4.356
						C689.936,1341.868,784.976,1552.44,785.9,1554.543z"/>
				</g>
			</g>
			<g>
				<g>
					<path fill="#74A1BD" d="M657.347,1288.497c70.598-11.945,98.874-39.041,100.042-40.188l-3.666-3.739
						c-0.275,0.27-28.457,27.123-97.253,38.763L657.347,1288.497z"/>
				</g>
			</g>
			<g>
				<g>
					<path fill="#74A1BD" d="M619.307,1331.265c26.742-14.248,45.886-47.077,55.364-94.937c7.099-35.84,6.347-67.954,6.337-68.274
						l-5.232,0.137c0.032,1.252,2.554,125.693-58.934,158.454L619.307,1331.265z"/>
				</g>
			</g>
			<g>
				<g>
					<path fill="#74A1BD" d="M534.505,1266.699c8.188-1.084,12.924-2.16,13.141-2.21l-1.201-5.096
						c-0.997,0.236-100.768,22.786-189.011-36.979l-2.934,4.332C425.604,1274.906,503.999,1270.739,534.505,1266.699z"/>
				</g>
			</g>
			<g>
				<g>
					<path fill="#74A1BD" d="M425.47,1340.922c35.056-9.886,55.43-29.059,66.349-43.402c11.884-15.612,15.395-28.776,15.54-29.329
						l-5.069-1.318c-0.133,0.506-14.057,50.913-78.243,69.012L425.47,1340.922z"/>
				</g>
			</g>
			<g>
				<g>
					<path fill="#74A1BD" d="M591.146,1509.08c77.306-10.237,127.083-65.163,127.637-65.789l-3.91-3.482
						c-0.609,0.684-62.272,68.623-154.413,65.568l-0.173,5.236C570.989,1510.964,581.294,1510.385,591.146,1509.08z"/>
				</g>
			</g>
			<g>
				<g>
					<path fill="#74A1BD" d="M665.573,1481.468l4.038-3.331c-18.691-22.654-59.042-51.067-145.119-57.781
						c-51.202-3.995-95.099,1.679-95.536,1.735l0.688,5.193C431.367,1427.055,602.818,1405.412,665.573,1481.468z"/>
				</g>
			</g>
		</g>
	</g>
	<g>
		<path fill="#B2C9C6" d="M2032.727,1328.453c0,0,349.732-576.382,502.567-475.605c152.834,100.774-319.93,334.3-416.422,505.313
			L2032.727,1328.453z"/>
	</g>
	<g>
		<g>
			<path fill="#9BBCB6" d="M2195.475,1225.631c0,0,402.528-426.972,540.65-305.424c138.12,121.548-347.551,221.984-459.897,350.261
				L2195.475,1225.631z"/>
		</g>
		<g>
			<g>
				<path fill="#74A1BD" d="M2240.426,1251.111c75.977-90.002,188.827-160.906,270.119-204.54
					c88.13-47.304,159.139-73.615,159.847-73.875l-1.626-4.416c-0.709,0.261-72.029,26.687-160.447,74.146
					c-81.652,43.826-195.032,115.081-271.486,205.65L2240.426,1251.111z"/>
			</g>
		</g>
	</g>
	<g>
		<path fill="#B2C9C6" d="M1005.323,1548.516c0,0-85.471-844.739-325.408-801.962c-198.288,35.353,191.832,336.824,253.495,807.989
			L1005.323,1548.516z"/>
	</g>
	<g>
		<g>
			<g>
				<path fill="#CFD3A3" d="M2716.916,1380.281c-83.521,39.268-38.271,168.961-144.125,167.348
					c-105.873-1.672-99.043-9.997-137.203,44.611c0,0-12.033,40.659-47.303,62.54c-190.391,118.113-452.051-74.18-284.804-285.048
					c9.582-12.081,26.13-19.508,44.523-26.893c99.8-39.993,143,0.096,196.453-140.678c53.472-140.814,204.448,8.641,272.453-13.503
					c68.004-22.146,124.39-57.054,195.426,4.052C2883.393,1253.874,2800.457,1341.073,2716.916,1380.281z"/>
			</g>
		</g>
		<g>
			<g>
				<g>
					<path fill="#C4C695" d="M2192.51,1527.322l-4.431-4.146c1.825-1.954,188.124-196.844,641.528-312.444l1.501,5.884
						C2379.406,1331.782,2194.329,1525.378,2192.51,1527.322z"/>
				</g>
			</g>
			<g>
				<g>
					<path fill="#C4C695" d="M2435.609,1285.99c-72.586-40.272-93.058-80.797-93.893-82.501l5.447-2.676
						c0.199,0.401,20.661,40.624,91.394,79.868L2435.609,1285.99z"/>
				</g>
			</g>
			<g>
				<g>
					<path fill="#C4C695" d="M2460.714,1347.41c-23.744-25.885-32.022-69.156-23.938-125.138
						c6.052-41.922,19.253-76.744,19.387-77.09l5.667,2.165c-0.519,1.356-51.239,136.443,3.361,195.962L2460.714,1347.41z"/>
				</g>
			</g>
			<g>
				<g>
					<path fill="#C4C695" d="M2578.319,1309.505c-8.533-4.342-13.298-7.345-13.513-7.482l3.276-5.108
						c0.997,0.642,101.393,63.754,220.909,32.422l1.536,5.868C2694.227,1360.452,2610.117,1325.68,2578.319,1309.505z"/>
				</g>
			</g>
			<g>
				<g>
					<path fill="#C4C695" d="M2668.926,1432.684c-34.518-24.319-49.404-53.138-55.813-73.027
						c-6.976-21.652-5.74-37.397-5.687-38.058l6.05,0.51c-0.049,0.606-4.254,61.087,58.949,105.613L2668.926,1432.684z"/>
				</g>
			</g>
		</g>
	</g>
	<g>
		<path fill="#BED5DC" d="M467.539,1631.629c0,69.779,407.324,126.346,1015.174,126.346c607.848,0,1187.679-56.566,1187.679-126.346
			c0-69.778-579.831-126.344-1187.679-126.344C874.863,1505.285,467.539,1561.851,467.539,1631.629z"/>
	</g>
	<g>
		<path fill="#42428E" d="M2458.349,1649.212c-0.367-3.758-1.941-6.438-4.683-7.964c-6.013-3.346-15.767-0.273-15.866-0.242
			l-3.391,1.09l2.426-2.344c0.069-0.067,7.001-6.836,5.575-11.742c-0.54-1.86-2.294-3.257-5.21-4.152
			c-12.298-3.774-22.36,18.133-22.849,19.22c-0.01,0.023-0.02,0.04-0.02,0.04l-1.658-0.561c0.004-0.01,0.009-0.021,0.014-0.035
			c0.17-0.389,2.006-4.823-0.237-7.87c-1.376-1.869-4.063-2.899-7.985-3.063c-3.666-0.152-6.206,0.6-7.541,2.233
			c-2.57,3.146-0.111,8.673-0.087,8.729l-1.653,0.575c-0.118-0.259-2.843-6.365,0.289-10.206c1.708-2.095,4.747-3.069,9.076-2.887
			c4.537,0.189,7.699,1.461,9.402,3.782c0.85,1.155,1.231,2.436,1.35,3.666c4.029-6.957,12.333-18.212,22.487-15.095
			c3.517,1.079,5.652,2.844,6.349,5.242c1.15,3.971-2.033,8.632-4.189,11.211c3.603-0.753,9.986-1.515,14.674,1.095
			c3.234,1.801,5.084,4.877,5.5,9.146L2458.349,1649.212z"/>
	</g>
	<g>
		<path fill="#42428E" d="M1864.374,1675.499c-0.625-0.328-15.28-8.115-15.28-14.944c0-2.107,1.348-3.883,4.005-5.28
			c2.922-1.539,5.957-1.907,9.029-1.1c7.42,1.96,12.784,10.201,14.21,12.599c7.557-3.929,13.182-4.883,16.727-2.832
			c5.065,2.931,3.807,10.763,3.75,11.094l-1.472-0.189c0.013-0.073,1.178-7.348-3.101-9.82c-3.13-1.805-8.453-0.722-15.819,3.223
			l-0.707,0.377l-0.354-0.654c-0.058-0.104-5.773-10.471-13.666-12.55c-2.646-0.697-5.284-0.372-7.832,0.968
			c-2.207,1.161-3.282,2.523-3.282,4.166c0,6.101,14.414,13.753,14.558,13.829L1864.374,1675.499z"/>
	</g>
	<g>
		<path fill="#42428E" d="M1439.699,1537.003c-0.059-0.051-5.875-5.267-10.633-11.851c-6.494-8.987-8.04-16.121-4.597-21.206
			c1.286-1.895,2.84-2.76,4.587-2.594c5.956,0.595,12.479,14.151,15.856,22.227c-1.119-10.088-2.393-30.03,3.921-36.773
			c1.374-1.47,3.052-2.266,4.985-2.367c1.887-0.11,3.428,0.49,4.596,1.754c5.691,6.165,0.547,27.941-2.281,38.131
			c2.108-2.988,5.102-6.32,8.158-6.702c1.451-0.18,2.599,0.292,3.245,1.331c1.844,2.962-0.702,10.513-8.156,18.022l-1.123-0.853
			c7.329-7.383,9.34-14.354,7.974-16.549c-0.348-0.559-0.897-0.765-1.729-0.665c-3.934,0.491-8.522,7.955-9.959,10.789l-1.397-0.438
			c0.111-0.348,10.985-34.805,4.111-42.249c-0.859-0.931-1.957-1.343-3.35-1.272c-1.522,0.08-2.807,0.698-3.923,1.892
			c-7.994,8.54-2.874,41.383-2.822,41.714l-1.444,0.287c-2.652-7.303-10.846-26.387-16.83-26.984
			c-1.14-0.111-2.167,0.529-3.141,1.965c-7.553,11.15,14.787,31.279,15.013,31.481L1439.699,1537.003z"/>
	</g>
	<g>
		<g>
			<path fill="#BED5DC" d="M2241.975,1564.368c0,0-30.033-26.785-19.699-42.04c10.333-15.254,27.772,32.769,27.772,32.769
				s-9.043-56.785,9.688-57.771c18.73-0.986,0,57.771,0,57.771s6.942-13.7,13.725-14.548c6.781-0.848,4.845,11.618-7.268,23.819
				H2241.975z"/>
		</g>
		<g>
			<path fill="#42428E" d="M2244.127,1565.039c-1.416-1.262-34.52-31.11-22.508-48.846c1.903-2.804,4.195-4.09,6.779-3.833
				c5.182,0.518,11.267,7.674,18.087,21.269c2.077,4.141,3.917,8.279,5.357,11.705c-1.654-14.866-3.573-44.478,5.781-54.471
				c2.031-2.17,4.509-3.347,7.365-3.498c2.78-0.138,5.069,0.726,6.791,2.593c8.413,9.108,0.811,41.288-3.369,56.346
				c3.117-4.417,7.538-9.34,12.056-9.904c2.142-0.263,3.84,0.432,4.795,1.965c2.726,4.378-1.036,15.535-12.051,26.632l-1.66-1.26
				c10.828-10.909,13.801-21.211,11.779-24.451c-0.512-0.822-1.317-1.14-2.553-0.981c-5.811,0.726-12.595,11.752-14.717,15.939
				l-2.064-0.647c0.042-0.131,4.147-13.073,6.902-27.246c3.603-18.531,3.315-30.698-0.826-35.184
				c-1.27-1.374-2.895-1.998-4.95-1.881c-2.25,0.118-4.146,1.032-5.798,2.796c-11.813,12.618-4.248,61.151-4.169,61.64l-2.137,0.424
				c-3.918-10.792-16.026-38.99-24.868-39.874c-1.684-0.17-3.203,0.782-4.64,2.905c-11.156,16.468,21.849,46.219,22.184,46.518
				L2244.127,1565.039z"/>
		</g>
	</g>
	<g>
		<g>
			<path fill="#BED5DC" d="M665.484,1600.448c0,0-28.388-25.317-18.62-39.736c9.768-14.419,26.251,30.975,26.251,30.975
				s-8.547-53.676,9.157-54.607c17.705-0.933,0,54.607,0,54.607s6.563-12.951,12.974-13.752c6.41-0.801,4.578,10.982-6.868,22.514
				H665.484z"/>
		</g>
		<g>
			<path fill="#42428E" d="M667.516,1601.084c-1.337-1.192-32.627-29.406-21.271-46.169c1.794-2.65,3.944-3.875,6.408-3.625
				c4.897,0.489,10.648,7.253,17.094,20.104c1.965,3.914,3.703,7.826,5.065,11.063c-1.563-14.051-3.378-42.039,5.463-51.485
				c1.921-2.051,4.263-3.163,6.962-3.306c2.623-0.128,4.791,0.687,6.42,2.45c7.951,8.608,0.764,39.025-3.185,53.258
				c2.946-4.174,7.125-8.826,11.393-9.359c2.018-0.254,3.629,0.407,4.533,1.857c2.576,4.138-0.979,14.686-11.391,25.172l-1.567-1.19
				c10.234-10.311,13.042-20.048,11.134-23.112c-0.486-0.778-1.251-1.074-2.415-0.928c-5.497,0.688-11.906,11.108-13.911,15.066
				l-1.95-0.612c0.039-0.123,3.92-12.358,6.523-25.753c3.405-17.518,3.135-29.017-0.78-33.257c-1.201-1.299-2.714-1.887-4.68-1.778
				c-2.127,0.112-3.919,0.978-5.48,2.644c-11.165,11.927-4.014,57.801-3.94,58.263l-2.019,0.4
				c-3.705-10.199-15.148-36.854-23.505-37.689c-1.59-0.154-3.027,0.739-4.386,2.745c-10.549,15.574,20.651,43.688,20.968,43.97
				L667.516,1601.084z"/>
		</g>
	</g>
	<g>
		<path fill="#42428E" d="M1045.329,1694.254c-0.066-0.059-6.62-5.936-11.982-13.356c-7.318-10.128-9.062-18.167-5.182-23.896
			c1.449-2.138,3.183-3.123,5.171-2.923c3.951,0.395,8.592,5.852,13.792,16.22c1.585,3.157,2.988,6.314,4.088,8.926
			c-1.262-11.337-2.727-33.92,4.407-41.541c1.55-1.656,3.44-2.553,5.617-2.668c2.125-0.104,3.867,0.554,5.181,1.977
			c6.414,6.947,0.617,31.489-2.57,42.973c2.377-3.368,5.749-7.122,9.194-7.553c1.628-0.202,2.927,0.329,3.656,1.499
			c2.079,3.338-0.791,11.848-9.191,20.311l-1.266-0.961c8.258-8.32,10.523-16.175,8.984-18.648
			c-0.391-0.627-1.008-0.868-1.948-0.749c-4.435,0.554-9.606,8.963-11.224,12.157l-1.574-0.495c0.032-0.098,3.163-9.97,5.263-20.778
			c2.747-14.133,2.529-23.412-0.629-26.833c-0.969-1.048-2.21-1.516-3.775-1.434c-1.717,0.09-3.163,0.786-4.421,2.132
			c-9.009,9.623-3.239,46.636-3.181,47.009l-1.628,0.324c-2.99-8.23-12.223-29.735-18.967-30.409
			c-1.284-0.136-2.441,0.595-3.538,2.214c-8.513,12.566,16.663,35.25,16.917,35.478L1045.329,1694.254z"/>
	</g>
	<g>
		<g>
			<g>
				<path fill="#EAA678" d="M1686.089,738.645c-5.937-13.052,35.9-37.294,35.9-37.294c4.623-1.158,43.307,79.705,121.368,84.32
					c27.799,1.645,78.712-28.61,83.654-34.105c0.658-0.73,47.656,39.911,47.656,39.911c-8.949,9.953-28.274,44.892-64.372,59.223
					C1835.624,880.348,1732.899,846.567,1686.089,738.645z"/>
			</g>
		</g>
		<g>
			<path fill="#2F1A31" d="M2018.879,1583.602c0,0-0.508,20.175-14.156,25.867c-13.652,5.689-53.207,10.823-38.427,23.795
				c8.48,7.445,48.448,2.634,59.734,2.634c11.285,0,21.878,4.92,30.266-2.634c9.223-8.31,0-49.662,0-49.662
				s-9.739,5.072-18.496,4.847C2025.179,1588.118,2018.879,1583.602,2018.879,1583.602z"/>
		</g>
		<g>
			<path fill="#436E8E" d="M1901.099,974.752c0,0-2.722,91.047,26.334,265.709c20.978,126.094,45.741,253.156,57.889,314.072
				c4.347,21.789,22.673,37.722,44.393,38.594l11.672,0.469c23.483,0.942,42.544-19.231,40.827-43.213l-29.474-412.115
				l-7.263-135.646L1901.099,974.752z"/>
		</g>
		<g>
			<path fill="#2F1A31" d="M2148.17,1583.602c0,0-0.504,20.175-14.156,25.867c-13.65,5.689-53.205,10.823-38.426,23.795
				c8.48,7.445,48.449,2.634,59.73,2.634c11.287,0,21.883,4.92,30.266-2.634c9.228-8.31,0-49.662,0-49.662
				s-9.734,5.072-18.493,4.847C2154.474,1588.118,2148.17,1583.602,2148.17,1583.602z"/>
		</g>
		<g>
			<path fill="#436E8E" d="M2030.393,974.752c0,0-2.726,91.047,26.334,265.709c20.975,126.094,45.739,253.156,57.888,314.072
				c4.346,21.789,22.671,37.722,44.393,38.594l11.67,0.469c23.483,0.942,42.544-19.231,40.829-43.213l-29.474-412.115
				l-7.262-135.646L2030.393,974.752z"/>
		</g>
		<g>
			<path fill="#2F1A31" d="M2189.045,1074.535c-0.28,10.984-66.706,15.349-148.861,12.783
				c-82.154-2.563-147.807-13.924-147.523-24.906c0.279-10.987,66.387-17.435,148.541-14.871
				C2123.356,1050.102,2189.327,1063.55,2189.045,1074.535z"/>
		</g>
		<g>
			<path fill="#CED891" d="M2168.933,763.541c0,0-14.527-57.576-121.712-58.162c-154.57-0.842-140.26,141.185-154.561,357.033
				c0,0,152.252-21.533,296.46,9.42C2189.12,1071.832,2202.497,851.52,2168.933,763.541z"/>
		</g>
		<g>
			<path fill="#CED891" d="M2208.498,755.286l-70.007,38.73c0,0-153.283,13.919-193.977,7.217
				c-40.692-6.703-51.854-36.582-51.854-36.582s43.338-44.845,117.003-56.817c6.919-1.134,14.1-1.965,21.542-2.45
				c12.494-0.806,25.006-0.637,37.236,0.74C2161.805,716.647,2208.498,755.286,2208.498,755.286z"/>
		</g>
		<g>
			<path fill="#F7B686" d="M2061.955,692.202l-8.09-26.113l-2.355-7.602l-13.846-44.699l-1.821,44.463l-1.091,26.688l-0.344,8.449
				c-0.234,5.732-3.731,6.939-7.984,11.922c-1.726,2.021-12.754,14.262-0.234,19.791c15.59,6.892,44.743-3.542,55.825-17.206
				C2081.929,707.875,2064.571,700.642,2061.955,692.202z"/>
		</g>
		<g>
			<path fill="#436E8E" d="M1905.596,1071.295c0,0,89.017-26.188,273.375,9.763l1.42,26.521l-270.256,9.551L1905.596,1071.295z"/>
		</g>
		<g>
			<path fill="#2F1A31" d="M2209.955,756.898c5.936,8.398-2.809,24.988-19.528,37.055s-35.086,15.04-41.023,6.644
				c-5.933-8.396,2.81-24.988,19.529-37.055C2185.654,751.475,2204.021,748.501,2209.955,756.898z"/>
		</g>
		<g>
			<g>
				<path fill="#F7B686" d="M2229.178,1093.486c-6.443-70.949-21.229-172.385-55.068-252.719
					c-7.84-18.613-11.107-25.605-17.22-35.766c-4.923-8.18,3.888-26.154,17.789-34.729c13.046-8.043,33.355-6.725,36.567-2.743
					c5.467,6.773,11.299,19.748,20.371,40.349c31.532,71.583,50.424,164.051,58.078,283.265L2229.178,1093.486z"/>
			</g>
		</g>
		<g>
			<g>
				<path fill="#E28569" d="M2002.029,597.004c0,0-2.822,10.82,0,24.385c2.823,13.565,16.622-19.778,16.622-19.778L2002.029,597.004
					z"/>
			</g>
			<g>
				
					<ellipse transform="matrix(-0.9915 -0.1302 0.1302 -0.9915 3980.1118 1521.1311)" fill="#F7B686" cx="2039.775" cy="630.472" rx="39.723" ry="47.899"/>
			</g>
			<g>
				<path fill="#E28569" d="M2080.15,621.932l-19.227-1.997c-4.228-0.437-8.094-2.709-10.383-6.29
					c-3.938-6.166-8.68-9.332-26.617-8.659c-22.712,0.853-37.708-12.687-40.162-24.572c-2.504-12.13,9.12-20.352,20.526-14.568
					c11.406,5.784,6.511-8.398,17.479-9.904c20.5-2.813,24.34,12.989,41.126,12.476c22.004-0.675,61.424,16.048,42.728,54.787
					L2080.15,621.932z"/>
			</g>
			<g>
				<g>
					<path fill="#060633" d="M2037.684,628.466c-0.207-0.13-0.348-0.354-0.37-0.615c-0.037-0.441,0.291-0.831,0.735-0.868
						c0.259-0.022,6.258-1.094,9.279,5.282c0.191,0.402,0.036,0.883-0.362,1.081c-0.397,0.198-0.799-0.016-1.081-0.361
						c-2.805-3.463-7.488-4.413-7.704-4.397C2037.998,628.602,2037.828,628.557,2037.684,628.466z"/>
				</g>
			</g>
			<g>
				<path fill="#060633" d="M2041.177,638.796c-0.509,1.853-2.006,3.059-3.351,2.691c-1.347-0.367-2.027-2.167-1.521-4.021
					c0.508-1.853,2.008-3.059,3.352-2.69C2041.002,635.142,2041.684,636.942,2041.177,638.796z"/>
			</g>
			<g>
				<g>
					<path fill="#060633" d="M2007.895,626.075c-0.185-0.032-0.351-0.174-0.436-0.401c-0.143-0.385-0.002-0.871,0.314-1.089
						c0.185-0.128,4.319-3.58,8.209,0.933c0.244,0.284,0.258,0.781,0.017,1.125c-0.241,0.346-0.594,0.317-0.89,0.121
						c-2.969-1.969-6.662-0.888-6.818-0.783C2008.163,626.069,2008.024,626.098,2007.895,626.075z"/>
				</g>
			</g>
			<g>
				<path fill="#060633" d="M2015.238,634.328c0.239,1.905-0.689,3.592-2.074,3.765c-1.381,0.174-2.697-1.232-2.937-3.139
					c-0.238-1.906,0.69-3.592,2.074-3.765C2013.684,631.015,2015,632.421,2015.238,634.328z"/>
			</g>
			<g>
				<path fill="#E28569" d="M2105.621,623.203c0,0-13.274,28.654-32.107,30.756c0,0,15.225-21.837-16.865-35.146
					C2056.648,618.814,2086.113,614.177,2105.621,623.203z"/>
			</g>
			<g>
				<path fill="#F7B686" d="M2079.076,639.017c-4.027,2.562-9.148,1.721-11.438-1.877c-2.291-3.6-0.882-8.594,3.146-11.157
					c4.025-2.561,9.147-1.721,11.436,1.877C2084.513,631.459,2083.104,636.454,2079.076,639.017z"/>
			</g>
			<g>
				<path fill="#FFFFFF" d="M2011.79,652.594c0,0,12.382,3.351,25.91,2.041c0,0-1.983,12.527-15.675,10.031
					C2014.066,663.216,2011.79,652.594,2011.79,652.594z"/>
			</g>
			<g>
				<path fill="#E28569" d="M2006.73,563.953c-0.109,0-0.221-0.001-0.332-0.006l0.034-1.082c5.266,0.197,5.698-4.026,5.714-4.206
					l1.082,0.102C2013.224,558.813,2012.685,563.953,2006.73,563.953z"/>
			</g>
			<g>
				<path fill="#FFFFFF" d="M2017.488,598.618c-0.062-0.018-6.243-1.831-12.469-5.188c-8.292-4.47-12.9-9.645-13.328-14.964
					c-0.298-3.703,0.351-6.186,1.983-7.594c2.602-2.24,7.103-1.189,11.078-0.263c0.592,0.137,1.165,0.271,1.721,0.391l-0.116,0.529
					c-0.558-0.121-1.136-0.256-1.726-0.395c-3.85-0.896-8.21-1.914-10.603,0.148c-1.493,1.286-2.083,3.621-1.796,7.139
					c0.997,12.44,25.161,19.605,25.405,19.678L2017.488,598.618z"/>
			</g>
			<g>
				<path fill="#FFFFFF" d="M2065.076,573.388c-8.77,0-15.321-2.282-19.567-4.455c-5.808-2.972-8.612-6.296-8.73-6.435l0.414-0.348
					c0.03,0.033,2.87,3.392,8.587,6.312c5.28,2.695,14.159,5.554,26.48,3.889l0.07,0.536
					C2069.767,573.236,2067.347,573.388,2065.076,573.388z"/>
			</g>
		</g>
		<g>
			<path fill="#E08B65" d="M2245.918,933.711c-5.053,0-9.856-5.269-11.033-12.408c-0.599-3.631-0.189-7.226,1.152-10.119
				c1.423-3.066,3.718-5.002,6.461-5.455c5.466-0.906,10.937,4.622,12.205,12.311l0,0c1.268,7.688-2.145,14.675-7.611,15.576
				C2246.701,933.679,2246.309,933.711,2245.918,933.711z M2243.68,908.288c-0.253,0-0.501,0.018-0.752,0.059
				c-1.851,0.308-3.441,1.71-4.482,3.95c-1.12,2.418-1.452,5.464-0.942,8.576c1.015,6.14,5.207,10.771,9.159,10.124
				c3.952-0.653,6.436-6.389,5.422-12.526C2251.138,912.718,2247.395,908.288,2243.68,908.288z"/>
		</g>
		<g>
			<g>
				<path fill="#EAA678" d="M1683.213,711.069L1683.213,711.069c-2.766,2.166-6.803,1.674-8.966-1.091l-33.61-42.941
					c-2.166-2.764-1.673-6.8,1.094-8.966l0,0c2.766-2.165,6.801-1.674,8.965,1.094l33.609,42.937
					C1686.47,704.868,1685.979,708.904,1683.213,711.069z"/>
			</g>
			<g>
				<path fill="#EAA678" d="M1696.088,700.99L1696.088,700.99c-2.766,2.166-6.801,1.675-8.966-1.091l-37.587-48.023
					c-2.166-2.766-1.673-6.8,1.094-8.965l0,0c2.766-2.166,6.8-1.675,8.965,1.093l37.588,48.021
					C1699.347,694.79,1698.854,698.824,1696.088,700.99z"/>
			</g>
			<g>
				<path fill="#EAA678" d="M1719.113,723.273l-2.273-0.017c-4.246-0.033-7.695-3.536-7.661-7.783l0.33-41.379
					c0.035-4.245,3.537-7.694,7.786-7.66l2.271,0.02c4.248,0.031,7.693,3.535,7.662,7.782l-0.332,41.378
					C1726.863,719.86,1723.359,723.308,1719.113,723.273z"/>
			</g>
			<g>
				<path fill="#EAA678" d="M1708.964,690.913L1708.964,690.913c-2.766,2.166-6.8,1.673-8.965-1.093l-30.132-38.494
					c-2.165-2.767-1.673-6.803,1.095-8.968l0,0c2.767-2.165,6.8-1.673,8.966,1.094l30.129,38.493
					C1712.223,684.709,1711.73,688.748,1708.964,690.913z"/>
			</g>
			<g>
				<path fill="#EAA678" d="M1693.616,742.365c0,0-33.957-13.395-41.354-38.252c-2.561-8.605,36.16-37.233,45.204-32.833
					c9.044,4.398,26.858,32.381,26.858,32.381L1693.616,742.365z"/>
			</g>
			<g>
				<path fill="#EAA678" d="M1670.452,721.116L1670.452,721.116c-2.759,2.16-6.784,1.671-8.947-1.09l-30.066-38.415
					c-2.159-2.762-1.671-6.785,1.092-8.946l0,0c2.76-2.163,6.786-1.671,8.946,1.091l30.07,38.412
					C1673.707,714.93,1673.214,718.956,1670.452,721.116z"/>
			</g>
		</g>
		<g>
			<path fill="#2F1A31" d="M1920.234,796.004l-1.701-0.47c4.513-16.33,19.635-36.722,19.787-36.927l1.414,1.054
				C1939.584,759.865,1924.658,779.997,1920.234,796.004z"/>
		</g>
		<g>
			<path fill="#2F1A31" d="M2061.627,1276.033c-0.12-0.744-12.07-74.862-20.262-101.301c-8.118-26.187-43.061-48.194-43.413-48.413
				l0.932-1.5c0.359,0.225,35.856,22.586,44.166,49.394c8.229,26.553,20.198,100.796,20.317,101.541L2061.627,1276.033z"/>
		</g>
		<g>
			<path fill="#E28569" d="M2384.378,1358.403c-17.196,10.509-249.291,15.286-261.736,0c-12.445-15.285-16.216-171.725,0-182.454
				c16.215-10.729,246.451-18.092,261.736,0S2401.574,1347.895,2384.378,1358.403z"/>
			<g>
				<path fill="#E28569" d="M2301.007,1177.018h-14.387c0-13.536-0.335-25.191-4.459-30.739c-2.6-3.497-7.952-7.073-27.945-7.073
					c-16.172,0-24.569,1.938-28.081,6.483c-3.747,4.851-4.432,14.356-4.432,31.329h-14.387c0-17.859,0.535-31.189,7.434-40.123
					c7.742-10.021,21.377-12.075,39.466-12.075c21.251,0,32.692,3.731,39.491,12.878
					C2300.482,1146.812,2301.007,1159.743,2301.007,1177.018z"/>
			</g>
			<g>
				<path fill="#2F1A31" d="M2254.743,1269.75c-99.717,0-104.948-14.939-122.283-64.439c-2.05-5.852-4.372-12.483-7.015-19.53
					l1.914-0.719c2.65,7.069,4.978,13.712,7.029,19.573c17.408,49.71,22.087,63.071,120.354,63.071
					c100.284,0,107.635-25.451,120.979-71.656c1.019-3.527,2.071-7.17,3.2-10.924l1.958,0.589
					c-1.127,3.747-2.178,7.381-3.193,10.902c-6.681,23.128-11.957,41.395-28.425,53.955
					C2331.873,1263.836,2302.722,1269.75,2254.743,1269.75z"/>
			</g>
			<path fill="#2F1A31" d="M2273.766,1282.528h-32.369c-3.669,0-6.644-2.975-6.644-6.644v-10.903c0-3.67,2.975-6.645,6.644-6.645
				h32.369c3.67,0,6.645,2.975,6.645,6.645v10.903C2280.41,1279.553,2277.436,1282.528,2273.766,1282.528z"/>
		</g>
		<g>
			<g>
				<path fill="#F7B686" d="M2271.645,1114.758L2271.645,1114.758c3.453,0.636,5.948,2.961,5.541,5.167l-6.31,34.224
					c-0.407,2.206-3.565,3.489-7.021,2.854l0,0c-3.451-0.637-5.948-2.963-5.544-5.167l6.313-34.227
					C2265.027,1115.404,2268.188,1114.12,2271.645,1114.758z"/>
			</g>
			<g>
				<path fill="#F7B686" d="M2255.563,1111.793L2255.563,1111.793c3.453,0.638,5.948,2.964,5.541,5.168l-7.057,38.276
					c-0.405,2.206-3.565,3.488-7.017,2.853l0,0c-3.456-0.638-5.953-2.962-5.546-5.168l7.057-38.276
					C2248.947,1112.44,2252.106,1111.156,2255.563,1111.793z"/>
			</g>
			<g>
				<path fill="#F7B686" d="M2256.986,1079.801l1.493,1.714c2.792,3.203,2.452,8.107-0.751,10.898l-31.206,27.17
					c-3.203,2.791-8.109,2.452-10.897-0.752l-1.492-1.717c-2.789-3.2-2.449-8.104,0.754-10.894l31.203-27.171
					C2249.296,1076.261,2254.199,1076.598,2256.986,1079.801z"/>
			</g>
			<g>
				<path fill="#F7B686" d="M2239.479,1108.829L2239.479,1108.829c3.456,0.638,5.948,2.962,5.542,5.167l-5.653,30.684
					c-0.407,2.206-3.565,3.488-7.021,2.851l0,0c-3.454-0.636-5.948-2.962-5.544-5.168l5.656-30.682
					C2232.865,1109.476,2236.026,1108.194,2239.479,1108.829z"/>
			</g>
			<g>
				<path fill="#F7B686" d="M2288.179,1086.246c0,0,12.474,34.305-1.241,56.317c-4.746,7.619-51.846-2.407-54.546-12.094
					c-2.695-9.689,6.454-41.574,6.454-41.574L2288.179,1086.246z"/>
			</g>
			<g>
				<path fill="#F7B686" d="M2287.616,1117.67L2287.616,1117.67c3.449,0.636,5.938,2.956,5.534,5.159l-5.645,30.617
					c-0.407,2.201-3.557,3.48-7.006,2.846l0,0c-3.449-0.636-5.937-2.955-5.534-5.157l5.646-30.618
					C2281.018,1118.317,2284.17,1117.035,2287.616,1117.67z"/>
			</g>
		</g>
	</g>
	<g>
		<g>
			<path fill="#EDA189" d="M1585.723,268.603c240.76-0.026,240.642,79.586,225.055,149.458
				c-11.786,52.83-118.41,134.686-310.953,120.067C1307.281,523.51,1235.676,268.642,1585.723,268.603z"/>
			<g>
				<g>
					<path fill="#FFFFFF" d="M1484.691,431.796l-6.059-56.348l7.906-0.851l6.061,56.348L1484.691,431.796z M1487.035,407.279
						l-0.809-7.52l31.275-3.363l0.808,7.519L1487.035,407.279z M1516.704,428.355l-6.06-56.349l7.905-0.851l6.061,56.348
						L1516.704,428.355z"/>
				</g>
				<g>
					<path fill="#FFFFFF" d="M1554.706,424.856c-5.607,0.603-10.114-0.487-13.522-3.27c-3.41-2.782-5.427-7.068-6.049-12.857
						l-0.486-4.532c-0.645-5.995,0.334-10.789,2.941-14.391c2.604-3.6,6.594-5.687,11.969-6.266
						c5.062-0.544,9.184,0.901,12.363,4.335c3.179,3.435,5.127,8.498,5.848,15.19l0.283,2.635l-27.127,2.918l-0.685-6.356
						l19.611-2.108c-0.582-3.229-1.703-5.683-3.36-7.362c-1.657-1.678-3.713-2.385-6.166-2.12c-2.972,0.319-5.179,1.55-6.62,3.691
						c-1.443,2.142-1.971,5.008-1.584,8.6l0.55,5.115c0.356,3.334,1.51,5.795,3.459,7.389c1.948,1.594,4.538,2.217,7.768,1.87
						c3.384-0.363,6.249-1.913,8.595-4.648l5.753,4.636c-1.785,2.124-3.861,3.845-6.229,5.158
						C1559.648,423.795,1557.212,424.586,1554.706,424.856z"/>
				</g>
				<g>
					<path fill="#FFFFFF" d="M1582.573,364.271l4.921,45.768c0.103,0.957,0.396,1.683,0.882,2.18
						c0.483,0.497,1.114,0.703,1.889,0.619l3.721-0.399l0.809,7.519l-4.651,0.5c-2.971,0.319-5.384-0.361-7.236-2.044
						c-1.854-1.684-2.963-4.215-3.325-7.6l-4.915-45.692L1582.573,364.271z"/>
				</g>
				<g>
					<path fill="#FFFFFF" d="M1605.554,361.799l4.922,45.768c0.103,0.957,0.396,1.682,0.881,2.18c0.485,0.497,1.114,0.703,1.89,0.62
						l3.722-0.4l0.808,7.519l-4.651,0.5c-2.971,0.32-5.385-0.36-7.237-2.042c-1.854-1.685-2.961-4.218-3.325-7.602l-4.914-45.691
						L1605.554,361.799z"/>
				</g>
				<g>
					<path fill="#FFFFFF" d="M1642.176,415.448c-5.271,0.567-9.519-0.523-12.74-3.274c-3.224-2.75-5.133-6.902-5.73-12.457
						l-0.704-6.551c-0.592-5.503,0.396-9.92,2.966-13.256c2.566-3.333,6.486-5.282,11.759-5.85
						c5.271-0.567,9.515,0.505,12.733,3.215c3.219,2.714,5.124,6.821,5.716,12.323l0.718,6.667
						c0.594,5.527-0.393,9.967-2.959,13.313C1651.365,412.926,1647.446,414.882,1642.176,415.448z M1641.328,407.934
						c2.765-0.298,4.817-1.387,6.156-3.27c1.34-1.882,1.84-4.396,1.502-7.55l-0.717-6.667c-0.336-3.125-1.358-5.458-3.065-7.001
						c-1.71-1.541-3.944-2.162-6.708-1.864c-2.766,0.298-4.807,1.379-6.121,3.244c-1.314,1.867-1.804,4.363-1.468,7.489l0.718,6.667
						c0.338,3.152,1.35,5.505,3.032,7.063C1636.34,407.602,1638.563,408.231,1641.328,407.934z"/>
				</g>
			</g>
			<path fill="#EDA189" d="M1717.503,462.088c15.661,73.812,69.853,92.697,69.853,92.697
				c-65.154,7.738-130.933-34.516-130.933-34.516C1656.423,515.539,1717.503,462.088,1717.503,462.088z"/>
		</g>
		<g>
			<path fill="#2F1A31" d="M1741.818,532.624h-0.004c-41.411-0.001-80.727-16.231-96.261-23.507
				c-46.5,15.091-98.062,22.742-153.27,22.742c-2.549,0-5.118-0.017-7.697-0.05c-45.125-0.582-87.403-15.066-119.045-40.785
				c-29.966-24.356-47.618-56.861-48.428-89.179c-0.875-34.871,17.884-67.442,52.819-91.712
				c41.245-28.655,102.521-45.73,182.123-50.752c19.755-1.246,38.527-1.878,55.798-1.878c86.534,0,141.662,15.288,168.536,46.739
				c22.988,26.903,21.079,61.121,16.847,87.927c-4.503,28.514-35.799,62.273-81.813,88.341
				c23.385,37.293,56.058,46.842,56.389,46.935l6.235,1.753l-6.37,1.167C1759.487,531.864,1750.787,532.624,1741.818,532.624z
				 M1645.755,505.897l0.539,0.254c14.964,7.058,54.228,23.473,95.521,23.474h0.004c6.771,0,13.381-0.441,19.723-1.315
				c-10.742-4.522-35.153-17.506-53.496-47.558l-0.812-1.329l1.359-0.761c54.956-30.757,78.228-65.088,81.682-86.96
				c4.131-26.17,6.028-59.539-16.164-85.51c-26.27-30.743-80.652-45.688-166.256-45.688c-17.207,0-35.917,0.63-55.609,1.873
				c-79.048,4.987-139.811,21.883-180.601,50.221c-43.678,30.344-52.132,65.241-51.531,89.173
				c0.788,31.439,18.035,63.123,47.32,86.926c31.121,25.295,72.74,39.54,117.191,40.113c2.566,0.033,5.122,0.05,7.659,0.05
				c55.115,0,106.56-7.664,152.906-22.778L1645.755,505.897z"/>
		</g>
	</g>
	<g>
		<g>
			<g>
				<g>
					<path fill="#EAA678" d="M1273,706.739l2.274-0.017c4.247-0.033,7.694-3.537,7.661-7.783l-0.33-41.379
						c-0.035-4.246-3.537-7.694-7.786-7.66l-2.272,0.02c-4.248,0.031-7.693,3.535-7.662,7.782l0.332,41.378
						C1265.251,703.325,1268.755,706.774,1273,706.739z"/>
				</g>
				<g>
					<path fill="#EAA678" d="M1298.498,725.83c0,0,33.957-13.395,41.354-38.252c2.56-8.605-36.16-37.233-45.204-32.833
						c-9.044,4.398-26.859,32.381-26.859,32.381L1298.498,725.83z"/>
				</g>
				<g>
					<g>
						<path fill="#532E57" d="M1304.997,729.624c-11.415-27.75-41.625-45.125-41.625-45.125
							c-5.25,4.252-35.795,69.498-99.125,70.125c-50.5,0.5-91.5-34.08-137.013-37.679c-18.115-1.433-9.789,57.997-9.789,57.997
							c8.95,9.953,28.275,44.892,64.372,59.223C1156.49,863.814,1258.186,837.546,1304.997,729.624z"/>
					</g>
				</g>
				<g>
					<g>
						<path fill="#EAA678" d="M1308.901,694.534L1308.901,694.534c2.766,2.166,6.803,1.674,8.966-1.092l33.61-42.94
							c2.166-2.765,1.672-6.801-1.094-8.966l0,0c-2.766-2.165-6.801-1.675-8.965,1.094l-33.61,42.937
							C1305.645,688.334,1306.135,692.369,1308.901,694.534z"/>
					</g>
					<g>
						<path fill="#EAA678" d="M1296.026,684.455L1296.026,684.455c2.766,2.166,6.801,1.675,8.966-1.091l37.586-48.023
							c2.166-2.766,1.672-6.8-1.093-8.965l0,0c-2.766-2.166-6.801-1.675-8.965,1.093l-37.588,48.021
							C1292.767,678.256,1293.261,682.29,1296.026,684.455z"/>
					</g>
					<g>
						<path fill="#EAA678" d="M1283.15,674.379L1283.15,674.379c2.766,2.166,6.8,1.673,8.965-1.094l30.131-38.493
							c2.166-2.767,1.674-6.804-1.094-8.968l0,0c-2.766-2.166-6.8-1.673-8.966,1.094l-30.129,38.493
							C1279.892,668.175,1280.384,672.214,1283.15,674.379z"/>
					</g>
					<g>
						<path fill="#EAA678" d="M1321.662,704.581L1321.662,704.581c2.759,2.161,6.784,1.671,8.947-1.089l30.066-38.415
							c2.16-2.762,1.671-6.785-1.091-8.947l0,0c-2.76-2.163-6.787-1.67-8.946,1.092l-30.07,38.412
							C1318.408,698.396,1318.9,702.422,1321.662,704.581z"/>
					</g>
				</g>
				<g>
					<path fill="#331832" d="M830.296,1070.197c0.274,10.728,65.144,14.988,145.375,12.485
						c80.23-2.503,144.343-13.598,144.069-24.325c-0.275-10.728-64.833-17.026-145.063-14.523S830.021,1059.469,830.296,1070.197z"
						/>
				</g>
				<g>
					<path fill="#92A5E6" d="M849.936,766.487c0,0,14.187-56.229,118.862-56.8c150.952-0.822,136.975,137.879,150.942,348.67
						c0,0-91.595-40.847-289.519,9.2C830.221,1067.557,817.156,852.404,849.936,766.487z"/>
				</g>
				<g>
					<path fill="#FFB27D" d="M780.787,1072.933c4.273,8.112,9.126,26.058,13.244,34.252c1.785,3.553,6.976,15.924,3.723,18.21
						c-2.826,1.987-11.562-5.832-15.277-10.065c-3.568,26.125-20.303,62.679-16.748,7.399c-0.029-0.001-0.061-0.004-0.09-0.006
						c-0.869,5.559-5.705,36.484-12.558,32.432c-6.049-3.577-3.492-25.859-2.159-35.018c-0.082-0.022-0.165-0.044-0.247-0.065
						c-2.151,9.194-7.909,31.254-12.563,25.962c-5.841-6.642-3.615-31.132-3.615-31.132s-3.524,31.228-11.195,24.408
						c-4.325-3.844-0.47-21.519,2.092-32.486l0,0l0-0.003c0.537-2.301,1.019-4.312,1.354-5.831c0.278-1.263,0.662-2.35,1.121-3.308
						c5.424-18.063,11.9-28.782,11.9-28.782s5.375-13.928,21.467-11.469C771.491,1058.998,778.934,1069.416,780.787,1072.933z"/>
				</g>
				<g>
					<g>
						<path fill="#5F3563" d="M797.345,1081.651c20.979-93.883,44.881-180.901,71.957-249.354
							c7.255-18.342-13.575-15.398-7.603-25.323c4.806-7.987-3.799-25.542-17.375-33.912c-12.739-7.854-32.575-6.568-35.712-2.681
							c-5.337,6.613-11.032,19.283-19.894,39.403c-30.793,69.905-54.496,153.351-61.969,269.774c0,0,7.525,5.591,32.62,6.665
							C782.6,1087.219,797.345,1081.651,797.345,1081.651z"/>
					</g>
				</g>
				<g>
					<path fill="#331832" d="M996.146,1587.092c9.312-0.509,17.956,4.317,22.527,12.446c2.149,3.82,5.279,7.293,9.835,9.193
						c14.011,5.841,54.607,11.111,39.438,24.424c-8.704,7.639-49.726,2.703-61.306,2.702c-11.583,0-22.457,5.047-31.063-2.704
						c-5.155-4.644-4.696-19.34-3.208-31.767c1.073-8.964,9.162-15.605,18.116-14.457c1.356,0.174,2.727,0.261,4.075,0.226
						C995.101,1587.142,995.629,1587.12,996.146,1587.092z"/>
				</g>
				<g>
					<path fill="#764678" d="M1087.845,1061.318c6.332,0.675,11.351,5.621,12.115,11.943c1.524,12.604,1.772,39.231-5.781,94.479
						c-11.096,81.165-48.291,387.369-55.261,426.846c-2.493,14.121-82.282,11.824-82.439-3.373l11.665-473.382l-70.741-53.972
						c0,0,52.945-6.768,112.798-6.72C1044.009,1057.167,1073.495,1059.788,1087.845,1061.318z"/>
				</g>
				<g>
					<path fill="#331832" d="M884.848,1587.092c9.312-0.509,17.956,4.317,22.527,12.446c2.149,3.82,5.279,7.293,9.836,9.193
						c14.01,5.841,54.606,11.111,39.438,24.424c-8.705,7.639-49.726,2.703-61.307,2.702c-11.582,0-22.456,5.047-31.063-2.704
						c-5.155-4.644-4.696-19.34-3.208-31.767c1.074-8.964,9.162-15.605,18.117-14.457c1.356,0.174,2.727,0.261,4.075,0.226
						C883.802,1587.142,884.331,1587.12,884.848,1587.092z"/>
				</g>
				<g>
					<path fill="#764678" d="M976.546,1061.318c6.333,0.675,11.351,5.621,12.115,11.943c1.524,12.604,1.772,39.231-5.78,94.479
						c-11.097,81.165-48.291,387.369-55.261,426.846c-2.493,14.121-82.283,11.824-82.439-3.373l11.665-473.382l-2.191-98.033
						C854.654,1019.798,962.196,1059.788,976.546,1061.318z"/>
				</g>
				<g>
					<path fill="#020202" d="M970.866,1258.505l-2.553-0.605l14.321-60.33c7.743-23.539,23.673-43.187,44.857-55.323l1.305,2.274
						c-20.605,11.807-36.106,30.918-43.653,53.814L970.866,1258.505z"/>
				</g>
				<g>
					<path fill="#FFB27D" d="M939.831,711.433c10.537,12.979,30.722,14.428,46.293,10.007c7.883-2.238,8.193-10.592,5.735-11.141
						c-6.026-1.345-6.854-6.592-7.076-12.04l-0.291-7.138l-0.034-0.888l-0.376-9.308l-0.666-16.052l-1.725-42.231l-13.167,42.453
						l-2.237,7.224l-7.685,24.813C956.128,705.142,943.981,709.683,939.831,711.433z"/>
				</g>
				<g>
					<path fill="#331832" d="M964.703,678.669c0,0,6.333,10.488,19.789,12.452l-0.034-0.888l-0.376-9.308
						C976.808,680.226,964.703,678.669,964.703,678.669z"/>
				</g>
				<g>
					<path fill="#331832" d="M1020.758,609.695c0,0,2.683,10.279,0,23.167c-2.683,12.887-15.791-18.791-15.791-18.791
						L1020.758,609.695z"/>
				</g>
				<g>
					
						<ellipse transform="matrix(0.9915 -0.1302 0.1302 0.9915 -75.1249 133.6661)" fill="#FFB27D" cx="984.899" cy="641.491" rx="37.739" ry="45.506"/>
				</g>
				<g>
					<path fill="#331832" d="M946.539,633.376l18.267-1.896c4.016-0.417,7.69-2.574,9.864-5.977
						c3.742-5.858,8.247-8.866,25.288-8.227c21.577,0.81,35.825-12.054,38.156-23.345c2.379-11.523-8.663-19.335-19.501-13.84
						c-10.837,5.494-6.186-7.979-16.607-9.41c-19.475-2.673-23.123,12.34-39.067,11.852c-20.906-0.64-58.355,15.247-40.595,52.05
						L946.539,633.376z"/>
				</g>
				<g>
					<g>
						<path fill="#080435" d="M981.989,639.584c0.196-0.124,0.334-0.335,0.354-0.584c0.034-0.42-0.277-0.79-0.697-0.825
							c-0.248-0.021-5.947-1.04-8.818,5.019c-0.181,0.382-0.035,0.838,0.343,1.026c0.379,0.188,0.76-0.015,1.026-0.344
							c2.665-3.289,7.115-4.192,7.321-4.176C981.691,639.714,981.854,639.67,981.989,639.584z"/>
					</g>
				</g>
				<g>
					
						<ellipse transform="matrix(-0.9647 0.2632 -0.2632 -0.9647 2098.1484 1016.4382)" fill="#080435" cx="980.987" cy="648.766" rx="2.399" ry="3.305"/>
				</g>
				<g>
					<g>
						<path fill="#080435" d="M1011.357,637.313c0.177-0.03,0.333-0.164,0.413-0.381c0.136-0.365,0.003-0.828-0.297-1.034
							c-0.177-0.121-4.103-3.401-7.799,0.886c-0.233,0.271-0.245,0.742-0.016,1.069s0.563,0.302,0.845,0.114
							c2.82-1.869,6.33-0.844,6.478-0.744C1011.104,637.307,1011.235,637.334,1011.357,637.313z"/>
					</g>
				</g>
				<g>
					
						<ellipse transform="matrix(-0.9923 -0.124 0.124 -0.9923 1925.7285 1410.7445)" fill="#080435" cx="1006.761" cy="645.451" rx="2.398" ry="3.305"/>
				</g>
				<g>
					<path fill="#331832" d="M922.343,634.584c0,0,12.613,27.223,30.503,29.22c0,0-14.466-20.746,16.023-33.39
						C968.869,630.414,940.876,626.01,922.343,634.584z"/>
				</g>
				<g>
					
						<ellipse transform="matrix(-0.5368 0.8437 -0.8437 -0.5368 2005.1014 185.9615)" fill="#FFB27D" cx="951.501" cy="643.417" rx="7.338" ry="8.211"/>
				</g>
				<g>
					<path fill="#FFFFFF" d="M1008.926,662.915c0,0-11.764,3.183-24.618,1.938c0,0,1.887,11.902,14.893,9.531
						C1006.765,673.005,1008.926,662.915,1008.926,662.915z"/>
				</g>
				<g>
					<path fill="#EF8062" d="M1016.29,578.635c-5.961,0-6.503-5.189-6.508-5.243c-0.043-0.47,0.304-0.885,0.773-0.927
						c0.477-0.043,0.882,0.302,0.927,0.769c0.041,0.396,0.564,3.808,5.083,3.689c0.01,0,0.019,0,0.019,0
						c0.468,0,0.847,0.365,0.861,0.827c0.014,0.471-0.355,0.865-0.827,0.88C1016.507,578.633,1016.397,578.635,1016.29,578.635z"/>
				</g>
				<g>
					<path fill="#FFFFFF" d="M1006.071,611.229l-0.143-0.494c0.232-0.067,23.189-6.874,24.139-18.692
						c0.27-3.343-0.29-5.562-1.708-6.783c-2.273-1.958-6.417-0.992-10.073-0.14c-0.562,0.131-1.111,0.259-1.64,0.373l-0.109-0.503
						c0.526-0.113,1.073-0.241,1.633-0.371c3.771-0.881,8.053-1.88,10.525,0.25c1.552,1.337,2.169,3.696,1.886,7.214
						c-0.407,5.054-4.786,9.97-12.663,14.218C1012.003,609.489,1006.131,611.212,1006.071,611.229z"/>
				</g>
				<g>
					<path fill="#FFFFFF" d="M960.854,587.259c-2.162,0-4.456-0.147-6.885-0.476l0.069-0.511c22.402,3.036,33.207-9.563,33.314-9.69
						l0.395,0.329C987.651,577.028,978.894,587.259,960.854,587.259z"/>
				</g>
				<g>
					<g>
						<path fill="#EF8062" d="M972.168,720.954c0,0,17.889-5.533,22.645-1.238c4.755,4.295,1.257,23.944-6.979,25.69
							C979.596,747.153,964.023,725.693,972.168,720.954z"/>
					</g>
					<g>
						<path fill="#A1B8F3" d="M982.676,716.319c0,0-23.351-8.254-27.905-16.508c-4.554-8.254-28.732,10.815-28.312,16.508
							c0.42,5.692,43.966,37.284,46.813,33.3S988.38,721.726,982.676,716.319z"/>
					</g>
					<g>
						<path fill="#A1B8F3" d="M982.676,716.319c0,0,3.487-8.666,1.809-13.369c0,0-1.109-4.135,2.448-3.851
							c3.558,0.285,22.912,13.804,24.619,17.931s1.992,23.481-4.269,24.904c-6.262,1.423-21.355-19.368-23.129-21.425
							C982.379,718.453,982.676,716.319,982.676,716.319z"/>
					</g>
					<g>
						<path fill="#EF8062" d="M992.839,737.807c0,0,61.547,159.527,57.444,226.387c0,0-4.34,39.018-31.996,60.08
							c0,0-37.333-24.478-42.348-60.08c-4.122-29.258,14.123-198.781,3.592-222.189L992.839,737.807z"/>
					</g>
					<g>
						<path fill="#331832" d="M987.695,745.834c-5.234,0-9.709-4.635-9.899-4.834l0.618-0.589c0.043,0.046,4.474,4.648,9.412,4.568
							c4.79-0.079,7.667-10.426,7.695-10.529l0.824,0.224c-0.124,0.452-3.078,11.069-8.505,11.159
							C987.792,745.834,987.744,745.834,987.695,745.834z"/>
					</g>
				</g>
				<g>
					<path fill="#5F3563" d="M917.699,715.098c0,0,57.22,209.135,32.649,408.279c0,0-36.505,37.352-131.789-1.853l-9.947-351.144
						C808.612,770.381,843.539,719.896,917.699,715.098z"/>
				</g>
				<g>
					<path fill="#331832" d="M816.291,1012.371l-1.66-0.449c14.508-53.67,35.882-130.344,36.097-131.113l1.657,0.463
						C852.171,882.039,830.798,958.708,816.291,1012.371z"/>
				</g>
				<g>
					<path fill="#5F3563" d="M1018.194,715.83c0,0,86.472,256.361,47.483,406.298c0,0,44.514,10.956,69.846-3.121
						c0,0-0.615-111.017-11.647-210.758c-7.759-70.147-28.952-135.941-39.564-154.089
						C1062.82,717.411,1018.194,715.83,1018.194,715.83z"/>
				</g>
				<g>
					<path fill="#331832" d="M1134.665,1119.024c-0.044-2.213-4.572-221.935-23.296-277.03l1.627-0.554
						c18.81,55.347,23.344,275.335,23.388,277.55L1134.665,1119.024z"/>
				</g>
			</g>
		</g>
	</g>
</g>
</svg>
