<svg xmlns="http://www.w3.org/2000/svg" width="78.957" height="78.957" viewBox="0 0 78.957 78.957">
  <g id="logistics" opacity="0.7">
    <path id="Path_6210" data-name="Path 6210" d="M77.533,17.5,40.522.231a2.467,2.467,0,0,0-2.087,0L1.424,17.5A2.58,2.58,0,0,0,0,19.739V59.217a2.468,2.468,0,0,0,1.424,2.236L38.435,78.725c.013.006.028,0,.041.009a2.373,2.373,0,0,0,2.005,0c.013-.006.028,0,.041-.009L77.533,61.454a2.467,2.467,0,0,0,1.424-2.236V19.739A2.58,2.58,0,0,0,77.533,17.5ZM39.478,34.288l-6.5-3.035L64.152,16.7l6.5,3.035Zm-14.8-1.458v9.356l-7.4-3.463V29.371c3.676,1.716,1.554.724,7.4,3.46ZM58.319,13.983,27.141,28.531l-6.5-3.035L51.815,10.947ZM39.478,5.19l6.5,3.035L14.8,22.774,8.3,19.739ZM4.935,23.613l7.4,3.454V40.293a2.466,2.466,0,0,0,1.422,2.234L26.1,48.3a2.467,2.467,0,0,0,3.513-2.234V35.128l7.4,3.454V72.615L4.935,57.646Zm37.011,49V38.582L74.022,23.613V57.646Z" transform="translate(0 0)" fill="#fff"/>
  </g>
</svg>
