<?xml version="1.0" encoding="utf-8"?>
<!-- Generator: Adobe Illustrator 16.0.0, SVG Export Plug-In . SVG Version: 6.00 Build 0)  -->
<!DOCTYPE svg PUBLIC "-//W3C//DTD SVG 1.1//EN" "http://www.w3.org/Graphics/SVG/1.1/DTD/svg11.dtd">
<svg version="1.1" id="Layer_1" xmlns="http://www.w3.org/2000/svg" xmlns:xlink="http://www.w3.org/1999/xlink" x="0px" y="0px"
	 width="350px" height="80.5px" viewBox="0 0 350 80.5" enable-background="new 0 0 350 80.5" xml:space="preserve">
<g enable-background="new    ">
	<path d="M95.109,75.399v-6.508h-2.505v-1.035h6.47v1.035h-2.505v6.508H95.109z"/>
	<path d="M100.052,75.399v-5.596h1.398v1.055c0.362-0.788,0.914-1.184,1.654-1.184c0.088,0,0.175,0.012,0.26,0.031v1.346
		c-0.198-0.078-0.383-0.117-0.553-0.117c-0.558,0-1.011,0.305-1.361,0.913v3.552H100.052z"/>
	<path d="M106.995,74.797c-0.466,0.486-0.966,0.729-1.498,0.729c-0.454,0-0.823-0.149-1.106-0.448
		c-0.284-0.299-0.425-0.687-0.425-1.162c0-0.617,0.229-1.094,0.688-1.43c0.458-0.334,1.114-0.502,1.968-0.502h0.374v-0.509
		c0-0.581-0.307-0.872-0.922-0.872c-0.545,0-1.096,0.167-1.654,0.5v-1.04c0.633-0.258,1.26-0.388,1.881-0.388
		c1.358,0,2.037,0.582,2.037,1.748v2.478c0,0.438,0.125,0.657,0.374,0.657c0.057,0,0.135-0.02,0.236-0.057v0.881
		c-0.296,0.097-0.558,0.144-0.785,0.144c-0.573,0-0.942-0.241-1.105-0.729H106.995z M106.995,73.987v-1.136h-0.331
		c-0.422,0-0.754,0.081-0.995,0.243c-0.241,0.164-0.362,0.389-0.362,0.674c0,0.207,0.065,0.382,0.196,0.521
		c0.131,0.141,0.292,0.211,0.484,0.211C106.315,74.502,106.651,74.331,106.995,73.987z"/>
	<path d="M110.142,75.399v-5.596h1.398v1.055c0.457-0.788,1.046-1.184,1.768-1.184c0.463,0,0.829,0.158,1.097,0.476
		c0.268,0.315,0.401,0.747,0.401,1.294v3.955h-1.398v-3.583c0-0.635-0.196-0.953-0.586-0.953c-0.444,0-0.871,0.339-1.281,1.015
		v3.521H110.142z"/>
	<path d="M116.361,75.221v-1.105c0.693,0.313,1.285,0.469,1.777,0.469c0.573,0,0.86-0.211,0.86-0.631
		c0-0.271-0.236-0.511-0.709-0.715l-0.473-0.203c-0.514-0.225-0.881-0.466-1.101-0.725c-0.221-0.258-0.331-0.577-0.331-0.958
		c0-0.528,0.188-0.94,0.563-1.235c0.375-0.293,0.899-0.441,1.574-0.441c0.422,0,0.925,0.066,1.508,0.199v1.061
		c-0.561-0.21-1.026-0.314-1.395-0.314c-0.58,0-0.87,0.192-0.87,0.58c0,0.256,0.214,0.471,0.643,0.647l0.406,0.168
		c0.608,0.248,1.031,0.499,1.269,0.754s0.357,0.583,0.357,0.983c0,0.527-0.203,0.953-0.607,1.281s-0.932,0.491-1.581,0.491
		C117.628,75.526,116.998,75.424,116.361,75.221z"/>
	<path d="M122.118,75.399v-4.652h-0.714v-0.942h0.714v-0.402c0-1.45,0.638-2.177,1.914-2.177c0.413,0,0.838,0.064,1.276,0.193v1.02
		c-0.397-0.18-0.753-0.27-1.068-0.27c-0.265,0-0.451,0.088-0.56,0.265c-0.108,0.177-0.163,0.479-0.163,0.911v0.46h1.314v0.942
		h-1.314v4.652H122.118z"/>
	<path d="M128.162,75.526c-0.81,0-1.453-0.264-1.93-0.792c-0.478-0.528-0.716-1.239-0.716-2.133c0-0.903,0.24-1.617,0.721-2.142
		c0.481-0.523,1.134-0.785,1.959-0.785c0.829,0,1.483,0.263,1.964,0.785c0.481,0.523,0.721,1.233,0.721,2.131
		c0,0.918-0.241,1.637-0.723,2.156C129.676,75.265,129.009,75.526,128.162,75.526z M128.186,74.584c0.378,0,0.673-0.176,0.886-0.527
		c0.212-0.352,0.319-0.84,0.319-1.467c0-0.606-0.106-1.088-0.319-1.44c-0.213-0.354-0.505-0.53-0.877-0.53
		c-0.369,0-0.659,0.178-0.872,0.53c-0.212,0.353-0.319,0.837-0.319,1.452c0,0.607,0.105,1.091,0.317,1.447
		C127.532,74.405,127.82,74.584,128.186,74.584z"/>
	<path d="M132.165,75.399v-5.596h1.398v1.055c0.362-0.788,0.914-1.184,1.654-1.184c0.088,0,0.175,0.012,0.26,0.031v1.346
		c-0.198-0.078-0.383-0.117-0.553-0.117c-0.558,0-1.011,0.305-1.361,0.913v3.552H132.165z"/>
	<path d="M136.564,75.399v-5.596h1.342v1.055c0.41-0.788,0.993-1.184,1.749-1.184c0.391,0,0.712,0.104,0.964,0.313
		s0.406,0.497,0.463,0.871c0.485-0.788,1.071-1.184,1.758-1.184c0.948,0,1.422,0.564,1.422,1.693v4.03h-1.342v-3.537
		c0-0.661-0.205-0.993-0.614-0.993c-0.419,0-0.827,0.326-1.224,0.979v3.552h-1.342v-3.537c0-0.666-0.207-0.999-0.619-0.999
		c-0.413,0-0.818,0.328-1.215,0.984v3.552H136.564z"/>
	<path d="M145.95,68.86v-1.259h1.398v1.259H145.95z M145.95,75.399v-5.596h1.398v5.596H145.95z"/>
	<path d="M149.098,75.399v-5.596h1.398v1.055c0.457-0.788,1.046-1.184,1.768-1.184c0.463,0,0.829,0.158,1.097,0.476
		c0.268,0.315,0.401,0.747,0.401,1.294v3.955h-1.398v-3.583c0-0.635-0.196-0.953-0.586-0.953c-0.444,0-0.871,0.339-1.281,1.015
		v3.521H149.098z"/>
	<path d="M155.492,77.138l0.113-1.097c0.577,0.285,1.126,0.428,1.649,0.428c0.517,0,0.89-0.118,1.12-0.355
		c0.23-0.238,0.345-0.623,0.345-1.156v-0.766c-0.34,0.807-0.903,1.208-1.688,1.208c-0.617,0-1.107-0.249-1.47-0.747
		c-0.362-0.496-0.543-1.171-0.543-2.021c0-0.893,0.203-1.608,0.61-2.146c0.406-0.539,0.947-0.809,1.621-0.809
		c0.529,0,1.02,0.23,1.47,0.693l0.146-0.565h1.257v4.271c0,0.854-0.048,1.469-0.144,1.846s-0.283,0.697-0.56,0.963
		c-0.466,0.436-1.123,0.652-1.971,0.652C156.846,77.536,156.194,77.402,155.492,77.138z M158.72,73.315V71.25
		c-0.337-0.41-0.69-0.617-1.059-0.617c-0.353,0-0.633,0.175-0.841,0.521c-0.208,0.348-0.312,0.813-0.312,1.396
		c0,1.094,0.326,1.641,0.978,1.641C157.937,74.191,158.348,73.899,158.72,73.315z"/>
	<path d="M164.925,75.399v-8.047h1.398v3.506c0.359-0.788,0.925-1.184,1.697-1.184c0.624,0,1.115,0.248,1.472,0.74
		c0.357,0.492,0.537,1.17,0.537,2.033c0,0.934-0.202,1.682-0.605,2.239c-0.403,0.558-0.942,0.838-1.616,0.838
		c-0.58,0-1.075-0.229-1.484-0.692l-0.26,0.565L164.925,75.399L164.925,75.399z M166.323,73.937c0.34,0.407,0.703,0.61,1.087,0.61
		c0.343,0,0.617-0.178,0.822-0.537c0.205-0.357,0.307-0.836,0.307-1.434c0-1.146-0.342-1.719-1.026-1.719
		c-0.413,0-0.81,0.287-1.191,0.861L166.323,73.937L166.323,73.937z"/>
	<path d="M174.546,75.399v-1.055c-0.454,0.787-1.042,1.182-1.767,1.182c-0.463,0-0.829-0.156-1.097-0.475
		c-0.268-0.314-0.402-0.746-0.402-1.293v-3.955h1.399v3.582c0,0.636,0.197,0.953,0.591,0.953c0.441,0,0.867-0.338,1.276-1.014
		v-3.521h1.399v5.596H174.546z"/>
	<path d="M177.559,75.221v-1.105c0.692,0.313,1.284,0.469,1.776,0.469c0.573,0,0.858-0.211,0.858-0.631
		c0-0.271-0.235-0.511-0.709-0.715l-0.473-0.203c-0.513-0.225-0.88-0.466-1.101-0.725c-0.222-0.258-0.331-0.577-0.331-0.958
		c0-0.528,0.188-0.94,0.563-1.235c0.375-0.293,0.899-0.441,1.574-0.441c0.422,0,0.924,0.066,1.508,0.199v1.061
		c-0.562-0.21-1.025-0.314-1.395-0.314c-0.58,0-0.87,0.192-0.87,0.58c0,0.256,0.215,0.471,0.644,0.647l0.406,0.168
		c0.607,0.248,1.03,0.499,1.27,0.754c0.236,0.255,0.355,0.583,0.355,0.983c0,0.527-0.201,0.953-0.607,1.281
		c-0.403,0.328-0.932,0.491-1.579,0.491C178.824,75.526,178.193,75.424,177.559,75.221z"/>
	<path d="M183.166,68.86v-1.259h1.398v1.259H183.166z M183.166,75.399v-5.596h1.398v5.596H183.166z"/>
	<path d="M186.313,75.399v-5.596h1.399v1.055c0.456-0.788,1.046-1.184,1.769-1.184c0.463,0,0.828,0.158,1.096,0.476
		c0.27,0.315,0.402,0.747,0.402,1.294v3.955h-1.399v-3.583c0-0.635-0.195-0.953-0.586-0.953c-0.444,0-0.871,0.339-1.28,1.015v3.521
		H186.313z"/>
	<path d="M196.896,75.211c-0.666,0.211-1.295,0.314-1.892,0.314c-0.866,0-1.55-0.266-2.051-0.795s-0.752-1.253-0.752-2.171
		c0-0.866,0.229-1.563,0.688-2.093c0.459-0.527,1.063-0.793,1.816-0.793c0.76,0,1.313,0.26,1.663,0.775s0.524,1.334,0.524,2.451
		h-3.219c0.096,1.066,0.639,1.6,1.631,1.6c0.469,0,0.998-0.117,1.588-0.352v1.063H196.896z M193.658,72.051h1.861
		c0-0.954-0.285-1.432-0.855-1.432C194.085,70.62,193.749,71.097,193.658,72.051z"/>
	<path d="M198.205,75.221v-1.105c0.693,0.313,1.285,0.469,1.777,0.469c0.572,0,0.858-0.211,0.858-0.631
		c0-0.271-0.235-0.511-0.709-0.715l-0.473-0.203c-0.513-0.225-0.88-0.466-1.101-0.725c-0.222-0.258-0.332-0.577-0.332-0.958
		c0-0.528,0.188-0.94,0.563-1.235c0.375-0.293,0.899-0.441,1.573-0.441c0.423,0,0.925,0.066,1.508,0.199v1.061
		c-0.561-0.21-1.025-0.314-1.395-0.314c-0.58,0-0.869,0.192-0.869,0.58c0,0.256,0.215,0.471,0.643,0.647l0.407,0.168
		c0.606,0.248,1.03,0.499,1.269,0.754c0.237,0.255,0.356,0.583,0.356,0.983c0,0.527-0.202,0.953-0.607,1.281
		c-0.403,0.328-0.932,0.491-1.579,0.491C199.473,75.526,198.842,75.424,198.205,75.221z"/>
	<path d="M203.678,75.221v-1.105c0.693,0.313,1.285,0.469,1.777,0.469c0.572,0,0.859-0.211,0.859-0.631
		c0-0.271-0.236-0.511-0.709-0.715l-0.474-0.203c-0.513-0.225-0.88-0.466-1.101-0.725c-0.221-0.258-0.331-0.577-0.331-0.958
		c0-0.528,0.188-0.94,0.563-1.235c0.375-0.293,0.898-0.441,1.573-0.441c0.422,0,0.924,0.066,1.507,0.199v1.061
		c-0.561-0.21-1.025-0.314-1.394-0.314c-0.58,0-0.87,0.192-0.87,0.58c0,0.256,0.215,0.471,0.643,0.647l0.407,0.168
		c0.606,0.248,1.03,0.499,1.269,0.754s0.356,0.583,0.356,0.983c0,0.527-0.202,0.953-0.606,1.281s-0.933,0.491-1.58,0.491
		C204.943,75.526,204.314,75.424,203.678,75.221z"/>
	<path d="M213.29,75.399l-1.44-5.596h1.299l1.021,3.919l1.087-3.919h1.21l0.979,3.939l1.102-3.939h0.975l-1.541,5.596h-1.342
		l-0.945-3.838l-1.06,3.838H213.29z"/>
	<path d="M220.725,68.86v-1.259h1.398v1.259H220.725z M220.725,75.399v-5.596h1.398v5.596H220.725z"/>
	<path d="M226.546,75.37c-0.334,0.104-0.597,0.156-0.789,0.156c-0.633,0-1.095-0.146-1.385-0.438
		c-0.29-0.293-0.435-0.758-0.435-1.396v-2.945h-0.582v-0.942h0.582V68.86l1.397-0.173v1.116h1.11v0.941h-1.11v2.748
		c0,0.687,0.261,1.028,0.78,1.028c0.119,0,0.263-0.022,0.43-0.071L226.546,75.37L226.546,75.37z"/>
	<path d="M227.793,75.399v-8.047h1.398v3.506c0.457-0.788,1.047-1.184,1.769-1.184c0.463,0,0.828,0.158,1.097,0.476
		c0.269,0.315,0.401,0.747,0.401,1.294v3.955h-1.399v-3.583c0-0.635-0.195-0.953-0.586-0.953c-0.443,0-0.871,0.339-1.279,1.015
		v3.521H227.793z"/>
	<path d="M239.91,75.37c-0.334,0.104-0.598,0.156-0.789,0.156c-0.633,0-1.096-0.146-1.385-0.438
		c-0.291-0.293-0.436-0.758-0.436-1.396v-2.945h-0.58v-0.942h0.58V68.86l1.398-0.173v1.116h1.111v0.941h-1.11v2.748
		c0,0.687,0.261,1.028,0.78,1.028c0.119,0,0.263-0.022,0.43-0.071V75.37L239.91,75.37z"/>
	<path d="M245.384,75.211c-0.665,0.211-1.295,0.314-1.891,0.314c-0.866,0-1.55-0.266-2.052-0.795
		c-0.5-0.529-0.752-1.253-0.752-2.171c0-0.866,0.229-1.563,0.688-2.093c0.459-0.527,1.063-0.793,1.817-0.793
		c0.76,0,1.313,0.26,1.662,0.775c0.352,0.516,0.525,1.334,0.525,2.451h-3.219c0.095,1.066,0.638,1.6,1.631,1.6
		c0.469,0,0.998-0.117,1.588-0.352L245.384,75.211L245.384,75.211z M242.146,72.051h1.86c0-0.954-0.284-1.432-0.854-1.432
		C242.573,70.62,242.236,71.097,242.146,72.051z"/>
	<path d="M250.657,75.277c-0.58,0.166-1.117,0.249-1.611,0.249c-0.829,0-1.483-0.262-1.964-0.787
		c-0.48-0.523-0.721-1.238-0.721-2.143c0-0.914,0.246-1.631,0.742-2.146c0.494-0.517,1.179-0.775,2.051-0.775
		c0.423,0,0.908,0.074,1.461,0.221v1.091c-0.574-0.2-1.032-0.301-1.377-0.301c-0.418,0-0.756,0.173-1.01,0.521
		c-0.256,0.346-0.383,0.807-0.383,1.381c0,0.588,0.137,1.059,0.412,1.412c0.275,0.353,0.645,0.529,1.104,0.529
		c0.42,0,0.852-0.099,1.296-0.296V75.277z"/>
	<path d="M251.98,75.399v-8.047h1.398v3.506c0.456-0.788,1.046-1.184,1.768-1.184c0.463,0,0.828,0.158,1.097,0.476
		c0.269,0.315,0.401,0.747,0.401,1.294v3.955h-1.398v-3.583c0-0.635-0.195-0.953-0.586-0.953c-0.444,0-0.871,0.339-1.28,1.015v3.521
		H251.98z"/>
	<path d="M258.337,75.399v-5.596h1.399v1.055c0.455-0.788,1.046-1.184,1.768-1.184c0.463,0,0.828,0.158,1.096,0.476
		c0.27,0.315,0.402,0.747,0.402,1.294v3.955h-1.398v-3.583c0-0.635-0.195-0.953-0.586-0.953c-0.444,0-0.871,0.339-1.281,1.015v3.521
		H258.337z"/>
	<path d="M266.872,75.526c-0.81,0-1.453-0.264-1.931-0.792s-0.717-1.239-0.717-2.133c0-0.903,0.24-1.617,0.721-2.142
		c0.482-0.523,1.135-0.785,1.96-0.785c0.829,0,1.483,0.263,1.964,0.785c0.48,0.523,0.721,1.233,0.721,2.131
		c0,0.918-0.24,1.637-0.724,2.156C268.385,75.267,267.721,75.526,266.872,75.526z M266.896,74.584c0.379,0,0.674-0.176,0.887-0.527
		s0.318-0.84,0.318-1.467c0-0.606-0.105-1.088-0.318-1.44c-0.213-0.354-0.506-0.53-0.877-0.53c-0.368,0-0.659,0.178-0.872,0.53
		c-0.214,0.353-0.318,0.837-0.318,1.452c0,0.607,0.104,1.091,0.316,1.447C266.243,74.405,266.529,74.584,266.896,74.584z"/>
	<path d="M270.875,75.399v-8.047h1.398v8.047H270.875z"/>
	<path d="M276.201,75.526c-0.811,0-1.453-0.264-1.932-0.792c-0.477-0.528-0.715-1.239-0.715-2.133c0-0.903,0.239-1.617,0.721-2.142
		c0.48-0.523,1.134-0.785,1.959-0.785c0.828,0,1.482,0.263,1.964,0.785c0.481,0.523,0.721,1.233,0.721,2.131
		c0,0.918-0.241,1.637-0.724,2.156C277.714,75.267,277.049,75.526,276.201,75.526z M276.225,74.584c0.379,0,0.674-0.176,0.887-0.527
		c0.214-0.352,0.318-0.84,0.318-1.467c0-0.606-0.104-1.088-0.318-1.44c-0.213-0.354-0.504-0.53-0.877-0.53
		c-0.367,0-0.658,0.178-0.871,0.53s-0.318,0.837-0.318,1.452c0,0.607,0.105,1.091,0.316,1.447
		C275.572,74.405,275.859,74.584,276.225,74.584z"/>
	<path d="M280.242,77.138l0.113-1.097c0.576,0.285,1.125,0.428,1.648,0.428c0.518,0,0.891-0.118,1.12-0.355
		c0.229-0.238,0.345-0.623,0.345-1.156v-0.766c-0.34,0.807-0.902,1.208-1.687,1.208c-0.618,0-1.107-0.249-1.47-0.747
		c-0.362-0.496-0.545-1.171-0.545-2.021c0-0.893,0.203-1.608,0.609-2.146c0.407-0.539,0.947-0.809,1.621-0.809
		c0.529,0,1.02,0.23,1.47,0.693l0.146-0.565h1.259v4.271c0,0.854-0.05,1.469-0.146,1.846s-0.283,0.697-0.561,0.963
		c-0.466,0.436-1.123,0.652-1.971,0.652C281.598,77.536,280.943,77.402,280.242,77.138z M283.471,73.315V71.25
		c-0.338-0.41-0.689-0.617-1.06-0.617c-0.353,0-0.634,0.175-0.841,0.521c-0.209,0.348-0.313,0.813-0.313,1.396
		c0,1.094,0.326,1.641,0.979,1.641C282.688,74.191,283.1,73.899,283.471,73.315z"/>
	<path d="M286.607,77.413l1.178-2.014l-1.924-5.596h1.502l1.285,3.74l1.526-3.74h1.063l-3.204,7.607h-1.427V77.413z"/>
	<path d="M295.182,75.221v-1.105c0.692,0.313,1.284,0.469,1.776,0.469c0.573,0,0.858-0.211,0.858-0.631
		c0-0.271-0.235-0.511-0.709-0.715l-0.473-0.203c-0.513-0.225-0.88-0.466-1.101-0.725c-0.222-0.258-0.331-0.577-0.331-0.958
		c0-0.528,0.188-0.94,0.563-1.235c0.375-0.293,0.899-0.441,1.574-0.441c0.422,0,0.924,0.066,1.508,0.199v1.061
		c-0.562-0.21-1.025-0.314-1.395-0.314c-0.58,0-0.87,0.192-0.87,0.58c0,0.256,0.215,0.471,0.644,0.647l0.406,0.168
		c0.607,0.248,1.03,0.499,1.27,0.754c0.236,0.255,0.355,0.583,0.355,0.983c0,0.527-0.201,0.953-0.607,1.281
		c-0.403,0.328-0.932,0.491-1.58,0.491C296.447,75.526,295.816,75.424,295.182,75.221z"/>
	<path d="M302.969,75.526c-0.81,0-1.453-0.264-1.931-0.792s-0.716-1.239-0.716-2.133c0-0.903,0.24-1.617,0.721-2.142
		c0.48-0.523,1.134-0.785,1.959-0.785c0.829,0,1.482,0.263,1.964,0.785c0.481,0.523,0.722,1.233,0.722,2.131
		c0,0.918-0.242,1.637-0.725,2.156C304.48,75.267,303.816,75.526,302.969,75.526z M302.992,74.584c0.379,0,0.674-0.176,0.887-0.527
		s0.318-0.84,0.318-1.467c0-0.606-0.105-1.088-0.318-1.44c-0.213-0.354-0.505-0.53-0.877-0.53c-0.368,0-0.659,0.178-0.872,0.53
		s-0.317,0.837-0.317,1.452c0,0.607,0.104,1.091,0.315,1.447C302.339,74.405,302.627,74.584,302.992,74.584z"/>
	<path d="M306.972,75.399v-8.047h1.399v8.047H306.972z"/>
	<path d="M313.328,75.399v-1.055c-0.453,0.787-1.043,1.182-1.769,1.182c-0.463,0-0.827-0.156-1.096-0.475
		c-0.269-0.314-0.402-0.746-0.402-1.293v-3.955h1.399v3.582c0,0.636,0.196,0.953,0.591,0.953c0.44,0,0.866-0.338,1.275-1.014v-3.521
		h1.398v5.596H313.328z"/>
	<path d="M319.15,75.37c-0.334,0.104-0.598,0.156-0.789,0.156c-0.634,0-1.096-0.146-1.386-0.438
		c-0.29-0.293-0.435-0.758-0.435-1.396v-2.945h-0.581v-0.942h0.581V68.86l1.398-0.173v1.116h1.11v0.941h-1.11v2.748
		c0,0.687,0.261,1.028,0.779,1.028c0.12,0,0.264-0.022,0.431-0.071L319.15,75.37L319.15,75.37z"/>
	<path d="M320.397,68.86v-1.259h1.398v1.259H320.397z M320.397,75.399v-5.596h1.398v5.596H320.397z"/>
	<path d="M325.724,75.526c-0.81,0-1.452-0.264-1.931-0.792c-0.477-0.528-0.716-1.239-0.716-2.133c0-0.903,0.24-1.617,0.721-2.142
		c0.481-0.523,1.134-0.785,1.959-0.785c0.829,0,1.483,0.263,1.964,0.785c0.481,0.523,0.722,1.233,0.722,2.131
		c0,0.918-0.241,1.637-0.725,2.156C327.236,75.267,326.571,75.526,325.724,75.526z M325.747,74.584c0.379,0,0.674-0.176,0.887-0.527
		s0.318-0.84,0.318-1.467c0-0.606-0.105-1.088-0.318-1.44c-0.213-0.354-0.505-0.53-0.877-0.53c-0.368,0-0.659,0.178-0.872,0.53
		s-0.317,0.837-0.317,1.452c0,0.607,0.104,1.091,0.315,1.447C325.094,74.405,325.382,74.584,325.747,74.584z"/>
	<path d="M329.727,75.399v-5.596h1.399v1.055c0.456-0.788,1.046-1.184,1.768-1.184c0.464,0,0.828,0.158,1.097,0.476
		c0.269,0.315,0.401,0.747,0.401,1.294v3.955h-1.398v-3.583c0-0.635-0.195-0.953-0.586-0.953c-0.444,0-0.871,0.339-1.28,1.015v3.521
		H329.727z"/>
	<path d="M335.946,75.221v-1.105c0.692,0.313,1.285,0.469,1.776,0.469c0.573,0,0.859-0.211,0.859-0.631
		c0-0.271-0.236-0.511-0.709-0.715l-0.473-0.203c-0.514-0.225-0.881-0.466-1.102-0.725c-0.221-0.258-0.331-0.577-0.331-0.958
		c0-0.528,0.188-0.94,0.563-1.235c0.375-0.293,0.898-0.441,1.574-0.441c0.422,0,0.924,0.066,1.507,0.199v1.061
		c-0.562-0.21-1.025-0.314-1.395-0.314c-0.58,0-0.87,0.192-0.87,0.58c0,0.256,0.215,0.471,0.644,0.647l0.407,0.168
		c0.606,0.248,1.029,0.499,1.269,0.754c0.237,0.255,0.356,0.583,0.356,0.983c0,0.527-0.202,0.953-0.607,1.281
		c-0.404,0.328-0.932,0.491-1.58,0.491C337.213,75.526,336.583,75.424,335.946,75.221z"/>
</g>
<path fill="#FFFFFF" d="M174.972,39.469c4.434-4.37,9.846-9.722,15.331-15.07c0.061,0,0.129,0,0.129,0
	c-0.718,0.784-1.367,1.631-2.091,2.415c-3.649,3.717-7.301,7.435-11.085,11.088c-1.566,1.567-1.631,2.74,0,4.308
	c3.784,3.586,7.436,7.367,11.085,11.024c0.724,0.718,1.373,1.5,1.896,2.411C185.086,50.232,179.861,44.687,174.972,39.469z"/>
<path fill="#767677" d="M108.759,53.233c-0.064-0.134-0.131-0.262-0.262-0.389l0,0L108.759,53.233z"/>
<polygon fill="none" points="108.497,52.844 108.497,52.844 108.759,53.233 108.759,53.299 "/>
<path fill="#010101" d="M108.497,52.844L108.497,52.844c-0.13-0.2-0.261-0.395-0.325-0.521l0,0L108.497,52.844z"/>
<g>
	<g>
		<path fill="#127DC2" d="M113.849,53.032c-6.005-9.322-11.939-18.654-18.008-27.917c-2.478-3.718-6.39-5.087-10.241-3.979
			c-3.717,1.045-6.326,4.501-6.393,8.871c-0.063,6.33-0.063,12.656-0.063,19.046c0,0.066,0,0.201,0,0.328v8.74
			c0,0.852,0.653,1.5,1.5,1.5l0,0c0.848,0,1.5-0.648,1.5-1.5v-1.693v-0.061c0.13-8.293,0.13-16.508,0.064-24.793
			c0-3.329,0.653-6.132,4.109-7.371c2.937-1.045,5.416,0.261,7.763,3.848c5.415,8.416,10.831,16.829,16.179,25.249
			c0.067,0.127,0.131,0.255,0.198,0.389l1.239,1.829c0.194,0.261,0.13,0.649-0.198,0.851c-0.261,0.188-0.653,0.127-0.847-0.201
			l-1.045-1.566l-0.064-0.127l-0.13-0.194c0.067,0.065,0.13,0.128,0.194,0.255l-0.78-1.166l-0.067-0.066l-0.262-0.395l0,0
			l-0.325-0.523l0,0c-5.218-8.021-10.372-16.044-15.526-24.068c-1.306-2.023-3-3.587-5.677-2.87
			c-2.608,0.717-3.392,2.739-3.325,5.285c0.063,7.565,0,15.134,0.063,22.7v4.896c0,0.844,0.653,1.5,1.5,1.5
			c0.851,0,1.5-0.656,1.5-1.5v-3.27c0.13-6.001,0.067-11.999,0.067-18c0-1.761-0.067-3.586,0-5.348v-1.567
			c0,0-0.067-1.042,0.914-1.564c0,0,0.717-0.589,1.627,0.522c0.067,0.063,0.134,0.13,0.198,0.194
			c0.522,0.522,0.915,1.239,1.306,1.825c5.542,8.614,11.021,17.16,16.567,25.774c1.37,2.145,3.262,3.456,5.74,1.82
			C115.35,57.278,115.219,55.189,113.849,53.032z"/>
		<path fill="#127DC2" d="M109.673,54.667c-0.067-0.066-0.067-0.135-0.131-0.193l0.064,0.061L109.673,54.667z"/>
	</g>
</g>
<path fill="#127DC2" d="M114.827,31.9v-7.763c0,0,0.261-2.478-1.437-3.456c-0.063,0-0.063-0.067-0.13-0.067l0,0
	c-0.064-0.064-0.131-0.064-0.194-0.064c-0.067,0-0.131-0.067-0.198-0.067c-0.063,0-0.194-0.063-0.261-0.063
	c-0.063,0-0.063,0-0.127,0c-0.522-0.131-0.915-0.131-1.045-0.131c-1.5-0.067-3.59,0.261-3.915,2.937
	c-0.131,0.586-0.063,1.042-0.063,1.042v6.524c0,0.653,0,1.37,0,2.023c0,0.063,0,0.194,0,0.261v6.065
	c0,0.851,0.716,1.567,1.563,1.567c0.848,0,1.567-0.717,1.567-1.567v-6.065c0-0.13,0-8.546-0.067-9.461
	c0-0.325,0.261-0.65,0.653-0.65h0.063c0.328,0,0.653,0.261,0.653,0.65v16.44c0,0.064,0,0.194,0,0.262v6.064
	c0,0.851,0.717,1.566,1.567,1.566c0.848,0,1.564-0.717,1.564-1.566v-0.455v-5.609v-0.325
	C114.827,37.249,114.827,34.576,114.827,31.9z"/>
<path fill="#010101" d="M134.854,46.84C137.265,46.84,132.57,46.84,134.854,46.84L134.854,46.84z"/>
<path fill="#127DC2" d="M142.158,46.709h-0.586l0,0c-0.131,0-0.194,0-0.325,0h-0.13l0,0c-6.524,0.063-5.285,0.063-12.201,0.131
	c-2.545,0-4.695,0.914-4.631,3.849c0.067,2.61,1.761,3.59,4.176,3.655l0,0h1.041c0.851,0,1.504-0.655,1.504-1.5v-0.065
	c0-0.853-0.653-1.501-1.504-1.501h-1.041v-0.068h-0.59c-0.325,0-0.649-0.26-0.649-0.588c0-0.322,0.261-0.649,0.586-0.649h1.892
	h0.131h0.261c-0.067,0-0.198,0-0.261,0h1.433h0.067h0.455l0,0l0,0l0,0c5.871-0.067,3.915-0.067,9.722-0.128l0,0h0.65
	c0.851,0,1.5-0.656,1.5-1.5v-0.067C143.658,47.362,143.009,46.709,142.158,46.709z"/>
<path fill="#127DC2" d="M131.723,28.246C131.786,28.246,131.786,28.246,131.723,28.246c2.217,0,3.326,0,4.109-0.063l9.065-0.067
	c0.131,0,0.198,0,0.328,0h1.37c2.153-0.194,3.784-0.978,3.979-3.65c0.197-2.415-1.695-3.784-4.957-3.784
	c-5.677,0-11.286-0.067-16.963,0c-5.74,0.063-9.524,3.654-9.655,8.872c-0.064,5.023,3.915,8.871,9.591,8.938c1.5,0,3,0,4.434,0
	c0.067,0,0.131,0,0.131,0h9.132c0.847,0,1.5,0.649,1.5,1.5c0,0.848-0.653,1.5-1.5,1.5h-6.262l0,0c-2.479,0-4.957-0.068-7.435,0
	c-5.871,0.127-9.722,3.848-9.655,9.196c0.064,4.956,4.045,8.546,9.525,8.612c4.893,0.066,9.849,0.066,14.742,0h5.676
	c0.847,0,1.564-0.723,1.564-1.566c0,0,0,0,0-0.066l0,0l0,0c0-0.844-0.717-1.5-1.564-1.5h-5.352c-4.695-0.067-9.458,0-14.156,0
	c-4.695,0-7.435-2.285-7.371-5.936c0.067-3.652,2.87-5.807,7.501-5.807c3.721,0,7.375,0,11.092,0
	c3.586-0.064,5.546-1.762,5.479-4.565c-0.064-2.743-2.153-4.438-5.677-4.501c-4.042-0.066-8.024,0.064-12.066,0
	c-3.717-0.066-6.263-2.284-6.393-5.546c-0.131-3.329,2.348-5.871,6.262-6.068c2.154-0.063,4.307-0.13,6.457-0.063l0,0h12.395
	c0.392,0,0.653,0.325,0.653,0.653c0,0.325-0.325,0.649-0.653,0.649h-5.023l0,0h-0.455l0,0c-0.131,0-0.194,0-0.325,0h-0.13l0,0h-1.5
	h-3.131c-0.522,0-1.108,0-1.631,0c-0.459,0-1.045,0.067-1.5,0.067c-1.175,0-2.676,0-5.023,0.064c-2.545,0-4.699,0.914-4.632,3.851
	c0.064,2.609,1.762,3.587,4.173,3.65l0,0h1.045c0.848,0,1.5-0.649,1.5-1.5v-0.063c0-0.847-0.653-1.5-1.5-1.5h-1.045v0.063h-0.586
	c-0.325,0-0.653-0.261-0.653-0.586c0-0.325,0.261-0.653,0.589-0.653h1.892h0.13h0.258c-0.063,0-0.194,0-0.258,0h1.434h0.067h0.456
	l0,0L131.723,28.246z"/>
<g>
	<path fill="none" d="M170.015,42.6L170.015,42.6l5.218,5.221l0,0L170.015,42.6z"/>
	<path fill="none" d="M156.904,24.529c-0.261,0.261-0.261,0.783,0,1.044l12.522,12.525l0,0l-0.586-0.589l-1.239-3.326l-9.588-9.588
		C157.62,24.204,157.162,24.204,156.904,24.529z"/>
	<path fill="none" d="M188.279,24.596l-14.091,14.153l0.72,0.72l-1.631,1.631l-0.72-0.72c-0.258,0.261-0.258,0.654,0,0.914
		l15.529,15.529c0.255,0.256,0.65,0.256,0.911,0c0.262-0.268,0.262-0.656,0-0.918l-15.07-15.134l15.271-15.265
		c0.255-0.261,0.255-0.653,0-0.911C188.997,24.335,188.542,24.335,188.279,24.596z"/>
	<path fill="none" d="M156.773,56.891c0.261,0.254,0.781,0.254,1.042,0l9.917-9.92l1.239-3.329l-12.264,12.265
		C156.512,56.1,156.512,56.622,156.773,56.891z"/>
	<path fill="#010101" d="M170.015,42.6l16.309,16.374c0.128,0.127,0.262,0.261,0.389,0.327l-11.48-11.479
		C175.3,47.881,170.015,42.534,170.015,42.6z"/>
</g>
<path fill="#127DC2" d="M186.197,22.245l-5.941,5.938c0,0,0,0.063-0.066,0.063l-10.372,10.372l-0.519-0.519l0,0l-12.525-12.525
	c-0.261-0.261-0.261-0.784,0-1.044c0.261-0.262,0.781-0.262,1.042,0l7.569,7.568c0,0.063,0.064,0.063,0.064,0.131l3.523,3.52
	c0.586,0.589,1.5,0.589,2.086,0c0.589-0.586,0.589-1.5,0-2.086l-3.52-3.523l0,0l-7.699-7.696c-1.37-1.37-3.654-1.37-5.087,0
	c-1.239,1.239-1.37,3.262-0.329,4.632L169.948,42.6l0,0l5.221,5.221l0,0l11.483,11.48c1.434,1.045,3.39,0.91,4.629-0.328
	c1.373-1.373,1.373-3.65,0-5.092L178.104,40.51l13.238-13.242c1.373-1.37,1.373-3.654,0-5.087l0,0
	C189.908,20.812,187.631,20.812,186.197,22.245z M189.198,25.507l-15.271,15.265l15.07,15.074c0.262,0.254,0.262,0.648,0,0.91
	c-0.261,0.262-0.656,0.262-0.911,0L172.557,41.23c-0.258-0.261-0.258-0.653,0-0.914l0.262-0.262l1.37-1.37l14.153-14.156
	c0.268-0.262,0.656-0.262,0.918,0C189.453,24.854,189.453,25.246,189.198,25.507z"/>
<path fill="#127DC2" d="M154.814,27.466l13.111,13.111l-13.242,13.246c-1.37,1.366-1.37,3.649,0,5.084l0,0
	c1.37,1.372,3.653,1.372,5.09,0l9.913-9.914l0,0l1.175-1.172c0.522-0.525,0.522-1.439,0-1.959c-0.522-0.521-1.437-0.521-1.956,0
	l-3.721,3.715c-0.063,0.066-0.063,0.066-0.13,0.133l-7.241,7.24c-0.261,0.262-0.78,0.262-1.042,0c-0.261-0.261-0.261-0.783,0-1.045
	l12.264-12.264l0,0l0.978-0.979l-15.526-15.525C154.62,27.205,154.684,27.335,154.814,27.466z"/>
<path fill="#127DC2" d="M222.855,30.53c3.718,9.524,7.502,18.978,11.354,28.443c0,0.061,0.061,0.127,0.061,0.127l0.463,1.179
	c0.254,0.718,1.104,1.112,1.82,0.845l0,0c0.717-0.254,1.112-1.104,0.844-1.822l-0.516-1.372v-0.062
	c-0.127-0.334-0.261-0.724-0.395-1.045l-1.301-3.455c-0.066-0.068-0.066-0.201-0.134-0.269c-3.135-8.151-6.391-16.24-9.592-24.331
	c-1.567-3.979-4.233-6.523-8.733-6.523c-4.373,0-6.985,2.481-8.682,6.263c-1.307,3.067-2.738,6.132-4.111,9.263
	c-2.545,5.739-5.092,11.55-7.568,17.284c-0.979,2.291-0.322,4.18,1.896,5.158c2.083,0.91,3.784,0.065,4.829-2.023
	c0.254-0.589,0.521-1.172,0.844-1.761c3.59-8.024,7.113-16.112,10.771-24.137c0.389-0.914,1.3-1.564,1.956-2.348
	c0.71,0.847,1.694,1.564,2.083,2.545c1.439,3.258,2.672,6.651,4.307,10.697c-2.611-0.066-4.763-0.193-6.846-0.131
	c-0.135,0-0.2-0.063-0.335-0.063h-3.188c-0.791,0-1.5,0.648-1.5,1.5c0,0.779,0.648,1.5,1.5,1.5h2.277
	c2.934,0.193,5.874,0.131,8.874,0.262c2.539,0.127,3.396-0.785,2.353-3.33c-1.701-4.044-3.27-8.087-4.83-12.132
	c-0.851-2.153-2.022-3.915-4.629-3.979c-2.679-0.067-3.984,1.695-4.963,3.979c-3.522,8.088-7.105,16.112-10.63,24.136
	c-0.396,0.851-0.917,1.566-1.373,2.418c-0.261-0.135-0.454-0.268-0.717-0.396c0.263-0.783,0.456-1.566,0.784-2.351
	c3.516-8.089,7.173-16.108,10.629-24.2c1.18-2.803,2.747-5.087,6.068-5.087C220.049,25.246,221.684,27.597,222.855,30.53z"/>
<g enable-background="new    ">
	<path fill="#127DC2" d="M242.714,60.021V21.224h8.877v30.687h10.356v8.109L242.714,60.021L242.714,60.021z"/>
	<path fill="#127DC2" d="M265.893,60.021V21.224h8.822V60.02L265.893,60.021L265.893,60.021z"/>
	<path fill="#127DC2" d="M298.386,60.021L289.4,36.403h-0.164l0.219,23.618h-7.836V21.224h9.645l8.932,23.946h0.164l-0.164-23.946
		h7.563V60.02L298.386,60.021L298.386,60.021z"/>
	<path fill="#127DC2" d="M331.21,60.021L325.84,47.2l-5.314,12.821h-9.151l9.535-20.33l-8.769-18.467h9.151l4.767,11.782
		l4.822-11.782h8.987l-8.822,18.412l9.645,20.384L331.21,60.021L331.21,60.021z"/>
</g>
<g id="XMLID_51_">
	<g>
		<path id="XMLID_17_" fill="#21A3DD" d="M57.504,19.697L38.002,34.662c-1.558,1.216-3.385,1.76-5.28,1.76
			c-2.234,0-4.469-0.882-6.095-2.508l-5.01-5.01c0.88,0.203,1.828,0.271,2.775,0.271c3.589,0,6.907-1.421,9.417-3.656l17.737-13.61
			c2.17-1.626,5.217-1.22,6.907,0.949C60.076,14.955,59.672,18.07,57.504,19.697z"/>
	</g>
</g>
<path id="XMLID_50_" fill="#EDC657" d="M33.808,25.517c-2.44,2.303-5.756,3.656-9.417,3.656c-0.949,0-1.895-0.069-2.775-0.271
	l-4.872-4.876c-1.9-1.896-1.9-5.01,0-6.974c1.895-1.961,5.008-1.895,6.971,0l9.143,9.143L33.808,25.517z"/>
<linearGradient id="XMLID_2_" gradientUnits="userSpaceOnUse" x1="4549.9941" y1="-7376.5747" x2="4609.394" y2="-7531.3174" gradientTransform="matrix(0.093 0 0 -0.093 -401.7936 -670.8782)">
	<stop  offset="0" style="stop-color:#FFFFFF;stop-opacity:0"/>
	<stop  offset="0.1083" style="stop-color:#EDECEB;stop-opacity:0.1083"/>
	<stop  offset="0.2654" style="stop-color:#CECACA;stop-opacity:0.2654"/>
	<stop  offset="0.4522" style="stop-color:#A29D9D;stop-opacity:0.4522"/>
	<stop  offset="0.662" style="stop-color:#6E6868;stop-opacity:0.662"/>
	<stop  offset="0.888" style="stop-color:#3C3737;stop-opacity:0.888"/>
	<stop  offset="1" style="stop-color:#231F20"/>
</linearGradient>
<path id="XMLID_49_" opacity="0.57" fill="url(#XMLID_2_)" enable-background="new    " d="M33.808,25.517
	c-2.44,2.303-5.756,3.656-9.417,3.656c-0.949,0-1.895-0.069-2.775-0.271l-4.872-4.876c-1.9-1.896-1.9-5.01,0-6.974
	c1.895-1.961,5.008-1.895,6.971,0l9.143,9.143L33.808,25.517z"/>
<g id="XMLID_47_">
	<path id="XMLID_48_" fill="#29B4D1" d="M17.217,68.584l19.499-14.966c1.56-1.219,3.387-1.758,5.285-1.758
		c2.234,0,4.467,0.879,6.094,2.503l5.011,5.008c-0.879-0.198-1.827-0.268-2.774-0.268c-3.592,0-6.91,1.418-9.414,3.654
		L23.107,76.367c-2.167,1.625-5.213,1.223-6.905-0.88C14.642,73.259,15.051,70.212,17.217,68.584z"/>
</g>
<path id="XMLID_46_" fill="#EDC657" d="M40.983,62.758c2.435-2.306,5.753-3.654,9.413-3.654c0.943,0,1.895,0.069,2.771,0.268
	l4.876,4.878c1.896,1.892,1.896,5.007,0,6.972c-1.893,1.965-5.012,1.896-6.973,0l-9.139-9.204L40.983,62.758z"/>
<linearGradient id="XMLID_3_" gradientUnits="userSpaceOnUse" x1="153.4287" y1="10010.7227" x2="212.8323" y2="9855.9668" gradientTransform="matrix(-0.093 0 0 0.093 67.8893 -857.3781)">
	<stop  offset="0" style="stop-color:#FFFFFF;stop-opacity:0"/>
	<stop  offset="0.1083" style="stop-color:#EDECEB;stop-opacity:0.1083"/>
	<stop  offset="0.2654" style="stop-color:#CECACA;stop-opacity:0.2654"/>
	<stop  offset="0.4522" style="stop-color:#A29D9D;stop-opacity:0.4522"/>
	<stop  offset="0.662" style="stop-color:#6E6868;stop-opacity:0.662"/>
	<stop  offset="0.888" style="stop-color:#3C3737;stop-opacity:0.888"/>
	<stop  offset="1" style="stop-color:#231F20"/>
</linearGradient>
<path id="XMLID_45_" opacity="0.57" fill="url(#XMLID_3_)" enable-background="new    " d="M40.983,62.758
	c2.435-2.306,5.753-3.654,9.413-3.654c0.943,0,1.895,0.069,2.771,0.268l4.876,4.878c1.896,1.892,1.896,5.007,0,6.972
	c-1.893,1.965-5.012,1.896-6.973,0l-9.139-9.204L40.983,62.758z"/>
<g id="XMLID_43_">
	<path id="XMLID_44_" fill="#29B4D1" d="M12.95,23.959l14.965,19.502c1.22,1.561,1.761,3.389,1.761,5.284
		c0,2.236-0.878,4.468-2.505,6.089l-5.01,5.015c0.204-0.883,0.271-1.826,0.271-2.779c0-3.584-1.423-6.902-3.658-9.411L5.167,29.92
		c-1.626-2.164-1.22-5.214,0.876-6.905C8.211,21.389,11.327,21.794,12.95,23.959z"/>
</g>
<path id="XMLID_42_" fill="#E1BB24" d="M18.774,47.729c2.303,2.438,3.658,5.757,3.658,9.411c0,0.956-0.068,1.891-0.271,2.773
	l-4.876,4.879c-1.895,1.891-5.01,1.891-6.973,0c-1.896-1.892-1.896-5.007,0-6.968l9.14-9.148L18.774,47.729z"/>
<linearGradient id="XMLID_4_" gradientUnits="userSpaceOnUse" x1="-6305.5156" y1="-913.3872" x2="-6246.0737" y2="-1068.2363" gradientTransform="matrix(0 -0.093 -0.093 0 -76.8895 -526.1004)">
	<stop  offset="0" style="stop-color:#FFFFFF;stop-opacity:0"/>
	<stop  offset="0.1083" style="stop-color:#EDECEB;stop-opacity:0.1083"/>
	<stop  offset="0.2654" style="stop-color:#CECACA;stop-opacity:0.2654"/>
	<stop  offset="0.4522" style="stop-color:#A29D9D;stop-opacity:0.4522"/>
	<stop  offset="0.662" style="stop-color:#6E6868;stop-opacity:0.662"/>
	<stop  offset="0.888" style="stop-color:#3C3737;stop-opacity:0.888"/>
	<stop  offset="1" style="stop-color:#231F20"/>
</linearGradient>
<path id="XMLID_41_" opacity="0.57" fill="url(#XMLID_4_)" enable-background="new    " d="M18.774,47.729
	c2.303,2.438,3.658,5.757,3.658,9.411c0,0.956-0.068,1.891-0.271,2.773l-4.876,4.879c-1.895,1.891-5.01,1.891-6.973,0
	c-1.896-1.892-1.896-5.007,0-6.968l9.14-9.148L18.774,47.729z"/>
<g id="XMLID_39_">
	
		<linearGradient id="XMLID_5_" gradientUnits="userSpaceOnUse" x1="4366.6484" y1="-7653.9019" x2="4640.9365" y2="-7653.9019" gradientTransform="matrix(0.093 0 0 -0.093 -401.7936 -670.8782)">
		<stop  offset="0" style="stop-color:#27B3E8"/>
		<stop  offset="1" style="stop-color:#0874BB"/>
	</linearGradient>
	<path id="XMLID_40_" fill="url(#XMLID_5_)" d="M12.95,23.959l14.965,19.502c1.22,1.561,1.761,3.389,1.761,5.284
		c0,2.236-0.878,4.468-2.505,6.089l-5.01,5.015c0.204-0.883,0.271-1.826,0.271-2.779c0-3.584-1.423-6.902-3.658-9.411L5.167,29.92
		c-1.626-2.164-1.22-5.214,0.876-6.905C8.211,21.389,11.327,21.794,12.95,23.959z"/>
</g>
<path id="XMLID_38_" fill="#D85C27" d="M18.774,47.729c2.303,2.438,3.658,5.757,3.658,9.411c0,0.956-0.068,1.891-0.271,2.773
	l-4.876,4.879c-1.895,1.891-5.01,1.891-6.973,0c-1.896-1.892-1.896-5.007,0-6.968l9.14-9.148L18.774,47.729z"/>
<linearGradient id="XMLID_6_" gradientUnits="userSpaceOnUse" x1="-6305.5156" y1="-913.3872" x2="-6246.0737" y2="-1068.2363" gradientTransform="matrix(0 -0.093 -0.093 0 -76.8895 -526.1004)">
	<stop  offset="0" style="stop-color:#FFFFFF;stop-opacity:0"/>
	<stop  offset="0.1083" style="stop-color:#EDECEB;stop-opacity:0.1083"/>
	<stop  offset="0.2654" style="stop-color:#CECACA;stop-opacity:0.2654"/>
	<stop  offset="0.4522" style="stop-color:#A29D9D;stop-opacity:0.4522"/>
	<stop  offset="0.662" style="stop-color:#6E6868;stop-opacity:0.662"/>
	<stop  offset="0.888" style="stop-color:#3C3737;stop-opacity:0.888"/>
	<stop  offset="1" style="stop-color:#231F20"/>
</linearGradient>
<path id="XMLID_37_" opacity="0.57" fill="url(#XMLID_6_)" enable-background="new    " d="M18.774,47.729
	c2.303,2.438,3.658,5.757,3.658,9.411c0,0.956-0.068,1.891-0.271,2.773l-4.876,4.879c-1.895,1.891-5.01,1.891-6.973,0
	c-1.896-1.892-1.896-5.007,0-6.968l9.14-9.148L18.774,47.729z"/>
<g id="XMLID_35_">
	
		<linearGradient id="XMLID_7_" gradientUnits="userSpaceOnUse" x1="4806.8701" y1="-7722.1997" x2="5081.1465" y2="-7722.1997" gradientTransform="matrix(0.093 0 0 -0.093 -401.7936 -670.8782)">
		<stop  offset="0" style="stop-color:#27B3E8"/>
		<stop  offset="1" style="stop-color:#0874BB"/>
	</linearGradient>
	<path id="XMLID_36_" fill="url(#XMLID_7_)" d="M61.77,64.314L46.873,44.747c-1.215-1.557-1.758-3.383-1.758-5.278
		c0-2.237,0.877-4.472,2.504-6.096l5.01-5.011c-0.201,0.878-0.27,1.827-0.27,2.775c0,3.588,1.422,6.909,3.656,9.41l13.609,17.815
		c1.625,2.159,1.22,5.205-0.879,6.899C66.51,66.83,63.461,66.412,61.77,64.314z"/>
</g>
<path id="XMLID_34_" fill="#D85C27" d="M56.016,40.547c-2.301-2.436-3.656-5.753-3.656-9.41c0-0.948,0.068-1.896,0.27-2.775
	l4.875-4.875c1.896-1.896,5.012-1.896,6.975,0c1.894,1.895,1.894,5.01,0,6.974l-9.207,9.143L56.016,40.547z"/>
<linearGradient id="XMLID_8_" gradientUnits="userSpaceOnUse" x1="11008.8926" y1="3547.4634" x2="11068.3184" y2="3392.6509" gradientTransform="matrix(0 0.093 0.093 0 -263.3889 -995.7823)">
	<stop  offset="0" style="stop-color:#FFFFFF;stop-opacity:0"/>
	<stop  offset="0.1083" style="stop-color:#EDECEB;stop-opacity:0.1083"/>
	<stop  offset="0.2654" style="stop-color:#CECACA;stop-opacity:0.2654"/>
	<stop  offset="0.4522" style="stop-color:#A29D9D;stop-opacity:0.4522"/>
	<stop  offset="0.662" style="stop-color:#6E6868;stop-opacity:0.662"/>
	<stop  offset="0.888" style="stop-color:#3C3737;stop-opacity:0.888"/>
	<stop  offset="1" style="stop-color:#231F20"/>
</linearGradient>
<path id="XMLID_33_" opacity="0.57" fill="url(#XMLID_8_)" enable-background="new    " d="M56.016,40.547
	c-2.301-2.436-3.656-5.753-3.656-9.41c0-0.948,0.068-1.896,0.27-2.775l4.875-4.875c1.896-1.896,5.012-1.896,6.975,0
	c1.894,1.895,1.894,5.01,0,6.974l-9.207,9.143L56.016,40.547z"/>
</svg>
