<?xml version="1.0" encoding="utf-8"?>
<!-- Generator: Adobe Illustrator 24.0.0, SVG Export Plug-In . SVG Version: 6.00 Build 0)  -->
<svg version="1.1" id="Layer_1" xmlns="http://www.w3.org/2000/svg" xmlns:xlink="http://www.w3.org/1999/xlink" x="0px" y="0px"
	 viewBox="0 0 350 80.5" style="enable-background:new 0 0 350 80.5;" xml:space="preserve">
<style type="text/css">
	.st0{enable-background:new    ;}
	.st1{fill:#FFFFFF;}
	.st2{fill:#767677;}
	.st3{fill:none;}
	.st4{fill:#010101;}
	.st5{fill:#21A3DD;}
	.st6{fill:#EDC657;}
	.st7{opacity:0.57;fill:url(#XMLID_2_);enable-background:new    ;}
	.st8{fill:#29B4D1;}
	.st9{opacity:0.57;fill:url(#XMLID_3_);enable-background:new    ;}
	.st10{fill:#E1BB24;}
	.st11{opacity:0.57;fill:url(#XMLID_4_);enable-background:new    ;}
	.st12{fill:url(#XMLID_5_);}
	.st13{fill:#D85C27;}
	.st14{opacity:0.57;fill:url(#XMLID_6_);enable-background:new    ;}
	.st15{fill:url(#XMLID_7_);}
	.st16{opacity:0.57;fill:url(#XMLID_8_);enable-background:new    ;}
</style>
<g class="st0">
	<path class="st1" d="M95.1,75.4v-6.5h-2.5v-1h6.5v1h-2.5v6.5H95.1z"/>
	<path class="st1" d="M100.1,75.4v-5.6h1.4v1.1c0.4-0.8,0.9-1.2,1.7-1.2c0.1,0,0.2,0,0.3,0v1.3c-0.2-0.1-0.4-0.1-0.6-0.1
		c-0.6,0-1,0.3-1.4,0.9v3.6C101.5,75.4,100.1,75.4,100.1,75.4z"/>
	<path class="st1" d="M107,74.8c-0.5,0.5-1,0.7-1.5,0.7c-0.5,0-0.8-0.1-1.1-0.4c-0.3-0.3-0.4-0.7-0.4-1.2c0-0.6,0.2-1.1,0.7-1.4
		c0.5-0.3,1.1-0.5,2-0.5h0.4v-0.5c0-0.6-0.3-0.9-0.9-0.9c-0.5,0-1.1,0.2-1.7,0.5v-1c0.6-0.3,1.3-0.4,1.9-0.4c1.4,0,2,0.6,2,1.7v2.5
		c0,0.4,0.1,0.7,0.4,0.7c0.1,0,0.1,0,0.2-0.1v0.9c-0.3,0.1-0.6,0.1-0.8,0.1C107.6,75.5,107.2,75.3,107,74.8L107,74.8L107,74.8z
		 M107,74v-1.1h-0.3c-0.4,0-0.8,0.1-1,0.2c-0.2,0.2-0.4,0.4-0.4,0.7c0,0.2,0.1,0.4,0.2,0.5c0.1,0.1,0.3,0.2,0.5,0.2
		C106.3,74.5,106.7,74.3,107,74z"/>
	<path class="st1" d="M110.1,75.4v-5.6h1.4v1.1c0.5-0.8,1-1.2,1.8-1.2c0.5,0,0.8,0.2,1.1,0.5c0.3,0.3,0.4,0.7,0.4,1.3v4h-1.4v-3.6
		c0-0.6-0.2-1-0.6-1c-0.4,0-0.9,0.3-1.3,1v3.5H110.1z"/>
	<path class="st1" d="M116.4,75.2v-1.1c0.7,0.3,1.3,0.5,1.8,0.5c0.6,0,0.9-0.2,0.9-0.6c0-0.3-0.2-0.5-0.7-0.7l-0.5-0.2
		c-0.5-0.2-0.9-0.5-1.1-0.7c-0.2-0.3-0.3-0.6-0.3-1c0-0.5,0.2-0.9,0.6-1.2c0.4-0.3,0.9-0.4,1.6-0.4c0.4,0,0.9,0.1,1.5,0.2v1.1
		c-0.6-0.2-1-0.3-1.4-0.3c-0.6,0-0.9,0.2-0.9,0.6c0,0.3,0.2,0.5,0.6,0.6l0.4,0.2c0.6,0.2,1,0.5,1.3,0.8s0.4,0.6,0.4,1
		c0,0.5-0.2,1-0.6,1.3s-0.9,0.5-1.6,0.5C117.6,75.5,117,75.4,116.4,75.2z"/>
	<path class="st1" d="M122.1,75.4v-4.7h-0.7v-0.9h0.7v-0.4c0-1.4,0.6-2.2,1.9-2.2c0.4,0,0.8,0.1,1.3,0.2v1c-0.4-0.2-0.8-0.3-1.1-0.3
		c-0.3,0-0.5,0.1-0.6,0.3c-0.1,0.2-0.2,0.5-0.2,0.9v0.5h1.3v0.9h-1.3v4.7H122.1z"/>
	<path class="st1" d="M128.2,75.5c-0.8,0-1.5-0.3-1.9-0.8c-0.5-0.5-0.7-1.2-0.7-2.1c0-0.9,0.2-1.6,0.7-2.1c0.5-0.5,1.1-0.8,2-0.8
		c0.8,0,1.5,0.3,2,0.8c0.5,0.5,0.7,1.2,0.7,2.1c0,0.9-0.2,1.6-0.7,2.2C129.7,75.3,129,75.5,128.2,75.5z M128.2,74.6
		c0.4,0,0.7-0.2,0.9-0.5c0.2-0.4,0.3-0.8,0.3-1.5c0-0.6-0.1-1.1-0.3-1.4c-0.2-0.4-0.5-0.5-0.9-0.5c-0.4,0-0.7,0.2-0.9,0.5
		c-0.2,0.4-0.3,0.8-0.3,1.5c0,0.6,0.1,1.1,0.3,1.4C127.5,74.4,127.8,74.6,128.2,74.6z"/>
	<path class="st1" d="M132.2,75.4v-5.6h1.4v1.1c0.4-0.8,0.9-1.2,1.7-1.2c0.1,0,0.2,0,0.3,0v1.3c-0.2-0.1-0.4-0.1-0.6-0.1
		c-0.6,0-1,0.3-1.4,0.9v3.6C133.6,75.4,132.2,75.4,132.2,75.4z"/>
	<path class="st1" d="M136.6,75.4v-5.6h1.3v1.1c0.4-0.8,1-1.2,1.7-1.2c0.4,0,0.7,0.1,1,0.3s0.4,0.5,0.5,0.9c0.5-0.8,1.1-1.2,1.8-1.2
		c0.9,0,1.4,0.6,1.4,1.7v4h-1.3v-3.5c0-0.7-0.2-1-0.6-1c-0.4,0-0.8,0.3-1.2,1v3.6h-1.3v-3.5c0-0.7-0.2-1-0.6-1c-0.4,0-0.8,0.3-1.2,1
		v3.6L136.6,75.4L136.6,75.4z"/>
	<path class="st1" d="M145.9,68.9v-1.3h1.4v1.3H145.9z M145.9,75.4v-5.6h1.4v5.6H145.9z"/>
	<path class="st1" d="M149.1,75.4v-5.6h1.4v1.1c0.5-0.8,1-1.2,1.8-1.2c0.5,0,0.8,0.2,1.1,0.5c0.3,0.3,0.4,0.7,0.4,1.3v4h-1.4v-3.6
		c0-0.6-0.2-1-0.6-1c-0.4,0-0.9,0.3-1.3,1v3.5H149.1z"/>
	<path class="st1" d="M155.5,77.1l0.1-1.1c0.6,0.3,1.1,0.4,1.6,0.4c0.5,0,0.9-0.1,1.1-0.4c0.2-0.2,0.3-0.6,0.3-1.2v-0.8
		c-0.3,0.8-0.9,1.2-1.7,1.2c-0.6,0-1.1-0.2-1.5-0.7c-0.4-0.5-0.5-1.2-0.5-2c0-0.9,0.2-1.6,0.6-2.1c0.4-0.5,0.9-0.8,1.6-0.8
		c0.5,0,1,0.2,1.5,0.7l0.1-0.6h1.3v4.3c0,0.9,0,1.5-0.1,1.8s-0.3,0.7-0.6,1c-0.5,0.4-1.1,0.7-2,0.7
		C156.8,77.5,156.2,77.4,155.5,77.1z M158.7,73.3v-2.1c-0.3-0.4-0.7-0.6-1.1-0.6c-0.4,0-0.6,0.2-0.8,0.5c-0.2,0.3-0.3,0.8-0.3,1.4
		c0,1.1,0.3,1.6,1,1.6C157.9,74.2,158.3,73.9,158.7,73.3z"/>
	<path class="st1" d="M164.9,75.4v-8h1.4v3.5c0.4-0.8,0.9-1.2,1.7-1.2c0.6,0,1.1,0.2,1.5,0.7s0.5,1.2,0.5,2c0,0.9-0.2,1.7-0.6,2.2
		c-0.4,0.6-0.9,0.8-1.6,0.8c-0.6,0-1.1-0.2-1.5-0.7l-0.3,0.6L164.9,75.4L164.9,75.4z M166.3,73.9c0.3,0.4,0.7,0.6,1.1,0.6
		c0.3,0,0.6-0.2,0.8-0.5c0.2-0.4,0.3-0.8,0.3-1.4c0-1.1-0.3-1.7-1-1.7c-0.4,0-0.8,0.3-1.2,0.9L166.3,73.9L166.3,73.9z"/>
	<path class="st1" d="M174.5,75.4v-1.1c-0.5,0.8-1,1.2-1.8,1.2c-0.5,0-0.8-0.2-1.1-0.5c-0.3-0.3-0.4-0.7-0.4-1.3v-4h1.4v3.6
		c0,0.6,0.2,1,0.6,1c0.4,0,0.9-0.3,1.3-1v-3.5h1.4v5.6C175.9,75.4,174.5,75.4,174.5,75.4z"/>
	<path class="st1" d="M177.6,75.2v-1.1c0.7,0.3,1.3,0.5,1.8,0.5c0.6,0,0.9-0.2,0.9-0.6c0-0.3-0.2-0.5-0.7-0.7L179,73
		c-0.5-0.2-0.9-0.5-1.1-0.7c-0.2-0.3-0.3-0.6-0.3-1c0-0.5,0.2-0.9,0.6-1.2c0.4-0.3,0.9-0.4,1.6-0.4c0.4,0,0.9,0.1,1.5,0.2v1.1
		c-0.6-0.2-1-0.3-1.4-0.3c-0.6,0-0.9,0.2-0.9,0.6c0,0.3,0.2,0.5,0.6,0.6L180,72c0.6,0.2,1,0.5,1.3,0.8c0.2,0.3,0.4,0.6,0.4,1
		c0,0.5-0.2,1-0.6,1.3c-0.4,0.3-0.9,0.5-1.6,0.5C178.8,75.5,178.2,75.4,177.6,75.2z"/>
	<path class="st1" d="M183.2,68.9v-1.3h1.4v1.3H183.2z M183.2,75.4v-5.6h1.4v5.6H183.2z"/>
	<path class="st1" d="M186.3,75.4v-5.6h1.4v1.1c0.5-0.8,1-1.2,1.8-1.2c0.5,0,0.8,0.2,1.1,0.5c0.3,0.3,0.4,0.7,0.4,1.3v4h-1.4v-3.6
		c0-0.6-0.2-1-0.6-1c-0.4,0-0.9,0.3-1.3,1v3.5H186.3z"/>
	<path class="st1" d="M196.9,75.2c-0.7,0.2-1.3,0.3-1.9,0.3c-0.9,0-1.6-0.3-2.1-0.8s-0.8-1.3-0.8-2.2c0-0.9,0.2-1.6,0.7-2.1
		c0.5-0.5,1.1-0.8,1.8-0.8c0.8,0,1.3,0.3,1.7,0.8s0.5,1.3,0.5,2.5h-3.2c0.1,1.1,0.6,1.6,1.6,1.6c0.5,0,1-0.1,1.6-0.4L196.9,75.2
		L196.9,75.2L196.9,75.2z M193.7,72.1h1.9c0-1-0.3-1.4-0.9-1.4C194.1,70.6,193.7,71.1,193.7,72.1z"/>
	<path class="st1" d="M198.2,75.2v-1.1c0.7,0.3,1.3,0.5,1.8,0.5c0.6,0,0.9-0.2,0.9-0.6c0-0.3-0.2-0.5-0.7-0.7l-0.5-0.2
		c-0.5-0.2-0.9-0.5-1.1-0.7c-0.2-0.3-0.3-0.6-0.3-1c0-0.5,0.2-0.9,0.6-1.2c0.4-0.3,0.9-0.4,1.6-0.4c0.4,0,0.9,0.1,1.5,0.2v1.1
		c-0.6-0.2-1-0.3-1.4-0.3c-0.6,0-0.9,0.2-0.9,0.6c0,0.3,0.2,0.5,0.6,0.6l0.4,0.2c0.6,0.2,1,0.5,1.3,0.8c0.2,0.3,0.4,0.6,0.4,1
		c0,0.5-0.2,1-0.6,1.3c-0.4,0.3-0.9,0.5-1.6,0.5C199.5,75.5,198.8,75.4,198.2,75.2z"/>
	<path class="st1" d="M203.7,75.2v-1.1c0.7,0.3,1.3,0.5,1.8,0.5c0.6,0,0.9-0.2,0.9-0.6c0-0.3-0.2-0.5-0.7-0.7l-0.5-0.2
		c-0.5-0.2-0.9-0.5-1.1-0.7c-0.2-0.3-0.3-0.6-0.3-1c0-0.5,0.2-0.9,0.6-1.2c0.4-0.3,0.9-0.4,1.6-0.4c0.4,0,0.9,0.1,1.5,0.2v1.1
		c-0.6-0.2-1-0.3-1.4-0.3c-0.6,0-0.9,0.2-0.9,0.6c0,0.3,0.2,0.5,0.6,0.6l0.4,0.2c0.6,0.2,1,0.5,1.3,0.8s0.4,0.6,0.4,1
		c0,0.5-0.2,1-0.6,1.3s-0.9,0.5-1.6,0.5C204.9,75.5,204.3,75.4,203.7,75.2z"/>
	<path class="st1" d="M213.3,75.4l-1.4-5.6h1.3l1,3.9l1.1-3.9h1.2l1,3.9l1.1-3.9h1l-1.5,5.6h-1.3l-0.9-3.8l-1.1,3.8H213.3z"/>
	<path class="st1" d="M220.7,68.9v-1.3h1.4v1.3H220.7z M220.7,75.4v-5.6h1.4v5.6H220.7z"/>
	<path class="st1" d="M226.5,75.4c-0.3,0.1-0.6,0.2-0.8,0.2c-0.6,0-1.1-0.1-1.4-0.4c-0.3-0.3-0.4-0.8-0.4-1.4v-2.9h-0.6v-0.9h0.6
		v-0.9l1.4-0.2v1.1h1.1v0.9h-1.1v2.7c0,0.7,0.3,1,0.8,1c0.1,0,0.3,0,0.4-0.1L226.5,75.4L226.5,75.4z"/>
	<path class="st1" d="M227.8,75.4v-8h1.4v3.5c0.5-0.8,1-1.2,1.8-1.2c0.5,0,0.8,0.2,1.1,0.5c0.3,0.3,0.4,0.7,0.4,1.3v4h-1.4v-3.6
		c0-0.6-0.2-1-0.6-1c-0.4,0-0.9,0.3-1.3,1v3.5H227.8z"/>
	<path class="st1" d="M239.9,75.4c-0.3,0.1-0.6,0.2-0.8,0.2c-0.6,0-1.1-0.1-1.4-0.4c-0.3-0.3-0.4-0.8-0.4-1.4v-2.9h-0.6v-0.9h0.6
		v-0.9l1.4-0.2v1.1h1.1v0.9h-1.1v2.7c0,0.7,0.3,1,0.8,1c0.1,0,0.3,0,0.4-0.1L239.9,75.4L239.9,75.4z"/>
	<path class="st1" d="M245.4,75.2c-0.7,0.2-1.3,0.3-1.9,0.3c-0.9,0-1.6-0.3-2.1-0.8c-0.5-0.5-0.8-1.3-0.8-2.2c0-0.9,0.2-1.6,0.7-2.1
		c0.5-0.5,1.1-0.8,1.8-0.8c0.8,0,1.3,0.3,1.7,0.8c0.4,0.5,0.5,1.3,0.5,2.5h-3.2c0.1,1.1,0.6,1.6,1.6,1.6c0.5,0,1-0.1,1.6-0.4
		L245.4,75.2L245.4,75.2z M242.1,72.1h1.9c0-1-0.3-1.4-0.9-1.4C242.6,70.6,242.2,71.1,242.1,72.1z"/>
	<path class="st1" d="M250.7,75.3c-0.6,0.2-1.1,0.2-1.6,0.2c-0.8,0-1.5-0.3-2-0.8c-0.5-0.5-0.7-1.2-0.7-2.1c0-0.9,0.2-1.6,0.7-2.1
		c0.5-0.5,1.2-0.8,2.1-0.8c0.4,0,0.9,0.1,1.5,0.2V71c-0.6-0.2-1-0.3-1.4-0.3c-0.4,0-0.8,0.2-1,0.5c-0.3,0.3-0.4,0.8-0.4,1.4
		c0,0.6,0.1,1.1,0.4,1.4c0.3,0.4,0.6,0.5,1.1,0.5c0.4,0,0.9-0.1,1.3-0.3L250.7,75.3L250.7,75.3z"/>
	<path class="st1" d="M252,75.4v-8h1.4v3.5c0.5-0.8,1-1.2,1.8-1.2c0.5,0,0.8,0.2,1.1,0.5c0.3,0.3,0.4,0.7,0.4,1.3v4h-1.4v-3.6
		c0-0.6-0.2-1-0.6-1c-0.4,0-0.9,0.3-1.3,1v3.5H252z"/>
	<path class="st1" d="M258.3,75.4v-5.6h1.4v1.1c0.5-0.8,1-1.2,1.8-1.2c0.5,0,0.8,0.2,1.1,0.5c0.3,0.3,0.4,0.7,0.4,1.3v4h-1.4v-3.6
		c0-0.6-0.2-1-0.6-1c-0.4,0-0.9,0.3-1.3,1v3.5H258.3z"/>
	<path class="st1" d="M266.9,75.5c-0.8,0-1.5-0.3-1.9-0.8s-0.7-1.2-0.7-2.1c0-0.9,0.2-1.6,0.7-2.1c0.5-0.5,1.1-0.8,2-0.8
		c0.8,0,1.5,0.3,2,0.8c0.5,0.5,0.7,1.2,0.7,2.1c0,0.9-0.2,1.6-0.7,2.2C268.4,75.3,267.7,75.5,266.9,75.5z M266.9,74.6
		c0.4,0,0.7-0.2,0.9-0.5s0.3-0.8,0.3-1.5c0-0.6-0.1-1.1-0.3-1.4c-0.2-0.4-0.5-0.5-0.9-0.5c-0.4,0-0.7,0.2-0.9,0.5
		c-0.2,0.4-0.3,0.8-0.3,1.5c0,0.6,0.1,1.1,0.3,1.4C266.2,74.4,266.5,74.6,266.9,74.6z"/>
	<path class="st1" d="M270.9,75.4v-8h1.4v8H270.9z"/>
	<path class="st1" d="M276.2,75.5c-0.8,0-1.5-0.3-1.9-0.8c-0.5-0.5-0.7-1.2-0.7-2.1c0-0.9,0.2-1.6,0.7-2.1c0.5-0.5,1.1-0.8,2-0.8
		c0.8,0,1.5,0.3,2,0.8c0.5,0.5,0.7,1.2,0.7,2.1c0,0.9-0.2,1.6-0.7,2.2C277.7,75.3,277,75.5,276.2,75.5z M276.2,74.6
		c0.4,0,0.7-0.2,0.9-0.5c0.2-0.4,0.3-0.8,0.3-1.5c0-0.6-0.1-1.1-0.3-1.4c-0.2-0.4-0.5-0.5-0.9-0.5c-0.4,0-0.7,0.2-0.9,0.5
		S275,72,275,72.6c0,0.6,0.1,1.1,0.3,1.4C275.6,74.4,275.9,74.6,276.2,74.6z"/>
	<path class="st1" d="M280.2,77.1l0.1-1.1c0.6,0.3,1.1,0.4,1.6,0.4c0.5,0,0.9-0.1,1.1-0.4c0.2-0.2,0.3-0.6,0.3-1.2v-0.8
		c-0.3,0.8-0.9,1.2-1.7,1.2c-0.6,0-1.1-0.2-1.5-0.7c-0.4-0.5-0.5-1.2-0.5-2c0-0.9,0.2-1.6,0.6-2.1c0.4-0.5,0.9-0.8,1.6-0.8
		c0.5,0,1,0.2,1.5,0.7l0.1-0.6h1.3v4.3c0,0.9,0,1.5-0.1,1.8s-0.3,0.7-0.6,1c-0.5,0.4-1.1,0.7-2,0.7
		C281.6,77.5,280.9,77.4,280.2,77.1z M283.5,73.3v-2.1c-0.3-0.4-0.7-0.6-1.1-0.6c-0.4,0-0.6,0.2-0.8,0.5c-0.2,0.3-0.3,0.8-0.3,1.4
		c0,1.1,0.3,1.6,1,1.6C282.7,74.2,283.1,73.9,283.5,73.3z"/>
	<path class="st1" d="M286.6,77.4l1.2-2l-1.9-5.6h1.5l1.3,3.7l1.5-3.7h1.1l-3.2,7.6L286.6,77.4L286.6,77.4L286.6,77.4z"/>
	<path class="st1" d="M295.2,75.2v-1.1c0.7,0.3,1.3,0.5,1.8,0.5c0.6,0,0.9-0.2,0.9-0.6c0-0.3-0.2-0.5-0.7-0.7l-0.5-0.2
		c-0.5-0.2-0.9-0.5-1.1-0.7c-0.2-0.3-0.3-0.6-0.3-1c0-0.5,0.2-0.9,0.6-1.2c0.4-0.3,0.9-0.4,1.6-0.4c0.4,0,0.9,0.1,1.5,0.2v1.1
		c-0.6-0.2-1-0.3-1.4-0.3c-0.6,0-0.9,0.2-0.9,0.6c0,0.3,0.2,0.5,0.6,0.6l0.4,0.2c0.6,0.2,1,0.5,1.3,0.8c0.2,0.3,0.4,0.6,0.4,1
		c0,0.5-0.2,1-0.6,1.3c-0.4,0.3-0.9,0.5-1.6,0.5C296.4,75.5,295.8,75.4,295.2,75.2z"/>
	<path class="st1" d="M303,75.5c-0.8,0-1.5-0.3-1.9-0.8s-0.7-1.2-0.7-2.1c0-0.9,0.2-1.6,0.7-2.1c0.5-0.5,1.1-0.8,2-0.8
		c0.8,0,1.5,0.3,2,0.8c0.5,0.5,0.7,1.2,0.7,2.1c0,0.9-0.2,1.6-0.7,2.2C304.5,75.3,303.8,75.5,303,75.5z M303,74.6
		c0.4,0,0.7-0.2,0.9-0.5s0.3-0.8,0.3-1.5c0-0.6-0.1-1.1-0.3-1.4c-0.2-0.4-0.5-0.5-0.9-0.5c-0.4,0-0.7,0.2-0.9,0.5s-0.3,0.8-0.3,1.5
		c0,0.6,0.1,1.1,0.3,1.4C302.3,74.4,302.6,74.6,303,74.6z"/>
	<path class="st1" d="M307,75.4v-8h1.4v8H307z"/>
	<path class="st1" d="M313.3,75.4v-1.1c-0.5,0.8-1,1.2-1.8,1.2c-0.5,0-0.8-0.2-1.1-0.5c-0.3-0.3-0.4-0.7-0.4-1.3v-4h1.4v3.6
		c0,0.6,0.2,1,0.6,1c0.4,0,0.9-0.3,1.3-1v-3.5h1.4v5.6C314.7,75.4,313.3,75.4,313.3,75.4z"/>
	<path class="st1" d="M319.1,75.4c-0.3,0.1-0.6,0.2-0.8,0.2c-0.6,0-1.1-0.1-1.4-0.4c-0.3-0.3-0.4-0.8-0.4-1.4v-2.9H316v-0.9h0.6
		v-0.9l1.4-0.2v1.1h1.1v0.9h-1.1v2.7c0,0.7,0.3,1,0.8,1c0.1,0,0.3,0,0.4-0.1L319.1,75.4L319.1,75.4z"/>
	<path class="st1" d="M320.4,68.9v-1.3h1.4v1.3H320.4z M320.4,75.4v-5.6h1.4v5.6H320.4z"/>
	<path class="st1" d="M325.7,75.5c-0.8,0-1.5-0.3-1.9-0.8c-0.5-0.5-0.7-1.2-0.7-2.1c0-0.9,0.2-1.6,0.7-2.1c0.5-0.5,1.1-0.8,2-0.8
		c0.8,0,1.5,0.3,2,0.8c0.5,0.5,0.7,1.2,0.7,2.1c0,0.9-0.2,1.6-0.7,2.2C327.2,75.3,326.6,75.5,325.7,75.5z M325.7,74.6
		c0.4,0,0.7-0.2,0.9-0.5s0.3-0.8,0.3-1.5c0-0.6-0.1-1.1-0.3-1.4c-0.2-0.4-0.5-0.5-0.9-0.5c-0.4,0-0.7,0.2-0.9,0.5s-0.3,0.8-0.3,1.5
		c0,0.6,0.1,1.1,0.3,1.4C325.1,74.4,325.4,74.6,325.7,74.6z"/>
	<path class="st1" d="M329.7,75.4v-5.6h1.4v1.1c0.5-0.8,1-1.2,1.8-1.2c0.5,0,0.8,0.2,1.1,0.5c0.3,0.3,0.4,0.7,0.4,1.3v4H333v-3.6
		c0-0.6-0.2-1-0.6-1c-0.4,0-0.9,0.3-1.3,1v3.5H329.7z"/>
	<path class="st1" d="M335.9,75.2v-1.1c0.7,0.3,1.3,0.5,1.8,0.5c0.6,0,0.9-0.2,0.9-0.6c0-0.3-0.2-0.5-0.7-0.7l-0.5-0.2
		c-0.5-0.2-0.9-0.5-1.1-0.7c-0.2-0.3-0.3-0.6-0.3-1c0-0.5,0.2-0.9,0.6-1.2c0.4-0.3,0.9-0.4,1.6-0.4c0.4,0,0.9,0.1,1.5,0.2v1.1
		c-0.6-0.2-1-0.3-1.4-0.3c-0.6,0-0.9,0.2-0.9,0.6c0,0.3,0.2,0.5,0.6,0.6l0.4,0.2c0.6,0.2,1,0.5,1.3,0.8c0.2,0.3,0.4,0.6,0.4,1
		c0,0.5-0.2,1-0.6,1.3c-0.4,0.3-0.9,0.5-1.6,0.5C337.2,75.5,336.6,75.4,335.9,75.2z"/>
</g>
<path class="st1" d="M175,39.5c4.4-4.4,9.8-9.7,15.3-15.1c0.1,0,0.1,0,0.1,0c-0.7,0.8-1.4,1.6-2.1,2.4c-3.6,3.7-7.3,7.4-11.1,11.1
	c-1.6,1.6-1.6,2.7,0,4.3c3.8,3.6,7.4,7.4,11.1,11c0.7,0.7,1.4,1.5,1.9,2.4C185.1,50.2,179.9,44.7,175,39.5z"/>
<path class="st2" d="M108.8,53.2c-0.1-0.1-0.1-0.3-0.3-0.4l0,0L108.8,53.2z"/>
<polygon class="st3" points="108.5,52.8 108.5,52.8 108.8,53.2 108.8,53.3 "/>
<path class="st4" d="M108.5,52.8L108.5,52.8c-0.1-0.2-0.3-0.4-0.3-0.5l0,0L108.5,52.8z"/>
<g>
	<g>
		<path class="st1" d="M113.8,53c-6-9.3-11.9-18.7-18-27.9c-2.5-3.7-6.4-5.1-10.2-4c-3.7,1-6.3,4.5-6.4,8.9
			c-0.1,6.3-0.1,12.7-0.1,19c0,0.1,0,0.2,0,0.3v8.7c0,0.9,0.7,1.5,1.5,1.5l0,0c0.8,0,1.5-0.6,1.5-1.5v-1.7v-0.1
			c0.1-8.3,0.1-16.5,0.1-24.8c0-3.3,0.7-6.1,4.1-7.4c2.9-1,5.4,0.3,7.8,3.8c5.4,8.4,10.8,16.8,16.2,25.2c0.1,0.1,0.1,0.3,0.2,0.4
			l1.2,1.8c0.2,0.3,0.1,0.6-0.2,0.9c-0.3,0.2-0.7,0.1-0.8-0.2l-1-1.6l-0.1-0.1l-0.1-0.2c0.1,0.1,0.1,0.1,0.2,0.3l-0.8-1.2l-0.1-0.1
			l-0.3-0.4l0,0l-0.3-0.5l0,0c-5.2-8-10.4-16-15.5-24.1c-1.3-2-3-3.6-5.7-2.9c-2.6,0.7-3.4,2.7-3.3,5.3c0.1,7.6,0,15.1,0.1,22.7v4.9
			c0,0.8,0.7,1.5,1.5,1.5c0.9,0,1.5-0.7,1.5-1.5v-3.3c0.1-6,0.1-12,0.1-18c0-1.8-0.1-3.6,0-5.3v-1.6c0,0-0.1-1,0.9-1.6
			c0,0,0.7-0.6,1.6,0.5c0.1,0.1,0.1,0.1,0.2,0.2c0.5,0.5,0.9,1.2,1.3,1.8c5.5,8.6,11,17.2,16.6,25.8c1.4,2.1,3.3,3.5,5.7,1.8
			C115.3,57.3,115.2,55.2,113.8,53z"/>
		<path class="st1" d="M109.7,54.7c-0.1-0.1-0.1-0.1-0.1-0.2l0.1,0.1L109.7,54.7z"/>
	</g>
</g>
<path class="st1" d="M114.8,31.9v-7.8c0,0,0.3-2.5-1.4-3.5c-0.1,0-0.1-0.1-0.1-0.1l0,0c-0.1-0.1-0.1-0.1-0.2-0.1
	c-0.1,0-0.1-0.1-0.2-0.1c-0.1,0-0.2-0.1-0.3-0.1c-0.1,0-0.1,0-0.1,0c-0.5-0.1-0.9-0.1-1-0.1c-1.5-0.1-3.6,0.3-3.9,2.9
	c-0.1,0.6-0.1,1-0.1,1v6.5c0,0.7,0,1.4,0,2c0,0.1,0,0.2,0,0.3v6.1c0,0.9,0.7,1.6,1.6,1.6c0.8,0,1.6-0.7,1.6-1.6v-6.1
	c0-0.1,0-8.5-0.1-9.5c0-0.3,0.3-0.6,0.7-0.6h0.1c0.3,0,0.7,0.3,0.7,0.6v16.4c0,0.1,0,0.2,0,0.3v6.1c0,0.9,0.7,1.6,1.6,1.6
	c0.8,0,1.6-0.7,1.6-1.6v-0.5v-5.6V40C114.8,37.2,114.8,34.6,114.8,31.9z"/>
<path class="st4" d="M134.9,46.8C137.3,46.8,132.6,46.8,134.9,46.8L134.9,46.8z"/>
<path class="st1" d="M142.2,46.7h-0.6l0,0c-0.1,0-0.2,0-0.3,0h-0.1l0,0c-6.5,0.1-5.3,0.1-12.2,0.1c-2.5,0-4.7,0.9-4.6,3.8
	c0.1,2.6,1.8,3.6,4.2,3.7l0,0h1c0.9,0,1.5-0.7,1.5-1.5v-0.1c0-0.9-0.7-1.5-1.5-1.5h-1v-0.1h-0.6c-0.3,0-0.6-0.3-0.6-0.6
	c0-0.3,0.3-0.6,0.6-0.6h1.9h0.1h0.3c-0.1,0-0.2,0-0.3,0h1.4h0.1h0.5l0,0l0,0l0,0c5.9-0.1,3.9-0.1,9.7-0.1l0,0h0.6
	c0.9,0,1.5-0.7,1.5-1.5v-0.1C143.7,47.4,143,46.7,142.2,46.7z"/>
<path class="st1" d="M131.7,28.2C131.8,28.2,131.8,28.2,131.7,28.2c2.2,0,3.3,0,4.1-0.1l9.1-0.1c0.1,0,0.2,0,0.3,0h1.4
	c2.2-0.2,3.8-1,4-3.6c0.2-2.4-1.7-3.8-5-3.8c-5.7,0-11.3-0.1-17,0c-5.7,0.1-9.5,3.7-9.7,8.9c-0.1,5,3.9,8.9,9.6,8.9c1.5,0,3,0,4.4,0
	c0.1,0,0.1,0,0.1,0h9.1c0.8,0,1.5,0.6,1.5,1.5c0,0.8-0.7,1.5-1.5,1.5H136l0,0c-2.5,0-5-0.1-7.4,0c-5.9,0.1-9.7,3.8-9.7,9.2
	c0.1,5,4,8.5,9.5,8.6c4.9,0.1,9.8,0.1,14.7,0h5.7c0.8,0,1.6-0.7,1.6-1.6c0,0,0,0,0-0.1l0,0l0,0c0-0.8-0.7-1.5-1.6-1.5h-5.4
	c-4.7-0.1-9.5,0-14.2,0c-4.7,0-7.4-2.3-7.4-5.9c0.1-3.7,2.9-5.8,7.5-5.8c3.7,0,7.4,0,11.1,0c3.6-0.1,5.5-1.8,5.5-4.6
	c-0.1-2.7-2.2-4.4-5.7-4.5c-4-0.1-8,0.1-12.1,0c-3.7-0.1-6.3-2.3-6.4-5.5c-0.1-3.3,2.3-5.9,6.3-6.1c2.2-0.1,4.3-0.1,6.5-0.1l0,0H147
	c0.4,0,0.7,0.3,0.7,0.7c0,0.3-0.3,0.6-0.7,0.6h-5l0,0h-0.5l0,0c-0.1,0-0.2,0-0.3,0h-0.1l0,0h-1.5h-3.1c-0.5,0-1.1,0-1.6,0
	c-0.5,0-1,0.1-1.5,0.1c-1.2,0-2.7,0-5,0.1c-2.5,0-4.7,0.9-4.6,3.9c0.1,2.6,1.8,3.6,4.2,3.6l0,0h1c0.8,0,1.5-0.6,1.5-1.5v-0.1
	c0-0.8-0.7-1.5-1.5-1.5h-1v0.1h-0.6c-0.3,0-0.7-0.3-0.7-0.6s0.3-0.7,0.6-0.7h1.9h0.1h0.3c-0.1,0-0.2,0-0.3,0h1.4h0.1h0.5l0,0
	L131.7,28.2z"/>
<g>
	<path class="st3" d="M170,42.6L170,42.6l5.2,5.2l0,0L170,42.6z"/>
	<path class="st3" d="M156.9,24.5c-0.3,0.3-0.3,0.8,0,1l12.5,12.5l0,0l-0.6-0.6l-1.2-3.3l-9.6-9.6C157.6,24.2,157.2,24.2,156.9,24.5
		z"/>
	<path class="st3" d="M188.3,24.6l-14.1,14.2l0.7,0.7l-1.6,1.6l-0.7-0.7c-0.3,0.3-0.3,0.7,0,0.9l15.5,15.5c0.3,0.3,0.6,0.3,0.9,0
		c0.3-0.3,0.3-0.7,0-0.9l-15.1-15.1l15.3-15.3c0.3-0.3,0.3-0.7,0-0.9C189,24.3,188.5,24.3,188.3,24.6z"/>
	<path class="st3" d="M156.8,56.9c0.3,0.3,0.8,0.3,1,0l9.9-9.9l1.2-3.3l-12.3,12.3C156.5,56.1,156.5,56.6,156.8,56.9z"/>
	<path class="st4" d="M170,42.6L186.3,59c0.1,0.1,0.3,0.3,0.4,0.3l-11.5-11.5C175.3,47.9,170,42.5,170,42.6z"/>
</g>
<path class="st1" d="M186.2,22.2l-5.9,5.9c0,0,0,0.1-0.1,0.1l-10.4,10.4l-0.5-0.5l0,0l-12.5-12.5c-0.3-0.3-0.3-0.8,0-1
	c0.3-0.3,0.8-0.3,1,0l7.6,7.6c0,0.1,0.1,0.1,0.1,0.1l3.5,3.5c0.6,0.6,1.5,0.6,2.1,0c0.6-0.6,0.6-1.5,0-2.1l-3.5-3.5l0,0l-7.7-7.7
	c-1.4-1.4-3.7-1.4-5.1,0c-1.2,1.2-1.4,3.3-0.3,4.6l15.5,15.5l0,0l5.2,5.2l0,0l11.5,11.5c1.4,1,3.4,0.9,4.6-0.3
	c1.4-1.4,1.4-3.7,0-5.1l-13.2-13.4l13.2-13.2c1.4-1.4,1.4-3.7,0-5.1l0,0C189.9,20.8,187.6,20.8,186.2,22.2z M189.2,25.5l-15.3,15.3
	L189,55.8c0.3,0.3,0.3,0.6,0,0.9c-0.3,0.3-0.7,0.3-0.9,0l-15.5-15.5c-0.3-0.3-0.3-0.7,0-0.9l0.3-0.3l1.4-1.4l14.2-14.2
	c0.3-0.3,0.7-0.3,0.9,0C189.5,24.9,189.5,25.2,189.2,25.5z"/>
<path class="st1" d="M154.8,27.5l13.1,13.1l-13.2,13.2c-1.4,1.4-1.4,3.6,0,5.1l0,0c1.4,1.4,3.7,1.4,5.1,0l9.9-9.9l0,0l1.2-1.2
	c0.5-0.5,0.5-1.4,0-2c-0.5-0.5-1.4-0.5-2,0l-3.7,3.7c-0.1,0.1-0.1,0.1-0.1,0.1l-7.2,7.2c-0.3,0.3-0.8,0.3-1,0c-0.3-0.3-0.3-0.8,0-1
	L169,43.6l0,0l1-1l-15.5-15.5C154.6,27.2,154.7,27.3,154.8,27.5z"/>
<path class="st1" d="M222.9,30.5c3.7,9.5,7.5,19,11.4,28.4c0,0.1,0.1,0.1,0.1,0.1l0.5,1.2c0.3,0.7,1.1,1.1,1.8,0.8l0,0
	c0.7-0.3,1.1-1.1,0.8-1.8l-0.5-1.4v-0.1c-0.1-0.3-0.3-0.7-0.4-1l-1.3-3.5c-0.1-0.1-0.1-0.2-0.1-0.3c-3.1-8.2-6.4-16.2-9.6-24.3
	c-1.6-4-4.2-6.5-8.7-6.5c-4.4,0-7,2.5-8.7,6.3c-1.3,3.1-2.7,6.1-4.1,9.3c-2.5,5.7-5.1,11.5-7.6,17.3c-1,2.3-0.3,4.2,1.9,5.2
	c2.1,0.9,3.8,0.1,4.8-2c0.3-0.6,0.5-1.2,0.8-1.8c3.6-8,7.1-16.1,10.8-24.1c0.4-0.9,1.3-1.6,2-2.3c0.7,0.8,1.7,1.6,2.1,2.5
	c1.4,3.3,2.7,6.7,4.3,10.7c-2.6-0.1-4.8-0.2-6.8-0.1c-0.1,0-0.2-0.1-0.3-0.1h-3.2c-0.8,0-1.5,0.6-1.5,1.5c0,0.8,0.6,1.5,1.5,1.5h2.3
	c2.9,0.2,5.9,0.1,8.9,0.3c2.5,0.1,3.4-0.8,2.4-3.3c-1.7-4-3.3-8.1-4.8-12.1c-0.9-2.2-2-3.9-4.6-4c-2.7-0.1-4,1.7-5,4
	c-3.5,8.1-7.1,16.1-10.6,24.1c-0.4,0.9-0.9,1.6-1.4,2.4c-0.3-0.1-0.5-0.3-0.7-0.4c0.3-0.8,0.5-1.6,0.8-2.4
	c3.5-8.1,7.2-16.1,10.6-24.2c1.2-2.8,2.7-5.1,6.1-5.1C220,25.2,221.7,27.6,222.9,30.5z"/>
<g class="st0">
	<path class="st1" d="M242.7,60V21.2h8.9v30.7h10.4V60L242.7,60L242.7,60z"/>
	<path class="st1" d="M265.9,60V21.2h8.8V60L265.9,60L265.9,60z"/>
	<path class="st1" d="M298.4,60l-9-23.6h-0.2l0.2,23.6h-7.8V21.2h9.6l8.9,23.9h0.2l-0.2-23.9h7.6V60L298.4,60L298.4,60z"/>
	<path class="st1" d="M331.2,60l-5.4-12.8L320.5,60h-9.2l9.5-20.3l-8.8-18.5h9.2l4.8,11.8l4.8-11.8h9L331,39.6l9.6,20.4L331.2,60
		L331.2,60z"/>
</g>
<g id="XMLID_51_">
	<g>
		<path id="XMLID_17_" class="st5" d="M57.5,20.7L38,35.7c-1.6,1.2-3.4,1.8-5.3,1.8c-2.2,0-4.5-0.9-6.1-2.5l-5-5
			c0.9,0.2,1.8,0.3,2.8,0.3c3.6,0,6.9-1.4,9.4-3.7l17.7-13.6c2.2-1.6,5.2-1.2,6.9,0.9C60.1,16,59.7,19.1,57.5,20.7z"/>
	</g>
</g>
<path id="XMLID_50_" class="st6" d="M33.8,26.5c-2.4,2.3-5.8,3.7-9.4,3.7c-0.9,0-1.9-0.1-2.8-0.3L16.7,25c-1.9-1.9-1.9-5,0-7
	c1.9-2,5-1.9,7,0l9.1,9.1L33.8,26.5z"/>
<linearGradient id="XMLID_2_" gradientUnits="userSpaceOnUse" x1="7709.8574" y1="12863.8154" x2="7769.2554" y2="13018.5527" gradientTransform="matrix(9.300000e-02 0 0 9.300000e-02 -695.6616 -1180.1912)">
	<stop  offset="0" style="stop-color:#FFFFFF;stop-opacity:0"/>
	<stop  offset="0.1083" style="stop-color:#EDECEB;stop-opacity:0.1083"/>
	<stop  offset="0.2654" style="stop-color:#CECACA;stop-opacity:0.2654"/>
	<stop  offset="0.4522" style="stop-color:#A29D9D;stop-opacity:0.4522"/>
	<stop  offset="0.662" style="stop-color:#6E6868;stop-opacity:0.662"/>
	<stop  offset="0.888" style="stop-color:#3C3737;stop-opacity:0.888"/>
	<stop  offset="1" style="stop-color:#231F20"/>
</linearGradient>
<path id="XMLID_49_" class="st7" d="M33.8,26.5c-2.4,2.3-5.8,3.7-9.4,3.7c-0.9,0-1.9-0.1-2.8-0.3L16.7,25c-1.9-1.9-1.9-5,0-7
	c1.9-2,5-1.9,7,0l9.1,9.1L33.8,26.5z"/>
<g id="XMLID_47_">
	<path id="XMLID_48_" class="st8" d="M17.2,69.6l19.5-15c1.6-1.2,3.4-1.8,5.3-1.8c2.2,0,4.5,0.9,6.1,2.5l5,5
		c-0.9-0.2-1.8-0.3-2.8-0.3c-3.6,0-6.9,1.4-9.4,3.7L23.1,77.4c-2.2,1.6-5.2,1.2-6.9-0.9C14.6,74.3,15.1,71.2,17.2,69.6z"/>
</g>
<path id="XMLID_46_" class="st6" d="M41,63.8c2.4-2.3,5.8-3.7,9.4-3.7c0.9,0,1.9,0.1,2.8,0.3l4.9,4.9c1.9,1.9,1.9,5,0,7
	c-1.9,2-5,1.9-7,0L41.9,63L41,63.8z"/>
<linearGradient id="XMLID_3_" gradientUnits="userSpaceOnUse" x1="-3654.4397" y1="-14415.9629" x2="-3595.0352" y2="-14261.2041" gradientTransform="matrix(-9.300000e-02 0 0 -9.300000e-02 -286.2427 -1266.0651)">
	<stop  offset="0" style="stop-color:#FFFFFF;stop-opacity:0"/>
	<stop  offset="0.1083" style="stop-color:#EDECEB;stop-opacity:0.1083"/>
	<stop  offset="0.2654" style="stop-color:#CECACA;stop-opacity:0.2654"/>
	<stop  offset="0.4522" style="stop-color:#A29D9D;stop-opacity:0.4522"/>
	<stop  offset="0.662" style="stop-color:#6E6868;stop-opacity:0.662"/>
	<stop  offset="0.888" style="stop-color:#3C3737;stop-opacity:0.888"/>
	<stop  offset="1" style="stop-color:#231F20"/>
</linearGradient>
<path id="XMLID_45_" class="st9" d="M41,63.8c2.4-2.3,5.8-3.7,9.4-3.7c0.9,0,1.9,0.1,2.8,0.3l4.9,4.9c1.9,1.9,1.9,5,0,7
	c-1.9,2-5,1.9-7,0L41.9,63L41,63.8z"/>
<g id="XMLID_43_">
	<path id="XMLID_44_" class="st8" d="M12.9,25l15,19.5c1.2,1.6,1.8,3.4,1.8,5.3c0,2.2-0.9,4.5-2.5,6.1l-5,5c0.2-0.9,0.3-1.8,0.3-2.8
		c0-3.6-1.4-6.9-3.7-9.4L5.2,30.9C3.5,28.8,3.9,25.7,6,24C8.2,22.4,11.3,22.8,12.9,25z"/>
</g>
<path id="XMLID_42_" class="st10" d="M18.8,48.7c2.3,2.4,3.7,5.8,3.7,9.4c0,1-0.1,1.9-0.3,2.8l-4.9,4.9c-1.9,1.9-5,1.9-7,0
	c-1.9-1.9-1.9-5,0-7l9.1-9.1L18.8,48.7z"/>
<linearGradient id="XMLID_4_" gradientUnits="userSpaceOnUse" x1="-11575.7451" y1="4938.2539" x2="-11516.3047" y2="5093.0986" gradientTransform="matrix(0 -9.300000e-02 9.300000e-02 0 -451.2025 -1015.2324)">
	<stop  offset="0" style="stop-color:#FFFFFF;stop-opacity:0"/>
	<stop  offset="0.1083" style="stop-color:#EDECEB;stop-opacity:0.1083"/>
	<stop  offset="0.2654" style="stop-color:#CECACA;stop-opacity:0.2654"/>
	<stop  offset="0.4522" style="stop-color:#A29D9D;stop-opacity:0.4522"/>
	<stop  offset="0.662" style="stop-color:#6E6868;stop-opacity:0.662"/>
	<stop  offset="0.888" style="stop-color:#3C3737;stop-opacity:0.888"/>
	<stop  offset="1" style="stop-color:#231F20"/>
</linearGradient>
<path id="XMLID_41_" class="st11" d="M18.8,48.7c2.3,2.4,3.7,5.8,3.7,9.4c0,1-0.1,1.9-0.3,2.8l-4.9,4.9c-1.9,1.9-5,1.9-7,0
	c-1.9-1.9-1.9-5,0-7l9.1-9.1L18.8,48.7z"/>
<g id="XMLID_39_">
	
		<linearGradient id="XMLID_5_" gradientUnits="userSpaceOnUse" x1="7526.5195" y1="13141.1387" x2="7800.7983" y2="13141.1387" gradientTransform="matrix(9.300000e-02 0 0 9.300000e-02 -695.6616 -1180.1912)">
		<stop  offset="0" style="stop-color:#27B3E8"/>
		<stop  offset="1" style="stop-color:#0874BB"/>
	</linearGradient>
	<path id="XMLID_40_" class="st12" d="M12.9,25l15,19.5c1.2,1.6,1.8,3.4,1.8,5.3c0,2.2-0.9,4.5-2.5,6.1l-5,5
		c0.2-0.9,0.3-1.8,0.3-2.8c0-3.6-1.4-6.9-3.7-9.4L5.2,30.9C3.5,28.8,3.9,25.7,6,24C8.2,22.4,11.3,22.8,12.9,25z"/>
</g>
<path id="XMLID_38_" class="st13" d="M18.8,48.7c2.3,2.4,3.7,5.8,3.7,9.4c0,1-0.1,1.9-0.3,2.8l-4.9,4.9c-1.9,1.9-5,1.9-7,0
	c-1.9-1.9-1.9-5,0-7l9.1-9.1L18.8,48.7z"/>
<linearGradient id="XMLID_6_" gradientUnits="userSpaceOnUse" x1="-11575.7451" y1="4938.2539" x2="-11516.3047" y2="5093.0986" gradientTransform="matrix(0 -9.300000e-02 9.300000e-02 0 -451.2025 -1015.2324)">
	<stop  offset="0" style="stop-color:#FFFFFF;stop-opacity:0"/>
	<stop  offset="0.1083" style="stop-color:#EDECEB;stop-opacity:0.1083"/>
	<stop  offset="0.2654" style="stop-color:#CECACA;stop-opacity:0.2654"/>
	<stop  offset="0.4522" style="stop-color:#A29D9D;stop-opacity:0.4522"/>
	<stop  offset="0.662" style="stop-color:#6E6868;stop-opacity:0.662"/>
	<stop  offset="0.888" style="stop-color:#3C3737;stop-opacity:0.888"/>
	<stop  offset="1" style="stop-color:#231F20"/>
</linearGradient>
<path id="XMLID_37_" class="st14" d="M18.8,48.7c2.3,2.4,3.7,5.8,3.7,9.4c0,1-0.1,1.9-0.3,2.8l-4.9,4.9c-1.9,1.9-5,1.9-7,0
	c-1.9-1.9-1.9-5,0-7l9.1-9.1L18.8,48.7z"/>
<g id="XMLID_35_">
	
		<linearGradient id="XMLID_7_" gradientUnits="userSpaceOnUse" x1="7966.7412" y1="13209.4316" x2="8241.0098" y2="13209.4316" gradientTransform="matrix(9.300000e-02 0 0 9.300000e-02 -695.6616 -1180.1912)">
		<stop  offset="0" style="stop-color:#27B3E8"/>
		<stop  offset="1" style="stop-color:#0874BB"/>
	</linearGradient>
	<path id="XMLID_36_" class="st15" d="M61.8,65.3L46.9,45.7c-1.2-1.6-1.8-3.4-1.8-5.3c0-2.2,0.9-4.5,2.5-6.1l5-5
		c-0.2,0.9-0.3,1.8-0.3,2.8c0,3.6,1.4,6.9,3.7,9.4l13.6,17.8c1.6,2.2,1.2,5.2-0.9,6.9C66.5,67.8,63.5,67.4,61.8,65.3z"/>
</g>
<path id="XMLID_34_" class="st13" d="M56,41.5c-2.3-2.4-3.7-5.8-3.7-9.4c0-0.9,0.1-1.9,0.3-2.8l4.9-4.9c1.9-1.9,5-1.9,7,0
	c1.9,1.9,1.9,5,0,7l-9.2,9.1L56,41.5z"/>
<linearGradient id="XMLID_8_" gradientUnits="userSpaceOnUse" x1="15631.1289" y1="-6490.3335" x2="15690.5566" y2="-6335.5156" gradientTransform="matrix(0 9.300000e-02 -9.300000e-02 0 -537.0759 -1424.6503)">
	<stop  offset="0" style="stop-color:#FFFFFF;stop-opacity:0"/>
	<stop  offset="0.1083" style="stop-color:#EDECEB;stop-opacity:0.1083"/>
	<stop  offset="0.2654" style="stop-color:#CECACA;stop-opacity:0.2654"/>
	<stop  offset="0.4522" style="stop-color:#A29D9D;stop-opacity:0.4522"/>
	<stop  offset="0.662" style="stop-color:#6E6868;stop-opacity:0.662"/>
	<stop  offset="0.888" style="stop-color:#3C3737;stop-opacity:0.888"/>
	<stop  offset="1" style="stop-color:#231F20"/>
</linearGradient>
<path id="XMLID_33_" class="st16" d="M56,41.5c-2.3-2.4-3.7-5.8-3.7-9.4c0-0.9,0.1-1.9,0.3-2.8l4.9-4.9c1.9-1.9,5-1.9,7,0
	c1.9,1.9,1.9,5,0,7l-9.2,9.1L56,41.5z"/>
</svg>
