<?xml version="1.0" encoding="utf-8"?>
<!-- Generator: Adobe Illustrator 25.2.0, SVG Export Plug-In . SVG Version: 6.00 Build 0)  -->
<svg version="1.1" id="Layer_1" xmlns="http://www.w3.org/2000/svg" xmlns:xlink="http://www.w3.org/1999/xlink" x="0px" y="0px"
	 viewBox="0 0 823.5 823.5" style="enable-background:new 0 0 823.5 823.5;" xml:space="preserve">
<g id="Group_3706" transform="translate(-195.057 25.831)">
	<g id="Group_2" transform="translate(145.672)">
		
			<linearGradient id="Path_3_1_" gradientUnits="userSpaceOnUse" x1="383.1425" y1="463.5646" x2="382.7945" y2="464.0556" gradientTransform="matrix(190.4544 0 0 -457.7005 -72850.6016 212300.625)">
			<stop  offset="0" style="stop-color:#A9DADC"/>
			<stop  offset="1" style="stop-color:#467C9D"/>
		</linearGradient>
		<path id="Path_3" style="fill:url(#Path_3_1_);" d="M249.9,652.7c-30.3,6.1-68.9-27-81.4-63c-12.8-37.1,10.7-52.7,10.5-104.2
			c-0.2-58.5-30.6-67.3-50.8-146.2c-4.5-17.8-30.8-120.7,1.8-140c30.1-17.8,114.7,33.4,129.5,98.9c10.6,46.7-22.1,66.4-9.6,120.8
			c11,47.8,39.7,48.5,50.8,94.5C314.1,569.6,289.6,644.7,249.9,652.7z"/>
		<path id="Path_4" style="fill:#6AB1B4;" d="M247.7,666.8c8.2-63-7.8-160.3-22.6-230.7c-16-76.3-34.2-138.5-34.4-139.2l-2.5,0.7
			c0.2,0.6,18.3,62.8,34.3,139c14.8,70.3,30.6,167.2,22.5,229.8L247.7,666.8z"/>
	</g>
	<g id="Group_3" transform="translate(145.672)">
		
			<linearGradient id="Path_5_1_" gradientUnits="userSpaceOnUse" x1="384.0641" y1="463.3803" x2="382.5921" y2="461.6723" gradientTransform="matrix(229.0998 0 0 -347.1806 -87731.9141 161267.3281)">
			<stop  offset="0" style="stop-color:#167DBE"/>
			<stop  offset="1" style="stop-color:#144E72"/>
		</linearGradient>
		<path id="Path_5" style="fill:url(#Path_5_1_);" d="M242,717.9c42.7-22.2,57.3-98.6,33-123.5c-16.4-16.8-39.9,0.9-62.6-16.5
			c-29-22.2-7.7-64-30.4-118.3c-19.4-46.2-65.9-89.8-93-80.9c-28.4,9.4-43.4,79-19.1,120.9c15.8,27.2,40,28.6,45.2,53.9
			c6.1,29.4-23.3,42.8-23.5,71.3C91.3,676.1,185.6,747.4,242,717.9z"/>
		<path id="Path_6" style="fill:#4694C5;" d="M219,737.5c1,0,1.7-0.8,1.7-1.7c0-0.3-0.1-0.5-0.2-0.8
			c-56.6-116.6-73.2-252-73.4-253.3c-0.1-1-1-1.6-1.9-1.5c-1,0.1-1.6,1-1.5,1.9c0.2,1.4,16.8,137.3,73.7,254.4
			C217.7,737.1,218.3,737.5,219,737.5z"/>
		<path id="Path_7" style="fill:#F1F0F0;" d="M102.9,516.9c-0.3,0-0.6-0.1-0.8-0.4c-32.8-42.1-34.9-73.7-30.9-92.8
			c4.4-20.8,16.4-31.4,16.9-31.8c0.4-0.4,1.1-0.3,1.4,0.1c0.4,0.4,0.3,1-0.1,1.4c-0.1,0.1-12.1,10.7-16.3,30.9
			c-3.9,18.7-1.7,49.6,30.5,91c0.3,0.4,0.3,1.1-0.2,1.4C103.3,516.8,103.1,516.9,102.9,516.9L102.9,516.9z"/>
		<path id="Path_8" style="fill:#F1F0F0;" d="M245.9,707.9c-0.2,0-0.4-0.1-0.6-0.2c-0.5-0.3-0.6-0.9-0.3-1.4
			c27.1-39.5,36.4-69.9,27.7-90.3c-7.6-17.7-26.8-21.1-27-21.1c-0.5-0.1-0.9-0.6-0.8-1.2c0.1-0.5,0.6-0.9,1.1-0.8
			c0.2,0,20.5,3.5,28.5,22.3c9,21-0.4,52.1-27.8,92.2C246.5,707.8,246.2,707.9,245.9,707.9z"/>
	</g>
	<g id="Group_7" transform="translate(-165)">
		<g id="Group_5">
			<g id="Group_4">
				
					<linearGradient id="Path_9_1_" gradientUnits="userSpaceOnUse" x1="694.8629" y1="463.9931" x2="694.4168" y2="462.9271" gradientTransform="matrix(242.3779 0 0 -385.6735 -167324.75 179034.8125)">
					<stop  offset="0" style="stop-color:#A9DADC"/>
					<stop  offset="1" style="stop-color:#467C9D"/>
				</linearGradient>
				<path id="Path_9" style="fill:url(#Path_9_1_);" d="M1034.1,484.3c-2.6-11.9-3.6-23.9-1.5-36.2c5.2-31.1,29.7-55,49.1-78.2
					c17.8-21.3,35.4-55.3-5.9-61.7c-32.9-5.2-78.5,17.9-90.9,50.4c-14.6,38.5-7.3,93.1-38.8,123.7c-44.1,42.8-64.5,25.7-84.9,110.8
					c-8.7,36.4,6.6,61.3,27.1,77.8c32.2,26.2,77.4,29.5,113.1,8.4c31.6-18.7,55.4-50.7,58.8-87.7
					C1063.5,554.1,1041.7,519.9,1034.1,484.3z"/>
				<path id="Path_10" style="fill:#AFCFDD;" d="M964.4,753.4c-0.8,0-1.5-0.7-1.5-1.5c-0.9-85,4.4-160.3,15.7-224
					c9-51,21.9-94.6,38.4-129.7c28.1-60.1,56.3-74.2,57.5-74.7c0.8-0.3,1.6,0,2,0.8c0.3,0.7,0,1.5-0.7,1.9l0,0
					c-0.3,0.1-28.7,14.4-56.3,73.8c-25.5,54.8-55.5,160.4-53.5,351.9C965.9,752.7,965.2,753.4,964.4,753.4
					C964.4,753.4,964.4,753.4,964.4,753.4L964.4,753.4z"/>
			</g>
			
				<linearGradient id="Path_11_1_" gradientUnits="userSpaceOnUse" x1="692.6311" y1="466.7171" x2="692.5161" y2="462.5271" gradientTransform="matrix(43.0681 0 0 -51.8756 -28753.3984 24445.0723)">
				<stop  offset="0" style="stop-color:#167DBE"/>
				<stop  offset="1" style="stop-color:#144E72"/>
			</linearGradient>
			<path id="Path_11" style="fill:url(#Path_11_1_);" d="M1087.7,402.3c-1.6-0.8-3.3-1.4-5-1.6c-10.4-1.3-17.1,8.4-22,16
				c-4.2,6.5-9.3,14.5-9.7,22.5c-0.4,8.7,6.9,17.7,15.3,10.7c9.6-7.9,24.1-20.1,27.3-32.8C1095.1,410.9,1092.8,405.1,1087.7,402.3z"
				/>
		</g>
		<g id="Group_6">
			
				<linearGradient id="Path_12_1_" gradientUnits="userSpaceOnUse" x1="695.1431" y1="464.1987" x2="693.9821" y2="462.5497" gradientTransform="matrix(162.3845 0 0 -271.8248 -111653.7734 126398.5)">
				<stop  offset="0" style="stop-color:#167DBE"/>
				<stop  offset="1" style="stop-color:#144E72"/>
			</linearGradient>
			<path id="Path_12" style="fill:url(#Path_12_1_);" d="M1118.9,634.9c10.6-26.2,8.2-59.8,10.2-89.8c1-15.8,3.4-31.2,9.6-46
				c6.1-14.7,17.2-29.4,14.2-46.2c-6-33.8-40.9-27.4-64.6-8.7c-27.4,21.7-43.6,64-59.6,95.7c-9.7,19.1-21.9,38.2-29.4,58.2
				c-12.4,33.2-10.3,58.8,2.2,78.8c12,19.1,35.2,28.1,56.9,22C1078,693.3,1101.7,677.2,1118.9,634.9z"/>
			<path id="Path_13" style="fill:#4587B1;" d="M1018.8,744.5L1018.8,744.5c-0.9,0-1.5-0.8-1.5-1.6c0-0.4,2.5-43.7,15.5-101.1
				c12-53,35.6-129.3,80.2-191.7c0.5-0.7,1.4-0.8,2.1-0.4c0.7,0.5,0.8,1.4,0.4,2.1c0,0,0,0,0,0c-44.2,62-67.7,137.9-79.7,190.6
				c-12.9,57.2-15.4,100.2-15.5,100.6C1020.2,743.9,1019.6,744.5,1018.8,744.5z"/>
		</g>
	</g>
	<g id="Group_11">
		
			<linearGradient id="Path_26_1_" gradientUnits="userSpaceOnUse" x1="529.8871" y1="462.5482" x2="529.1541" y2="463.3032" gradientTransform="matrix(399.4334 0 0 -603.7554 -210925.2344 279950.875)">
			<stop  offset="0" style="stop-color:#184574"/>
			<stop  offset="1" style="stop-color:#061B32"/>
		</linearGradient>
		<path id="Path_26" style="fill:url(#Path_26_1_);" d="M396.2,195c-2.3,96.1-3.8,427.6-0.2,545.1c0.4,12.4,10,22.4,22,22.8
			c59.5,2,230.6,7.1,327.9,2.9c20.3-0.9,36.4-17.9,36.8-38.8c2-100.9,17.5-391.6,6.9-521.6c-1.3-15.6-13.1-28-28.1-29.5
			c-64.8-6.7-247.8-16.1-331.9-10.5C414.5,166.4,396.6,179.3,396.2,195z"/>
		
			<linearGradient id="Path_27_1_" gradientUnits="userSpaceOnUse" x1="529.7651" y1="463.2635" x2="528.9991" y2="462.2795" gradientTransform="matrix(339.2376 0 0 -508.1931 -179036.4375 235708.2031)">
			<stop  offset="0" style="stop-color:#72A1D2"/>
			<stop  offset="1" style="stop-color:#183B67"/>
		</linearGradient>
		<path id="Path_27" style="fill:url(#Path_27_1_);" d="M426.6,232.9c-2.6,80.6-7.5,348.8-3.5,447.9c0.6,14.5,11.3,26.1,24.8,26.8
			c55.5,3,194.7,9.5,275.9,1.8c14.6-1.4,26-14.2,26.7-30c3.5-82.2,13.3-340,9.5-438c-0.6-15.6-12-28.3-26.5-29.6
			c-60-5.3-214.1-9.7-283.2-5.1C437.3,207.7,427,219,426.6,232.9z"/>
		<path id="Path_28" style="opacity:0.5;fill:#FFFFFF;enable-background:new    ;" d="M542.9,182.2L542.9,182.2
			c0,2.9,2.2,5.3,5.1,5.5c14,0.8,53.6,2.9,71.3,4c3,0.1,5.6-2.2,5.7-5.3c0-0.4,0-0.9-0.1-1.3l-0.1-0.6c-0.4-2.4-2.4-4.2-4.8-4.5
			c-12-1.1-48-4.3-71.9-3.4C545.1,176.8,542.9,179.3,542.9,182.2z"/>
		
			<linearGradient id="Path_29_1_" gradientUnits="userSpaceOnUse" x1="528.9996" y1="464.6159" x2="528.9826" y2="462.0959" gradientTransform="matrix(121.7417 0 0 -26.247 -63820.75 12893.5938)">
			<stop  offset="0" style="stop-color:#184574"/>
			<stop  offset="1" style="stop-color:#061B32"/>
		</linearGradient>
		<path id="Path_29" style="fill:url(#Path_29_1_);" d="M633.2,725.5H525.8c-4,0.1-7.3,3.4-7.2,7.5v11.3c-0.1,4,3.2,7.4,7.2,7.5
			h105.6c3.6,0,6.6-2.7,7.1-6.3l1.7-11.3c0.7-4-2-7.8-6.1-8.5C633.9,725.6,633.5,725.5,633.2,725.5z"/>
	</g>
	<g id="Group_24">
		<g id="Group_21" style="opacity:0.64;">
			<path id="Path_48" style="fill:#FFFFFF;" d="M474.9,483.5c-1.1,0-2.1-0.7-2.4-1.8c-0.4-1.3-0.7-2.6-1.1-3.9
				c-0.3-1.3,0.5-2.7,1.8-3s2.7,0.5,3,1.8c0.3,1.3,0.7,2.5,1,3.8c0.4,1.3-0.4,2.7-1.7,3.1C475.3,483.4,475.1,483.5,474.9,483.5
				L474.9,483.5z"/>
			<path id="Path_49" style="fill:#FFFFFF;" d="M471.1,466.8c-1.2,0-2.3-0.9-2.5-2.1c-0.4-2.7-0.7-5.4-1-8.2
				c-0.1-1.4,0.9-2.6,2.3-2.7c1.4-0.1,2.6,0.9,2.7,2.3c0.2,2.6,0.6,5.3,1,7.9c0.2,1.4-0.7,2.6-2.1,2.8
				C471.4,466.8,471.3,466.8,471.1,466.8z M469.7,445.7L469.7,445.7c-1.4,0-2.5-1.1-2.5-2.5c0,0,0,0,0,0c0-2.5,0.1-5.1,0.3-7.6
				l0-0.6c0.1-1.4,1.3-2.4,2.7-2.3c1.4,0.1,2.4,1.3,2.3,2.6l0,0.6c-0.2,2.4-0.3,4.9-0.3,7.3C472.1,444.6,471,445.7,469.7,445.7z
				 M471.6,424.6c-1.4,0-2.5-1.1-2.5-2.5c0-0.1,0-0.3,0-0.4c0.5-2.7,1-5.4,1.7-8.1c0.3-1.3,1.7-2.2,3-1.8s2.2,1.7,1.8,3
				c-0.6,2.6-1.2,5.2-1.6,7.8C473.9,423.7,472.9,424.6,471.6,424.6z M477,404.1c-1.4,0-2.5-1.1-2.5-2.5c0-0.3,0-0.6,0.1-0.8
				c0.9-2.6,1.9-5.2,3-7.7c0.6-1.3,2-1.8,3.3-1.3c1.2,0.5,1.8,2,1.3,3.2c-1,2.4-2,4.9-2.9,7.4C479,403.4,478.1,404.1,477,404.1z
				 M485.7,384.8c-1.4,0-2.5-1.1-2.5-2.5c0-0.4,0.1-0.8,0.3-1.2c1.3-2.4,2.7-4.8,4.2-7.1c0.7-1.2,2.3-1.5,3.5-0.8
				c1.2,0.7,1.5,2.3,0.8,3.5c-1.4,2.2-2.8,4.5-4,6.8C487.4,384.3,486.6,384.8,485.7,384.8L485.7,384.8z M497.4,367.1
				c-1.4,0-2.5-1.1-2.5-2.5c0-0.6,0.2-1.1,0.5-1.5c1.7-2.1,3.5-4.3,5.3-6.3c0.9-1,2.5-1.1,3.5-0.2c1,0.9,1.1,2.5,0.2,3.5l0,0
				c-1.8,2-3.5,4-5.1,6.1C498.9,366.8,498.2,367.1,497.4,367.1z M511.9,351.7c-1.4,0-2.5-1.1-2.5-2.5c0-0.7,0.3-1.4,0.8-1.8
				c2-1.8,4.1-3.6,6.3-5.3c1.1-0.9,2.7-0.7,3.5,0.4c0.9,1.1,0.7,2.7-0.4,3.5l0,0c-2.1,1.6-4.1,3.4-6,5.1
				C513.1,351.4,512.5,351.7,511.9,351.7L511.9,351.7z M528.6,338.7c-1.4,0-2.5-1.1-2.5-2.5c0-0.9,0.4-1.6,1.1-2.1
				c2.3-1.5,4.7-2.9,7-4.3c1.2-0.7,2.7-0.3,3.4,0.9s0.3,2.7-0.9,3.4c0,0,0,0-0.1,0c-2.3,1.3-4.6,2.7-6.8,4.1
				C529.6,338.6,529.1,338.7,528.6,338.7L528.6,338.7z M657.6,332.2c-0.4,0-0.8-0.1-1.1-0.3c-2.3-1.2-4.7-2.3-7.2-3.4
				c-1.3-0.5-1.9-2-1.3-3.3c0.5-1.3,2-1.9,3.3-1.3c0,0,0,0,0.1,0c2.5,1.1,5,2.3,7.4,3.5c1.2,0.6,1.7,2.1,1.1,3.4
				C659.4,331.7,658.6,332.2,657.6,332.2L657.6,332.2z M547.3,328.7c-1.4,0-2.5-1.1-2.5-2.5c0-1,0.6-1.9,1.5-2.3
				c2.5-1.1,5.1-2.1,7.6-3c1.3-0.5,2.7,0.2,3.2,1.5s-0.2,2.7-1.5,3.2c-2.5,0.9-4.9,1.9-7.3,2.9C548,328.6,547.6,328.7,547.3,328.7
				L547.3,328.7z M638.1,324.1c-0.3,0-0.5,0-0.8-0.1c-2.5-0.8-5.1-1.5-7.6-2.2c-1.3-0.3-2.2-1.7-1.9-3c0.3-1.3,1.7-2.2,3-1.9
				c0,0,0.1,0,0.1,0c2.7,0.7,5.3,1.4,7.9,2.3c1.3,0.4,2,1.8,1.6,3.1C640.1,323.4,639.1,324.1,638.1,324.1L638.1,324.1z M567.3,321.9
				c-1.4,0-2.5-1.1-2.5-2.5c0-1.1,0.8-2.1,1.9-2.4c2.6-0.7,5.4-1.3,8-1.8c1.4-0.3,2.7,0.6,2.9,2c0.3,1.4-0.6,2.7-2,2.9
				c-2.6,0.5-5.2,1-7.7,1.7C567.7,321.9,567.5,321.9,567.3,321.9z M617.4,319.4c-0.1,0-0.2,0-0.4,0c-2.6-0.4-5.2-0.7-7.9-0.9
				c-1.4-0.1-2.4-1.3-2.3-2.7s1.3-2.4,2.7-2.3c0,0,0,0,0,0c2.7,0.2,5.5,0.5,8.2,0.9c1.4,0.2,2.3,1.5,2.1,2.8
				C619.7,318.5,618.7,319.4,617.4,319.4L617.4,319.4z M588.2,318.4c-1.4,0-2.5-1.1-2.5-2.5c0-1.3,1-2.4,2.3-2.5
				c2.7-0.2,5.5-0.4,8.2-0.4c1.4,0,2.5,1.1,2.5,2.5c0,1.4-1.1,2.5-2.5,2.5c-2.6,0-5.3,0.2-7.9,0.4
				C588.3,318.4,588.3,318.4,588.2,318.4L588.2,318.4z"/>
			<path id="Path_50" style="fill:#FFFFFF;" d="M672.4,341.1c-0.5,0-1-0.2-1.4-0.4c-1.1-0.7-2.2-1.5-3.3-2.2
				c-1.1-0.8-1.4-2.3-0.7-3.5c0.8-1.1,2.2-1.4,3.4-0.7c1.1,0.7,2.3,1.5,3.4,2.3c1.1,0.8,1.4,2.3,0.6,3.5
				C674,340.7,673.2,341.1,672.4,341.1z"/>
		</g>
		<g id="Group_22" style="opacity:0.64;">
			<path id="Path_51" style="fill:#FFFFFF;" d="M726,425.3c-1.2,0-2.3-0.9-2.5-2.1c-0.2-1.3-0.5-2.6-0.7-3.9c-0.3-1.4,0.6-2.7,2-2.9
				s2.7,0.6,2.9,2c0.3,1.3,0.5,2.7,0.7,4c0.2,1.4-0.7,2.7-2,2.9c0,0,0,0,0,0C726.3,425.3,726.2,425.3,726,425.3z"/>
			<path id="Path_52" style="fill:#FFFFFF;" d="M598.9,576.2c-1.6,0-3.3,0-4.9-0.1c-1.4-0.1-2.5-1.2-2.4-2.6
				c0.1-1.4,1.2-2.5,2.6-2.4l0,0c2.6,0.1,5.2,0.1,7.8,0.1c1.4,0,2.5,1.1,2.6,2.4c0,1.4-1.1,2.5-2.4,2.6
				C601,576.2,599.9,576.2,598.9,576.2z M614.8,575.2c-1.4,0-2.5-1.1-2.5-2.5c0-1.3,0.9-2.3,2.2-2.5c2.6-0.3,5.2-0.7,7.7-1.2
				c1.4-0.3,2.7,0.6,2.9,2s-0.6,2.7-2,2.9l0,0c-2.6,0.5-5.3,0.9-8,1.2C615.1,575.2,615,575.2,614.8,575.2z M581.2,575
				c-0.1,0-0.2,0-0.3,0c-2.7-0.4-5.4-0.8-8-1.3c-1.4-0.2-2.3-1.5-2.1-2.9c0.2-1.4,1.5-2.3,2.9-2.1c0.1,0,0.1,0,0.2,0
				c2.5,0.5,5.1,0.9,7.7,1.3c1.4,0.2,2.3,1.4,2.1,2.8C583.5,574.1,582.4,575,581.2,575L581.2,575z M635.2,571
				c-1.4,0-2.5-1.1-2.5-2.5c0-1.1,0.7-2.1,1.8-2.4c2.5-0.7,5-1.5,7.4-2.4c1.3-0.5,2.7,0.2,3.2,1.5s-0.2,2.7-1.5,3.2l0,0
				c-2.5,0.9-5.1,1.8-7.7,2.5C635.7,571,635.5,571,635.2,571L635.2,571z M560.8,570.5c-0.2,0-0.5,0-0.7-0.1
				c-2.6-0.8-5.2-1.7-7.7-2.6c-1.3-0.5-1.9-1.9-1.5-3.2c0.5-1.3,1.9-1.9,3.2-1.5l0,0c2.4,0.9,4.9,1.8,7.4,2.5
				c1.3,0.4,2.1,1.8,1.7,3.1C562.9,569.8,561.9,570.5,560.8,570.5z M654.7,563.5c-1.4,0-2.5-1.1-2.5-2.5c0-1,0.5-1.8,1.4-2.3
				c2.3-1.1,4.6-2.3,6.9-3.6c1.2-0.7,2.7-0.2,3.4,1c0.7,1.2,0.2,2.7-1,3.4c-2.3,1.3-4.8,2.6-7.2,3.7
				C655.4,563.4,655.1,563.5,654.7,563.5L654.7,563.5z M541.4,562.8c-0.4,0-0.8-0.1-1.1-0.3c-2.4-1.2-4.8-2.5-7.1-3.8
				c-1.2-0.7-1.6-2.2-0.9-3.4s2.2-1.6,3.4-0.9l0,0c2.2,1.3,4.6,2.5,6.9,3.7c1.2,0.6,1.7,2.1,1.1,3.4
				C543.3,562.3,542.4,562.8,541.4,562.8L541.4,562.8z M672.7,553c-1.4,0-2.5-1.1-2.5-2.5c0-0.8,0.4-1.6,1.1-2.1
				c2.1-1.5,4.2-3.1,6.2-4.7c1.1-0.9,2.7-0.7,3.5,0.4s0.7,2.7-0.4,3.5c-2.1,1.7-4.3,3.3-6.5,4.8C673.7,552.8,673.2,553,672.7,553
				L672.7,553z M688.7,539.7c-1.4,0-2.5-1.1-2.5-2.5c0-0.7,0.3-1.3,0.8-1.8c1.9-1.8,3.7-3.7,5.4-5.6c0.9-1,2.5-1.1,3.5-0.2
				s1.1,2.5,0.2,3.5l0,0c-1.8,2-3.7,3.9-5.6,5.8C690,539.5,689.4,539.7,688.7,539.7L688.7,539.7z M702.5,524c-1.4,0-2.5-1.1-2.5-2.5
				c0-0.5,0.2-1.1,0.5-1.5c1.5-2.1,3-4.2,4.5-6.4c0.8-1.2,2.3-1.5,3.5-0.7c1.2,0.8,1.5,2.3,0.7,3.5l0,0c-1.5,2.3-3,4.5-4.6,6.7
				C704,523.7,703.2,524,702.5,524L702.5,524z M713.5,506.4c-1.4,0-2.5-1.1-2.5-2.5c0-0.4,0.1-0.8,0.3-1.1c1.2-2.3,2.3-4.7,3.4-7
				c0.6-1.3,2-1.8,3.3-1.3c1.3,0.6,1.8,2,1.3,3.3c-1.1,2.5-2.3,4.9-3.5,7.3C715.3,505.8,714.4,506.4,713.5,506.4L713.5,506.4z
				 M721.5,487.1c-1.4,0-2.5-1.1-2.5-2.5c0-0.3,0-0.5,0.1-0.8c0.8-2.5,1.5-5,2.2-7.5c0.3-1.3,1.7-2.2,3-1.8s2.2,1.7,1.8,3
				c0,0,0,0.1,0,0.1c-0.7,2.6-1.4,5.2-2.3,7.8C723.6,486.4,722.6,487.1,721.5,487.1L721.5,487.1z M726.3,466.8c-0.1,0-0.3,0-0.4,0
				c-1.4-0.2-2.3-1.5-2.1-2.9c0,0,0,0,0,0c0.4-2.5,0.7-5.2,0.9-7.7c0.1-1.4,1.3-2.4,2.7-2.3s2.4,1.3,2.3,2.7c0,0,0,0,0,0
				c-0.2,2.7-0.6,5.4-1,8C728.6,465.9,727.6,466.8,726.3,466.8L726.3,466.8z M727.9,446.1c-1.4,0-2.5-1.1-2.5-2.5
				c0-2.6-0.1-5.2-0.3-7.8c-0.1-1.4,0.9-2.6,2.3-2.7c1.4-0.1,2.6,0.9,2.7,2.3c0,0,0,0,0,0.1c0.2,2.7,0.3,5.4,0.3,8.1
				C730.4,444.9,729.2,446.1,727.9,446.1C727.9,446.1,727.9,446.1,727.9,446.1L727.9,446.1z"/>
			<path id="Path_53" style="fill:#FFFFFF;" d="M523.5,552c-0.5,0-1-0.2-1.5-0.5c-1.1-0.8-2.2-1.6-3.3-2.4c-1.1-0.8-1.3-2.4-0.4-3.5
				c0.8-1.1,2.4-1.3,3.5-0.5c1,0.8,2.1,1.6,3.1,2.3c1.1,0.8,1.4,2.4,0.6,3.5C525.1,551.7,524.3,552,523.5,552z"/>
		</g>
		<g id="Group_23">
			
				<linearGradient id="Path_54_1_" gradientUnits="userSpaceOnUse" x1="534.5042" y1="453.7502" x2="536.0272" y2="451.0622" gradientTransform="matrix(199.9209 0 0 -199.9137 -105220.0469 92989.4141)">
				<stop  offset="0" style="stop-color:#BDC8E7"/>
				<stop  offset="1" style="stop-color:#CED7ED"/>
			</linearGradient>
			<path id="Path_54" style="fill:url(#Path_54_1_);" d="M529,515.2c0.4,0.5,1.1,0.7,1.7,0.5l17.7-6.5c7.1,5.5,15,9.7,23.4,12.6
				l4.3,18.3c0.2,0.6,0.7,1.1,1.4,1.2l22.5,2.3c0.7,0.1,1.3-0.3,1.6-0.9l7.9-17.1c8.9-1.2,17.5-3.7,25.5-7.7l16,9.9
				c0.6,0.3,1.3,0.3,1.8-0.1l17.5-14.3c0.5-0.4,0.7-1.1,0.5-1.7l-6.5-17.7c5.5-7.1,9.7-15,12.6-23.4l18.3-4.3
				c0.6-0.2,1.1-0.7,1.2-1.4l2.3-22.5c0.1-0.7-0.3-1.3-0.9-1.6l-17.1-7.9c-1.2-8.9-3.7-17.5-7.7-25.5l9.9-16
				c0.3-0.6,0.3-1.3-0.1-1.8l-14.3-17.5c-0.4-0.5-1.1-0.7-1.7-0.5l-17.7,6.5c-7.1-5.5-15-9.7-23.4-12.6l-4.3-18.3
				c-0.2-0.6-0.7-1.1-1.4-1.2l-22.5-2.3c-0.7-0.1-1.3,0.3-1.6,0.9l-7.9,17.1c-8.9,1.2-17.5,3.7-25.5,7.7l-16-9.9
				c-0.6-0.4-1.3-0.3-1.8,0.1l-17.5,14.3c-0.5,0.4-0.7,1.1-0.5,1.7l6.5,17.7c-5.5,7.1-9.7,15-12.6,23.4l-18.3,4.3
				c-0.6,0.2-1.1,0.7-1.2,1.4l-2.3,22.5c-0.1,0.7,0.3,1.3,0.9,1.6l17.1,7.9c1.2,8.9,3.7,17.5,7.7,25.5l-9.9,16
				c-0.3,0.6-0.3,1.3,0.1,1.8L529,515.2z"/>
			<path id="Path_55" style="fill:#FFFFFF;" d="M598.8,465.7c-12.2,0-22.1-9.9-22.1-22.1s9.9-22.1,22.1-22.1
				c12.2,0,22.1,9.9,22.1,22.1c0,11-8,20.3-18.9,21.9l0,0C601,465.6,599.9,465.7,598.8,465.7z M598.9,425.5
				c-10,0-18.1,8.1-18.1,18.1c0,10,8.1,18.1,18.1,18.1c0.9,0,1.8-0.1,2.6-0.2l0,0c9.9-1.5,16.7-10.6,15.3-20.5
				C615.4,432.1,607.8,425.5,598.9,425.5z"/>
			<path id="Path_56" style="fill:#FFFFFF;" d="M599.2,498.9c-1.9,0-3.8-0.1-5.6-0.3l0,0c-1.8-0.2-3.5-0.4-5.2-0.8h0l-0.1,0l0,0h0
				l-0.1,0h0c-1.5-0.3-3-0.7-4.4-1.1l-0.2-0.1c-0.5-0.1-1-0.3-1.5-0.4c-0.5-0.2-0.8-0.8-0.6-1.3c0.2-0.5,0.7-0.7,1.2-0.6
				c28.1,9.1,58.4-6.2,67.5-34.4c9.1-28.1-6.2-58.4-34.4-67.5s-58.4,6.2-67.5,34.4c-1.7,5.4-2.6,11-2.6,16.6
				c0,7.8,1.7,15.6,5.1,22.7c0.2,0.5,0,1.1-0.5,1.3s-1.1,0-1.3-0.5c-3.5-7.4-5.2-15.4-5.2-23.6c0-30.7,24.9-55.6,55.5-55.6
				s55.6,24.9,55.6,55.5C654.8,473.9,629.9,498.8,599.2,498.9L599.2,498.9z"/>
		</g>
	</g>
	<g id="Group_28">
		
			<linearGradient id="Path_57_1_" gradientUnits="userSpaceOnUse" x1="551.6807" y1="463.0693" x2="552.6807" y2="463.0693" gradientTransform="matrix(29.944 0 0 -30.863 -15452.8506 14904.8018)">
			<stop  offset="0" style="stop-color:#F8B776"/>
			<stop  offset="1" style="stop-color:#F47960"/>
		</linearGradient>
		<path id="Path_57" style="fill:url(#Path_57_1_);" d="M309.6,597.6c-3.2,3.1-6.8,5.8-10.8,7.9c5.7,6.8,12.3,12.7,19.7,17.5
			l2.4,5.5l7.8-9.4C328.8,619.2,314.8,612.2,309.6,597.6z"/>
		<g id="Group_25">
			
				<linearGradient id="Path_58_1_" gradientUnits="userSpaceOnUse" x1="529.7526" y1="463.3406" x2="530.5676" y2="464.2926" gradientTransform="matrix(262.9287 0 0 -282.1653 -138774.4219 131145.625)">
				<stop  offset="0" style="stop-color:#184574"/>
				<stop  offset="1" style="stop-color:#061B32"/>
			</linearGradient>
			<path id="Path_58" style="fill:url(#Path_58_1_);" d="M312.2,605.8l-7.1,7.7c-12.2,13.3-14.8,30.7-5.8,38.9l10.6,9.8
				c8.9,8.2,26.1,4.1,38.2-9.2l7.1-7.7c0.5-0.5,0.9-1,1.4-1.6l200.3-238.2l-23.2-21.2L313.7,604.3
				C313.2,604.8,312.7,605.3,312.2,605.8z M323.6,615.1c9.2-10,21.4-13.7,27.3-8.2s3.3,18-5.8,27.9s-21.4,13.7-27.3,8.2
				S314.4,625.1,323.6,615.1z"/>
			
				<linearGradient id="Path_59_1_" gradientUnits="userSpaceOnUse" x1="523.6506" y1="476.2029" x2="524.3196" y2="474.5898" gradientTransform="matrix(153.5561 0 0 -153.6101 -80672.5859 71465.7578)">
				<stop  offset="0" style="stop-color:#184574"/>
				<stop  offset="1" style="stop-color:#061B32"/>
			</linearGradient>
			<path id="Path_59" style="fill:url(#Path_59_1_);" d="M593.9,295.2l-41.1,44.9c-2.9,3.2-4.2,7.6-3.5,11.8l3.8,21.9
				c1.1,6.2,6.2,11,12.6,11.5l22.1,1.9c4.3,0.4,8.6-1.3,11.5-4.5l41.1-44.9c6.2-6.8,17.6-3.1,18.6,6c2.3,23-5.3,45.8-21,62.7
				c-29.6,32.3-75.1,31.4-106.1,2.9s-35.8-73.7-6.2-106c15.5-17.1,37.6-26.7,60.7-26.3C595.5,277.4,600.1,288.5,593.9,295.2z"/>
			
				<linearGradient id="Union_2_1_" gradientUnits="userSpaceOnUse" x1="529.5251" y1="463.4163" x2="529.5251" y2="462.4163" gradientTransform="matrix(366.293 0 0 -388.4277 -193480.8125 180284.8281)">
				<stop  offset="0" style="stop-color:#184574"/>
				<stop  offset="1" style="stop-color:#0C2239"/>
			</linearGradient>
			<path id="Union_2" style="fill:url(#Union_2_1_);" d="M313.3,665.3l-10.6-9.8c-8.9-8.2-6.3-25.6,5.8-38.9l7.1-7.7
				c0.5-0.5,0.9-1,1.4-1.5l207.3-207.3c-19.9-28-19.8-65.1,5.5-92.7c15.5-17.1,37.6-26.7,60.7-26.3c9.2,0.2,13.8,11.2,7.6,18
				L557,344c-2.9,3.2-4.2,7.6-3.5,11.8l3.8,21.9c1.1,6.2,6.2,11,12.6,11.5l22.1,1.9c4.3,0.4,8.6-1.3,11.5-4.5l41.1-44.9
				c6.2-6.8,17.6-3.2,18.6,6c2.3,23-5.3,45.8-21,62.7c-25.9,28.2-64,31.1-93.9,12.3L360,646.8c-0.4,0.5-0.9,1.1-1.4,1.6l-7.1,7.7
				c-7.9,8.6-17.9,13.4-26.4,13.4C320.8,669.7,316.6,668.1,313.3,665.3z M326.9,618.2c-9.2,10-11.8,22.5-5.8,27.9s18.2,1.8,27.3-8.2
				s11.8-22.5,5.8-27.9c-2-1.7-4.5-2.6-7.1-2.5C341,607.5,333.2,611.3,326.9,618.2L326.9,618.2z"/>
		</g>
		
			<linearGradient id="Path_62_1_" gradientUnits="userSpaceOnUse" x1="524.4602" y1="463.7443" x2="526.5082" y2="462.0873" gradientTransform="matrix(22.4519 0 0 -17.5629 -11457.2314 8902.1514)">
			<stop  offset="0" style="stop-color:#F26A68"/>
			<stop  offset="1" style="stop-color:#EB342F"/>
		</linearGradient>
		<path id="Path_62" style="fill:url(#Path_62_1_);" d="M351.4,775.1c0-0.2,0-0.3-0.1-0.5c-2.5-10-15.1-16.3-15.1-16.3l-5,0.4
			c-2.9,8.8-2.5,14.3-2,16.7c0,0.1,0,0.1,0.1,0.2C336.7,776.1,344.1,776,351.4,775.1z"/>
		
			<linearGradient id="Path_63_1_" gradientUnits="userSpaceOnUse" x1="528.2098" y1="483.4936" x2="524.5108" y2="459.4185" gradientTransform="matrix(22.0841 0 0 -2.6599 -11262.1777 2012.8291)">
			<stop  offset="0" style="stop-color:#F69D9C"/>
			<stop  offset="1" style="stop-color:#EB342F"/>
		</linearGradient>
		<path id="Path_63" style="fill:url(#Path_63_1_);" d="M329.3,775.6c0.2,0.8,0.8,1.4,1.6,1.6c5.8,1.2,15.1,0.2,19-0.3
			c0.9-0.2,1.5-0.9,1.5-1.8C344.1,776,336.7,776.1,329.3,775.6z"/>
		
			<linearGradient id="Path_64_1_" gradientUnits="userSpaceOnUse" x1="520.6715" y1="478.5683" x2="520.1645" y2="475.3353" gradientTransform="matrix(8.4766 0 0 -11.575 -4059.8767 6120.3438)">
			<stop  offset="0" style="stop-color:#F8B776"/>
			<stop  offset="1" style="stop-color:#F47960"/>
		</linearGradient>
		<path id="Path_64" style="fill:url(#Path_64_1_);" d="M329.3,751.3l2.1,10.1c0.1,0.7,0.7,1.3,1.4,1.4c1.1,0.1,2.2,0.1,3.3-0.1
			c1.1-0.2,1.9-1.3,1.7-2.4c0,0,0,0,0,0l-1.5-9L329.3,751.3z"/>
		
			<linearGradient id="Path_65_1_" gradientUnits="userSpaceOnUse" x1="527.6942" y1="473.1877" x2="525.1772" y2="450.1267" gradientTransform="matrix(32.4725 0 0 -2.778 -16726.8555 2066.5325)">
			<stop  offset="0" style="stop-color:#F69D9C"/>
			<stop  offset="1" style="stop-color:#EB342F"/>
		</linearGradient>
		<path id="Path_65" style="fill:url(#Path_65_1_);" d="M372.9,775.5c-5.5-0.2-8.3-0.8-9.8-1.4c0,0.5,0,1.1,0,1.7
			c0,0.6,0.4,1.1,1,1.1l30.2-0.2c0.8-0.1,1.3-0.7,1.3-1.5c0-0.2-0.1-0.4-0.1-0.5C391.5,775,381.4,775.7,372.9,775.5z"/>
		
			<linearGradient id="Path_66_1_" gradientUnits="userSpaceOnUse" x1="525.7953" y1="463.7931" x2="527.8433" y2="462.1361" gradientTransform="matrix(32.319 0 0 -15.6443 -16645.6113 8014.6655)">
			<stop  offset="0" style="stop-color:#F26A68"/>
			<stop  offset="1" style="stop-color:#EB342F"/>
		</linearGradient>
		<path id="Path_66" style="fill:url(#Path_66_1_);" d="M395.4,774.7c0-0.1-0.1-0.2-0.1-0.2c-2.7-3.7-9.4-11.1-22.9-14.3l-6.4-0.2
			c0,0-2.9,5-2.9,14.2c1.5,0.6,4.3,1.2,9.8,1.4C381.4,775.7,391.5,775,395.4,774.7z"/>
		
			<linearGradient id="Path_67_1_" gradientUnits="userSpaceOnUse" x1="521.3276" y1="480.6025" x2="520.8126" y2="477.8395" gradientTransform="matrix(8.3341 0 0 -13.5464 -3948.896 7031.1841)">
			<stop  offset="0" style="stop-color:#F8B776"/>
			<stop  offset="1" style="stop-color:#F47960"/>
		</linearGradient>
		<path id="Path_67" style="fill:url(#Path_67_1_);" d="M364.9,750.1c0.1,0.5,1,7.8,1.3,10.6c0.1,0.6,0.5,1.2,1.2,1.3
			c1.5,0.2,3,0.2,4.4-0.1c0.9-0.2,1.5-1,1.4-1.9v-11.4L364.9,750.1z"/>
		
			<linearGradient id="Path_68_1_" gradientUnits="userSpaceOnUse" x1="526.5842" y1="461.4496" x2="529.2811" y2="464.1196" gradientTransform="matrix(56.0925 0 0 -137.2329 -29273.0195 64216.4805)">
			<stop  offset="0" style="stop-color:#184574"/>
			<stop  offset="1" style="stop-color:#061B32"/>
		</linearGradient>
		<path id="Path_68" style="fill:url(#Path_68_1_);" d="M359.7,617.2c0,0,15.5,58.9,15.2,133.1c0,1.4-1,2.5-2.3,2.8
			c-2.4,0.5-4.8,0.8-7.2,0.8c-1.3,0-2.3-1-2.5-2.2c-2.2-12.8-14.7-84.6-21.8-96.3c0,0-4.7,64-3.2,97.2c0,0.8-0.6,1.5-1.4,1.6
			c-1.9,0.2-3.9,0.2-5.8,0c-1-0.1-1.7-0.8-1.9-1.8c-1.5-10.8-10.5-75-10.1-121.3c0-2.6,6.9-14,6.9-14L359.7,617.2z"/>
		
			<linearGradient id="Path_69_1_" gradientUnits="userSpaceOnUse" x1="528.7672" y1="463.3805" x2="528.7352" y2="462.5605" gradientTransform="matrix(94.1055 0 0 -103.2896 -49424.6211 48392.0273)">
			<stop  offset="0" style="stop-color:#F26A68"/>
			<stop  offset="1" style="stop-color:#EB342F"/>
		</linearGradient>
		<path id="Path_69" style="fill:url(#Path_69_1_);" d="M381.3,545.9c-2.5-3.1-4.7-6.5-6.6-10c-2.6-4.9-18-7.5-18.7-13
			c-17.7-2-25.5,1-41.8,5.2c-3.6,0.9-7.1,2.3-9.5,5.1c-9.6,11.1-30.8,41.7-5.9,72.4c4-2.1,7.6-4.7,10.8-7.9
			c-2.8-7.8-3-17.7,2.8-29.8c0.2,1,0.4,1.9,0.7,2.9c5.3,16.5,8.1,33.7,8.4,51c0,0.7,0.4,1.2,1,1.5c10.5,4.2,30.6,1.7,37.4,0.7
			c1.2-0.2,2.1-1.3,1.9-2.6c-3.3-24,13.7-63.6,18.2-73.5C380.3,547.1,380.7,546.4,381.3,545.9z"/>
		
			<linearGradient id="Path_70_1_" gradientUnits="userSpaceOnUse" x1="527.5208" y1="473.2098" x2="526.6978" y2="470.0228" gradientTransform="matrix(19.8715 0 0 -22.1939 -10089.9863 10794.1807)">
			<stop  offset="0" style="stop-color:#F8B776"/>
			<stop  offset="1" style="stop-color:#F47960"/>
		</linearGradient>
		<path id="Path_70" style="fill:url(#Path_70_1_);" d="M332.3,504.9l-1.9,19.1c-0.1,0.9,0.5,1.7,1.4,1.9c3.5,0.7,11.9,1.8,18.4-2.8
			l-5.9-18.7L332.3,504.9z"/>
		<g id="Group_26">
			
				<linearGradient id="Path_71_1_" gradientUnits="userSpaceOnUse" x1="518.7006" y1="454.0545" x2="517.6276" y2="452.7725" gradientTransform="matrix(27.091 0 0 -29.9812 -13911.1816 14379.0723)">
				<stop  offset="0" style="stop-color:#F8B776"/>
				<stop  offset="1" style="stop-color:#F47960"/>
			</linearGradient>
			<path id="Path_71" style="fill:url(#Path_71_1_);" d="M345.7,481.4c0.3,0.3,11.8,22.8,11.8,22.8l-13,6.3l-14.1-19.8
				C330.4,490.8,341.1,477,345.7,481.4z"/>
			
				<linearGradient id="Path_72_1_" gradientUnits="userSpaceOnUse" x1="491.5366" y1="463.0164" x2="492.4426" y2="463.0164" gradientTransform="matrix(38.2725 0 0 -45.2701 -19837.0273 21454.6895)">
				<stop  offset="0" style="stop-color:#2A3781"/>
				<stop  offset="1" style="stop-color:#171042"/>
			</linearGradient>
			<path id="Path_72" style="fill:url(#Path_72_1_);" d="M336.2,491.3c-0.2,0.6-0.2,1.3,0.2,1.8l6.5,10.8c0.1,0.2,0.2,0.3,0.4,0.4
				c0.8,0.7,3.4,2.8,5.5,0c1.7-2.4,3.4-4.6,5.1-5.5c1-0.5,2.3-0.1,2.8,0.9c0,0,0,0,0,0c1.7,3.4,3.2,6.9,4.4,10.5
				c0.3,1-0.2,2.1-1.2,2.5c-4,1.7-8.2,2.9-12.5,3.6c-0.8,0.1-1.5-0.2-2-0.8c-2-2.7-7.6-10.3-9.5-12.3c-1.8-1.8-5.1-1.1-6.5-0.7
				c-0.6,0.2-1.2,0.1-1.7-0.2c-1.5-0.9-4.1-3.2-1.7-7c0.6-1,0.3-2.2-0.6-2.8c-1.7-1.1-3.5-3.2-1.8-6.5c1.3-2.6,4.2-4,7-3.4
				c1,0.1,1.9-0.4,2.3-1.3c0.2-0.5,0.6-0.8,1.1-0.8c1.1-0.2,1.8-1.2,1.6-2.3c0,0,0,0,0,0c-0.6-2.5,0.6-5,3-6.1
				c5.6-3.1,10.5,1.9,11.8,6.2s-5,7.3-9,7.8C338.4,486.5,336.8,489.7,336.2,491.3z"/>
			
				<linearGradient id="Path_73_1_" gradientUnits="userSpaceOnUse" x1="494.6575" y1="436.6577" x2="497.1155" y2="439.3067" gradientTransform="matrix(9.4839 0 0 -9.0257 -4593.4771 4688.0088)">
				<stop  offset="0" style="stop-color:#F8B776"/>
				<stop  offset="1" style="stop-color:#F47960"/>
			</linearGradient>
			<path id="Path_73" style="fill:url(#Path_73_1_);" d="M338.3,507.4c0,0-2.5-7.3-5.7-7s-5.7,3.5-1.8,7
				C335.8,511.8,338.3,507.4,338.3,507.4z"/>
		</g>
		
			<linearGradient id="Path_74_1_" gradientUnits="userSpaceOnUse" x1="685.4869" y1="515.3564" x2="677.1219" y2="512.9244" gradientTransform="matrix(4.0525 0 0 -25.609 -1739.1504 12412.7539)">
			<stop  offset="0" style="stop-color:#F9EE49"/>
			<stop  offset="1" style="stop-color:#DA3C66"/>
		</linearGradient>
		<path id="Path_74" style="fill:url(#Path_74_1_);" d="M311.3,565.9c-4.2-11.5-2.7-25.5-2.7-25.6l1.2,0.1c0,0.1-1.5,13.8,2.6,25.1
			L311.3,565.9z"/>
		
			<linearGradient id="Path_75_1_" gradientUnits="userSpaceOnUse" x1="536.6541" y1="490.4703" x2="535.7321" y2="488.7654" gradientTransform="matrix(12.4687 0 0 -12.002 -6173.4644 6208.856)">
			<stop  offset="0" style="stop-color:#2A3781"/>
			<stop  offset="1" style="stop-color:#171042"/>
		</linearGradient>
		<path id="Path_75" style="fill:url(#Path_75_1_);" d="M340.6,654c-0.3,0-0.5-0.2-0.6-0.4c-1.3-5-10.9-10.4-11-10.5
			c-0.3-0.2-0.4-0.5-0.2-0.8c0.2-0.3,0.5-0.4,0.8-0.2c0,0,0,0,0,0c0.4,0.2,10.2,5.8,11.6,11.2c0.1,0.3-0.1,0.6-0.4,0.7c0,0,0,0,0,0
			C340.7,654,340.6,654,340.6,654z"/>
		<g id="Group_27">
			
				<linearGradient id="Path_76_1_" gradientUnits="userSpaceOnUse" x1="528.4976" y1="463.4446" x2="528.4656" y2="462.6246" gradientTransform="matrix(74.4724 0 0 -45.0633 -38964.2617 21408.6113)">
				<stop  offset="0" style="stop-color:#F26A68"/>
				<stop  offset="1" style="stop-color:#EB342F"/>
			</linearGradient>
			<path id="Path_76" style="fill:url(#Path_76_1_);" d="M427.4,546.8c-21.8,3.3-36-10.5-46.6-18.8c-14-11-24.9-5.7-24.9-5.7
				l14.9,28.5c22.3,21,45.1,16.3,59.5,9.5C430.5,555.7,429.5,551,427.4,546.8z"/>
			
				<linearGradient id="Path_77_1_" gradientUnits="userSpaceOnUse" x1="526.114" y1="463.0643" x2="527.114" y2="463.0643" gradientTransform="matrix(30.6639 0 0 -31.8291 -15705.2744 15283.3535)">
				<stop  offset="0" style="stop-color:#F8B776"/>
				<stop  offset="1" style="stop-color:#F47960"/>
			</linearGradient>
			<path id="Path_77" style="fill:url(#Path_77_1_);" d="M457.7,528.5l-6.8,9.2c-8.7,5.3-16.4,8.1-23.4,9.1
				c2.1,4.2,3.1,8.8,2.9,13.5c5.4-2.5,10.4-5.7,14.9-9.5C461.7,541,457.7,528.5,457.7,528.5z"/>
		</g>
	</g>
	<g id="Group_34">
		
			<linearGradient id="Path_95_1_" gradientUnits="userSpaceOnUse" x1="528.7034" y1="463.3408" x2="528.7534" y2="461.5528" gradientTransform="matrix(90.4572 0 0 -90.4574 -47326.5234 42481.6016)">
			<stop  offset="0" style="stop-color:#BDC8E7"/>
			<stop  offset="1" style="stop-color:#CED7ED"/>
		</linearGradient>
		<path id="Path_95" style="fill:url(#Path_95_1_);" d="M471.3,638.5l7.8-3.6c3.4,2.2,7.1,3.9,11.1,4.9l2.6,8.2
			c0.1,0.3,0.4,0.5,0.7,0.5l10.3,0.2c0.3,0,0.6-0.2,0.7-0.5l3-8c4-0.8,7.8-2.3,11.3-4.4l7.6,3.9c0.3,0.1,0.6,0.1,0.8-0.1l7.4-7.1
			c0.2-0.2,0.3-0.5,0.2-0.8l-3.6-7.8c2.2-3.4,3.9-7.1,4.9-11.1l8.2-2.6c0.3-0.1,0.5-0.4,0.5-0.7l0.2-10.3c0-0.3-0.2-0.6-0.5-0.7
			l-8-3c-0.8-4-2.3-7.8-4.4-11.3l3.9-7.6c0.1-0.3,0.1-0.6-0.1-0.8l-7.1-7.4c-0.2-0.2-0.5-0.3-0.8-0.2L520,572
			c-3.4-2.2-7.1-3.9-11.1-4.9l-2.6-8.2c-0.1-0.3-0.4-0.5-0.7-0.5l-10.3-0.2c-0.3,0-0.6,0.2-0.7,0.5l-3,8c-4,0.8-7.8,2.3-11.3,4.4
			l-7.6-3.9c-0.3-0.1-0.6-0.1-0.8,0.1l-7.4,7.1c-0.2,0.2-0.3,0.5-0.2,0.8l3.6,7.8c-2.2,3.4-3.9,7.1-4.9,11.1l-8.2,2.6
			c-0.3,0.1-0.5,0.4-0.5,0.7l-0.2,10.3c0,0.3,0.2,0.6,0.5,0.7l8,3c0.8,4,2.3,7.8,4.4,11.3l-3.9,7.6c-0.1,0.3-0.1,0.6,0.1,0.8
			l7.1,7.4C470.7,638.6,471,638.7,471.3,638.5z"/>
		<path id="Path_96" style="opacity:0.56;fill:#FFFFFF;enable-background:new    ;" d="M499.5,613.6c-5.6,0-10.2-4.5-10.2-10.2
			c0-5.6,4.5-10.2,10.2-10.2s10.2,4.5,10.2,10.2c0,4.7-3.3,8.8-7.9,9.9l0,0C501,613.5,500.2,613.6,499.5,613.6z M499.5,595.3
			c-0.6,0-1.2,0.1-1.8,0.2c-4.4,1-7.1,5.4-6.1,9.7s5.4,7.1,9.7,6.1l0,0c4.4-1,7.1-5.4,6.1-9.7C506.6,598,503.3,595.3,499.5,595.3
			L499.5,595.3z"/>
		<g id="Group_33">
			<g id="Group_31" style="opacity:0.64;">
				<path id="Path_97" style="fill:#FFFFFF;" d="M453.4,636.2c-0.8,0-1.6-0.4-2.1-1.1c-0.8-1.2-1.5-2.4-2.2-3.6
					c-0.7-1.2-0.3-2.7,0.9-3.4s2.7-0.3,3.4,0.9c0,0,0,0,0,0c0.6,1.1,1.3,2.2,2,3.3c0.8,1.2,0.4,2.7-0.7,3.5
					C454.4,636,453.9,636.2,453.4,636.2L453.4,636.2z"/>
				<path id="Path_98" style="fill:#FFFFFF;" d="M446.1,619.7c-1.1,0-2.1-0.8-2.4-1.9c-0.1-0.5-0.2-1-0.4-1.5
					c-0.6-2.4-1-4.9-1.2-7.4c-0.1-1.4,0.9-2.6,2.2-2.7s2.6,0.9,2.7,2.2c0.2,2.3,0.6,4.5,1.1,6.8c0.1,0.5,0.2,0.9,0.3,1.4
					c0.3,1.3-0.5,2.7-1.8,3C446.6,619.7,446.3,619.7,446.1,619.7L446.1,619.7z M445.1,597.2c-1.4,0-2.5-1.1-2.5-2.5
					c0-0.1,0-0.3,0-0.4c0.5-3,1.2-5.9,2.1-8.8c0.4-1.3,1.8-2,3.1-1.6s2,1.8,1.6,3.1c0,0,0,0,0,0.1c-0.9,2.6-1.5,5.3-2,8
					C447.4,596.3,446.3,597.2,445.1,597.2z M453.2,576.1c-1.4,0-2.5-1.1-2.5-2.5c0-0.5,0.1-0.9,0.4-1.4c1.6-2.5,3.5-4.9,5.5-7.2
					c0.9-1,2.5-1.1,3.5-0.2c1,0.9,1.1,2.5,0.2,3.5c-1.8,2.1-3.5,4.3-5,6.6C454.8,575.7,454,576.1,453.2,576.1L453.2,576.1z
					 M469,560.1c-1.4,0-2.5-1.1-2.5-2.5c0-0.8,0.4-1.6,1.1-2.1c2.5-1.7,5.2-3.1,7.9-4.4c1.3-0.6,2.7,0,3.3,1.3
					c0.5,1.2,0,2.7-1.2,3.3c-2.5,1.1-4.9,2.5-7.2,4C470,559.9,469.5,560.1,469,560.1z M490,551.7c-1.4,0-2.5-1.1-2.5-2.5
					c0-1.2,0.9-2.3,2.1-2.5c3-0.5,6-0.8,9-0.9c1.4,0,2.5,1.1,2.5,2.5s-1.1,2.5-2.5,2.5c-2.8,0.1-5.5,0.3-8.2,0.8
					C490.3,551.7,490.1,551.7,490,551.7L490,551.7z"/>
				<path id="Path_99" style="fill:#FFFFFF;" d="M516.4,553.5c-0.3,0-0.5,0-0.8-0.1c-1.2-0.4-2.4-0.7-3.7-1c-1.3-0.3-2.2-1.6-1.9-3
					c0.3-1.3,1.6-2.2,3-1.9c0,0,0.1,0,0.1,0c1.3,0.3,2.7,0.7,4,1.1c1.3,0.4,2,1.8,1.6,3.1C518.5,552.8,517.5,553.5,516.4,553.5
					L516.4,553.5z"/>
			</g>
			<g id="Group_32" style="opacity:0.64;">
				<path id="Path_100" style="fill:#FFFFFF;" d="M549.8,583.3c-1,0-1.9-0.6-2.3-1.5c-0.5-1.2-1.1-2.3-1.7-3.4
					c-0.6-1.2-0.2-2.7,1.1-3.4c1.2-0.6,2.7-0.2,3.3,1c0.7,1.2,1.3,2.5,1.8,3.7c0.6,1.3,0,2.7-1.3,3.3
					C550.5,583.3,550.1,583.3,549.8,583.3L549.8,583.3z"/>
				<path id="Path_101" style="fill:#FFFFFF;" d="M499.5,661.1c-0.6,0-1.3,0-1.9,0c-1.4,0-2.5-1.2-2.4-2.6c0-1.4,1.2-2.5,2.6-2.4
					c0.6,0,1.2,0,1.7,0h0c2.1,0,4.3-0.1,6.4-0.4c1.4-0.2,2.6,0.8,2.8,2.2c0.2,1.4-0.8,2.6-2.2,2.8
					C504.1,660.9,501.8,661.1,499.5,661.1z M519.5,657.3c-1.4,0-2.5-1.1-2.5-2.5c0-1,0.6-2,1.6-2.3c2.5-1,5-2.2,7.3-3.5
					c1.2-0.7,2.7-0.3,3.4,0.9c0.7,1.2,0.3,2.7-0.9,3.4c-2.6,1.5-5.2,2.8-8,3.9C520.1,657.3,519.8,657.3,519.5,657.3L519.5,657.3z
					 M538.1,645.3c-1.4,0-2.5-1.1-2.5-2.5c0-0.7,0.3-1.3,0.7-1.8c1.9-1.9,3.7-4,5.3-6.1c0.8-1.1,2.4-1.4,3.5-0.5
					c1.1,0.8,1.4,2.4,0.5,3.5c0,0,0,0,0,0c-1.8,2.4-3.7,4.6-5.8,6.7C539.4,645,538.8,645.3,538.1,645.3L538.1,645.3z M550.5,626.8
					c-1.4,0-2.5-1.1-2.5-2.5c0-0.3,0.1-0.6,0.2-0.9c1-2.5,1.9-5.1,2.5-7.7c0.3-1.3,1.7-2.2,3-1.9s2.2,1.7,1.9,3
					c-0.7,2.9-1.6,5.7-2.7,8.5C552.4,626.2,551.5,626.8,550.5,626.8L550.5,626.8z M554.6,605c-1.4,0-2.5-1.1-2.5-2.5
					c-0.1-2.7-0.3-5.4-0.8-8.1c-0.2-1.4,0.7-2.7,2-2.9s2.7,0.7,2.9,2c0.5,2.9,0.8,5.9,0.8,8.8C557.1,603.8,556,605,554.6,605
					L554.6,605z"/>
				<path id="Path_102" style="fill:#FFFFFF;" d="M484,658.8c-0.2,0-0.5,0-0.7-0.1c-1.3-0.4-2.7-0.8-4-1.3c-1.3-0.5-1.9-1.9-1.5-3.2
					c0.5-1.3,1.9-1.9,3.2-1.5c1.2,0.4,2.4,0.9,3.6,1.2c1.3,0.4,2.1,1.8,1.7,3.1C486.1,658.1,485.1,658.8,484,658.8L484,658.8z"/>
			</g>
		</g>
		<path id="Path_103" style="opacity:0.56;fill:#FFFFFF;enable-background:new    ;" d="M499.5,629.3c-0.2,0-0.4,0-0.6,0
			c-0.9,0-1.8-0.1-2.6-0.2l0,0h0c-0.6-0.1-1.1-0.2-1.7-0.3h0l-0.1,0l0,0c-0.3-0.1-0.6-0.1-0.9-0.2c-0.4-0.1-0.8-0.5-0.8-1
			c0-0.1,0-0.2,0-0.2c0.1-0.5,0.7-0.9,1.2-0.7c0,0,0,0,0,0c12.8,3,25.6-4.9,28.7-17.7c0.4-1.6,0.6-3.3,0.6-5c0-0.2,0-0.3,0-0.5
			c0.1-13.1-10.4-23.9-23.5-24.1c-13.1-0.1-23.9,10.4-24.1,23.5c0,0.2,0,0.3,0,0.5c0,4.1,1.1,8.2,3.1,11.8c0.3,0.5,0.1,1.1-0.4,1.4
			c-0.5,0.3-1.1,0.1-1.4-0.4c-2.2-3.9-3.4-8.3-3.4-12.8c0-0.2,0-0.4,0-0.6c0.2-14.2,11.8-25.7,26.1-25.5
			c14.2,0.2,25.7,11.8,25.5,26.1c0,0.2,0,0.4,0,0.6C525,618,513.5,629.2,499.5,629.3z"/>
	</g>
	<g id="Group_39" transform="translate(-14.909)">
		<g id="Group_36" style="opacity:0.64;">
			<path id="Path_107" style="fill:#FFFFFF;" d="M631.8,322c-0.2,0-0.4-0.1-0.6-0.2c-0.7-0.5-1.3-1-2-1.6c-0.4-0.3-0.5-1-0.1-1.4
				s1-0.5,1.4-0.1l0,0c0.6,0.5,1.3,1,1.9,1.6c0.4,0.3,0.5,1,0.2,1.4C632.4,321.9,632.1,322,631.8,322L631.8,322z"/>
			<path id="Path_108" style="fill:#FFFFFF;" d="M626.1,317.2c-0.2,0-0.5-0.1-0.7-0.2c-1.3-1.1-2.5-2.2-3.7-3.4
				c-0.4-0.4-0.4-1-0.1-1.4c0.4-0.4,1-0.4,1.4-0.1c1.2,1.1,2.5,2.2,3.7,3.3c0.4,0.4,0.5,1,0.1,1.4
				C626.6,317.1,626.3,317.2,626.1,317.2L626.1,317.2z M618.7,310.4c-0.3,0-0.5-0.1-0.7-0.3c-1.2-1.2-2.4-2.4-3.5-3.6
				c-0.4-0.4-0.4-1,0-1.4c0.4-0.4,1-0.4,1.4,0c0,0,0,0,0,0c1.1,1.2,2.3,2.4,3.5,3.6c0.4,0.4,0.4,1,0,1.4
				C619.2,310.3,619,310.4,618.7,310.4L618.7,310.4z M611.9,303.1c-0.3,0-0.6-0.1-0.8-0.3c-1.1-1.3-2.2-2.5-3.3-3.8
				c-0.4-0.4-0.3-1,0.1-1.4s1-0.3,1.4,0.1c0,0,0,0,0,0c1.1,1.3,2.1,2.5,3.2,3.8c0.4,0.4,0.3,1-0.1,1.4
				C612.3,303.1,612.1,303.1,611.9,303.1L611.9,303.1z M605.5,295.4c-0.3,0-0.6-0.1-0.8-0.4c-1-1.3-2-2.7-3-4
				c-0.3-0.4-0.2-1.1,0.2-1.4c0.4-0.3,1.1-0.2,1.4,0.2c1,1.3,2,2.7,3,4c0.3,0.4,0.3,1.1-0.2,1.4
				C605.9,295.4,605.7,295.4,605.5,295.4z M599.6,287.3c-0.3,0-0.6-0.2-0.8-0.4c-0.9-1.4-1.9-2.8-2.8-4.2c-0.3-0.5-0.2-1.1,0.3-1.4
				c0.5-0.3,1.1-0.2,1.4,0.3c0.9,1.4,1.8,2.8,2.7,4.2c0.3,0.5,0.2,1.1-0.3,1.4C600,287.3,599.8,287.3,599.6,287.3L599.6,287.3z
				 M594.3,278.9c-0.4,0-0.7-0.2-0.9-0.5c-0.8-1.4-1.7-2.9-2.5-4.4c-0.3-0.5-0.1-1.1,0.4-1.4c0.5-0.3,1.1-0.1,1.3,0.4
				c0.8,1.5,1.6,2.9,2.5,4.3c0.3,0.5,0.1,1.1-0.4,1.4C594.6,278.8,594.4,278.9,594.3,278.9z M589.5,270.1c-0.4,0-0.7-0.2-0.9-0.5
				c-0.8-1.5-1.5-3-2.2-4.5c-0.2-0.5,0-1.1,0.5-1.3c0.5-0.2,1.1,0,1.3,0.5c0,0,0,0,0,0c0.7,1.5,1.4,3,2.2,4.5
				c0.2,0.5,0.1,1.1-0.4,1.3C589.8,270,589.6,270.1,589.5,270.1L589.5,270.1z M585.3,261c-0.4,0-0.8-0.2-0.9-0.6
				c-0.7-1.5-1.3-3.1-1.9-4.7c-0.2-0.5,0.1-1.1,0.6-1.3c0.5-0.2,1.1,0.1,1.3,0.6c0.6,1.5,1.2,3.1,1.9,4.6c0.2,0.5,0,1.1-0.5,1.3
				C585.5,261,585.4,261,585.3,261L585.3,261z M581.6,251.6c-0.4,0-0.8-0.3-0.9-0.7c-0.6-1.6-1.1-3.2-1.6-4.8
				c-0.2-0.5,0.1-1.1,0.7-1.3c0.5-0.2,1.1,0.1,1.3,0.7c0.5,1.6,1,3.2,1.6,4.7c0.2,0.5-0.1,1.1-0.6,1.3c0,0,0,0,0,0
				C581.9,251.6,581.8,251.6,581.6,251.6z M578.6,242.1c-0.4,0-0.8-0.3-1-0.7c-0.4-1.6-0.9-3.2-1.3-4.9c-0.1-0.5,0.2-1.1,0.7-1.2
				s1.1,0.2,1.2,0.7l0,0c0.4,1.6,0.8,3.2,1.3,4.8c0.1,0.5-0.2,1.1-0.7,1.2C578.8,242.1,578.7,242.1,578.6,242.1L578.6,242.1z
				 M576.3,232.4c-0.5,0-0.9-0.3-1-0.8c-0.3-1.6-0.7-3.3-1-4.9c-0.1-0.5,0.3-1.1,0.8-1.2c0.5-0.1,1.1,0.3,1.2,0.8
				c0.3,1.6,0.6,3.3,0.9,4.9c0.1,0.5-0.2,1.1-0.8,1.2C576.4,232.4,576.3,232.4,576.3,232.4L576.3,232.4z M574.5,222.5
				c-0.5,0-0.9-0.4-1-0.9c-0.2-1.7-0.4-3.3-0.6-5c-0.1-0.5,0.3-1,0.9-1.1c0.5-0.1,1,0.3,1.1,0.9c0,0,0,0,0,0
				c0.2,1.6,0.4,3.3,0.6,4.9c0.1,0.5-0.3,1.1-0.8,1.1C574.6,222.5,574.6,222.5,574.5,222.5L574.5,222.5z M573.5,212.5
				c-0.5,0-1-0.4-1-0.9c-0.1-1.7-0.2-3.4-0.3-5c0-0.6,0.4-1,1-1c0.6,0,1,0.4,1,1c0.1,1.6,0.2,3.3,0.3,5
				C574.5,212,574.1,212.5,573.5,212.5L573.5,212.5z M573,202.5c-0.5,0-1-0.4-1-1c0-0.6,0-1.1,0-1.7c0-1.1,0-2.2,0-3.3
				c0-0.5,0.5-1,1-1c0.6,0,1,0.5,1,1c0,0,0,0,0,0c0,1.1,0,2.2,0,3.3c0,0.6,0,1.1,0,1.7C574,202.1,573.6,202.5,573,202.5
				C573,202.5,573,202.5,573,202.5L573,202.5z M573.2,192.5L573.2,192.5c-0.6,0-1-0.5-1-1.1c0.1-1.7,0.2-3.4,0.4-5
				c0-0.5,0.5-1,1.1-0.9c0,0,0,0,0,0c0.6,0,1,0.5,0.9,1.1c0,0,0,0,0,0c-0.1,1.6-0.3,3.3-0.3,5C574.2,192.1,573.8,192.5,573.2,192.5
				L573.2,192.5z M574.1,182.6c0,0-0.1,0-0.1,0c-0.5-0.1-0.9-0.6-0.9-1.1c0.2-1.7,0.4-3.3,0.7-5c0.1-0.5,0.6-0.9,1.1-0.8
				c0.5,0.1,0.9,0.6,0.8,1.1c-0.2,1.6-0.5,3.3-0.7,4.9C575,182.2,574.6,182.6,574.1,182.6L574.1,182.6z M575.6,172.7
				c-0.1,0-0.1,0-0.2,0c-0.5-0.1-0.9-0.6-0.8-1.2c0.3-1.6,0.6-3.3,1-4.9c0.1-0.5,0.7-0.9,1.2-0.8c0.5,0.1,0.9,0.6,0.8,1.2
				c-0.4,1.6-0.7,3.3-1,4.9C576.5,172.3,576.1,172.7,575.6,172.7L575.6,172.7z M577.7,162.9c-0.1,0-0.2,0-0.2,0
				c-0.5-0.1-0.9-0.7-0.7-1.2c0,0,0,0,0,0c0.4-1.6,0.8-3.3,1.3-4.9c0.2-0.5,0.7-0.8,1.2-0.7c0.5,0.2,0.8,0.7,0.7,1.2
				c-0.5,1.6-0.9,3.2-1.3,4.8C578.6,162.6,578.2,162.9,577.7,162.9L577.7,162.9z M580.5,153.3c-0.6,0-1-0.4-1-1c0-0.1,0-0.2,0-0.3
				c0.5-1.6,1.1-3.2,1.6-4.8c0.2-0.5,0.7-0.8,1.3-0.6c0.5,0.2,0.8,0.7,0.6,1.3c0,0,0,0,0,0.1c-0.6,1.6-1.1,3.1-1.6,4.7
				C581.3,153,580.9,153.3,580.5,153.3L580.5,153.3z M583.9,143.8c-0.6,0-1-0.4-1-1c0-0.1,0-0.3,0.1-0.4c0.6-1.6,1.3-3.1,1.9-4.7
				c0.2-0.5,0.8-0.7,1.3-0.5c0.5,0.2,0.7,0.8,0.5,1.3c-0.7,1.5-1.3,3.1-1.9,4.6C584.6,143.6,584.3,143.8,583.9,143.8L583.9,143.8z
				 M587.8,134.7c-0.6,0-1-0.5-1-1c0-0.1,0-0.3,0.1-0.4c0.7-1.5,1.5-3,2.2-4.5c0.3-0.5,0.9-0.7,1.3-0.4c0.5,0.3,0.7,0.9,0.4,1.3
				c-0.8,1.5-1.5,3-2.2,4.5C588.6,134.4,588.2,134.7,587.8,134.7L587.8,134.7z M592.4,125.8c-0.6,0-1-0.4-1-1c0-0.2,0-0.3,0.1-0.5
				c0.8-1.5,1.7-2.9,2.5-4.4c0.3-0.5,0.9-0.6,1.4-0.4c0.5,0.3,0.6,0.9,0.4,1.4c0,0,0,0,0,0c-0.8,1.4-1.7,2.9-2.5,4.3
				C593.1,125.6,592.8,125.7,592.4,125.8L592.4,125.8z M597.5,117.2c-0.6,0-1-0.4-1-1c0-0.2,0.1-0.4,0.2-0.5
				c0.9-1.4,1.8-2.8,2.8-4.2c0.3-0.5,0.9-0.6,1.4-0.3s0.6,0.9,0.3,1.4c-0.9,1.4-1.9,2.8-2.8,4.1C598.2,117,597.9,117.2,597.5,117.2
				L597.5,117.2z M603.2,108.9c-0.6,0-1-0.5-1-1c0-0.2,0.1-0.4,0.2-0.6c1-1.3,2-2.7,3.1-4c0.3-0.4,1-0.5,1.4-0.2
				c0.4,0.3,0.5,1,0.2,1.4c-1,1.3-2,2.6-3,3.9C603.8,108.8,603.5,108.9,603.2,108.9L603.2,108.9z M609.4,101.1c-0.6,0-1-0.4-1-1
				c0-0.2,0.1-0.5,0.2-0.6c1.1-1.3,2.2-2.6,3.3-3.8c0.4-0.4,1-0.4,1.4,0c0.4,0.4,0.4,1,0.1,1.4c-1.1,1.2-2.2,2.5-3.3,3.7
				C610,101,609.7,101.1,609.4,101.1L609.4,101.1z M616.1,93.7c-0.6,0-1-0.4-1-1c0-0.3,0.1-0.5,0.3-0.7c1.2-1.2,2.4-2.4,3.5-3.6
				c0.4-0.4,1-0.4,1.4,0s0.4,1,0,1.4l0,0c-1.2,1.1-2.4,2.3-3.5,3.5C616.6,93.5,616.3,93.7,616.1,93.7L616.1,93.7z M623.2,86.7
				c-0.6,0-1-0.4-1-1c0-0.3,0.1-0.6,0.3-0.7c1.2-1.1,2.5-2.2,3.8-3.3c0.4-0.4,1.1-0.3,1.4,0.1c0.4,0.4,0.3,1.1-0.1,1.4l0,0
				c-1.3,1.1-2.5,2.2-3.7,3.3C623.7,86.6,623.5,86.7,623.2,86.7L623.2,86.7z M630.8,80.2c-0.6,0-1-0.4-1-1c0-0.3,0.1-0.6,0.4-0.8
				c1.3-1,2.6-2.1,4-3.1c0.4-0.3,1.1-0.2,1.4,0.2c0.3,0.4,0.2,1.1-0.2,1.4c-1.3,1-2.6,2-3.9,3C631.3,80.1,631.1,80.2,630.8,80.2
				L630.8,80.2z M638.9,74.2c-0.6,0-1-0.4-1-1c0-0.3,0.2-0.6,0.4-0.8c1.4-1,2.8-1.9,4.2-2.8c0.5-0.3,1.1-0.1,1.4,0.3
				c0.3,0.5,0.2,1.1-0.3,1.4c-1.4,0.9-2.8,1.8-4.1,2.8C639.3,74.1,639.1,74.2,638.9,74.2L638.9,74.2z M647.2,68.7c-0.6,0-1-0.4-1-1
				c0-0.3,0.2-0.7,0.5-0.9c1.4-0.9,2.9-1.7,4.3-2.5c0.5-0.3,1.1-0.1,1.4,0.4c0.3,0.5,0.1,1.1-0.4,1.4c0,0,0,0,0,0
				c-1.4,0.8-2.9,1.7-4.3,2.5C647.6,68.7,647.4,68.7,647.2,68.7L647.2,68.7z M656,63.8c-0.6,0-1-0.4-1-1c0-0.4,0.2-0.7,0.5-0.9
				c1.5-0.8,3-1.5,4.5-2.3c0.5-0.2,1.1-0.1,1.3,0.4c0.2,0.5,0.1,1.1-0.4,1.3c0,0,0,0,0,0c-1.5,0.7-3,1.5-4.4,2.2
				C656.3,63.7,656.1,63.8,656,63.8L656,63.8z M665,59.4c-0.6,0-1-0.4-1-1c0-0.4,0.2-0.8,0.6-0.9c1.5-0.7,3.1-1.3,4.6-2
				c0.5-0.2,1.1,0,1.3,0.6c0.2,0.5,0,1.1-0.6,1.3c-1.5,0.6-3.1,1.3-4.6,1.9C665.2,59.4,665.1,59.4,665,59.4L665,59.4z M674.2,55.7
				c-0.6,0-1-0.4-1-1c0-0.4,0.3-0.8,0.7-0.9c1.6-0.6,3.2-1.1,4.8-1.7c0.5-0.2,1.1,0.1,1.3,0.6c0.2,0.5-0.1,1.1-0.6,1.3
				c-1.6,0.5-3.1,1.1-4.7,1.6C674.5,55.6,674.4,55.7,674.2,55.7L674.2,55.7z M683.7,52.5c-0.6,0-1-0.4-1-1c0-0.4,0.3-0.8,0.7-1
				c1.6-0.5,3.2-0.9,4.9-1.4c0.5-0.1,1.1,0.2,1.2,0.7c0.1,0.5-0.2,1.1-0.7,1.2c-1.6,0.4-3.2,0.9-4.8,1.3
				C683.9,52.5,683.8,52.5,683.7,52.5L683.7,52.5z M693.4,50c-0.6,0-1-0.4-1-1c0-0.5,0.3-0.9,0.8-1c1.6-0.4,3.3-0.7,4.9-1
				c0.5-0.1,1.1,0.3,1.2,0.8c0.1,0.5-0.3,1-0.8,1.2c-1.6,0.3-3.3,0.7-4.9,1C693.6,50,693.5,50,693.4,50L693.4,50z M703.3,48.1
				c-0.6,0-1-0.4-1-1c0-0.5,0.4-0.9,0.8-1c1.7-0.3,3.3-0.5,5-0.7c0.5-0.1,1.1,0.3,1.1,0.8c0.1,0.5-0.3,1.1-0.8,1.1c0,0,0,0,0,0
				c-1.6,0.2-3.3,0.4-4.9,0.7C703.4,48.1,703.3,48.1,703.3,48.1L703.3,48.1z M713.2,46.9c-0.6,0-1-0.4-1-1c0-0.6,0.4-1,1-1
				c1.7-0.2,3.4-0.3,5-0.4c0.6,0,1,0.4,1.1,0.9c0,0.6-0.4,1-0.9,1.1C716.6,46.6,714.9,46.7,713.2,46.9
				C713.3,46.8,713.2,46.8,713.2,46.9L713.2,46.9z"/>
			<path id="Path_109" style="fill:#FFFFFF;" d="M723.3,46.2c-0.6,0-1-0.4-1-1s0.4-1,1-1c0.8,0,1.7,0,2.5,0c0.5,0,1,0.4,1,1
				c0,0,0,0,0,0c0,0.6-0.4,1-1,1c0,0,0,0,0,0C725,46.2,724.2,46.2,723.3,46.2L723.3,46.2z"/>
		</g>
		<g id="Group_37" style="opacity:0.64;">
			<path id="Path_110" style="fill:#FFFFFF;" d="M834.9,89.6c-0.3,0-0.5-0.1-0.7-0.3c-0.6-0.6-1.2-1.1-1.8-1.7c-0.4-0.4-0.4-1,0-1.4
				s1-0.4,1.4,0c0.6,0.6,1.2,1.2,1.8,1.7c0.4,0.4,0.4,1,0,1.4C835.4,89.5,835.2,89.6,834.9,89.6z"/>
			<path id="Path_111" style="fill:#FFFFFF;" d="M729.7,355.2c-0.6,0-1-0.4-1-1c0-0.6,0.4-1,1-1c1.7,0,3.4-0.1,5-0.1
				c0.6,0,1,0.4,1,1s-0.4,1-1,1C733.1,355.1,731.4,355.2,729.7,355.2L729.7,355.2z M739.8,354.7c-0.6,0-1-0.4-1-1s0.4-1,1-1
				c1.7-0.1,3.4-0.3,5-0.5c0.5-0.1,1,0.3,1.1,0.9c0.1,0.5-0.3,1-0.9,1.1C743.3,354.4,741.6,354.6,739.8,354.7
				C739.9,354.7,739.9,354.7,739.8,354.7z M749.9,353.6c-0.6,0-1-0.5-1-1c0-0.5,0.4-0.9,0.9-1c1.7-0.2,3.3-0.5,5-0.8
				c0.5-0.1,1.1,0.3,1.2,0.8s-0.3,1.1-0.8,1.2c-1.7,0.3-3.4,0.6-5,0.8C750,353.6,749.9,353.6,749.9,353.6L749.9,353.6z M759.9,351.8
				c-0.6,0-1-0.4-1-1c0-0.5,0.3-0.9,0.8-1c1.6-0.3,3.3-0.7,4.9-1.1c0.5-0.1,1.1,0.2,1.2,0.7s-0.2,1.1-0.7,1.2c0,0,0,0-0.1,0
				c-1.6,0.4-3.3,0.8-5,1.1C760,351.8,759.9,351.8,759.9,351.8z M769.7,349.4c-0.6,0-1-0.4-1-1c0-0.4,0.3-0.8,0.7-1
				c1.6-0.5,3.2-0.9,4.8-1.5c0.5-0.2,1.1,0,1.3,0.6s0,1.1-0.6,1.3c0,0-0.1,0-0.1,0c-1.6,0.5-3.3,1-4.9,1.5
				C769.9,349.3,769.8,349.3,769.7,349.4z M779.3,346.3c-0.6,0-1-0.4-1-1c0-0.4,0.3-0.8,0.7-0.9c1.6-0.6,3.2-1.2,4.7-1.8
				c0.5-0.2,1.1,0,1.3,0.6c0.2,0.5,0,1.1-0.6,1.3l0,0c-1.6,0.6-3.2,1.2-4.8,1.8C779.6,346.2,779.4,346.3,779.3,346.3L779.3,346.3z
				 M788.7,342.5c-0.6,0-1-0.4-1-1c0-0.4,0.2-0.8,0.6-0.9c1.5-0.7,3.1-1.4,4.6-2.1c0.5-0.2,1.1,0,1.3,0.5c0.2,0.5,0,1.1-0.5,1.3
				c-1.5,0.7-3.1,1.4-4.6,2.1C789,342.5,788.9,342.5,788.7,342.5L788.7,342.5z M797.9,338.2c-0.6,0-1-0.4-1-1c0-0.4,0.2-0.7,0.5-0.9
				c1.5-0.8,3-1.6,4.4-2.4c0.5-0.3,1.1-0.1,1.4,0.4c0.3,0.5,0.1,1.1-0.4,1.4c-1.5,0.8-3,1.6-4.5,2.4
				C798.2,338.2,798.1,338.2,797.9,338.2L797.9,338.2z M806.8,333.3c-0.6,0-1-0.4-1-1c0-0.4,0.2-0.7,0.5-0.9
				c0.4-0.3,0.9-0.5,1.3-0.8c1-0.6,2-1.2,3-1.9c0.5-0.3,1.1-0.2,1.4,0.3c0.3,0.5,0.2,1.1-0.3,1.4l0,0c-1,0.6-2,1.3-3,1.9
				c-0.4,0.3-0.9,0.5-1.3,0.8C807.1,333.3,806.9,333.3,806.8,333.3L806.8,333.3z M815.3,327.8c-0.6,0-1-0.4-1-1
				c0-0.3,0.2-0.6,0.4-0.8c1.4-0.9,2.7-1.9,4.1-2.9c0.4-0.3,1.1-0.3,1.4,0.2c0.3,0.4,0.3,1.1-0.2,1.4c0,0,0,0,0,0
				c-1.4,1-2.8,2-4.1,3C815.7,327.8,815.5,327.8,815.3,327.8L815.3,327.8z M823.4,321.8c-0.6,0-1-0.4-1-1c0-0.3,0.1-0.6,0.4-0.8
				c1.3-1,2.6-2.1,3.9-3.2c0.4-0.4,1-0.3,1.4,0.1c0.4,0.4,0.3,1-0.1,1.4c0,0,0,0,0,0c-1.3,1.1-2.6,2.2-3.9,3.2
				C823.9,321.7,823.6,321.8,823.4,321.8L823.4,321.8z M831.2,315.3c-0.6,0-1-0.4-1-1c0-0.3,0.1-0.6,0.3-0.7
				c1.2-1.1,2.5-2.3,3.7-3.4c0.4-0.4,1-0.4,1.4,0c0.4,0.4,0.4,1,0,1.4c0,0,0,0-0.1,0.1c-1.2,1.2-2.5,2.3-3.7,3.5
				C831.6,315.2,831.4,315.3,831.2,315.3L831.2,315.3z M838.4,308.3c-0.6,0-1-0.4-1-1c0-0.3,0.1-0.5,0.3-0.7
				c1.2-1.2,2.3-2.4,3.4-3.7c0.4-0.4,1-0.4,1.4-0.1c0.4,0.4,0.4,1,0.1,1.4c-1.1,1.2-2.3,2.5-3.5,3.7
				C839,308.2,838.7,308.3,838.4,308.3L838.4,308.3z M845.2,300.8c-0.6,0-1-0.4-1-1c0-0.2,0.1-0.5,0.2-0.6c1.1-1.3,2.2-2.6,3.2-3.9
				c0.3-0.4,1-0.5,1.4-0.2c0.4,0.3,0.5,1,0.2,1.4c-1,1.3-2.1,2.6-3.2,3.9C845.8,300.7,845.5,300.8,845.2,300.8L845.2,300.8z
				 M851.5,292.9c-0.6,0-1-0.4-1-1c0-0.2,0.1-0.4,0.2-0.6c1-1.3,2-2.7,2.9-4.1c0.3-0.5,0.9-0.6,1.4-0.3c0.5,0.3,0.6,0.9,0.3,1.4
				c0,0,0,0,0,0c-1,1.4-2,2.8-3,4.1C852.1,292.7,851.8,292.9,851.5,292.9L851.5,292.9z M857.3,284.6c-0.6,0-1-0.4-1-1
				c0-0.2,0.1-0.4,0.2-0.5c0.9-1.4,1.8-2.8,2.7-4.3c0.3-0.5,0.9-0.6,1.4-0.3c0.5,0.3,0.6,0.9,0.3,1.4c-0.9,1.5-1.8,2.9-2.7,4.3
				C857.9,284.4,857.6,284.6,857.3,284.6L857.3,284.6z M862.5,275.9c-0.6,0-1-0.4-1-1c0-0.2,0-0.3,0.1-0.5c0.8-1.5,1.6-3,2.4-4.4
				c0.3-0.5,0.9-0.7,1.3-0.4s0.7,0.9,0.4,1.3c-0.8,1.5-1.6,3-2.4,4.5C863.2,275.7,862.8,275.9,862.5,275.9L862.5,275.9z
				 M867.1,266.9c-0.1,0-0.3,0-0.4-0.1c-0.5-0.2-0.7-0.8-0.5-1.3c0.7-1.5,1.4-3,2.1-4.6c0.2-0.5,0.8-0.7,1.3-0.5s0.7,0.8,0.5,1.3
				c-0.7,1.6-1.4,3.1-2.1,4.6C867.8,266.7,867.5,266.9,867.1,266.9L867.1,266.9z M871.1,257.6c-0.6,0-1-0.4-1-1c0-0.1,0-0.3,0.1-0.4
				c0.6-1.5,1.2-3.1,1.8-4.7c0.2-0.5,0.8-0.8,1.3-0.6c0.5,0.2,0.8,0.8,0.6,1.3c-0.6,1.6-1.2,3.2-1.8,4.8
				C871.9,257.4,871.5,257.6,871.1,257.6L871.1,257.6z M874.5,248.1c-0.6,0-1-0.4-1-1c0-0.1,0-0.2,0-0.3c0.5-1.6,1-3.2,1.5-4.8
				c0.2-0.5,0.7-0.8,1.2-0.7s0.8,0.7,0.7,1.2c-0.5,1.6-1,3.3-1.5,4.9C875.4,247.8,875,248.1,874.5,248.1L874.5,248.1z M877.3,238.4
				c-0.1,0-0.2,0-0.2,0c-0.5-0.1-0.9-0.7-0.7-1.2c0,0,0,0,0,0c0.4-1.6,0.8-3.3,1.1-4.9c0.1-0.5,0.7-0.9,1.2-0.7
				c0.5,0.1,0.8,0.6,0.7,1.2c-0.4,1.7-0.8,3.3-1.2,5C878.2,238.1,877.8,238.4,877.3,238.4L877.3,238.4z M879.5,228.5
				c-0.1,0-0.1,0-0.2,0c-0.5-0.1-0.9-0.6-0.8-1.2c0.3-1.6,0.6-3.3,0.8-5c0.1-0.5,0.6-0.9,1.1-0.8c0.5,0.1,0.9,0.6,0.8,1.1l0,0
				c-0.2,1.7-0.5,3.4-0.8,5C880.4,228.1,880,228.5,879.5,228.5L879.5,228.5z M881,218.5c0,0-0.1,0-0.1,0c-0.5-0.1-0.9-0.6-0.9-1.1
				c0.2-1.7,0.4-3.3,0.5-5c0-0.6,0.5-1,1.1-0.9c0.6,0,1,0.5,0.9,1.1c-0.1,1.7-0.3,3.4-0.5,5.1C881.9,218.1,881.5,218.5,881,218.5
				L881,218.5z M881.8,208.4L881.8,208.4c-0.6,0-1-0.5-1-1c0.1-1.7,0.1-3.4,0.2-5c0-0.6,0.5-1,1-1c0.6,0,1,0.5,1,1
				c0,1.7-0.1,3.4-0.2,5.1C882.8,208,882.3,208.4,881.8,208.4L881.8,208.4z M882,198.2c-0.5,0-1-0.4-1-1c0-1.7-0.1-3.4-0.2-5
				c0-0.6,0.4-1,1-1.1c0.6,0,1,0.4,1,0.9c0.1,1.7,0.1,3.4,0.2,5.1C883,197.8,882.6,198.2,882,198.2C882,198.2,882,198.2,882,198.2
				L882,198.2z M881.5,188.1c-0.5,0-1-0.4-1-0.9c-0.1-1.7-0.3-3.3-0.5-5c-0.1-0.5,0.3-1,0.9-1.1c0.5-0.1,1,0.3,1.1,0.9
				c0.2,1.7,0.4,3.4,0.5,5.1C882.6,187.6,882.1,188.1,881.5,188.1C881.6,188.1,881.5,188.1,881.5,188.1L881.5,188.1z M880.4,178.1
				c-0.5,0-0.9-0.4-1-0.9c-0.2-1.6-0.5-3.3-0.8-5c-0.1-0.5,0.3-1.1,0.8-1.2c0.5-0.1,1.1,0.3,1.2,0.8c0.3,1.7,0.6,3.4,0.8,5
				c0.1,0.5-0.3,1.1-0.8,1.1C880.5,178.1,880.4,178.1,880.4,178.1L880.4,178.1z M878.6,168.1c-0.5,0-0.9-0.3-1-0.8
				c-0.4-1.6-0.7-3.3-1.1-4.9c-0.1-0.5,0.2-1.1,0.7-1.2c0.5-0.1,1.1,0.2,1.2,0.7c0.4,1.6,0.8,3.3,1.2,5c0.1,0.5-0.2,1.1-0.8,1.2
				c0,0,0,0,0,0C878.7,168.1,878.6,168.1,878.6,168.1L878.6,168.1z M876.1,158.3c-0.4,0-0.8-0.3-1-0.7c-0.5-1.6-0.9-3.2-1.5-4.8
				c-0.1-0.5,0.2-1.1,0.7-1.2c0.5-0.1,1,0.1,1.2,0.6c0.5,1.6,1,3.3,1.5,4.9c0.2,0.5-0.2,1.1-0.7,1.2
				C876.3,158.3,876.2,158.3,876.1,158.3L876.1,158.3z M873,148.7c-0.4,0-0.8-0.3-0.9-0.7c-0.6-1.6-1.2-3.2-1.8-4.7
				c-0.2-0.5,0-1.1,0.6-1.3c0.5-0.2,1.1,0,1.3,0.6c0.6,1.6,1.2,3.2,1.8,4.8c0.2,0.5-0.1,1.1-0.6,1.3
				C873.2,148.6,873.1,148.7,873,148.7L873,148.7z M869.3,139.2c-0.4,0-0.8-0.2-0.9-0.6c-0.7-1.5-1.4-3.1-2.1-4.6
				c-0.2-0.5,0-1.1,0.5-1.3c0.5-0.2,1.1,0,1.3,0.5c0.7,1.5,1.4,3.1,2.1,4.6c0.2,0.5,0,1.1-0.5,1.3
				C869.5,139.2,869.4,139.2,869.3,139.2L869.3,139.2z M864.9,130.1c-0.4,0-0.7-0.2-0.9-0.5c-0.8-1.5-1.6-3-2.4-4.4
				c-0.3-0.5-0.1-1.1,0.4-1.4c0.5-0.3,1.1-0.1,1.4,0.4c0,0,0,0,0,0c0.8,1.5,1.6,3,2.4,4.5c0.3,0.5,0.1,1.1-0.4,1.3
				C865.2,130.1,865.1,130.1,864.9,130.1z M860,121.2c-0.4,0-0.7-0.2-0.9-0.5c-0.2-0.4-0.4-0.7-0.7-1.1c-0.7-1.1-1.3-2.1-2-3.2
				c-0.3-0.5-0.2-1.1,0.3-1.4c0.5-0.3,1.1-0.2,1.4,0.3l0,0c0.7,1.1,1.4,2.1,2,3.2c0.2,0.4,0.5,0.7,0.7,1.1c0.3,0.5,0.1,1.1-0.3,1.4
				C860.4,121.2,860.2,121.3,860,121.2L860,121.2z M854.5,112.7c-0.3,0-0.6-0.2-0.8-0.4c-0.9-1.4-1.9-2.7-2.9-4.1
				c-0.3-0.4-0.3-1.1,0.2-1.4c0.4-0.3,1.1-0.3,1.4,0.2c0,0,0,0,0,0c1,1.4,2,2.8,3,4.1c0.3,0.5,0.2,1.1-0.3,1.4
				C854.9,112.7,854.7,112.7,854.5,112.7z M848.5,104.6c-0.3,0-0.6-0.1-0.8-0.4c-1-1.3-2.1-2.6-3.2-3.9c-0.4-0.4-0.3-1,0.1-1.4
				c0.4-0.4,1-0.3,1.4,0.1c0,0,0,0,0,0c1.1,1.3,2.2,2.6,3.2,3.9c0.3,0.4,0.3,1.1-0.2,1.4C848.9,104.5,848.7,104.6,848.5,104.6z
				 M841.9,96.9c-0.3,0-0.6-0.1-0.7-0.3c-1.1-1.2-2.3-2.5-3.4-3.7c-0.4-0.4-0.4-1,0-1.4c0.4-0.4,1-0.4,1.4,0
				c1.2,1.2,2.3,2.5,3.5,3.7c0.4,0.4,0.3,1-0.1,1.4C842.4,96.8,842.2,96.9,841.9,96.9L841.9,96.9z"/>
			<path id="Path_112" style="fill:#FFFFFF;" d="M724.5,355.2L724.5,355.2c-0.9,0-1.7,0-2.5-0.1c-0.6,0-1-0.5-1-1s0.5-1,1-1
				c0.8,0,1.7,0.1,2.5,0.1c0.6,0,1,0.5,1,1S725.1,355.2,724.5,355.2L724.5,355.2z"/>
		</g>
		<g id="Group_38">
			
				<linearGradient id="Path_113_1_" gradientUnits="userSpaceOnUse" x1="544.3447" y1="463.4218" x2="544.3447" y2="462.4218" gradientTransform="matrix(274.1371 0 0 -274.1374 -148498.3125 127102.625)">
				<stop  offset="0" style="stop-color:#F69D9C"/>
				<stop  offset="1" style="stop-color:#EB342F"/>
			</linearGradient>
			<path id="Path_113" style="fill:url(#Path_113_1_);" d="M705.3,335.5c0.9,0.2,1.8-0.1,2.3-0.9l14.8-21.6
				c12.4,0.5,24.8-1.1,36.6-4.6l19.6,17.3c0.7,0.6,1.7,0.7,2.5,0.3l27.3-15.5c0.8-0.5,1.2-1.4,1.1-2.3l-4.8-25.7
				c9.1-8.4,16.7-18.3,22.7-29.1l26.1-1.7c0.9-0.1,1.7-0.7,1.9-1.6l8.3-30.3c0.2-0.9-0.1-1.8-0.9-2.3l-21.6-14.8
				c0.5-12.4-1.1-24.8-4.6-36.6l17.3-19.6c0.6-0.7,0.7-1.7,0.3-2.5l-15.5-27.3c-0.5-0.8-1.4-1.2-2.3-1.1l-25.7,4.8
				c-8.4-9.1-18.3-16.7-29.1-22.7l-1.7-26.1c-0.1-0.9-0.7-1.7-1.6-1.9l-30.3-8.3c-0.9-0.2-1.8,0.1-2.3,0.9l-14.8,21.6
				c-12.4-0.5-24.8,1.1-36.6,4.6l-19.6-17.3c-0.7-0.6-1.7-0.7-2.5-0.3l-27.3,15.5c-0.8,0.5-1.2,1.4-1,2.3l4.8,25.7
				c-9.1,8.4-16.7,18.3-22.7,29.1l-26.1,1.7c-0.9,0.1-1.7,0.7-1.9,1.6l-8.3,30.3c-0.2,0.9,0.1,1.8,0.9,2.3l21.6,14.8
				c-0.5,12.4,1.1,24.8,4.6,36.6l-17.3,19.6c-0.6,0.7-0.7,1.7-0.3,2.5l15.5,27.3c0.5,0.8,1.4,1.2,2.3,1.1l25.7-4.8
				c8.4,9.1,18.3,16.7,29.1,22.7l1.7,26.1c0.1,0.9,0.7,1.7,1.6,1.9L705.3,335.5z"/>
			<path id="Path_114" style="opacity:0.56;fill:#FFFFFF;enable-background:new    ;" d="M726.8,227.3c-15.9,0-28.8-12.9-28.8-28.9
				s12.9-28.8,28.9-28.8s28.8,12.9,28.8,28.9c0,7.9-3.2,15.4-8.9,20.8C741.4,224.5,734.2,227.3,726.8,227.3z M726.8,171.6
				c-14.8,0-26.8,12-26.8,26.9c0,14.8,12,26.8,26.9,26.8c14.8,0,26.8-12,26.8-26.9c0-6.9-2.7-13.6-7.5-18.6
				C741.1,174.6,734.1,171.6,726.8,171.6L726.8,171.6z"/>
			<path id="Path_115" style="opacity:0.56;fill:#FFFFFF;enable-background:new    ;" d="M749.5,271.1c-0.4,0-0.8-0.3-1-0.7
				c0-0.1,0-0.2,0-0.3c0-0.4,0.3-0.8,0.7-1c11.2-3.5,21.4-9.6,29.9-17.8l0,0l0,0l0,0l0.1-0.1l0.4-0.4l0,0
				c9.2-9.2,15.8-20.6,19.3-33.1c1.8-6.5,2.7-13.2,2.7-20c-0.1-41.3-33.6-74.7-74.9-74.6c-41.3,0.1-74.7,33.6-74.6,74.9
				c0,26.9,14.5,51.7,37.9,64.9c0.3,0.2,0.5,0.5,0.5,0.9c0,0.2,0,0.3-0.1,0.5c-0.3,0.5-0.9,0.7-1.4,0.4
				c-36.9-20.9-49.9-67.7-29-104.6c20.9-36.9,67.7-49.9,104.6-29s49.9,67.7,29,104.6c-6.8,12.1-16.8,22.1-28.9,28.9l0,0
				c-4.2,2.4-8.6,4.4-13.2,5.9c-0.2,0.1-0.4,0.2-0.7,0.2c-0.4,0.1-0.7,0.2-1.1,0.4C749.7,271.1,749.6,271.1,749.5,271.1z"/>
		</g>
	</g>
	<path id="Path_116" style="opacity:0.5;fill:#D6DDF0;enable-background:new    ;" d="M547.5,114.7c-6.5-30.9-22.7-20.3-49.8-29.8
		s-19.2-43.4-36-53.8c-22.4-13.9-43-1-57,17.3c-23.2,30.4-39,5.7-66.8,18c-15.9,7.1-9.1,16.9-30.6,20.9c-15,2.8-31.2-3.8-46,0.2
		c-11,3-18.9,8.2-21.3,18.8c3.1,1.5,6.3,2.8,9.6,4c41.4,14.9,97.9,9.9,139.7,12.1C403.7,123.1,552.1,136.6,547.5,114.7z"/>
	<g id="Group_43" transform="translate(-14.909)">
		<g id="Group_40" style="opacity:0.64;">
			<path id="Path_117" style="fill:#FFFFFF;" d="M898.4,261.4c-0.2,0-0.4-0.1-0.6-0.2c-0.7-0.5-1.3-1.1-2-1.6
				c-0.4-0.3-0.5-1-0.2-1.4c0.3-0.4,1-0.5,1.4-0.2c0,0,0,0,0,0c0.6,0.5,1.3,1,1.9,1.6c0.4,0.3,0.5,1,0.2,1.4
				C899,261.3,898.7,261.4,898.4,261.4L898.4,261.4z"/>
			<path id="Path_118" style="fill:#FFFFFF;" d="M892.7,256.5c-0.3,0-0.5-0.1-0.7-0.3c-1.2-1.2-2.4-2.4-3.6-3.6
				c-0.4-0.4-0.4-1,0-1.4c0.4-0.4,1-0.4,1.4,0c0,0,0,0,0,0c1.1,1.2,2.3,2.4,3.5,3.6c0.4,0.4,0.4,1,0,1.4
				C893.2,256.4,893,256.5,892.7,256.5L892.7,256.5z M885.9,249.1c-0.3,0-0.6-0.1-0.8-0.4c-1.1-1.3-2.1-2.7-3.1-4.1
				c-0.3-0.4-0.2-1.1,0.2-1.4c0.4-0.3,1.1-0.2,1.4,0.2c0,0,0,0,0,0c0.9,1.4,1.9,2.7,3,4c0.3,0.4,0.3,1.1-0.2,1.4
				C886.4,249,886.2,249.1,885.9,249.1z M880.2,240.8c-0.3,0-0.7-0.2-0.9-0.5c-0.9-1.4-1.7-2.9-2.5-4.4c-0.3-0.5-0.1-1.1,0.4-1.3
				c0.5-0.3,1.1-0.1,1.3,0.4c0.8,1.5,1.6,2.9,2.4,4.3c0.3,0.5,0.1,1.1-0.3,1.4C880.5,240.8,880.3,240.8,880.2,240.8L880.2,240.8z
				 M875.5,231.9c-0.4,0-0.8-0.2-0.9-0.6c-0.7-1.5-1.3-3.1-1.9-4.7c-0.2-0.5,0.1-1.1,0.6-1.3c0.5-0.2,1.1,0.1,1.3,0.6
				c0.6,1.5,1.2,3.1,1.9,4.6c0.2,0.5,0,1.1-0.5,1.3C875.8,231.9,875.6,231.9,875.5,231.9L875.5,231.9z M872,222.5
				c-0.4,0-0.8-0.3-1-0.7c-0.5-1.6-0.9-3.3-1.3-4.9c-0.1-0.5,0.2-1.1,0.8-1.2c0.5-0.1,1,0.2,1.2,0.7c0.4,1.6,0.8,3.2,1.3,4.8
				c0.2,0.5-0.1,1.1-0.7,1.2C872.2,222.5,872.1,222.5,872,222.5L872,222.5z M869.8,212.7c-0.5,0-0.9-0.4-1-0.8
				c-0.3-1.7-0.5-3.4-0.6-5.1c0-0.6,0.4-1,0.9-1.1c0.5,0,1,0.4,1.1,0.9c0.2,1.6,0.4,3.3,0.6,4.9c0.1,0.5-0.3,1.1-0.8,1.1
				c0,0,0,0,0,0C869.9,212.7,869.8,212.7,869.8,212.7L869.8,212.7z M868.9,202.7c-0.5,0-1-0.4-1-1c0-0.7,0-1.4,0-2.1c0-1,0-2,0.1-3
				c0-0.6,0.5-1,1-1c0.6,0,1,0.5,1,1c0,1-0.1,1.9-0.1,2.9c0,0.7,0,1.4,0,2.1C869.9,202.2,869.4,202.6,868.9,202.7L868.9,202.7z
				 M869.2,192.6C869.2,192.6,869.2,192.6,869.2,192.6c-0.6-0.1-1-0.5-1-1.1c0,0,0,0,0,0c0.2-1.7,0.4-3.4,0.7-5.1
				c0.1-0.5,0.6-0.9,1.2-0.8c0.5,0.1,0.9,0.6,0.8,1.1c-0.3,1.6-0.5,3.3-0.7,4.9C870.2,192.2,869.7,192.6,869.2,192.6L869.2,192.6z
				 M870.9,182.7c-0.6,0-1-0.4-1-1c0-0.1,0-0.2,0-0.2c0.4-1.6,0.8-3.3,1.3-4.9c0.2-0.5,0.7-0.8,1.3-0.6c0.5,0.2,0.8,0.7,0.7,1.2
				c-0.5,1.6-0.9,3.2-1.3,4.8C871.8,182.4,871.4,182.7,870.9,182.7L870.9,182.7z M873.8,173.1c-0.6,0-1-0.4-1-1c0-0.1,0-0.2,0.1-0.4
				c0.6-1.6,1.3-3.2,1.9-4.7c0.2-0.5,0.8-0.7,1.3-0.5c0.5,0.2,0.7,0.8,0.5,1.3c-0.7,1.5-1.3,3-1.9,4.6
				C874.6,172.8,874.2,173.1,873.8,173.1L873.8,173.1z M878,163.9c-0.6,0-1-0.4-1-1c0-0.2,0-0.3,0.1-0.5c0.8-1.5,1.7-3,2.5-4.4
				c0.3-0.5,0.9-0.6,1.4-0.3c0.5,0.3,0.6,0.9,0.3,1.4c0,0,0,0,0,0c-0.9,1.4-1.7,2.8-2.5,4.3C878.7,163.7,878.3,163.9,878,163.9
				L878,163.9z M883.3,155.3c-0.6,0-1-0.4-1-1c0-0.2,0.1-0.4,0.2-0.6c1-1.4,2-2.7,3.1-4.1c0.3-0.4,1-0.5,1.4-0.2
				c0.4,0.3,0.5,1,0.2,1.4c0,0,0,0,0,0c-1,1.3-2.1,2.6-3,3.9C883.9,155.2,883.6,155.3,883.3,155.3L883.3,155.3z M889.6,147.6
				c-0.6,0-1-0.4-1-1c0-0.3,0.1-0.5,0.3-0.7c1.2-1.2,2.4-2.5,3.6-3.6c0.4-0.4,1-0.4,1.4,0s0.4,1,0,1.4c-1.2,1.1-2.4,2.3-3.5,3.5
				C890.2,147.4,889.9,147.5,889.6,147.6L889.6,147.6z M897,140.7c-0.6,0-1-0.4-1-1c0-0.3,0.1-0.6,0.4-0.8c1.3-1.1,2.7-2.1,4-3.1
				c0.4-0.3,1.1-0.2,1.4,0.2c0.3,0.4,0.2,1.1-0.2,1.4l0,0c-1.3,1-2.7,2-3.9,3C897.4,140.6,897.2,140.7,897,140.7L897,140.7z
				 M905.1,134.8c-0.6,0-1-0.4-1-1c0-0.3,0.2-0.7,0.5-0.8c0.3-0.2,0.6-0.4,0.9-0.6c1.1-0.7,2.3-1.4,3.5-2c0.5-0.3,1.1-0.1,1.4,0.4
				c0.3,0.5,0.1,1.1-0.4,1.3c-1.1,0.6-2.3,1.3-3.4,2c-0.3,0.2-0.6,0.4-0.9,0.5C905.5,134.7,905.3,134.8,905.1,134.8L905.1,134.8z
				 M913.9,130c-0.6,0-1-0.4-1-1c0-0.4,0.2-0.7,0.6-0.9c1.5-0.7,3.1-1.4,4.7-2c0.5-0.2,1.1,0,1.3,0.5c0.2,0.5,0,1.1-0.5,1.3
				c0,0,0,0-0.1,0c-1.5,0.6-3.1,1.2-4.6,1.9C914.2,129.9,914.1,130,913.9,130L913.9,130z M923.3,126.3c-0.6,0-1-0.4-1-1
				c0-0.4,0.3-0.8,0.7-1c1.6-0.5,3.3-1,4.9-1.4c0.5-0.1,1.1,0.2,1.2,0.7c0.1,0.5-0.2,1.1-0.7,1.2c0,0,0,0-0.1,0
				c-1.6,0.4-3.2,0.8-4.8,1.3C923.5,126.3,923.4,126.3,923.3,126.3L923.3,126.3z M933.1,124c-0.6,0-1-0.5-1-1c0-0.5,0.3-0.9,0.8-1
				c1.7-0.3,3.4-0.5,5-0.7c0.5-0.1,1,0.3,1.1,0.9s-0.3,1-0.9,1.1c-1.6,0.2-3.3,0.4-4.9,0.7C933.2,123.9,933.2,124,933.1,124
				L933.1,124z"/>
			<path id="Path_119" style="fill:#FFFFFF;" d="M943.1,122.9c-0.6,0-1-0.4-1-1s0.4-1,1-1c0.8,0,1.7-0.1,2.5-0.1c0.5,0,1,0.4,1,1
				c0,0,0,0,0,0c0,0.6-0.4,1-1,1c0,0,0,0,0,0C944.8,122.8,944,122.8,943.1,122.9L943.1,122.9z"/>
		</g>
		<g id="Group_41" style="opacity:0.64;">
			<path id="Path_120" style="fill:#FFFFFF;" d="M1001.4,145.5c-0.3,0-0.5-0.1-0.7-0.3c-0.6-0.6-1.2-1.2-1.8-1.7
				c-0.4-0.4-0.4-1-0.1-1.4s1-0.4,1.4-0.1c0,0,0,0,0,0c0.6,0.6,1.2,1.2,1.8,1.8c0.4,0.4,0.4,1,0,1.4
				C1001.9,145.4,1001.6,145.5,1001.4,145.5L1001.4,145.5z"/>
			<path id="Path_121" style="fill:#FFFFFF;" d="M951.2,278c-0.6,0-1-0.4-1-1c0-0.6,0.4-1,1-1c1.6-0.1,3.3-0.2,4.9-0.4
				c0.5-0.1,1,0.3,1.1,0.9c0.1,0.5-0.3,1-0.9,1.1C954.6,277.7,952.9,277.9,951.2,278L951.2,278z M961,276.7c-0.6,0-1-0.5-1-1
				c0-0.5,0.3-0.9,0.8-1c1.6-0.3,3.2-0.7,4.8-1.1c0.5-0.1,1.1,0.2,1.2,0.7c0.1,0.5-0.2,1.1-0.7,1.2c0,0,0,0,0,0
				c-1.6,0.4-3.3,0.8-4.9,1.1C961.2,276.7,961.1,276.8,961,276.7L961,276.7z M970.6,274.3c-0.6,0-1-0.4-1-1c0-0.4,0.3-0.8,0.7-0.9
				c1.5-0.5,3.1-1.1,4.6-1.7c0.5-0.2,1.1,0,1.3,0.5c0.2,0.5,0,1.1-0.5,1.3c0,0,0,0-0.1,0c-1.5,0.6-3.1,1.2-4.7,1.7
				C970.8,274.3,970.7,274.3,970.6,274.3L970.6,274.3z M979.8,270.6c-0.6,0-1-0.5-1-1c0-0.4,0.2-0.7,0.6-0.9
				c1.5-0.7,2.9-1.5,4.3-2.2c0.5-0.3,1.1-0.1,1.4,0.3c0.3,0.5,0.1,1.1-0.3,1.4c0,0,0,0,0,0c-1.5,0.8-3,1.6-4.5,2.3
				C980.1,270.6,980,270.6,979.8,270.6z M988.5,265.8c-0.6,0-1-0.4-1-1c0-0.3,0.2-0.7,0.5-0.8c1.4-0.9,2.7-1.8,4-2.8
				c0.4-0.3,1.1-0.3,1.4,0.2c0.3,0.4,0.3,1.1-0.2,1.4c0,0,0,0,0,0c-1.3,1-2.7,1.9-4.1,2.8C988.8,265.7,988.6,265.8,988.5,265.8
				L988.5,265.8z M996.4,259.9c-0.6,0-1-0.4-1-1c0-0.3,0.1-0.6,0.4-0.8c1.2-1,2.5-2.1,3.6-3.3c0.4-0.4,1-0.4,1.4,0
				c0.4,0.4,0.4,1,0,1.4c0,0,0,0,0,0c-1.2,1.1-2.5,2.3-3.7,3.3C996.9,259.8,996.7,259.9,996.4,259.9L996.4,259.9z M1003.6,253.1
				c-0.6,0-1-0.4-1-1c0-0.3,0.1-0.5,0.3-0.7c1.1-1.2,2.2-2.4,3.2-3.7c0.3-0.4,1-0.5,1.4-0.2s0.5,1,0.2,1.4c0,0,0,0,0,0
				c-1,1.3-2.2,2.6-3.3,3.8C1004.1,253,1003.9,253.1,1003.6,253.1z M1009.8,245.4c-0.2,0-0.4-0.1-0.6-0.2c-0.5-0.3-0.6-0.9-0.2-1.4
				c0.9-1.3,1.8-2.7,2.7-4.1c0.3-0.5,0.9-0.7,1.4-0.4s0.7,0.9,0.4,1.4c0,0,0,0,0,0.1c-0.9,1.4-1.8,2.8-2.8,4.2
				C1010.5,245.2,1010.2,245.4,1009.8,245.4L1009.8,245.4z M1015,237c-0.2,0-0.3,0-0.5-0.1c-0.5-0.3-0.7-0.9-0.4-1.4
				c0.8-1.4,1.5-2.9,2.2-4.4c0.2-0.5,0.8-0.7,1.3-0.5s0.7,0.8,0.5,1.3l0,0c-0.7,1.5-1.4,3-2.2,4.5C1015.7,236.8,1015.4,237,1015,237
				L1015,237z M1019.1,228c-0.6,0-1-0.4-1-1c0-0.1,0-0.2,0.1-0.4c0.6-1.5,1.1-3.1,1.6-4.6c0.2-0.5,0.7-0.8,1.2-0.7
				c0.5,0.2,0.8,0.7,0.7,1.2l0,0c-0.5,1.6-1,3.2-1.6,4.7C1019.9,227.7,1019.5,228,1019.1,228L1019.1,228z M1022,218.5
				c-0.1,0-0.2,0-0.2,0c-0.5-0.1-0.9-0.7-0.7-1.2c0.4-1.6,0.7-3.2,1-4.8c0.1-0.5,0.6-0.9,1.1-0.8c0.5,0.1,0.9,0.6,0.8,1.1
				c0,0,0,0,0,0.1c-0.3,1.6-0.6,3.3-1,4.9C1022.9,218.2,1022.5,218.5,1022,218.5L1022,218.5z M1023.7,208.7c0,0-0.1,0-0.1,0
				c-0.5-0.1-0.9-0.6-0.9-1.1c0.2-1.6,0.3-3.3,0.4-4.9c0-0.5,0.5-1,1-1c0.6,0,1,0.5,1,1c-0.1,1.7-0.2,3.3-0.4,5
				C1024.6,208.3,1024.2,208.7,1023.7,208.7L1023.7,208.7z M1024.1,198.8c-0.5,0-1-0.4-1-1c0-1.6-0.1-3.3-0.3-4.9
				c0-0.6,0.4-1,0.9-1.1c0.6,0,1,0.4,1.1,0.9c0.1,1.7,0.2,3.3,0.3,5C1025.1,198.4,1024.7,198.8,1024.1,198.8
				C1024.1,198.8,1024.1,198.8,1024.1,198.8L1024.1,198.8z M1023.3,189c-0.5,0-0.9-0.4-1-0.9c-0.2-1.6-0.5-3.2-0.9-4.8
				c-0.1-0.5,0.2-1.1,0.8-1.2c0.5-0.1,1.1,0.2,1.2,0.8c0.3,1.6,0.7,3.3,0.9,4.9c0.1,0.5-0.3,1.1-0.8,1.1c0,0,0,0,0,0
				C1023.4,189,1023.3,189,1023.3,189L1023.3,189z M1021.2,179.3c-0.4,0-0.8-0.3-1-0.7c-0.4-1.6-0.9-3.1-1.5-4.7
				c-0.2-0.5,0.1-1.1,0.6-1.3c0.5-0.2,1.1,0.1,1.3,0.6c0,0,0,0,0,0.1c0.6,1.6,1.1,3.2,1.5,4.8c0.2,0.5-0.2,1.1-0.7,1.2
				C1021.4,179.3,1021.3,179.3,1021.2,179.3L1021.2,179.3z M1017.9,170c-0.4,0-0.8-0.2-0.9-0.6c-0.6-1.5-1.3-3-2.1-4.4
				c-0.3-0.5-0.1-1.1,0.4-1.4c0.5-0.3,1.1-0.1,1.4,0.4c0,0,0,0.1,0,0.1c0.8,1.5,1.5,3,2.1,4.5c0.2,0.5,0,1.1-0.5,1.3
				C1018.2,169.9,1018,170,1017.9,170L1017.9,170z M1013.4,161.1c-0.4,0-0.7-0.2-0.9-0.5c-0.2-0.4-0.5-0.8-0.7-1.1
				c-0.6-1-1.3-2-1.9-3c-0.3-0.5-0.2-1.1,0.3-1.4c0.5-0.3,1.1-0.2,1.4,0.3c0.7,1,1.3,2,2,3.1c0.2,0.4,0.5,0.8,0.7,1.2
				c0.3,0.5,0.1,1.1-0.4,1.4C1013.8,161.1,1013.6,161.1,1013.4,161.1L1013.4,161.1z M1007.9,152.9c-0.3,0-0.6-0.1-0.8-0.4
				c-1-1.3-2-2.6-3.1-3.8c-0.4-0.4-0.4-1,0-1.4s1-0.4,1.4,0c0,0,0,0,0,0.1c1.1,1.3,2.2,2.6,3.2,3.9c0.3,0.4,0.3,1.1-0.2,1.4
				C1008.3,152.9,1008.1,152.9,1007.9,152.9L1007.9,152.9z"/>
			<path id="Path_122" style="fill:#FFFFFF;" d="M946.2,278.1L946.2,278.1c-0.8,0-1.7,0-2.5-0.1c-0.6,0-1-0.5-1-1s0.5-1,1-1
				c0.8,0,1.6,0,2.5,0.1c0.6,0,1,0.4,1,1S946.8,278.1,946.2,278.1L946.2,278.1z"/>
		</g>
		<g id="Group_42">
			
				<linearGradient id="Path_123_1_" gradientUnits="userSpaceOnUse" x1="543.8804" y1="463.4462" x2="543.8804" y2="462.4462" gradientTransform="matrix(118.8622 0 0 -118.8654 -63700.6758 55227.2383)">
				<stop  offset="0" style="stop-color:#F69D9C"/>
				<stop  offset="1" style="stop-color:#EB342F"/>
			</linearGradient>
			<path id="Path_123" style="fill:url(#Path_123_1_);" d="M936.9,258.3c0.4,0.1,0.8,0,1-0.4l6.4-9.4c5.4,0.2,10.7-0.5,15.9-2
				l8.5,7.5c0.3,0.3,0.7,0.3,1.1,0.1l11.8-6.7c0.3-0.2,0.5-0.6,0.5-1l-2.1-11.1c3.9-3.6,7.3-7.9,9.8-12.6l11.3-0.7
				c0.4,0,0.7-0.3,0.8-0.7l3.6-13.1c0.1-0.4,0-0.8-0.4-1l-9.4-6.4c0.2-5.4-0.5-10.7-2-15.9l7.5-8.5c0.3-0.3,0.3-0.7,0.1-1.1
				l-6.7-11.8c-0.2-0.3-0.6-0.5-1-0.5l-11.1,2.1c-3.6-3.9-7.9-7.3-12.6-9.8l-0.7-11.3c0-0.4-0.3-0.7-0.7-0.8l-13.1-3.6
				c-0.4-0.1-0.8,0-1,0.4l-6.4,9.4c-5.4-0.2-10.7,0.5-15.9,2l-8.5-7.5c-0.3-0.3-0.7-0.3-1.1-0.1l-11.8,6.7c-0.3,0.2-0.5,0.6-0.5,1
				l2.1,11.1c-3.9,3.6-7.3,7.9-9.8,12.6l-11.3,0.7c-0.4,0-0.7,0.3-0.8,0.7l-3.6,13.1c-0.1,0.4,0,0.8,0.4,1l9.4,6.4
				c-0.2,5.4,0.5,10.7,2,15.9l-7.5,8.5c-0.3,0.3-0.3,0.7-0.1,1.1l6.7,11.8c0.2,0.3,0.6,0.5,1,0.5l11.1-2.1c3.6,3.9,7.9,7.3,12.6,9.8
				l0.7,11.3c0,0.4,0.3,0.7,0.7,0.8L936.9,258.3z"/>
			<path id="Path_124" style="opacity:0.56;fill:#FFFFFF;enable-background:new    ;" d="M946.2,212c-0.1,0-0.2,0-0.3,0
				c-7.2-0.1-13-6-12.9-13.2s6-13,13.2-12.9c7.2,0.1,13,6,12.9,13.2C959,206.2,953.3,211.9,946.2,212z M946.2,187.8
				c-6.1,0-11.1,5-11.1,11.1c0,6.1,5,11.1,11.1,11.1c2.9,0,5.6-1.1,7.7-3.1l0,0c4.4-4.2,4.6-11.2,0.3-15.7c-2-2.1-4.8-3.3-7.8-3.4
				L946.2,187.8z"/>
			<path id="Path_125" style="opacity:0.56;fill:#FFFFFF;enable-background:new    ;" d="M956,231c-0.4,0-0.8-0.3-1-0.7
				c0-0.1,0-0.2,0-0.3c0-0.4,0.3-0.8,0.7-1c2.2-0.7,4.2-1.6,6.2-2.7c0.2-0.1,0.4-0.3,0.7-0.4c13.8-8.3,19.2-25.6,12.6-40.4
				c-0.4-0.9-0.9-1.8-1.3-2.7c-8.7-15.3-28.1-20.6-43.4-11.9c-15.3,8.7-20.6,28.1-11.9,43.4c2.8,5,7,9.1,12,12
				c0.3,0.2,0.5,0.5,0.5,0.9c0,0.2,0,0.3-0.1,0.5c-0.3,0.5-0.9,0.7-1.4,0.4c-16.3-9.2-22-29.8-12.8-46.1c9.2-16.3,29.8-22,46.1-12.8
				c16.3,9.2,22,29.8,12.8,46.1c-3,5.3-7.4,9.7-12.7,12.8c-0.3,0.1-0.5,0.3-0.8,0.4c-1.7,0.9-3.5,1.7-5.4,2.3l-0.1,0
				c-0.1,0-0.2,0.1-0.4,0.1C956.2,231,956.1,231,956,231z"/>
		</g>
	</g>
	<path id="Path_126" style="opacity:0.5;fill:#D6DDF0;enable-background:new    ;" d="M884.5-7.3c-5-6.4-13.3-9.2-21.1-7.3
		c-8.5,2.1-13.3,10.3-21.3,13.5c-13.8,5.7-33-5.5-43.5,9.1c-12.8,17.9-22.8,4.5-22.8,16.6s88.7,3.2,132.5,3.8
		c6.3,0.1,33.8-0.4,22-13.5c-3.7-4.1-8.9-4.8-13.8-5.7c-6.4-1.2-21.5-1.9-26.1-6.9c-2.5-2.7-3.4-6.5-5.7-9.4
		C884.7-7.1,884.6-7.2,884.5-7.3z"/>
	<g id="Group_3706-2" transform="translate(-110.621 192)">
		
			<linearGradient id="Path_78_1_" gradientUnits="userSpaceOnUse" x1="638.9438" y1="271.5253" x2="639.3748" y2="270.7283" gradientTransform="matrix(86.7432 0 0 -118.343 -54594.1602 32461.8184)">
			<stop  offset="0" style="stop-color:#14304D"/>
			<stop  offset="1" style="stop-color:#061B32"/>
		</linearGradient>
		<path id="Path_78" style="fill:url(#Path_78_1_);" d="M839,338c0,0-1.2,2.5,6.9,6.4c4.5,2.2,13.3,5.4,14.5,14.8
			c0.5,4.8,4.2,8.7,9,9.5c12,1.8,30.5,8.1,33.5,28.9c2.3,15.9-5.9,21.9-14.4,24c-6.3,1.5-10.3,7.6-9.1,13.9
			c1.2,6.1-0.6,13.1-11.1,18.6c-23.5,12.4-47-29.4-47-29.4l-4.8-72.9L839,338z"/>
		<path id="Path_79" style="fill:#FFFFFF;" d="M885.5,412.2c-0.3,0-0.5-0.1-0.7-0.3c0,0,0-0.1,0-0.2c0,0,0.1,0,0.2,0c0,0,0,0,0,0
			c0.3,0.4,1.1,0.1,1.5-0.1c5.4-3.5,8.3-10.8,7-17.7c-0.6-3.9-2.7-7.5-5.8-10c-2.1-1.5-4.5-2.8-7-3.6c-4-1.5-8.2-2.9-12.4-4l-1-0.3
			c-2.5-0.6-5-1.4-7.3-2.5c-2.7-1.2-4.9-3.4-6.1-6.1c-0.5-1.6-0.8-3.2-0.9-4.8c-0.1-2-0.5-3.9-1.4-5.6c0-0.1,0-0.1,0-0.2
			c0.1,0,0.1,0,0.2,0c0.9,1.8,1.3,3.8,1.4,5.7c0.1,1.6,0.4,3.2,0.9,4.8c1.2,2.7,3.3,4.8,6,6c2.3,1.1,4.8,1.9,7.3,2.5
			c0.3,0.1,0.7,0.2,1,0.3c4.2,1.1,8.4,2.5,12.4,4c2.5,0.8,4.9,2.1,7.1,3.6c3.1,2.6,5.2,6.2,5.9,10.2c1.3,7-1.6,14.4-7.1,18
			C886.3,412.1,885.9,412.2,885.5,412.2z"/>
		<path id="Path_80" style="fill:#FFFFFF;" d="M886.9,405.7c-0.1,0-0.1-0.1-0.1-0.1c0,0,0,0,0-0.1c2-2.8,3.1-6.1,3.2-9.5
			c0-3.4-1.6-6.7-4.3-8.7c-0.1,0-0.1-0.1,0-0.2s0.1-0.1,0.2,0l0,0c2.8,2.1,4.5,5.4,4.4,8.9c-0.1,3.5-1.2,6.8-3.2,9.6
			C887,405.6,886.9,405.7,886.9,405.7z"/>
		
			<linearGradient id="Path_81_1_" gradientUnits="userSpaceOnUse" x1="631.3553" y1="271.1263" x2="635.5154" y2="268.0723" gradientTransform="matrix(11.1024 0 0 -34.154 -6235.5381 9563.3545)">
			<stop  offset="0" style="stop-color:#F8B776"/>
			<stop  offset="1" style="stop-color:#F47960"/>
		</linearGradient>
		<path id="Path_81" style="fill:url(#Path_81_1_);" d="M776.9,322.1l-0.2-5l5.2-10.4c1-1.9,1-4.1,0-6l-5.9-12c0,0-3.4,26-4.3,28.1
			s2.4,6,2.4,6L776.9,322.1z"/>
		
			<linearGradient id="Path_82_1_" gradientUnits="userSpaceOnUse" x1="637.793" y1="271.6688" x2="638.8049" y2="270.2308" gradientTransform="matrix(45.6281 0 0 -72.522 -28326.418 20004.9277)">
			<stop  offset="0" style="stop-color:#F8B776"/>
			<stop  offset="1" style="stop-color:#F47960"/>
		</linearGradient>
		<path id="Path_82" style="fill:url(#Path_82_1_);" d="M776.7,317.1c0,0,15.9,43.4,43,56.9c0,0-9,14.7-13.7,15.6
			c0,0-29-37.1-31.9-67.4L776.7,317.1z"/>
		
			<linearGradient id="Path_83_1_" gradientUnits="userSpaceOnUse" x1="633.0052" y1="271.1648" x2="634.0052" y2="271.1648" gradientTransform="matrix(14.1049 0 0 -19.6058 -8042.7466 5901.6157)">
			<stop  offset="0" style="stop-color:#2A3781"/>
			<stop  offset="1" style="stop-color:#171042"/>
		</linearGradient>
		<path id="Path_83" style="fill:url(#Path_83_1_);" d="M885.7,577.9l0.8,6.6c0.8,3.1,4.9,11,10,10.5c3.2-0.3,3.6-9.6,3.1-11
			c-0.8-2.5-2.3-6.3-4.4-8.6h-7.3c-1.2,0-2.2,1-2.2,2.3C885.7,577.8,885.7,577.8,885.7,577.9z"/>
		
			<linearGradient id="Path_84_1_" gradientUnits="userSpaceOnUse" x1="635.0931" y1="269.8615" x2="636.1281" y2="272.6505" gradientTransform="matrix(19.5576 0 0 -84.8 -11594.6309 23521.0098)">
			<stop  offset="0" style="stop-color:#F8B776"/>
			<stop  offset="1" style="stop-color:#F47960"/>
		</linearGradient>
		<path id="Path_84" style="fill:url(#Path_84_1_);" d="M828.6,500.9l-1.2,7.2c0,0,4.1,41.8,4.9,58.5c0.1,2.6-0.6,5.2-1.9,7.4
			l-7.2,11.6l18.2-10.8l0.4-2.2l-3-4.1l3.9-46.8c0.2-2.7-0.3-5.5-1.6-7.9l-3.8-7.1L828.6,500.9z"/>
		
			<linearGradient id="Path_85_1_" gradientUnits="userSpaceOnUse" x1="636.3032" y1="271.1999" x2="637.3032" y2="271.1999" gradientTransform="matrix(22.7305 0 0 -17.288 -13627.7285 5267.2354)">
			<stop  offset="0" style="stop-color:#2A3781"/>
			<stop  offset="1" style="stop-color:#171042"/>
		</linearGradient>
		<path id="Path_85" style="fill:url(#Path_85_1_);" d="M821.9,587.4h5.8c1.1,0,2.1-0.5,2.8-1.4c1.8-2.4,5.6-7,7.4-7.1
			c2.4-0.2,2.1,8.4,2.1,8.4h1.4l1.7-10.7c0.4-2.7-0.9-5.3-3.3-6.6l0,0c0,0-0.6,4.1-3.5,5.9s-12.2,8.3-12.2,8.3
			c-0.8-0.1-1.6-0.1-2.4,0.1c-0.8,0.2-1.4,1-1.2,1.8C820.6,586.9,821.2,587.4,821.9,587.4z"/>
		
			<linearGradient id="Path_86_1_" gradientUnits="userSpaceOnUse" x1="637.9894" y1="269.7677" x2="638.4524" y2="272.6587" gradientTransform="matrix(43.6711 0 0 -81.8337 -26994.7285 22716.3848)">
			<stop  offset="0" style="stop-color:#F8B776"/>
			<stop  offset="1" style="stop-color:#F47960"/>
		</linearGradient>
		<path id="Path_86" style="fill:url(#Path_86_1_);" d="M853.5,504.3c0,0,24.2,45.8,28,56.3c2.4,6.5,4.2,13.2,5.2,20
			c0.1,1.3,1.7,2.5,6.1,2.5c2.3,0,3.4-0.9,4-1.8c0.5-0.8,0.5-1.7,0.1-2.5c-1.4-2.8-5.8-11.9-7.5-16c-2-4.9-6.2-27.1-8.5-34.8
			s-4.9-16.1-15-23.8C866,504.3,859.1,497.6,853.5,504.3z"/>
		
			<linearGradient id="Path_87_1_" gradientUnits="userSpaceOnUse" x1="638.9733" y1="272.1676" x2="637.7333" y2="270.7296" gradientTransform="matrix(39.1027 0 0 -58.9763 -24120.5449 16385.5)">
			<stop  offset="0" style="stop-color:#F69D9C"/>
			<stop  offset="1" style="stop-color:#EB342F"/>
		</linearGradient>
		<path id="Path_87" style="fill:url(#Path_87_1_);" d="M838.3,429.3c-3.5-15,0-26.3,3.8-33.2c3-5.5,0.9-12.3-4.5-15.2
			c-0.1,0-0.1-0.1-0.2-0.1c-5.6-2.9-11.5-5.1-17.6-6.7c0,0-17.3,12.7-15.3,22.6c1.2,5.8,12.2,34.8,12.2,34.8
			S826.8,436.2,838.3,429.3z"/>
		
			<linearGradient id="Path_88_1_" gradientUnits="userSpaceOnUse" x1="638.5151" y1="271.8894" x2="638.5151" y2="270.4674" gradientTransform="matrix(51.3545 0 0 -79.7582 -31949.5547 22081.0293)">
			<stop  offset="0" style="stop-color:#F69D9C"/>
			<stop  offset="1" style="stop-color:#EB342F"/>
		</linearGradient>
		<path id="Path_88" style="fill:url(#Path_88_1_);" d="M852.1,442.3c-2.5-7.6-13.8-13.1-13.8-13.1c-11.5,6.9-21.6,2.1-21.6,2.1
			s-2.3,8.7-0.7,16.8s11.4,60,11.4,60c15.5,3.1,39.4-3.2,39.4-3.2C856.9,487.4,854.6,450,852.1,442.3z"/>
		
			<linearGradient id="Path_89_1_" gradientUnits="userSpaceOnUse" x1="633.5759" y1="269.7397" x2="633.8309" y2="270.7897" gradientTransform="matrix(14.9346 0 0 -26.5039 -8638.1699 7552.7812)">
			<stop  offset="0" style="stop-color:#F8B776"/>
			<stop  offset="1" style="stop-color:#F47960"/>
		</linearGradient>
		<path id="Path_89" style="fill:url(#Path_89_1_);" d="M831.1,356.6l5.1,22.8c0.5,2-1.3,1.7-3.4,1.3c-3.3-0.6-7.6-1.9-9-4.5
			c-0.1-0.3-0.2-0.6-0.3-0.9l-2.2-15.8c-0.2-1.3,0.5-2.5,1.7-3l4.2-1.9c1.4-0.6,3.1,0,3.7,1.4C831,356.3,831,356.4,831.1,356.6z"/>
		<g id="Group_29">
			
				<linearGradient id="Path_90_1_" gradientUnits="userSpaceOnUse" x1="635.6811" y1="270.2804" x2="637.1421" y2="272.6414" gradientTransform="matrix(22.6993 0 0 -25.001 -13615.0342 7125.04)">
				<stop  offset="0" style="stop-color:#F8B776"/>
				<stop  offset="1" style="stop-color:#F47960"/>
			</linearGradient>
			<path id="Path_90" style="fill:url(#Path_90_1_);" d="M825.1,334.9c0,0-6,2.5-10.1,11.2s-1,12.7,2.8,13.2s9.5,0.5,15.6-5.1
				S832.9,331.9,825.1,334.9z"/>
			
				<linearGradient id="Path_91_1_" gradientUnits="userSpaceOnUse" x1="636.1415" y1="271.4698" x2="637.7235" y2="268.4579" gradientTransform="matrix(23.6489 0 0 -31.3152 -14217.0674 8831.0088)">
				<stop  offset="0" style="stop-color:#14304D"/>
				<stop  offset="1" style="stop-color:#061B32"/>
			</linearGradient>
			<path id="Path_91" style="fill:url(#Path_91_1_);" d="M829.4,349.6c0,0,4.5-12.7-6.7-12.8l-2.6,1.8c0,0-4.1-7,2.6-10.4
				s14.7-0.6,17.6,8.5s3.4,15.2-1.4,19.6s-6.8-0.6-6.8-0.6s2.6-4.1,1.5-6.3s-3.5,0.5-3.5,0.5L829.4,349.6z"/>
			
				<linearGradient id="Path_92_1_" gradientUnits="userSpaceOnUse" x1="622.8428" y1="268.8055" x2="628.1588" y2="276.4135" gradientTransform="matrix(6.24 0 0 -7.7593 -3065.011 2457.4724)">
				<stop  offset="0" style="stop-color:#F8B776"/>
				<stop  offset="1" style="stop-color:#F47960"/>
			</linearGradient>
			<path id="Path_92" style="fill:url(#Path_92_1_);" d="M830.6,351c0,0,2.3-6.5,5.3-3.9s-2.5,6-4.6,7.1L830.6,351z"/>
		</g>
		
			<linearGradient id="Path_93_1_" gradientUnits="userSpaceOnUse" x1="639.1823" y1="271.5418" x2="639.1362" y2="270.0368" gradientTransform="matrix(78.1453 0 0 -58.4761 -49145.0898 16217.2715)">
			<stop  offset="0" style="stop-color:#F8B776"/>
			<stop  offset="1" style="stop-color:#F47960"/>
		</linearGradient>
		<path id="Path_93" style="fill:url(#Path_93_1_);" d="M767.7,341.5c0,0,13.3,46.3,67.1,42c3.4-0.3,6.4,2.3,6.7,5.7c0,0,0,0,0,0
			l0.1,1.9c0.4,4.6-3,8.6-7.6,8.9c-0.4,0-0.7,0-1.1,0c-17.9-0.9-56.3-7.9-69.4-50.4L767.7,341.5z"/>
		
			<linearGradient id="Path_94_1_" gradientUnits="userSpaceOnUse" x1="627.3602" y1="270.9445" x2="626.9132" y2="268.3185" gradientTransform="matrix(7.4625 0 0 -31.2133 -3917.6677 8794.9053)">
			<stop  offset="0" style="stop-color:#F8B776"/>
			<stop  offset="1" style="stop-color:#F47960"/>
		</linearGradient>
		<path id="Path_94" style="fill:url(#Path_94_1_);" d="M763.6,349.6c-1.4-4-2.4-8.1-3.2-12.3c-0.6-4.7,1.7-15.3,3.8-18.3
			s2.4,4.3,3.3,7.7s-0.6,8.3-0.6,8.3l0.9,6.4L763.6,349.6z"/>
	</g>
</g>
</svg>
