<?xml version="1.0" encoding="utf-8"?>
<!-- Generator: Adobe Illustrator 16.0.0, SVG Export Plug-In . SVG Version: 6.00 Build 0)  -->
<!DOCTYPE svg PUBLIC "-//W3C//DTD SVG 1.1//EN" "http://www.w3.org/Graphics/SVG/1.1/DTD/svg11.dtd">
<svg version="1.1" id="Mission_2_" xmlns="http://www.w3.org/2000/svg" xmlns:xlink="http://www.w3.org/1999/xlink" x="0px" y="0px"
	 width="1200px" height="1200px" viewBox="0 0 1200 1200" enable-background="new 0 0 1200 1200" xml:space="preserve">
<circle id="Background_2" fill="#A3E5D8" cx="600" cy="600" r="487"/>
<g id="Mission_1_">
	<g>
		<path fill-rule="evenodd" clip-rule="evenodd" fill="#3C8F9A" d="M439.087,761.321c113.579,0,206.212-92.634,206.212-206.213
			c0-113.646-92.633-206.279-206.212-206.279c-113.578,0-206.28,92.633-206.28,206.279
			C232.807,668.688,325.509,761.321,439.087,761.321L439.087,761.321z"/>
		<g>
			<path fill-rule="evenodd" clip-rule="evenodd" fill="#FFDB79" d="M439.02,453.624c44.931,0,81.349,36.417,81.349,81.352
				c0,27.632-13.851,52.093-34.931,66.754c-9.325,24.12-26.623,40.339-46.418,40.339c-19.864,0-37.163-16.219-46.486-40.339
				c-21.081-14.661-34.865-39.122-34.865-66.754C357.669,490.041,394.088,453.624,439.02,453.624L439.02,453.624z"/>
			<path fill-rule="evenodd" clip-rule="evenodd" fill="#FAB83E" d="M464.695,553.081v-0.201c0-8.312-6.756-15.069-15.067-15.069
				c-4.122,0-7.905,1.69-10.607,4.459c-2.77-2.769-6.486-4.459-10.677-4.459c-8.31,0-15.067,6.757-15.067,15.069v0.201l-2.838,1.623
				l14.257,28.447v56.012c2.364,1.014,4.864,1.756,7.432,2.229l-0.067-58.24l-15.337-29.325c0-0.34,0-0.609,0-0.946
				c0-6.419,5.203-11.621,11.621-11.621c3.379,0,6.419,1.417,8.514,3.715c-2.229,3.582-4.391,18.107,2.163,3.242
				c6.486,14.865,4.324,0.34,2.094-3.242c2.162-2.298,5.203-3.715,8.513-3.715c6.418,0,11.689,5.202,11.689,11.621
				c0,0.336-0.067,0.606-0.067,0.946l-15.338,29.325l-0.067,58.24c2.568-0.473,5.067-1.215,7.5-2.229V583.15l14.188-28.447
				L464.695,553.081z"/>
			<path fill-rule="evenodd" clip-rule="evenodd" fill="#FFFFFF" d="M436.046,430.922h5.946v-36.958h-5.946V430.922z
				 M331.387,501.056l-2.23,5.473l-26.148-10.607l2.23-5.542L331.387,501.056z M396.79,438.692l-5.472,2.23l-10.811-26.081
				l5.473-2.296L396.79,438.692z M324.225,523.081l-1.082,5.813l-18.175-3.448l1.08-5.81L324.225,523.081z M342.738,480.854
				l-3.244,4.999l-15.471-10.202l3.309-5L342.738,480.854z M375.711,449.302l-4.865,3.31l-10.405-15.338l4.932-3.311
				L375.711,449.302z M418.548,432.679l-5.812,1.148l-3.716-18.107l5.811-1.216L418.548,432.679z M323.211,430.315l-4.121,4.188
				l3.852,3.784l4.188-4.188L323.211,430.315z M357.332,463.759l-4.12,4.258l-26.419-25.945l4.188-4.189L357.332,463.759z
				 M546.585,501.056l2.23,5.473l26.215-10.607l-2.229-5.542L546.585,501.056z M481.181,438.692l5.474,2.23l10.877-26.081
				l-5.54-2.296L481.181,438.692z M553.747,523.081l1.148,5.813l18.107-3.448l-1.082-5.81L553.747,523.081z M535.234,480.854
				l3.312,4.999l15.404-10.202l-3.312-5L535.234,480.854z M502.262,449.302l4.932,3.31l10.337-15.338l-4.932-3.311L502.262,449.302z
				 M459.425,432.679l5.811,1.148l3.717-18.107l-5.812-1.216L459.425,432.679z M554.76,430.315l4.123,4.188l-3.851,3.784
				l-4.123-4.188L554.76,430.315z M436.046,383.153h5.946v5.406h-5.946V383.153z M520.641,463.759l4.121,4.258l26.418-25.945
				l-4.122-4.189L520.641,463.759z"/>
			<g>
				<path fill-rule="evenodd" clip-rule="evenodd" fill="#CCCCCC" d="M410.776,633.148h56.418c5.946,0,10.811,4.865,10.811,10.811
					v57.767c0,5.882-4.865,10.746-10.811,10.746h-56.418c-5.945,0-10.81-4.864-10.81-10.746v-57.767
					C399.967,638.014,404.831,633.148,410.776,633.148L410.776,633.148z"/>
				<path fill-rule="evenodd" clip-rule="evenodd" fill="#808080" d="M401.115,693.755h75.809c0.608,0,1.082,0.472,1.082,1.149
					v5.809c0,0.609-0.473,1.15-1.082,1.15h-75.809c-0.608,0-1.148-0.541-1.148-1.15v-5.809
					C399.967,694.227,400.507,693.755,401.115,693.755L401.115,693.755z"/>
				<path fill-rule="evenodd" clip-rule="evenodd" fill="#808080" d="M401.115,685.174h75.809c0.608,0,1.082-0.473,1.082-1.082
					v-5.877c0-0.607-0.473-1.08-1.082-1.08h-75.809c-0.608,0-1.148,0.473-1.148,1.08v5.877
					C399.967,684.701,400.507,685.174,401.115,685.174L401.115,685.174z"/>
				<path fill-rule="evenodd" clip-rule="evenodd" fill="#808080" d="M401.115,660.444h75.809c0.608,0,1.082,0.54,1.082,1.148v5.813
					c0,0.674-0.473,1.146-1.082,1.146h-75.809c-0.608,0-1.148-0.472-1.148-1.146v-5.813
					C399.967,660.984,400.507,660.444,401.115,660.444L401.115,660.444z"/>
				<path fill-rule="evenodd" clip-rule="evenodd" fill="#808080" d="M401.115,651.932h75.809c0.608,0,1.082-0.543,1.082-1.148
					v-5.811c0-0.675-0.473-1.15-1.082-1.15h-75.809c-0.608,0-1.148,0.476-1.148,1.15v5.811
					C399.967,651.389,400.507,651.932,401.115,651.932L401.115,651.932z"/>
			</g>
		</g>
	</g>
	<g>
		<path fill-rule="evenodd" clip-rule="evenodd" fill="#FFFFFF" d="M940.429,220.251c109.185,63.106,146.618,202.699,83.579,311.953
			c-42.365,73.31-119.321,114.321-198.373,114.186l-83.106,49.662l-8.988-69.39c-7.299-3.246-14.392-6.824-21.484-10.947
			c-109.189-63.039-146.62-202.63-83.515-311.886C691.581,194.644,831.174,157.212,940.429,220.251L940.429,220.251z"/>
		<path fill-rule="evenodd" clip-rule="evenodd" fill="#3C8F9A" d="M953.333,585.985c-16.147,12.23-34.119,22.096-53.445,29.257
			V321.127h53.445V585.985z M846.444,627.338c-6.353,0.54-12.703,0.876-19.189,0.876c-11.688,0-23.108-1.011-34.257-2.836V435.854
			h53.446V627.338z M739.553,608.96c-19.659-9.056-37.631-21.082-53.444-35.475v-68.644h53.444V608.96z"/>
		<path fill-rule="evenodd" clip-rule="evenodd" fill="#EE6249" d="M953.333,251.601c21.352,16.149,39.526,36.352,53.377,59.391
			v215.671c-13.851,23.04-32.025,43.174-53.377,59.322V251.601z M899.888,615.242c-16.891,6.219-34.864,10.404-53.443,12.096
			V378.491h53.443V615.242z M792.998,625.378c-18.783-3.107-36.688-8.648-53.445-16.418V479.097h53.445V625.378z"/>
		<path fill-rule="evenodd" clip-rule="evenodd" fill="#3C8F9A" d="M724.893,451.327c30.405-19.864,73.445-37.499,87.698-113.646
			l-19.523-0.271l40.811-44.661l24.253,54.121l-18.58-5.204C818.877,409.503,764.012,434.099,724.893,451.327L724.893,451.327z"/>
		<path fill-rule="evenodd" clip-rule="evenodd" fill="#3C8F9A" d="M727.864,372.95c0,0.474-0.066,0.947-0.066,1.352
			c0,6.689,1.418,10.067,4.188,10.067c2.906,0,4.391-3.784,4.391-11.418c0-7.567-1.417-11.351-4.119-11.351
			S728.067,365.383,727.864,372.95L727.864,372.95z M753.744,363.357c-0.811,0.27-1.352,1.012-1.692,2.364
			c-0.134,0.811-0.269,1.622-0.269,2.432c0,0.541,0.067,1.149,0.135,1.691c0.202,1.351,0.879,2.093,2.027,2.093h0.134
			c1.017,0,1.759-0.472,2.163-1.486c0.27-0.878,0.473-1.891,0.473-3.041c0-0.27,0-0.608,0-0.878c-0.135-1.553-0.473-2.5-0.945-2.905
			c-0.338-0.27-0.742-0.338-1.217-0.338C754.352,363.288,754.013,363.288,753.744,363.357L753.744,363.357z M772.119,371.599
			c4.394,0,6.556,2.635,6.556,7.77c0,0.202,0,0.406,0,0.608c-0.134,5.607-2.5,8.445-7.028,8.445
			c-0.066,0.067-0.133,0.067-0.133,0.067c-4.327,0-6.488-2.635-6.488-7.973v-0.404C765.163,374.437,767.526,371.599,772.119,371.599
			L772.119,371.599z M771.444,376.127c-0.81,0.202-1.349,1.013-1.688,2.364c-0.135,0.81-0.271,1.554-0.271,2.363
			c0,0.609,0.067,1.15,0.137,1.69c0.202,1.419,0.879,2.094,2.025,2.162h0.135c1.017,0,1.76-0.541,2.164-1.554
			c0.27-0.878,0.473-1.892,0.473-3.04c0-0.27,0-0.542,0-0.879c-0.136-1.554-0.473-2.5-0.945-2.904
			c-0.339-0.202-0.743-0.338-1.218-0.338C772.053,375.991,771.715,376.059,771.444,376.127L771.444,376.127z M769.147,358.896
			l-8.581,29.932l-3.312-0.54l8.583-29.999L769.147,358.896z M754.418,358.896c4.393,0,6.556,2.569,6.556,7.771
			c0,0.202,0,0.405,0,0.608c-0.203,5.607-2.501,8.377-7.028,8.445c-0.067,0-0.135,0-0.135,0c-4.326,0-6.486-2.635-6.486-7.905
			v-0.473C747.459,361.734,749.825,358.896,754.418,358.896L754.418,358.896z M732.459,354.437c6.688,0,10.069,6.148,10.069,18.378
			c0,12.23-3.584,18.379-10.813,18.379c-7.16,0-10.742-6.352-10.742-19.054C720.973,360.383,724.757,354.437,732.459,354.437
			L732.459,354.437z M709.961,369.436c1.755-0.743,2.769-1.958,3.041-3.715c0.135-0.608,0.201-1.215,0.201-1.757
			c0-0.879-0.135-1.554-0.404-2.163c-0.474-0.877-1.285-1.418-2.433-1.486h-0.271c-1.014,0-1.826,0.473-2.434,1.351
			c-0.472,0.676-0.741,1.622-0.741,2.703c0,0.406,0.066,0.878,0.134,1.352C707.26,367.478,708.27,368.693,709.961,369.436
			L709.961,369.436z M710.027,375.855c-1.758,0.946-2.768,2.027-3.106,3.244c-0.135,0.744-0.273,1.418-0.273,2.094
			c0,0.474,0.068,1.014,0.204,1.487c0.203,1.081,0.676,1.891,1.352,2.365c0.472,0.405,1.012,0.54,1.623,0.54
			c0.27,0,0.54,0,0.81-0.067c0.944-0.203,1.623-0.607,2.027-1.216c0.474-0.675,0.675-1.554,0.741-2.703
			c0.068-0.135,0.068-0.27,0.068-0.472c0-0.946-0.203-1.893-0.607-2.771C712.393,377.343,711.445,376.464,710.027,375.855
			L710.027,375.855z M714.825,373.288c2.298,1.014,3.715,2.567,4.323,4.46c0.34,1.351,0.542,2.769,0.542,4.189
			c0,0.675,0,1.284-0.136,1.959c-0.271,2.163-1.083,3.986-2.567,5.54c-1.487,1.554-3.718,2.365-6.825,2.432h-0.404
			c-2.837,0-5.135-0.811-6.825-2.297c-1.824-1.486-2.769-3.716-2.837-6.486c0-0.202,0-0.404,0-0.608
			c0-2.566,0.473-4.594,1.486-6.148c1.014-1.622,2.363-2.635,3.852-3.041c-1.148-0.473-2.298-1.419-3.445-2.771
			c-1.149-1.351-1.757-3.31-1.824-5.877v-0.271c0-2.433,0.539-4.527,1.553-6.419c1.015-1.823,2.703-2.973,5.069-3.445
			c1.147-0.203,2.296-0.338,3.31-0.338c1.08,0,2.094,0.135,3.107,0.338c1.893,0.473,3.377,1.486,4.527,3.108
			c1.08,1.622,1.689,3.716,1.824,6.351v0.744c0,2.229-0.406,3.985-1.149,5.27C717.597,371.396,716.378,372.478,714.825,373.288
			L714.825,373.288z"/>
	</g>
	<path fill="#FFFFFF" d="M504.153,869.696c3.311,0,5.946,2.636,5.946,5.946c0,3.312-2.635,5.946-5.946,5.946h-11.958
		c-3.244,0-5.946-2.635-5.946-5.946c0-3.311,2.702-5.946,5.946-5.946H504.153z M634.018,318.492c3.309,0,6.01,2.635,6.01,5.947
		c0,3.311-2.701,5.945-6.01,5.945h-11.894c-3.311,0-5.945-2.634-5.945-5.945c0-3.312,2.635-5.947,5.945-5.947H634.018z
		 M586.382,318.492c3.242,0,5.944,2.635,5.944,5.947c0,3.311-2.703,5.945-5.944,5.945h-11.96c-3.243,0-5.945-2.634-5.945-5.945
		c0-3.312,2.702-5.947,5.945-5.947H586.382z M538.68,318.492c3.31,0,5.946,2.635,5.946,5.947c0,3.311-2.637,5.945-5.946,5.945
		h-11.892c-3.311,0-5.945-2.634-5.945-5.945c0-3.312,2.634-5.947,5.945-5.947H538.68z M491.046,318.492
		c3.244,0,5.946,2.635,5.946,5.947c0,3.311-2.702,5.945-5.946,5.945h-11.959c-3.244,0-5.946-2.634-5.946-5.945
		c0-3.312,2.703-5.947,5.946-5.947H491.046z M443.344,318.492c3.311,0,5.946,2.635,5.946,5.947c0,3.311-2.636,5.945-5.946,5.945
		h-11.892c-3.311,0-6.014-2.634-6.014-5.945c0-3.312,2.703-5.947,6.014-5.947H443.344z M395.709,318.492
		c3.244,0,5.946,2.635,5.946,5.947c0,3.311-2.702,5.945-5.946,5.945h-11.958c-3.312,0-5.946-2.634-5.946-5.945
		c0-3.312,2.635-5.947,5.946-5.947H395.709z M348.008,318.492c3.311,0,5.945,2.635,5.945,5.947c0,3.311-2.634,5.945-5.945,5.945
		h-11.892c-3.31,0-6.014-2.634-6.014-5.945c0-3.312,2.704-5.947,6.014-5.947H348.008z M184.903,453.354
		c0-7.837,11.892-7.837,11.892,0v11.893c0,7.837-11.892,7.837-11.892,0V453.354z M184.903,500.988c0-3.242,2.704-5.947,5.946-5.947
		c3.311,0,5.946,2.705,5.946,5.947v11.958c0,3.245-2.635,5.947-5.946,5.947c-3.242,0-5.946-2.703-5.946-5.947V500.988z
		 M184.903,548.69c0-3.311,2.704-5.945,5.946-5.945c3.311,0,5.946,2.634,5.946,5.945v11.89c0,3.312-2.635,5.947-5.946,5.947
		c-3.242,0-5.946-2.635-5.946-5.947V548.69z M184.903,596.326c0-3.246,2.704-5.948,5.946-5.948c3.311,0,5.946,2.702,5.946,5.948
		v11.956c0,3.313-2.635,5.947-5.946,5.947c-3.242,0-5.946-2.634-5.946-5.947V596.326z M196.863,644.025
		c-3.311,0-5.946-2.703-5.946-6.012c0-3.244,2.635-5.946,5.946-5.946h11.891c3.311,0,5.945,2.702,5.945,5.946
		c0,3.309-2.634,6.012-5.945,6.012H196.863z M244.497,644.025c-3.244,0-5.946-2.703-5.946-6.012c0-3.244,2.703-5.946,5.946-5.946
		h11.959c3.244,0,5.945,2.702,5.945,5.946c0,3.309-2.702,6.012-5.945,6.012H244.497z M292.198,644.025
		c-3.31,0-5.946-2.703-5.946-6.012c0-3.244,2.636-5.946,5.946-5.946h11.892c3.311,0,6.014,2.702,6.014,5.946
		c0,3.309-2.704,6.012-6.014,6.012H292.198z M339.833,644.025c-3.243,0-5.945-2.703-5.945-6.012c0-3.244,2.702-5.946,5.945-5.946
		h11.149c3.311,0,5.945,2.702,5.945,5.946v0.809c0,3.313-2.634,5.947-5.945,5.947c-1.082,0-2.096-0.271-2.973-0.744H339.833z
		 M345.035,674.567c0-3.313,2.702-5.947,5.946-5.947c3.311,0,5.945,2.635,5.945,5.947v9.118v2.839c0,3.245-2.634,5.947-5.945,5.947
		c-3.245,0-5.946-2.702-5.946-5.947v-2.839V674.567z M345.035,722.269c0-3.312,2.702-5.948,5.946-5.948
		c3.311,0,5.945,2.637,5.945,5.948v11.889c0,3.313-2.634,5.95-5.945,5.95c-3.245,0-5.946-2.637-5.946-5.95V722.269z
		 M350.981,763.956C374.831,763.956,327.13,763.956,350.981,763.956L350.981,763.956z M444.56,881.589
		c-3.31,0-5.945-2.635-5.945-5.946c0-3.311,2.635-5.946,5.945-5.946h11.893c3.31,0,5.944,2.636,5.944,5.946
		c0,3.312-2.634,5.946-5.944,5.946H444.56z"/>
	<g>
		<polygon fill-rule="evenodd" clip-rule="evenodd" fill="#C63D3E" points="189.768,336.396 232.132,352.613 262.132,430.99 
			266.253,421.734 275.239,401.733 295.239,410.652 304.495,414.841 274.495,336.396 232.132,352.613 202.133,430.99 
			198.011,421.734 189.093,401.733 169.025,410.652 159.77,414.841 		"/>
		<polygon fill-rule="evenodd" clip-rule="evenodd" fill="#FFDB79" points="232.132,190.657 258.416,216.399 294.36,213.292 
			297.941,249.913 327.399,270.655 306.657,300.993 315.914,335.789 280.576,345.722 265.239,378.355 231.727,363.22 
			199.025,378.355 183.146,345.248 148.35,335.789 157.472,300.181 136.863,270.655 166.728,249.237 169.972,213.292 
			206.592,216.129 		"/>
		<path fill-rule="evenodd" clip-rule="evenodd" fill="#FFFFFF" d="M232.132,341.938c31.622,0,57.432-25.811,57.432-57.431
			c0-31.622-25.81-57.363-57.432-57.363c-31.621,0-57.364,25.741-57.364,57.363C174.768,316.127,200.511,341.938,232.132,341.938
			L232.132,341.938z"/>
	</g>
	<g>
		<rect x="557.192" y="835.171" fill-rule="evenodd" clip-rule="evenodd" fill="#FAC59D" width="30.945" height="20.27"/>
		<path fill-rule="evenodd" clip-rule="evenodd" fill="#FFFFFF" d="M573.273,855.44L573.273,855.44
			c7.229,0,13.987-8.041,19.797-4.595l-20.405,71.688l-20.269-71.079C558.478,847.671,565.638,855.44,573.273,855.44L573.273,855.44
			z"/>
		<polygon fill-rule="evenodd" clip-rule="evenodd" fill="#505962" points="552.193,850.643 528.411,859.563 520.369,906.25 
			533.004,951.586 572.666,951.586 612.327,951.586 624.962,906.25 616.922,859.563 593.138,850.643 572.666,922.534 		"/>
		<polygon fill-rule="evenodd" clip-rule="evenodd" fill="#F0725B" points="572.666,856.05 566.517,862.265 569.76,869.967 
			567.26,904.629 572.666,922.534 578.071,904.629 575.57,869.967 578.815,862.265 		"/>
		<path fill-rule="evenodd" clip-rule="evenodd" fill="#FAD8BC" d="M572.666,782.536c17.567,0,31.824,14.257,31.824,31.823
			c0,17.567-14.257,31.824-31.824,31.824s-31.823-14.257-31.823-31.824C540.843,796.793,555.099,782.536,572.666,782.536
			L572.666,782.536z"/>
		<path fill-rule="evenodd" clip-rule="evenodd" fill="#525156" d="M572.666,770.443c-8.985,1.688-14.257-0.205-20.135,3.377
			c-8.176,4.932-15.81,18.175-12.701,36.688c0.876,5.205,1.755,10.407,2.634,15.61c1.621-9.054,0.946-18.245,8.242-26.758
			c2.636,2.635-1.284,5.945,1.352,8.579c2.23-6.418,13.244-10.202,20.608-11.213c7.703-0.407,21.216,1.217,26.081,5.539
			c5.607,5.067,2.365,14.189,4.12,23.853c0.88-5.203,1.759-10.405,2.636-15.61c3.11-18.513-4.524-31.756-12.702-36.688
			C586.854,770.238,581.652,772.131,572.666,770.443L572.666,770.443z"/>
		<rect x="795.297" y="802.873" fill-rule="evenodd" clip-rule="evenodd" fill="#E0AC83" width="39.593" height="25.879"/>
		<path fill-rule="evenodd" clip-rule="evenodd" fill="#E6E6E6" d="M815.904,828.752L815.904,828.752
			c9.188,0,17.837-10.27,25.27-5.879l-26.082,91.554l-25.877-90.743C796.985,818.819,806.107,828.752,815.904,828.752
			L815.904,828.752z"/>
		<polygon fill-rule="evenodd" clip-rule="evenodd" fill="#363F48" points="788.945,822.669 758.539,834.022 748.271,893.614 
			764.416,951.586 815.092,951.586 865.769,951.586 881.917,893.614 871.646,834.022 841.241,822.669 815.092,914.427 		"/>
		<polygon fill-rule="evenodd" clip-rule="evenodd" fill="#D65842" points="815.092,829.563 807.188,837.468 811.377,847.332 
			808.201,891.59 815.092,914.427 821.984,891.59 818.811,847.332 822.998,837.468 		"/>
		<path fill-rule="evenodd" clip-rule="evenodd" fill="#E0BFA2" d="M815.092,735.579c22.432,0,40.677,18.241,40.677,40.675
			c0,22.498-18.245,40.673-40.677,40.673c-22.496,0-40.674-18.175-40.674-40.673C774.418,753.82,792.596,735.579,815.092,735.579
			L815.092,735.579z"/>
		<path fill-rule="evenodd" clip-rule="evenodd" fill="#39383C" d="M815.092,720.105c-11.484,2.23-18.176-0.201-25.674,4.323
			c-10.541,6.353-20.271,23.245-16.284,46.893c1.148,6.622,2.23,13.31,3.379,19.933c2.095-11.488,1.216-23.242,10.54-34.122
			c3.379,3.379-1.688,7.565,1.689,10.946c2.905-8.244,16.892-13.039,26.35-14.324c9.863-0.541,27.163,1.488,33.379,7.094
			c7.162,6.418,2.906,18.041,5.204,30.406c1.146-6.623,2.229-13.311,3.376-19.933c3.988-23.647-5.809-40.54-16.281-46.893
			C833.269,719.904,826.58,722.336,815.092,720.105L815.092,720.105z"/>
		<rect x="661.855" y="776.929" fill-rule="evenodd" clip-rule="evenodd" fill="#F9BF92" width="46.483" height="30.404"/>
		<path fill-rule="evenodd" clip-rule="evenodd" fill="#FFFFFF" d="M686.041,807.333L686.041,807.333
			c10.811,0,20.946-12.028,29.662-6.89l-30.606,107.563l-30.405-106.618C663.81,795.713,674.555,807.333,686.041,807.333
			L686.041,807.333z"/>
		<polygon fill-rule="evenodd" clip-rule="evenodd" fill="#3C4650" points="654.354,800.17 618.68,813.55 606.585,883.547 
			625.568,951.586 685.097,951.586 744.553,951.586 763.54,883.547 751.512,813.55 715.771,800.17 685.097,908.006 		"/>
		<polygon fill-rule="evenodd" clip-rule="evenodd" fill="#EE6249" points="685.097,808.281 675.839,817.604 680.703,829.226 
			676.988,881.182 685.097,908.006 693.204,881.182 689.488,829.226 694.284,817.604 		"/>
		<path fill-rule="evenodd" clip-rule="evenodd" fill="#F9D4B4" d="M685.097,697.944c26.349,0,47.701,21.416,47.701,47.769
			c0,26.418-21.353,47.771-47.701,47.771c-26.421,0-47.771-21.353-47.771-47.771C637.326,719.36,658.676,697.944,685.097,697.944
			L685.097,697.944z"/>
		<path fill-rule="evenodd" clip-rule="evenodd" fill="#3F3E43" d="M685.097,679.836c-13.514,2.568-21.354-0.27-30.204,5.068
			c-12.297,7.433-23.715,27.296-19.053,55c1.285,7.836,2.567,15.674,3.92,23.444c2.5-13.515,1.486-27.365,12.431-40.136
			c3.919,3.986-2.027,8.918,1.961,12.906c3.377-9.663,19.864-15.338,30.945-16.826c11.552-0.606,31.823,1.76,39.118,8.313
			c8.448,7.568,3.515,21.216,6.15,35.743c1.35-7.771,2.635-15.608,3.984-23.444c4.664-27.704-6.821-47.567-19.119-55
			C706.378,679.566,698.541,682.404,685.097,679.836L685.097,679.836z"/>
		<path fill-rule="evenodd" clip-rule="evenodd" fill="#E6E6E6" d="M492.126,947.805h418.504c6.894,0,12.567,5.675,12.567,12.566
			l0,0c0,6.96-5.674,12.635-12.567,12.635H492.126c-6.959,0-12.635-5.675-12.635-12.635l0,0
			C479.491,953.479,485.167,947.805,492.126,947.805L492.126,947.805z"/>
	</g>
	<g>
		<path fill-rule="evenodd" clip-rule="evenodd" fill="#FECA7E" d="M303.076,761.321l143.781,35.675l-35.675,143.78l-143.713-35.674
			L303.076,761.321z M320.576,774.429c5.541,1.353,8.987,7.028,7.568,12.566c-1.351,5.607-7.027,8.988-12.634,7.635
			c-5.541-1.418-8.987-7.026-7.569-12.633C309.293,776.456,314.967,773.011,320.576,774.429L320.576,774.429z"/>
		<path fill-rule="evenodd" clip-rule="evenodd" fill="#FFE5AF" d="M290.847,810.713l143.781,35.674l12.23-49.391l-143.781-35.675
			L290.847,810.713z M320.576,774.429c5.541,1.353,8.987,7.028,7.568,12.566c-1.351,5.607-7.027,8.988-12.634,7.635
			c-5.541-1.418-8.987-7.026-7.569-12.633C309.293,776.456,314.967,773.011,320.576,774.429L320.576,774.429z"/>
		<polygon fill-rule="evenodd" clip-rule="evenodd" fill="#3F3F41" points="354.225,848.753 409.561,862.467 408.141,868.346 
			352.805,854.63 		"/>
		<polygon fill-rule="evenodd" clip-rule="evenodd" fill="#3F3F41" points="307.874,852.602 390.034,873.008 388.616,878.819 
			306.455,858.482 		"/>
		<polygon fill-rule="evenodd" clip-rule="evenodd" fill="#3F3F41" points="328.616,873.075 391.926,888.815 390.44,894.631 
			327.197,878.954 		"/>
		<polygon fill-rule="evenodd" clip-rule="evenodd" fill="#FFFFFF" points="325.914,789.968 301.793,768.619 277.672,747.266 
			273.686,752.741 269.768,758.28 297.874,774.157 		"/>
		<polygon fill-rule="evenodd" clip-rule="evenodd" fill="#F25E4F" points="216.253,725.105 216.66,724.631 228.484,708.011 
			228.821,707.539 278.618,733.889 269.699,746.456 266.456,751.051 257.47,763.618 		"/>
		<path fill-rule="evenodd" clip-rule="evenodd" fill="#C44D40" d="M206.254,720.309l14.729-20.676
			c1.352-1.822,3.852-2.296,5.677-1.014l4.661,3.311c1.825,1.352,2.229,3.852,0.946,5.678l-14.73,20.741
			c-1.352,1.824-3.852,2.229-5.675,0.945l-4.663-3.311C205.376,724.698,204.97,722.133,206.254,720.309L206.254,720.309z"/>
		<path fill-rule="evenodd" clip-rule="evenodd" fill="#DA5547" d="M291.185,728.484c-13.378-8.717-31.418-5.406-40.743,7.703
			c-9.392,13.104-6.622,31.214,6.014,41.011L291.185,728.484z"/>
		<path fill-rule="evenodd" clip-rule="evenodd" fill="#F36E61" d="M255.24,767.198l26.081-36.62c0.879-1.149,2.5-1.486,3.716-0.606
			l0,0c1.149,0.876,1.419,2.499,0.608,3.715l-26.08,36.621c-0.878,1.147-2.5,1.418-3.716,0.608l0,0
			C254.699,770.037,254.361,768.415,255.24,767.198L255.24,767.198z"/>
	</g>
</g>
</svg>
