<?xml version="1.0" encoding="utf-8"?>
<!-- Generator: Adobe Illustrator 16.0.0, SVG Export Plug-In . SVG Version: 6.00 Build 0)  -->
<!DOCTYPE svg PUBLIC "-//W3C//DTD SVG 1.0//EN" "http://www.w3.org/TR/2001/REC-SVG-20010904/DTD/svg10.dtd">
<svg version="1.0" id="Layer_1" xmlns="http://www.w3.org/2000/svg" xmlns:xlink="http://www.w3.org/1999/xlink" x="0px" y="0px"
	 width="762px" height="145px" viewBox="0 0 762 145" enable-background="new 0 0 762 145" xml:space="preserve">
<g>
	<path fill="#007DC4" d="M208.063,45.333l6.576,11.097c1.917,3.425,3.699,6.85,5.48,10h0.273c1.781-3.562,3.425-6.986,5.206-10.274
		l5.891-10.822h22.604l-22.056,31.919l22.33,35.07h-23.563l-6.712-12.055c-1.918-3.288-3.563-6.713-5.206-10.138h-0.411
		c-1.644,3.562-3.425,6.85-5.068,10.138l-6.302,12.055h-22.878l22.741-34.111l-22.193-32.878H208.063z"/>
	<path fill="#007DC4" d="M276.29,85.473c0.685,8.63,9.179,12.74,18.905,12.74c7.124,0,12.877-0.959,18.494-2.74l2.739,14.11
		c-6.85,2.739-15.206,4.11-24.247,4.11c-22.741,0-35.756-13.152-35.756-34.111c0-16.988,10.549-35.756,33.838-35.756
		c21.645,0,29.864,16.85,29.864,33.426c0,3.563-0.411,6.713-0.685,8.221H276.29z M300.812,71.225
		c0-5.068-2.191-13.563-11.781-13.563c-8.768,0-12.329,7.945-12.877,13.563H300.812z"/>
	<path fill="#007DC4" d="M332.597,15.058h20.823v97.265h-20.823V15.058z"/>
	<path fill="#3F3F69" d="M366.255,78.479v-1.225c2.018-0.295,3.699-0.852,5.044-1.668c1.158-0.703,1.98-1.629,2.466-2.779
		c0.485-1.148,0.729-2.761,0.729-4.837l-0.056-5.615l-0.167-9.006c0-5.781,0.393-9.877,1.177-12.286
		c0.71-2.149,1.783-3.854,3.222-5.114s3.256-2.076,5.454-2.446c1.744-0.334,3.396-0.5,4.954-0.5l2.282-0.057l0.835-0.055v1.559
		c-1.596,0.111-2.811,0.315-3.646,0.611c-0.834,0.297-1.661,0.797-2.477,1.502c-1.002,0.852-1.754,1.816-2.254,2.892
		c-0.502,1.075-0.827,2.446-0.975,4.114c-0.111,1.188-0.167,3.689-0.167,7.508l0.056,10.289c0,4.301-0.178,7.248-0.532,8.842
		c-0.354,1.595-1.149,3.06-2.381,4.394c-1.456,1.558-3.437,2.56-5.938,3.003v0.468c2.166,0.298,3.996,1.188,5.49,2.673
		c1.157,1.113,1.988,2.459,2.492,4.037c0.505,1.578,0.757,3.592,0.757,6.042l0.056,5.791v11.751c0,4.119,0.176,7.053,0.528,8.798
		c0.353,1.743,1.066,3.211,2.144,4.399c0.815,0.927,1.837,1.65,3.062,2.172c1.225,0.519,2.485,0.779,3.785,0.779v1.502l-1.225-0.055
		c-4.008,0-7.165-0.428-9.471-1.281c-2.503-0.965-4.353-2.682-5.547-5.148c-1.195-2.469-1.793-5.799-1.793-9.992l0.056-6.012
		l0.167-9.24l0.167-6.568c0-2.968-0.626-5.157-1.878-6.568C371.42,79.741,369.28,78.851,366.255,78.479z"/>
	<path fill="#3F3F69" d="M411.567,83.986v28.336h-6.754v-72.82h18.789c3.825,0,7.211,0.475,10.156,1.422
		c2.945,0.949,5.434,2.32,7.465,4.113c2.031,1.795,3.571,3.996,4.621,6.602c1.049,2.607,1.574,5.586,1.574,8.938
		c0,3.387-0.593,6.51-1.777,9.369c-1.186,2.861-2.887,5.332-5.104,7.414c-2.218,2.082-4.918,3.707-8.1,4.875
		c-3.183,1.168-6.788,1.752-10.816,1.752H411.567z M411.567,45.697v32.094h9.648c6.263,0,11.02-1.455,14.27-4.367
		c3.25-2.91,4.875-7.023,4.875-12.34c0-10.258-5.992-15.387-17.977-15.387H411.567z"/>
	<path fill="#3F3F69" d="M460.368,87.49c0.033,3.184,0.457,6.043,1.27,8.582s1.98,4.689,3.504,6.449
		c1.523,1.762,3.377,3.107,5.561,4.037c2.184,0.932,4.646,1.396,7.389,1.396c5.856,0,11.392-2.047,16.605-6.145v6.398
		c-4.977,3.555-11.003,5.332-18.078,5.332c-3.487,0-6.652-0.609-9.496-1.828s-5.265-2.986-7.262-5.307
		c-1.998-2.318-3.538-5.17-4.621-8.557c-1.084-3.385-1.625-7.244-1.625-11.578c0-3.893,0.592-7.498,1.777-10.816
		c1.185-3.316,2.826-6.186,4.926-8.607c2.099-2.42,4.587-4.316,7.465-5.688c2.877-1.371,6.025-2.057,9.445-2.057
		c3.352,0,6.313,0.584,8.887,1.752c2.572,1.168,4.73,2.836,6.475,5.002c1.743,2.168,3.072,4.809,3.986,7.922
		c0.914,3.115,1.371,6.602,1.371,10.461v3.25H460.368z M491.243,81.803c-0.102-5.416-1.389-9.613-3.859-12.594
		c-2.472-2.979-5.908-4.469-10.309-4.469c-2.201,0-4.24,0.391-6.119,1.168c-1.879,0.779-3.529,1.904-4.951,3.377
		s-2.599,3.268-3.529,5.383c-0.932,2.117-1.583,4.494-1.955,7.135H491.243z"/>
	<path fill="#3F3F69" d="M536.489,66.975c-1.523-1.117-3.487-1.676-5.891-1.676c-1.727,0-3.25,0.33-4.57,0.99
		s-2.48,1.549-3.479,2.666c-0.999,1.117-1.846,2.412-2.539,3.885c-0.694,1.473-1.253,3.006-1.676,4.596
		c-0.424,1.592-0.729,3.199-0.914,4.824c-0.187,1.625-0.279,3.166-0.279,4.621v25.441h-6.449v-52h6.449v11.121h0.203
		c0.609-1.895,1.379-3.596,2.311-5.104c0.931-1.506,2.006-2.775,3.225-3.809c1.219-1.031,2.547-1.818,3.986-2.361
		c1.438-0.541,2.953-0.813,4.545-0.813c1.049,0,1.988,0.068,2.818,0.203c0.829,0.137,1.582,0.34,2.26,0.609V66.975z"/>
	<path fill="#3F3F69" d="M572.138,41.482c-1.456-0.947-3.335-1.422-5.637-1.422c-6.094,0-9.141,3.979-9.141,11.934v8.328h12.949
		v5.688H557.36v46.313h-6.5V66.01h-9.09v-5.688h9.09v-8.734c0-2.605,0.33-4.967,0.99-7.084c0.66-2.115,1.633-3.926,2.92-5.434
		c1.286-1.506,2.902-2.666,4.85-3.479c1.946-0.813,4.189-1.219,6.729-1.219c2.438,0,4.367,0.322,5.789,0.965V41.482z"/>
	<path fill="#3F3F69" d="M581.634,87.49c0.033,3.184,0.457,6.043,1.27,8.582s1.98,4.689,3.504,6.449
		c1.523,1.762,3.377,3.107,5.561,4.037c2.184,0.932,4.646,1.396,7.389,1.396c5.856,0,11.392-2.047,16.605-6.145v6.398
		c-4.977,3.555-11.003,5.332-18.078,5.332c-3.487,0-6.652-0.609-9.496-1.828s-5.265-2.986-7.262-5.307
		c-1.998-2.318-3.538-5.17-4.621-8.557c-1.084-3.385-1.625-7.244-1.625-11.578c0-3.893,0.592-7.498,1.777-10.816
		c1.185-3.316,2.826-6.186,4.926-8.607c2.099-2.42,4.587-4.316,7.465-5.688c2.877-1.371,6.025-2.057,9.445-2.057
		c3.352,0,6.313,0.584,8.887,1.752c2.572,1.168,4.73,2.836,6.475,5.002c1.743,2.168,3.072,4.809,3.986,7.922
		c0.914,3.115,1.371,6.602,1.371,10.461v3.25H581.634z M612.509,81.803c-0.102-5.416-1.389-9.613-3.859-12.594
		c-2.472-2.979-5.908-4.469-10.309-4.469c-2.201,0-4.24,0.391-6.119,1.168c-1.879,0.779-3.529,1.904-4.951,3.377
		s-2.599,3.268-3.529,5.383c-0.932,2.117-1.583,4.494-1.955,7.135H612.509z"/>
	<path fill="#3F3F69" d="M666.54,109.986c-3.859,2.336-8.531,3.537-14.016,3.605c-3.725,0.033-7.076-0.609-10.055-1.93
		c-2.979-1.32-5.519-3.156-7.617-5.51c-2.1-2.352-3.707-5.129-4.824-8.328s-1.676-6.678-1.676-10.436
		c0-3.893,0.592-7.557,1.777-10.994c1.185-3.436,2.911-6.432,5.18-8.988c2.268-2.555,5.044-4.578,8.328-6.068
		c3.283-1.488,7.041-2.234,11.273-2.234c4.299,0,8.227,0.83,11.781,2.488v6.906c-3.792-2.504-7.889-3.758-12.289-3.758
		c-3.081,0-5.823,0.584-8.227,1.752c-2.404,1.168-4.427,2.76-6.068,4.773c-1.643,2.016-2.895,4.367-3.758,7.059
		s-1.295,5.545-1.295,8.557c0,2.777,0.363,5.434,1.092,7.973c0.728,2.539,1.845,4.783,3.352,6.729
		c1.506,1.947,3.41,3.496,5.713,4.646c2.302,1.152,5.01,1.727,8.125,1.727c4.875,0,9.275-1.455,13.203-4.367V109.986z"/>
	<path fill="#3F3F69" d="M701.376,111.713c-2.234,1.117-4.672,1.676-7.313,1.676c-8.396,0-12.594-4.84-12.594-14.523V66.01h-9.141
		v-5.688h9.141V47.221l6.5-2.133v15.234h13.406v5.688H687.97v31.84c0,3.521,0.575,6.061,1.727,7.617
		c1.15,1.559,3.098,2.336,5.84,2.336c2.031,0,3.978-0.609,5.84-1.828V111.713z"/>
	<path fill="#3F3F69" d="M732.88,78.479c-2.989,0.372-5.119,1.263-6.39,2.672c-1.27,1.411-1.904,3.582-1.904,6.514l0.167,6.623
		l0.167,9.24l0.056,6.123c0,4.156-0.598,7.459-1.793,9.908c-1.194,2.449-3.043,4.156-5.544,5.121
		c-2.315,0.854-5.47,1.281-9.466,1.281l-1.288,0.055v-1.502c1.343,0,2.621-0.261,3.835-0.779c1.213-0.521,2.23-1.245,3.052-2.172
		c1.344-1.486,2.165-3.75,2.464-6.794c0.148-1.151,0.224-4.585,0.224-10.302v-7.853l0.056-5.791c0-2.45,0.251-4.464,0.756-6.042
		s1.335-2.924,2.493-4.037c1.531-1.484,3.361-2.375,5.49-2.673v-0.468c-2.502-0.443-4.481-1.445-5.938-3.003
		c-1.232-1.334-2.026-2.799-2.381-4.394c-0.354-1.594-0.532-4.578-0.532-8.953l0.056-8.398v-2.391c0-3.41-0.057-5.709-0.168-6.896
		c-0.149-1.668-0.477-3.039-0.98-4.114s-1.26-2.04-2.267-2.892c-0.821-0.705-1.652-1.205-2.492-1.502
		c-0.84-0.296-2.063-0.5-3.667-0.611v-1.559l0.84,0.055l2.297,0.057c1.567,0,3.229,0.166,4.985,0.5
		c2.202,0.37,4.022,1.186,5.46,2.446s2.512,2.965,3.222,5.114c0.783,2.409,1.176,6.469,1.176,12.176l-0.167,9.116l-0.056,5.671
		c0,2.076,0.242,3.68,0.728,4.81c0.485,1.131,1.309,2.048,2.467,2.751c1.345,0.816,3.026,1.373,5.044,1.668V78.479z"/>
</g>
<g>
	<rect x="128.292" y="17.163" fill="#3F3F69" width="7.992" height="7.992"/>
	<g>
		<g>
			<path fill="#3F3F69" d="M161.962,46.643c-15.573-15.572-40.819-15.576-56.393-0.004c-15.573,15.574-15.573,40.824,0,56.396
				c4.426,4.426,9.65,7.553,15.198,9.463c-1.638-19.451-16.113-27.184-16.113-27.184l26.999-46.008l0.018,0.006V77.6
				c-1.96,0.811-3.334,2.729-3.334,4.977c0,2.967,2.407,5.375,5.383,5.377c0.014,0.002,0.028-0.008,0.053-0.008
				c2.943-0.029,5.319-2.42,5.318-5.371c0.001-2.197-1.322-4.086-3.215-4.922l-0.002-38.342h0.018l26.993,46
				c0,0-14.477,7.729-16.106,27.188c5.544-1.912,10.763-5.033,15.183-9.459C177.535,87.465,177.542,62.217,161.962,46.643z"/>
			<path fill="#65AFDB" d="M162.884,85.311l-26.993-46h-0.018l0.002,38.342c1.893,0.836,3.216,2.725,3.215,4.922
				c0.001,2.951-2.375,5.342-5.318,5.371l-0.005,26.773c4.406,0,8.799-0.773,13.011-2.221
				C148.407,93.039,162.884,85.311,162.884,85.311z"/>
			<path fill="#FFFFFF" d="M133.767,114.719l0.005-26.773c-0.024,0-0.039,0.01-0.053,0.008c-2.976-0.002-5.383-2.41-5.383-5.377
				c0-2.248,1.375-4.166,3.334-4.977V39.313l-0.018-0.006l-26.999,46.008c0,0,14.475,7.732,16.113,27.184
				C124.974,113.945,129.368,114.719,133.767,114.719z"/>
		</g>
	</g>
	<polyline fill="#65AFDB" points="133.798,107.461 133.799,145 140.885,111.266 	"/>
</g>
<g>
	<path fill="#007DC4" d="M18.429,21.222c6.439-1.097,15.48-1.918,28.221-1.918c12.877,0,22.056,2.466,28.221,7.397
		c5.891,4.658,9.863,12.33,9.863,21.371S81.72,64.785,76.24,69.991c-7.124,6.713-17.672,9.727-30.001,9.727
		c-2.74,0-5.206-0.137-7.124-0.411v33.016H18.429V21.222z M39.115,63.142c1.781,0.411,3.973,0.548,6.987,0.548
		c11.096,0,17.946-5.617,17.946-15.069c0-8.493-5.891-13.562-16.302-13.562c-4.247,0-7.124,0.41-8.631,0.821V63.142z"/>
</g>
</svg>
