<?xml version="1.0" encoding="utf-8"?>
<!-- Generator: Adobe Illustrator 16.0.0, SVG Export Plug-In . SVG Version: 6.00 Build 0)  -->
<!DOCTYPE svg PUBLIC "-//W3C//DTD SVG 1.1//EN" "http://www.w3.org/Graphics/SVG/1.1/DTD/svg11.dtd">
<svg version="1.1" id="Layer_1" xmlns="http://www.w3.org/2000/svg" xmlns:xlink="http://www.w3.org/1999/xlink" x="0px" y="0px"
	 width="84.375px" height="83.875px" viewBox="0 0 84.375 83.875" enable-background="new 0 0 84.375 83.875" xml:space="preserve">
<circle fill-rule="evenodd" clip-rule="evenodd" fill="#F2F2F2" cx="41.461" cy="41.146" r="39.773"/>
<g>
	<polygon fill="#75C79F" stroke="#75C79F" stroke-miterlimit="10" points="22.609,28.241 31.179,36.076 23.1,49.297 6.206,39.014 
		20.162,27.017 	"/>
	<polygon fill="#12A7A6" points="53.947,34.606 62.516,49.541 76.716,43.42 66.923,22.61 	"/>
	<path fill="#FFFFFF" d="M31.179,36.076l3.183,0.979l3.672-1.714c0,0,0-2.938,1.47-2.204c1.468,0.734,2.938,1.469,2.938,1.469
		s3.917,0.245,4.651,0.49c0.734,0.245,1.715,0.49,0.979,1.714c-0.734,1.224,0.49,1.469,2.203,0.734
		c1.715-0.734,2.938-1.469,2.938-1.469l7.59,11.506l-4.897,1.959c0,0,0.49,3.917,0,5.631c-0.489,1.714-3.182,0.979-3.182,0.979
		s0.979,1.958-0.245,1.958c-1.225,0-2.938-0.489-2.938-0.489l-1.469,0.735l-3.183-1.47l-0.979-1.224l0.245,2.447l-1.714,1.47
		l-2.448-0.245l-2.448,1.224l-2.693-0.734c0,0-2.938,0.245-3.182-0.734c-0.246-0.979-0.735-1.958-0.735-1.958l-2.203-2.938
		l-1.959-1.958l0.734-2.693L23.1,47.093L31.179,36.076z"/>
	<g>
		<g>
			<path fill="#222221" d="M27.384,50.396c0.079-0.006,0.156-0.003,0.233,0.008c0.025,0.001,0.05-0.003,0.072-0.016
				c0.023-0.007,0.043-0.021,0.061-0.039c0.019-0.017,0.031-0.038,0.039-0.061c0.012-0.022,0.017-0.046,0.016-0.071
				c-0.002-0.049-0.018-0.1-0.055-0.133c-0.013-0.01-0.025-0.02-0.038-0.029c-0.029-0.018-0.061-0.026-0.095-0.026
				c-0.077-0.01-0.154-0.015-0.233-0.008c-0.025-0.001-0.05,0.005-0.071,0.017c-0.024,0.008-0.044,0.02-0.061,0.038
				c-0.019,0.017-0.031,0.038-0.039,0.061c-0.012,0.022-0.018,0.047-0.017,0.071c0.002,0.049,0.019,0.1,0.056,0.134
				C27.287,50.373,27.335,50.4,27.384,50.396L27.384,50.396z"/>
		</g>
		<g>
			<path fill="#222221" d="M28.427,50.016c0.371-0.153,0.7-0.382,1.063-0.552c0.189-0.089,0.401-0.143,0.598-0.213
				c0.203-0.072,0.405-0.146,0.606-0.222c0.811-0.305,1.608-0.639,2.404-0.977c0.379-0.16,0.757-0.35,1.15-0.473
				c0.333-0.104,0.697-0.199,1.048-0.143c0.581,0.094,0.941,0.589,0.976,1.141c0.018,0.275-0.028,0.551-0.146,0.802
				c-0.147,0.317-0.396,0.581-0.646,0.823c-0.273,0.269-0.566,0.517-0.825,0.801c-0.254,0.277-0.566,0.497-0.873,0.714
				c-0.307,0.219-0.619,0.437-0.891,0.699c-0.06,0.056-0.11,0.124-0.18,0.167c-0.087,0.054-0.175,0.105-0.264,0.155
				c-0.168,0.095-0.34,0.183-0.516,0.264c-0.692,0.32-1.444,0.527-2.203,0.596c-0.196,0.017-0.394,0.015-0.59,0.026
				c-0.175,0.01-0.342,0.022-0.515-0.014c-0.323-0.067-0.685-0.242-0.87-0.524c-0.088-0.133-0.134-0.271-0.192-0.418
				c-0.076-0.189-0.148-0.381-0.212-0.575c-0.123-0.38-0.214-0.771-0.236-1.17c-0.004-0.081-0.018-0.18,0.002-0.251
				c0.021-0.073,0.06-0.144,0.081-0.22c0.067-0.233-0.295-0.332-0.361-0.1c-0.023,0.078-0.063,0.151-0.084,0.23
				c-0.027,0.1-0.019,0.205-0.014,0.307c0.01,0.219,0.038,0.438,0.08,0.652c0.082,0.421,0.223,0.828,0.382,1.226
				c0.065,0.164,0.122,0.335,0.216,0.484c0.109,0.175,0.254,0.314,0.426,0.427c0.331,0.217,0.717,0.344,1.114,0.334
				c0.829-0.021,1.646-0.121,2.434-0.392c0.391-0.134,0.771-0.301,1.135-0.497c0.176-0.095,0.388-0.188,0.524-0.334
				c0.134-0.142,0.28-0.27,0.433-0.39c0.313-0.247,0.648-0.462,0.962-0.706c0.323-0.253,0.59-0.559,0.89-0.838
				c0.533-0.498,1.133-1.015,1.277-1.768c0.115-0.604-0.029-1.293-0.525-1.693c-0.301-0.242-0.672-0.36-1.058-0.348
				c-0.401,0.012-0.811,0.125-1.179,0.281c-0.828,0.351-1.654,0.707-2.489,1.041c-0.421,0.167-0.844,0.33-1.271,0.482
				c-0.215,0.076-0.436,0.143-0.649,0.225c-0.199,0.076-0.387,0.188-0.572,0.293c-0.176,0.102-0.354,0.205-0.541,0.281
				c-0.094,0.039-0.16,0.125-0.131,0.231C28.219,49.973,28.332,50.054,28.427,50.016L28.427,50.016z"/>
		</g>
		<g>
			<path fill="#222221" d="M28.905,53.853c0.023,0.36,0.025,0.724,0.093,1.08c0.068,0.363,0.229,0.694,0.47,0.974
				c0.237,0.272,0.545,0.478,0.892,0.579c0.319,0.094,0.659,0.102,0.989,0.084c0.362-0.02,0.722-0.063,1.083-0.076
				c0.427-0.017,0.854-0.015,1.278-0.07c0.425-0.056,0.822-0.171,1.205-0.365c0.351-0.179,0.674-0.405,0.985-0.645
				c0.313-0.241,0.617-0.494,0.938-0.727c0.289-0.21,0.552-0.436,0.773-0.718c0.235-0.299,0.434-0.625,0.656-0.935
				c0.241-0.336,0.489-0.67,0.676-1.04c0.143-0.283,0.286-0.571,0.392-0.871c0.102-0.286,0.168-0.61,0.083-0.909
				c-0.15-0.526-0.702-0.734-1.193-0.803c-0.526-0.073-1.074-0.032-1.586,0.112c-0.454,0.129-0.938,0.359-1.193,0.777
				c-0.057,0.092-0.099,0.195-0.125,0.301c-0.058,0.234,0.305,0.335,0.362,0.1c0.005-0.023,0.012-0.046,0.019-0.069
				c0.003-0.008,0.023-0.062,0.017-0.044c-0.008,0.016,0.018-0.039,0.023-0.051c0.013-0.022,0.026-0.045,0.041-0.068
				c0.012-0.018,0.023-0.035,0.037-0.053c-0.022,0.029,0.014-0.016,0.021-0.025c0.033-0.039,0.068-0.074,0.106-0.108
				c0.049-0.044,0.053-0.048,0.091-0.075c0.048-0.033,0.096-0.064,0.146-0.094c0.044-0.025,0.089-0.049,0.134-0.071
				c0.055-0.026,0.095-0.044,0.134-0.06c0.455-0.182,0.915-0.246,1.398-0.23c0.06,0.002,0.12,0.007,0.18,0.012
				c0.067,0.006,0.101,0.01,0.143,0.016c0.103,0.016,0.203,0.037,0.302,0.066c0.049,0.014,0.097,0.029,0.144,0.047
				c0.01,0.004,0.021,0.008,0.03,0.012c-0.007-0.002-0.033-0.015-0.001,0c0.024,0.011,0.047,0.021,0.07,0.033
				c0.089,0.047,0.172,0.104,0.237,0.182c0.158,0.189,0.146,0.443,0.088,0.678c-0.068,0.274-0.19,0.529-0.313,0.783
				c-0.157,0.326-0.335,0.631-0.544,0.928c-0.218,0.311-0.435,0.62-0.648,0.933c-0.176,0.256-0.368,0.496-0.603,0.701
				c-0.273,0.238-0.582,0.441-0.866,0.666c-0.567,0.45-1.158,0.93-1.864,1.136c-0.738,0.216-1.527,0.144-2.287,0.207
				c-0.59,0.049-1.25,0.148-1.786-0.169c-0.286-0.169-0.521-0.44-0.652-0.745c-0.121-0.278-0.153-0.585-0.171-0.885
				c-0.01-0.167-0.017-0.333-0.026-0.499C29.266,53.613,28.891,53.611,28.905,53.853L28.905,53.853z"/>
		</g>
		<g>
			<path fill="#222221" d="M30.396,57.063c0.046,0.622,0.172,1.237,0.55,1.749c0.421,0.569,1.021,0.995,1.684,1.238
				c0.725,0.266,1.505,0.169,2.231-0.043c0.352-0.102,0.69-0.239,1.035-0.358c0.355-0.123,0.678-0.275,0.942-0.551
				c0.238-0.248,0.422-0.545,0.669-0.787c0.176-0.173,0.365-0.333,0.545-0.503c0.425-0.404,0.834-0.824,1.217-1.27
				c0.411-0.475,0.797-0.978,1.111-1.521c0.286-0.492,0.518-1.027,0.589-1.596c0.064-0.51-0.013-1.117-0.462-1.434
				c-0.371-0.262-0.881-0.225-1.31-0.194c-0.11,0.008-0.221,0.017-0.331,0.022c-0.239,0.014-0.242,0.39,0,0.376
				c0.217-0.013,0.432-0.034,0.648-0.04c0.219-0.008,0.388-0.004,0.579,0.052c0.021,0.007,0.043,0.014,0.065,0.022
				c0.011,0.004,0.021,0.008,0.032,0.012c-0.031-0.012-0.004-0.001,0.002,0.002c0.043,0.021,0.084,0.045,0.124,0.072
				c0.033,0.022,0-0.005,0.029,0.023c0.017,0.016,0.033,0.031,0.05,0.048c0.009,0.009,0.04,0.047,0.036,0.042
				c0.001,0.001,0.028,0.041,0.038,0.058c0.113,0.189,0.146,0.444,0.142,0.682c-0.008,0.479-0.188,0.968-0.414,1.405
				c-0.266,0.513-0.603,0.988-0.968,1.435c-0.363,0.445-0.757,0.865-1.166,1.269c-0.372,0.367-0.79,0.696-1.114,1.105
				c-0.196,0.247-0.386,0.521-0.658,0.689c-0.284,0.177-0.623,0.259-0.934,0.376c-0.661,0.251-1.388,0.463-2.101,0.38
				c-0.634-0.074-1.26-0.44-1.707-0.883c-0.204-0.201-0.378-0.428-0.506-0.685c-0.119-0.241-0.186-0.506-0.229-0.771
				c-0.022-0.14-0.035-0.281-0.045-0.423c-0.008-0.102-0.082-0.188-0.188-0.188C30.488,56.875,30.39,56.962,30.396,57.063
				L30.396,57.063z"/>
		</g>
		<g>
			<path fill="#222221" d="M34.282,59.924c-0.033,0.302,0.058,0.609,0.292,0.813c0.222,0.191,0.511,0.283,0.797,0.328
				c0.66,0.104,1.385,0.076,2.002-0.189c0.395-0.169,0.743-0.43,1.059-0.718c0.356-0.324,0.693-0.683,1.011-1.044
				c0.327-0.373,0.584-0.794,0.893-1.18c0.152-0.189,0.306-0.377,0.437-0.581c0.121-0.187,0.218-0.388,0.301-0.594
				c0.18-0.451,0.268-0.949,0.06-1.405c-0.177-0.391-0.557-0.775-1.016-0.752c-0.24,0.013-0.242,0.388,0,0.375
				c0.306-0.016,0.549,0.266,0.677,0.533c0.156,0.328,0.078,0.703-0.04,1.034c-0.139,0.391-0.364,0.727-0.622,1.048
				c-0.145,0.181-0.292,0.359-0.422,0.552c-0.121,0.179-0.239,0.356-0.377,0.522c-0.292,0.355-0.617,0.687-0.942,1.012
				c-0.275,0.275-0.57,0.532-0.909,0.726c-0.325,0.186-0.687,0.302-1.061,0.323c-0.242,0.015-0.487,0.018-0.729-0.001
				c-0.254-0.019-0.551-0.068-0.767-0.196c-0.028-0.018-0.057-0.036-0.083-0.058c0.028,0.022-0.001,0-0.007-0.006
				c-0.015-0.014-0.029-0.026-0.043-0.04c-0.007-0.008-0.015-0.016-0.021-0.023c-0.008-0.008-0.015-0.017-0.021-0.025
				c0.013,0.018,0.013,0.017,0-0.001c-0.018-0.024-0.031-0.051-0.047-0.077c-0.005-0.007-0.021-0.041-0.006-0.008
				c-0.006-0.016-0.012-0.032-0.017-0.049c-0.012-0.034-0.02-0.069-0.025-0.104c0.005,0.033,0-0.008-0.001-0.017
				c-0.001-0.023-0.003-0.046-0.003-0.069c0-0.043,0.004-0.085,0.009-0.128c0.011-0.101-0.095-0.188-0.188-0.188
				C34.358,59.736,34.294,59.822,34.282,59.924L34.282,59.924z"/>
		</g>
		<g>
			<path fill="#222221" d="M39.695,37.551c-0.222-0.577-0.663-1.03-0.938-1.579c-0.268-0.534-0.396-1.133-0.388-1.729
				c0.002-0.048,0.005-0.095,0.009-0.142c0.004-0.035-0.002,0.007,0.004-0.026c0.004-0.024,0.008-0.048,0.014-0.072
				c0.009-0.039,0.02-0.079,0.034-0.117c0.003-0.011,0.021-0.054,0.015-0.04c-0.006,0.014,0.016-0.032,0.021-0.043
				c0.018-0.033,0.037-0.063,0.057-0.094c0.023-0.036-0.008,0.007,0.013-0.017c0.013-0.016,0.025-0.031,0.04-0.046
				c0.022-0.024,0.046-0.045,0.07-0.067c0.034-0.031-0.012,0.006,0.015-0.013c0.017-0.012,0.033-0.023,0.051-0.034
				c0.029-0.02,0.062-0.037,0.093-0.053c0.014-0.007,0.028-0.013,0.043-0.02c0.031-0.015,0.004-0.002-0.003,0
				c0.011-0.004,0.02-0.008,0.029-0.012c0.074-0.026,0.149-0.047,0.227-0.062c0.02-0.004,0.039-0.007,0.058-0.01
				c0.033-0.005-0.021,0.001,0.026-0.003c0.043-0.005,0.086-0.009,0.13-0.011c0.084-0.004,0.167-0.003,0.251,0.001
				c0.183,0.01,0.309,0.03,0.498,0.074c0.176,0.041,0.349,0.094,0.516,0.16c0.021,0.008,0.041,0.016,0.061,0.024
				c0.036,0.015,0.005,0.001,0.032,0.013c0.038,0.017,0.076,0.034,0.114,0.052c0.075,0.036,0.149,0.075,0.222,0.117
				c0.065,0.038,0.128,0.078,0.189,0.122c0.015,0.011,0.028,0.021,0.043,0.031c0.026,0.02-0.018-0.016,0.014,0.012
				c0.054,0.045,0.105,0.089,0.157,0.137c0.475,0.437,0.855,0.964,1.341,1.392c0.475,0.42,1.017,0.755,1.489,1.178
				c0.44,0.394,0.826,0.862,1.336,1.171c0.182,0.109,0.379,0.188,0.567,0.287c0.175,0.093,0.331,0.192,0.426,0.353
				c0.053,0.09,0.079,0.188,0.095,0.297c0.016,0.1,0.142,0.155,0.231,0.131c0.107-0.029,0.146-0.13,0.131-0.231
				c-0.036-0.245-0.153-0.472-0.341-0.636c-0.17-0.149-0.37-0.249-0.572-0.345c-0.221-0.105-0.431-0.218-0.621-0.372
				c-0.246-0.198-0.468-0.423-0.692-0.643c-0.229-0.223-0.467-0.428-0.72-0.622c-0.259-0.199-0.523-0.389-0.778-0.593
				c-0.264-0.211-0.512-0.439-0.742-0.687c-0.229-0.246-0.444-0.504-0.679-0.745c-0.295-0.302-0.61-0.548-0.997-0.719
				c-0.361-0.161-0.741-0.27-1.135-0.316c-0.359-0.043-0.736-0.025-1.071,0.121c-0.319,0.139-0.553,0.413-0.637,0.751
				c-0.063,0.243-0.053,0.5-0.033,0.747c0.027,0.325,0.086,0.647,0.186,0.957c0.101,0.307,0.236,0.603,0.404,0.878
				c0.167,0.273,0.363,0.527,0.531,0.8c0.077,0.125,0.151,0.255,0.204,0.392c0.037,0.095,0.127,0.161,0.231,0.132
				C39.654,37.757,39.731,37.646,39.695,37.551L39.695,37.551z"/>
		</g>
		<g>
			<path fill="#222221" d="M45.84,38.019c0.764,0.041,1.528-0.012,2.282-0.145c0.653-0.114,1.291-0.278,1.905-0.533
				c1.16-0.481,2.188-1.208,3.125-2.037c0.945-0.833,1.8-1.76,2.677-2.663c0.556-0.572,1.092-1.163,1.644-1.739
				c0.553-0.577,1.107-1.153,1.658-1.732c0.276-0.291,0.55-0.583,0.822-0.876c0.275-0.296,0.518-0.623,0.771-0.938
				c0.051-0.064,0.093-0.108,0.161-0.154c0.087-0.059,0.149-0.118,0.213-0.203c0.103-0.139,0.21-0.275,0.322-0.407
				c0.224-0.265,0.463-0.515,0.711-0.756c0.122-0.118,0.246-0.234,0.371-0.349c0.178-0.164-0.088-0.429-0.266-0.265
				c-0.515,0.474-1.001,0.972-1.422,1.533c-0.046,0.062-0.08,0.097-0.144,0.14c-0.073,0.05-0.135,0.099-0.189,0.167
				c-0.129,0.161-0.258,0.321-0.386,0.481c-0.129,0.161-0.255,0.322-0.395,0.473c-0.135,0.145-0.27,0.29-0.405,0.434
				c-1.085,1.155-2.196,2.286-3.278,3.443c-0.883,0.944-1.772,1.89-2.718,2.772c-0.889,0.829-1.852,1.589-2.95,2.123
				c-1.223,0.595-2.611,0.867-3.968,0.869c-0.181,0.001-0.361-0.004-0.542-0.014C45.599,37.63,45.6,38.006,45.84,38.019
				L45.84,38.019z"/>
		</g>
		<g>
			<path fill="#222221" d="M33.54,36.983c0.295-0.017,0.59-0.044,0.881-0.1c0.144-0.027,0.286-0.063,0.427-0.106
				c0.067-0.021,0.137-0.042,0.201-0.071c0.077-0.035,0.15-0.084,0.226-0.123c0.528-0.273,1.105-0.434,1.662-0.636
				c0.327-0.119,0.653-0.243,0.978-0.37c0.094-0.037,0.159-0.126,0.131-0.231c-0.024-0.09-0.136-0.168-0.231-0.131
				c-0.556,0.218-1.116,0.425-1.682,0.619c-0.287,0.098-0.568,0.201-0.844,0.327c-0.132,0.06-0.255,0.135-0.384,0.199
				c-0.122,0.061-0.27,0.091-0.401,0.123c-0.316,0.076-0.639,0.107-0.963,0.126C33.3,36.622,33.299,36.997,33.54,36.983
				L33.54,36.983z"/>
		</g>
		<g>
			<path fill="#222221" d="M41.616,34.231c0.242,0,0.242-0.375,0-0.375C41.375,33.856,41.375,34.231,41.616,34.231L41.616,34.231z"
				/>
		</g>
		<g>
			<path fill="#222221" d="M42.029,34.783c0.363-0.022,0.724-0.082,1.089-0.083c0.375-0.001,0.734,0.114,1.101,0.187
				c0.395,0.078,0.783,0.118,1.184,0.099c0.359-0.017,0.73-0.063,1.088,0.004c0.257,0.048,0.505,0.159,0.746,0.258
				c0.196,0.081,0.433,0.194,0.623,0.327c0.077,0.054,0.161,0.126,0.234,0.208c0.033,0.038,0.046,0.053,0.079,0.105
				c0.014,0.022,0.026,0.045,0.039,0.068c0.018,0.036,0.017,0.035,0.024,0.056c0.084,0.231,0.057,0.47-0.102,0.685
				c-0.108,0.146-0.243,0.276-0.371,0.405c-0.104,0.106-0.237,0.155-0.38,0.188c-0.33,0.078-0.669,0.104-0.914,0.369
				c-0.164,0.177,0.101,0.443,0.266,0.265c0.2-0.216,0.518-0.211,0.785-0.28c0.159-0.042,0.31-0.108,0.438-0.212
				c0.131-0.106,0.247-0.242,0.358-0.368c0.226-0.258,0.372-0.552,0.334-0.903c-0.028-0.267-0.152-0.504-0.341-0.694
				c-0.358-0.362-0.862-0.538-1.327-0.718c-0.361-0.14-0.73-0.176-1.115-0.162c-0.398,0.016-0.795,0.057-1.192,0
				c-0.232-0.033-0.462-0.082-0.69-0.133c-0.219-0.049-0.436-0.105-0.659-0.122c-0.434-0.033-0.865,0.05-1.297,0.076
				C41.789,34.421,41.788,34.797,42.029,34.783L42.029,34.783z"/>
		</g>
		<g>
			<path fill="#222221" d="M33.255,37.359c0.743,0.105,1.495,0.12,2.235,0.243c0.393,0.065,0.783,0.134,1.179,0.18
				c0.394,0.046,0.789,0.076,1.184,0.097c0.761,0.04,1.522,0.042,2.283,0.047c0.385,0.002,0.769,0.005,1.152,0.014
				c0.358,0.008,0.715,0.031,1.073,0.054c0.179,0.011,0.357,0.014,0.538,0.032c0.173,0.017,0.347,0.039,0.52,0.063
				c0.376,0.054,0.75,0.124,1.122,0.204c0.612,0.133,1.21,0.288,1.78,0.553c1.054,0.491,1.957,1.234,2.761,2.064
				c0.815,0.843,1.535,1.771,2.275,2.679c0.09,0.111,0.181,0.221,0.271,0.331c0.065,0.078,0.199,0.067,0.266,0
				c0.077-0.077,0.065-0.187,0-0.265c-0.751-0.908-1.467-1.846-2.268-2.713c-0.796-0.864-1.688-1.663-2.728-2.224
				c-0.534-0.289-1.105-0.514-1.695-0.66c-0.718-0.178-1.451-0.314-2.188-0.395c-0.361-0.04-0.726-0.052-1.089-0.076
				c-0.371-0.025-0.745-0.025-1.118-0.03c-0.766-0.009-1.532-0.004-2.298-0.026c-0.781-0.022-1.563-0.071-2.337-0.189
				c-0.39-0.059-0.775-0.136-1.168-0.181c-0.377-0.042-0.755-0.068-1.133-0.104c-0.173-0.017-0.347-0.035-0.519-0.059
				c-0.1-0.015-0.201,0.024-0.23,0.131C33.1,37.216,33.154,37.345,33.255,37.359L33.255,37.359z"/>
		</g>
		<g>
			<path fill="#222221" d="M51.828,44.043c-0.071-0.043-0.104-0.088-0.104-0.169c-0.095,0.054-0.188,0.108-0.283,0.162
				c0.313,0.214,0.541,0.542,0.751,0.852c0.224,0.329,0.438,0.662,0.673,0.984c0.285,0.394,0.527,0.817,0.766,1.241
				c0.232,0.413,0.473,0.82,0.724,1.223c0.252,0.403,0.498,0.82,0.656,1.271c0.164,0.472,0.229,0.974,0.353,1.457
				c0.063,0.246,0.148,0.483,0.222,0.726c0.073,0.24,0.136,0.483,0.193,0.728c0.117,0.499,0.211,1.004,0.317,1.504
				c0.088,0.41,0.206,0.814,0.28,1.227c0.055,0.295,0.076,0.614-0.076,0.86c-0.17,0.279-0.547,0.416-0.86,0.489
				c-0.343,0.079-0.722,0.07-1.038-0.099c-0.154-0.083-0.301-0.2-0.402-0.346c-0.104-0.149-0.168-0.32-0.219-0.493
				c-0.112-0.385-0.166-0.779-0.311-1.154c-0.338-0.883-0.898-1.653-1.342-2.483c-0.481-0.898-0.903-1.826-1.397-2.717
				c-0.485-0.874-1.071-1.678-1.668-2.479c-0.146-0.195-0.29-0.392-0.435-0.588c-0.06-0.082-0.163-0.123-0.257-0.068
				c-0.088,0.052-0.117,0.168-0.067,0.257c0.438,0.766,0.989,1.458,1.498,2.174c0.254,0.356,0.499,0.721,0.712,1.104
				c0.231,0.416,0.416,0.856,0.604,1.292c0.392,0.908,0.761,1.825,1.172,2.725c0.183,0.398,0.383,0.788,0.558,1.189
				c0.164,0.379,0.313,0.784,0.347,1.198c0.03,0.36-0.047,0.687-0.188,1.017c-0.028,0.066-0.059,0.132-0.094,0.195
				c-0.016,0.029-0.032,0.058-0.051,0.085c-0.031,0.047,0.038-0.033-0.017,0.021c-0.019,0.018-0.035,0.037-0.056,0.053
				c-0.128,0.096-0.308,0.113-0.46,0.136c-0.428,0.063-0.832,0.22-1.267,0.231c-0.198,0.005-0.403-0.005-0.59-0.078
				c-0.13-0.052-0.231-0.137-0.331-0.242c-0.269-0.284-0.512-0.604-0.731-0.928c-0.255-0.376-0.48-0.772-0.703-1.169
				c-0.438-0.781-0.902-1.548-1.352-2.322c-0.447-0.771-0.911-1.537-1.483-2.224c-0.282-0.339-0.582-0.661-0.854-1.011
				c-0.271-0.348-0.536-0.703-0.83-1.033c-0.145-0.16-0.295-0.314-0.455-0.46c-0.149-0.136-0.422,0.044-0.295,0.228
				c0.256,0.367,0.569,0.683,0.892,0.991c0.332,0.315,0.65,0.639,0.954,0.981c0.629,0.711,1.219,1.459,1.79,2.217
				c0.565,0.749,1.104,1.522,1.575,2.335c0.432,0.745,0.907,1.574,0.95,2.455c0.018,0.345-0.03,0.755-0.266,1.013
				c-0.193,0.212-0.467,0.308-0.757,0.352c-0.292,0.043-0.639,0.023-0.929-0.02c-0.384-0.058-0.763-0.158-1.108-0.34
				c-0.33-0.176-0.644-0.417-0.896-0.694c-0.123-0.136-0.193-0.295-0.262-0.462c-0.088-0.213-0.185-0.423-0.291-0.628
				c-0.213-0.411-0.444-0.817-0.681-1.216c-0.24-0.401-0.517-0.778-0.797-1.152c-0.588-0.784-1.142-1.588-1.677-2.411
				c-0.252-0.386-0.504-0.773-0.758-1.158c-0.242-0.37-0.493-0.734-0.78-1.07c-0.133-0.157-0.275-0.306-0.428-0.444
				c-0.076,0.099-0.152,0.196-0.229,0.295c0.289,0.209,0.491,0.568,0.672,0.876c0.099,0.169,0.193,0.341,0.295,0.507
				c0.117,0.191,0.243,0.377,0.358,0.569c0.257,0.432,0.482,0.881,0.695,1.336c0.216,0.463,0.434,0.927,0.633,1.396
				c0.195,0.46,0.354,0.937,0.544,1.399c0.097,0.237,0.2,0.471,0.32,0.697c0.108,0.206,0.224,0.408,0.325,0.616
				c0.102,0.207,0.179,0.42,0.238,0.644c0.051,0.189,0.13,0.37,0.19,0.558c0.027,0.082,0.055,0.167,0.068,0.253
				c0.011,0.07,0.008,0.112-0.021,0.188c-0.041,0.108-0.167,0.237-0.282,0.329c-0.324,0.256-0.674,0.389-1.061,0.492
				c-0.525,0.14-1.068,0.166-1.607,0.195c-0.241,0.013-0.242,0.389,0,0.376c0.91-0.05,1.859-0.115,2.657-0.604
				c0.313-0.191,0.65-0.467,0.69-0.854c0.02-0.197-0.054-0.401-0.119-0.582c-0.072-0.205-0.136-0.407-0.199-0.614
				c-0.147-0.476-0.415-0.894-0.634-1.337c-0.232-0.47-0.4-0.967-0.588-1.454c-0.191-0.498-0.417-0.981-0.639-1.468
				c-0.217-0.478-0.439-0.953-0.691-1.412c-0.248-0.451-0.537-0.878-0.794-1.325c-0.232-0.401-0.479-0.828-0.861-1.105
				c-0.173-0.124-0.385,0.154-0.228,0.295c0.657,0.592,1.109,1.377,1.589,2.109c0.555,0.848,1.101,1.702,1.707,2.515
				c0.286,0.383,0.58,0.761,0.846,1.158c0.267,0.399,0.497,0.824,0.73,1.243c0.114,0.204,0.224,0.409,0.323,0.621
				c0.096,0.203,0.163,0.422,0.274,0.618c0.19,0.337,0.532,0.606,0.845,0.826c0.636,0.446,1.443,0.642,2.215,0.637
				c0.341-0.003,0.689-0.055,0.996-0.209c0.313-0.155,0.538-0.43,0.647-0.76c0.291-0.878-0.071-1.838-0.464-2.623
				c-0.431-0.86-0.949-1.674-1.507-2.456c-0.564-0.792-1.163-1.56-1.781-2.309c-0.314-0.383-0.638-0.758-0.979-1.117
				c-0.31-0.328-0.652-0.621-0.963-0.949c-0.151-0.158-0.296-0.326-0.422-0.508c-0.099,0.076-0.196,0.151-0.295,0.228
				c0.68,0.614,1.166,1.398,1.768,2.083c0.298,0.34,0.588,0.677,0.848,1.048c0.261,0.374,0.501,0.762,0.733,1.154
				c0.232,0.392,0.456,0.788,0.687,1.181c0.232,0.396,0.475,0.787,0.7,1.188c0.229,0.406,0.453,0.816,0.702,1.211
				c0.24,0.382,0.515,0.734,0.8,1.084c0.22,0.269,0.463,0.497,0.812,0.579c0.47,0.111,0.976,0.03,1.433-0.097
				c0.189-0.053,0.378-0.081,0.572-0.113c0.192-0.032,0.381-0.09,0.532-0.218c0.129-0.109,0.205-0.267,0.271-0.419
				c0.069-0.157,0.134-0.319,0.181-0.485c0.244-0.862-0.156-1.762-0.521-2.527c-0.422-0.883-0.811-1.777-1.191-2.68
				c-0.374-0.89-0.729-1.796-1.251-2.612c-0.487-0.761-1.063-1.46-1.561-2.214c-0.124-0.187-0.242-0.377-0.354-0.571
				c-0.107,0.063-0.216,0.126-0.324,0.189c0.605,0.829,1.244,1.637,1.782,2.514c0.549,0.896,0.989,1.855,1.468,2.79
				c0.225,0.439,0.463,0.869,0.718,1.292c0.249,0.418,0.503,0.834,0.707,1.275c0.094,0.202,0.178,0.41,0.237,0.625
				c0.055,0.194,0.092,0.393,0.14,0.589c0.096,0.405,0.232,0.807,0.551,1.092c0.627,0.56,1.593,0.508,2.289,0.101
				c0.331-0.193,0.537-0.502,0.584-0.883c0.045-0.359-0.044-0.727-0.128-1.073c-0.242-0.993-0.396-2.01-0.684-2.99
				c-0.073-0.248-0.163-0.491-0.229-0.743c-0.067-0.252-0.118-0.508-0.173-0.764c-0.053-0.245-0.107-0.492-0.189-0.73
				c-0.082-0.24-0.188-0.473-0.305-0.696c-0.23-0.442-0.514-0.853-0.765-1.28c-0.251-0.431-0.485-0.871-0.745-1.297
				c-0.234-0.384-0.512-0.738-0.759-1.114c-0.232-0.354-0.459-0.715-0.74-1.034c-0.128-0.146-0.271-0.277-0.433-0.388
				c-0.119-0.082-0.282,0.029-0.282,0.163c-0.001,0.215,0.111,0.383,0.292,0.493C51.846,44.494,52.035,44.169,51.828,44.043
				L51.828,44.043z"/>
		</g>
		<g>
			<path fill="#222221" d="M55.529,50.779c0.747,0.076,1.198-0.621,1.731-1.002c0.75-0.535,1.589-0.932,2.399-1.363
				c0.495-0.262,0.99-0.524,1.489-0.781c0.214-0.111,0.024-0.436-0.19-0.324c-0.841,0.434-1.679,0.874-2.514,1.32
				c-0.392,0.209-0.78,0.428-1.15,0.672c-0.308,0.203-0.568,0.441-0.843,0.686c-0.263,0.232-0.559,0.455-0.923,0.418
				c-0.101-0.01-0.187,0.094-0.187,0.188C55.343,50.701,55.429,50.77,55.529,50.779L55.529,50.779z"/>
		</g>
		<g>
			<path fill="#222221" d="M39.722,58.863c0.03,0.216,0.171,0.394,0.313,0.547c0.066,0.072,0.136,0.141,0.2,0.215
				c0.008,0.009,0.015,0.019,0.022,0.027c0.003,0.003,0.006,0.006,0.008,0.01c0.013,0.015,0.01,0.012-0.008-0.01
				c0.001,0.011,0.031,0.042,0.039,0.052c0.026,0.04,0.049,0.082,0.068,0.127c0.038,0.091,0.179,0.117,0.256,0.067
				c0.095-0.061,0.109-0.159,0.068-0.257c-0.079-0.184-0.229-0.327-0.363-0.47c-0.032-0.033-0.064-0.068-0.095-0.104
				c-0.006-0.007-0.033-0.05-0.041-0.051c0.017,0.022,0.02,0.025,0.008,0.01c-0.003-0.003-0.006-0.006-0.008-0.01
				c-0.006-0.01-0.013-0.02-0.02-0.029c-0.014-0.02-0.024-0.039-0.036-0.06c-0.006-0.011-0.011-0.021-0.016-0.031
				c-0.003-0.005-0.006-0.01-0.008-0.016c-0.006-0.014-0.003-0.007,0.008,0.019c0.003-0.014-0.018-0.052-0.022-0.066
				c-0.005-0.022-0.01-0.047-0.014-0.069c-0.013-0.099-0.143-0.16-0.229-0.132C39.745,58.668,39.707,58.759,39.722,58.863
				L39.722,58.863z"/>
		</g>
		<g>
			<path fill="#222221" d="M35.594,49.855c0.005,0.042,0.011,0.084,0.016,0.125c0.117-0.031,0.233-0.063,0.35-0.094
				c-0.295-0.527-0.648-1.051-1.152-1.398c-0.387-0.27-0.942-0.354-1.393-0.212c-1.076,0.339-0.822,1.902-0.247,2.579
				c0.172,0.203,0.407,0.357,0.667,0.418c0.293,0.069,0.597,0.03,0.88-0.061c0.058-0.019,0.122-0.067,0.132-0.131
				c0.008-0.054,0.016-0.107,0.023-0.16c0.016-0.101-0.024-0.202-0.131-0.231c-0.088-0.024-0.216,0.03-0.23,0.132
				c-0.008,0.053-0.017,0.105-0.024,0.159c0.044-0.043,0.088-0.087,0.132-0.131c-0.193,0.063-0.415,0.104-0.604,0.076
				c-0.187-0.026-0.347-0.105-0.48-0.231c-0.296-0.279-0.433-0.68-0.468-1.078c-0.033-0.378,0.021-0.806,0.386-0.956
				c0.333-0.138,0.782-0.087,1.079,0.091c0.496,0.297,0.831,0.831,1.107,1.323c0.085,0.151,0.376,0.097,0.35-0.095
				c-0.006-0.041-0.012-0.083-0.017-0.125c-0.014-0.1-0.077-0.188-0.188-0.188C35.69,49.668,35.58,49.754,35.594,49.855
				L35.594,49.855z"/>
		</g>
		<g>
			<path fill="#222221" d="M38.719,52.058c-0.29-0.262-0.564-0.539-0.878-0.772c-0.284-0.211-0.634-0.402-0.999-0.332
				c-0.438,0.083-0.666,0.532-0.812,0.909c-0.183,0.474-0.229,1.081,0.128,1.49c0.29,0.331,0.766,0.258,1.155,0.242
				c0.241-0.01,0.241-0.385,0-0.375c-0.166,0.006-0.333,0.022-0.5,0.017c-0.126-0.003-0.228-0.019-0.327-0.087
				c0.027,0.019-0.021-0.02-0.021-0.02c-0.009-0.009-0.019-0.019-0.027-0.027c-0.026-0.028-0.032-0.038-0.055-0.073
				c-0.049-0.083-0.079-0.172-0.1-0.266c-0.051-0.226-0.007-0.46,0.064-0.677c0.063-0.194,0.147-0.401,0.275-0.564
				c0.04-0.051,0.104-0.111,0.14-0.136c0.067-0.046,0.081-0.05,0.161-0.068c0.035-0.009,0.012-0.004,0.003-0.002
				c0.018-0.003,0.036-0.004,0.054-0.004c0.03-0.001,0.061,0,0.091,0.004c-0.03-0.004,0.047,0.01,0.06,0.014
				c0.039,0.009,0.076,0.021,0.112,0.036c0.038,0.014,0.117,0.054,0.172,0.086c0.072,0.042,0.141,0.088,0.208,0.137
				c0.297,0.216,0.557,0.487,0.83,0.733C38.633,52.483,38.898,52.22,38.719,52.058L38.719,52.058z"/>
		</g>
		<g>
			<path fill="#222221" d="M40.266,53.833c-0.116-0.02-0.209-0.085-0.303-0.151c-0.104-0.073-0.205-0.142-0.319-0.198
				c-0.087-0.042-0.158-0.14-0.259-0.183c-0.118-0.05-0.238-0.024-0.35,0.026c-0.196,0.09-0.358,0.261-0.499,0.42
				c-0.105,0.12-0.214,0.246-0.292,0.386c-0.158,0.282-0.24,0.606-0.277,0.926c-0.037,0.312-0.021,0.652,0.126,0.935
				c0.189,0.362,0.576,0.453,0.952,0.373c0.235-0.051,0.136-0.412-0.101-0.362c-0.075,0.017-0.104,0.021-0.193,0.019
				c-0.017,0-0.033-0.001-0.049-0.003c0.046,0.005-0.005-0.001-0.013-0.002c-0.033-0.009-0.066-0.017-0.099-0.03
				c0.045,0.019-0.025-0.015-0.037-0.021c-0.01-0.006-0.019-0.012-0.027-0.02c0.038,0.027,0.003,0.003-0.005-0.004
				c-0.02-0.02-0.038-0.038-0.057-0.059c-0.031-0.036,0.021,0.032-0.004-0.006c-0.011-0.017-0.021-0.032-0.03-0.049
				c-0.015-0.025-0.027-0.051-0.039-0.077c0.018,0.042-0.013-0.04-0.018-0.055c-0.018-0.06-0.031-0.123-0.04-0.186
				c0.007,0.044-0.001-0.011-0.001-0.017c-0.001-0.017-0.003-0.034-0.003-0.051c-0.003-0.034-0.005-0.069-0.005-0.103
				c-0.001-0.071,0.003-0.142,0.009-0.212c0.008-0.086,0.009-0.091,0.025-0.182c0.014-0.075,0.03-0.151,0.051-0.225
				c0.017-0.061,0.035-0.12,0.057-0.179c0.011-0.03,0.022-0.061,0.035-0.091c-0.017,0.04,0.004-0.008,0.006-0.013
				c0.009-0.019,0.018-0.037,0.026-0.055c0.022-0.047,0.048-0.092,0.077-0.135c0.048-0.074,0.047-0.069,0.104-0.139
				c0.113-0.137,0.24-0.284,0.383-0.387c0.018-0.013,0.036-0.025,0.055-0.036c0.007-0.005,0.068-0.037,0.045-0.027
				c0.017-0.007,0.036-0.009,0.052-0.016c-0.022,0.01-0.001,0.007-0.013-0.004c0.068,0.063,0.153,0.132,0.241,0.175
				c0.237,0.112,0.421,0.331,0.688,0.377c0.1,0.017,0.201-0.026,0.23-0.131C40.422,53.975,40.366,53.851,40.266,53.833
				L40.266,53.833z"/>
		</g>
		<g>
			<path fill="#222221" d="M39.379,56.153c0.02,0.271,0.052,0.544,0.169,0.792c0.105,0.222,0.301,0.383,0.537,0.449
				c0.16,0.046,0.332,0.051,0.498,0.04c0.098-0.008,0.191-0.082,0.188-0.188c-0.004-0.096-0.083-0.194-0.188-0.188
				c-0.07,0.005-0.142,0.007-0.212,0.005c-0.028-0.002-0.058-0.006-0.087-0.008c-0.013-0.001,0.037,0.006-0.001-0.001
				c-0.017-0.003-0.032-0.005-0.048-0.009c-0.024-0.006-0.049-0.013-0.072-0.02c-0.014-0.004-0.025-0.009-0.037-0.013
				c-0.04-0.014,0.026,0.014,0,0c-0.022-0.011-0.044-0.021-0.064-0.033c-0.009-0.005-0.018-0.01-0.026-0.016
				c-0.004-0.003-0.008-0.006-0.012-0.009c-0.027-0.017,0.004,0,0.01,0.009c-0.01-0.016-0.034-0.029-0.048-0.042
				c-0.017-0.017-0.03-0.034-0.047-0.051s0.024,0.033,0.011,0.014c-0.002-0.003-0.006-0.008-0.008-0.011
				c-0.006-0.009-0.012-0.017-0.018-0.025c-0.014-0.021-0.026-0.043-0.038-0.066c-0.005-0.01-0.01-0.018-0.015-0.027
				c-0.02-0.045,0.003-0.001,0,0.001c0.002-0.001-0.024-0.065-0.026-0.072c-0.018-0.052-0.031-0.104-0.043-0.157
				c-0.006-0.03-0.012-0.062-0.017-0.092c-0.004-0.017-0.006-0.033-0.008-0.051c-0.008-0.044,0.002,0.024-0.002-0.009
				c-0.009-0.074-0.016-0.148-0.021-0.223c-0.008-0.098-0.081-0.191-0.188-0.187C39.472,55.971,39.372,56.049,39.379,56.153
				L39.379,56.153z"/>
		</g>
		<g>
			<path fill="#222221" d="M33.287,37.417c1.208,0.094,2.418,0.041,3.628,0.031c0.612-0.005,1.224,0.002,1.834,0.046
				c0.6,0.044,1.187,0.143,1.779,0.243c1.152,0.195,2.306,0.388,3.445,0.651c0.582,0.134,1.16,0.287,1.73,0.464
				c0.47,0.146,0.913,0.313,1.334,0.57c0.807,0.495,1.463,1.188,2.104,1.873c0.164,0.175,0.328,0.35,0.493,0.523
				c0.076,0.08,0.152,0.158,0.229,0.237c0.1,0.102,0.176,0.216,0.258,0.333c0.322,0.451,0.665,0.887,1.024,1.309
				c0.374,0.439,0.766,0.862,1.169,1.274c0.19,0.195,0.371,0.372,0.498,0.617c0.111,0.215,0.187,0.446,0.271,0.672
				c0.09,0.24,0.189,0.482,0.34,0.69c0.156,0.218,0.349,0.399,0.538,0.587c0.077,0.077,0.173,0.158,0.234,0.248
				c0.074,0.109,0.135,0.225,0.219,0.328c0.168,0.208,0.308,0.438,0.438,0.672c0.556,0.994,0.753,2.162,0.906,3.278
				c0.079,0.571,0.137,1.145,0.196,1.718c0.032,0.297,0.064,0.594,0.1,0.891c0.017,0.141,0.028,0.283,0.061,0.421
				c0.035,0.147,0.065,0.296,0.086,0.446c0.038,0.284,0.039,0.573,0.005,0.856c-0.013,0.102,0.096,0.188,0.188,0.188
				c0.111,0,0.176-0.086,0.188-0.188c0.037-0.305,0.029-0.608-0.013-0.913c-0.039-0.287-0.109-0.566-0.144-0.854
				c-0.07-0.596-0.128-1.191-0.195-1.788c-0.066-0.583-0.141-1.165-0.247-1.742c-0.106-0.58-0.232-1.174-0.442-1.728
				c-0.097-0.255-0.213-0.501-0.344-0.739c-0.136-0.248-0.279-0.514-0.468-0.725c-0.074-0.086-0.135-0.182-0.19-0.278
				c-0.067-0.114-0.166-0.21-0.258-0.303c-0.183-0.184-0.381-0.354-0.533-0.563c-0.304-0.418-0.385-0.948-0.629-1.397
				c-0.132-0.245-0.315-0.432-0.509-0.628c-0.208-0.213-0.414-0.428-0.615-0.647c-0.386-0.419-0.757-0.851-1.107-1.299
				c-0.173-0.221-0.34-0.447-0.501-0.676c-0.074-0.105-0.142-0.206-0.232-0.298c-0.09-0.091-0.179-0.182-0.266-0.274
				c-0.662-0.694-1.295-1.423-2.053-2.014c-0.381-0.297-0.786-0.559-1.229-0.752c-0.515-0.225-1.066-0.371-1.607-0.517
				c-1.147-0.309-2.317-0.529-3.489-0.732c-0.596-0.103-1.191-0.215-1.79-0.302c-0.618-0.089-1.242-0.132-1.867-0.146
				c-1.223-0.028-2.443,0.044-3.666,0.011c-0.3-0.009-0.601-0.024-0.9-0.047C33.047,37.023,33.048,37.399,33.287,37.417
				L33.287,37.417z"/>
		</g>
		<g>
			<path fill="#222221" d="M27.318,50.275c0.002,0.074,0.002,0.148-0.003,0.223c-0.004,0.066-0.005,0.079-0.022,0.144
				c-0.004,0.018-0.01,0.036-0.017,0.054c-0.009,0.025,0.014-0.027,0.003-0.005c-0.004,0.007-0.007,0.013-0.01,0.02
				c-0.009,0.015-0.019,0.03-0.028,0.045c-0.024,0.041,0.011-0.009-0.016,0.021c-0.144,0.162-0.287,0.331-0.367,0.534
				c-0.093,0.232-0.098,0.504-0.086,0.75c0.012,0.24,0.038,0.49,0.113,0.72c0.148,0.456,0.484,0.779,0.923,0.96
				c0.416,0.17,0.883,0.205,1.328,0.207c0.431,0.002,0.86-0.034,1.29-0.051c0.617-0.025,1.184-0.216,1.701-0.549
				c0.289-0.185,0.563-0.394,0.85-0.581c0.3-0.197,0.603-0.39,0.893-0.601c0.134-0.098,0.265-0.197,0.39-0.303
				c0.032-0.027-0.029,0.021-0.002,0.001c0.012-0.009,0.023-0.017,0.035-0.026c0.028-0.021,0.056-0.04,0.084-0.06
				c0.146-0.103,0.295-0.201,0.442-0.302c0.372-0.253,0.744-0.515,1.079-0.816c0.271-0.245,0.583-0.559,0.623-0.941
				c0.009-0.075,0.001-0.153-0.021-0.227c-0.068-0.231-0.431-0.134-0.361,0.101c0.004,0.015,0.007,0.031,0.011,0.046
				c-0.009-0.03-0.001-0.023,0,0.005c0,0.015-0.001,0.029-0.001,0.043c0,0.01-0.002,0.018-0.002,0.025c0-0.012,0.009-0.035,0-0.012
				c-0.009,0.032-0.017,0.065-0.027,0.098c-0.013,0.041,0.01-0.016-0.005,0.014c-0.009,0.019-0.018,0.037-0.027,0.055
				c-0.087,0.16-0.172,0.252-0.309,0.389c-0.301,0.301-0.627,0.537-0.975,0.779c-0.271,0.188-0.556,0.36-0.814,0.566
				c-0.523,0.42-1.103,0.757-1.649,1.145c-0.47,0.334-0.939,0.635-1.517,0.735c-0.231,0.041-0.467,0.041-0.701,0.054
				c-0.205,0.011-0.41,0.023-0.615,0.031c-0.432,0.016-0.864,0.015-1.27-0.082c-0.204-0.049-0.36-0.104-0.53-0.212
				c-0.149-0.095-0.275-0.22-0.367-0.381c-0.094-0.164-0.143-0.36-0.168-0.552c-0.032-0.232-0.046-0.502-0.01-0.721
				c0.01-0.052,0.021-0.104,0.037-0.154c0.003-0.008,0.024-0.063,0.011-0.034c0.014-0.027,0.028-0.053,0.044-0.078
				c0.058-0.098,0.099-0.151,0.164-0.227c0.114-0.132,0.215-0.259,0.248-0.437c0.025-0.135,0.029-0.273,0.027-0.412
				C27.689,50.034,27.315,50.033,27.318,50.275L27.318,50.275z"/>
		</g>
		<g>
			<path fill="#222221" d="M28.635,49.704c0.3,0.029,0.602,0.079,0.877-0.074c0.111-0.062,0.207-0.14,0.332-0.171
				c0.12-0.028,0.246-0.021,0.368-0.028c0.146-0.008,0.285-0.032,0.42-0.091c0.12-0.054,0.226-0.141,0.329-0.223
				c0.188-0.146,0.359-0.311,0.539-0.465c0.169-0.146,0.347-0.279,0.549-0.374c0.246-0.115,0.528-0.145,0.794-0.185
				c0.294-0.045,0.59-0.086,0.874-0.178c0.292-0.094,0.573-0.223,0.869-0.313c0.244-0.076,0.54-0.156,0.773-0.12
				c0.043,0.007,0.109,0.025,0.138,0.038c0.03,0.014,0.062,0.037,0.083,0.06c0.015,0.015,0.035,0.05,0.044,0.074
				c0.02,0.058,0.021,0.109,0.019,0.172c-0.008,0.241,0.367,0.241,0.375,0c0.009-0.243-0.08-0.476-0.293-0.606
				c-0.185-0.116-0.424-0.133-0.635-0.109c-0.311,0.035-0.609,0.124-0.901,0.229c-0.301,0.108-0.592,0.233-0.906,0.3
				c-0.31,0.066-0.624,0.097-0.934,0.157c-0.262,0.05-0.509,0.147-0.731,0.294c-0.209,0.137-0.396,0.305-0.582,0.471
				c-0.09,0.082-0.182,0.162-0.276,0.239c-0.091,0.074-0.192,0.161-0.303,0.208c-0.132,0.055-0.283,0.047-0.424,0.053
				c-0.172,0.008-0.338,0.033-0.492,0.113c-0.118,0.061-0.222,0.158-0.356,0.182c-0.178,0.03-0.371-0.011-0.549-0.029
				c-0.102-0.01-0.188,0.094-0.188,0.188C28.447,49.627,28.533,49.693,28.635,49.704L28.635,49.704z"/>
		</g>
		<g>
			<path fill="#222221" d="M26.952,51.06c0.019-0.052,0.038-0.103,0.06-0.153c-0.006,0.016-0.013,0.031-0.019,0.046
				c0.065-0.155,0.144-0.304,0.234-0.444c0.054-0.082,0.02-0.211-0.067-0.257c-0.094-0.05-0.199-0.021-0.257,0.067
				c-0.129,0.201-0.232,0.418-0.313,0.642c-0.032,0.093,0.038,0.209,0.132,0.231C26.827,51.215,26.918,51.158,26.952,51.06
				L26.952,51.06z"/>
		</g>
		<g>
			<path fill="#222221" d="M29.284,54.487c0.09,0.618,0.405,1.135,0.825,1.587c0.2,0.215,0.41,0.429,0.634,0.62
				c0.174,0.149,0.368,0.29,0.596,0.342c0.593,0.135,1.171-0.263,1.658-0.539c0.156-0.09,0.315-0.168,0.487-0.223
				c0.165-0.053,0.335-0.088,0.503-0.126c0.32-0.071,0.631-0.163,0.903-0.351c0.468-0.321,0.8-0.804,1.308-1.07
				c0.592-0.31,1.144-0.698,1.612-1.177c0.176-0.18,0.337-0.371,0.505-0.559c0.176-0.195,0.351-0.395,0.516-0.6
				s0.327-0.418,0.456-0.648c0.113-0.203,0.205-0.428,0.188-0.665c-0.045-0.583-0.541-1.044-1.003-1.343
				c-0.247-0.161-0.519-0.283-0.81-0.341c-0.351-0.069-0.708-0.067-1.063-0.056c-0.175,0.006-0.349,0.014-0.523,0.014
				c-0.241,0.001-0.241,0.376,0,0.375c0.625-0.002,1.318-0.118,1.905,0.16c0.22,0.104,0.426,0.242,0.609,0.402
				c0.182,0.16,0.357,0.348,0.452,0.574c0.045,0.107,0.064,0.208,0.059,0.319c-0.003,0.031-0.011,0.07-0.021,0.108
				c-0.006,0.021-0.012,0.04-0.02,0.06c-0.004,0.012-0.009,0.024-0.013,0.035c-0.011,0.027,0,0.001-0.007,0.018
				c-0.096,0.211-0.23,0.403-0.369,0.588c-0.273,0.362-0.589,0.691-0.887,1.033c-0.413,0.472-0.892,0.868-1.432,1.187
				c-0.26,0.154-0.529,0.28-0.766,0.472c-0.207,0.168-0.39,0.362-0.585,0.543c-0.185,0.17-0.388,0.333-0.625,0.424
				c-0.31,0.118-0.644,0.155-0.96,0.252c-0.606,0.185-1.094,0.678-1.729,0.777c-0.159,0.024-0.315-0.008-0.461-0.093
				c-0.196-0.114-0.363-0.287-0.531-0.453c-0.389-0.384-0.777-0.787-0.951-1.318c-0.046-0.141-0.077-0.283-0.099-0.429
				c-0.015-0.101-0.142-0.155-0.23-0.132C29.308,54.286,29.27,54.387,29.284,54.487L29.284,54.487z"/>
		</g>
		<g>
			<path fill="#222221" d="M31.359,57.425c0.068-0.382-0.08-0.729-0.276-1.05c-0.092-0.15-0.362-0.099-0.35,0.096
				c0.021,0.306,0.036,0.612,0.089,0.915c0.051,0.284,0.151,0.555,0.289,0.809c0.079,0.148,0.174,0.287,0.258,0.433
				c0.078,0.135,0.152,0.273,0.232,0.407c0.165,0.273,0.368,0.524,0.649,0.684c1.229,0.698,2.703,0.252,3.791-0.497
				c0.271-0.187,0.529-0.394,0.771-0.617c0.119-0.11,0.233-0.225,0.365-0.321c0.137-0.102,0.278-0.193,0.418-0.288
				c0.288-0.196,0.579-0.406,0.768-0.704c0.174-0.273,0.237-0.599,0.413-0.871c0.338-0.523,0.888-0.869,1.237-1.386
				c0.144-0.212,0.247-0.453,0.366-0.68c0.138-0.26,0.27-0.521,0.383-0.793c0.094-0.229,0.187-0.479,0.184-0.731
				c-0.003-0.274-0.101-0.552-0.273-0.764c-0.313-0.383-0.846-0.47-1.311-0.497c-0.116-0.007-0.232-0.009-0.35-0.012
				c-0.241-0.004-0.241,0.371,0,0.375c0.424,0.008,0.874,0.01,1.221,0.237c0.15,0.1,0.259,0.26,0.309,0.456
				c0.024,0.104,0.036,0.209,0.022,0.315c0.004-0.029-0.006,0.031-0.008,0.04c-0.006,0.027-0.012,0.055-0.019,0.083
				c-0.016,0.06-0.034,0.119-0.053,0.177c-0.163,0.475-0.43,0.904-0.651,1.352c-0.26,0.526-0.745,0.867-1.124,1.3
				c-0.214,0.246-0.368,0.509-0.486,0.812c-0.051,0.132-0.102,0.264-0.176,0.385c-0.085,0.137-0.201,0.248-0.324,0.35
				c-0.239,0.199-0.512,0.353-0.759,0.539c-0.252,0.189-0.468,0.419-0.711,0.618c-0.911,0.749-2.166,1.355-3.36,0.991
				c-0.287-0.088-0.559-0.218-0.76-0.445c-0.189-0.215-0.313-0.483-0.456-0.729c-0.146-0.248-0.306-0.484-0.399-0.759
				c-0.082-0.237-0.116-0.48-0.137-0.728c-0.013-0.152-0.022-0.304-0.033-0.455c-0.116,0.03-0.232,0.063-0.35,0.094
				c0.137,0.223,0.287,0.489,0.239,0.761c-0.018,0.1,0.026,0.202,0.131,0.231C31.22,57.581,31.342,57.525,31.359,57.425
				L31.359,57.425z"/>
		</g>
		<g>
			<path fill="#222221" d="M34.908,59.823c-0.005,0.298,0.046,0.609,0.208,0.864c0.144,0.229,0.357,0.388,0.605,0.486
				c0.513,0.203,1.121,0.123,1.635-0.033c0.532-0.163,1.054-0.432,1.443-0.837c0.563-0.586,1.276-1.047,1.651-1.79
				c0.115-0.231,0.179-0.476,0.272-0.714c0.1-0.25,0.237-0.482,0.338-0.733c0.214-0.536,0.101-1.091,0.098-1.649
				c-0.001-0.241-0.377-0.242-0.375,0c0.003,0.453,0.109,0.932-0.023,1.375c-0.063,0.213-0.17,0.408-0.266,0.607
				c-0.101,0.209-0.17,0.422-0.247,0.639c-0.124,0.352-0.327,0.663-0.582,0.933c-0.263,0.278-0.561,0.52-0.84,0.78
				c-0.13,0.121-0.249,0.252-0.377,0.374c-0.099,0.094-0.16,0.141-0.253,0.205c-0.106,0.073-0.217,0.139-0.331,0.199
				c-0.124,0.065-0.237,0.116-0.343,0.157c-0.249,0.097-0.509,0.168-0.773,0.207c-0.059,0.009,0.038-0.004-0.021,0.003
				c-0.018,0.002-0.036,0.004-0.054,0.006c-0.029,0.004-0.06,0.006-0.089,0.008c-0.064,0.004-0.129,0.007-0.192,0.006
				c-0.063,0-0.125-0.004-0.188-0.01c-0.011,0-0.021-0.002-0.032-0.003c-0.055-0.006,0.038,0.006-0.017-0.002
				c-0.031-0.005-0.063-0.011-0.095-0.018c-0.062-0.013-0.123-0.029-0.183-0.05c-0.015-0.005-0.029-0.011-0.043-0.016
				c-0.049-0.019,0.034,0.017-0.013-0.005c-0.026-0.013-0.054-0.025-0.08-0.04c-0.027-0.015-0.052-0.029-0.077-0.046
				c-0.013-0.008-0.025-0.017-0.037-0.025c-0.03-0.021,0.021,0.021-0.015-0.012c-0.048-0.041-0.092-0.083-0.132-0.131
				c-0.022-0.026-0.003-0.003,0.002,0.002c-0.013-0.016-0.024-0.033-0.036-0.05c-0.017-0.026-0.032-0.054-0.048-0.081
				c-0.006-0.012-0.012-0.024-0.018-0.036c-0.004-0.008-0.026-0.061-0.011-0.022c-0.013-0.031-0.024-0.064-0.034-0.097
				c-0.05-0.163-0.058-0.273-0.055-0.452C35.287,59.582,34.912,59.582,34.908,59.823L34.908,59.823z"/>
		</g>
		<g>
			<path fill="#222221" d="M40.057,59.139c0.16,0.637,0.862,0.696,1.409,0.669c0.255-0.014,0.51-0.036,0.765-0.043
				c0.321-0.007,0.637-0.112,0.927-0.243c0.301-0.137,0.597-0.326,0.8-0.59c0.214-0.277,0.218-0.606,0.193-0.942
				c-0.014-0.174-0.036-0.347-0.047-0.521c-0.014-0.198-0.005-0.397-0.009-0.597c-0.01-0.467-0.085-0.912-0.222-1.358
				c-0.078-0.256-0.168-0.507-0.26-0.759c-0.087-0.239-0.163-0.486-0.285-0.712c-0.205-0.381-0.524-0.685-0.748-1.054
				c-0.099-0.159-0.346-0.091-0.35,0.095c-0.027,1.142,0.772,2.04,1.009,3.117c0.051,0.236,0.414,0.136,0.361-0.1
				c-0.227-1.036-1.021-1.925-0.995-3.018c-0.117,0.032-0.233,0.063-0.351,0.096c0.188,0.309,0.44,0.569,0.64,0.87
				c0.226,0.342,0.341,0.75,0.475,1.134c0.142,0.402,0.281,0.817,0.325,1.243c0.039,0.379,0.008,0.76,0.041,1.139
				c0.026,0.299,0.099,0.662,0.027,0.939c-0.025,0.103-0.087,0.191-0.17,0.278c-0.097,0.101-0.206,0.182-0.325,0.255
				c-0.252,0.155-0.534,0.27-0.826,0.327c-0.196,0.04-0.457,0.03-0.684,0.047c-0.147,0.012-0.294,0.022-0.441,0.025
				c-0.133,0.002-0.305-0.004-0.404-0.021c-0.145-0.024-0.231-0.052-0.339-0.125c-0.027-0.019,0.03,0.027-0.01-0.008
				c-0.013-0.012-0.026-0.023-0.038-0.036c-0.008-0.008-0.016-0.017-0.023-0.024c-0.035-0.041,0.016,0.027-0.014-0.019
				c-0.044-0.069-0.05-0.085-0.07-0.166C40.359,58.806,39.997,58.904,40.057,59.139L40.057,59.139z"/>
		</g>
		<g>
			<path fill="#222221" d="M43.355,54.977c0.02-0.053,0.037-0.107,0.056-0.161c-0.104,0.027-0.209,0.056-0.313,0.083
				c0.278,0.354,0.563,0.703,0.845,1.056c0.253,0.318,0.49,0.647,0.734,0.973c0.228,0.306,0.468,0.603,0.738,0.871
				c0.248,0.25,0.529,0.49,0.852,0.642c0.442,0.208,0.951,0.298,1.434,0.353c0.521,0.062,1.068,0.063,1.579-0.074
				c0.544-0.146,1.019-0.486,1.177-1.048c0.065-0.232-0.297-0.332-0.362-0.1c-0.033,0.117-0.054,0.169-0.12,0.274
				c-0.05,0.079-0.098,0.135-0.187,0.213c-0.049,0.043-0.046,0.041-0.101,0.077c-0.045,0.03-0.092,0.058-0.14,0.083
				c-0.102,0.053-0.162,0.077-0.283,0.114c-0.463,0.143-0.953,0.146-1.448,0.098c-0.409-0.039-0.863-0.127-1.274-0.279
				c-0.295-0.109-0.55-0.319-0.774-0.532c-0.256-0.243-0.485-0.512-0.699-0.792c-0.268-0.35-0.521-0.708-0.794-1.054
				c-0.301-0.382-0.61-0.757-0.91-1.14c-0.094-0.12-0.272-0.036-0.313,0.083c-0.02,0.054-0.037,0.107-0.056,0.161
				c-0.032,0.097,0.037,0.206,0.131,0.23C43.229,55.136,43.322,55.073,43.355,54.977L43.355,54.977z"/>
		</g>
		<g>
			<path fill="#222221" d="M50.274,58.053c0.196-0.003,0.308,0.021,0.5,0.062c0.195,0.04,0.39,0.089,0.584,0.129
				c0.39,0.079,0.816,0.144,1.193-0.021c0.474-0.206,0.606-0.717,0.697-1.179c0.067-0.352,0.11-0.707,0.133-1.064
				c0.02-0.33,0.03-0.661-0.017-0.989c-0.082-0.565-0.382-1.07-0.64-1.57c-0.298-0.574-0.666-1.108-1.045-1.632
				c-0.74-1.022-1.538-2.027-1.97-3.229c-0.095-0.265-0.187-0.534-0.257-0.807c-0.044-0.173-0.079-0.348-0.128-0.521
				c-0.1-0.352-0.276-0.799-0.696-0.839c-0.098-0.01-0.199,0.01-0.29,0.045c-0.115,0.045-0.174,0.16-0.112,0.275
				c0.133,0.251,0.282,0.492,0.419,0.742c0.135,0.245,0.244,0.496,0.331,0.762c0.169,0.515,0.31,1.041,0.676,1.457
				c0.065,0.076,0.196,0.068,0.265,0c0.075-0.076,0.066-0.189,0-0.266c-0.339-0.385-0.445-0.904-0.607-1.377
				c-0.184-0.54-0.494-1.007-0.759-1.508c-0.037,0.092-0.075,0.185-0.112,0.275c0.041-0.016,0.083-0.029,0.127-0.035
				c-0.035,0.004,0.014,0.002,0.024,0.001c0.009-0.001,0.017,0.001,0.024,0.001c-0.025-0.002-0.019-0.006,0.003,0.002
				c0.016,0.005,0.033,0.008,0.049,0.015c-0.03-0.012-0.006-0.003,0.008,0.007c0.006,0.003,0.048,0.033,0.03,0.02
				c-0.014-0.012,0.023,0.022,0.032,0.031c0.013,0.013,0.024,0.027,0.037,0.041c-0.022-0.026,0.008,0.014,0.014,0.023
				c0.024,0.037,0.046,0.074,0.064,0.114c0.022,0.044,0.025,0.055,0.036,0.083c0.017,0.045,0.033,0.09,0.048,0.137
				c0.054,0.169,0.092,0.343,0.133,0.516c0.054,0.229,0.127,0.453,0.201,0.676c0.188,0.568,0.438,1.111,0.746,1.625
				c0.319,0.529,0.686,1.029,1.052,1.527c0.366,0.499,0.734,0.999,1.055,1.531c0.159,0.265,0.299,0.539,0.44,0.813
				c0.117,0.227,0.239,0.453,0.324,0.694c0.199,0.563,0.147,1.182,0.084,1.765c-0.035,0.322-0.091,0.645-0.177,0.957
				c-0.051,0.189-0.126,0.341-0.266,0.461c-0.022,0.02,0.011-0.004-0.024,0.019c-0.014,0.009-0.028,0.019-0.043,0.027
				c-0.017,0.01-0.034,0.02-0.053,0.027c-0.011,0.006-0.021,0.011-0.031,0.015c0.018-0.007,0.013-0.004-0.002,0.001
				c-0.038,0.013-0.076,0.025-0.116,0.034c-0.02,0.005-0.039,0.008-0.06,0.012c-0.042,0.008,0.004,0.002-0.039,0.005
				c-0.086,0.006-0.172,0.008-0.26,0.003c-0.045-0.003-0.09-0.008-0.135-0.012c-0.01-0.002-0.021-0.003-0.029-0.004
				c0.027,0.003-0.006-0.002-0.01-0.002c-0.026-0.003-0.053-0.008-0.079-0.012c-0.382-0.063-0.753-0.179-1.138-0.226
				c-0.079-0.01-0.157-0.015-0.236-0.014C50.033,57.681,50.033,58.056,50.274,58.053L50.274,58.053z"/>
		</g>
		<g>
			<path fill="#222221" d="M53.702,56.339c0.242,0,0.242-0.375,0-0.375C53.461,55.964,53.461,56.339,53.702,56.339L53.702,56.339z"
				/>
		</g>
		<g>
			<path fill="#222221" d="M53.608,56.313c0.541,0.27,1.041,0.625,1.613,0.832c0.238,0.086,0.511,0.147,0.76,0.078
				c0.273-0.076,0.444-0.305,0.524-0.566c0.058-0.182,0.074-0.378,0.078-0.566c0.006-0.278-0.001-0.558-0.002-0.836
				c-0.002-0.29,0.013-0.582-0.006-0.871c-0.017-0.239-0.062-0.474-0.113-0.707c-0.057-0.246-0.12-0.492-0.14-0.743
				c-0.022-0.283-0.017-0.565-0.061-0.847c-0.041-0.277-0.134-0.546-0.213-0.814c-0.079-0.272-0.164-0.546-0.228-0.822
				c-0.059-0.257-0.087-0.519-0.139-0.775c-0.05-0.245-0.117-0.493-0.282-0.687c-0.132-0.155-0.312-0.264-0.478-0.377
				c-0.078-0.054-0.132-0.092-0.198-0.158c-0.063-0.063-0.09-0.107-0.107-0.187c-0.054-0.235-0.415-0.136-0.362,0.101
				c0.083,0.367,0.45,0.527,0.721,0.736c0.12,0.092,0.208,0.193,0.26,0.346c0.073,0.213,0.107,0.438,0.145,0.659
				c0.083,0.516,0.235,1.009,0.38,1.511c0.072,0.252,0.142,0.498,0.159,0.761c0.019,0.272,0.017,0.544,0.059,0.814
				c0.071,0.462,0.226,0.902,0.229,1.374c0.002,0.278-0.001,0.557,0.001,0.834c0.001,0.265,0.012,0.531-0.003,0.795
				c-0.009,0.15-0.028,0.297-0.09,0.444c0.015-0.035-0.018,0.033-0.022,0.042c-0.014,0.024-0.028,0.047-0.045,0.069
				c-0.016,0.023,0.03-0.031,0,0.001c-0.01,0.01-0.019,0.02-0.028,0.03c-0.01,0.009-0.02,0.018-0.029,0.026
				c-0.032,0.028,0.032-0.021-0.003,0.001c-0.021,0.014-0.044,0.026-0.066,0.039c-0.037,0.019,0.03-0.011,0.004-0.003
				c-0.01,0.004-0.02,0.008-0.03,0.011c-0.024,0.008-0.05,0.013-0.075,0.018c0.055-0.011-0.028,0.002-0.044,0.002
				c-0.025,0-0.052,0-0.077-0.002c-0.014-0.001-0.095-0.012-0.046-0.004c-0.063-0.01-0.124-0.023-0.185-0.041
				c-0.298-0.085-0.551-0.223-0.839-0.382c-0.277-0.153-0.548-0.319-0.832-0.46C53.581,55.882,53.392,56.206,53.608,56.313
				L53.608,56.313z"/>
		</g>
		<g>
			<path fill="#222221" d="M39.063,37.119c-0.079-0.017-0.14-0.046-0.195-0.097c-0.068-0.062-0.115-0.126-0.163-0.205
				c-0.097-0.162-0.158-0.328-0.229-0.498c-0.172-0.408-0.46-0.797-0.523-1.243c-0.025-0.182,0.021-0.33,0.108-0.491
				c0.104-0.191,0.235-0.365,0.379-0.528c0.271-0.31,0.589-0.625,0.999-0.733c0.477-0.125,0.924,0.075,1.296,0.36
				c0.404,0.31,0.748,0.697,1.07,1.088c0.353,0.428,0.686,0.872,1.065,1.276c0.348,0.371,0.731,0.713,1.203,0.917
				c0.206,0.089,0.419,0.157,0.636,0.217c0.229,0.063,0.455,0.105,0.655,0.242c0.193,0.132,0.365,0.279,0.584,0.369
				c0.187,0.077,0.387,0.124,0.565,0.217c0.085,0.044,0.145,0.083,0.202,0.156c0.063,0.079,0.199,0.065,0.265,0
				c0.079-0.078,0.063-0.186,0-0.265c-0.142-0.179-0.371-0.267-0.579-0.341c-0.21-0.076-0.398-0.134-0.581-0.265
				c-0.214-0.152-0.407-0.31-0.665-0.381c-0.233-0.064-0.47-0.122-0.699-0.201c-0.487-0.167-0.872-0.467-1.228-0.833
				c-0.406-0.418-0.757-0.885-1.127-1.335c-0.349-0.425-0.717-0.832-1.153-1.167c-0.433-0.332-0.934-0.534-1.486-0.442
				c-0.48,0.079-0.865,0.402-1.188,0.746c-0.306,0.326-0.656,0.742-0.699,1.206c-0.046,0.492,0.265,0.965,0.471,1.387
				c0.087,0.175,0.149,0.358,0.242,0.552c0.095,0.2,0.216,0.392,0.396,0.525c0.083,0.062,0.18,0.106,0.282,0.128
				C39.198,37.53,39.3,37.168,39.063,37.119L39.063,37.119z"/>
		</g>
		<g>
			<path fill="#222221" d="M41.951,34.794c0.369,0,0.738,0,1.108,0c0.365-0.001,0.732-0.013,1.098,0.007
				c0.323,0.017,0.641,0.068,0.96,0.119c0.33,0.053,0.658,0.089,0.991,0.12c0.469,0.043,0.931,0.202,1.257,0.552
				c0.166,0.179,0.283,0.397,0.378,0.621c0.043,0.103,0.08,0.208,0.107,0.316c0.025,0.104,0.03,0.13,0.03,0.23
				c0,0.024-0.002,0.048-0.003,0.073c0.003-0.04-0.003,0.012-0.006,0.027c-0.005,0.02-0.011,0.039-0.017,0.059
				c-0.015,0.048,0.008-0.004-0.013,0.031c-0.01,0.018-0.019,0.035-0.029,0.052c-0.006,0.009-0.012,0.017-0.017,0.025
				c-0.016,0.022,0.029-0.031-0.004,0.004c-0.029,0.032-0.06,0.063-0.094,0.089c0.026-0.021-0.024,0.016-0.033,0.022
				c-0.023,0.015-0.047,0.029-0.072,0.043c-0.053,0.028-0.089,0.045-0.135,0.063c-0.135,0.051-0.275,0.086-0.416,0.116
				c-0.1,0.021-0.157,0.138-0.132,0.23c0.028,0.103,0.132,0.152,0.23,0.131c0.426-0.089,0.94-0.259,1.081-0.722
				c0.06-0.199,0.032-0.417-0.021-0.613c-0.071-0.258-0.185-0.519-0.327-0.746c-0.298-0.474-0.769-0.783-1.311-0.909
				c-0.314-0.073-0.638-0.076-0.957-0.118c-0.348-0.045-0.693-0.112-1.042-0.155c-0.427-0.052-0.854-0.043-1.283-0.043
				c-0.443,0-0.887,0-1.33,0C41.709,34.419,41.709,34.794,41.951,34.794L41.951,34.794z"/>
		</g>
		<g>
			<path fill="#222221" d="M46.603,38.222c0.686,0.055,1.383,0.036,2.054-0.125c0.705-0.17,1.322-0.546,1.948-0.898
				c0.633-0.358,1.283-0.683,1.904-1.063c0.305-0.187,0.605-0.379,0.908-0.569c0.312-0.196,0.639-0.375,0.943-0.581
				c0.265-0.178,0.481-0.408,0.673-0.662c0.203-0.27,0.351-0.573,0.53-0.86c0.363-0.581,0.781-1.125,1.186-1.677
				c0.205-0.28,0.396-0.567,0.638-0.817c0.231-0.239,0.479-0.463,0.674-0.735c0.096-0.135,0.176-0.281,0.272-0.416
				c0.093-0.13,0.191-0.255,0.294-0.378c0.21-0.253,0.429-0.497,0.634-0.754c0.206-0.259,0.398-0.525,0.626-0.767
				c0.222-0.236,0.461-0.456,0.708-0.666c0.25-0.213,0.509-0.416,0.768-0.618c0.27-0.211,0.54-0.416,0.781-0.658
				c0.121-0.121,0.242-0.241,0.362-0.361c0.172-0.171-0.094-0.437-0.265-0.266c-0.242,0.242-0.476,0.491-0.743,0.704
				c-0.259,0.206-0.521,0.408-0.779,0.614c-0.501,0.4-0.987,0.824-1.393,1.323c-0.212,0.261-0.409,0.531-0.628,0.787
				c-0.212,0.25-0.426,0.497-0.622,0.759c-0.099,0.132-0.192,0.268-0.278,0.408c-0.084,0.139-0.188,0.258-0.299,0.375
				c-0.224,0.236-0.466,0.454-0.665,0.711c-0.219,0.284-0.422,0.583-0.636,0.873c-0.201,0.273-0.402,0.545-0.596,0.824
				c-0.192,0.275-0.376,0.556-0.544,0.847c-0.082,0.143-0.156,0.29-0.251,0.425c-0.086,0.122-0.177,0.238-0.278,0.348
				c-0.102,0.108-0.211,0.21-0.333,0.296c-0.146,0.103-0.307,0.187-0.458,0.28c-0.305,0.187-0.605,0.378-0.906,0.569
				c-0.298,0.188-0.597,0.374-0.899,0.551c-0.319,0.187-0.647,0.353-0.973,0.528c-0.313,0.169-0.622,0.348-0.933,0.521
				c-0.313,0.174-0.626,0.361-0.961,0.487c-0.631,0.236-1.306,0.309-1.975,0.293c-0.164-0.004-0.327-0.013-0.489-0.027
				c-0.101-0.008-0.188,0.092-0.188,0.188C46.415,38.143,46.502,38.214,46.603,38.222L46.603,38.222z"/>
		</g>
		<g>
			<path fill="#222221" d="M53.515,34.606c-0.006,0.054-0.013,0.108-0.019,0.161c-0.021,0.183,0.273,0.259,0.35,0.095
				c0.121-0.26,0.278-0.442,0.479-0.644c0.197-0.198,0.411-0.38,0.609-0.578c-0.088-0.088-0.177-0.177-0.266-0.265
				c-0.121,0.121-0.243,0.243-0.363,0.364c-0.071,0.072-0.071,0.193,0,0.265s0.193,0.072,0.265,0
				c0.122-0.122,0.243-0.243,0.364-0.364c0.071-0.072,0.071-0.193,0-0.265c-0.071-0.072-0.193-0.072-0.266,0
				c-0.406,0.405-0.898,0.764-1.146,1.298c0.116,0.032,0.233,0.063,0.35,0.094c0.006-0.053,0.012-0.107,0.018-0.161
				c0.012-0.101-0.094-0.187-0.188-0.187C53.592,34.419,53.526,34.505,53.515,34.606L53.515,34.606z"/>
		</g>
		<g>
			<path fill="#222221" d="M54.242,34.298c0.246-0.042,0.484-0.144,0.695-0.277c0.068-0.043,0.112-0.131,0.086-0.211
				c-0.023-0.074-0.097-0.145-0.181-0.138c-0.054,0.005-0.107,0.01-0.161,0.014c-0.051,0.004-0.096,0.018-0.133,0.055
				c-0.032,0.032-0.057,0.086-0.055,0.132c0.005,0.095,0.083,0.196,0.188,0.188c0.054-0.005,0.107-0.009,0.161-0.014
				c-0.031-0.116-0.063-0.233-0.095-0.35c-0.049,0.031-0.099,0.06-0.149,0.086c-0.028,0.014-0.056,0.028-0.083,0.041
				c-0.012,0.004-0.022,0.009-0.032,0.014c-0.019,0.008-0.015,0.006,0.013-0.005c-0.008,0.003-0.015,0.006-0.021,0.009
				c-0.107,0.043-0.219,0.075-0.332,0.094c-0.044,0.008-0.092,0.05-0.112,0.086c-0.023,0.041-0.034,0.099-0.02,0.145
				C54.045,34.272,54.139,34.315,54.242,34.298L54.242,34.298z"/>
		</g>
		<g>
			<path fill="#222221" d="M55.793,50.652c1.125-1.078,2.495-1.85,3.894-2.517c0.438-0.209,0.88-0.409,1.323-0.605
				c0.092-0.042,0.114-0.177,0.066-0.257c-0.056-0.096-0.163-0.109-0.257-0.068c-1.476,0.658-2.959,1.346-4.261,2.314
				c-0.36,0.27-0.706,0.557-1.03,0.868C55.354,50.555,55.619,50.82,55.793,50.652L55.793,50.652z"/>
		</g>
		<g>
			<path fill="#222221" d="M25.904,32.046c1.005,1.2,2.203,2.225,3.517,3.074c0.652,0.422,1.333,0.8,2.031,1.141
				c0.728,0.355,1.477,0.652,2.224,0.963c0.903,0.375,1.815,0.768,2.782,0.948c0.216,0.041,0.313-0.215,0.144-0.342
				c-0.328-0.249-0.74-0.17-1.111-0.297c-0.194-0.067-0.374-0.172-0.563-0.254c-0.2-0.087-0.409-0.145-0.615-0.213
				c-0.775-0.257-1.524-0.586-2.245-0.972c-0.751-0.403-1.476-0.86-2.198-1.314c-0.723-0.455-1.438-0.926-2.129-1.428
				c-0.773-0.562-1.516-1.167-2.208-1.827c-0.044,0.106-0.088,0.213-0.132,0.32c0.049,0.004,0.099,0.008,0.147,0.012
				c0.102,0.009,0.188-0.092,0.188-0.187c0-0.109-0.086-0.179-0.188-0.188c-0.049-0.004-0.099-0.009-0.147-0.013
				c-0.165-0.014-0.245,0.214-0.133,0.321c1.247,1.191,2.659,2.196,4.111,3.123c1.428,0.911,2.871,1.809,4.471,2.389
				c0.227,0.082,0.455,0.157,0.685,0.228c0.22,0.068,0.419,0.179,0.628,0.272c0.221,0.098,0.435,0.154,0.674,0.179
				c0.211,0.022,0.403,0.042,0.577,0.173c0.048-0.115,0.096-0.229,0.145-0.343c-0.854-0.159-1.666-0.485-2.466-0.816
				c-0.737-0.305-1.48-0.596-2.202-0.937c-1.382-0.653-2.704-1.451-3.878-2.435c-0.666-0.559-1.284-1.174-1.841-1.841
				c-0.065-0.078-0.199-0.067-0.267,0C25.828,31.858,25.84,31.968,25.904,32.046L25.904,32.046z"/>
		</g>
		<g>
			<path fill="#222221" d="M22.623,47.345c0.515,0.453,1.18,0.611,1.765,0.944c0.303,0.172,0.537,0.421,0.81,0.634
				c0.288,0.226,0.618,0.352,0.947,0.505c0.373,0.173,0.742,0.371,1.167,0.295c0.1-0.019,0.156-0.141,0.131-0.231
				c-0.029-0.104-0.13-0.149-0.231-0.131c-0.31,0.056-0.621-0.14-0.892-0.263c-0.302-0.14-0.618-0.252-0.883-0.459
				c-0.263-0.208-0.492-0.453-0.781-0.628c-0.271-0.165-0.565-0.282-0.856-0.407c-0.321-0.14-0.646-0.291-0.911-0.524
				c-0.076-0.067-0.191-0.075-0.265,0C22.555,47.147,22.546,47.277,22.623,47.345L22.623,47.345z"/>
		</g>
		<g>
			<path fill="#222221" d="M27.995,49.354c-0.552,0.07-1.095,0.236-1.657,0.186c0.031,0.008,0.063,0.016,0.095,0.025
				c-1.294-0.65-2.431-1.561-3.548-2.471c-0.079-0.064-0.188-0.077-0.266,0c-0.066,0.066-0.079,0.201,0,0.265
				c0.632,0.515,1.266,1.026,1.93,1.496c0.327,0.231,0.662,0.453,1.008,0.657c0.166,0.099,0.334,0.193,0.505,0.283
				c0.095,0.049,0.187,0.109,0.294,0.12c0.104,0.011,0.211,0.013,0.315,0.009c0.449-0.016,0.882-0.139,1.324-0.195
				c0.101-0.013,0.188-0.077,0.188-0.188C28.184,49.449,28.097,49.34,27.995,49.354L27.995,49.354z"/>
		</g>
		<g>
			<path fill="#222221" d="M35.767,49.736c-0.065-0.27-0.265-0.466-0.475-0.631c-0.207-0.162-0.4-0.331-0.595-0.507
				c-0.182-0.167-0.376-0.339-0.614-0.417c-0.251-0.082-0.506-0.008-0.71,0.146c-0.385,0.293-0.62,0.777-0.79,1.219
				c-0.07,0.182-0.143,0.395-0.123,0.592c0.022,0.24,0.146,0.45,0.31,0.621c0.183,0.191,0.41,0.339,0.633,0.478
				c0.201,0.126,0.425,0.251,0.582,0.396c0.177,0.163,0.442-0.102,0.265-0.267c-0.302-0.277-0.688-0.442-1.013-0.69
				c-0.145-0.112-0.277-0.238-0.357-0.4c-0.011-0.022-0.024-0.059-0.034-0.102c-0.003-0.009-0.015-0.072-0.01-0.035
				c-0.003-0.017-0.003-0.033-0.003-0.051c0-0.02,0.002-0.039,0.003-0.057c0.003-0.035-0.003,0.015,0.003-0.021
				c0.009-0.047,0.019-0.092,0.031-0.137c0.055-0.199,0.139-0.389,0.233-0.572c0.048-0.094,0.099-0.186,0.154-0.274
				c0.023-0.037,0.048-0.075,0.072-0.112c0.011-0.016,0.021-0.03,0.032-0.045c0.006-0.01,0.014-0.02,0.021-0.028
				c-0.011,0.014-0.01,0.012,0-0.001c0.075-0.092,0.16-0.18,0.26-0.244c0.081-0.051,0.153-0.076,0.232-0.074
				c0.066,0.002,0.139,0.029,0.209,0.068c0.087,0.05,0.166,0.111,0.241,0.177c0.207,0.179,0.399,0.371,0.616,0.538
				c0.185,0.141,0.406,0.293,0.465,0.531C35.462,50.07,35.823,49.971,35.767,49.736L35.767,49.736z"/>
		</g>
		<g>
			<path fill="#222221" d="M38.278,52.046c-0.011,0-0.072-0.01-0.027,0c-0.021-0.005-0.041-0.009-0.061-0.015
				c-0.019-0.005-0.035-0.011-0.054-0.018c-0.005-0.001-0.036-0.014-0.015-0.006c0.022,0.011-0.022-0.011-0.021-0.011
				c-0.038-0.02-0.075-0.04-0.111-0.063c-0.017-0.011-0.033-0.022-0.05-0.034c-0.011-0.007-0.02-0.014-0.029-0.021
				c-0.047-0.034,0.014,0.012-0.013-0.01c-0.157-0.124-0.299-0.269-0.446-0.403c-0.279-0.257-0.646-0.544-1.049-0.403
				c-0.422,0.147-0.697,0.597-0.771,1.019c-0.075,0.421-0.01,0.877,0.218,1.243c0.119,0.192,0.286,0.363,0.49,0.464
				c0.242,0.12,0.502,0.141,0.766,0.096c0.1-0.017,0.155-0.14,0.131-0.23c-0.029-0.106-0.131-0.148-0.23-0.131
				c-0.04,0.007-0.065,0.01-0.118,0.011c-0.049,0.002-0.098,0.001-0.146-0.005c-0.032-0.005,0.024,0.004-0.007-0.002
				c-0.01-0.001-0.019-0.003-0.027-0.006c-0.021-0.004-0.042-0.008-0.063-0.015c-0.021-0.005-0.041-0.012-0.062-0.019
				c-0.011-0.005-0.021-0.008-0.033-0.013c0.019,0.008,0.007,0.003-0.004-0.003c-0.037-0.018-0.073-0.037-0.108-0.06
				c-0.018-0.012-0.034-0.022-0.051-0.035c-0.018-0.013,0,0,0.003,0.003c-0.012-0.01-0.022-0.02-0.033-0.029
				c-0.068-0.06-0.117-0.118-0.153-0.17c-0.107-0.157-0.155-0.281-0.196-0.469c-0.021-0.098-0.026-0.137-0.03-0.245
				c-0.002-0.045-0.001-0.09,0.001-0.135c0.002-0.022,0.002-0.045,0.005-0.067c0.001-0.01,0.009-0.074,0.005-0.046
				c0.014-0.091,0.036-0.181,0.065-0.268c0.02-0.053,0.018-0.049,0.04-0.094c0.021-0.043,0.044-0.084,0.069-0.123
				c0.045-0.07,0.094-0.129,0.173-0.2c0.035-0.032,0.043-0.039,0.084-0.065c0.022-0.013,0.044-0.024,0.065-0.036
				c0.001-0.001,0.027-0.013,0.009-0.005c-0.02,0.009,0.026-0.009,0.025-0.008c0.016-0.005,0.031-0.01,0.048-0.013
				c0.01-0.003,0.02-0.005,0.03-0.007c-0.008,0.001-0.038,0.003-0.004,0.002c0.016,0,0.031-0.001,0.046-0.001
				c0.016,0.001,0.066,0.01,0.026,0.001c0.035,0.007,0.069,0.018,0.104,0.028c0.029,0.01-0.017-0.01,0.021,0.009
				c0.021,0.011,0.044,0.022,0.065,0.034c0.031,0.018,0.063,0.038,0.094,0.059c0.048,0.033,0.051,0.037,0.083,0.063
				c0.07,0.058,0.138,0.119,0.204,0.181c0.295,0.275,0.612,0.625,1.043,0.646C38.52,52.433,38.52,52.058,38.278,52.046
				L38.278,52.046z"/>
		</g>
		<g>
			<path fill="#222221" d="M39.928,54.242c0.051-0.187,0.044-0.388-0.057-0.557c-0.094-0.157-0.249-0.261-0.417-0.323
				c-0.326-0.123-0.745-0.086-1.038,0.105c-0.323,0.211-0.395,0.557-0.423,0.918c-0.033,0.414-0.004,0.843,0.084,1.25
				c0.075,0.349,0.236,0.856,0.641,0.941c0.1,0.021,0.203-0.029,0.231-0.131c0.025-0.093-0.032-0.21-0.131-0.23
				c-0.013-0.003-0.024-0.007-0.035-0.01c-0.008-0.002-0.017-0.005-0.023-0.008c0,0,0.034,0.018,0.017,0.007
				c-0.017-0.01-0.077-0.053-0.041-0.022c-0.022-0.02-0.043-0.04-0.063-0.062c-0.004-0.005-0.031-0.038-0.017-0.02
				c0.013,0.017-0.018-0.026-0.024-0.036c-0.086-0.136-0.116-0.229-0.16-0.394c-0.095-0.352-0.122-0.693-0.114-1.065
				c0.002-0.083,0.006-0.165,0.014-0.248c0.003-0.038,0.006-0.076,0.011-0.114c-0.003,0.033,0-0.002,0.003-0.015
				c0.003-0.018,0.005-0.037,0.009-0.055c0.012-0.06,0.026-0.119,0.045-0.178c0.004-0.014,0.015-0.039,0.003-0.012
				c0.006-0.014,0.014-0.027,0.021-0.042c0.008-0.014,0.017-0.026,0.025-0.04c0.018-0.029,0.003-0.006-0.003,0
				c0.007-0.008,0.014-0.017,0.021-0.024c0.021-0.022,0.044-0.044,0.067-0.065c0.022-0.02-0.017,0.01,0.019-0.013
				c0.017-0.01,0.031-0.021,0.047-0.03c0.015-0.008,0.028-0.016,0.043-0.023c0.006-0.002,0.054-0.024,0.036-0.017
				c-0.017,0.006,0.024-0.009,0.032-0.012c0.019-0.006,0.036-0.012,0.056-0.018c0.035-0.009,0.07-0.017,0.105-0.022
				c0.009-0.002,0.017-0.003,0.025-0.005c-0.003,0.001-0.03,0.004-0.009,0.002c0.022-0.002,0.044-0.005,0.067-0.005
				c0.033-0.003,0.066-0.003,0.1-0.001c0.02,0.001,0.039,0.002,0.059,0.004c0.009,0.001,0.017,0.002,0.024,0.003
				c0.029,0.003-0.029-0.006-0.001,0c0.04,0.008,0.079,0.016,0.117,0.027c0.019,0.005,0.036,0.011,0.053,0.017
				c0.04,0.014-0.012-0.009,0.026,0.012c0.03,0.017,0.061,0.033,0.09,0.052c0.035,0.022-0.01-0.014,0.02,0.016
				c0.011,0.012,0.023,0.023,0.035,0.035c0.005,0.005,0.009,0.011,0.014,0.016c0.018,0.02-0.018-0.026-0.003-0.005
				c0.01,0.016,0.019,0.033,0.029,0.048c0.022,0.034-0.001-0.015,0.007,0.014c0.006,0.018,0.012,0.037,0.017,0.056
				c0.002,0.007,0.003,0.015,0.004,0.022c0.005,0.026-0.002-0.033-0.001-0.005c0.001,0.019,0.002,0.037,0.001,0.056
				c0,0.012-0.008,0.07-0.002,0.034c-0.004,0.024-0.011,0.049-0.016,0.073C39.504,54.376,39.865,54.476,39.928,54.242L39.928,54.242
				z"/>
		</g>
		<g>
			<path fill="#222221" d="M61.074,47.227c-0.453-0.875-0.941-1.748-1.613-2.475c-0.319-0.345-0.723-0.634-0.964-1.044
				c-0.238-0.402-0.325-0.876-0.502-1.306c-0.377-0.916-0.969-1.702-1.491-2.536c-0.275-0.438-0.481-0.91-0.711-1.372
				c-0.217-0.438-0.5-0.833-0.795-1.221c-0.338-0.445-0.636-0.914-0.861-1.426c-0.214-0.488-0.423-0.978-0.791-1.372
				c-0.165-0.177-0.431,0.089-0.266,0.265c0.314,0.337,0.5,0.763,0.683,1.18c0.198,0.455,0.435,0.88,0.723,1.285
				c0.283,0.398,0.592,0.774,0.835,1.199c0.256,0.448,0.444,0.93,0.697,1.378c0.241,0.43,0.53,0.832,0.799,1.244
				c0.261,0.403,0.512,0.814,0.716,1.248c0.203,0.434,0.312,0.899,0.499,1.338c0.194,0.458,0.534,0.788,0.887,1.125
				c0.791,0.759,1.332,1.713,1.833,2.679C60.861,47.629,61.186,47.44,61.074,47.227L61.074,47.227z"/>
		</g>
		<g>
			<path fill="#222221" d="M61.316,47.703c-0.053-0.105-0.106-0.213-0.161-0.32c-0.021-0.039-0.068-0.073-0.112-0.085
				c-0.044-0.013-0.104-0.007-0.144,0.019s-0.075,0.064-0.086,0.112c-0.013,0.052-0.006,0.098,0.019,0.144
				c0.054,0.107,0.107,0.214,0.16,0.32c0.021,0.041,0.069,0.074,0.112,0.086c0.045,0.013,0.104,0.007,0.145-0.018
				c0.04-0.027,0.075-0.065,0.086-0.113c0.003-0.016,0.005-0.033,0.008-0.05C61.342,47.765,61.333,47.732,61.316,47.703
				L61.316,47.703z"/>
		</g>
		<g>
			<path fill="#222221" d="M61.576,48.799c0.266,0.495,0.77,1.214,1.433,0.988c0.192-0.066,0.349-0.2,0.515-0.313
				c0.182-0.124,0.365-0.243,0.553-0.358c0.367-0.227,0.745-0.436,1.129-0.635c0.762-0.393,1.546-0.74,2.329-1.088
				c0.396-0.176,0.792-0.354,1.185-0.535c0.188-0.088,0.373-0.189,0.566-0.264c0.193-0.075,0.392-0.135,0.593-0.187
				c0.45-0.115,0.914-0.17,1.363-0.287c0.101-0.026,0.19-0.084,0.285-0.125c0.052-0.021,0.105-0.038,0.158-0.058
				c0.062-0.024,0.113-0.065,0.168-0.102c0.113-0.075,0.228-0.151,0.34-0.227c0.021-0.014,0.043-0.026,0.062-0.041
				c0.033-0.035,0.045-0.044,0.037-0.026c0,0,0,0.002-0.001,0.002c0.021-0.007,0.051-0.006,0.086-0.001c0-0.125,0-0.25,0-0.375
				c-0.161,0-0.326-0.001-0.485,0.026c-0.164,0.027-0.261,0.226-0.11,0.344c0.071,0.057,0.177,0.052,0.263,0.049
				c0.129-0.005,0.258-0.023,0.383-0.052c0.209-0.048,0.159-0.366-0.05-0.368c-0.859-0.007-1.666,0.276-2.462,0.57
				c-0.8,0.295-1.584,0.632-2.353,1.003c-0.378,0.182-0.735,0.388-1.089,0.612c-0.345,0.217-0.683,0.441-1.028,0.654
				c-0.177,0.108-0.356,0.215-0.538,0.314c-0.17,0.094-0.349,0.208-0.537,0.259c-0.398,0.108-0.827,0.096-1.213,0.255
				c-0.174,0.072-0.333,0.174-0.502,0.257c-0.134,0.067-0.315,0.138-0.465,0.09c-0.316-0.103-0.447-0.493-0.534-0.778
				c-0.071-0.23-0.433-0.132-0.361,0.1c0.098,0.322,0.229,0.662,0.501,0.879c0.149,0.117,0.32,0.192,0.513,0.186
				c0.182-0.006,0.351-0.062,0.513-0.14c0.15-0.073,0.291-0.167,0.444-0.233c0.186-0.082,0.397-0.111,0.597-0.143
				c0.208-0.033,0.42-0.057,0.623-0.115c0.204-0.057,0.396-0.174,0.581-0.275c0.741-0.404,1.425-0.902,2.154-1.325
				c0.377-0.22,0.783-0.396,1.181-0.575c0.388-0.176,0.781-0.341,1.178-0.496c0.453-0.177,0.913-0.348,1.379-0.492
				c0.462-0.144,0.934-0.234,1.419-0.231c-0.017-0.123-0.034-0.245-0.05-0.368c-0.025,0.005-0.05,0.011-0.074,0.015
				c-0.016,0.003-0.031,0.006-0.047,0.009c-0.003,0-0.039,0.005-0.019,0.002c0.011-0.001-0.039,0.004-0.053,0.005
				c-0.022,0.002-0.046,0.003-0.069,0.005c-0.033,0.001-0.066,0.003-0.101,0.001c-0.013,0-0.028-0.005-0.04-0.002
				c-0.014,0.003,0.043,0.006,0.032,0.003c-0.053-0.013,0.077,0.035,0.098,0.08c0.007,0.048,0.013,0.096,0.019,0.145
				c0.001,0,0.001-0.001,0.001-0.001c-0.016,0.027-0.032,0.055-0.048,0.083c-0.012,0.012-0.109,0.063-0.044,0.038
				c-0.049,0.018-0.024,0.002-0.004,0c0.019-0.001,0.037-0.003,0.057-0.005c0.113-0.008,0.228-0.009,0.342-0.01
				c0.102,0,0.188-0.085,0.188-0.188c0-0.112-0.087-0.174-0.188-0.187c-0.198-0.027-0.343,0.098-0.496,0.201
				c-0.093,0.061-0.186,0.123-0.278,0.185c-0.087,0.058-0.192,0.086-0.288,0.129c-0.068,0.03-0.133,0.07-0.206,0.084
				c-0.112,0.022-0.223,0.048-0.335,0.071c-0.197,0.04-0.395,0.076-0.591,0.116c-0.401,0.083-0.81,0.183-1.183,0.357
				c-0.386,0.18-0.769,0.362-1.155,0.536c-1.53,0.688-3.087,1.338-4.48,2.284c-0.162,0.109-0.327,0.272-0.523,0.313
				c-0.12,0.026-0.241-0.015-0.357-0.092c-0.257-0.17-0.438-0.473-0.582-0.742C61.786,48.396,61.462,48.586,61.576,48.799
				L61.576,48.799z"/>
		</g>
		<g>
			<path fill="#222221" d="M53.57,35.719c0.311,0.315,0.658,0.593,0.947,0.93c0.284,0.333,0.495,0.724,0.698,1.109
				c0.217,0.412,0.42,0.831,0.632,1.245c0.214,0.418,0.444,0.824,0.684,1.227c0.968,1.64,1.88,3.31,2.816,4.967
				c0.521,0.918,1.065,1.823,1.642,2.708c0.132,0.202,0.456,0.014,0.324-0.189c-1.041-1.598-1.956-3.271-2.889-4.933
				c-0.468-0.833-0.938-1.664-1.421-2.487c-0.238-0.407-0.481-0.81-0.7-1.227c-0.217-0.412-0.419-0.832-0.632-1.245
				c-0.232-0.452-0.47-0.906-0.783-1.309c-0.308-0.395-0.703-0.707-1.054-1.062C53.665,35.281,53.4,35.546,53.57,35.719
				L53.57,35.719z"/>
		</g>
		<g>
			<path fill="#222221" d="M60.866,47.777c-0.066,0.266,0.028,0.508,0.177,0.725c0.066,0.098,0.139,0.189,0.199,0.29
				c0.015,0.023,0.029,0.048,0.042,0.073c0.006,0.011,0.012,0.022,0.018,0.033c0.007,0.016,0.017,0.041,0.005,0.011
				c0.012,0.028,0.021,0.057,0.029,0.087c0.005,0.015,0.007,0.029,0.01,0.044c0.003,0.011,0.009,0.058,0.004,0.012
				c0.011,0.097,0.078,0.192,0.188,0.188c0.092-0.005,0.199-0.083,0.188-0.188c-0.031-0.263-0.165-0.467-0.313-0.677
				c-0.063-0.088-0.124-0.178-0.169-0.277c0.02,0.044,0.002,0.001-0.001-0.008c-0.005-0.012-0.009-0.025-0.013-0.039
				c-0.003-0.012-0.006-0.023-0.008-0.034c-0.006-0.024-0.003-0.021,0,0.002c-0.003-0.029-0.005-0.058-0.003-0.087
				c0-0.011,0.011-0.053,0-0.009c0.003-0.015,0.006-0.03,0.011-0.046c0.023-0.096-0.031-0.208-0.132-0.23
				C60.999,47.625,60.893,47.676,60.866,47.777L60.866,47.777z"/>
		</g>
		<g>
			<path fill="#222221" d="M22.881,47.074c1.366-1.344,2.81-2.622,4.008-4.124c0.303-0.38,0.593-0.772,0.857-1.179
				c0.276-0.424,0.509-0.87,0.732-1.321c0.216-0.433,0.432-0.862,0.716-1.255c0.27-0.372,0.58-0.712,0.882-1.058
				c0.65-0.745,1.405-1.705,1.002-2.753c-0.049-0.124-0.157-0.163-0.275-0.112c-0.132,0.056-0.271,0.099-0.409,0.134
				c-0.232,0.059-0.134,0.421,0.101,0.362c0.171-0.043,0.335-0.103,0.497-0.171c-0.092-0.038-0.183-0.075-0.275-0.112
				c0.334,0.866-0.278,1.665-0.818,2.287c-0.3,0.348-0.609,0.688-0.89,1.051c-0.293,0.38-0.527,0.787-0.742,1.215
				c-0.219,0.438-0.431,0.878-0.686,1.295c-0.249,0.408-0.527,0.799-0.819,1.177c-0.569,0.737-1.205,1.421-1.861,2.081
				c-0.749,0.752-1.527,1.475-2.284,2.218C22.442,46.979,22.709,47.244,22.881,47.074L22.881,47.074z"/>
		</g>
		<g>
			<path fill="#222221" d="M30.444,36.019c-0.048-0.005-0.005,0.002,0.005,0.005c-0.056-0.013,0.004,0.01-0.021-0.009
				c-0.03-0.021,0.021,0.034-0.017-0.018c0.006,0.008,0.028,0.047,0.003,0.001c0.003,0.005,0.008,0.02,0.008,0.026
				c0.003,0.049,0-0.043,0.003,0.009c0.002,0.034,0.001,0.067-0.002,0.101c-0.003,0.058,0.005-0.02-0.001,0.016
				c-0.002,0.016-0.005,0.033-0.008,0.049c-0.007,0.034-0.015,0.068-0.023,0.103c-0.021,0.083-0.048,0.165-0.077,0.246
				c-0.092,0.257-0.211,0.501-0.334,0.756c-0.523,1.083-1.124,2.119-1.876,3.06c-0.735,0.92-1.539,1.786-2.193,2.77
				c-0.323,0.486-0.598,1.004-0.93,1.485c-0.333,0.483-0.756,0.876-1.162,1.295c-0.197,0.202-0.389,0.412-0.553,0.644
				c-0.163,0.227-0.294,0.475-0.427,0.721c-0.129,0.239-0.26,0.48-0.422,0.699c-0.147,0.199-0.334,0.367-0.52,0.53
				c-0.19,0.169-0.387,0.334-0.549,0.53c-0.133,0.161-0.226,0.337-0.33,0.516c-0.044,0.074-0.09,0.148-0.153,0.209
				c-0.042,0.041-0.086,0.066-0.127,0.061c-0.104-0.016-0.206-0.104-0.291-0.16c-0.12-0.08-0.236-0.165-0.354-0.246
				c-0.245-0.164-0.505-0.303-0.75-0.469c-0.244-0.166-0.479-0.344-0.709-0.529c-0.446-0.36-0.884-0.717-1.37-1.025
				c-0.479-0.302-0.976-0.574-1.467-0.855c-0.512-0.292-1.008-0.607-1.496-0.936c-1.036-0.698-2.044-1.439-3.1-2.107
				c-0.5-0.316-1.015-0.621-1.47-1.002c-0.415-0.349-0.76-0.758-1.075-1.197c-0.166-0.231-0.34-0.458-0.553-0.649
				c-0.075,0.098-0.151,0.197-0.227,0.294c0.403,0.294,0.753,0.652,1.113,0.996c0.359,0.344,0.747,0.655,1.138,0.962
				c0.386,0.304,0.777,0.603,1.154,0.918c0.194,0.163,0.385,0.33,0.57,0.504c0.177,0.167,0.337,0.359,0.528,0.511
				c0.196,0.155,0.426,0.267,0.603,0.444c0.087,0.087,0.171,0.181,0.263,0.263c0.099,0.088,0.211,0.167,0.315,0.249
				c0.4,0.315,0.804,0.629,1.211,0.937c0.8,0.601,1.621,1.174,2.481,1.685c1.013,0.602,2.039,1.185,3.094,1.713
				c0.076,0.038,0.164,0.03,0.227-0.03c0.091-0.087,0.197-0.155,0.292-0.237c0.104-0.09,0.155-0.218,0.218-0.337
				c0.118-0.227,0.233-0.453,0.356-0.677c0.245-0.446,0.523-0.872,0.897-1.222c0.176-0.165-0.089-0.43-0.266-0.266
				c-0.378,0.354-0.669,0.783-0.921,1.232c-0.121,0.217-0.234,0.438-0.349,0.659c-0.054,0.104-0.103,0.247-0.188,0.331
				c-0.093,0.092-0.21,0.158-0.306,0.251c0.076-0.011,0.151-0.021,0.227-0.03c-0.934-0.467-1.844-0.979-2.744-1.508
				c-0.876-0.514-1.721-1.068-2.538-1.671c-0.404-0.299-0.802-0.605-1.197-0.915c-0.201-0.158-0.422-0.307-0.604-0.488
				c-0.087-0.087-0.172-0.178-0.263-0.263c-0.098-0.092-0.214-0.163-0.326-0.237c-0.09-0.058-0.181-0.116-0.263-0.184
				c-0.101-0.084-0.188-0.187-0.281-0.28c-0.176-0.175-0.358-0.343-0.545-0.505c-0.371-0.323-0.76-0.625-1.146-0.928
				c-0.438-0.342-0.881-0.681-1.285-1.063c-0.416-0.393-0.815-0.801-1.278-1.138c-0.172-0.126-0.385,0.153-0.227,0.294
				c0.229,0.207,0.406,0.454,0.586,0.702c0.164,0.228,0.338,0.447,0.527,0.653c0.404,0.438,0.879,0.793,1.375,1.118
				c0.519,0.339,1.046,0.663,1.559,1.009c0.541,0.368,1.075,0.743,1.614,1.114c0.524,0.363,1.051,0.726,1.597,1.055
				c0.496,0.299,1.006,0.574,1.506,0.867c0.506,0.299,1.003,0.615,1.453,0.994c0.463,0.389,0.939,0.764,1.456,1.078
				c0.254,0.155,0.498,0.32,0.745,0.484c0.196,0.129,0.419,0.27,0.66,0.18c0.194-0.072,0.323-0.251,0.426-0.424
				c0.112-0.191,0.209-0.379,0.362-0.543c0.356-0.385,0.789-0.674,1.092-1.109c0.324-0.469,0.522-1.016,0.88-1.461
				c0.382-0.474,0.854-0.862,1.248-1.324c0.384-0.449,0.68-0.959,0.982-1.462c0.32-0.531,0.675-1.037,1.063-1.522
				c0.376-0.471,0.772-0.927,1.155-1.393c0.384-0.465,0.757-0.941,1.085-1.448c0.348-0.538,0.652-1.106,0.939-1.677
				c0.158-0.314,0.315-0.63,0.448-0.956c0.112-0.274,0.268-0.636,0.183-0.937c-0.047-0.164-0.175-0.249-0.337-0.268
				c-0.101-0.011-0.188,0.095-0.188,0.188C30.257,35.942,30.343,36.006,30.444,36.019L30.444,36.019z"/>
		</g>
		<g>
			<path fill="#222221" d="M17.288,44.694c0.001,0.009,0.008,0.058,0.002,0.009c0.002,0.015,0.003,0.03,0.004,0.045
				c0.002,0.03,0.002,0.061,0,0.091c-0.001,0.015-0.012,0.103-0.005,0.059c-0.006,0.037-0.012,0.073-0.02,0.11
				c-0.03,0.132-0.071,0.26-0.106,0.389c-0.072,0.271-0.112,0.567,0.076,0.798c0.104,0.127,0.259,0.203,0.412,0.253
				c0.19,0.061,0.392,0.092,0.59,0.062c0.328-0.048,0.604-0.276,0.771-0.557c0.175-0.293,0.239-0.644,0.182-0.979
				c-0.026-0.151-0.086-0.302-0.175-0.427c-0.094-0.132-0.22-0.216-0.368-0.276c-0.303-0.124-0.651-0.14-0.974-0.092
				c-0.143,0.021-0.29,0.062-0.415,0.136c-0.143,0.085-0.226,0.207-0.276,0.362c-0.133,0.414,0.074,0.829,0.377,1.106
				c0.298,0.274,0.683,0.466,1.085,0.517c0.102,0.013,0.188-0.095,0.188-0.187c0-0.112-0.086-0.175-0.188-0.188
				c0.045,0.005-0.013-0.002-0.018-0.003c-0.019-0.003-0.035-0.006-0.054-0.011c-0.03-0.006-0.06-0.015-0.09-0.023
				c-0.067-0.02-0.146-0.048-0.189-0.068c-0.131-0.06-0.278-0.146-0.38-0.225c-0.121-0.095-0.227-0.206-0.297-0.322
				c-0.068-0.113-0.104-0.223-0.101-0.347c0.001-0.013,0.002-0.026,0.002-0.039c0.006-0.062-0.008,0.031,0.006-0.03
				c0.007-0.034,0.016-0.067,0.027-0.101c0.008-0.021,0.019-0.038,0.032-0.067c0.004-0.01,0.022-0.023-0.008,0.009
				c0.011-0.011,0.023-0.023,0.033-0.035c0.02-0.023,0,0-0.007,0.004c0.011-0.008,0.022-0.015,0.033-0.023
				c0.021-0.012,0.042-0.023,0.063-0.035c0.044-0.022-0.037,0.013,0.011-0.005c0.016-0.006,0.03-0.011,0.045-0.016
				c0.032-0.011,0.064-0.02,0.098-0.027c0.227-0.053,0.513-0.046,0.749,0.02c0.028,0.008,0.057,0.017,0.084,0.026
				c0.016,0.006,0.031,0.012,0.047,0.018c-0.039-0.016,0.01,0.005,0.015,0.007c0.022,0.012,0.045,0.023,0.067,0.037
				c0.01,0.006,0.021,0.014,0.031,0.021c0.011,0.008,0.008,0.005-0.011-0.008c0.008,0.005,0.015,0.011,0.022,0.018
				c0.016,0.015,0.031,0.031,0.046,0.048c-0.029-0.035,0.006,0.012,0.01,0.017c0.01,0.015,0.019,0.031,0.028,0.047
				c0.039,0.07,0.041,0.078,0.063,0.155c0.009,0.032,0.016,0.064,0.021,0.097c0.003,0.009,0.008,0.048,0.004,0.013
				c0.002,0.018,0.004,0.037,0.005,0.055c0.005,0.067,0.003,0.134-0.003,0.202c-0.006,0.06,0.007-0.036-0.003,0.024
				c-0.003,0.015-0.006,0.03-0.008,0.046c-0.008,0.033-0.016,0.066-0.024,0.099c-0.02,0.068-0.04,0.123-0.06,0.164
				c-0.029,0.06-0.063,0.119-0.103,0.174c0.003-0.003-0.032,0.044-0.018,0.024s-0.022,0.026-0.02,0.023
				c-0.022,0.027-0.047,0.053-0.074,0.078c-0.077,0.072-0.182,0.135-0.288,0.164c-0.016,0.003-0.096,0.018-0.065,0.014
				c-0.03,0.004-0.062,0.005-0.092,0.005c-0.095-0.001-0.131-0.01-0.229-0.035c-0.062-0.015-0.159-0.047-0.188-0.061
				c-0.025-0.014-0.051-0.028-0.076-0.043c-0.006-0.003-0.047-0.036-0.013-0.008c-0.016-0.012-0.029-0.026-0.043-0.04
				c-0.006-0.006-0.012-0.014-0.019-0.021c0.032,0.037-0.003-0.006-0.009-0.017c-0.004-0.007-0.007-0.015-0.012-0.023
				c-0.016-0.024,0.007,0.034-0.005-0.015c-0.003-0.017-0.013-0.092-0.011-0.04c0-0.026-0.003-0.052-0.002-0.08
				c0-0.014,0.001-0.028,0.002-0.041c0-0.006,0.008-0.061,0.003-0.032c-0.005,0.031,0.003-0.016,0.003-0.018
				c0.005-0.02,0.008-0.039,0.013-0.059c0.013-0.061,0.029-0.122,0.046-0.182c0.077-0.276,0.165-0.554,0.107-0.842
				c-0.02-0.1-0.139-0.156-0.23-0.131C17.315,44.492,17.269,44.595,17.288,44.694L17.288,44.694z"/>
		</g>
		<g>
			<path fill="#222221" d="M14.448,42.347c-0.151-0.246-0.38-0.358-0.665-0.313c-0.061,0.009-0.118,0.074-0.131,0.131
				c-0.099,0.43-0.157,0.969,0.062,1.373c0.19,0.352,0.669,0.53,1.043,0.584c0.219,0.031,0.444,0.029,0.647-0.07
				c0.172-0.083,0.28-0.249,0.314-0.435c0.07-0.393-0.036-0.857-0.231-1.204c-0.119-0.212-0.323-0.362-0.564-0.404
				c-0.271-0.047-0.548,0-0.82,0c0,0.125,0,0.25,0,0.375c0.234-0.007,0.458,0.023,0.686,0.079c0.224,0.056,0.444,0.12,0.672,0.158
				c0.1,0.017,0.202-0.027,0.231-0.131c0.024-0.09-0.031-0.214-0.132-0.231c-0.235-0.04-0.464-0.108-0.696-0.164
				c-0.249-0.061-0.504-0.094-0.761-0.086c-0.241,0.007-0.242,0.375,0,0.375c0.211,0,0.422-0.028,0.634-0.02
				c0.152,0.006,0.291,0.053,0.382,0.167c0.023,0.029,0.064,0.107,0.09,0.158c0.003,0.008,0.007,0.016,0.011,0.023
				c-0.002-0.002-0.01-0.023-0.002-0.002c0.009,0.02,0.017,0.04,0.023,0.061c0.016,0.04,0.028,0.081,0.041,0.122
				c0.055,0.178,0.083,0.322,0.083,0.499c0,0.037-0.002,0.075-0.006,0.113c-0.002,0.023,0,0,0.001-0.005
				c-0.002,0.009-0.003,0.017-0.004,0.026c-0.005,0.02-0.009,0.04-0.014,0.058c-0.003,0.007-0.021,0.057-0.013,0.038
				c0.008-0.019-0.011,0.02-0.015,0.027c-0.004,0.006-0.029,0.04-0.015,0.023c0.014-0.017-0.021,0.018-0.026,0.023
				c0.028-0.026-0.063,0.036-0.052,0.03c0.015-0.007-0.025,0.009-0.033,0.012c-0.021,0.006-0.041,0.011-0.061,0.016
				c-0.009,0.002-0.053,0.01-0.022,0.006c-0.022,0.003-0.045,0.004-0.067,0.006c-0.043,0.002-0.086,0.001-0.128-0.001
				c-0.085-0.005-0.146-0.017-0.24-0.041c-0.077-0.02-0.186-0.056-0.237-0.078c-0.075-0.032-0.148-0.071-0.218-0.117
				c-0.018-0.011-0.035-0.023-0.053-0.036c0.024,0.017-0.008-0.007-0.015-0.013c-0.026-0.022-0.05-0.046-0.073-0.071
				c-0.012-0.015,0.003,0.004,0.005,0.006c-0.01-0.013-0.019-0.027-0.026-0.041c-0.013-0.02-0.023-0.04-0.033-0.062
				c0.007,0.016-0.013-0.033-0.016-0.041c-0.008-0.024-0.015-0.048-0.021-0.072c-0.027-0.105-0.035-0.192-0.037-0.304
				c-0.004-0.223,0.02-0.418,0.067-0.63c-0.043,0.044-0.087,0.087-0.131,0.131c0.044-0.007,0.094,0.002,0.123,0.017
				c0.047,0.023,0.085,0.07,0.117,0.123C14.25,42.741,14.574,42.553,14.448,42.347L14.448,42.347z"/>
		</g>
	</g>
</g>
</svg>
