<?xml version="1.0" encoding="utf-8"?>
<!-- Generator: Adobe Illustrator 16.0.0, SVG Export Plug-In . SVG Version: 6.00 Build 0)  -->
<!DOCTYPE svg PUBLIC "-//W3C//DTD SVG 1.1//EN" "http://www.w3.org/Graphics/SVG/1.1/DTD/svg11.dtd">
<svg version="1.1" id="Layer_1" xmlns="http://www.w3.org/2000/svg" xmlns:xlink="http://www.w3.org/1999/xlink" x="0px" y="0px"
	 width="150px" height="150px" viewBox="0 0 150 150" enable-background="new 0 0 150 150" xml:space="preserve">
<linearGradient id="SVGID_1_" gradientUnits="userSpaceOnUse" x1="7.3936" y1="74.3037" x2="141" y2="74.3037">
	<stop  offset="0" style="stop-color:#0E7BC1"/>
	<stop  offset="0.7688" style="stop-color:#1272A3"/>
</linearGradient>
<circle fill="url(#SVGID_1_)" cx="74.197" cy="74.304" r="66.803"/>
<path fill="#FAFCFD" d="M116.248,53.253h-9.646c-0.609,0-1.104,0.492-1.104,1.101c0,0.001,0,0.002,0,0.003v1.694h-9.946
	c-2.127-0.923-12.143-5.212-16.279-5.913c-1.453-0.245-2.9-0.113-4.573,0.033c-3.249,0.29-7.283,0.649-13.38-1.694
	c-1.146-0.437-2.429-0.318-3.476,0.32c-1.182,0.698-1.981,1.896-2.171,3.254c-0.155,1.373-0.032,2.763,0.361,4.087h-9.2v-1.782
	c0-0.608-0.492-1.103-1.102-1.104c-0.001,0-0.002,0-0.003,0h-9.644c-0.609,0-1.104,0.492-1.104,1.101c0,0.001,0,0.002,0,0.003
	v34.371c0,0.61,0.495,1.104,1.104,1.104h9.644c0.61,0,1.104-0.494,1.104-1.104v-1.786c1.13,1.287,2.765,2.018,4.478,2
	c0.334-0.004,0.669-0.033,0.999-0.09c0.111,1.188,0.589,2.313,1.367,3.218c1.129,1.294,2.769,2.029,4.486,2.011
	c0.551-0.01,1.098-0.088,1.628-0.235c0.203,0.905,0.625,1.748,1.226,2.454c1.13,1.294,2.771,2.029,4.488,2.011
	c0.926-0.012,1.838-0.218,2.678-0.607c0.227,0.815,0.631,1.572,1.186,2.214c1.126,1.289,2.759,2.02,4.47,2.003
	c1.084-0.01,2.149-0.288,3.103-0.809l0.992,0.799c1.111,0.898,2.494,1.393,3.922,1.401c0.248,0.001,0.496-0.016,0.742-0.048
	c1.526-0.186,2.908-0.994,3.822-2.23c0.431-0.59,0.744-1.258,0.924-1.967c0.801,0.235,1.642,0.307,2.471,0.206
	c1.523-0.188,2.903-0.994,3.814-2.229c0.477-0.644,0.812-1.381,0.982-2.163c0.571,0.096,1.154,0.106,1.729,0.034
	c1.525-0.188,2.908-0.993,3.821-2.229c0.698-0.943,1.095-2.074,1.136-3.246c0.229-0.004,0.453-0.02,0.679-0.048
	c1.367-0.178,2.62-0.855,3.518-1.904v1.241c0,0.61,0.494,1.104,1.104,1.104h9.645c0.61,0,1.104-0.494,1.104-1.104V54.358
	C117.35,53.75,116.856,53.255,116.248,53.253z M53.213,84.498c-1.016,0.875-2.447,0.888-3.192,0.022
	c-0.346-0.415-0.5-0.956-0.427-1.491c0.086-0.658,0.419-1.259,0.931-1.682l6.981-6.178c0.473-0.419,1.081-0.654,1.712-0.664
	c1.021-0.043,1.884,0.75,1.927,1.771c0.005,0.121-0.002,0.242-0.02,0.361c-0.087,0.658-0.42,1.258-0.932,1.682L53.213,84.498z
	 M59.882,89.454c-1.016,0.874-2.449,0.884-3.192,0.021c-0.743-0.864-0.528-2.28,0.508-3.183l7.98-7.178
	c0.474-0.417,1.081-0.652,1.713-0.662c0.563-0.015,1.105,0.22,1.48,0.642c0.746,0.864,0.528,2.28-0.508,3.184L59.882,89.454z
	 M67.218,93.688c-1.016,0.877-2.447,0.88-3.189,0.021c-0.348-0.414-0.503-0.955-0.428-1.49c0.087-0.656,0.418-1.256,0.928-1.679
	l6.697-5.894c0.473-0.419,1.081-0.654,1.712-0.664c1.021-0.043,1.884,0.751,1.927,1.772c0.005,0.12-0.002,0.241-0.02,0.359
	c-0.086,0.657-0.417,1.257-0.928,1.679L67.218,93.688z M78.694,94.337l-3.128,2.97c-1.016,0.874-2.446,0.884-3.191,0.02
	c-0.345-0.414-0.5-0.955-0.427-1.489c0.096-0.68,0.447-1.297,0.983-1.727l3.127-2.971c0.474-0.418,1.08-0.652,1.711-0.662
	c1.028-0.036,1.891,0.77,1.926,1.798c0.004,0.111-0.002,0.223-0.019,0.334c-0.097,0.678-0.448,1.293-0.982,1.721V94.337z
	 M83.22,98.677c-0.271,0.365-0.683,0.602-1.135,0.653c-0.601,0.059-1.201-0.124-1.667-0.508l-0.355-0.304l1.307-1.239
	c0.59-0.512,1.088-1.124,1.468-1.806c0.052,0.25,0.15,0.487,0.293,0.699c0.548,0.82,0.59,1.824,0.09,2.497V98.677z M102.6,84.801
	c-0.27,0.366-0.679,0.604-1.129,0.654c-0.603,0.059-1.202-0.124-1.67-0.508l-0.72-0.578c-0.889-0.645-2.132-0.448-2.777,0.441
	c-0.57,0.784-0.49,1.866,0.188,2.559c0.891,0.819,1.105,2.115,0.489,2.948c-0.271,0.365-0.682,0.603-1.134,0.654
	c-0.603,0.06-1.203-0.123-1.669-0.508l-0.688-0.553c-0.857-0.686-2.108-0.548-2.795,0.31c-0.498,0.622-0.576,1.482-0.199,2.184
	c0.418,0.779,0.399,1.672-0.05,2.276c-0.27,0.364-0.678,0.601-1.128,0.652c-0.604,0.061-1.206-0.123-1.673-0.509l-1.633-1.312
	c-0.729-0.581-1.765-0.572-2.483,0.02c0.031-0.156,0.082-0.305,0.1-0.462c0.211-1.644-0.285-3.299-1.365-4.555
	c-0.896-1.024-2.129-1.698-3.477-1.9c0-0.015,0.009-0.03,0.011-0.047c0.208-1.641-0.288-3.293-1.365-4.547
	c-1.186-1.38-2.911-2.033-4.665-1.982c-0.046-1.302-0.53-2.55-1.375-3.541c-1.641-1.9-4.276-2.471-6.634-1.643
	c-0.199-0.92-0.622-1.775-1.231-2.492c-2.182-2.523-6.13-2.696-8.821-0.375l-6.985,6.18c-0.323,0.281-0.621,0.593-0.887,0.93V60.106
	h11.403c0.912,0.973,2.005,1.759,3.218,2.314c5.603,2.63,8.699,2.852,10.748,2.998c1.45,0.104,1.599,0.147,1.99,0.588
	c5.393,6.024,12.122,6.323,14.886,6.151c3.773,2.74,7.728,5.689,11.509,8.584l1.455,1.016c0.939,0.793,1.198,2.172,0.556,3.039
	V84.801z M105.499,78.813l-13.231-9.781c-0.505-0.321-1.061-0.554-1.645-0.685c-0.422-0.114-0.856-0.176-1.293-0.185
	c-0.134,0-0.268,0-0.401,0.014c-0.219,0.015-0.491,0.023-0.773,0.027c-0.126,0-0.265,0-0.401,0c-0.169,0-0.339-0.012-0.523-0.021
	c-0.207-0.011-0.41-0.022-0.634-0.043l-0.146-0.019c-0.611-0.068-1.217-0.173-1.815-0.315l-0.222-0.051
	c-0.339-0.086-0.678-0.186-1.037-0.304c-0.066-0.023-0.132-0.05-0.199-0.072c-0.797-0.276-1.566-0.623-2.303-1.035
	c-0.734-0.408-1.432-0.881-2.082-1.414l0,0c-0.583-0.483-1.129-1.009-1.635-1.574c-0.248-0.275-0.521-0.527-0.818-0.75
	c-0.054-0.042-0.109-0.087-0.169-0.125c-0.254-0.182-0.526-0.339-0.812-0.467c-0.034-0.016-0.069-0.027-0.104-0.041
	c-0.266-0.112-0.542-0.202-0.823-0.27l-0.054-0.013c-0.307-0.069-0.617-0.12-0.93-0.153l0,0c-0.32-0.035-0.642-0.061-0.967-0.085
	c-1.354-0.096-3.239-0.241-6.266-1.354c-0.455-0.169-0.932-0.351-1.435-0.561c-0.503-0.21-1.057-0.45-1.634-0.721
	c-0.42-0.199-0.817-0.442-1.186-0.725c-0.112-0.083-0.213-0.169-0.313-0.259c-0.209-0.181-0.405-0.376-0.586-0.584
	c-0.089-0.104-0.186-0.204-0.263-0.309c-1.461-1.956-1.197-4.234-1.185-4.365c0.034-0.16,0.129-0.301,0.267-0.391
	c6.959,2.679,11.7,2.259,15.167,1.953c1.404-0.125,2.616-0.23,3.557-0.073c3.372,0.571,12.499,4.38,15.73,5.801l0.385,0.169h10.698
	l0.077,8.083L105.499,78.813z"/>
</svg>
