<?xml version="1.0" encoding="utf-8"?>
<!-- Generator: Adobe Illustrator 16.0.0, SVG Export Plug-In . SVG Version: 6.00 Build 0)  -->
<!DOCTYPE svg PUBLIC "-//W3C//DTD SVG 1.1//EN" "http://www.w3.org/Graphics/SVG/1.1/DTD/svg11.dtd">
<svg version="1.1" id="Layer_1" xmlns="http://www.w3.org/2000/svg" xmlns:xlink="http://www.w3.org/1999/xlink" x="0px" y="0px"
	 width="9000px" height="4000px" viewBox="0 0 9000 4000" enable-background="new 0 0 9000 4000" xml:space="preserve">
<path opacity="0.1" fill="#7C8A99" d="M0,151.924C7.438,102.246,15.54,51.608,24.314,0h6.708C19.532,67.561,9.217,133.408,0,197.646
	V151.924z M443.586,0c-181.821,1131.137-32.354,1778.166,307.531,2124.276c290.637,295.954,720.801,372.087,1202.07,343.099
	c16.119-2.755,32.238-5.505,48.408-8.207c23.529-4.058,47.105-8.082,70.749-12.035c23.529-4.058,47.105-8.082,70.747-12.032
	c23.529-4.058,47.105-8.076,70.749-12.035c23.529-4.058,47.105-8.076,70.747-12.033c23.529-4.058,47.105-8.083,70.749-12.032
	c23.529-4.059,47.105-8.083,70.747-12.035c23.529-4.059,47.105-8.083,70.749-12.033c23.529-4.058,47.105-8.083,70.747-12.035
	c23.529-4.056,47.105-8.073,70.749-12.033c23.529-4.058,47.105-8.075,70.747-12.032c23.529-4.058,47.105-8.083,70.747-12.035
	c23.531-4.058,47.107-8.076,70.749-12.033c23.529-4.058,47.105-8.075,70.747-12.032c23.531-4.059,47.107-8.076,70.749-12.035
	c23.529-4.059,47.105-8.076,70.747-12.033c23.531-4.058,47.111-8.076,70.749-12.035c23.529-4.056,47.112-8.08,70.747-12.033
	c23.531-4.058,47.107-8.075,70.749-12.032c23.529-4.058,47.105-8.076,70.747-12.035c23.529-4.058,47.112-8.081,70.749-12.033
	c23.529-4.058,47.112-8.075,70.747-12.032c23.529-4.059,47.105-8.076,70.749-12.035c23.529-4.065,47.112-8.069,70.747-12.033
	c23.529-4.058,47.105-8.083,70.749-12.035c23.522-4.063,47.106-8.081,70.748-12.033
	c1430.73-246.738,3077.52-319.045,3637.187,1327.076c64.418,189.484,117.069,360.745,163.31,514.6h-6.926
	c-46.109-153.383-98.594-324-162.668-512.475C6952.628,2168.174,5802.359,1956.142,4626.4,2051.681
	c1153.378-81.414,2269.339,148.688,2710.33,1445.752c62.745,184.558,114.328,351.841,159.692,502.567h-6.928
	c-45.231-150.256-96.64-316.888-159.046-500.442c-448.578-1319.351-1598.84-1531.387-2774.796-1435.842
	c1153.376-81.421,2269.339,148.688,2710.329,1445.753c61.078,179.66,111.579,342.946,156.066,490.531h-6.928
	c-44.347-147.107-94.674-309.735-155.422-488.406c-448.566-1319.352-1598.83-1531.391-2774.795-1435.845
	c1153.378-81.428,2269.339,148.681,2710.331,1445.752c59.426,174.794,108.842,334.082,152.441,478.499h-6.936
	c-43.459-143.933-92.695-302.563-151.787-476.374c-448.577-1319.352-1598.84-1531.395-2774.796-1435.845
	c1153.378-81.418,2269.339,148.688,2710.331,1445.752c57.775,169.955,106.09,325.243,148.799,466.467h-6.926
	c-42.578-140.725-90.704-295.357-148.158-464.342c-448.574-1319.351-1598.836-1531.387-2774.795-1435.842
	c1153.378-81.42,2269.346,148.688,2710.331,1445.752c56.145,165.138,103.35,316.443,145.162,454.432h-6.933
	c-41.673-137.492-88.692-288.125-144.511-452.307c-448.57-1319.351-1598.832-1531.39-2774.796-1435.844
	c1153.379-81.421,2269.34,148.688,2710.33,1445.752c54.517,160.352,100.6,307.657,141.508,442.398h-6.933
	c-40.764-134.238-86.666-280.867-140.858-440.273c-448.567-1319.352-1598.83-1531.388-2774.796-1435.842
	c1153.385-81.421,2269.34,148.682,2710.33,1445.75c52.896,155.59,97.865,298.896,137.857,430.365h-6.939
	c-39.848-130.951-84.621-273.588-137.199-428.238c-448.57-1319.347-1598.832-1531.39-2774.795-1435.844
	c1153.383-81.414,2269.346,148.688,2710.331,1445.752c51.289,150.853,95.119,290.162,134.189,418.33h-6.941
	c-38.921-127.649-82.561-266.275-133.531-416.205C6386.645,2264.443,5236.382,2052.397,4060.419,2147.95
	c1153.376-81.418,2269.343,148.688,2710.327,1445.752c49.683,146.145,92.367,281.457,130.513,406.298h-6.935
	c-37.994-124.315-80.482-258.944-129.859-404.173c-448.569-1319.351-1598.832-1531.395-2774.795-1435.842
	C5143.048,2078.551,6259.01,2308.674,6700,3605.737c48.094,141.461,89.627,272.771,126.832,394.263h-6.939
	c-37.061-120.954-78.387-251.579-126.176-392.138c-448.568-1319.347-1598.831-1531.39-2774.794-1435.844
	c1153.376-81.421,2269.337,148.681,2710.327,1445.752c46.508,136.808,86.895,264.11,123.146,382.229h-6.939
	c-36.107-117.575-76.279-244.194-122.488-380.104C6174.4,2300.544,5024.145,2088.501,3848.174,2184.051
	c1153.378-81.418,2269.34,148.684,2710.33,1445.752c44.934,132.172,84.154,255.478,119.454,370.197h-6.954
	c-35.151-114.166-74.147-236.788-118.783-368.072c-448.568-1319.351-1598.838-1531.387-2774.794-1435.842
	c1153.384-81.413,2269.345,148.688,2710.33,1445.752c43.367,127.563,81.406,246.863,115.742,358.162h-6.946
	c-34.178-110.741-72.012-229.357-115.079-356.037c-448.569-1319.351-1598.851-1531.39-2774.795-1435.844
	c1153.364-81.426,2269.34,148.688,2710.33,1445.752c41.806,122.974,78.663,238.283,112.023,346.129h-6.947
	c-33.199-107.295-69.844-221.899-111.359-344.004c-448.568-1319.352-1598.844-1531.388-2774.793-1435.842
	c1153.375-81.414,2269.336,148.688,2710.327,1445.75c40.26,118.412,75.923,229.718,108.299,334.096h-6.946
	c-32.21-103.813-67.667-214.422-107.633-331.969C5891.41,2348.685,4741.141,2136.635,3565.182,2232.188
	c1153.365-81.414,2269.34,148.688,2710.33,1445.752c38.711,113.876,73.18,221.169,104.559,322.061h-6.946
	c-31.214-100.32-65.469-206.917-103.896-319.936C5820.661,2360.72,4670.392,2148.674,3494.435,2244.22
	c1153.369-81.418,2269.337,148.682,2710.328,1445.753c37.179,109.358,70.444,212.649,100.813,310.027h-6.955
	c-30.196-96.802-63.249-199.392-100.14-307.902c-448.567-1319.352-1598.844-1531.396-2774.796-1435.843
	c1153.379-81.428,2269.347,148.688,2710.33,1445.752c35.648,104.87,67.699,204.148,97.053,297.993h-6.951
	c-29.183-93.254-61.02-191.841-96.385-295.868c-448.561-1319.351-1598.837-1531.403-2774.794-1435.844
	c1153.377-81.421,2269.34,148.688,2710.329,1445.752c34.13,100.394,64.957,195.674,93.281,285.96h-6.953
	c-28.145-89.688-58.761-184.271-92.61-283.835c-448.567-1319.352-1598.844-1531.39-2774.795-1435.842
	c1153.372-81.414,2269.346,148.686,2710.33,1445.75c32.622,95.943,62.222,187.221,89.505,273.927h-6.961
	c-27.11-86.102-56.483-176.681-88.827-271.803C5537.67,2408.847,4387.393,2196.811,3211.443,2292.355
	c1153.364-81.435,2269.332,148.682,2710.33,1445.753c31.113,91.513,59.482,178.784,85.708,261.892h-6.958
	c-26.055-82.503-54.199-169.068-85.034-259.767c-448.567-1319.352-1598.836-1531.397-2774.795-1435.845
	c1153.372-81.433,2269.346,148.682,2710.33,1445.752c29.614,87.111,56.742,170.371,81.906,249.859h-6.961
	c-24.983-78.869-51.887-161.434-81.229-247.734c-448.566-1319.344-1598.83-1531.383-2774.793-1435.842
	c1153.376-81.421,2269.344,148.682,2710.33,1445.752c28.124,82.729,54.005,161.977,78.092,237.824h-6.965
	c-23.902-75.23-49.559-153.774-77.41-235.699c-448.568-1319.352-1598.837-1531.39-2774.796-1435.844
	c1153.371-81.421,2269.339,148.688,2710.33,1445.752c26.638,78.358,51.265,153.608,74.261,225.791h-6.961
	c-22.805-71.564-47.21-146.098-73.581-223.666c-448.569-1319.352-1598.846-1531.395-2774.796-1435.845
	c1153.376-81.425,2269.34,148.682,2710.33,1445.753c25.162,74.015,48.532,145.256,70.422,213.758h-6.966
	c-21.704-67.872-44.843-138.408-69.739-211.633C5183.93,2469.016,4033.653,2256.958,2857.702,2352.524
	c1153.364-81.427,2269.347,148.688,2710.33,1445.753c23.696,69.689,45.805,136.912,66.577,201.723h-6.966
	c-20.582-64.166-42.464-130.69-65.893-199.598c-448.569-1319.352-1598.846-1531.404-2774.796-1435.845
	c1153.376-81.426,2269.34,148.688,2710.33,1445.752c22.227,65.389,43.06,128.605,62.711,189.69h-6.972
	c-19.453-60.44-40.054-122.955-62.022-187.565c-448.568-1319.351-1598.83-1531.395-2774.796-1435.842
	c1153.371-81.428,2269.339,148.687,2710.33,1445.75c20.774,61.105,40.318,120.312,58.827,177.657h-6.966
	c-18.31-56.701-37.628-115.197-58.143-175.533c-460.663-1354.938-1661.397-1541.96-2869.997-1427.389
	c-34.779,6.15-69.001,12.047-102.659,17.633c-23.848,4.151-47.438,8.17-70.747,12.035c-23.848,4.145-47.438,8.162-70.749,12.033
	c-23.855,4.144-47.438,8.169-70.747,12.035c-23.854,4.148-47.438,8.159-70.749,12.032c-23.848,4.145-47.436,8.163-70.747,12.032
	c-23.848,4.152-47.438,8.163-70.75,12.036c-23.848,4.142-47.435,8.159-70.747,12.032c-23.848,4.152-47.438,8.162-70.749,12.033
	c-23.848,4.151-47.436,8.162-70.747,12.035c-23.848,4.149-47.438,8.162-70.747,12.033c-23.85,4.15-47.438,8.162-70.749,12.035
	c-23.848,4.148-47.438,8.16-70.747,12.032c-23.85,4.151-47.438,8.163-70.749,12.033c-23.848,4.151-47.438,8.162-70.747,12.035
	c-23.85,4.149-47.438,8.16-70.749,12.032c-23.848,4.152-47.438,8.162-70.747,12.033c-23.85,4.151-47.438,8.162-70.749,12.035
	c-23.848,4.148-47.438,8.162-70.747,12.033c-23.851,4.151-47.438,8.162-70.75,12.035c-23.848,4.148-47.438,8.16-70.747,12.032
	c-23.848,4.151-47.438,8.163-70.749,12.033c-23.848,4.151-47.438,8.162-70.747,12.035c-23.848,4.149-47.438,8.16-70.749,12.032
	c-23.848,4.152-47.438,8.163-70.747,12.033c-23.848,4.151-47.438,8.162-70.75,12.035c-23.848,4.151-47.438,8.162-70.747,12.033
	c-23.848,4.151-47.438,8.162-70.749,12.035c-75.409,13.115-148.189,24.904-217.969,34.95
	c-108.183,15.58-214.958,27.488-319.437,34.608v-6.66c21.498-1.469,43.075-3.117,64.751-4.981
	c-21.69,1.44-43.268,2.654-64.751,3.671v-6.627c44.727-2.111,89.906-5.159,135.498-9.079c-45.632,3.036-90.818,5.134-135.498,6.223
	v-6.635c67.647-1.651,136.475-5.626,206.247-11.62c-69.873,4.641-138.712,7.112-206.247,7.084v-6.633
	c90.213,0.04,182.744-4.383,276.994-12.486c-94.442,6.275-186.987,8.574-276.994,6.091v-6.616
	c112.349,3.109,228.68-1.268,347.743-11.508c-119.382,7.931-235.727,9.517-347.743,3.102v-6.621
	c133.992,7.703,274.246,3.892,418.49-8.514c-144.729,9.615-285.009,9.934-418.49-2.08v-6.633
	c155.063,14.006,319.393,11.29,489.239-3.322c-170.538,11.33-334.9,9.763-489.239-9.701v-6.675
	c175.486,22.222,364.059,21.19,559.986,4.343c-196.869,13.076-385.503,8.959-559.986-20.035v-6.715
	c195.156,32.561,408.203,33.856,630.735,14.718c-223.774,14.86-436.921,7.53-630.735-33.327v-6.78
	c213.965,45.32,451.749,49.549,701.482,28.072c-251.354,16.695-489.298,5.379-701.482-49.994v-6.853
	c231.768,60.792,494.618,68.688,772.231,44.813c-279.686,18.574-542.766,2.477-772.231-70.43v-6.954
	c248.418,79.369,536.717,91.689,842.978,65.349c-308.885,20.517-597.52-1.249-842.978-95.133v-7.125
	c263.72,101.501,577.918,119.108,913.727,90.226c-339.091,22.52-653.78-5.904-913.727-124.773v-7.312
	c277.432,127.755,618.096,151.563,984.474,120.052C613.998,2665.706,272.646,2629.505,0,2480.957v-7.559
	c289.268,158.836,657.059,189.904,1055.223,155.668C651.952,2655.85,283.198,2610.572,0,2426.793v-7.917
	c298.844,195.675,694.582,235.254,1125.97,198.157C688.219,2646.108,291.122,2590.309,0,2364.578v-8.469
	c305.645,239.473,730.343,289.003,1196.716,248.892C722.375,2636.505,295.763,2568.328,0,2292.276v-9.079
	c308.161,291.154,761.539,352.757,1263.474,310.12l0.691-0.139c-490.293,32.104-929.365-42.638-1225.24-343.917
	c-13.277-13.521-26.233-27.554-38.924-41.998v-10.076c14.186,16.379,28.709,32.224,43.638,47.426
	c305.174,310.75,764.181,379.154,1274.665,337.967l2.683-0.525c-484.682,29.777-918.241-46.395-1211.314-344.828
	C70.529,2197.368,33.903,2153.535,0,2105.475v-11.63c35.211,50.818,73.392,96.989,114.387,138.733
	c302.198,307.723,755.243,377.807,1259.741,339.156l5.129-0.995c-479.643,27.713-908.287-49.683-1198.837-345.546
	C112.288,2155.815,51.781,2074.406,0,1979.566v-13.994c52.756,98.914,114.851,183.409,185.134,254.973
	c299.563,305.033,747.352,376.551,1246.553,340.125l6.801-1.301c-474.988,25.813-899.096-52.711-1187.322-346.208
	C149.094,2109.221,64.121,1978.296,0,1815.563v-18.316c64.466,169.23,151.113,304.576,255.883,411.265
	c297.124,302.557,740.073,375.397,1234.373,341.017l8.833-1.668c-470.869,24.147-891.001-55.326-1177.173-346.733
	C176.015,2052.56,65.037,1848.934,0,1575.932v-29.342c63.716,285.735,176.62,497.134,326.63,649.887
	c295.046,300.443,733.905,374.346,1224.041,341.698l10.339-1.919c-467.29,22.7-883.966-57.584-1168.347-347.164
	C45.472,1835.554-104.006,1170.206,93.048,0h6.708C-97.179,1168.451,51.51,1832.246,397.379,2184.445
	c293.251,298.611,728.565,373.437,1215.079,342.281l11.754-2.132c-464.227,21.472-877.949-59.511-1160.801-347.534
	C117.409,1824.728-32.23,1162.728,161.778,0h6.708c-193.889,1160.968-45.041,1821.426,299.64,2172.41
	c291.892,297.23,724.521,372.767,1208.321,342.736l12.717-2.306c-461.877,20.527-873.327-60.991-1155.004-347.815
	C189.351,1813.911,39.535,1155.289,230.514,0h6.708C46.355,1153.516,195.381,1810.603,538.875,2160.377
	c291.007,296.326,721.902,372.301,1203.917,343.001l13.806-2.438c-460.528,19.991-870.691-61.814-1151.689-347.947
	C261.288,1803.091,111.278,1147.872,299.249,0h6.7c-187.856,1146.099-38.631,1799.783,303.672,2148.344
	c290.636,295.947,720.801,372.095,1202.072,343.1l14.596-2.497c-460.103,19.822-869.848-62.069-1150.635-347.989
	C333.253,1792.286,183.124,1140.379,368.072,0h6.694c-184.836,1138.608-35.49,1788.971,305.605,2136.309
	c290.634,295.955,720.801,372.09,1202.07,343.102l14.598-2.497c-460.099,19.823-869.85-62.075-1150.635-347.989
	C405.208,1781.488,254.967,1132.915,436.893,0H443.586z"/>
<path opacity="0.1" fill="#7C8A99" d="M5748.539,0c706.311,319.418,1082.582,759.598,1320.222,1218.984
	C6843.66,764.766,6489.867,325.88,5823.318,0h15.246c636.871,314.404,986.561,732.383,1211.721,1167.648
	C6836.813,736.879,6507.631,319.884,5905.668,0h14.217c574.139,307.842,898.824,704.337,1111.925,1116.314
	C6829.575,708.235,6523.504,312.504,5980.049,0h13.535c517.25,299.954,818.305,675.563,1019.75,1064.978
	C6822.018,678.929,6537.723,303.943,6047.487,0h12.839c465.549,290.929,744.432,646.129,934.531,1013.641
	C6814.174,649.051,6550.547,294.335,6108.852,0h12.213c418.398,280.899,676.248,616.136,855.318,962.305
	C6806.09,618.667,6562.09,283.81,6164.791,0h11.656c375.288,269.996,613.174,585.646,781.46,910.969
	C6797.77,587.833,6572.463,272.465,6215.807,0h11.178c335.834,258.293,554.719,554.721,712.447,859.635
	C6789.256,556.6,6581.762,260.399,6262.39,0h10.745c299.668,245.902,500.442,523.393,647.82,808.298
	C6780.563,525.007,6590.068,247.688,6304.926,0h10.36c266.487,232.892,449.982,491.715,587.194,756.962
	C6771.717,493.09,6597.486,234.392,6343.789,0h10.002c236.013,219.33,403.012,459.712,530.213,705.626
	C6762.717,460.881,6604.067,220.579,6379.278,0h9.665c208.018,205.263,359.229,427.43,476.584,654.29
	C6753.587,428.4,6609.813,206.301,6411.596,0h9.423c182.292,190.754,318.401,394.881,426.034,602.956
	C6744.336,395.685,6614.785,191.616,6441.001,0h9.259c158.658,175.851,280.281,362.1,378.318,551.619
	c-93.6-188.868-209.5-375.072-360.813-551.619h8.998c136.947,160.597,244.785,329.101,333.338,500.283
	C6725.534,329.633,6622.756,161.147,6492.105,0h8.738c117.004,145.022,211.619,295.91,290.781,448.947
	C6715.996,296.334,6625.83,145.455,6514.175,0h8.499c98.695,129.156,180.613,262.55,250.477,397.61
	C6706.381,262.876,6628.254,129.489,6534.045,0h8.373c81.892,113.052,151.609,229.034,212.256,346.274
	C6696.691,229.272,6630.107,113.297,6551.908,0h8.309c66.471,96.729,124.482,195.376,175.982,294.94
	C6686.943,195.547,6631.483,96.902,6567.98,0h8.102c52.346,80.205,99.219,161.593,141.641,243.604
	C6677.141,161.712,6632.379,80.317,6582.358,0h7.889c39.401,63.529,75.603,127.704,109.001,192.268
	C6667.291,127.776,6632.693,63.597,6595.017,0h7.829c27.566,46.7,53.502,93.713,77.929,140.931
	C6657.391,93.753,6632.566,46.739,6606.206,0h7.783c16.729,29.766,32.813,59.637,48.31,89.595
	C6647.461,59.658,6632.047,29.78,6616.041,0h7.599c6.827,12.738,13.574,25.49,20.184,38.261
	c-6.331-12.771-12.8-25.516-19.334-38.261h20.873c59.253,126.846,109.272,254.496,153.995,380.854
	c6.248,17.135,12.427,34.243,18.475,51.336c6.25,17.129,12.428,34.25,18.477,51.336c6.248,17.128,12.426,34.248,18.475,51.336
	c6.248,17.133,12.428,34.24,18.477,51.336c6.248,17.133,12.424,34.241,18.477,51.336c6.248,17.126,12.424,34.248,18.475,51.334
	c6.249,17.129,12.424,34.25,18.475,51.336c6.25,17.128,12.425,34.248,18.477,51.336c6.249,17.128,12.424,34.248,18.477,51.336
	c6.248,17.126,12.424,34.247,18.475,51.336c6.249,17.126,12.426,34.248,18.477,51.334c6.248,17.128,12.424,34.25,18.476,51.336
	c6.248,17.135,12.424,34.248,18.476,51.336c6.248,17.128,12.424,34.248,18.475,51.336c6.25,17.126,12.424,34.255,18.477,51.336
	c6.248,17.126,12.424,34.248,18.476,51.334c6.248,17.128,12.424,34.25,18.476,51.336c6.248,17.128,12.424,34.255,18.476,51.336
	c6.248,17.128,12.425,34.248,18.476,51.336c6.248,17.126,12.424,34.254,18.475,51.336c6.25,17.126,12.426,34.248,18.477,51.336
	c3.367,9.238,6.713,18.468,10.021,27.699c256.003,477.304,695.406,756.482,1802.634,580.586v6.7
	c-1081.924,171.794-1528.131-89.78-1787.875-546.35l3.717,10.4c254.568,474.634,690.524,753.321,1784.158,583.461v6.735
	c-1068.563,165.894-1511.143-95.302-1769.4-549.262l3.718,10.4c253.133,471.979,685.544,750.262,1765.683,586.359v6.721
	c-1055.256,160.056-1494.147-100.801-1750.925-552.144l3.718,10.399c251.68,469.283,680.636,747.015,1747.207,589.096v6.693
	c-1041.84,154.201-1477.186-106.158-1732.449-554.853l3.718,10.4c250.218,466.539,675.702,743.753,1728.731,591.778v6.727
	c-1029.295,148.521-1460.867-111.908-1714.545-558.538l3.353,9.603c248.632,464.871,670.282,742.51,1711.192,596.213v6.74
	c-1018.476,143.124-1445.945-118.503-1697.869-564.395l2.861,8.394c246.864,464.719,664.371,744.011,1695.008,603.145v6.683
	c-1009.006,137.869-1432.259-125.79-1682.271-572.105l2.438,7.277c244.957,465.689,658.109,747.533,1679.832,611.933v6.722
	c-1000.637,132.795-1419.42-133.659-1667.447-581.23l1.994,6.068c242.99,467.542,651.5,752.733,1665.453,622.221v6.747
	c-993.113,127.849-1407.254-141.967-1653.229-591.431l1.549,4.789c240.965,470.044,644.693,759.131,1651.68,633.609v6.668
	c-986.033,122.912-1395.605-150.516-1639.488-602.323l0.917,2.868c238.868,473.333,637.739,766.902,1638.571,646.333v6.708
	c-979.766,118.053-1384.568-159.611-1626.298-614.45l0.186,0.593c236.73,477.475,630.417,776.379,1626.112,660.664v6.748
	c-969.238,112.699-1369.91-166.32-1609.889-620.633c235.023,477.157,624.572,777.654,1609.889,667.387v6.682
	c-955.855,107.014-1352.97-171.322-1591.413-622.731c233.549,474.155,619.743,773.816,1591.413,669.37v6.701
	c-942.469,101.369-1336.047-176.24-1572.937-624.735c232.06,471.141,614.861,769.97,1572.937,671.296v6.769
	c-929.213,95.792-1319.113-181.177-1554.461-626.73c230.566,468.113,609.842,766.207,1554.461,673.231v6.668
	c-915.878,90.221-1302.213-185.979-1535.986-628.563c229.053,465.037,604.953,762.215,1535.986,674.95v6.708
	c-902.596,84.7-1285.315-190.727-1517.51-630.322c227.531,461.942,599.978,758.236,1517.51,676.623v6.788
	c-889.438,79.261-1268.421-195.476-1499.033-632.075c226.011,458.854,594.865,754.364,1499.033,678.311v6.64
	c-876.144,73.805-1251.553-200.069-1480.56-633.613c224.449,455.687,589.926,750.193,1480.56,679.737v6.733
	c-862.961,68.425-1234.699-204.646-1462.084-635.138c222.896,452.534,584.845,746.11,1462.084,681.16v6.782
	c-849.871,63.103-1217.842-209.183-1443.607-636.605c221.322,449.358,579.689,742.038,1443.607,682.527v6.668
	c-836.662,57.779-1201.02-213.563-1425.131-637.859c219.734,446.131,574.648,737.741,1425.131,683.69v6.769
	c-823.598,52.536-1184.192-217.962-1406.656-639.122c218.139,442.895,569.455,733.545,1406.656,684.845v6.74
	c-810.536,47.344-1167.392-222.251-1388.18-640.249c216.531,439.622,564.262,729.242,1388.18,685.873v6.708
	c-797.459,42.178-1150.596-226.447-1369.705-641.247C7845.194,3149.758,8189.392,3438.273,9000,3400.2v6.813
	c-784.529,37.099-1133.818-230.632-1351.23-642.236c213.275,433.002,553.784,720.51,1351.23,687.636v6.682
	c-981.393,40.742-1273.582-401.889-1486.011-1004.569c-6.229-16.988-12.394-34.089-18.476-51.337
	c-6.229-16.98-12.395-34.074-18.476-51.336c-6.229-16.974-12.394-34.074-18.476-51.334c-6.23-16.983-12.395-34.084-18.476-51.337
	c-6.229-16.987-12.394-34.083-18.476-51.336c-6.23-16.98-12.395-34.081-18.477-51.336c-6.223-16.988-12.393-34.074-18.475-51.337
	c-6.23-16.98-12.395-34.081-18.476-51.334c-6.224-16.987-12.401-34.076-18.476-51.336c-6.23-16.981-12.395-34.083-18.476-51.336
	c-6.23-16.988-12.394-34.081-18.476-51.336c-6.23-16.98-12.394-34.081-18.477-51.336c-6.229-16.981-12.394-34.081-18.477-51.334
	c-6.229-16.983-12.393-34.083-18.475-51.336c-6.229-16.981-12.394-34.083-18.475-51.336c-6.223-16.981-12.395-34.081-18.477-51.336
	c-6.223-16.988-12.394-34.082-18.475-51.336c-6.23-16.981-12.395-34.082-18.477-51.334c-6.229-16.983-12.394-34.083-18.477-51.336
	c-6.229-16.988-12.391-34.083-18.476-51.336c-6.229-16.981-12.39-34.084-18.474-51.336c-6.23-16.981-12.393-34.082-18.477-51.336
	c-6.169-16.821-12.271-33.756-18.295-50.837C6852.229,794.365,6472.222,331.193,5732.135,0H5748.539z"/>
</svg>
