<?xml version="1.0" encoding="utf-8"?>
<!-- Generator: Adobe Illustrator 16.0.0, SVG Export Plug-In . SVG Version: 6.00 Build 0)  -->
<!DOCTYPE svg PUBLIC "-//W3C//DTD SVG 1.1//EN" "http://www.w3.org/Graphics/SVG/1.1/DTD/svg11.dtd">
<svg version="1.1" id="Layer_1" xmlns="http://www.w3.org/2000/svg" xmlns:xlink="http://www.w3.org/1999/xlink" x="0px" y="0px"
	 width="60.197px" height="66.611px" viewBox="0 0 60.197 66.611" enable-background="new 0 0 60.197 66.611" xml:space="preserve">
<g>
	<g>
		<path fill-rule="evenodd" clip-rule="evenodd" fill="#985824" d="M32.223,22.209c0.281-3.661,1.523-7.501,0.631-10.899
			c-2.08-4.856-11.909-7.146-16.632-6.285c-2.952,4.968-1.732,11.096-1.189,16.757L32.223,22.209z"/>
		<path fill-rule="evenodd" clip-rule="evenodd" fill="#8B4B20" d="M23.577,21.995V5.481c4.03,0.946,8.035,2.93,9.277,5.83
			c0.892,3.398-0.35,7.238-0.631,10.899L23.577,21.995z"/>
		<path fill-rule="evenodd" clip-rule="evenodd" fill="#B3D8DE" d="M23.425,56.563c2.609,0.037,5.175-0.075,7.709-0.34V32.968
			l-0.866-0.379c-1.905-0.834-4.264-1.792-6.844-2.143V56.563z"/>
		<path fill-rule="evenodd" clip-rule="evenodd" fill="#B3D8DE" d="M23.425,56.563c-2.608,0.037-5.173-0.075-7.708-0.34V32.968
			l0.866-0.379c1.906-0.834,4.265-1.792,6.843-2.143V56.563z"/>
		<path fill-rule="evenodd" clip-rule="evenodd" fill="#E0AD7E" d="M17.922,25.87H28.93v6.641c-3.67,2.916-7.339,3.033-11.008,0
			V25.87z"/>
		<path fill-rule="evenodd" clip-rule="evenodd" fill="#F1C195" d="M18.894,12.236c-1.56-0.304-3.053,1.291-3.333,2.854
			c-0.256,1.434-0.437,2.905-0.503,4.38c-0.041-0.007,0.188-0.012-0.126-0.012c-0.315,0-1.339,0.233-1.291,1.595
			c0.037,1.021,0.924,3.99,2.092,3.503c1.691,4.531,3.967,7.088,7.692,7.995c0.063-0.12,0.092-0.028,0.151-0.066V12.712
			C22.073,12.718,20.57,12.564,18.894,12.236z"/>
		<path fill-rule="evenodd" clip-rule="evenodd" fill="#EBB688" d="M28.109,12.236c1.56-0.304,3.052,1.291,3.333,2.854
			c0.257,1.434,0.437,2.905,0.503,4.38c0.041-0.007-0.188-0.012,0.127-0.012c0.314,0,1.339,0.233,1.29,1.595
			c-0.036,1.021-0.924,3.99-2.092,3.503c-1.715,4.593-4.027,7.122-7.844,7.995V12.712C24.929,12.718,26.432,12.564,28.109,12.236z"
			/>
		<polygon fill-rule="evenodd" clip-rule="evenodd" fill="#EF3F23" points="23.425,34.741 25.308,34.741 24.511,37.729 
			23.427,37.729 23.425,37.729 22.341,37.729 21.544,34.741 		"/>
		<polygon fill-rule="evenodd" clip-rule="evenodd" fill="#F1582F" points="24.511,37.638 25.282,48.94 23.425,52.328 21.57,48.94 
			22.341,37.638 		"/>
		<path fill-rule="evenodd" clip-rule="evenodd" fill="#F1F9FB" d="M23.425,34.741l-3.229,3.14l-3.614-5.292l1.34-0.729
			C19.274,33.285,21.127,34.192,23.425,34.741z"/>
		<path fill-rule="evenodd" clip-rule="evenodd" fill="#0F6486" d="M23.425,52.024l-7.927-18.962
			C8.335,36.153,3.735,38.535,2.926,47.608c3.255,5.807,11.026,10.56,20.5,10.553V52.024z"/>
		<path fill-rule="evenodd" clip-rule="evenodd" fill="#0A436A" d="M9.403,54.219c0.286,0.201,0.612,0.364,0.914,0.553l-0.021-3.753
			L9.403,54.219z"/>
		<polygon fill-rule="evenodd" clip-rule="evenodd" fill="#0475A4" points="23.425,52.024 23.425,56.813 15.964,43.452 
			18.184,40.761 14.805,39.635 13.279,34.035 16.971,32.421 		"/>
		<path fill-rule="evenodd" clip-rule="evenodd" fill="#F1F9FB" d="M23.425,34.741l3.23,3.14l3.614-5.292l-1.339-0.729
			C27.578,33.285,25.724,34.192,23.425,34.741z"/>
		<path fill-rule="evenodd" clip-rule="evenodd" fill="#105A76" d="M23.425,52.024l7.928-18.962
			c7.163,3.091,11.764,5.473,12.572,14.546c-3.255,5.807-11.025,10.56-20.5,10.553V52.024z"/>
		<path fill-rule="evenodd" clip-rule="evenodd" fill="#0A436A" d="M37.448,54.219c-0.286,0.201-0.613,0.364-0.913,0.553
			l0.021-3.753L37.448,54.219z"/>
		<polygon fill-rule="evenodd" clip-rule="evenodd" fill="#0E6D95" points="23.425,52.024 23.425,56.813 30.887,43.452 
			28.668,40.761 32.047,39.635 33.573,34.035 30.014,32.45 		"/>
	</g>
	<g>
		<path fill-rule="evenodd" clip-rule="evenodd" fill="#2A3133" d="M53.647,25.561H30.021c-1.069,0-1.943,0.874-1.943,1.944v31.063
			c0,1.068,0.874,1.943,1.943,1.943h23.626c1.069,0,1.943-0.875,1.943-1.943V27.505C55.591,26.435,54.717,25.561,53.647,25.561z"/>
		<path fill-rule="evenodd" clip-rule="evenodd" fill="#F2FAFD" d="M30.111,27.244h23.446c0.192,0,0.351,0.158,0.351,0.351v30.882
			c0,0.192-0.158,0.351-0.351,0.351H30.111c-0.193,0-0.35-0.158-0.35-0.351V27.595C29.761,27.402,29.918,27.244,30.111,27.244z"/>
		<path fill-rule="evenodd" clip-rule="evenodd" fill="#252A2C" d="M48.245,35.065H32.697c-0.104,0-0.188-0.084-0.188-0.188V33.95
			c0-0.104,0.085-0.189,0.188-0.189h15.548c0.104,0,0.189,0.085,0.189,0.189v0.928C48.435,34.981,48.349,35.065,48.245,35.065z"/>
		<path fill-rule="evenodd" clip-rule="evenodd" fill="#252A2C" d="M48.245,37.586H32.697c-0.104,0-0.188-0.085-0.188-0.189v-0.926
			c0-0.104,0.085-0.19,0.188-0.19h15.548c0.104,0,0.189,0.087,0.189,0.19v0.926C48.435,37.501,48.349,37.586,48.245,37.586z"/>
		<path fill-rule="evenodd" clip-rule="evenodd" fill="#252A2C" d="M48.245,40.105H32.697c-0.104,0-0.188-0.085-0.188-0.188V38.99
			c0-0.104,0.085-0.188,0.188-0.188h15.548c0.104,0,0.189,0.085,0.189,0.188v0.927C48.435,40.021,48.349,40.105,48.245,40.105z"/>
		<path fill-rule="evenodd" clip-rule="evenodd" fill="#252A2C" d="M48.245,42.627H32.697c-0.104,0-0.188-0.085-0.188-0.19v-0.926
			c0-0.104,0.085-0.189,0.188-0.189h15.548c0.104,0,0.189,0.085,0.189,0.189v0.926C48.435,42.542,48.349,42.627,48.245,42.627z"/>
		<path fill-rule="evenodd" clip-rule="evenodd" fill="#252A2C" d="M48.245,45.146H32.697c-0.104,0-0.188-0.085-0.188-0.188v-0.927
			c0-0.104,0.085-0.189,0.188-0.189h15.548c0.104,0,0.189,0.085,0.189,0.189v0.927C48.435,45.062,48.349,45.146,48.245,45.146z"/>
		<path fill-rule="evenodd" clip-rule="evenodd" fill="#252A2C" d="M50.971,35.065h-0.956c-0.104,0-0.189-0.084-0.189-0.188V33.95
			c0-0.104,0.086-0.189,0.189-0.189h0.956c0.104,0,0.189,0.085,0.189,0.189v0.928C51.16,34.981,51.075,35.065,50.971,35.065z"/>
		<path fill-rule="evenodd" clip-rule="evenodd" fill="#252A2C" d="M50.971,37.586h-0.956c-0.104,0-0.189-0.085-0.189-0.189v-0.926
			c0-0.104,0.086-0.19,0.189-0.19h0.956c0.104,0,0.189,0.087,0.189,0.19v0.926C51.16,37.501,51.075,37.586,50.971,37.586z"/>
		<path fill-rule="evenodd" clip-rule="evenodd" fill="#252A2C" d="M50.971,40.105h-0.956c-0.104,0-0.189-0.085-0.189-0.188V38.99
			c0-0.104,0.086-0.188,0.189-0.188h0.956c0.104,0,0.189,0.085,0.189,0.188v0.927C51.16,40.021,51.075,40.105,50.971,40.105z"/>
		<path fill-rule="evenodd" clip-rule="evenodd" fill="#252A2C" d="M50.971,42.627h-0.956c-0.104,0-0.189-0.085-0.189-0.19v-0.926
			c0-0.104,0.086-0.189,0.189-0.189h0.956c0.104,0,0.189,0.085,0.189,0.189v0.926C51.16,42.542,51.075,42.627,50.971,42.627z"/>
		<path fill-rule="evenodd" clip-rule="evenodd" fill="#252A2C" d="M50.971,45.146h-0.956c-0.104,0-0.189-0.085-0.189-0.188v-0.927
			c0-0.104,0.086-0.189,0.189-0.189h0.956c0.104,0,0.189,0.085,0.189,0.189v0.927C51.16,45.062,51.075,45.146,50.971,45.146z"/>
		<path fill-rule="evenodd" clip-rule="evenodd" fill="#EF3F23" d="M41.946,51.205c-0.373-0.418-0.338-1.061,0.08-1.436
			c0.418-0.374,1.062-0.338,1.435,0.08l3.073,2.237l4.352-3.699c0.374-0.418,1.017-0.453,1.435-0.079
			c0.418,0.373,0.453,1.016,0.079,1.434c-1.702,1.911-3.403,3.823-5.105,5.734c-0.192,0.216-0.456,0.329-0.724,0.338h-0.001h-0.022
			l-0.002,0.002h-0.022l-0.002-0.002h-0.022h-0.002c-0.267-0.009-0.531-0.122-0.724-0.338L41.946,51.205z"/>
		<path fill-rule="evenodd" clip-rule="evenodd" fill="#E0AD7E" d="M52.526,23.63c0.039,0.167,0.065,0.347,0.078,0.542v5.371
			c0.005,0.793-0.94,0.997-1.384,0.756l0.004-2.06c0-0.42-0.419-0.335-0.419-0.01v2.517c-0.037,0.627-1.381,0.766-1.553,0.139
			l-0.042-2.559c-0.023-0.371-0.44-0.313-0.42-0.003v2.685c-0.038,0.584-1.591,0.698-1.762-0.012v-2.795
			c-0.038-0.423-0.416-0.385-0.421,0.038v2.476c-0.419,0.378-1.593,0.252-1.765-1.046l-0.043-3.398
			c-1.151,0.557-2.029,0.594-3.142,0.164c-0.997-0.463-0.673-1.594,0.167-1.762c0.923-0.21,1.389,0.249,2.014-0.21
			c0.089-0.241,0.215-0.536,0.366-0.833C46.936,22.906,49.714,23.001,52.526,23.63z"/>
	</g>
</g>
</svg>
