<?xml version="1.0" encoding="utf-8"?>
<!-- Generator: Adobe Illustrator 16.0.0, SVG Export Plug-In . SVG Version: 6.00 Build 0)  -->
<!DOCTYPE svg PUBLIC "-//W3C//DTD SVG 1.1//EN" "http://www.w3.org/Graphics/SVG/1.1/DTD/svg11.dtd">
<svg version="1.1" id="Layer_1" xmlns="http://www.w3.org/2000/svg" xmlns:xlink="http://www.w3.org/1999/xlink" x="0px" y="0px"
	 width="150px" height="150px" viewBox="0 0 150 150" enable-background="new 0 0 150 150" xml:space="preserve">
<linearGradient id="SVGID_1_" gradientUnits="userSpaceOnUse" x1="238.3945" y1="-244.3042" x2="372" y2="-244.3042" gradientTransform="matrix(1 0 0 -1 -231 -170)">
	<stop  offset="0" style="stop-color:#0E7BC1"/>
	<stop  offset="0.7688" style="stop-color:#1272A3"/>
</linearGradient>
<circle fill="url(#SVGID_1_)" cx="74.197" cy="74.304" r="66.803"/>
<g id="File_Check">
	<path fill="none" stroke="#FFFFFF" stroke-width="5" stroke-miterlimit="10" d="M103.124,63.08v30.854
		c-0.095,6.293-5.274,11.317-11.567,11.224h-0.002H56.844c-6.293,0.097-11.473-4.927-11.569-11.222v-0.002V43.797
		c-0.032-0.157,0.069-0.31,0.226-0.341c0.021-0.004,0.042-0.006,0.063-0.006h37.313L103.124,63.08z"/>
	<path fill="none" stroke="#FFFFFF" stroke-width="5" stroke-miterlimit="10" d="M81.912,43.45v19.283
		c0.415,0.074,0.84,0.074,1.254,0h19.958"/>
	<path fill="none" stroke="#FFFFFF" stroke-width="5" stroke-miterlimit="10" d="M65.522,79.2l5.939,6.134
		c0.493,0.238,1.068,0.238,1.562,0l9.853-8.234"/>
</g>
</svg>
