<svg xmlns="http://www.w3.org/2000/svg" xmlns:xlink="http://www.w3.org/1999/xlink" width="718.951" height="649.66" viewBox="0 0 718.951 649.66">
  <defs>
    <linearGradient id="linear-gradient" y1="0.5" x2="1" y2="0.5" gradientUnits="objectBoundingBox">
      <stop offset="0" stop-color="#bbcaf7"/>
      <stop offset="1" stop-color="#ccd8fe"/>
    </linearGradient>
    <linearGradient id="linear-gradient-2" x1="0.359" y1="-0.548" x2="0.584" y2="1.122" xlink:href="#linear-gradient"/>
    <linearGradient id="linear-gradient-3" x1="0.212" y1="0.029" x2="0.647" y2="0.543" gradientUnits="objectBoundingBox">
      <stop offset="0" stop-color="#a8dadc"/>
      <stop offset="1" stop-color="#457b9d"/>
    </linearGradient>
    <linearGradient id="linear-gradient-4" x1="0" y1="0.5" x2="1" y2="0.5" xlink:href="#linear-gradient-3"/>
    <linearGradient id="linear-gradient-5" x1="0.575" y1="-0.251" x2="0.24" y2="1.092" gradientUnits="objectBoundingBox">
      <stop offset="0" stop-color="#a737d5"/>
      <stop offset="1" stop-color="#ef497a"/>
    </linearGradient>
    <linearGradient id="linear-gradient-6" x1="0.964" y1="0.072" x2="0.457" y2="0.366" gradientUnits="objectBoundingBox">
      <stop offset="0" stop-color="#147dbe"/>
      <stop offset="1" stop-color="#154e72"/>
    </linearGradient>
    <linearGradient id="linear-gradient-7" x1="0.572" y1="0.483" x2="-0.479" y2="-0.89" xlink:href="#linear-gradient-6"/>
    <linearGradient id="linear-gradient-8" x1="42.834" y1="0.047" x2="41.909" y2="3.042" gradientUnits="objectBoundingBox">
      <stop offset="0" stop-color="#73a1d2"/>
      <stop offset="1" stop-color="#0f3a67"/>
    </linearGradient>
    <linearGradient id="linear-gradient-9" x1="0.555" y1="0.496" x2="0.075" y2="0.521" gradientUnits="objectBoundingBox">
      <stop offset="0" stop-color="#2a5d94"/>
      <stop offset="1" stop-color="#092646"/>
    </linearGradient>
    <linearGradient id="linear-gradient-10" x1="0.267" y1="-0.054" x2="1.37" y2="2.568" gradientUnits="objectBoundingBox">
      <stop offset="0" stop-color="#184473"/>
      <stop offset="1" stop-color="#021a33"/>
    </linearGradient>
    <linearGradient id="linear-gradient-11" x1="0.756" y1="1.722" x2="0.499" y2="0.494" gradientUnits="objectBoundingBox">
      <stop offset="0" stop-color="#3f75ae"/>
      <stop offset="1" stop-color="#134a83"/>
    </linearGradient>
    <linearGradient id="linear-gradient-12" x1="1.147" y1="1.66" x2="0.459" y2="0.427" xlink:href="#linear-gradient-11"/>
    <linearGradient id="linear-gradient-13" x1="0.52" y1="1.509" x2="0.468" y2="0.18" xlink:href="#linear-gradient-10"/>
    <linearGradient id="linear-gradient-14" x1="0.525" y1="0.297" x2="0.225" y2="5.134" xlink:href="#linear-gradient-10"/>
    <linearGradient id="linear-gradient-15" x1="0" y1="0.5" x2="1" y2="0.5" xlink:href="#linear-gradient-10"/>
    <linearGradient id="linear-gradient-16" x1="0.061" y1="-0.121" x2="1.252" y2="1.567" xlink:href="#linear-gradient-8"/>
    <linearGradient id="linear-gradient-17" x1="0.227" y1="0.823" x2="0.843" y2="0.115" xlink:href="#linear-gradient-8"/>
    <linearGradient id="linear-gradient-18" y1="0.5" x2="1" y2="0.5" gradientUnits="objectBoundingBox">
      <stop offset="0" stop-color="#53d8ff"/>
      <stop offset="1" stop-color="#3840f7"/>
    </linearGradient>
    <linearGradient id="linear-gradient-20" x1="0.907" y1="-0.548" x2="-0.317" y2="2.588" gradientUnits="objectBoundingBox">
      <stop offset="0" stop-color="#fc9e9c"/>
      <stop offset="1" stop-color="#ec322e"/>
    </linearGradient>
    <linearGradient id="linear-gradient-24" x1="0.782" y1="0.229" x2="-1.47" y2="2.326" xlink:href="#linear-gradient-8"/>
    <linearGradient id="linear-gradient-25" x1="-0.025" y1="1.339" x2="0.593" y2="0.365" gradientUnits="objectBoundingBox">
      <stop offset="0" stop-color="#fff"/>
      <stop offset="1" stop-color="#e5ecff"/>
    </linearGradient>
    <linearGradient id="linear-gradient-26" x1="0.5" y1="0" x2="0.5" y2="1" xlink:href="#linear-gradient-3"/>
    <linearGradient id="linear-gradient-27" x1="-44.332" y1="0.417" x2="-43.674" y2="1.226" gradientUnits="objectBoundingBox">
      <stop offset="0" stop-color="#2b3582"/>
      <stop offset="1" stop-color="#150e42"/>
    </linearGradient>
    <linearGradient id="linear-gradient-28" x1="-17.581" y1="0.741" x2="-17.317" y2="-0.499" xlink:href="#linear-gradient-10"/>
    <linearGradient id="linear-gradient-29" x1="-46.545" y1="0.26" x2="-45.184" y2="1.995" xlink:href="#linear-gradient-27"/>
    <linearGradient id="linear-gradient-30" x1="-11.453" y1="0.224" x2="-12.143" y2="0.657" xlink:href="#linear-gradient-10"/>
    <linearGradient id="linear-gradient-31" x1="-24.188" y1="-0.229" x2="-23.539" y2="1.514" xlink:href="#linear-gradient-20"/>
    <linearGradient id="linear-gradient-32" x1="-56.953" y1="0.82" x2="-57.264" y2="-0.113" gradientUnits="objectBoundingBox">
      <stop offset="0" stop-color="#f9b776"/>
      <stop offset="1" stop-color="#f47960"/>
    </linearGradient>
    <linearGradient id="linear-gradient-33" x1="-35" y1="-0.467" x2="-34.822" y2="0.954" xlink:href="#linear-gradient-27"/>
    <linearGradient id="linear-gradient-34" x1="-275" y1="2.058" x2="-276.473" y2="-0.895" xlink:href="#linear-gradient-32"/>
    <linearGradient id="linear-gradient-35" x1="-35.311" y1="0.5" x2="-34.311" y2="0.5" xlink:href="#linear-gradient-6"/>
    <linearGradient id="linear-gradient-36" x1="-243.844" y1="-0.762" x2="-248.107" y2="2.353" gradientUnits="objectBoundingBox">
      <stop offset="0" stop-color="#fdf53f"/>
      <stop offset="1" stop-color="#d93c65"/>
    </linearGradient>
    <linearGradient id="linear-gradient-37" x1="-33.415" y1="-0.604" x2="-34.155" y2="0.972" xlink:href="#linear-gradient-27"/>
    <linearGradient id="linear-gradient-38" x1="25.191" y1="0.5" x2="26.191" y2="0.5" xlink:href="#linear-gradient-32"/>
    <linearGradient id="linear-gradient-39" x1="1.008" y1="-0.542" x2="-0.026" y2="1.208" xlink:href="#linear-gradient-20"/>
    <linearGradient id="linear-gradient-40" x1="0.627" y1="0.028" x2="-0.826" y2="2.304" gradientUnits="objectBoundingBox">
      <stop offset="0" stop-color="#febbba"/>
      <stop offset="1" stop-color="#ff928e"/>
    </linearGradient>
    <linearGradient id="linear-gradient-41" x1="0.903" y1="1.4" x2="0.434" y2="0.439" xlink:href="#linear-gradient-10"/>
    <linearGradient id="linear-gradient-43" x1="33.595" y1="0.5" x2="34.595" y2="0.5" xlink:href="#linear-gradient-27"/>
    <linearGradient id="linear-gradient-44" x1="36.68" y1="-12.946" x2="32.982" y2="11.134" xlink:href="#linear-gradient-18"/>
    <linearGradient id="linear-gradient-45" x1="89.77" y1="-0.843" x2="89.263" y2="2.39" xlink:href="#linear-gradient-32"/>
    <linearGradient id="linear-gradient-46" x1="24.363" y1="-5.388" x2="21.846" y2="17.681" xlink:href="#linear-gradient-18"/>
    <linearGradient id="linear-gradient-47" x1="23.339" y1="0.5" x2="24.339" y2="0.5" xlink:href="#linear-gradient-27"/>
    <linearGradient id="linear-gradient-48" x1="91.149" y1="-0.223" x2="90.635" y2="2.539" xlink:href="#linear-gradient-32"/>
    <linearGradient id="linear-gradient-49" x1="15.269" y1="-0.312" x2="12.824" y2="1.239" xlink:href="#linear-gradient-10"/>
    <linearGradient id="linear-gradient-50" x1="0.636" y1="-0.255" x2="0.5" y2="1" xlink:href="#linear-gradient-20"/>
    <linearGradient id="linear-gradient-51" x1="38.405" y1="-0.222" x2="37.586" y2="2.966" xlink:href="#linear-gradient-32"/>
    <linearGradient id="linear-gradient-52" x1="-46.576" y1="-25.627" x2="-47.648" y2="-24.346" xlink:href="#linear-gradient-32"/>
    <linearGradient id="linear-gradient-53" x1="-33.347" y1="-16.563" x2="-32.441" y2="-16.563" xlink:href="#linear-gradient-27"/>
    <linearGradient id="linear-gradient-54" x1="-137.412" y1="-83.948" x2="-134.955" y2="-86.596" xlink:href="#linear-gradient-32"/>
    <linearGradient id="linear-gradient-55" x1="191.664" y1="-0.965" x2="183.299" y2="1.467" xlink:href="#linear-gradient-36"/>
    <linearGradient id="linear-gradient-56" x1="61.754" y1="-0.866" x2="60.831" y2="0.839" xlink:href="#linear-gradient-27"/>
    <linearGradient id="linear-gradient-58" x1="0" y1="0.5" x2="1" y2="0.5" xlink:href="#linear-gradient-32"/>
    <linearGradient id="linear-gradient-59" x1="0.569" y1="1.256" x2="0.223" y2="-0.825" xlink:href="#linear-gradient-6"/>
    <linearGradient id="linear-gradient-60" x1="0.55" y1="1.224" x2="0.415" y2="-0.786" xlink:href="#linear-gradient-3"/>
    <linearGradient id="linear-gradient-61" x1="0.236" y1="0.861" x2="0.747" y2="0.075" xlink:href="#linear-gradient-20"/>
    <linearGradient id="linear-gradient-62" x1="1062.856" y1="-338.072" x2="1057.271" y2="-340.83" xlink:href="#linear-gradient-6"/>
    <linearGradient id="linear-gradient-63" x1="157.855" y1="-107.771" x2="156.907" y2="-109.53" xlink:href="#linear-gradient-6"/>
    <linearGradient id="linear-gradient-64" x1="199.471" y1="-146.004" x2="198.496" y2="-147.122" xlink:href="#linear-gradient-6"/>
    <linearGradient id="linear-gradient-65" x1="-2339.593" y1="-481.284" x2="-2335.841" y2="-482.17" xlink:href="#linear-gradient-18"/>
    <linearGradient id="linear-gradient-66" x1="0.25" y1="0.365" x2="2.666" y2="1.514" xlink:href="#linear-gradient-20"/>
  </defs>
  <g id="pwa-service-pic" transform="translate(-169 -3642.666)">
    <g id="Group_3976" data-name="Group 3976" transform="translate(159.566 -393.032)">
      <g id="Group_30" data-name="Group 30" transform="translate(465.946 4074.763)">
        <g id="Group_27" data-name="Group 27" transform="translate(0 29.498)">
          <path id="Path_196" data-name="Path 196" d="M619.951,668.514a.79.79,0,0,1-.29-1.525c.958-.378,1.92-.792,2.857-1.229a.79.79,0,0,1,.668,1.432c-.967.451-1.958.877-2.946,1.267A.8.8,0,0,1,619.951,668.514Z" transform="translate(-547.288 -594.727)" fill="#eac4f9"/>
          <path id="Path_197" data-name="Path 197" d="M585.094,656.517a.79.79,0,0,1-.054-1.578l.671-.051a52.949,52.949,0,0,0,5.357-.719.79.79,0,1,1,.29,1.553,54.442,54.442,0,0,1-5.518.74c-.232.019-.461.036-.69.052Zm-10.008-.252a.78.78,0,0,1-.1-.005,53.27,53.27,0,0,1-6.165-1.117.79.79,0,1,1,.374-1.535,51.792,51.792,0,0,0,5.981,1.084.79.79,0,0,1-.094,1.574Zm-15.533-4.383a.784.784,0,0,1-.329-.072,53.571,53.571,0,0,1-5.53-2.938.79.79,0,1,1,.821-1.349,51.888,51.888,0,0,0,5.366,2.85.79.79,0,0,1-.329,1.509ZM546.081,643a.79.79,0,0,1-.53-.2,53.9,53.9,0,0,1-4.386-4.465.79.79,0,1,1,1.189-1.04,52.475,52.475,0,0,0,4.258,4.334.79.79,0,0,1-.531,1.375Zm-10.163-12.528a.788.788,0,0,1-.683-.393,53.474,53.474,0,0,1-2.83-5.583.79.79,0,0,1,1.449-.63,52.026,52.026,0,0,0,2.746,5.419.789.789,0,0,1-.681,1.187Zm-5.884-15.022a.79.79,0,0,1-.77-.619,54.029,54.029,0,0,1-1-6.176.79.79,0,1,1,1.571-.161,52.688,52.688,0,0,0,.969,5.995.79.79,0,0,1-.6.942A.8.8,0,0,1,530.033,615.445Zm-1.067-16.1a.688.688,0,0,1-.07,0,.79.79,0,0,1-.718-.856,53.182,53.182,0,0,1,.906-6.2.79.79,0,1,1,1.547.321,51.94,51.94,0,0,0-.879,6.011A.79.79,0,0,1,528.966,599.345Z" transform="translate(-528.175 -579.178)" fill="#eac4f9"/>
          <path id="Path_198" data-name="Path 198" d="M533.865,580.313a.792.792,0,0,1-.728-1.1c.41-.98.856-1.961,1.326-2.918a.79.79,0,0,1,1.418.7c-.457.929-.889,1.882-1.287,2.831A.79.79,0,0,1,533.865,580.313Z" transform="translate(-529.204 -575.858)" fill="#eac4f9"/>
        </g>
        <g id="Group_28" data-name="Group 28" transform="translate(34.334)">
          <path id="Path_199" data-name="Path 199" d="M572.43,543.9a.791.791,0,0,1-.273-1.533c1-.364,2.019-.705,3.042-1.012a.79.79,0,1,1,.454,1.513c-.994.3-1.987.628-2.952.982A.785.785,0,0,1,572.43,543.9Z" transform="translate(-571.64 -539.106)" fill="#eac4f9"/>
          <path id="Path_200" data-name="Path 200" d="M644.97,606.039a.79.79,0,0,1-.766-.988,52.037,52.037,0,0,0,1.165-5.862.79.79,0,1,1,1.564.217,53.4,53.4,0,0,1-1.2,6.042A.79.79,0,0,1,644.97,606.039Zm1.617-15.795a.79.79,0,0,1-.788-.75q-.043-.87-.115-1.743c-.115-1.408-.289-2.821-.515-4.2a.79.79,0,1,1,1.559-.255c.234,1.42.411,2.876.532,4.326q.073.9.119,1.795a.79.79,0,0,1-.75.828Zm-3.134-15.559a.79.79,0,0,1-.742-.52,51.673,51.673,0,0,0-2.371-5.485.79.79,0,0,1,1.412-.709,53.09,53.09,0,0,1,2.444,5.653.791.791,0,0,1-.742,1.061Zm-7.64-13.913a.79.79,0,0,1-.628-.31,52.334,52.334,0,0,0-3.9-4.526.79.79,0,1,1,1.135-1.1,53.621,53.621,0,0,1,4.019,4.663.789.789,0,0,1-.626,1.27Zm-11.438-11.008a.786.786,0,0,1-.456-.145,52.177,52.177,0,0,0-5.068-3.168.79.79,0,1,1,.759-1.385,53.876,53.876,0,0,1,5.222,3.263.79.79,0,0,1-.457,1.435Zm-14.189-7.117a.777.777,0,0,1-.244-.039,51.494,51.494,0,0,0-5.784-1.51.79.79,0,0,1,.31-1.549,53.041,53.041,0,0,1,5.962,1.556.79.79,0,0,1-.243,1.542Zm-21.731-2.259a.79.79,0,0,1-.081-1.576q.6-.063,1.207-.112c1.476-.122,2.969-.182,4.437-.182l.507,0a.79.79,0,0,1-.008,1.58h-.007l-.492,0c-1.426,0-2.875.059-4.308.177q-.588.049-1.172.109A.736.736,0,0,1,588.454,540.387Z" transform="translate(-575.006 -538.516)" fill="#eac4f9"/>
          <path id="Path_201" data-name="Path 201" d="M653.9,638.156a.779.779,0,0,1-.38-.1.79.79,0,0,1-.311-1.073c.5-.9.975-1.835,1.417-2.769a.79.79,0,0,1,1.427.678c-.457.961-.947,1.921-1.461,2.852A.788.788,0,0,1,653.9,638.156Z" transform="translate(-588.752 -558.524)" fill="#eac4f9"/>
        </g>
        <g id="Group_29" data-name="Group 29" transform="translate(12.153 12.792)">
          <path id="Path_202" data-name="Path 202" d="M617.436,619.2a.632.632,0,0,0,.085-.729l-3.714-6.742a33.525,33.525,0,0,0,3.654-10.231l7.137-2.867a.633.633,0,0,0,.4-.619l-.462-9.221a.633.633,0,0,0-.456-.576l-7.388-2.141a33.546,33.546,0,0,0-4.657-9.813l3.021-7.08a.632.632,0,0,0-.158-.717l-6.846-6.193a.632.632,0,0,0-.729-.085l-6.742,3.714a33.535,33.535,0,0,0-10.231-3.654l-2.868-7.137a.631.631,0,0,0-.618-.4l-9.221.462a.633.633,0,0,0-.576.456l-2.141,7.388a33.526,33.526,0,0,0-9.813,4.657l-7.079-3.021a.634.634,0,0,0-.717.158l-6.193,6.846a.631.631,0,0,0-.085.729l3.713,6.742a33.536,33.536,0,0,0-3.654,10.23l-7.137,2.868a.631.631,0,0,0-.4.618l.462,9.221a.633.633,0,0,0,.456.576l7.388,2.141a33.538,33.538,0,0,0,4.657,9.813l-3.021,7.079a.632.632,0,0,0,.158.717l6.846,6.193a.632.632,0,0,0,.729.085l6.742-3.714a33.536,33.536,0,0,0,10.231,3.653l2.868,7.137a.631.631,0,0,0,.618.4l9.221-.462a.632.632,0,0,0,.576-.456l2.141-7.388a33.544,33.544,0,0,0,9.813-4.658l7.079,3.021a.632.632,0,0,0,.717-.158Z" transform="translate(-543.56 -554.71)" fill="url(#linear-gradient)"/>
          <path id="Path_203" data-name="Path 203" d="M592.614,613.143a9.383,9.383,0,1,1,8.967-12.133h0a9.387,9.387,0,0,1-8.967,12.133Zm-.009-16.4a7.013,7.013,0,1,0,6.709,4.958h0A7.026,7.026,0,0,0,592.606,596.747Z" transform="translate(-551.892 -563.042)" fill="#fff"/>
          <path id="Path_204" data-name="Path 204" d="M588.641,623.328a23.464,23.464,0,0,1-23.405-22.289q-.031-.6-.03-1.187a23.462,23.462,0,0,1,46.895-1.161h0q.031.592.03,1.186a23.61,23.61,0,0,1-.234,3.32q-.034.241-.073.481l-2.339-.384a21.154,21.154,0,0,0,.276-3.417q0-.534-.027-1.067a21.092,21.092,0,0,0-42.158,1.043q0,.532.027,1.067A21.1,21.1,0,0,0,600.39,617.4l1.319,1.969a23.423,23.423,0,0,1-11.867,3.924C589.441,623.317,589.04,623.328,588.641,623.328Z" transform="translate(-548.107 -559.267)" fill="#fff"/>
        </g>
      </g>
      <path id="Path_205" data-name="Path 205" d="M545.63,550.164l-2.374-3.6a18.75,18.75,0,0,0,1.586-5.876l3.859-1.919a.354.354,0,0,0,.194-.363l-.668-5.129a.354.354,0,0,0-.28-.3l-4.221-.867a18.776,18.776,0,0,0-3.037-5.274l1.373-4.088a.353.353,0,0,0-.12-.393l-4.1-3.156a.355.355,0,0,0-.411-.015l-3.6,2.374a18.774,18.774,0,0,0-5.876-1.586l-1.919-3.859a.354.354,0,0,0-.363-.194l-5.129.667a.354.354,0,0,0-.3.28l-.867,4.221a18.8,18.8,0,0,0-5.274,3.037l-4.088-1.373a.354.354,0,0,0-.393.12l-3.155,4.1a.354.354,0,0,0-.016.411l2.374,3.6a18.772,18.772,0,0,0-1.586,5.876l-3.859,1.919a.354.354,0,0,0-.193.363l.667,5.13a.354.354,0,0,0,.28.3l4.221.867a18.779,18.779,0,0,0,3.037,5.274l-1.373,4.088a.355.355,0,0,0,.12.394l4.1,3.155a.355.355,0,0,0,.411.015l3.6-2.374a18.771,18.771,0,0,0,5.876,1.586l1.919,3.859a.352.352,0,0,0,.363.194l5.129-.667a.354.354,0,0,0,.3-.28l.867-4.221a18.781,18.781,0,0,0,5.274-3.037l4.088,1.373a.355.355,0,0,0,.394-.12l3.155-4.1A.355.355,0,0,0,545.63,550.164Z" transform="translate(-56.979 3540.995)" fill="url(#linear-gradient-2)"/>
      <path id="Path_206" data-name="Path 206" d="M530.588,549.09a5.779,5.779,0,1,1,2.118-.405A5.788,5.788,0,0,1,530.588,549.09Zm-.006-9.188a3.411,3.411,0,1,0,3.168,2.157h0a3.411,3.411,0,0,0-3.168-2.157Z" transform="translate(-61.521 3536.454)" fill="#fff"/>
      <g id="Group_31" data-name="Group 31" transform="translate(440.558 4074.529)">
        <path id="Path_207" data-name="Path 207" d="M552.224,573.537a.79.79,0,0,1-.457-1.435,26.779,26.779,0,0,0,2.4-1.914.79.79,0,1,1,1.055,1.175,28.168,28.168,0,0,1-2.539,2.028A.785.785,0,0,1,552.224,573.537Z" transform="translate(-507.673 -544.892)" fill="#eac4f9"/>
        <path id="Path_208" data-name="Path 208" d="M524.947,575.6a.8.8,0,0,1-.8-.79.783.783,0,0,1,.782-.79,26.837,26.837,0,0,0,6.277-.743.79.79,0,1,1,.37,1.536A28.381,28.381,0,0,1,524.947,575.6Zm-10.358-2.011a.791.791,0,0,1-.295-.057,28.69,28.69,0,0,1-5.873-3.206.79.79,0,0,1,.913-1.289,27.1,27.1,0,0,0,5.55,3.029.79.79,0,0,1-.3,1.523ZM501.6,562.849a.787.787,0,0,1-.665-.363,28.662,28.662,0,0,1-2.521-4.927q-.216-.544-.406-1.09a.79.79,0,0,1,1.491-.523q.181.518.384,1.032a27.181,27.181,0,0,0,2.381,4.655.79.79,0,0,1-.664,1.216Z" transform="translate(-496.442 -541.832)" fill="#eac4f9"/>
        <path id="Path_209" data-name="Path 209" d="M496.828,542.939h-.038a.79.79,0,0,1-.752-.826,28.491,28.491,0,0,1,.34-3.23.79.79,0,1,1,1.559.254,27.015,27.015,0,0,0-.321,3.051A.79.79,0,0,1,496.828,542.939Z" transform="translate(-496.037 -538.22)" fill="#eac4f9"/>
      </g>
      <g id="Group_32" data-name="Group 32" transform="translate(451.554 4051.238)">
        <path id="Path_210" data-name="Path 210" d="M510.748,516.935a.79.79,0,0,1-.476-1.421,28.591,28.591,0,0,1,2.7-1.8.79.79,0,1,1,.8,1.363,26.944,26.944,0,0,0-2.552,1.7A.786.786,0,0,1,510.748,516.935Z" transform="translate(-509.957 -509.757)" fill="#eac4f9"/>
        <path id="Path_211" data-name="Path 211" d="M557.38,530.312a.789.789,0,0,1-.758-.569c-.235-.8-.51-1.607-.821-2.391a27.165,27.165,0,0,0-1.59-3.338.791.791,0,0,1,1.378-.776,29.019,29.019,0,0,1,1.682,3.533c.328.829.62,1.681.868,2.53a.79.79,0,0,1-.537.98A.8.8,0,0,1,557.38,530.312Zm-9.164-13.8a.784.784,0,0,1-.5-.175A27.057,27.057,0,0,0,542.47,513a.79.79,0,0,1,.686-1.423,28.641,28.641,0,0,1,5.557,3.522.79.79,0,0,1-.5,1.4Zm-21.794-5.852a.79.79,0,0,1-.122-1.57,28.411,28.411,0,0,1,6.574-.27.79.79,0,1,1-.118,1.575,26.929,26.929,0,0,0-6.207.256A.853.853,0,0,1,526.421,510.655Z" transform="translate(-513.25 -508.735)" fill="#eac4f9"/>
        <path id="Path_212" data-name="Path 212" d="M566.258,551.826a.839.839,0,0,1-.164-.016.791.791,0,0,1-.61-.936,27.158,27.158,0,0,0,.463-3.033.79.79,0,1,1,1.573.148,28.619,28.619,0,0,1-.49,3.211A.79.79,0,0,1,566.258,551.826Z" transform="translate(-521.617 -516.799)" fill="#eac4f9"/>
      </g>
      <path id="Path_213" data-name="Path 213" d="M528.357,554.807a13.667,13.667,0,1,1,13.562-15.431h0a13.793,13.793,0,0,1,.069,2.909l-2.362-.2c.026-.308.039-.619.039-.929a11.45,11.45,0,0,0-.1-1.478h0a11.211,11.211,0,0,0-4.092-7.32c-.072-.059-.146-.117-.22-.175a11.3,11.3,0,0,0-18.19,8.925,11.615,11.615,0,0,0,.1,1.485,11.3,11.3,0,0,0,18.206,7.41l1.47,1.859a13.7,13.7,0,0,1-8.482,2.942Z" transform="translate(-59.398 3538.568)" fill="#fff"/>
    </g>
    <g id="Group_3975" data-name="Group 3975" transform="translate(-16.628 92.074)">
      <g id="Group_1" data-name="Group 1" transform="translate(202.765 3854.758)" opacity="0.6">
        <path id="Path_2" data-name="Path 2" d="M431.673,616.457a2.753,2.753,0,0,0-1.2-4.684c-23.7-5.552-121.717-33.985-100.563-120.679,24.021-98.443,36.923-125.257-2.969-168.336-36.319-39.221-74.394-42.41-106.205-33.883a2.205,2.205,0,0,0,.141,4.281c19.425,3.684,63.228,15.714,73.461,50.345,13.25,44.847-8.546,145.611,25.524,201.745,33.659,55.458,70.633,61.275,109.315,71.833a2.639,2.639,0,0,0,2.5-.62Z" transform="translate(-219.127 -285.001)" fill="url(#linear-gradient-3)"/>
      </g>
      <path id="Path_6" data-name="Path 6" d="M906.128,112.4c-5.07-13.749-12.144-26.615-19.732-39.185a4.871,4.871,0,0,0-8.968,1.712c-3.222,18.616-15.663,35.756-30.053,48.715-18.325,16.5-40.291,28.714-57.827,46.054-36.091,35.686-49.109,88.668-52.655,139.3s.747,101.907-7.864,151.926c-4.105,23.847-11.385,47.7-25.812,67.131-14.168,19.079-36.1,33.41-59.8,34.259a1.125,1.125,0,0,0-1.078,1.314h0a1.139,1.139,0,0,0,.732.876c28.065,10.086,60.55-6.326,77.134-31.2,16.7-25.058,20.536-56.438,21.243-86.544s-1.2-60.665,5.82-89.951a151.681,151.681,0,0,1,45.3-76.469c20.282-18.387,45.106-30.864,67.591-46.478s43.643-35.951,50.721-62.4C916.066,152.073,913.07,131.226,906.128,112.4Z" transform="translate(-105.258 3614.739)" fill="url(#linear-gradient-4)"/>
      <g id="Group_5" data-name="Group 5" transform="translate(584.228 3812.598)">
        <path id="Path_7" data-name="Path 7" d="M702.584,712.975l-.556-3.873.452,0c1.576-.016,3.17-.109,4.739-.276l1.443-.155-1.167.865c-1.594,1.181-3.03,2.194-4.39,3.1Zm.355-3.094.25,1.742c.856-.578,1.745-1.2,2.688-1.885C704.9,709.814,703.916,709.862,702.939,709.881Z" transform="translate(-702.028 -331.836)" fill="url(#linear-gradient-5)"/>
        <g id="Group_4" data-name="Group 4" transform="translate(5.232)" opacity="0.6">
          <path id="Path_8" data-name="Path 8" d="M994.656,233.132c-18.068,19.031-43.959,31.064-69.17,40.115-32.97,11.837-68.154,21.259-94.5,44.35-27.517,24.12-41.642,60.149-49.467,95.894s-10.354,72.574-19.76,107.936c-8.945,33.632-25.31,66.98-53.11,87.582,23.657-2.529,43.572-21.755,53.756-43.631,10.864-23.334,13.122-49.572,16.853-75.038s9.6-51.813,25.984-71.663c32.148-38.948,92.012-39.743,133.1-69.1,21.258-15.189,36.568-37.543,47.223-61.4,7.261-16.256,12.521-33.283,17.128-50.5A4.766,4.766,0,0,0,994.656,233.132Z" transform="translate(-708.651 -231.63)" fill="url(#linear-gradient-6)"/>
        </g>
      </g>
      <path id="Path_9" data-name="Path 9" d="M906.885,126.124c-.321,1.371-.7,2.68-1.119,4l-.647,1.958-.72,1.931q-1.459,3.855-3.227,7.579c-.558,1.257-1.184,2.478-1.817,3.7s-1.241,2.454-1.948,3.631l-2.061,3.568c-.709,1.176-1.468,2.321-2.2,3.484-1.431,2.349-3.077,4.55-4.642,6.809-.767,1.141-1.645,2.2-2.478,3.292l-2.532,3.254c-1.765,2.105-3.589,4.161-5.383,6.244l-5.7,5.96c-1.973,1.911-4,3.763-6,5.648-.982.963-2.063,1.811-3.105,2.706l-3.149,2.657c-2.085,1.806-4.24,3.45-6.368,5.154l-6.379,5.09a301.107,301.107,0,0,0-24.431,21.433,154.406,154.406,0,0,0-20.4,25.062c-2.931,4.529-5.616,9.218-8.087,14.023q-3.639,7.242-6.642,14.8a254.478,254.478,0,0,0-9.762,31.006c-2.64,10.535-4.664,21.228-6.415,31.966a.6.6,0,0,1-1.186-.174c1.437-10.814,3.286-21.584,5.727-32.239a236.268,236.268,0,0,1,9.378-31.437q2.961-7.671,6.557-15.09c2.451-4.913,5.125-9.721,8.058-14.374a154.971,154.971,0,0,1,20.661-25.635,304.115,304.115,0,0,1,24.589-21.753l6.373-5.128c2.119-1.707,4.28-3.388,6.326-5.135l3.108-2.6c1.028-.875,2.1-1.7,3.064-2.646,1.971-1.844,3.974-3.655,5.921-5.524l5.668-5.782c1.785-2.022,3.6-4.018,5.366-6.062l2.556-3.138c.845-1.051,1.736-2.07,2.517-3.172,1.592-2.178,3.268-4.3,4.73-6.572a136.35,136.35,0,0,0,8.323-13.89q1.885-3.587,3.483-7.315l.787-1.867.732-1.886c.479-1.256.93-2.544,1.3-3.806l.008-.028a.6.6,0,0,1,1.157.306Z" transform="translate(-132.18 3603.285)" fill="#fff" opacity="0.5"/>
      <path id="Path_11" data-name="Path 11" d="M274.355,182.629c-24.63,8.821-48.524,30.9-45.2,59.1,2.829,23.973,30.338,31.05,47.026,33.576a19.28,19.28,0,0,1,11.9,6.7c7.228,8.641,22.711,23.043,39.7,13.457a1.363,1.363,0,0,0-.735-2.543c-4.517.178-10.928-.471-15.291-4.716a11.578,11.578,0,0,1,3.889-18.936c14.534-5.913,41.958-22.011,38.407-58.493C349.257,161.433,274.355,182.629,274.355,182.629Z" transform="translate(-28.545 3528.137)" fill="url(#linear-gradient-7)"/>
      <path id="Path_12" data-name="Path 12" d="M298.813,229.9s1.213-16.5,17.655-13.769c15.577,2.583,10.59,23.894-11.356,37.457a8.616,8.616,0,0,1-7.9.592c-9.636-4.1-32.08-15.831-19.7-32.127C285.506,211.533,298.813,229.9,298.813,229.9Z" transform="translate(-38.004 3520.212)" fill="#fff"/>
      <path id="Path_13" data-name="Path 13" d="M240.761,222.816a1.581,1.581,0,0,1-1.453-2.2c5.05-11.886,17.437-27.67,47.769-35.366a1.58,1.58,0,0,1,.776,3.063c-29.076,7.377-40.866,22.31-45.637,33.539A1.58,1.58,0,0,1,240.761,222.816Z" transform="translate(-30.716 3526.646)" fill="#fff"/>
      <path id="Path_14" data-name="Path 14" d="M236.135,257.781a1.579,1.579,0,0,1-1.561-1.351,37.082,37.082,0,0,1-.021-7.974,1.58,1.58,0,1,1,3.146.288,34.709,34.709,0,0,0,0,7.232,1.583,1.583,0,0,1-1.566,1.805Z" transform="translate(-19.562 3577.735)" fill="#fff"/>
      <g id="Group_9" data-name="Group 9" transform="translate(299.207 4076.49)">
        <g id="Group_8" data-name="Group 8">
          <path id="Path_15" data-name="Path 15" d="M347.327,606.457H505.66V574.767H347.327C350.716,574.768,350.716,606.457,347.327,606.457Z" transform="translate(-342.499 -567.602)" fill="url(#linear-gradient-8)"/>
          <path id="Path_16" data-name="Path 16" d="M504.376,596.621v-14.5c0-5.113-3.129-9.257-6.989-9.257H346.711a5.5,5.5,0,0,1-5.5-5.5h0a1.67,1.67,0,0,1,1.67-1.67H507.562c3.777,0,9.772,5.938,9.772,13.262v20.255c0,6.906-5.82,12.5-9.381,12.5h-164.2a2.536,2.536,0,0,1-2.536-2.536h0a4.63,4.63,0,0,1,4.629-4.63H498.389C501.7,604.552,504.376,601,504.376,596.621Z" transform="translate(-341.215 -565.696)" fill="url(#linear-gradient-9)"/>
        </g>
        <path id="Path_17" data-name="Path 17" d="M502.516,583.578H354.058a.79.79,0,0,1,0-1.58H502.516a.79.79,0,0,1,0,1.58Z" transform="translate(-343.747 -569.12)" fill="#fff"/>
        <path id="Path_18" data-name="Path 18" d="M502.516,589.534H354.058a.79.79,0,1,1,0-1.58H502.516a.79.79,0,1,1,0,1.58Z" transform="translate(-343.747 -570.371)" fill="#fff"/>
        <path id="Path_19" data-name="Path 19" d="M502.516,595.488H354.058a.79.79,0,1,1,0-1.58H502.516a.79.79,0,0,1,0,1.58Z" transform="translate(-343.747 -571.622)" fill="#fff"/>
        <path id="Path_20" data-name="Path 20" d="M502.516,601.443H354.058a.79.79,0,1,1,0-1.58H502.516a.79.79,0,0,1,0,1.58Z" transform="translate(-343.747 -572.873)" fill="#fff"/>
        <path id="Path_21" data-name="Path 21" d="M502.516,607.4H354.058a.79.79,0,1,1,0-1.58H502.516a.79.79,0,1,1,0,1.58Z" transform="translate(-343.747 -574.124)" fill="#fff"/>
      </g>
      <g id="Group_10" data-name="Group 10" transform="translate(266.598 4122.072)">
        <rect id="Rectangle_1" data-name="Rectangle 1" width="285.856" height="69.001" rx="21.391" fill="url(#linear-gradient-10)"/>
        <rect id="Rectangle_2" data-name="Rectangle 2" width="33.582" height="53.141" rx="7.242" transform="translate(32.306 7.93)" fill="url(#linear-gradient-11)"/>
        <rect id="Rectangle_3" data-name="Rectangle 3" width="12.6" height="53.141" rx="5.89" transform="translate(70.827 7.93)" fill="url(#linear-gradient-12)"/>
      </g>
      <path id="Path_22" data-name="Path 22" d="M544.846,576.179l-9.84,88.246H649.163l-14.869-88.246Z" transform="translate(-82.715 3508.592)" fill="url(#linear-gradient-13)"/>
      <path id="Path_23" data-name="Path 23" d="M664.3,704.17H497.226c-4.539,0-7.948-3.232-7.07-6.7l2.144-8.479c.644-2.55,3.45-4.421,6.782-4.526l161.067-5.026c3.481-.109,6.563,1.739,7.321,4.389l3.865,13.5C672.339,700.84,668.914,704.17,664.3,704.17Z" transform="translate(-73.265 3486.903)" fill="url(#linear-gradient-14)"/>
      <path id="Path_24" data-name="Path 24" d="M366.172,294.952V497.058a30.659,30.659,0,0,0,29.869,30.65c73.819,1.9,263.949,6.519,334.22,5.484a22.56,22.56,0,0,0,22.211-21.917c1.355-46.953,11.556-166.856,3.411-219.274-1.715-11.039-19.032-12.293-30.2-12.65-61.852-1.979-267.49-8.261-337.727-6.684A22.285,22.285,0,0,0,366.172,294.952Z" transform="translate(-47.25 3572.4)" fill="url(#linear-gradient-15)"/>
      <path id="Path_25" data-name="Path 25" d="M382.226,296.056V488.071a17.763,17.763,0,0,0,17.5,17.762l323.8,4.842c9.622.144,24.511-7.6,24.546-17.222l-1.344-190.3c.025-6.881-10.457-12.519-17.336-12.686l-333.132-8.1A13.7,13.7,0,0,0,382.226,296.056Z" transform="translate(-50.623 3570.313)" fill="url(#linear-gradient-16)"/>
      <path id="Path_26" data-name="Path 26" d="M743.811,579.294h-.017L382,571.97a.79.79,0,0,1-.774-.806.8.8,0,0,1,.806-.774l361.8,7.324a.79.79,0,0,1-.016,1.58Z" transform="translate(-50.412 3509.808)" fill="#fff" opacity="0.65"/>
      <path id="Path_27" data-name="Path 27" d="M596.8,590.186a5.262,5.262,0,1,1,5.263-5.262A5.268,5.268,0,0,1,596.8,590.186Zm0-8.945a3.682,3.682,0,1,0,3.683,3.683A3.687,3.687,0,0,0,596.8,581.242Z" transform="translate(-94.591 3507.861)" fill="#fff" opacity="0.65"/>
      <path id="Path_28" data-name="Path 28" d="M418.4,463.121l290.145,4.647s.31-320.76-3.611-381.815a8.684,8.684,0,0,0-8.016-8.1c-37.352-2.826-207.1-4.029-280.419,1.8a8.352,8.352,0,0,0-7.7,8.537Z" transform="translate(-56.204 3613.22)" fill="url(#linear-gradient-17)"/>
      <path id="Path_29" data-name="Path 29" d="M426.8,468.427l270.138,4.327-5.5-359.244a9.84,9.84,0,0,0-7.867-9.485c-68.737-14.108-224.188-1.194-259.167-.333a7.07,7.07,0,0,0-6.895,7.253Z" transform="translate(-58.034 3608.019)" fill="#fff" opacity="0.88"/>
      <path id="Path_30" data-name="Path 30" d="M709.74,96.559c0,2.189-2.233,3.743-4.422,3.743s-4.4-1.774-4.4-3.963,2.216-3.962,4.4-3.962A4.571,4.571,0,0,1,709.74,96.559Z" transform="translate(-104.565 3603.219)" fill="#fff" opacity="0.6"/>
      <path id="Path_31" data-name="Path 31" d="M725.268,98.306c0,2.189-2.233,3.743-4.422,3.743s-4.4-1.774-4.4-3.963,2.215-3.963,4.4-3.963A4.572,4.572,0,0,1,725.268,98.306Z" transform="translate(-107.828 3602.853)" fill="#fff" opacity="0.6"/>
      <path id="Path_32" data-name="Path 32" d="M741.913,100c0,2.189-2.233,3.743-4.422,3.743s-4.4-1.774-4.4-3.963,2.216-3.963,4.4-3.963A4.572,4.572,0,0,1,741.913,100Z" transform="translate(-111.324 3602.497)" fill="#fff" opacity="0.6"/>
      <path id="Path_33" data-name="Path 33" d="M612.79,688.573a.79.79,0,0,1-.012-1.58l6.9-.1a.806.806,0,0,1,.8.778.791.791,0,0,1-.778.8l-6.9.1Z" transform="translate(-98.889 3485.336)" fill="#fff"/>
      <path id="Path_34" data-name="Path 34" d="M497.813,701.375a.743.743,0,0,1-.125-.01.789.789,0,0,1-.656-.9l.984-6.166a7.125,7.125,0,0,1,6.943-6.011l73.205-1.07a.79.79,0,1,1,.023,1.58l-73.2,1.07a5.547,5.547,0,0,0-5.406,4.68l-.984,6.167A.791.791,0,0,1,497.813,701.375Z" transform="translate(-74.736 3485.269)" fill="#fff"/>
      <path id="Path_35" data-name="Path 35" d="M671.8,196.226h-.009l-7.9-.088a.79.79,0,0,1,.009-1.58h.009l7.9.088a.79.79,0,0,1-.009,1.58Zm-15.8-.175H656l-7.9-.088a.79.79,0,0,1-.781-.8.774.774,0,0,1,.8-.78l7.9.088a.79.79,0,0,1-.009,1.58Zm-15.8-.175H640.2l-7.9-.088a.79.79,0,0,1-.781-.8.764.764,0,0,1,.8-.781l7.9.088a.79.79,0,0,1-.009,1.58Zm-15.8-.176H624.4l-7.9-.088a.79.79,0,0,1,.017-1.58l7.9.088a.79.79,0,0,1-.008,1.58Zm-15.8-.175H608.6l-7.9-.088a.79.79,0,0,1,.009-1.58h.008l7.9.088a.79.79,0,0,1-.008,1.58Zm-15.8-.175H592.8l-7.9-.088a.79.79,0,0,1-.781-.8.768.768,0,0,1,.8-.781l7.9.088a.79.79,0,0,1-.008,1.58Zm-15.8-.175h-.009l-7.9-.088a.79.79,0,0,1,.009-1.58h.008l7.9.088a.79.79,0,0,1-.008,1.58Zm-15.8-.175h-.009l-7.9-.089a.79.79,0,0,1,.009-1.58h.009l7.9.088a.79.79,0,0,1-.009,1.58Zm118.261-.053a.79.79,0,0,1-.383-1.481,9.742,9.742,0,0,0,4.557-5.494.79.79,0,1,1,1.5.494,11.311,11.311,0,0,1-5.294,6.383A.782.782,0,0,1,679.478,194.945Zm-134.059-.122h-.009l-7.9-.088a.79.79,0,0,1-.78-.8.771.771,0,0,1,.8-.781l7.9.089a.79.79,0,0,1-.009,1.58Zm-15.8-.176h-.009l-7.9-.088a.79.79,0,0,1,.009-1.58h.009l7.9.088a.79.79,0,0,1-.009,1.58Zm-15.8-.175h-.009l-7.9-.088a.79.79,0,0,1,.018-1.58l7.9.088a.79.79,0,0,1-.009,1.58Zm-15.8-.175h-.009l-7.9-.088a.79.79,0,0,1,.009-1.58h.01l7.9.088a.79.79,0,0,1-.009,1.58Zm-15.8-.175h-.009l-7.9-.088a.79.79,0,0,1-.781-.8.766.766,0,0,1,.8-.78l7.9.088a.79.79,0,0,1-.009,1.58Zm-15.8-.175h-.009l-7.9-.088a.79.79,0,0,1,.008-1.58h.01l7.9.088a.79.79,0,0,1-.01,1.58Zm-15.8-.175h-.009l-5.242-.058a10.679,10.679,0,0,1-2.83-.413.79.79,0,0,1,.436-1.518,9.082,9.082,0,0,0,2.411.352l5.243.058a.79.79,0,0,1-.01,1.58Zm-13.842-5.275a.788.788,0,0,1-.7-.417,10.6,10.6,0,0,1-1.236-4.326l-.245-3.694a.79.79,0,0,1,.736-.84.778.778,0,0,1,.841.735l.245,3.694a9.008,9.008,0,0,0,1.052,3.685.789.789,0,0,1-.7,1.163Zm248.139-7.331a.79.79,0,0,1-.79-.79v-7.9a.79.79,0,1,1,1.58,0v7.9A.79.79,0,0,1,684.929,181.164Zm-250.052-8.25a.79.79,0,0,1-.788-.738l-.523-7.883a.79.79,0,0,1,.736-.84.781.781,0,0,1,.841.735l.523,7.883a.791.791,0,0,1-.736.841Zm250.052-7.549a.79.79,0,0,1-.79-.79v-7.9a.79.79,0,1,1,1.58,0v7.9A.79.79,0,0,1,684.929,165.365Zm-251.1-8.216a.79.79,0,0,1-.788-.738l-.522-7.881a.79.79,0,1,1,1.576-.105l.523,7.882a.79.79,0,0,1-.736.84C433.866,157.149,433.849,157.149,433.831,157.149Zm251.1-7.583a.79.79,0,0,1-.79-.79v-7.9a.79.79,0,1,1,1.58,0v7.9A.79.79,0,0,1,684.929,149.566Zm-252.143-8.181a.79.79,0,0,1-.788-.738l-.523-7.882q-.025-.368-.025-.735a10.813,10.813,0,0,1,1.109-4.795.79.79,0,0,1,1.42.694,9.247,9.247,0,0,0-.949,4.1c0,.209.006.419.021.63l.524,7.883a.79.79,0,0,1-.736.84C432.821,141.385,432.8,141.385,432.786,141.385Zm249.8-7.065a.786.786,0,0,1-.607-.284,9.285,9.285,0,0,0-6.273-3.323.79.79,0,0,1,.153-1.572,10.85,10.85,0,0,1,7.334,3.885.789.789,0,0,1-.607,1.295Zm-14.69-4.23-.063,0c-2.413-.188-5.05-.392-7.886-.608a.789.789,0,0,1-.727-.848.779.779,0,0,1,.848-.728c2.838.216,5.474.419,7.89.608a.79.79,0,0,1-.061,1.577Zm-15.776-1.2-.059,0q-3.779-.28-7.888-.577a.79.79,0,0,1-.731-.844.8.8,0,0,1,.845-.731q4.1.3,7.89.578a.79.79,0,0,1-.058,1.578Zm-15.778-1.141c-.018,0-.037,0-.056,0q-3.84-.27-7.888-.547a.79.79,0,1,1,.107-1.576q4.045.277,7.892.547a.79.79,0,0,1-.055,1.578Zm-15.78-1.079c-.018,0-.036,0-.054,0q-3.876-.257-7.889-.517a.79.79,0,0,1-.738-.839.78.78,0,0,1,.84-.738q4.011.259,7.892.517a.79.79,0,0,1-.051,1.578Zm-15.782-1.016-.05,0q-3.9-.243-7.891-.483a.79.79,0,0,1,.1-1.577q3.99.239,7.894.483a.79.79,0,0,1-.049,1.578ZM589,124.7a.463.463,0,0,1-.047,0q-3.917-.226-7.892-.446a.789.789,0,0,1-.744-.833.776.776,0,0,1,.832-.745q3.974.219,7.9.446A.79.79,0,0,1,589,124.7Zm-15.789-.874-.042,0q-3.924-.207-7.878-.406a.79.79,0,0,1,.08-1.578q3.952.2,7.881.406a.79.79,0,0,1-.041,1.579Zm-134.191-.589a.79.79,0,0,1-.265-1.534,11.092,11.092,0,0,1,2.536-.577c1.722-.184,3.565-.355,5.476-.509a.79.79,0,1,1,.126,1.574c-1.9.152-3.726.322-5.434.5a9.512,9.512,0,0,0-2.174.5A.794.794,0,0,1,439.015,123.24Zm118.422-.2H557.4q-3.948-.186-7.9-.36a.789.789,0,0,1-.754-.824.8.8,0,0,1,.824-.754q3.952.174,7.9.36a.79.79,0,0,1-.036,1.579Zm-15.815-.694h-.032q-3.96-.16-7.9-.3a.79.79,0,0,1-.761-.818.8.8,0,0,1,.818-.761q3.939.145,7.9.306a.79.79,0,0,1-.032,1.579Zm-15.8-.579h-.026q-3.975-.129-7.9-.239a.791.791,0,0,1-.768-.811.781.781,0,0,1,.811-.768q3.926.11,7.907.239a.79.79,0,0,1-.024,1.579Zm-71.114-.087a.79.79,0,0,1-.041-1.579c2.487-.131,5.148-.245,7.908-.337a.771.771,0,0,1,.816.762.791.791,0,0,1-.763.817c-2.751.092-5.4.205-7.878.336Zm55.306-.352h-.019q-3.991-.091-7.9-.156a.79.79,0,0,1,.013-1.58h.013q3.91.065,7.91.157a.79.79,0,0,1-.017,1.579Zm-39.516-.19a.79.79,0,0,1-.014-1.58q3.856-.072,7.909-.1h.006a.79.79,0,0,1,.006,1.58q-4.041.031-7.891.1Zm23.7-.073h-.008q-4.012-.04-7.9-.049a.79.79,0,0,1,0-1.58h0q3.89.008,7.911.049a.79.79,0,0,1-.008,1.58Z" transform="translate(-60.963 3604.535)" fill="url(#linear-gradient-18)"/>
      <path id="Path_36" data-name="Path 36" d="M519.4,416.612h-7.9a.79.79,0,0,1,0-1.58h7.9a.79.79,0,0,1,0,1.58Zm-15.8,0h-7.9a.79.79,0,0,1,0-1.58h7.9a.79.79,0,1,1,0,1.58Zm-15.8,0h-7.9a.79.79,0,0,1,0-1.58h7.9a.79.79,0,1,1,0,1.58Zm-15.8,0h-7.9a.79.79,0,1,1,0-1.58H472a.79.79,0,0,1,0,1.58Zm-15.8,0H452.78a12.056,12.056,0,0,1-4.664-.93.79.79,0,0,1,.608-1.458,10.494,10.494,0,0,0,4.056.808H456.2a.79.79,0,1,1,0,1.58Zm70.816-1.544a.79.79,0,0,1-.405-1.468,10.248,10.248,0,0,0,4.5-5.594.79.79,0,0,1,1.5.5,11.833,11.833,0,0,1-5.191,6.456A.789.789,0,0,1,527.02,415.069Zm-84.3-4.56a.789.789,0,0,1-.7-.425,12.015,12.015,0,0,1-1.366-5.312l-.065-2.725a.789.789,0,0,1,.77-.809.777.777,0,0,1,.809.771l.065,2.725a10.46,10.46,0,0,0,1.187,4.62.789.789,0,0,1-.7,1.155Zm89.7-9.3a.79.79,0,0,1-.79-.79v-7.9a.79.79,0,1,1,1.58,0v7.9A.79.79,0,0,1,532.416,401.205Zm-91.227-6.284a.79.79,0,0,1-.789-.772l-.189-7.9a.789.789,0,0,1,.771-.808.775.775,0,0,1,.808.77l.189,7.9a.789.789,0,0,1-.77.808Zm91.227-9.515a.79.79,0,0,1-.79-.79v-7.9a.79.79,0,1,1,1.58,0v7.9A.79.79,0,0,1,532.416,385.406Zm-91.6-6.28a.789.789,0,0,1-.789-.771l-.189-7.9a.789.789,0,0,1,.77-.808.774.774,0,0,1,.808.77l.19,7.9a.79.79,0,0,1-.771.809Zm91.6-9.519a.79.79,0,0,1-.79-.79v-7.9a.79.79,0,1,1,1.58,0v7.9A.79.79,0,0,1,532.416,369.608Zm-91.983-6.275a.79.79,0,0,1-.789-.771l-.189-7.9a.79.79,0,0,1,1.579-.038l.189,7.9a.79.79,0,0,1-.77.809Zm91.983-9.524a.79.79,0,0,1-.79-.79v-7.9a.79.79,0,0,1,1.58,0v7.9A.79.79,0,0,1,532.416,353.809Zm-92.361-6.271a.79.79,0,0,1-.789-.771l-.189-7.9a.79.79,0,1,1,1.579-.037l.189,7.9a.79.79,0,0,1-.77.809Zm92.361-9.528a.79.79,0,0,1-.79-.79v-7.9a.79.79,0,1,1,1.58,0v7.9A.79.79,0,0,1,532.416,338.01Zm-92.738-6.267a.789.789,0,0,1-.789-.771l-.19-7.9a.79.79,0,0,1,.771-.808.774.774,0,0,1,.809.77l.189,7.9a.79.79,0,0,1-.771.809Zm92.738-9.532a.79.79,0,0,1-.79-.79v-7.9a.79.79,0,1,1,1.58,0v7.9A.79.79,0,0,1,532.416,322.211ZM439.3,315.949a.79.79,0,0,1-.789-.771l-.189-7.9a.789.789,0,0,1,.771-.808.772.772,0,0,1,.808.77l.189,7.9a.789.789,0,0,1-.77.809Zm93.117-9.537a.79.79,0,0,1-.79-.79v-7.9a.79.79,0,1,1,1.58,0v7.9A.79.79,0,0,1,532.416,306.412Zm-93.494-6.257a.789.789,0,0,1-.789-.771l-.19-7.9a.79.79,0,0,1,1.579-.038l.19,7.9a.791.791,0,0,1-.771.809Zm93.494-9.542a.79.79,0,0,1-.79-.79v-7.9a.79.79,0,1,1,1.58,0v7.9A.79.79,0,0,1,532.416,290.613Zm-93.873-6.252a.79.79,0,0,1-.789-.771l-.189-7.9a.79.79,0,1,1,1.579-.037l.189,7.9a.789.789,0,0,1-.77.808Zm93.873-9.546a.79.79,0,0,1-.79-.79v-7.9a.79.79,0,1,1,1.58,0v7.9A.79.79,0,0,1,532.416,274.815Zm-94.25-6.248a.789.789,0,0,1-.789-.771l-.19-7.9a.79.79,0,0,1,1.579-.038l.19,7.9a.79.79,0,0,1-.771.808Zm94.25-9.55a.79.79,0,0,1-.79-.79v-7.9a.79.79,0,1,1,1.58,0v7.9A.79.79,0,0,1,532.416,259.016Zm-94.629-6.244A.79.79,0,0,1,437,252l-.147-6.3a11.488,11.488,0,0,1,.131-1.732.79.79,0,0,1,1.562.239,9.886,9.886,0,0,0-.113,1.493l0,.241.144,6.019a.789.789,0,0,1-.771.809Zm94.092-9.5a.79.79,0,0,1-.75-.544,9.937,9.937,0,0,0-4.537-5.532.79.79,0,0,1,.781-1.373,11.509,11.509,0,0,1,5.255,6.41.792.792,0,0,1-.75,1.038Zm-90.24-5.066a.79.79,0,0,1-.493-1.408,11.26,11.26,0,0,1,7.087-2.474h7.9a.79.79,0,1,1,0,1.58h-7.9a9.7,9.7,0,0,0-6.1,2.13A.789.789,0,0,1,441.639,238.21Zm77.688-2.3h-7.9a.79.79,0,0,1,0-1.58h7.9a.79.79,0,0,1,0,1.58Zm-15.8,0h-7.9a.79.79,0,0,1,0-1.58h7.9a.79.79,0,0,1,0,1.58Zm-15.8,0h-7.9a.79.79,0,1,1,0-1.58h7.9a.79.79,0,1,1,0,1.58Zm-15.8,0h-7.9a.79.79,0,1,1,0-1.58h7.9a.79.79,0,0,1,0,1.58Z" transform="translate(-62.097 3580.401)" fill="url(#linear-gradient-18)"/>
      <path id="Path_37" data-name="Path 37" d="M579.667,245.5v43.346a8.567,8.567,0,0,0,8.554,8.566l118.391.16a11.542,11.542,0,0,0,11.558-11.543V249.534a10.667,10.667,0,0,0-10.162-10.66c-24.939-1.181-89.21-4.072-117.848-3.932A10.548,10.548,0,0,0,579.667,245.5Z" transform="translate(-92.097 3580.273)" fill="url(#linear-gradient-20)"/>
      <path id="Path_38" data-name="Path 38" d="M708.821,439.928h-.013l-7.9-.12a.79.79,0,0,1,.013-1.58h.012l7.9.12a.79.79,0,0,1-.012,1.58Zm-15.8-.239h-.013l-7.9-.12a.79.79,0,0,1,.013-1.58h.012l7.9.12a.79.79,0,0,1-.012,1.58Zm-15.8-.24h-.013l-7.9-.119a.79.79,0,0,1,.012-1.58h.013l7.9.119a.79.79,0,0,1-.012,1.58Zm-15.8-.239h-.013l-7.9-.12a.79.79,0,0,1,.013-1.58h.012l7.9.12a.79.79,0,0,1-.012,1.58Zm-15.8-.239h-.013l-7.9-.12a.79.79,0,0,1,.012-1.58h.013l7.9.12a.79.79,0,0,1-.012,1.58Zm-15.8-.239h-.012l-7.9-.12a.79.79,0,0,1,.012-1.58h.013l7.9.12a.79.79,0,0,1-.013,1.58Zm-15.8-.24h-.012l-7.9-.119a.79.79,0,0,1,.012-1.58h.013l7.9.119a.79.79,0,0,1-.013,1.58Zm-15.8-.239h-.012l-7.11-.107q-.423-.007-.84-.041a.79.79,0,1,1,.129-1.574q.364.03.735.036l7.111.107a.79.79,0,0,1-.013,1.58Zm118.013-.516a.79.79,0,0,1-.464-1.431,10.922,10.922,0,0,0,4.127-5.928.79.79,0,0,1,1.523.419,12.507,12.507,0,0,1-4.725,6.79A.793.793,0,0,1,716.254,437.735Zm-133-2.753a.79.79,0,0,1-.537-.211,12.684,12.684,0,0,1-3.893-7.3.79.79,0,1,1,1.561-.245,11.093,11.093,0,0,0,3.406,6.382.79.79,0,0,1-.537,1.37Zm137.688-11.465a.79.79,0,0,1-.789-.762l-.273-7.895a.789.789,0,0,1,.761-.817.77.77,0,0,1,.817.762l.274,7.894a.79.79,0,0,1-.762.817Zm-141.482-3.266a.79.79,0,0,1-.79-.79v-7.9a.79.79,0,0,1,1.58,0v7.9A.79.79,0,0,1,579.457,420.251ZM720.39,407.727a.79.79,0,0,1-.789-.762l-.274-7.895a.791.791,0,0,1,.761-.818.774.774,0,0,1,.817.762l.274,7.9a.789.789,0,0,1-.761.817Zm-140.933-3.275a.79.79,0,0,1-.79-.79v-7.9a.79.79,0,1,1,1.58,0v7.9A.79.79,0,0,1,579.457,404.452Zm140.387-12.514a.789.789,0,0,1-.788-.762l-.274-7.895a.79.79,0,1,1,1.578-.055l.274,7.895a.789.789,0,0,1-.762.817Zm-140.387-3.285a.79.79,0,0,1-.79-.79v-7.9a.79.79,0,0,1,1.58,0v7.9A.79.79,0,0,1,579.457,388.653Zm139.839-12.5a.79.79,0,0,1-.788-.762l-.273-7.895a.79.79,0,1,1,1.578-.054l.273,7.894a.789.789,0,0,1-.762.818Zm-139.839-3.294a.79.79,0,0,1-.79-.79v-7.9a.79.79,0,0,1,1.58,0v7.9A.79.79,0,0,1,579.457,372.854Zm139.292-12.5a.79.79,0,0,1-.788-.762l-.274-7.895a.789.789,0,0,1,.762-.817.771.771,0,0,1,.817.762l.274,7.895a.789.789,0,0,1-.762.817Zm-139.292-3.3a.79.79,0,0,1-.79-.79v-7.9a12.28,12.28,0,0,1,1.07-5.041.79.79,0,0,1,1.442.644,10.719,10.719,0,0,0-.932,4.4v7.9A.79.79,0,0,1,579.457,357.056Zm137.631-12.288a.79.79,0,0,1-.71-.442,12.046,12.046,0,0,0-5.043-5.277.79.79,0,1,1,.761-1.385,13.616,13.616,0,0,1,5.7,5.966.789.789,0,0,1-.708,1.138Zm-131.293-5.947a.79.79,0,0,1-.36-1.494,12.257,12.257,0,0,1,5.614-1.344h2.444a.79.79,0,1,1,0,1.58h-2.444a10.677,10.677,0,0,0-4.9,1.172A.791.791,0,0,1,585.795,338.821Zm118.29-1.258h-7.9a.79.79,0,1,1,0-1.58h7.9a.79.79,0,1,1,0,1.58Zm-15.8,0h-7.9a.79.79,0,0,1,0-1.58h7.9a.79.79,0,1,1,0,1.58Zm-15.8,0h-7.9a.79.79,0,1,1,0-1.58h7.9a.79.79,0,0,1,0,1.58Zm-15.8,0h-7.9a.79.79,0,1,1,0-1.58h7.9a.79.79,0,1,1,0,1.58Zm-15.8,0h-7.9a.79.79,0,0,1,0-1.58h7.9a.79.79,0,0,1,0,1.58Zm-15.8,0h-7.9a.79.79,0,1,1,0-1.58h7.9a.79.79,0,0,1,0,1.58Zm-15.8,0h-7.9a.79.79,0,0,1,0-1.58h7.9a.79.79,0,1,1,0,1.58Z" transform="translate(-91.887 3559.048)" fill="url(#linear-gradient-18)"/>
      <path id="Path_39" data-name="Path 39" d="M689.392,552.972a.79.79,0,0,1-.79-.79v-5.129a.79.79,0,0,1,1.58,0v5.129A.79.79,0,0,1,689.392,552.972Zm-245.935-4.349a.79.79,0,0,1-.79-.79v-7.9a.79.79,0,0,1,1.58,0v7.9A.79.79,0,0,1,443.457,548.623Zm245.935-8.679a.79.79,0,0,1-.79-.79v-7.9a.79.79,0,0,1,1.58,0v7.9A.79.79,0,0,1,689.392,539.944Zm-245.935-7.12a.79.79,0,0,1-.79-.79v-7.9a.79.79,0,1,1,1.58,0v7.9A.79.79,0,0,1,443.457,532.824Zm245.935-8.679a.79.79,0,0,1-.79-.79v-7.9a.79.79,0,0,1,1.58,0v7.9A.79.79,0,0,1,689.392,524.145Zm-245.935-7.12a.79.79,0,0,1-.79-.79v-7.9a.79.79,0,1,1,1.58,0v7.9A.79.79,0,0,1,443.457,517.025Zm245.935-8.679a.79.79,0,0,1-.79-.79v-7.9a.79.79,0,0,1,1.58,0v7.9A.79.79,0,0,1,689.392,508.346Zm-245.935-7.12a.79.79,0,0,1-.79-.79v-7q0-.482.036-.955a.79.79,0,0,1,1.576.123c-.022.274-.032.552-.032.832v7A.79.79,0,0,1,443.457,501.226Zm244.484-8.445a.79.79,0,0,1-.7-.428,12.293,12.293,0,0,0-5.128-5.212.79.79,0,0,1,.748-1.391,13.861,13.861,0,0,1,5.784,5.879.79.79,0,0,1-.7,1.153ZM446.7,486.287a.789.789,0,0,1-.563-1.343,12.108,12.108,0,0,1,7.467-3.572.79.79,0,1,1,.152,1.573,10.535,10.535,0,0,0-6.493,3.106A.787.787,0,0,1,446.7,486.287Zm228.144-.622h-.01l-7.9-.1a.79.79,0,0,1,.01-1.58h.01l7.9.1a.79.79,0,0,1-.01,1.58Zm-15.8-.2h-.01l-7.9-.1a.79.79,0,0,1,.01-1.58h.01l7.9.1a.79.79,0,0,1-.01,1.58Zm-15.8-.2h-.01l-7.9-.1a.79.79,0,0,1,.01-1.58h.01l7.9.1a.79.79,0,0,1-.01,1.58Zm-15.8-.2h-.01l-7.9-.1a.79.79,0,0,1,.01-1.58h.01l7.9.1a.79.79,0,0,1-.01,1.58Zm-15.8-.2h-.01l-7.9-.1a.79.79,0,0,1,.01-1.58h.01l7.9.1a.79.79,0,0,1-.01,1.58Zm-15.8-.2h-.01l-7.9-.1a.79.79,0,0,1,.01-1.58h.009l7.9.1a.79.79,0,0,1-.009,1.58Zm-15.8-.2h-.01l-7.9-.1a.79.79,0,0,1,.01-1.58h.009l7.9.1a.79.79,0,0,1-.01,1.58Zm-15.8-.2h-.01l-7.9-.1a.79.79,0,0,1-.78-.8.782.782,0,0,1,.8-.78l7.9.1a.79.79,0,0,1-.009,1.58Zm-15.8-.2h-.011l-7.9-.1a.789.789,0,0,1-.78-.8.82.82,0,0,1,.8-.78l7.9.1a.79.79,0,0,1-.009,1.58Zm-15.8-.2h-.01l-7.9-.1a.789.789,0,0,1-.78-.8.816.816,0,0,1,.8-.78l7.9.1a.79.79,0,0,1-.01,1.58Zm-15.8-.2h-.01l-7.9-.1a.79.79,0,0,1,.01-1.58h.01l7.9.1a.79.79,0,0,1-.01,1.58Zm-15.8-.2h-.01l-7.9-.1a.79.79,0,0,1,.009-1.58h.01l7.9.1a.79.79,0,0,1-.01,1.58Zm-15.8-.2h-.01l-7.9-.1a.79.79,0,0,1,.01-1.58h.01l7.9.1a.79.79,0,0,1-.009,1.58Zm-15.8-.2h-.01l-7.9-.1a.79.79,0,0,1,.01-1.58h.011l7.9.1a.79.79,0,0,1-.01,1.58Z" transform="translate(-63.319 3528.508)" fill="url(#linear-gradient-18)"/>
      <g id="Group_13" data-name="Group 13" transform="translate(662.141 3945.602)">
        <path id="Path_40" data-name="Path 40" d="M803.555,412.03c-.932,37.6-3.955,167.3-2.512,213.264a9.228,9.228,0,0,0,8.926,8.937c24.082.788,93.361,2.785,132.752,1.133a15.539,15.539,0,0,0,14.9-15.2c.818-39.467,2.624-155.474-1.668-206.326a12.682,12.682,0,0,0-11.381-11.554c-26.227-2.623-95.885-4.037-129.916-1.828A11.883,11.883,0,0,0,803.555,412.03Z" transform="translate(-800.659 -400.001)" fill="url(#linear-gradient-15)"/>
        <path id="Path_41" data-name="Path 41" d="M813.554,427.166c-1.3,30.35-5.385,131.316-4.088,168.652a10.565,10.565,0,0,0,9.942,10.189c22.444,1.313,80.009,4.209,112.928,1.573a11.872,11.872,0,0,0,10.9-11.206c1.668-30.963,2.458-128.977,1.214-165.894a11.671,11.671,0,0,0-10.629-11.226c-24.28-2.179-82.641-3.367-110.614-1.841A10.206,10.206,0,0,0,813.554,427.166Z" transform="translate(-802.456 -403.6)" fill="url(#linear-gradient-24)"/>
        <rect id="Rectangle_4" data-name="Rectangle 4" width="21.344" height="18.236" rx="5.827" transform="translate(20.808 156.17)" fill="#283357"/>
        <rect id="Rectangle_5" data-name="Rectangle 5" width="21.344" height="18.236" rx="5.827" transform="translate(57.645 156.17)" fill="#283357"/>
        <rect id="Rectangle_6" data-name="Rectangle 6" width="21.344" height="18.236" rx="5.827" transform="translate(94.482 156.17)" fill="#283357"/>
        <path id="Path_42" data-name="Path 42" d="M876.827,468a3.739,3.739,0,0,0-3.62-3.9c-6.873-.22-22.034,1.754-36.2,20.381-19.086,25.092-3.536,59.6,36.737,60.257,37.009.6,49.673-27.34,49.09-44.252a3.245,3.245,0,0,0-4.272-2.932l-39.471,13a3.041,3.041,0,0,1-3.989-3.021Z" transform="translate(-806.59 -413.462)" fill="url(#linear-gradient-25)"/>
        <path id="Path_43" data-name="Path 43" d="M900.233,462.082,894,499.145a2.464,2.464,0,0,0,3.463,2.646L931.445,486.1a4.906,4.906,0,0,0,2.626-5.964c-2.168-6.623-8.864-18.863-29.036-21.617A4.3,4.3,0,0,0,900.233,462.082Z" transform="translate(-820.258 -412.284)" fill="#487d9e"/>
        <path id="Path_44" data-name="Path 44" d="M889.226,686.656A10.661,10.661,0,1,1,899.888,676,10.673,10.673,0,0,1,889.226,686.656Zm0-19.742A9.081,9.081,0,1,0,898.308,676,9.092,9.092,0,0,0,889.226,666.914Z" transform="translate(-817.024 -455.737)" fill="#fff" opacity="0.65"/>
        <path id="Path_45" data-name="Path 45" d="M876.449,408.3h0a2.165,2.165,0,0,0,2.052,2.166c5.688.3,21.711,1.141,28.872,1.556a2.167,2.167,0,0,0,2.252-2.576l-.046-.237a2.166,2.166,0,0,0-1.929-1.749c-4.841-.444-19.447-1.674-29.124-1.328A2.162,2.162,0,0,0,876.449,408.3Z" transform="translate(-816.579 -401.277)" fill="#fff" opacity="0.5"/>
      </g>
      <g id="Group_15" data-name="Group 15" transform="translate(730.984 4046.474)">
        <path id="Path_46" data-name="Path 46" d="M1050.391,561.85s15.75,8.725,17.052,23.49.108,76.052-31.473,91.135-73.384,11.608-89.385,9.96-24.874-12.525-26.856-20.012-5.183-35.38,11.65-44.377,34.513-22.781,52.179-36.2S1031.5,550.513,1050.391,561.85Z" transform="translate(-894.173 -534.211)" fill="url(#linear-gradient-26)"/>
        <path id="Path_47" data-name="Path 47" d="M936.237,645.336s4.251.224,4.772,8.97c0,0-3.253,3.652-16.566,5.755-1,.158-5.207-1.64-4.847-2.585C921.31,652.976,926.71,650.079,936.237,645.336Z" transform="translate(-894.066 -552.409)" fill="url(#linear-gradient-27)"/>
        <path id="Path_48" data-name="Path 48" d="M985.853,623.418h-8.97s-27.531-30.406-45.588-33.474c0,0-12.569,16.045.67,46.024a4.375,4.375,0,0,0,6.265,2.063,3.577,3.577,0,0,0,1.431-1.706l-1.064-25.6s23.484,20.54,27.566,24.5S990.994,636.78,985.853,623.418Z" transform="translate(-895.81 -540.773)" fill="url(#linear-gradient-28)"/>
        <path id="Path_49" data-name="Path 49" d="M891.986,710.992a33.722,33.722,0,0,1,18.395-8.049l2.924,1.788a31.869,31.869,0,0,1-5.271,5.655c-3.13,1.818-7.965,4.281-11.972,4.815C892.165,715.72,891.59,713.366,891.986,710.992Z" transform="translate(-888.664 -564.51)" fill="url(#linear-gradient-29)"/>
        <path id="Path_52" data-name="Path 52" d="M982.662,640.535l-42.006.455s-23.988,19.846-28.339,50.11c0,0-.722,2.225,3.614,2.606a83.265,83.265,0,0,0,23.96-26.219c11.6-20.534,34.567-11.291,34.567-11.291,7.548-5.442,18.214-6.55,26.248-8.363Z" transform="translate(-892.947 -551.401)" fill="url(#linear-gradient-30)"/>
        <path id="Path_53" data-name="Path 53" d="M990.44,597.7s-4.522,22.663-26.679,31.628l-7.881-.929-1.86,2.965,18.487.589a50.567,50.567,0,0,0,24.175-23.314C996.959,608.075,1001.569,598.555,990.44,597.7Z" transform="translate(-901.717 -542.403)" fill="#f9b776"/>
        <path id="Path_54" data-name="Path 54" d="M996.871,625.384s5.142-13.978,6.247-27.56A59.344,59.344,0,0,0,997,593.2a1.7,1.7,0,0,1-.664-2.2c1.728-3.582,12.183-17.643,12.966-17.839,4.257-1.062,21.714-9.362,34.009,7.455,5.276,7.218-1.047,29.436-24.987,52.445l-4.939.945Z" transform="translate(-910.571 -536.62)" fill="url(#linear-gradient-31)"/>
        <path id="Path_55" data-name="Path 55" d="M1009.082,609.055s-14.287,16.916-32.553,19.389c0,0-4.721-4.3-8.23-2.767S959.975,634,959.975,634h23.453s22.176-.782,33.257-14.229C1015.794,615.061,1013.123,612.25,1009.082,609.055Z" transform="translate(-902.968 -544.788)" fill="#f9b776"/>
        <path id="Path_56" data-name="Path 56" d="M1030.035,558.925l3.126,10.426a1.148,1.148,0,0,1-.445,1.276,11.647,11.647,0,0,1-10.835,1.089,1.7,1.7,0,0,1-1.093-1.46l-.741-9.083Z" transform="translate(-915.586 -534.258)" fill="#eba25a"/>
        <g id="Group_14" data-name="Group 14" transform="translate(89.319 0)">
          <path id="Path_57" data-name="Path 57" d="M1009.519,546.342s1.537,10.807,5.688,14.131,12.241.821,14.973-7.327l-5.443-13.931Z" transform="translate(-1002.694 -530.117)" fill="url(#linear-gradient-32)"/>
          <path id="Path_58" data-name="Path 58" d="M1023.534,545.811a.534.534,0,0,1-.7-.428,13.973,13.973,0,0,0-1.282-4.317s.4-1.418-3.583.724-9.957,5.289-13.476,3.415c-3.431-1.826-6.906-11.02,2.161-9.317a.535.535,0,0,0,.637-.561c-.111-1.51.039-4.987,3.559-6.1,3.294-1.044,5.1.443,5.841,1.34a.531.531,0,0,0,.833-.013c.987-1.288,3.667-4.031,7.613-2.292,3.249,1.432,3.755,3.434,3.7,4.681a.533.533,0,0,0,.76.509c1-.458,2.6-.7,4.13,1.225,2.12,2.656-.909,4.959-1.819,5.563a.539.539,0,0,0-.242.442c-.009,1.381-.224,7.407-3.244,10.806a.54.54,0,0,1-.9-.156l-2.325-5.54a.537.537,0,0,0-.66-.3Z" transform="translate(-1000.879 -527.698)" fill="url(#linear-gradient-33)"/>
          <path id="Path_59" data-name="Path 59" d="M1029.5,550.913s1.42-5.783,3.577-3.906-.562,6.011-3.033,6.8Z" transform="translate(-1006.89 -531.675)" fill="url(#linear-gradient-34)"/>
        </g>
        <path id="Path_60" data-name="Path 60" d="M953.466,632.012l-10.531-35.118a3.592,3.592,0,0,0-3.195-2.552l-14.217-.972a2.016,2.016,0,0,0-2.04,2.679l11.772,33.537a2.951,2.951,0,0,0,2.489,1.959l14,1.555Z" transform="translate(-895.278 -541.492)" fill="url(#linear-gradient-35)"/>
        <path id="Path_61" data-name="Path 61" d="M936.741,611.9c.786,1.587,2.144,2.517,3.033,2.077s.972-2.084.186-3.671-2.144-2.517-3.032-2.076S935.955,610.308,936.741,611.9Z" transform="translate(-897.974 -544.591)" fill="url(#linear-gradient-36)"/>
        <path id="Path_62" data-name="Path 62" d="M958.935,642.556l.069,0,29.832-1.508a1.337,1.337,0,1,0-.135-2.67l-29.832,1.508a1.337,1.337,0,0,0,.066,2.672Z" transform="translate(-902.469 -550.946)" fill="url(#linear-gradient-37)"/>
        <path id="Path_63" data-name="Path 63" d="M1004.86,601.57a.4.4,0,0,1-.4-.393c-.021-6.325,2.41-14.685,2.435-14.769a.395.395,0,0,1,.758.222c-.024.083-2.422,8.335-2.4,14.544a.4.4,0,0,1-.393.4Z" transform="translate(-912.313 -539.971)" fill="#e78456"/>
        <path id="Path_64" data-name="Path 64" d="M1022.035,605.621a.4.4,0,0,1-.31-.64c.066-.082,6.533-8.3,8.743-13.9a.395.395,0,1,1,.734.29c-2.252,5.706-8.588,13.762-8.857,14.1A.393.393,0,0,1,1022.035,605.621Z" transform="translate(-915.921 -540.959)" fill="#e78456"/>
        <path id="Path_65" data-name="Path 65" d="M1033.337,621.349l-1.268-1.792a.395.395,0,1,1,.645-.456l.9,1.268c9.061-4.057,14.665-14.892,14.721-15a.395.395,0,1,1,.7.359c-.058.114-5.913,11.434-15.406,15.5Z" transform="translate(-918.096 -543.968)" fill="#e78456"/>
      </g>
      <path id="Path_66" data-name="Path 66" d="M264.51,537.175a37.256,37.256,0,0,1-8.666,6.335,71.962,71.962,0,0,0,15.838,14.085l1.96,4.4,6.278-7.524S268.655,548.862,264.51,537.175Z" transform="translate(-24.075 3516.785)" fill="url(#linear-gradient-38)"/>
      <g id="Group_17" data-name="Group 17" transform="translate(185.628 3886.998)">
        <path id="Path_67" data-name="Path 67" d="M431.41,399.831S414,358.16,450.945,341.269s48.522,7.113,79.466-9.825C530.412,331.444,508.824,404.977,431.41,399.831Z" transform="translate(-245.721 -326.997)" fill="url(#linear-gradient-39)"/>
        <path id="Path_68" data-name="Path 68" d="M481.587,330.872c-1.619-.134-10.588-3.068-13.3,1.8s1.329,8.439,13.3,9.749,13.241,9.6,3.129,15.134-4.725,12.912,6.8,9.418,11.319.541,6.485,7.015,4.646,13.239,14.915,5.907c9.435-6.736,27.13-24.878,33.812-49.829a3.392,3.392,0,0,0-4.452-4.044C533.63,329.189,514.876,333.634,481.587,330.872Z" transform="translate(-254.158 -325.814)" fill="url(#linear-gradient-40)"/>
        <path id="Path_69" data-name="Path 69" d="M437.018,390.915a34.87,34.87,0,0,1-1.878-13.11,34.063,34.063,0,0,1,3.17-13.015,37.621,37.621,0,0,1,7.89-10.985,53.36,53.36,0,0,1,10.865-8.124,1.58,1.58,0,1,1,1.579,2.738c-.026.015-.059.033-.085.046a50.611,50.611,0,0,0-10.746,7.076,35.64,35.64,0,0,0-8.091,9.957,32.884,32.884,0,0,0-3.794,12.365A34.472,34.472,0,0,0,437.018,390.915Z" transform="translate(-247.359 -329.943)" fill="#fff"/>
        <g id="Group_16" data-name="Group 16" transform="translate(0 69.354)">
          <path id="Path_70" data-name="Path 70" d="M335.555,459.516c-74.706,62.656-120.51,123-137.391,147.074a3.908,3.908,0,0,0,4.757,5.832c78.921-34.839,126.536-85.993,153.517-125.293C351.5,471.654,342.451,463.593,335.555,459.516Z" transform="translate(-197.433 -423.254)" fill="url(#linear-gradient-41)"/>
          <path id="Path_71" data-name="Path 71" d="M418.724,413.611c-16.557,12.011-32.033,24.179-46.44,36.262,6.9,4.077,15.947,12.138,20.883,27.613,22.475-32.736,30.634-57.249,30.634-57.249C424.2,413.918,418.724,413.611,418.724,413.611Z" transform="translate(-234.162 -413.611)" fill="url(#linear-gradient-15)"/>
        </g>
      </g>
      <path id="Path_72" data-name="Path 72" d="M304.542,714.236a1.531,1.531,0,0,0-.041-.408c-2.033-8.061-12.126-13.082-12.126-13.082l-4,.313c-2.3,7.106-2,11.463-1.634,13.4.01.055.027.107.041.159A94.914,94.914,0,0,0,304.542,714.236Z" transform="translate(-30.512 3482.426)" fill="url(#linear-gradient-43)"/>
      <path id="Path_73" data-name="Path 73" d="M286.861,718.208a1.732,1.732,0,0,0,1.269,1.281c4.693.987,12.152.193,15.283-.216a1.455,1.455,0,0,0,1.207-1.45A94.9,94.9,0,0,1,286.861,718.208Z" transform="translate(-30.59 3478.839)" fill="url(#linear-gradient-44)"/>
      <path id="Path_74" data-name="Path 74" d="M286.842,693.6l1.694,8.154a1.336,1.336,0,0,0,1.14,1.1,11.3,11.3,0,0,0,2.623-.042,1.676,1.676,0,0,0,1.328-1.969l-1.178-7.24Z" transform="translate(-30.586 3483.927)" fill="url(#linear-gradient-45)"/>
      <path id="Path_75" data-name="Path 75" d="M329.171,717.908c-4.417-.124-6.7-.645-7.882-1.126,0,.438,0,.886.014,1.349a.872.872,0,0,0,.832.887l24.25-.156a1.107,1.107,0,0,0,.89-1.612C344.1,717.511,336,718.1,329.171,717.908Z" transform="translate(-37.822 3479.058)" fill="url(#linear-gradient-46)"/>
      <path id="Path_76" data-name="Path 76" d="M347.276,714.214a1.131,1.131,0,0,0-.1-.183c-2.142-2.992-7.6-8.951-18.375-11.535l-5.17-.163s-2.3,4-2.346,11.415c1.181.482,3.465,1,7.882,1.127C336,715.064,344.1,714.476,347.276,714.214Z" transform="translate(-37.822 3482.093)" fill="url(#linear-gradient-47)"/>
      <path id="Path_77" data-name="Path 77" d="M323.045,692.078c.058.385.766,6.243,1.04,8.514a1.126,1.126,0,0,0,.949,1.017,11.843,11.843,0,0,0,3.552-.055,1.529,1.529,0,0,0,1.159-1.535v-9.195Z" transform="translate(-38.191 3484.51)" fill="url(#linear-gradient-48)"/>
      <path id="Path_78" data-name="Path 78" d="M309.056,557.082s12.472,47.4,12.246,107.038a2.309,2.309,0,0,1-1.832,2.25,26.842,26.842,0,0,1-5.782.669,2.142,2.142,0,0,1-2.041-1.788c-1.749-10.255-11.784-68.026-17.5-77.4,0,0-3.762,51.453-2.559,78.147a1.265,1.265,0,0,1-1.116,1.315,21.232,21.232,0,0,1-4.642-.013,1.694,1.694,0,0,1-1.509-1.438c-1.245-8.678-8.414-60.339-8.11-97.553.017-2.1,5.549-11.223,5.549-11.223Z" transform="translate(-28.351 3512.604)" fill="url(#linear-gradient-49)"/>
      <path id="Path_79" data-name="Path 79" d="M319.628,478.971a51.881,51.881,0,0,1-5.28-8.059,37.474,37.474,0,0,1-4.238-12.618c-14.008,2.435-35.367,5.2-44.4,6.342a12.067,12.067,0,0,0-7.625,4.093c-7.743,8.96-24.733,33.492-4.735,58.212a37.257,37.257,0,0,0,8.666-6.335c-2.213-6.237-2.394-14.207,2.243-23.98a22.987,22.987,0,0,0,.592,2.3,142.235,142.235,0,0,1,6.718,40.977,1.281,1.281,0,0,0,.8,1.2c8.411,3.371,24.6,1.364,30.037.554a1.828,1.828,0,0,0,1.529-2.074c-2.668-19.325,11.022-51.115,14.638-59.077A5.292,5.292,0,0,1,319.628,478.971Z" transform="translate(-21.578 3533.355)" fill="url(#linear-gradient-50)"/>
      <path id="Path_80" data-name="Path 80" d="M289.463,442.662l-1.622,16.562s9.317,2.807,16.093-1.975L299.171,442.2Z" transform="translate(-30.796 3536.737)" fill="url(#linear-gradient-51)"/>
      <g id="Group_18" data-name="Group 18" transform="translate(251.071 3952.319)">
        <path id="Path_81" data-name="Path 81" d="M300.3,418.7c.224.211,9.463,18.355,9.463,18.355l-10.471,5.056-11.313-15.9S296.549,415.171,300.3,418.7Z" transform="translate(-281.897 -410.501)" fill="url(#linear-gradient-52)"/>
        <path id="Path_82" data-name="Path 82" d="M291,424.663a1.675,1.675,0,0,0,.126,1.468l5.223,8.706a1.642,1.642,0,0,0,.286.357c.622.578,2.749,2.262,4.394-.03,1.4-1.954,2.717-3.729,4.127-4.462a1.669,1.669,0,0,1,2.253.742,62.349,62.349,0,0,1,3.574,8.479,1.663,1.663,0,0,1-.968,2.039,46.263,46.263,0,0,1-10.03,2.926,1.67,1.67,0,0,1-1.58-.671c-1.6-2.191-6.109-8.317-7.648-9.851-1.43-1.424-4.069-.887-5.259-.546a1.675,1.675,0,0,1-1.334-.175c-1.206-.727-3.312-2.536-1.386-5.6a1.672,1.672,0,0,0-.517-2.271,3.7,3.7,0,0,1-1.416-5.243,5.212,5.212,0,0,1,5.643-2.762,1.735,1.735,0,0,0,1.82-1.012,1.1,1.1,0,0,1,.862-.679,1.622,1.622,0,0,0,1.312-1.9,4.278,4.278,0,0,1,2.389-4.9c4.518-2.484,8.476,1.563,9.482,4.981s-4.045,5.832-7.223,6.235C292.792,420.785,291.513,423.332,291,424.663Z" transform="translate(-280.279 -408.505)" fill="url(#linear-gradient-53)"/>
        <path id="Path_83" data-name="Path 83" d="M294,443.784s-2.009-5.879-4.581-5.663-4.6,2.777-1.408,5.658C291.971,447.361,294,443.784,294,443.784Z" transform="translate(-281.559 -414.725)" fill="url(#linear-gradient-54)"/>
      </g>
      <path id="Path_84" data-name="Path 84" d="M267.948,499.425c-3.39-9.277-2.16-20.48-2.148-20.592l.935.107c-.013.11-1.217,11.1,2.1,20.162Z" transform="translate(-26.119 3529.041)" fill="url(#linear-gradient-55)"/>
      <path id="Path_85" data-name="Path 85" d="M295.8,591.931a.469.469,0,0,1-.454-.352c-1.034-3.988-8.779-8.372-8.857-8.416a.47.47,0,1,1,.461-.82c.333.186,8.172,4.624,9.306,9a.47.47,0,0,1-.456.588Z" transform="translate(-30.461 3507.311)" fill="url(#linear-gradient-56)"/>
      <g id="Group_19" data-name="Group 19" transform="translate(277.656 3992.353)">
        <path id="Path_86" data-name="Path 86" d="M371.441,479.94c-17.545,2.633-28.981-8.438-37.5-15.153-11.25-8.866-20.005-4.552-20.005-4.552l12,22.9c17.917,16.894,36.288,13.142,47.87,7.668A22.343,22.343,0,0,0,371.441,479.94Z" transform="translate(-313.933 -459.185)" fill="url(#linear-gradient-50)"/>
        <path id="Path_87" data-name="Path 87" d="M411.045,466.811l-5.471,7.395c-6.978,4.248-13.222,6.493-18.841,7.336a22.342,22.342,0,0,1,2.36,10.86,53.718,53.718,0,0,0,11.994-7.668C414.269,476.874,411.045,466.811,411.045,466.811Z" transform="translate(-329.225 -460.787)" fill="url(#linear-gradient-58)"/>
      </g>
      <g id="Group_21" data-name="Group 21" transform="translate(356.315 3989.594)">
        <path id="Path_90" data-name="Path 90" d="M443.033,456.013a.981.981,0,0,0-1.6,1.1c4.906,10.665,12.279,35.334-4.454,66.086-22.355,41.082-52.588,102.067,37.383,131.771a14.517,14.517,0,0,0,4.552.72h3.33a1.224,1.224,0,0,0,.561-2.3c-11.65-6.211-38.664-25.985-24.524-70.96C475.045,529.119,467.814,482.583,443.033,456.013Z" transform="translate(-413.509 -455.693)" fill="url(#linear-gradient-59)"/>
      </g>
      <path id="Path_91" data-name="Path 91" d="M457.049,508.762a25.04,25.04,0,0,1,1.118,2.731l.457,1.4.374,1.419a40.182,40.182,0,0,1,1.041,5.778c.147.972.186,1.951.239,2.931a26.148,26.148,0,0,1,.073,2.943l-.07,2.946L460,531.837l-.144,1.468-.261,1.45-.525,2.9c-.443,1.912-.958,3.81-1.474,5.707-.658,1.848-1.281,3.714-1.986,5.545l-2.38,5.384-2.8,5.166c-.442.878-1.016,1.671-1.532,2.5l-1.587,2.468c-1.069,1.672-2.1,3.244-3.147,4.805-.511.793-.976,1.615-1.467,2.421s-.943,1.634-1.383,2.468c-.926,1.647-1.7,3.371-2.509,5.075-.717,1.745-1.478,3.475-2.074,5.267a68.655,68.655,0,0,0-2.925,10.92,64.621,64.621,0,0,0-1.1,11.242,62.754,62.754,0,0,0,.976,11.245,53.313,53.313,0,0,0,8.6,20.754c.558.763,1.045,1.581,1.662,2.3l1.785,2.212c.617.719,1.283,1.4,1.923,2.1.326.345.639.7.976,1.037l1.04.975a63.668,63.668,0,0,0,8.937,7.106,86.789,86.789,0,0,0,20.821,9.685,81.766,81.766,0,0,1-21.407-8.752A60.592,60.592,0,0,1,448.6,648.4l-1.1-.968c-.357-.333-.691-.69-1.038-1.034-.681-.7-1.389-1.376-2.05-2.1l-1.916-2.224c-.661-.726-1.194-1.553-1.8-2.326a54.979,54.979,0,0,1-9.5-21.394,64.332,64.332,0,0,1-1.217-11.728,67.5,67.5,0,0,1,.961-11.747,68.275,68.275,0,0,1,2.939-11.408c.607-1.871,1.382-3.678,2.116-5.5.829-1.781,1.621-3.581,2.57-5.3.452-.872.907-1.743,1.42-2.582s.983-1.7,1.509-2.533l3.186-4.861,1.549-2.386c.5-.8,1.069-1.571,1.5-2.416l2.749-4.969,2.4-5.139c.716-1.747,1.341-3.529,2.028-5.29.559-1.8,1.122-3.6,1.619-5.425l.605-2.765.3-1.384.21-1.4.421-2.8.216-2.826c.1-.943.088-1.886.1-2.833s.041-1.9-.037-2.838-.068-1.9-.2-2.834c-.111-.94-.184-1.89-.37-2.82a30.969,30.969,0,0,0-1.354-5.51l-.009-.026a.346.346,0,0,1,.636-.268Z" transform="translate(-60.655 3522.794)" fill="#fff" opacity="0.5"/>
      <path id="Path_92" data-name="Path 92" d="M695.7,679.176s56.278,13.525,72.877-24.737c15.43-35.566,4.388-63.324,28.769-79.748a4.5,4.5,0,0,0-.459-7.7c-11.95-6.237-38.732-14.75-69.589,10.7C685.435,612.23,695.7,679.176,695.7,679.176Z" transform="translate(-116.237 3511.897)" fill="url(#linear-gradient-60)"/>
      <path id="Path_93" data-name="Path 93" d="M699.195,678.708a23.011,23.011,0,0,0,3.545-2.258,37.821,37.821,0,0,0,3.26-2.744,59.7,59.7,0,0,0,5.766-6.293,95.724,95.724,0,0,0,9.328-14.341c5.413-10.095,9.394-20.912,12.948-31.906,1.805-5.491,3.536-11.032,5.594-16.507a60.07,60.07,0,0,1,8.189-15.631,32.469,32.469,0,0,1,6.355-6.275,31.789,31.789,0,0,1,7.83-4.22,53.558,53.558,0,0,1,17.246-2.988.381.381,0,0,1,.048.761H779.3A55.49,55.49,0,0,0,762.6,580a32.883,32.883,0,0,0-7.27,4.256,30.464,30.464,0,0,0-5.807,6.049c-3.335,4.545-5.55,9.855-7.488,15.24s-3.57,10.95-5.339,16.477c-1.754,5.531-3.627,11.052-5.737,16.492-.545,1.355-1.133,2.7-1.7,4.043s-1.123,2.7-1.78,4.009l-1.9,3.958-2.1,3.861A84.342,84.342,0,0,1,713.414,668.8a50.844,50.844,0,0,1-6.331,6.149,28.937,28.937,0,0,1-7.543,4.681.493.493,0,0,1-.4-.9Z" transform="translate(-117.136 3508.726)" fill="#fff" opacity="0.5"/>
      <g id="Group_25" data-name="Group 25" transform="translate(724.962 3808.848)">
        <path id="Path_188" data-name="Path 188" d="M902.292,345.482c7.32-2.305,19.331-7.576,25.031-18.374a4.146,4.146,0,0,0-2.7-5.926c-12.86-3.225-47.41-15.314-44.23-51.638,3.9-44.544,53.879-47.513,85.764-38.656s48.056,30.725,40.688,64.234C999.9,326.717,939.188,350.4,902.578,347.8A1.189,1.189,0,0,1,902.292,345.482Z" transform="translate(-880.186 -226.883)" fill="url(#linear-gradient-61)"/>
        <path id="Path_189" data-name="Path 189" d="M962.949,348.038c-1.218,0-1.927-.039-1.988-.042a1.58,1.58,0,0,1,.177-3.155,60.8,60.8,0,0,0,7.565-.216,1.58,1.58,0,1,1,.264,3.149C966.429,347.987,964.351,348.038,962.949,348.038Z" transform="translate(-896.84 -251.615)" fill="#fff"/>
        <path id="Path_190" data-name="Path 190" d="M989.615,325.888a1.58,1.58,0,0,1-.463-3.091c13.758-4.222,22.66-12.265,26.458-23.9,9.385-28.755-9.058-42.225-9.246-42.357a1.58,1.58,0,0,1,1.827-2.579c.205.146,20.523,14.974,10.423,45.918-4.078,12.495-13.945,21.466-28.535,25.943A1.555,1.555,0,0,1,989.615,325.888Z" transform="translate(-902.841 -232.509)" fill="#fff"/>
        <g id="Group_24" data-name="Group 24" transform="translate(30.345 22.737)">
          <path id="Path_191" data-name="Path 191" d="M950.771,272.328s-5.282-18.865-23.731-11.84c-17.477,6.655-6.684,30.226,21.979,40.819a10.2,10.2,0,0,0,9.31-1.168c10.225-7.019,33.526-25.911,15.329-41.923C961.907,247.876,950.771,272.328,950.771,272.328Z" transform="translate(-918.6 -255.667)" fill="#fff"/>
        </g>
      </g>
      <path id="Path_192" data-name="Path 192" d="M660.391,428.051,658,437.959l-5.682-5.88Z" transform="translate(-107.357 3539.708)" fill="url(#linear-gradient-62)"/>
      <path id="Path_193" data-name="Path 193" d="M607.871,407.237l21.094,29.929a2.579,2.579,0,0,0,3.673.566l29.252-22.31a1.034,1.034,0,0,0-.506-1.849Z" transform="translate(-98.021 3544.08)" fill="url(#linear-gradient-63)"/>
      <path id="Path_194" data-name="Path 194" d="M651.052,423.679l-43.18-16.442,38.471,20.057-.547,2.776Z" transform="translate(-98.021 3544.08)" fill="url(#linear-gradient-64)"/>
      <path id="Path_195" data-name="Path 195" d="M653.016,434.75l5.13,4.171-2.322-6.293Z" transform="translate(-107.505 3538.747)" fill="url(#linear-gradient-65)"/>
    </g>
    <g id="Group_3978" data-name="Group 3978" transform="translate(4522.95 3409.047) rotate(90)">
      <path id="Path_6481" data-name="Path 6481" d="M577.594,308.113a.339.339,0,0,1-.65.185c-6.107-15.509-25.827-73.538,4.409-110.52,35.153-43,51.84,11.718,20.1,39.737C573.474,262.216,575.11,295.089,577.594,308.113Z" transform="translate(73.942 3127.002) rotate(47)" fill="url(#linear-gradient-66)"/>
      <path id="Path_6482" data-name="Path 6482" d="M608.286,186.547a24.738,24.738,0,0,0-2.587,1.495c-.821.5-1.567,1.066-2.33,1.619-.778.535-1.477,1.155-2.2,1.751a26,26,0,0,0-2.088,1.86l-2.006,1.938-1.848,2.079a51.664,51.664,0,0,0-3.445,4.342,70.888,70.888,0,0,0-9.714,19.636l-1.552,5.239-1.086,5.34-.536,2.669-.313,2.7-.607,5.394a24.284,24.284,0,0,0-.155,2.7l-.079,2.707-.151,5.407.535,10.783a1.123,1.123,0,0,0,2.245-.078v-.085l-.219-10.611.3-5.285.153-2.641a23.282,23.282,0,0,1,.227-2.631l.743-5.224.378-2.607.6-2.563,1.193-5.117,1.637-4.978a67.116,67.116,0,0,1,9.707-18.3,47.288,47.288,0,0,1,3.319-3.943l1.761-1.874,1.9-1.725a22.376,22.376,0,0,1,1.956-1.641c.669-.521,1.321-1.072,2.03-1.526.7-.473,1.382-.97,2.1-1.375a21.95,21.95,0,0,1,2.071-1.132l.13-.06a2.369,2.369,0,1,0-2.018-4.287Z" transform="translate(67.653 3121.456) rotate(47)" fill="#fff"/>
    </g>
    <line id="Line_351" data-name="Line 351" x2="204" transform="translate(364.5 3673.767)" fill="none" stroke="#d6e0ff" stroke-width="1" stroke-dasharray="5"/>
    <line id="Line_352" data-name="Line 352" x2="204" transform="translate(364.5 3693.767)" fill="none" stroke="#d6e0ff" stroke-width="1" stroke-dasharray="5"/>
    <line id="Line_353" data-name="Line 353" x2="204" transform="translate(364.5 3713.767)" fill="none" stroke="#d6e0ff" stroke-width="1" stroke-dasharray="5"/>
  </g>
</svg>
