<svg width="52" height="48" viewBox="0 0 52 48" fill="none" xmlns="http://www.w3.org/2000/svg">
<path d="M25.9542 41.4469C29.6703 45.0612 33.3354 47.1992 36.2879 47.1992C37.2551 47.1992 38.1714 46.9956 38.935 46.5374C41.5821 45.0103 42.5493 41.1924 41.633 35.7455C41.4803 34.7783 41.2766 33.8111 41.0221 32.793C42.0402 32.4876 42.9565 32.1822 43.8728 31.8767C49.0142 29.8914 51.8649 27.1425 51.8649 24.1391C51.8649 21.0848 49.0142 18.336 43.8728 16.4016C42.9565 16.0452 42.0402 15.7398 41.0221 15.4853C41.2766 14.4672 41.4803 13.5 41.633 12.5328C42.4984 6.98411 41.5312 3.11531 38.8841 1.58816C38.1205 1.13001 37.2042 0.926392 36.237 0.926392C33.3354 0.926392 29.6194 3.06441 25.9033 6.67867C22.2381 3.06441 18.5729 0.926392 15.6204 0.926392C14.6532 0.926392 13.7369 1.13001 12.9734 1.58816C10.3263 3.11531 9.3591 6.9332 10.2754 12.3801C10.4281 13.3472 10.6317 14.3144 10.8863 15.3326C9.86815 15.638 8.95186 15.9434 8.03557 16.2488C2.89415 18.2341 0.043457 20.983 0.043457 23.9864C0.043457 27.0407 2.89415 29.7896 8.03557 31.724C8.95186 32.0803 9.86815 32.3858 10.8863 32.6403C10.6317 33.6584 10.4281 34.6256 10.2754 35.5928C9.41001 41.0397 10.3772 44.9084 12.9734 46.3847C13.7369 46.8428 14.6532 47.0465 15.6204 47.0465C18.5729 47.1483 22.2381 45.0103 25.9542 41.4469ZM23.1035 34.5747C24.0198 34.6256 24.987 34.6256 25.9542 34.6256C26.9214 34.6256 27.8886 34.6256 28.8049 34.5747C27.8886 35.7964 26.9214 36.9163 25.9542 37.9853C24.987 36.9163 24.0198 35.7964 23.1035 34.5747ZM16.7913 29.3315C17.3003 30.1969 17.7585 31.0113 18.3184 31.8258C16.7403 31.6222 15.2641 31.3677 13.8388 31.0622C14.2969 29.6878 14.806 28.2625 15.4168 26.8371C15.8241 27.6516 16.2822 28.517 16.7913 29.3315ZM13.8388 17.0633C15.2641 16.7579 16.7403 16.5034 18.3184 16.2997C17.8094 17.1142 17.3003 17.9287 16.7913 18.7941C16.2822 19.6595 15.8241 20.474 15.4168 21.3394C14.755 19.8631 14.246 18.4378 13.8388 17.0633ZM16.6385 24.0373C17.3003 22.6629 18.013 21.2885 18.8275 19.914C19.591 18.5905 20.4564 17.2669 21.3218 15.9434C22.849 15.8416 24.3761 15.7907 25.9542 15.7907C27.5831 15.7907 29.1103 15.8416 30.5866 15.9434C31.5028 17.2669 32.3173 18.5905 33.0809 19.914C33.8954 21.2885 34.6081 22.6629 35.2698 24.0373C34.6081 25.4118 33.8954 26.7862 33.0809 28.1607C32.3173 29.4842 31.4519 30.8077 30.5866 32.1313C29.0594 32.2331 27.5322 32.284 25.9542 32.284C24.3252 32.284 22.7981 32.2331 21.3218 32.1313C20.4055 30.8077 19.591 29.4842 18.8275 28.1607C18.013 26.7862 17.3003 25.4118 16.6385 24.0373ZM36.5425 21.2885L35.168 18.7432C34.659 17.8778 34.2008 17.0633 33.6409 16.2488C35.2189 16.4525 36.6952 16.707 38.1205 17.0124C37.6624 18.4378 37.1533 19.8631 36.5425 21.2885ZM36.5425 26.7862C37.1533 28.2116 37.6624 29.6369 38.1205 31.0113C36.6952 31.3168 35.2189 31.5713 33.6409 31.7749C34.1499 30.9604 34.659 30.146 35.168 29.2806C35.6262 28.517 36.0843 27.6516 36.5425 26.7862ZM37.7133 44.4503C37.306 44.7048 36.797 44.8066 36.237 44.8066C33.7427 44.8066 30.6375 42.7704 27.5831 39.7161C29.0594 38.1381 30.4847 36.3564 31.9101 34.3711C34.3026 34.1675 36.5934 33.8111 38.7314 33.3021C38.9859 34.2184 39.1386 35.1347 39.2913 36.0509C40.004 40.3779 39.444 43.4831 37.7133 44.4503ZM40.3603 17.6233C46.0617 19.2522 49.4724 21.7466 49.4724 24.0373C49.4724 26.0226 47.1307 28.0079 43.0074 29.586C42.1929 29.8914 41.2766 30.1969 40.3603 30.4514C39.6986 28.3643 38.8841 26.2263 37.866 24.0373C38.8841 21.8484 39.7495 19.7104 40.3603 17.6233ZM36.2879 3.26803C36.8479 3.26803 37.306 3.36984 37.7642 3.62437C39.444 4.59156 40.0549 7.64587 39.3422 12.0237C39.1895 12.8891 38.9859 13.8054 38.7823 14.7726C36.6443 14.3144 34.3535 13.9581 31.961 13.7036C30.5866 11.7183 29.1103 9.9366 27.6341 8.35854C30.6884 5.35514 33.7936 3.26803 36.2879 3.26803ZM28.8049 13.5C27.8886 13.4491 26.9214 13.4491 25.9542 13.4491C24.987 13.4491 24.0198 13.4491 23.1035 13.5C24.0198 12.2782 24.987 11.1583 25.9542 10.0893C26.9214 11.1583 27.8886 12.3291 28.8049 13.5ZM14.1951 3.62437C14.6023 3.36984 15.1114 3.26803 15.6713 3.26803C18.1657 3.26803 21.2709 5.30424 24.3252 8.35854C22.849 9.9366 21.4236 11.7183 19.9983 13.7036C17.6057 13.9072 15.315 14.2635 13.177 14.7726C12.9225 13.8563 12.7697 12.94 12.617 12.0237C11.9044 7.69678 12.4643 4.64247 14.1951 3.62437ZM11.548 30.4514C5.84665 28.8224 2.436 26.3281 2.436 24.0373C2.436 22.052 4.77764 20.0667 8.90095 18.4887C9.71544 18.1832 10.6317 17.8778 11.548 17.6233C12.2098 19.7104 13.0243 21.8484 14.0424 24.0373C13.0243 26.2263 12.1589 28.4152 11.548 30.4514ZM12.617 36.0509C12.7697 35.1856 12.9734 34.2693 13.177 33.3021C15.315 33.7602 17.6057 34.1166 19.9983 34.3711C21.3727 36.3564 22.849 38.1381 24.3252 39.7161C21.2709 42.7195 18.1657 44.8066 15.6713 44.8066C15.1114 44.8066 14.6532 44.7048 14.1951 44.4503C12.4643 43.4831 11.9044 40.3779 12.617 36.0509Z" fill="#61DAFB"/>
</svg>
