<svg width="574" height="549" viewBox="0 0 574 549" fill="none" xmlns="http://www.w3.org/2000/svg">
<g clip-path="url(#clip0_153_739)">
<path d="M520.943 319.207C512.396 297.58 509.04 276.27 515.435 249.143C520.627 227.074 528.731 205.511 530.25 182.937C538.861 51.2197 459.782 11.3189 366.268 42.7463C336.321 52.8006 270.032 72.9091 237.805 75.3752C178.544 79.8648 140.049 61.2107 105.987 60.7048C45.3957 59.8196 -6.8379 141.961 25.7685 196.279C36.3419 213.921 43.4963 234.789 57.1087 250.155C85.9797 282.784 96.553 325.783 85.5365 368.15C78.6353 394.708 67.4921 420.255 64.0732 447.446C57.1087 503.155 97.2495 548.431 152.965 549.759C206.275 550.96 251.671 518.458 299.283 499.424C322.835 490.002 347.464 483.426 373.043 485.639C403.623 488.358 431.101 503.914 462.252 505.495C501.569 507.518 542.217 487.663 556.525 449.406C569.505 414.754 553.296 382.441 536.962 352.215C530.694 340.706 525.185 329.956 520.943 319.207Z" fill="#C6C5F0"/>
<path opacity="0.38" d="M520.943 319.206C514.802 303.651 511.383 288.222 512.269 270.706C506.128 281.203 503.216 293.154 504.482 305.864C506.318 324.076 515.942 340.011 524.172 355.946C532.15 371.248 538.924 387.563 537.721 405.205C536.582 421.393 529.934 437.075 518.348 448.521C498.847 467.744 470.926 473.688 446.74 484.754C439.142 488.232 431.291 492.405 425.213 498.286C437.243 501.827 449.399 504.799 462.188 505.495C501.506 507.518 542.153 487.663 556.462 449.406C569.442 414.753 553.233 382.441 536.898 352.215C530.694 340.706 525.185 329.956 520.943 319.206Z" fill="#8C9EF2"/>
<path d="M132.515 80.6869C167.482 80.6869 195.829 70.5516 195.829 58.049C195.829 45.5465 167.482 35.4111 132.515 35.4111C97.5481 35.4111 69.2017 45.5465 69.2017 58.049C69.2017 70.5516 97.5481 80.6869 132.515 80.6869Z" fill="#E5EBFC"/>
<path d="M195.829 57.4799C165.945 83.9751 81.2311 67.6606 86.1063 42.6199" stroke="white" stroke-miterlimit="10"/>
<path d="M499.354 126.152C534.321 126.152 562.667 116.017 562.667 103.514C562.667 91.0118 534.321 80.8765 499.354 80.8765C464.386 80.8765 436.04 91.0118 436.04 103.514C436.04 116.017 464.386 126.152 499.354 126.152Z" fill="#E5EBFC"/>
<path d="M562.667 103.008C532.783 129.504 448.07 113.189 452.945 88.1484" stroke="white" stroke-miterlimit="10"/>
<path d="M383.3 65.3209C418.267 65.3209 446.613 55.1856 446.613 42.683C446.613 30.1805 418.267 20.0452 383.3 20.0452C348.333 20.0452 319.986 30.1805 319.986 42.683C319.986 55.1856 348.333 65.3209 383.3 65.3209Z" fill="#E5EBFC"/>
<path d="M446.55 42.1139C423.567 28.3921 392.987 23.4598 336.828 27.2539C336.828 27.2539 396.469 21.7525 431.924 58.1754" stroke="white" stroke-miterlimit="10"/>
<path d="M463.961 360.625L463.898 94.4088C463.898 88.4647 459.023 83.5957 453.071 83.5957H434.9H426.163L75.3431 83.7222H65.9727H44.1928C38.2414 83.7222 33.3662 88.5912 33.3662 94.5352L33.4295 360.752C33.4295 366.696 38.3047 371.565 44.2561 371.565L453.135 371.438C459.149 371.438 463.961 366.569 463.961 360.625Z" fill="#CCD7F2"/>
<path d="M459.149 366.695L50.2708 366.822C44.3193 366.822 39.4442 362.016 39.4442 356.009L39.3809 89.7926C39.3809 83.8485 44.1927 78.9795 50.2075 78.9795L459.086 78.853C465.037 78.853 469.913 83.6588 469.913 89.6661L469.976 355.882C469.976 361.89 465.101 366.695 459.149 366.695Z" fill="white"/>
<path d="M463.961 130.579H49.3843V131.97H463.961V130.579Z" fill="#737072"/>
<path d="M388.048 151.13H455.414" stroke="#E5EBFC" stroke-width="2" stroke-miterlimit="10"/>
<path d="M388.048 178.826H455.414" stroke="#E5EBFC" stroke-width="2" stroke-miterlimit="10"/>
<path d="M388.048 206.46H455.414" stroke="#E5EBFC" stroke-width="2" stroke-miterlimit="10"/>
<path d="M388.048 234.156H455.414" stroke="#E5EBFC" stroke-width="2" stroke-miterlimit="10"/>
<path d="M388.048 261.79H455.414" stroke="#E5EBFC" stroke-width="2" stroke-miterlimit="10"/>
<path d="M388.048 289.487H455.414" stroke="#E5EBFC" stroke-width="2" stroke-miterlimit="10"/>
<path d="M388.048 317.12H455.414" stroke="#E5EBFC" stroke-width="2" stroke-miterlimit="10"/>
<path d="M388.048 344.753H455.414" stroke="#E5EBFC" stroke-width="2" stroke-miterlimit="10"/>
<path d="M223.813 195.836H193.739V224.039H223.813V195.836Z" fill="#E5EBFC"/>
<path d="M223.813 226.885H193.739V255.087H223.813V226.885Z" fill="#E5EBFC"/>
<path d="M223.813 257.996H193.739V286.198H223.813V257.996Z" fill="#E5EBFC"/>
<path d="M175.695 195.836H145.621V224.039H175.695V195.836Z" fill="#E5EBFC"/>
<path d="M175.695 226.948H145.621V255.15H175.695V226.948Z" fill="#E5EBFC"/>
<path d="M175.695 257.996H145.621V286.198H175.695V257.996Z" fill="#E5EBFC"/>
<path d="M127.577 195.836H97.5029V224.039H127.577V195.836Z" fill="#E5EBFC"/>
<path d="M223.813 164.788H193.739V192.991H223.813V164.788Z" fill="#E5EBFC"/>
<path d="M175.695 164.788H145.621V192.991H175.695V164.788Z" fill="#E5EBFC"/>
<path d="M127.577 164.788H97.5029V192.991H127.577V164.788Z" fill="#E5EBFC"/>
<path d="M127.577 226.948H97.5029V255.15H127.577V226.948Z" fill="#E5EBFC"/>
<path d="M127.577 257.996H97.5029V286.198H127.577V257.996Z" fill="#E5EBFC"/>
<path d="M127.577 289.107H97.5029V317.309H127.577V289.107Z" fill="#E5EBFC"/>
<path d="M79.4582 195.9H49.3843V224.102H79.4582V195.9Z" fill="#E5EBFC"/>
<path d="M79.4582 164.788H49.3843V192.991H79.4582V164.788Z" fill="#E5EBFC"/>
<path d="M79.4582 226.948H49.3843V255.15H79.4582V226.948Z" fill="#E5EBFC"/>
<path d="M79.4582 257.996H49.3843V286.198H79.4582V257.996Z" fill="#E5EBFC"/>
<path d="M79.4582 289.107H49.3843V317.309H79.4582V289.107Z" fill="#E5EBFC"/>
<path d="M271.931 164.725H241.857V192.928H271.931V164.725Z" fill="#E5EBFC"/>
<path d="M271.931 195.836H241.857V224.039H271.931V195.836Z" fill="#E5EBFC"/>
<path d="M271.931 226.884H241.857V255.087H271.931V226.884Z" fill="#E5EBFC"/>
<path d="M271.931 257.996H241.857V286.198H271.931V257.996Z" fill="#E5EBFC"/>
<path d="M319.986 164.725H289.913V192.928H319.986V164.725Z" fill="#F68A73"/>
<path d="M320.05 195.836H289.976V224.039H320.05V195.836Z" fill="#E5EBFC"/>
<path d="M320.05 226.884H289.976V255.087H320.05V226.884Z" fill="#E5EBFC"/>
<path d="M320.05 257.932H289.976V286.135H320.05V257.932Z" fill="#E5EBFC"/>
<path d="M368.105 164.725H338.031V192.928H368.105V164.725Z" fill="#E5EBFC"/>
<path d="M368.168 195.773H338.094V223.976H368.168V195.773Z" fill="#E5EBFC"/>
<path d="M368.168 226.884H338.094V255.087H368.168V226.884Z" fill="#E5EBFC"/>
<path d="M368.168 257.932H338.094V286.135H368.168V257.932Z" fill="#E5EBFC"/>
<path d="M62.9337 142.593C62.6805 142.783 62.6172 143.036 62.6172 143.352C62.6172 143.668 62.7438 143.921 63.0604 144.111C63.3136 144.3 64.0101 144.49 64.9598 144.743C65.9728 144.996 66.7326 145.375 67.3024 145.881C67.8722 146.387 68.1254 147.083 68.1254 148.031C68.1254 148.98 67.7456 149.739 67.0491 150.308C66.3527 150.877 65.403 151.193 64.2633 151.193C62.6172 151.193 61.0976 150.561 59.7681 149.359L61.161 147.652C62.3006 148.664 63.3769 149.169 64.3266 149.169C64.7698 149.169 65.0864 149.106 65.3397 148.917C65.5929 148.727 65.7195 148.474 65.7195 148.158C65.7195 147.842 65.5929 147.589 65.3397 147.399C65.0864 147.209 64.5799 147.019 63.7568 146.83C62.5539 146.514 61.6042 146.134 61.0343 145.692C60.4645 145.249 60.1479 144.49 60.1479 143.478C60.1479 142.467 60.5278 141.708 61.2243 141.139C61.9207 140.57 62.8704 140.317 63.9468 140.317C64.6432 140.317 65.3397 140.443 66.0361 140.696C66.7326 140.949 67.3657 141.265 67.8722 141.708L66.6692 143.415C65.7195 142.72 64.8331 142.403 63.8201 142.403C63.5036 142.277 63.187 142.403 62.9337 142.593Z" fill="#F68A73"/>
<path d="M117.256 144.364L114.407 150.118H113.014L110.165 144.364V151.003H107.823V140.443H110.988L113.711 146.261L116.433 140.443H119.599V151.003H117.256V144.364Z" fill="#737072"/>
<path d="M161.703 142.467V151.003H159.36V142.467H156.384V140.443H164.742V142.467H161.703Z" fill="#737072"/>
<path d="M206.972 146.514L208.871 140.443H211.34L213.177 146.514L215.266 140.443H217.798L214.126 151.003H212.353L210.011 143.668L207.732 151.003H205.959L202.287 140.443H204.819L206.972 146.514Z" fill="#737072"/>
<path d="M258.256 142.467V151.003H255.913V142.467H252.938V140.443H261.295V142.467H258.256Z" fill="#737072"/>
<path d="M309.35 140.443V142.53H304.474V144.807H309.16V146.893H304.474V151.003H302.132V140.443H309.35Z" fill="#737072"/>
<path d="M352.466 142.53C352.213 142.72 352.149 142.972 352.149 143.289C352.149 143.605 352.276 143.858 352.593 144.047C352.846 144.237 353.479 144.427 354.492 144.68C355.505 144.933 356.265 145.312 356.835 145.818C357.404 146.324 357.658 147.019 357.658 147.968C357.658 148.917 357.278 149.675 356.581 150.244C355.885 150.814 354.935 151.13 353.796 151.13C352.149 151.13 350.63 150.497 349.3 149.296L350.693 147.589C351.833 148.6 352.909 149.106 353.859 149.106C354.302 149.106 354.619 149.043 354.872 148.853C355.125 148.664 355.252 148.411 355.252 148.094C355.252 147.778 355.125 147.525 354.872 147.336C354.619 147.146 354.112 146.956 353.289 146.767C352.086 146.45 351.136 146.071 350.567 145.628C349.997 145.186 349.68 144.427 349.68 143.415C349.68 142.403 350.06 141.645 350.756 141.075C351.453 140.506 352.403 140.253 353.479 140.253C354.175 140.253 354.872 140.38 355.568 140.633C356.265 140.886 356.898 141.202 357.404 141.645L356.201 143.352C355.315 142.656 354.365 142.34 353.352 142.34C353.036 142.214 352.719 142.34 352.466 142.53Z" fill="#737072"/>
<path d="M63.8198 121.41V110.091H65.4027L69.0748 115.845C69.8979 117.173 70.5944 118.375 71.1009 119.513H71.1642C71.0376 117.995 70.9742 116.604 70.9742 114.833V110.091H72.3671V121.41H70.9109L67.3021 115.655C66.479 114.391 65.7825 113.126 65.1494 111.861H65.0861C65.1494 113.316 65.2127 114.644 65.2127 116.541V121.41H63.8198Z" fill="#D15332"/>
<path d="M84.65 115.592C84.65 119.513 82.2441 121.536 79.395 121.536C76.4193 121.536 74.2666 119.197 74.2666 115.782C74.2666 112.178 76.4826 109.838 79.5216 109.838C82.624 109.901 84.65 112.241 84.65 115.592ZM75.8494 115.782C75.8494 118.185 77.179 120.398 79.4583 120.398C81.8009 120.398 83.0672 118.248 83.0672 115.655C83.0672 113.379 81.8642 111.039 79.4583 111.039C77.0524 111.039 75.8494 113.316 75.8494 115.782Z" fill="#D15332"/>
<path d="M89.0187 121.41L85.2832 110.091H86.866L88.6388 115.655C89.1453 117.173 89.5252 118.564 89.8418 119.892H89.9051C90.2217 118.564 90.6649 117.173 91.1714 115.655L93.0708 110.028H94.6536L90.6015 121.347L89.0187 121.41Z" fill="#D15332"/>
<path d="M101.808 116.098H97.3761V120.208H102.315V121.41H95.9199V110.091H102.061V111.292H97.3761V114.897H101.808V116.098Z" fill="#D15332"/>
<path d="M113.774 116.414C113.711 114.833 113.584 112.936 113.584 111.545H113.521C113.141 112.873 112.634 114.264 112.065 115.845L110.039 121.347H108.899L107.063 115.972C106.493 114.391 106.05 112.936 105.733 111.545H105.67C105.607 112.936 105.543 114.833 105.48 116.541L105.163 121.41H103.771L104.53 110.091H106.43L108.392 115.592C108.836 116.983 109.279 118.248 109.532 119.386H109.595C109.912 118.248 110.292 116.983 110.798 115.592L112.824 110.091H114.724L115.42 121.41H113.964L113.774 116.414Z" fill="#D15332"/>
<path d="M117.763 110.217C118.396 110.091 119.409 109.964 120.422 109.964C121.878 109.964 122.828 110.217 123.524 110.786C124.094 111.229 124.474 111.925 124.474 112.81C124.474 113.885 123.777 114.833 122.575 115.276V115.339C123.651 115.592 124.917 116.477 124.917 118.185C124.917 119.133 124.537 119.892 123.967 120.461C123.208 121.157 121.878 121.536 120.042 121.536C119.029 121.536 118.269 121.473 117.763 121.41V110.217ZM119.219 114.833H120.548C122.068 114.833 123.018 114.011 123.018 112.936C123.018 111.608 122.005 111.103 120.548 111.103C119.852 111.103 119.472 111.166 119.282 111.229L119.219 114.833ZM119.219 120.272C119.535 120.335 119.915 120.335 120.422 120.335C121.941 120.335 123.334 119.766 123.334 118.122C123.334 116.604 122.005 115.908 120.422 115.908H119.219V120.272Z" fill="#D15332"/>
<path d="M132.768 116.035H128.336V120.145H133.275V121.347H126.88V110.028H133.021V111.229H128.336V114.833H132.768V116.035Z" fill="#D15332"/>
<path d="M135.174 110.217C135.934 110.091 136.947 109.964 137.96 109.964C139.543 109.964 140.556 110.281 141.252 110.913C141.822 111.419 142.139 112.178 142.139 113.063C142.139 114.58 141.189 115.529 139.986 115.972V116.035C140.872 116.351 141.379 117.173 141.632 118.311C142.012 119.892 142.265 120.967 142.519 121.41H140.999C140.809 121.094 140.556 120.145 140.239 118.691C139.923 117.11 139.29 116.541 137.96 116.477H136.567V121.41H135.111L135.174 110.217ZM136.694 115.339H138.213C139.796 115.339 140.746 114.454 140.746 113.189C140.746 111.735 139.669 111.103 138.15 111.039C137.453 111.039 136.947 111.103 136.694 111.166V115.339Z" fill="#D15332"/>
<path d="M59.6414 172.693H64.8331L64.7698 185.529H61.984L62.0474 175.159H59.5781L59.6414 172.693Z" fill="#F68A73"/>
<path d="M113.901 177.941C114.217 177.498 114.407 177.056 114.407 176.613C114.407 176.171 114.281 175.854 113.964 175.538C113.711 175.222 113.331 175.096 112.888 175.096C112.065 175.096 111.305 175.665 110.608 176.803L108.329 175.412C108.962 174.463 109.595 173.768 110.292 173.325C110.988 172.882 111.938 172.629 113.014 172.629C114.091 172.629 115.104 173.009 115.927 173.704C116.75 174.4 117.193 175.348 117.193 176.55C117.193 177.182 117.003 177.815 116.686 178.447C116.37 179.079 115.737 179.838 114.787 180.787L112.444 183.19H117.51V185.782L108.456 185.719V183.569L112.255 179.712C113.014 179.016 113.584 178.447 113.901 177.941Z" fill="#737072"/>
<path d="M156.764 175.601V173.135L164.615 173.198V175.159L161.956 178.131C162.969 178.32 163.792 178.763 164.362 179.459C164.932 180.154 165.185 180.976 165.185 181.862C165.185 183.19 164.742 184.264 163.792 185.023C162.842 185.782 161.703 186.162 160.31 186.162C158.917 186.162 157.461 185.656 156.004 184.644L157.207 182.367C158.41 183.253 159.487 183.695 160.436 183.695C161.006 183.695 161.513 183.569 161.893 183.253C162.272 183 162.462 182.557 162.462 182.051C162.462 181.545 162.272 181.103 161.829 180.787C161.386 180.47 160.816 180.344 160.056 180.281C159.677 180.281 159.107 180.407 158.347 180.597V178.51L160.816 175.601H156.764Z" fill="#737072"/>
<path d="M209.188 180.723V178.51H211.974V180.723H213.43V183.19H211.974V186.225H209.188V183.19H203.996V180.976L208.618 173.451H211.72L207.352 180.723H209.188Z" fill="#737072"/>
<path d="M260.661 173.704V176.17H255.596V178.32C255.976 178.194 256.419 178.131 256.926 178.194C258.192 178.194 259.205 178.573 260.092 179.332C260.978 180.091 261.421 181.103 261.421 182.367C261.421 183.632 260.978 184.707 260.028 185.529C259.079 186.351 257.939 186.731 256.609 186.731C254.9 186.731 253.444 186.098 252.241 184.77L253.76 182.684C253.887 182.81 254.014 182.937 254.203 183.063C254.393 183.253 254.71 183.442 255.216 183.695C255.723 183.948 256.166 184.075 256.673 184.075C257.179 184.075 257.622 183.948 258.002 183.632C258.382 183.316 258.572 182.937 258.572 182.304C258.572 181.735 258.382 181.292 257.939 180.976C257.559 180.66 256.989 180.47 256.356 180.47C255.723 180.47 254.963 180.723 254.077 181.166L252.874 179.901L252.937 173.641L260.661 173.704Z" fill="#737072"/>
<path d="M305.867 176.107C305.044 176.107 304.474 176.36 304.031 176.866C303.588 177.372 303.335 178.131 303.208 179.016C304.031 178.51 304.854 178.257 305.741 178.257C306.943 178.257 307.957 178.637 308.716 179.459C309.539 180.217 309.919 181.292 309.919 182.62C309.919 183.948 309.476 184.96 308.59 185.719C307.703 186.478 306.627 186.857 305.297 186.857C304.411 186.857 303.588 186.667 302.955 186.351C302.258 185.972 301.752 185.529 301.435 184.897C300.675 183.695 300.359 182.178 300.359 180.344C300.359 179.142 300.486 178.131 300.802 177.245C301.119 176.36 301.499 175.665 302.005 175.159C303.018 174.147 304.221 173.641 305.677 173.641C306.247 173.641 306.817 173.768 307.387 173.894C307.957 174.084 308.336 174.273 308.653 174.463C308.97 174.653 309.286 174.906 309.603 175.159L308.21 177.182C308.146 177.119 308.02 176.993 307.893 176.866C307.767 176.74 307.45 176.613 307.07 176.36C306.69 176.234 306.31 176.107 305.867 176.107ZM305.487 180.723C304.917 180.723 304.411 180.913 304.031 181.229C303.651 181.545 303.461 181.988 303.461 182.557C303.461 183.126 303.651 183.569 304.031 183.948C304.411 184.328 304.854 184.517 305.424 184.517C305.994 184.517 306.437 184.328 306.817 184.012C307.197 183.695 307.387 183.253 307.387 182.684C307.387 182.114 307.197 181.672 306.88 181.292C306.5 180.913 306.057 180.723 305.487 180.723Z" fill="#737072"/>
<path d="M348.098 178.257V174.147L357.405 174.21V176.36L352.15 186.984H349.047L354.049 176.613H350.82V178.257H348.098Z" fill="#737072"/>
<path d="M62.1737 203.994C62.9967 203.298 64.0731 202.982 65.3393 202.982C66.6056 202.982 67.6819 203.298 68.505 203.994C69.3281 204.689 69.7713 205.511 69.7713 206.46C69.7713 207.472 69.3914 208.294 68.6316 208.989C69.708 209.811 70.2145 210.886 70.2145 212.214C70.2145 213.352 69.7713 214.301 68.8216 215.06C67.9352 215.818 66.7322 216.198 65.276 216.198C63.8198 216.198 62.6168 215.818 61.7305 214.996C60.8441 214.238 60.4009 213.289 60.4009 212.151C60.4009 210.823 60.9707 209.748 62.047 208.926C61.2873 208.23 60.9074 207.345 60.9074 206.397C60.8441 205.511 61.2873 204.689 62.1737 203.994ZM63.8831 213.416C64.3263 213.732 64.7695 213.858 65.276 213.858C65.7825 213.858 66.2257 213.732 66.6689 213.416C67.1121 213.099 67.302 212.72 67.302 212.151C67.302 211.582 67.1121 211.202 66.6689 210.886C66.2257 210.57 65.7825 210.444 65.276 210.444C64.7695 210.444 64.263 210.57 63.8831 210.886C63.4399 211.202 63.25 211.582 63.25 212.151C63.25 212.72 63.4399 213.163 63.8831 213.416ZM64.0731 207.851C64.4529 208.167 64.8328 208.294 65.276 208.294C65.7192 208.294 66.1624 208.167 66.479 207.851C66.8589 207.535 66.9855 207.219 66.9855 206.776C66.9855 206.333 66.7955 205.954 66.479 205.701C66.1624 205.385 65.7192 205.258 65.276 205.258C64.7695 205.258 64.3896 205.385 64.0731 205.701C63.7565 206.017 63.5666 206.333 63.5666 206.776C63.5666 207.155 63.7565 207.535 64.0731 207.851Z" fill="#F68A73"/>
<path d="M112.381 214.048C113.204 214.048 113.774 213.795 114.217 213.289C114.66 212.783 114.914 212.024 115.04 211.139C114.281 211.645 113.394 211.898 112.508 211.898C111.305 211.898 110.292 211.518 109.532 210.696C108.709 209.874 108.329 208.863 108.329 207.535C108.329 206.207 108.772 205.195 109.659 204.436C110.545 203.677 111.621 203.235 112.951 203.298C113.837 203.298 114.66 203.488 115.294 203.804C115.99 204.183 116.497 204.626 116.876 205.258C117.573 206.46 117.953 207.977 117.953 209.811C117.953 211.013 117.826 212.024 117.51 212.91C117.193 213.795 116.813 214.49 116.307 214.996C115.294 216.008 114.091 216.514 112.634 216.514C112.065 216.514 111.431 216.451 110.925 216.261C110.355 216.071 109.975 215.882 109.659 215.692C109.405 215.502 109.026 215.312 108.709 214.996L110.165 212.973C110.229 213.036 110.355 213.163 110.482 213.226C110.608 213.352 110.925 213.479 111.305 213.668C111.621 213.921 112.001 214.048 112.381 214.048ZM112.824 209.432C113.394 209.432 113.901 209.305 114.281 208.926C114.66 208.61 114.85 208.167 114.85 207.598C114.85 207.029 114.66 206.586 114.281 206.207C113.901 205.827 113.457 205.638 112.888 205.638C112.318 205.638 111.875 205.827 111.558 206.144C111.178 206.523 111.052 206.966 111.052 207.471C111.052 208.041 111.178 208.483 111.495 208.863C111.811 209.242 112.255 209.432 112.824 209.432Z" fill="#737072"/>
<path d="M150.623 203.741H155.815L155.751 216.577H152.965L153.029 206.207H150.56L150.623 203.741Z" fill="#737072"/>
<path d="M163.729 216.767C161.956 216.767 160.626 216.135 159.74 214.933C158.854 213.732 158.41 212.088 158.474 210.127C158.474 208.104 158.917 206.523 159.803 205.322C160.69 204.12 162.019 203.551 163.792 203.551C165.565 203.551 166.894 204.183 167.781 205.385C168.667 206.586 169.11 208.23 169.11 210.191C169.11 212.214 168.667 213.795 167.781 214.996C166.831 216.198 165.502 216.767 163.729 216.767ZM161.829 207.029C161.449 207.788 161.196 208.863 161.196 210.127C161.196 211.392 161.386 212.467 161.766 213.226C162.146 213.985 162.779 214.427 163.665 214.427C164.552 214.427 165.185 214.048 165.565 213.289C165.945 212.53 166.198 211.455 166.198 210.191C166.198 208.926 166.008 207.851 165.628 207.092C165.248 206.333 164.615 205.891 163.729 205.891C162.906 205.891 162.273 206.27 161.829 207.029Z" fill="#737072"/>
<path d="M202.097 203.614H207.288L207.225 216.451H204.439L204.502 206.08H202.033L202.097 203.614Z" fill="#737072"/>
<path d="M209.504 203.677H214.696L214.633 216.514H211.847L211.91 206.144H209.441L209.504 203.677Z" fill="#737072"/>
<path d="M246.353 204.247H251.545L251.481 217.083H248.695L248.759 206.713H246.29L246.353 204.247Z" fill="#737072"/>
<path d="M259.585 209.305C259.902 208.863 260.092 208.42 260.092 207.977C260.092 207.535 259.965 207.219 259.649 206.902C259.395 206.586 259.015 206.46 258.572 206.46C257.749 206.46 256.989 207.029 256.293 208.167L254.014 206.776C254.647 205.827 255.28 205.132 255.976 204.689C256.673 204.247 257.623 203.994 258.699 203.994C259.775 203.994 260.788 204.373 261.611 205.069C262.434 205.764 262.878 206.713 262.878 207.914C262.878 208.547 262.688 209.179 262.371 209.811C262.054 210.444 261.421 211.202 260.472 212.151L258.129 214.554H263.194V217.146L254.14 217.083V214.933L257.939 211.076C258.699 210.38 259.269 209.748 259.585 209.305Z" fill="#737072"/>
<path d="M294.281 204.5H299.473L299.409 217.336H296.624L296.687 206.966H294.218L294.281 204.5Z" fill="#737072"/>
<path d="M302.449 206.966V204.5L310.3 204.563V206.523L307.64 209.495C308.653 209.685 309.477 210.127 310.046 210.823C310.616 211.519 310.869 212.341 310.869 213.226C310.869 214.554 310.426 215.629 309.477 216.388C308.527 217.146 307.387 217.526 305.994 217.526C304.601 217.526 303.145 217.02 301.689 216.008L302.892 213.732C304.095 214.617 305.171 215.06 306.121 215.06C306.691 215.06 307.197 214.933 307.577 214.617C307.957 214.364 308.147 213.921 308.147 213.416C308.147 212.91 307.957 212.467 307.514 212.151C307.071 211.835 306.501 211.708 305.741 211.645C305.361 211.645 304.791 211.771 304.032 211.961V209.874L306.501 206.966H302.449Z" fill="#737072"/>
<path d="M342.209 204.752H347.401L347.338 217.589H344.552L344.615 207.219H342.146L342.209 204.752Z" fill="#737072"/>
<path d="M354.872 212.088V209.874H357.658V212.088H359.114V214.554H357.658V217.589H354.872V214.554H349.68V212.341L354.302 204.816H357.404L353.036 212.088H354.872Z" fill="#737072"/>
<path d="M54.703 234.789H59.8947L59.8314 247.625H57.0456L57.1089 237.255H54.6396L54.703 234.789Z" fill="#F68A73"/>
<path d="M70.8479 234.852V237.318H65.7829V239.468C66.1627 239.342 66.6059 239.278 67.1124 239.342C68.3787 239.342 69.3917 239.721 70.2781 240.48C71.1645 241.239 71.6077 242.25 71.6077 243.515C71.6077 244.78 71.1645 245.855 70.2148 246.677C69.2651 247.499 68.1255 247.878 66.7959 247.878C65.0864 247.878 63.6302 247.246 62.4272 245.918L63.9468 243.831C64.0734 243.958 64.2 244.084 64.39 244.211C64.5799 244.4 64.8965 244.59 65.403 244.843C65.9095 245.096 66.3527 245.222 66.8592 245.222C67.3657 245.222 67.8089 245.096 68.1888 244.78C68.5687 244.464 68.7586 244.084 68.7586 243.452C68.7586 242.883 68.5687 242.44 68.1255 242.124C67.7456 241.808 67.1758 241.618 66.5426 241.618C65.9095 241.618 65.1497 241.871 64.2633 242.314L63.0604 241.049L63.1237 234.789L70.8479 234.852Z" fill="#F68A73"/>
<path d="M102.758 235.042H107.949L107.886 247.878H105.1L105.164 237.508H102.694L102.758 235.042Z" fill="#737072"/>
<path d="M116.117 237.255C115.294 237.255 114.724 237.508 114.281 238.014C113.837 238.52 113.584 239.278 113.458 240.164C114.281 239.658 115.104 239.405 115.99 239.405C117.193 239.405 118.206 239.784 118.966 240.606C119.789 241.365 120.169 242.44 120.169 243.768C120.169 245.096 119.726 246.108 118.839 246.867C117.953 247.625 116.876 248.005 115.547 248.005C114.66 248.005 113.837 247.815 113.204 247.499C112.508 247.12 112.001 246.677 111.685 246.045C110.925 244.843 110.608 243.325 110.608 241.492C110.608 240.29 110.735 239.278 111.052 238.393C111.368 237.508 111.748 236.812 112.255 236.306C113.268 235.295 114.471 234.789 115.927 234.789C116.497 234.789 117.066 234.915 117.636 235.042C118.206 235.231 118.586 235.421 118.902 235.611C119.219 235.801 119.536 236.054 119.852 236.306L118.459 238.33C118.396 238.267 118.269 238.14 118.143 238.014C118.016 237.887 117.7 237.761 117.32 237.508C116.876 237.381 116.497 237.255 116.117 237.255ZM115.673 241.871C115.104 241.871 114.597 242.061 114.217 242.377C113.837 242.693 113.647 243.136 113.647 243.705C113.647 244.274 113.837 244.717 114.217 245.096C114.597 245.475 115.04 245.665 115.61 245.665C116.18 245.665 116.623 245.475 117.003 245.159C117.383 244.843 117.573 244.4 117.573 243.831C117.573 243.262 117.383 242.82 117.066 242.44C116.686 242.061 116.243 241.871 115.673 241.871Z" fill="#737072"/>
<path d="M150.623 235.295H155.815L155.751 248.131H152.965L153.029 237.761H150.56L150.623 235.295Z" fill="#737072"/>
<path d="M158.284 239.405V235.295L167.591 235.358V237.508L162.336 248.131H159.233L164.235 237.761H161.006V239.405H158.284Z" fill="#737072"/>
<path d="M198.741 235.548H203.933L203.869 248.384H201.084L201.147 238.014H198.678L198.741 235.548Z" fill="#737072"/>
<path d="M208.302 236.306C209.125 235.611 210.201 235.295 211.467 235.295C212.734 235.295 213.81 235.674 214.633 236.306C215.456 237.002 215.899 237.824 215.899 238.773C215.899 239.784 215.519 240.606 214.76 241.302C215.836 242.124 216.342 243.199 216.342 244.527C216.342 245.665 215.899 246.614 214.949 247.372C214.063 248.131 212.86 248.511 211.404 248.511C209.948 248.511 208.745 248.131 207.858 247.309C206.972 246.55 206.529 245.602 206.529 244.464C206.529 243.136 207.099 242.061 208.175 241.239C207.415 240.543 207.035 239.658 207.035 238.709C206.972 237.761 207.415 236.939 208.302 236.306ZM210.011 245.728C210.454 246.045 210.897 246.171 211.404 246.171C211.91 246.171 212.354 246.045 212.797 245.728C213.24 245.412 213.43 245.033 213.43 244.464C213.43 243.895 213.24 243.515 212.797 243.199C212.354 242.883 211.91 242.756 211.404 242.756C210.897 242.756 210.391 242.883 210.011 243.199C209.568 243.515 209.378 243.895 209.378 244.464C209.378 245.033 209.568 245.475 210.011 245.728ZM210.201 240.1C210.581 240.417 210.961 240.543 211.404 240.543C211.847 240.543 212.29 240.417 212.607 240.1C212.987 239.784 213.113 239.468 213.113 239.025C213.113 238.583 212.923 238.203 212.607 237.951C212.29 237.634 211.847 237.508 211.404 237.508C210.897 237.508 210.518 237.634 210.201 237.951C209.884 238.267 209.694 238.583 209.694 239.025C209.694 239.468 209.884 239.848 210.201 240.1Z" fill="#737072"/>
<path d="M246.669 235.737H251.861L251.798 248.573H249.012L249.075 238.203H246.606L246.669 235.737Z" fill="#737072"/>
<path d="M258.509 246.361C259.332 246.361 259.902 246.108 260.345 245.602C260.788 245.096 261.042 244.337 261.168 243.452C260.409 243.958 259.522 244.211 258.636 244.211C257.433 244.211 256.42 243.831 255.66 243.009C254.837 242.187 254.457 241.175 254.457 239.847C254.457 238.519 254.9 237.508 255.787 236.749C256.673 235.99 257.749 235.547 259.079 235.611C259.965 235.611 260.788 235.8 261.422 236.117C262.118 236.496 262.624 236.939 263.004 237.571C263.701 238.772 264.081 240.29 264.081 242.124C264.081 243.325 263.954 244.337 263.637 245.222C263.321 246.108 262.941 246.803 262.435 247.309C261.422 248.321 260.219 248.827 258.762 248.827C258.193 248.827 257.559 248.7 257.053 248.574C256.483 248.384 256.103 248.194 255.787 248.005C255.533 247.815 255.153 247.625 254.837 247.309L256.293 245.286C256.356 245.349 256.483 245.475 256.61 245.602C256.736 245.728 257.053 245.855 257.433 246.044C257.749 246.234 258.129 246.361 258.509 246.361ZM258.889 241.744C259.459 241.744 259.965 241.618 260.345 241.239C260.725 240.922 260.915 240.48 260.915 239.911C260.915 239.342 260.725 238.899 260.345 238.519C259.965 238.14 259.522 237.95 258.952 237.95C258.382 237.95 257.939 238.14 257.623 238.456C257.243 238.836 257.116 239.278 257.116 239.784C257.116 240.353 257.243 240.796 257.559 241.175C257.876 241.555 258.319 241.744 258.889 241.744Z" fill="#737072"/>
<path d="M301.119 241.049C301.436 240.606 301.625 240.164 301.625 239.721C301.625 239.278 301.499 238.962 301.182 238.646C300.929 238.33 300.549 238.203 300.106 238.203C299.283 238.203 298.523 238.773 297.827 239.911L295.547 238.52C296.18 237.571 296.814 236.876 297.51 236.433C298.207 235.99 299.156 235.737 300.233 235.737C301.309 235.737 302.322 236.117 303.145 236.812C303.968 237.508 304.411 238.456 304.411 239.658C304.411 240.29 304.221 240.923 303.905 241.555C303.588 242.187 302.955 242.946 302.005 243.895L299.663 246.297H304.728V248.89L295.674 248.827V246.677L299.473 242.82C300.233 242.124 300.739 241.492 301.119 241.049Z" fill="#737072"/>
<path d="M312.072 249.08C310.299 249.08 308.97 248.447 308.083 247.246C307.197 246.044 306.754 244.4 306.817 242.44C306.817 240.417 307.26 238.836 308.147 237.634C309.033 236.433 310.363 235.864 312.135 235.864C313.908 235.864 315.238 236.496 316.124 237.698C317.01 238.899 317.454 240.543 317.39 242.503C317.39 244.527 316.947 246.108 316.061 247.309C315.174 248.511 313.845 249.08 312.072 249.08ZM310.236 239.342C309.856 240.1 309.603 241.175 309.603 242.44C309.603 243.705 309.793 244.78 310.173 245.539C310.552 246.297 311.186 246.74 312.072 246.74C312.958 246.74 313.592 246.361 313.971 245.602C314.351 244.843 314.605 243.768 314.605 242.503C314.605 241.239 314.415 240.164 314.035 239.405C313.655 238.646 313.022 238.203 312.135 238.203C311.249 238.203 310.616 238.583 310.236 239.342Z" fill="#737072"/>
<path d="M348.414 241.302C348.73 240.859 348.92 240.417 348.92 239.974C348.92 239.531 348.794 239.215 348.477 238.899C348.224 238.583 347.844 238.456 347.401 238.456C346.578 238.456 345.818 239.025 345.122 240.164L342.842 238.773C343.475 237.824 344.109 237.128 344.805 236.686C345.501 236.243 346.451 235.99 347.527 235.99C348.604 235.99 349.617 236.37 350.44 237.065C351.263 237.761 351.706 238.709 351.706 239.911C351.706 240.543 351.516 241.175 351.2 241.808C350.883 242.44 350.25 243.199 349.3 244.147L346.958 246.55H352.023V249.143L342.969 249.08V246.93L346.768 243.072C347.527 242.377 348.097 241.745 348.414 241.302Z" fill="#737072"/>
<path d="M353.669 236.306H358.86L358.797 249.143H356.011L356.075 238.773H353.605L353.669 236.306Z" fill="#737072"/>
<path d="M59.7679 270.579C60.0844 270.137 60.2744 269.694 60.2744 269.251C60.2744 268.809 60.1478 268.493 59.8312 268.176C59.5779 267.86 59.1981 267.734 58.7549 267.734C57.9318 267.734 57.172 268.303 56.4756 269.441L54.1963 268.05C54.8294 267.101 55.4626 266.406 56.159 265.963C56.8555 265.521 57.8052 265.268 58.8815 265.268C59.9578 265.268 60.9708 265.647 61.7939 266.343C62.617 267.038 63.0602 267.987 63.0602 269.188C63.0602 269.82 62.8702 270.453 62.5537 271.085C62.2371 271.717 61.604 272.476 60.6543 273.425L58.3117 275.828H63.3767V278.42L54.3229 278.357V276.207L58.1217 272.35C58.8815 271.654 59.388 271.085 59.7679 270.579Z" fill="#F68A73"/>
<path d="M70.848 270.642C71.1645 270.2 71.3545 269.757 71.3545 269.315C71.3545 268.872 71.2278 268.556 70.9113 268.24C70.658 267.923 70.2781 267.797 69.8349 267.797C69.0119 267.797 68.2521 268.366 67.5557 269.504L65.2764 268.113C65.9095 267.165 66.5426 266.469 67.2391 266.026C67.9355 265.584 68.8852 265.331 69.9616 265.331C71.0379 265.331 72.0509 265.71 72.874 266.406C73.6971 267.101 74.1403 268.05 74.1403 269.251C74.1403 269.884 73.9503 270.516 73.6337 271.148C73.3172 271.781 72.684 272.54 71.7343 273.488L69.3917 275.891H74.4568V278.484L65.403 278.42V276.27L69.2018 272.413C69.9616 271.717 70.5314 271.085 70.848 270.642Z" fill="#F68A73"/>
<path d="M108.836 270.642C109.152 270.2 109.342 269.757 109.342 269.315C109.342 268.872 109.216 268.556 108.899 268.24C108.646 267.923 108.266 267.797 107.823 267.797C107 267.797 106.24 268.366 105.543 269.504L103.264 268.113C103.897 267.165 104.53 266.469 105.227 266.026C105.923 265.584 106.873 265.331 107.949 265.331C109.026 265.331 110.039 265.71 110.862 266.406C111.685 267.101 112.128 268.05 112.128 269.251C112.128 269.884 111.938 270.516 111.622 271.148C111.305 271.781 110.672 272.54 109.722 273.488L107.38 275.891H112.445V278.484L103.391 278.42V276.27L107.19 272.413C107.949 271.717 108.519 271.085 108.836 270.642Z" fill="#737072"/>
<path d="M114.914 268.113V265.647L122.765 265.71V267.67L120.106 270.642C121.119 270.832 121.942 271.275 122.512 271.97C123.081 272.666 123.335 273.488 123.335 274.373C123.335 275.701 122.892 276.776 121.942 277.535C120.992 278.294 119.853 278.673 118.46 278.673C117.067 278.673 115.611 278.167 114.154 277.156L115.357 274.879C116.56 275.764 117.637 276.207 118.586 276.207C119.156 276.207 119.663 276.081 120.042 275.764C120.422 275.512 120.612 275.069 120.612 274.563C120.612 274.057 120.422 273.614 119.979 273.298C119.536 272.982 118.966 272.856 118.206 272.792C117.826 272.792 117.257 272.919 116.497 273.109V271.022L118.966 268.113H114.914Z" fill="#737072"/>
<path d="M156.827 270.896C157.144 270.453 157.334 270.01 157.334 269.568C157.334 269.125 157.207 268.809 156.891 268.493C156.638 268.177 156.258 268.05 155.814 268.05C154.991 268.05 154.232 268.619 153.535 269.757L151.256 268.366C151.889 267.418 152.522 266.722 153.219 266.28C153.915 265.837 154.865 265.584 155.941 265.584C157.017 265.584 158.03 265.963 158.853 266.659C159.677 267.355 160.12 268.303 160.12 269.505C160.12 270.137 159.93 270.769 159.613 271.402C159.297 272.034 158.664 272.793 157.714 273.741L155.371 276.144H160.436V278.737L151.382 278.673V276.524L155.181 272.666C155.941 271.971 156.448 271.338 156.827 270.896Z" fill="#737072"/>
<path d="M167.274 273.235V271.022H170.06V273.235H171.516V275.701H170.06V278.737H167.274V275.701H162.083V273.488L166.704 265.963H169.807L165.438 273.235H167.274Z" fill="#737072"/>
<path d="M204.819 271.149C205.136 270.706 205.326 270.263 205.326 269.821C205.326 269.378 205.199 269.062 204.882 268.746C204.629 268.43 204.249 268.303 203.806 268.303C202.983 268.303 202.223 268.872 201.527 270.01L199.248 268.619C199.881 267.671 200.514 266.975 201.21 266.532C201.907 266.09 202.856 265.837 203.933 265.837C205.009 265.837 206.022 266.216 206.845 266.912C207.668 267.607 208.111 268.556 208.111 269.757C208.111 270.39 207.921 271.022 207.605 271.654C207.288 272.287 206.655 273.046 205.706 273.994L203.363 276.397H208.428V278.99L199.374 278.926V276.776L203.173 272.919C203.933 272.224 204.439 271.591 204.819 271.149Z" fill="#737072"/>
<path d="M218.748 266.216V268.682H213.683V270.832C214.063 270.706 214.506 270.643 215.013 270.706C216.279 270.706 217.292 271.085 218.179 271.844C219.065 272.603 219.508 273.615 219.508 274.879C219.508 276.144 219.065 277.219 218.115 278.041C217.165 278.863 216.026 279.243 214.696 279.243C212.987 279.243 211.531 278.61 210.328 277.282L211.847 275.196C211.974 275.322 212.1 275.449 212.29 275.575C212.48 275.765 212.797 275.954 213.303 276.207C213.81 276.46 214.253 276.587 214.76 276.587C215.266 276.587 215.709 276.46 216.089 276.144C216.469 275.828 216.659 275.449 216.659 274.816C216.659 274.247 216.469 273.804 216.026 273.488C215.646 273.172 215.076 272.982 214.443 272.982C213.81 272.982 213.05 273.235 212.164 273.678L210.961 272.413L211.024 266.153L218.748 266.216Z" fill="#737072"/>
<path d="M252.811 271.402C253.127 270.959 253.317 270.516 253.317 270.074C253.317 269.631 253.191 269.315 252.874 268.999C252.621 268.682 252.241 268.556 251.798 268.556C250.975 268.556 250.215 269.125 249.519 270.263L247.239 268.872C247.872 267.924 248.506 267.228 249.202 266.785C249.898 266.343 250.848 266.09 251.924 266.09C253.001 266.09 254.014 266.469 254.837 267.165C255.66 267.86 256.103 268.809 256.103 270.01C256.103 270.643 255.913 271.275 255.597 271.907C255.28 272.54 254.647 273.299 253.697 274.247L251.355 276.65H256.42V279.243L247.366 279.179V277.029L251.165 273.172C251.988 272.477 252.494 271.844 252.811 271.402Z" fill="#737072"/>
<path d="M264.018 268.619C263.194 268.619 262.625 268.872 262.181 269.378C261.738 269.884 261.485 270.643 261.358 271.528C262.181 271.022 263.005 270.769 263.891 270.769C265.094 270.769 266.107 271.149 266.867 271.971C267.69 272.729 268.07 273.804 268.07 275.132C268.07 276.46 267.626 277.472 266.74 278.231C265.854 278.99 264.777 279.369 263.448 279.369C262.561 279.369 261.738 279.179 261.105 278.863C260.409 278.484 259.902 278.041 259.586 277.409C258.826 276.207 258.509 274.69 258.509 272.856C258.509 271.654 258.636 270.643 258.952 269.757C259.269 268.872 259.649 268.177 260.155 267.671C261.168 266.659 262.371 266.153 263.828 266.153C264.397 266.153 264.967 266.28 265.537 266.406C266.107 266.596 266.487 266.785 266.803 266.975C267.12 267.165 267.436 267.418 267.753 267.671L266.36 269.694C266.297 269.631 266.17 269.504 266.044 269.378C265.917 269.252 265.6 269.125 265.221 268.872C264.777 268.682 264.397 268.619 264.018 268.619ZM263.638 273.235C263.068 273.235 262.561 273.425 262.181 273.741C261.802 274.057 261.612 274.5 261.612 275.069C261.612 275.638 261.802 276.081 262.181 276.46C262.561 276.84 263.005 277.029 263.574 277.029C264.144 277.029 264.587 276.84 264.967 276.523C265.347 276.207 265.537 275.765 265.537 275.196C265.537 274.626 265.347 274.184 265.031 273.804C264.651 273.425 264.207 273.235 263.638 273.235Z" fill="#737072"/>
<path d="M300.676 271.654C300.992 271.212 301.182 270.769 301.182 270.327C301.182 269.884 301.055 269.568 300.739 269.252C300.486 268.935 300.106 268.809 299.663 268.809C298.839 268.809 298.08 269.378 297.383 270.516L295.104 269.125C295.737 268.177 296.37 267.481 297.067 267.038C297.763 266.596 298.713 266.343 299.789 266.343C300.866 266.343 301.879 266.722 302.702 267.418C303.525 268.113 303.968 269.062 303.968 270.263C303.968 270.896 303.778 271.528 303.461 272.16C303.145 272.793 302.512 273.551 301.562 274.5L299.219 276.903H304.284V279.495L295.231 279.432V277.282L299.029 273.425C299.789 272.729 300.359 272.097 300.676 271.654Z" fill="#737072"/>
<path d="M306.184 270.769V266.659L315.491 266.722V268.872L310.236 279.495H307.134L312.136 269.125H308.907V270.769H306.184Z" fill="#737072"/>
<path d="M348.794 271.907C349.11 271.465 349.3 271.022 349.3 270.579C349.3 270.137 349.174 269.821 348.857 269.504C348.604 269.188 348.224 269.062 347.781 269.062C346.958 269.062 346.198 269.631 345.501 270.769L343.222 269.378C343.855 268.429 344.488 267.734 345.185 267.291C345.881 266.849 346.831 266.596 347.907 266.596C348.984 266.596 349.997 266.975 350.82 267.671C351.643 268.366 352.086 269.315 352.086 270.516C352.086 271.149 351.896 271.781 351.58 272.413C351.263 273.046 350.63 273.804 349.68 274.753L347.338 277.156H352.403V279.748L343.349 279.685V277.535L347.148 273.678C347.907 272.919 348.477 272.35 348.794 271.907Z" fill="#737072"/>
<path d="M356.201 267.607C357.025 266.912 358.101 266.596 359.367 266.596C360.633 266.596 361.71 266.975 362.533 267.607C363.356 268.303 363.799 269.125 363.799 270.074C363.799 271.085 363.419 271.907 362.659 272.603C363.736 273.425 364.242 274.5 364.242 275.828C364.242 276.966 363.799 277.915 362.849 278.673C361.963 279.432 360.76 279.812 359.304 279.812C357.848 279.812 356.645 279.432 355.758 278.61C354.872 277.851 354.429 276.903 354.429 275.765C354.429 274.437 354.999 273.362 356.075 272.54C355.315 271.844 354.935 270.959 354.935 270.01C354.872 269.125 355.315 268.303 356.201 267.607ZM357.911 277.093C358.354 277.409 358.797 277.535 359.304 277.535C359.81 277.535 360.254 277.409 360.697 277.093C361.14 276.776 361.33 276.397 361.33 275.828C361.33 275.259 361.14 274.879 360.697 274.563C360.254 274.247 359.81 274.121 359.304 274.121C358.797 274.121 358.291 274.247 357.911 274.563C357.468 274.879 357.278 275.259 357.278 275.828C357.278 276.397 357.468 276.776 357.911 277.093ZM358.101 271.465C358.481 271.781 358.861 271.907 359.304 271.907C359.747 271.907 360.19 271.781 360.507 271.465C360.887 271.149 361.013 270.832 361.013 270.39C361.013 269.947 360.823 269.568 360.507 269.315C360.19 268.999 359.747 268.872 359.304 268.872C358.797 268.872 358.417 268.999 358.101 269.315C357.784 269.631 357.594 269.947 357.594 270.39C357.594 270.832 357.784 271.212 358.101 271.465Z" fill="#737072"/>
<path d="M58.8182 300.995C59.1347 300.552 59.3247 300.11 59.3247 299.667C59.3247 299.224 59.1981 298.908 58.8815 298.592C58.6282 298.276 58.2483 298.149 57.8052 298.149C56.9821 298.149 56.2223 298.719 55.5259 299.857L53.2466 298.466C53.8797 297.517 54.5129 296.822 55.2093 296.379C55.9057 295.936 56.8555 295.683 57.9318 295.683C59.0081 295.683 60.0211 296.063 60.8442 296.758C61.6673 297.454 62.1105 298.402 62.1105 299.604C62.1105 300.236 61.9205 300.869 61.604 301.501C61.2874 302.133 60.6543 302.892 59.7046 303.841L57.362 306.243H62.427V308.836L53.3732 308.773V306.623L57.172 302.766C57.9318 302.07 58.5016 301.438 58.8182 300.995Z" fill="#F68A73"/>
<path d="M68.5052 306.56C69.3283 306.56 69.8981 306.307 70.3413 305.801C70.7845 305.295 71.0377 304.536 71.1644 303.651C70.4046 304.157 69.5182 304.41 68.6318 304.41C67.4289 304.41 66.4158 304.03 65.6561 303.208C64.833 302.386 64.4531 301.374 64.4531 300.046C64.4531 298.718 64.8963 297.707 65.7827 296.948C66.6691 296.189 67.7454 295.746 69.075 295.81C69.9614 295.81 70.7845 295.999 71.4176 296.316C72.1141 296.695 72.6206 297.138 73.0004 297.77C73.6969 298.971 74.0768 300.489 74.0768 302.323C74.0768 303.524 73.9501 304.536 73.6336 305.421C73.317 306.307 72.9371 307.002 72.4306 307.508C71.4176 308.52 70.2146 309.026 68.7584 309.026C68.1886 309.026 67.5555 308.899 67.049 308.773C66.4792 308.583 66.0993 308.393 65.7827 308.204C65.5295 308.014 65.1496 307.824 64.833 307.508L66.2892 305.485C66.3525 305.548 66.4792 305.674 66.6058 305.801C66.7324 305.927 67.049 306.054 67.4289 306.243C67.7454 306.433 68.1253 306.56 68.5052 306.56ZM68.9484 301.943C69.5182 301.943 70.0247 301.817 70.4046 301.438C70.7845 301.121 70.9744 300.679 70.9744 300.11C70.9744 299.541 70.7845 299.098 70.4046 298.718C70.0247 298.339 69.5815 298.149 69.0117 298.149C68.4419 298.149 67.9987 298.339 67.6821 298.655C67.3022 299.035 67.1756 299.477 67.1756 299.983C67.1756 300.552 67.3022 300.995 67.6188 301.374C67.9354 301.754 68.3786 301.943 68.9484 301.943Z" fill="#F68A73"/>
<path d="M101.808 298.655V296.189L109.659 296.252V298.212L107 301.184C108.013 301.374 108.836 301.817 109.406 302.512C109.976 303.208 110.229 304.03 110.229 304.915C110.229 306.243 109.786 307.318 108.836 308.077C107.886 308.836 106.747 309.215 105.354 309.215C103.961 309.215 102.505 308.709 101.048 307.698L102.251 305.421C103.454 306.306 104.531 306.749 105.48 306.749C106.05 306.749 106.557 306.623 106.936 306.306C107.316 306.054 107.506 305.611 107.506 305.105C107.506 304.599 107.316 304.156 106.873 303.84C106.43 303.524 105.86 303.398 105.1 303.334C104.721 303.334 104.151 303.461 103.391 303.651V301.564L105.86 298.655H101.808Z" fill="#737072"/>
<path d="M117.573 309.279C115.8 309.279 114.471 308.646 113.584 307.445C112.698 306.243 112.255 304.599 112.318 302.639C112.318 300.616 112.761 299.035 113.648 297.833C114.534 296.632 115.864 296.063 117.636 296.063C119.409 296.063 120.739 296.695 121.625 297.897C122.511 299.098 122.955 300.742 122.955 302.702C122.955 304.726 122.511 306.307 121.625 307.508C120.675 308.71 119.346 309.279 117.573 309.279ZM115.737 299.541C115.357 300.299 115.104 301.374 115.104 302.639C115.104 303.904 115.294 304.979 115.674 305.738C116.053 306.496 116.687 306.939 117.573 306.939C118.459 306.939 119.093 306.56 119.472 305.801C119.852 305.042 120.106 303.967 120.106 302.702C120.106 301.438 119.916 300.363 119.536 299.604C119.156 298.845 118.523 298.402 117.636 298.402C116.813 298.339 116.18 298.782 115.737 299.541Z" fill="#737072"/>
<path d="M81.6111 86.3146C81.6111 89.2866 79.2052 91.7528 76.1662 91.7528C73.1904 91.7528 70.7212 89.3499 70.7212 86.3146C70.7212 83.3426 73.1271 80.8765 76.1662 80.8765C79.2052 80.8765 81.6111 83.3426 81.6111 86.3146Z" fill="#F68A73"/>
<path d="M77.6222 88.5279H74.7731C74.0767 88.5279 73.5068 87.9588 73.5068 87.2632V62.9812C73.5068 62.2857 74.0767 61.7166 74.7731 61.7166H77.6222C78.3187 61.7166 78.8885 62.2857 78.8885 62.9812V87.2632C78.8885 87.9588 78.3187 88.5279 77.6222 88.5279Z" fill="#737072"/>
<path d="M121.309 86.3146C121.309 89.2866 118.903 91.7528 115.864 91.7528C112.888 91.7528 110.419 89.3499 110.419 86.3146C110.419 83.3426 112.825 80.8765 115.864 80.8765C118.84 80.8765 121.309 83.3426 121.309 86.3146Z" fill="#F68A73"/>
<path d="M117.257 88.5279H114.408C113.711 88.5279 113.142 87.9588 113.142 87.2632V62.9812C113.142 62.2857 113.711 61.7166 114.408 61.7166H117.257C117.953 61.7166 118.523 62.2857 118.523 62.9812V87.2632C118.523 87.9588 117.953 88.5279 117.257 88.5279Z" fill="#737072"/>
<path d="M160.943 86.3146C160.943 89.2866 158.537 91.7528 155.498 91.7528C152.522 91.7528 150.053 89.3499 150.053 86.3146C150.053 83.3426 152.459 80.8765 155.498 80.8765C158.537 80.8765 160.943 83.3426 160.943 86.3146Z" fill="#F68A73"/>
<path d="M156.954 88.5279H154.105C153.409 88.5279 152.839 87.9588 152.839 87.2632V62.9812C152.839 62.2857 153.409 61.7166 154.105 61.7166H156.954C157.651 61.7166 158.221 62.2857 158.221 62.9812V87.2632C158.221 87.9588 157.651 88.5279 156.954 88.5279Z" fill="#737072"/>
<path d="M200.577 86.3146C200.577 89.2866 198.171 91.7528 195.132 91.7528C192.156 91.7528 189.687 89.3499 189.687 86.3146C189.687 83.3426 192.093 80.8765 195.132 80.8765C198.171 80.8765 200.577 83.3426 200.577 86.3146Z" fill="#F68A73"/>
<path d="M196.588 88.5279H193.739C193.042 88.5279 192.473 87.9588 192.473 87.2632V62.9812C192.473 62.2857 193.042 61.7166 193.739 61.7166H196.588C197.284 61.7166 197.854 62.2857 197.854 62.9812V87.2632C197.854 87.9588 197.284 88.5279 196.588 88.5279Z" fill="#737072"/>
<path d="M240.275 86.3146C240.275 89.2866 237.869 91.7528 234.83 91.7528C231.854 91.7528 229.385 89.3499 229.385 86.3146C229.385 83.3426 231.791 80.8765 234.83 80.8765C237.805 80.8765 240.275 83.3426 240.275 86.3146Z" fill="#F68A73"/>
<path d="M236.286 88.5279H233.437C232.74 88.5279 232.17 87.9588 232.17 87.2632V62.9812C232.17 62.2857 232.74 61.7166 233.437 61.7166H236.286C236.982 61.7166 237.552 62.2857 237.552 62.9812V87.2632C237.489 87.9588 236.982 88.5279 236.286 88.5279Z" fill="#737072"/>
<path d="M279.909 86.3146C279.909 89.2866 277.503 91.7528 274.464 91.7528C271.488 91.7528 269.019 89.3499 269.019 86.3146C269.019 83.3426 271.425 80.8765 274.464 80.8765C277.503 80.8765 279.909 83.3426 279.909 86.3146Z" fill="#F68A73"/>
<path d="M275.92 88.5279H273.071C272.375 88.5279 271.805 87.9588 271.805 87.2632V62.9812C271.805 62.2857 272.375 61.7166 273.071 61.7166H275.92C276.617 61.7166 277.186 62.2857 277.186 62.9812V87.2632C277.186 87.9588 276.617 88.5279 275.92 88.5279Z" fill="#737072"/>
<path d="M319.607 86.3146C319.607 89.2866 317.201 91.7528 314.162 91.7528C311.186 91.7528 308.717 89.3499 308.717 86.3146C308.717 83.3426 311.123 80.8765 314.162 80.8765C317.137 80.8765 319.607 83.3426 319.607 86.3146Z" fill="#F68A73"/>
<path d="M315.555 88.5279H312.706C312.009 88.5279 311.439 87.9588 311.439 87.2632V62.9812C311.439 62.2857 312.009 61.7166 312.706 61.7166H315.555C316.251 61.7166 316.821 62.2857 316.821 62.9812V87.2632C316.821 87.9588 316.251 88.5279 315.555 88.5279Z" fill="#737072"/>
<path d="M359.241 86.3146C359.241 89.2866 356.835 91.7528 353.796 91.7528C350.82 91.7528 348.351 89.3499 348.351 86.3146C348.351 83.3426 350.756 80.8765 353.796 80.8765C356.835 80.8765 359.241 83.3426 359.241 86.3146Z" fill="#F68A73"/>
<path d="M355.252 88.5279H352.403C351.706 88.5279 351.136 87.9588 351.136 87.2632V62.9812C351.136 62.2857 351.706 61.7166 352.403 61.7166H355.252C355.948 61.7166 356.518 62.2857 356.518 62.9812V87.2632C356.518 87.9588 355.948 88.5279 355.252 88.5279Z" fill="#737072"/>
<path d="M398.875 86.3146C398.875 89.2866 396.469 91.7528 393.43 91.7528C390.391 91.7528 387.985 89.3499 387.985 86.3146C387.985 83.3426 390.391 80.8765 393.43 80.8765C396.469 80.8765 398.875 83.3426 398.875 86.3146Z" fill="#F68A73"/>
<path d="M394.886 88.5279H392.037C391.34 88.5279 390.771 87.9588 390.771 87.2632V62.9812C390.771 62.2857 391.34 61.7166 392.037 61.7166H394.886C395.582 61.7166 396.152 62.2857 396.152 62.9812V87.2632C396.152 87.9588 395.582 88.5279 394.886 88.5279Z" fill="#737072"/>
<path d="M438.573 86.3146C438.573 89.2866 436.167 91.7528 433.128 91.7528C430.152 91.7528 427.683 89.3499 427.683 86.3146C427.683 83.3426 430.089 80.8765 433.128 80.8765C436.103 80.8765 438.573 83.3426 438.573 86.3146Z" fill="#F68A73"/>
<path d="M434.584 88.5279H431.735C431.038 88.5279 430.468 87.9588 430.468 87.2632V62.9812C430.468 62.2857 431.038 61.7166 431.735 61.7166H434.584C435.28 61.7166 435.85 62.2857 435.85 62.9812V87.2632C435.787 87.9588 435.217 88.5279 434.584 88.5279Z" fill="#737072"/>
<mask id="mask0_153_739" style="mask-type:luminance" maskUnits="userSpaceOnUse" x="15" y="32" width="547" height="518">
<path d="M520.943 319.207C512.396 297.58 509.04 276.27 515.435 249.143C520.627 227.074 528.731 205.511 530.25 182.937C538.861 51.2197 459.782 11.3189 366.268 42.7463C336.321 52.8006 270.032 72.9091 237.805 75.3752C178.544 79.8648 140.049 61.2107 105.987 60.7048C45.3957 59.8196 -6.8379 141.961 25.7685 196.279C36.3419 213.921 43.4963 234.789 57.1087 250.155C85.9797 282.784 68.3785 329.134 57.2987 371.501C50.3975 398.06 34.6957 426.515 49.9543 466.479C53.6898 476.281 65.5294 483.047 69.0117 492.216C81.5477 525.603 113.331 548.81 152.965 549.695C206.275 550.897 251.671 518.395 299.283 499.361C322.835 489.939 347.464 483.363 373.043 485.576C403.623 488.295 431.101 503.851 462.252 505.432C501.569 507.455 542.217 487.599 556.525 449.343C569.505 414.69 553.296 382.378 536.962 352.152C530.694 340.706 525.185 329.956 520.943 319.207Z" fill="white"/>
</mask>
<g mask="url(#mask0_153_739)">
<path d="M215.962 285.313C218.875 292.458 178.924 293.786 183.483 284.744C188.041 275.701 188.104 259.83 188.104 259.83H214.063C214.063 259.83 213.05 278.168 215.962 285.313Z" fill="#FFC4C2"/>
<path d="M193.486 259.83C194.246 267.797 199.564 272.603 208.048 275.512C210.074 276.207 212.164 276.713 214.253 277.029C213.493 269.062 214 259.83 214 259.83H193.486Z" fill="#FFADAA"/>
<path d="M227.422 235.484C227.295 234.03 226.093 227.896 225.333 224.229C225.206 223.343 225.016 222.521 224.826 221.699C224.826 221.573 224.763 221.446 224.763 221.446C221.344 205.954 213.746 200.579 202.856 200.579C188.611 200.579 177.088 216.704 177.088 236.623C177.088 256.541 193.993 266.153 207.985 268.556C223.75 271.338 226.852 269.315 227.739 259.956C229.132 256.036 228.688 248.574 231.158 246.677C233.627 244.843 227.612 237.571 227.422 235.484Z" fill="#FFC4C2"/>
<path d="M236.16 203.867C234.957 199.884 230.651 202.097 227.549 204.5C227.486 204.184 236.729 198.556 233.944 196.595C229.575 193.497 225.016 199.378 224.7 199.125C227.422 196.216 226.726 195.9 224.573 195.204C223.75 194.951 220.964 195.204 217.862 196.912C214.95 198.556 211.721 199.441 208.365 199.314C205.199 199.188 200.704 198.809 192.537 198.429C173.796 197.544 171.453 215.123 171.453 215.123C171.453 215.123 163.729 220.941 164.742 233.145C165.755 245.349 187.408 264.256 187.408 264.256C187.408 264.256 196.715 268.177 206.339 259.766C215.963 251.356 211.024 245.539 215.139 240.986C219.318 236.496 215.203 234.599 214.316 227.074C213.43 219.549 223.687 217.526 223.687 217.526C235.337 209.622 236.856 206.017 236.16 203.867Z" fill="#232323"/>
<path d="M215.456 239.848C217.229 243.326 216.406 247.246 213.557 248.7C210.708 250.155 207.035 248.511 205.263 245.033C203.49 241.555 204.313 237.634 207.162 236.18C210.011 234.726 213.683 236.37 215.456 239.848Z" fill="#FFC4C2"/>
<path d="M240.338 546.85H159.423L148.09 463.064H251.671L240.338 546.85Z" fill="#D15332"/>
<path d="M188.864 484.375C188.864 484.375 190.067 494.745 198.741 505.684L198.868 546.85" stroke="#A34127" stroke-width="3.2902" stroke-miterlimit="10"/>
<path d="M297.004 197.67C297.004 197.67 292.825 200.579 292.635 204.689C292.445 208.041 293.585 214.744 295.548 216.704C297.51 218.664 298.333 217.336 298.333 217.336L297.004 197.67Z" fill="#FFC4C2"/>
<path d="M311.123 227.643C311.123 227.643 312.959 221.257 314.352 206.144C314.542 203.931 315.618 199.567 313.276 197.986C312.769 197.67 310.996 196.469 310.173 198.872C310.616 195.837 306.691 194.888 306.121 197.86C306.058 194.635 302.069 194.762 301.563 197.481C301.689 193.75 301.563 192.106 301.563 188.122C301.563 184.138 301.246 181.862 299.98 181.735C298.713 181.609 297.257 180.597 295.358 200.769C294.915 205.385 294.471 209.938 294.661 212.847C294.915 217.969 295.611 221.51 297.574 222.838C303.272 228.402 311.123 227.643 311.123 227.643Z" fill="#FFC4C2"/>
<path d="M128.716 413.426L140.176 411.971C142.265 411.908 144.228 413.173 145.241 415.323L147.837 419.876L128.716 413.426Z" fill="#FFADAA"/>
<path d="M129.096 412.541C129.096 412.541 151.889 418.548 151.699 421.14C151.383 425.314 147.9 433.914 146.508 436.19C145.811 437.328 144.671 438.277 140.619 437.581C137.77 437.075 133.212 435.621 130.236 433.408C124.854 429.487 123.841 425.124 123.841 425.124L129.096 412.541Z" fill="#FFC4C2"/>
<path d="M150.116 427.59C150.94 425.187 151.573 422.784 151.699 421.14C151.889 418.548 129.096 412.541 129.096 412.541L128.02 415.196C135.174 419.496 142.519 423.923 150.116 427.59Z" fill="#FFADAA"/>
<path d="M150.813 425.44C150.433 425.44 150.053 425.377 149.737 425.187L142.962 422.025C141.696 421.393 141.126 419.875 141.759 418.611C142.392 417.346 143.912 416.777 145.178 417.409L151.953 420.571C153.219 421.203 153.789 422.721 153.155 423.986C152.712 424.871 151.763 425.44 150.813 425.44Z" fill="#FFADAA"/>
<path d="M149.04 430.246C148.661 430.246 148.281 430.183 147.964 429.993L141.19 426.831C139.923 426.199 139.353 424.681 139.987 423.417C140.62 422.152 142.139 421.583 143.406 422.215L150.18 425.377C151.446 426.009 152.016 427.527 151.383 428.792C150.94 429.677 149.99 430.246 149.04 430.246Z" fill="#FFC4C2"/>
<path d="M151.636 427.717C151.636 426.705 151.13 425.756 150.18 425.314L143.405 422.152C142.392 421.646 141.189 421.962 140.43 422.721C144.039 424.555 147.837 426.325 151.636 427.717Z" fill="#FFADAA"/>
<path d="M147.267 434.988C146.888 434.988 146.508 434.925 146.191 434.736L139.417 431.574C138.15 430.941 137.58 429.424 138.214 428.159C138.847 426.894 140.366 426.325 141.633 426.958L148.407 430.119C149.673 430.752 150.243 432.269 149.61 433.534C149.167 434.483 148.28 434.988 147.267 434.988Z" fill="#FFC4C2"/>
<path d="M145.558 439.794C145.178 439.794 144.798 439.731 144.482 439.541L137.707 436.38C136.441 435.747 135.871 434.23 136.504 432.965C137.137 431.7 138.657 431.131 139.923 431.764L146.698 434.925C147.964 435.558 148.534 437.075 147.901 438.34C147.394 439.225 146.508 439.794 145.558 439.794Z" fill="#FFC4C2"/>
<path d="M172.34 287.21C171.77 286.957 183.103 276.713 183.103 276.713C183.103 276.713 189.498 278.61 217.545 278.357L228.879 288.222C228.879 288.222 206.529 304.094 172.34 287.21Z" fill="#6D80D9"/>
<path d="M294.471 218.727L294.661 224.735C294.028 240.29 281.745 277.788 281.745 277.788L254.457 287.716C231.411 283.985 215.962 285.376 215.962 285.376L183.483 284.807C183.483 284.807 142.392 295.62 134.731 302.639C127.07 309.658 73.3805 369.415 73.064 377.635C72.7474 385.856 123.841 425.187 123.841 425.187L129.16 412.54C129.16 412.54 121.499 392.116 106.873 375.738L142.266 354.428C144.038 376.56 144.165 385.413 145.811 406.217C148.597 442.008 144.038 475.901 144.038 475.901C204.376 495.883 261.042 474.573 261.042 474.573C261.042 474.573 253.887 439.858 252.178 405.079C250.468 370.3 263.004 337.418 263.004 337.418C263.004 337.418 306.247 304.536 307.261 293.85C308.274 283.163 312.642 235.105 312.642 235.105L313.529 224.608L294.471 218.727Z" fill="#6D80D9"/>
<path d="M297.384 293.85C293.838 300.995 259.902 326.984 255.977 329.008C246.29 334.003 245.023 342.224 245.277 352.468C245.53 360.878 246.859 369.225 247.113 377.635C247.619 393.317 248.189 409.758 253.571 424.428C252.937 418.168 252.431 411.655 252.114 405.142C250.405 370.363 262.941 337.481 262.941 337.481C262.941 337.481 306.184 304.6 307.197 293.913C308.21 283.226 312.579 235.168 312.579 235.168L313.465 224.671L311.439 224.039C310.426 229.604 300.233 288.095 297.384 293.85Z" fill="#5868B0"/>
<path d="M165.881 481.529C158.917 469.957 157.081 457.626 155.941 443.588C154.358 423.29 154.295 402.929 153.092 382.63C152.586 373.841 151.952 365.368 152.332 356.578C152.649 350.191 153.029 343.741 151.763 337.481C143.342 344.816 132.642 349.369 123.335 355.44C115.421 360.625 102.125 364.735 97.8194 373.714C93.3875 382.883 106.367 394.266 111.938 399.957C117.13 405.142 122.955 410.074 127.703 415.765L129.033 412.667C129.033 412.667 121.372 392.242 106.747 375.864L142.139 354.554C143.912 376.686 144.038 385.539 145.684 406.343C148.47 442.134 143.912 476.027 143.912 476.027C151.319 478.367 158.727 480.201 165.881 481.529Z" fill="#5868B0"/>
<path d="M228.879 451.935C228.879 451.935 184.179 459.081 160.88 437.834C160.88 437.834 178.988 475.206 228.879 451.935Z" fill="#5868B0"/>
<path d="M218.179 291.131C215.14 293.028 211.721 294.292 208.175 295.051C204.63 295.81 201.021 296.189 197.412 295.936C193.803 295.684 190.194 295.178 186.775 293.976C185.002 293.534 183.42 292.712 181.773 292.016L181.14 291.763L180.57 291.447L179.367 290.814C178.608 290.372 177.848 289.929 177.025 289.487C177.848 289.803 178.734 290.119 179.557 290.435L180.824 290.941L181.457 291.194L182.09 291.384L184.623 292.142C185.066 292.269 185.446 292.459 185.889 292.522L187.155 292.838C188.041 293.028 188.865 293.281 189.688 293.47L192.283 293.913C193.17 294.103 193.993 294.166 194.879 294.229C195.766 294.292 196.589 294.419 197.475 294.419L200.071 294.545L202.667 294.482C204.44 294.419 206.149 294.229 207.859 293.976C211.404 293.217 214.886 292.395 218.179 291.131Z" fill="#5868B0"/>
<path d="M131.755 519.912C132.515 515.928 137.2 502.459 136.757 498.476C136.187 493.48 134.415 488.674 131.565 484.501C121.499 469.704 116.813 472.36 113.584 461.863C100.669 420.192 78.1922 437.581 58.8816 420.192C58.8816 420.192 56.1591 444.979 59.3248 449.09C61.7307 452.125 65.1496 454.085 68.9485 454.971C70.8479 455.413 72.3674 456.488 73.3171 458.448C75.2165 462.432 73.8236 465.214 70.9745 467.301C66.5425 470.526 64.3266 476.091 65.8461 481.339C69.1384 493.164 77.3058 499.487 88.0691 499.93C102.441 500.499 76.2928 565.441 141.189 547.293C141.189 547.293 161.006 531.105 144.608 505.937C144.608 508.277 131.059 523.58 131.755 519.912ZM114.028 516.118C113.395 517.572 111.495 518.142 110.102 517.509C108.393 516.75 106.81 516.244 105.1 515.739C103.518 515.233 102.505 514.031 102.758 512.324C102.948 510.87 104.721 509.542 106.177 509.984C108.329 510.617 110.545 511.249 112.571 512.198C114.091 512.893 114.661 514.664 114.028 516.118ZM100.732 458.575C100.858 462.306 94.9703 462.812 94.907 459.018C94.8437 456.678 94.8437 454.275 94.0839 451.998C92.881 448.394 98.3892 446.434 99.5922 449.975C100.479 452.821 100.669 455.666 100.732 458.575Z" fill="#8C9EF2"/>
<path d="M58.8818 420.445C58.6286 423.1 56.3493 445.232 59.3883 449.09C61.7943 452.125 65.2132 454.085 69.012 454.97C70.9114 455.413 72.4309 456.488 73.3806 458.448C75.28 462.432 73.8871 465.214 71.038 467.301C66.6061 470.526 64.3901 476.091 65.9096 481.339C69.2019 493.164 77.3694 499.487 88.1327 499.93C102.505 500.499 76.3564 565.441 141.253 547.293C141.189 547.293 103.011 462.938 58.8818 420.445ZM114.028 516.118C113.395 517.572 111.495 518.142 110.102 517.509C108.393 516.75 106.81 516.244 105.101 515.739C103.518 515.233 102.505 514.031 102.758 512.324C102.948 510.87 104.721 509.542 106.177 509.984C108.33 510.617 110.546 511.249 112.572 512.198C114.091 512.893 114.661 514.664 114.028 516.118Z" fill="#6D80D9"/>
<path d="M164.742 604.456C164.235 603.065 133.022 508.53 83.4473 448.773" stroke="white" stroke-width="0.9663" stroke-miterlimit="10" stroke-linecap="round" stroke-linejoin="round"/>
<path d="M102.695 474.826C102.695 474.826 87.3095 476.976 77.6226 473.625" stroke="white" stroke-width="0.9663" stroke-miterlimit="10" stroke-linecap="round" stroke-linejoin="round"/>
<path d="M119.093 478.304C119.093 478.304 117.51 485.639 112.318 490.002" stroke="white" stroke-width="0.9663" stroke-miterlimit="10" stroke-linecap="round" stroke-linejoin="round"/>
<path d="M112.318 528.196C112.318 528.196 122.385 534.266 134.731 531.737" stroke="white" stroke-width="0.9663" stroke-miterlimit="10" stroke-linecap="round" stroke-linejoin="round"/>
<path d="M143.722 521.05C143.722 521.05 144.925 529.903 138.277 539.199" stroke="white" stroke-width="0.9663" stroke-miterlimit="10" stroke-linecap="round" stroke-linejoin="round"/>
<path d="M425.34 453.959C434.837 412.098 458.833 390.219 446.17 381.429C433.254 372.45 392.797 405.332 390.707 434.672C389.694 441.502 391.404 450.607 388.935 447.572C381.147 437.96 381.654 431.384 379.184 417.915C378.615 414.753 376.462 412.034 373.423 411.086C370.067 410.074 366.395 411.276 362.406 415.828C351.516 428.286 353.542 449.975 360.507 482.477C359.114 480.264 357.215 478.241 354.619 477.166C350.44 475.332 342.716 471.98 339.297 476.849C336.321 481.149 338.284 488.738 339.107 493.354C341.829 509.099 355.062 518.015 365.762 528.638C368.358 531.168 370.764 533.824 372.853 536.732C376.652 541.918 378.551 550.581 386.212 551.213C391.277 551.656 396.532 551.213 401.597 550.581C408.878 549.632 414.767 545.838 416.223 538.25C416.856 535.025 434.9 523.833 439.079 521.43C468.266 504.925 439.522 490.761 420.971 507.328C435.597 482.288 444.651 476.913 451.742 468.629C492.452 434.293 462.125 413.109 425.34 453.959ZM423.441 418.484C425.72 414.753 428.506 411.465 431.798 408.62C433.064 407.545 435.154 408.114 436.04 409.379C437.053 410.833 436.546 412.54 435.28 413.615C432.811 415.765 430.595 418.358 428.949 421.14C428.062 422.531 426.48 423.353 424.897 422.594C423.504 421.836 422.554 419.875 423.441 418.484ZM369.814 467.744C366.712 461.736 364.559 455.476 364.306 448.71C364.179 444.79 370.194 444.284 370.384 448.204C370.637 454.465 372.726 460.156 375.576 465.657C377.348 469.135 371.587 471.158 369.814 467.744ZM431.545 486.082C429.645 487.473 427.746 488.927 426.163 490.698C423.567 493.67 418.945 489.749 421.541 486.777C423.441 484.627 425.72 482.793 428.062 481.086C431.228 478.81 434.71 483.805 431.545 486.082Z" fill="#8C9EF2"/>
<path d="M445.22 380.923C431.355 374.03 392.734 406.027 390.707 434.672C389.694 441.501 391.404 450.607 388.935 447.572C381.147 437.96 381.654 431.384 379.184 417.915C378.615 414.753 376.462 412.034 373.423 411.086C370.067 410.074 366.395 411.275 362.406 415.828C351.516 428.285 353.542 449.975 360.507 482.477C359.114 480.264 357.215 478.24 354.619 477.165C350.44 475.332 342.716 471.98 339.297 476.849C336.321 481.149 338.284 488.737 339.107 493.353C341.829 509.099 355.062 518.015 365.762 528.638C368.358 531.167 370.764 533.823 372.853 536.732C376.652 541.917 378.551 550.58 386.212 551.213C387.225 551.276 388.175 551.339 389.188 551.339C387.099 542.55 392.417 425.819 445.22 380.923ZM369.814 467.743C366.712 461.736 364.559 455.476 364.306 448.71C364.179 444.789 370.194 444.284 370.384 448.204C370.637 454.464 372.726 460.155 375.576 465.657C377.348 469.135 371.587 471.158 369.814 467.743Z" fill="#6D80D9"/>
<path d="M436.99 390.977C434.33 392.938 432.051 395.467 429.962 398.06L428.379 400.02C427.872 400.652 427.429 401.411 426.923 402.107L425.467 404.193L424.77 405.205L424.137 406.28L421.541 410.58C421.098 411.276 420.718 412.034 420.338 412.793L419.135 415.006L417.869 417.346C417.489 418.105 417.046 418.8 416.729 419.623L414.64 424.239L413.627 426.515C413.247 427.274 412.93 428.033 412.614 428.855L410.778 433.597L408.942 438.34L407.359 443.146L405.776 447.951L405.016 450.354C404.763 451.176 404.573 451.998 404.32 452.821L401.661 462.559L400.964 465.025L400.394 467.491L399.255 472.423L398.115 477.355L397.545 479.822L397.292 481.086L397.039 482.351L395.203 492.342L394.316 497.337C394.19 498.16 394 498.982 393.873 499.804L393.493 502.333L392.1 512.387L391.404 517.383L391.024 519.912L390.771 522.441L388.681 542.613C388.681 542.866 388.428 543.056 388.175 542.993C387.922 542.929 387.732 542.74 387.795 542.487L389.884 522.315L390.138 519.786L390.517 517.256L391.214 512.261L392.67 502.207L393.05 499.677C393.177 498.855 393.367 498.033 393.493 497.148L394.38 492.152L396.216 482.161L396.469 480.897L396.722 479.632L397.292 477.166L398.432 472.233L399.571 467.301L400.141 464.835L400.838 462.369L403.56 452.568C403.813 451.746 404.003 450.923 404.256 450.101L405.08 447.699L406.662 442.893L408.245 438.087L410.081 433.344L411.917 428.602C412.234 427.78 412.551 427.021 412.93 426.262L414.007 423.922L416.096 419.306C416.413 418.548 416.856 417.789 417.236 417.03L418.439 414.754L419.642 412.477C420.022 411.718 420.401 410.959 420.845 410.264L423.504 405.901L424.137 404.826L424.897 403.814L426.353 401.727C426.859 401.032 427.303 400.336 427.809 399.64L429.392 397.68C431.545 395.024 433.824 392.495 436.61 390.472C436.736 390.345 436.926 390.408 437.053 390.535C437.179 390.661 437.18 390.851 436.99 390.977Z" fill="white"/>
<path d="M372.283 442.956C372.283 442.956 388.175 462.432 394.253 495.883" stroke="white" stroke-width="1.3978" stroke-miterlimit="10" stroke-linecap="round" stroke-linejoin="round"/>
<path d="M456.617 443.335C456.617 443.335 419.832 458.322 391.974 510.806" stroke="white" stroke-width="1.3978" stroke-miterlimit="10" stroke-linecap="round" stroke-linejoin="round"/>
<path d="M437.623 512.324C437.623 512.324 414.26 514.221 389.948 535.657" stroke="white" stroke-width="1.3978" stroke-miterlimit="10" stroke-linecap="round" stroke-linejoin="round"/>
<path d="M351.453 488.358C351.453 488.358 372.22 502.523 388.238 539.451" stroke="white" stroke-width="1.3978" stroke-miterlimit="10" stroke-linecap="round" stroke-linejoin="round"/>
<path d="M269.209 495.63C267.436 490.318 258.509 472.55 258.383 466.985C258.193 459.966 259.776 453.073 262.941 446.813C274.084 424.555 281.049 427.337 283.581 412.351C293.712 352.594 327.838 372.45 351.2 344.943C351.2 344.943 359.558 378.583 355.885 384.844C353.163 389.46 348.794 392.748 343.729 394.708C341.197 395.657 339.234 397.427 338.348 400.273C336.448 406.09 338.917 409.695 343.223 412.034C349.934 415.639 353.923 422.911 352.91 430.436C350.567 447.319 340.437 457.563 325.685 460.156C305.994 463.507 353.923 548.051 261.232 535.025C261.232 535.025 230.968 516.371 248.949 478.747C249.329 482.035 270.855 500.626 269.209 495.63ZM292.952 487.157C294.091 489.054 296.751 489.496 298.587 488.358C300.803 486.967 302.892 486.019 305.108 485.007C307.197 484.058 308.4 482.225 307.704 479.885C307.134 477.925 304.538 476.407 302.575 477.292C299.726 478.62 296.814 479.885 294.155 481.529C292.192 482.73 291.812 485.26 292.952 487.157ZM300.613 405.458C301.183 410.643 309.287 410.264 308.78 405.015C308.464 401.79 308.02 398.439 308.654 395.214C309.667 390.092 301.689 388.322 300.676 393.507C299.916 397.491 300.233 401.474 300.613 405.458Z" fill="#8C9EF2"/>
<path d="M261.865 535.152C264.081 507.708 309.476 399.894 347.401 348.864C324.292 370.616 293.078 355.693 283.518 412.351C280.985 427.337 274.021 424.618 262.878 446.813C259.712 453.074 258.129 460.029 258.319 466.985C258.446 472.55 267.373 490.319 269.146 495.63C270.855 500.626 249.265 482.035 248.885 478.747C230.904 516.434 261.168 535.025 261.168 535.025C261.485 535.088 261.675 535.088 261.865 535.152ZM300.676 393.507C301.689 388.385 309.666 390.092 308.653 395.214C308.02 398.439 308.463 401.727 308.78 405.016C309.35 410.264 301.182 410.643 300.613 405.458C300.233 401.474 299.916 397.491 300.676 393.507Z" fill="#6D80D9"/>
<path d="M239.325 618.115C239.768 616.155 265.284 480.201 322.582 388.827" stroke="white" stroke-width="1.3424" stroke-miterlimit="10" stroke-linecap="round" stroke-linejoin="round"/>
<path d="M300.929 428.159C300.929 428.159 322.519 428.286 335.245 421.899" stroke="white" stroke-width="1.3424" stroke-miterlimit="10" stroke-linecap="round" stroke-linejoin="round"/>
<path d="M279.023 436C279.023 436 282.505 445.802 290.546 450.86" stroke="white" stroke-width="1.3424" stroke-miterlimit="10" stroke-linecap="round" stroke-linejoin="round"/>
<path d="M297.51 503.471C297.51 503.471 284.721 513.652 267.31 512.514" stroke="white" stroke-width="1.3424" stroke-miterlimit="10" stroke-linecap="round" stroke-linejoin="round"/>
<path d="M252.938 499.424C252.938 499.424 252.874 511.818 263.827 523.39" stroke="white" stroke-width="1.3424" stroke-miterlimit="10" stroke-linecap="round" stroke-linejoin="round"/>
</g>
<path d="M507.141 258.565C471.939 258.818 439.839 259.071 410.461 259.324C406.916 221.447 406.916 183.632 410.461 145.755C439.776 146.008 471.875 146.198 507.141 146.514C503.089 183.885 503.089 221.194 507.141 258.565Z" fill="#E5EBFC"/>
<path d="M511.953 253.759C476.751 254.012 444.651 254.265 415.273 254.518C411.728 216.641 411.728 178.827 415.273 140.949C444.588 141.202 476.687 141.392 511.953 141.708C507.964 179.016 507.964 216.388 511.953 253.759Z" fill="#E5EBFC"/>
<path d="M449.526 154.671C440.282 154.608 431.228 154.545 422.428 154.481C422.491 153.722 422.554 152.964 422.618 152.205C431.418 152.268 440.409 152.331 449.716 152.395C449.653 153.153 449.589 153.912 449.526 154.671Z" fill="#737072"/>
<path d="M499.101 169.847C471.306 169.721 445.537 169.658 421.542 169.531C421.605 168.772 421.605 168.013 421.668 167.255C445.664 167.381 471.433 167.444 499.227 167.571C499.227 168.393 499.164 169.152 499.101 169.847Z" fill="#737072"/>
<path d="M498.53 184.771C470.736 184.707 444.967 184.644 421.035 184.644C421.035 183.885 421.098 183.126 421.098 182.368C445.094 182.431 470.862 182.494 498.657 182.557C498.594 183.253 498.594 184.012 498.53 184.771Z" fill="#737072"/>
<path d="M498.404 199.63C470.609 199.63 444.841 199.63 420.908 199.63C420.908 198.872 420.908 198.113 420.908 197.354C444.904 197.354 470.673 197.354 498.404 197.354C498.404 198.176 498.404 198.872 498.404 199.63Z" fill="#737072"/>
<path d="M498.657 214.491C470.862 214.554 445.094 214.617 421.098 214.68C421.098 213.921 421.035 213.163 421.035 212.404C445.03 212.341 470.799 212.277 498.53 212.277C498.594 213.036 498.657 213.795 498.657 214.491Z" fill="#737072"/>
<path d="M499.353 229.414C471.559 229.54 445.727 229.667 421.731 229.73C421.668 228.971 421.668 228.212 421.604 227.454C445.6 227.327 471.369 227.264 499.163 227.137C499.227 227.896 499.29 228.655 499.353 229.414Z" fill="#737072"/>
<path d="M500.43 244.337C472.572 244.527 446.74 244.653 422.744 244.843C422.681 244.084 422.618 243.325 422.554 242.567C446.55 242.44 472.382 242.25 500.24 242.124C500.303 242.82 500.366 243.578 500.43 244.337Z" fill="#737072"/>
<path d="M528.161 379.09C494.605 389.903 464.088 399.767 436.167 408.746C421.415 373.715 410.018 337.608 402.104 300.426C430.152 291.826 460.859 282.468 494.542 272.224C501.886 309.026 513.093 344.627 528.161 379.09Z" fill="#E5EBFC"/>
<path d="M531.327 373.019C497.771 383.832 467.253 393.697 439.332 402.676C424.58 367.644 413.184 331.537 405.27 294.356C433.317 285.756 464.024 276.397 497.707 266.153C505.052 302.955 516.258 338.556 531.327 373.019Z" fill="#E5EBFC"/>
<path d="M442.055 297.201C433.191 299.92 424.581 302.576 416.16 305.169C415.97 304.41 415.843 303.714 415.653 302.955C424.074 300.363 432.685 297.707 441.549 294.988C441.675 295.747 441.865 296.442 442.055 297.201Z" fill="#737072"/>
<path d="M493.909 296.885C467.38 305.105 442.751 312.757 419.832 319.839C419.642 319.08 419.452 318.384 419.262 317.626C442.182 310.543 466.811 302.892 493.402 294.672C493.529 295.43 493.719 296.126 493.909 296.885Z" fill="#737072"/>
<path d="M497.834 311.239C471.306 319.523 446.74 327.174 423.821 334.32C423.631 333.624 423.377 332.865 423.188 332.17C446.044 325.024 470.673 317.373 497.201 309.089C497.391 309.785 497.644 310.544 497.834 311.239Z" fill="#737072"/>
<path d="M502.14 325.467C475.675 333.814 451.046 341.528 428.19 348.674C427.936 347.978 427.746 347.219 427.493 346.524C450.349 339.378 474.915 331.664 501.443 323.317C501.697 324.075 501.886 324.771 502.14 325.467Z" fill="#737072"/>
<path d="M506.888 339.568C480.423 347.978 455.858 355.693 433.001 362.965C432.748 362.269 432.495 361.573 432.242 360.815C455.098 353.606 479.664 345.828 506.129 337.481C506.382 338.177 506.635 338.872 506.888 339.568Z" fill="#737072"/>
<path d="M512.017 353.606C485.552 362.016 460.923 369.857 438.066 377.192C437.813 376.497 437.56 375.801 437.307 375.042C460.163 367.77 484.728 359.929 511.257 351.519C511.447 352.215 511.7 352.91 512.017 353.606Z" fill="#737072"/>
<path d="M517.525 367.518C490.996 376.054 466.431 383.895 443.575 391.23C443.321 390.535 443.005 389.839 442.751 389.144C465.608 381.809 490.237 373.904 516.702 365.431C516.955 366.126 517.271 366.822 517.525 367.518Z" fill="#737072"/>
</g>
<defs>
<clipPath id="clip0_153_739">
<rect width="574" height="549" fill="white"/>
</clipPath>
</defs>
</svg>
