<?xml version="1.0" encoding="utf-8"?>
<!-- Generator: Adobe Illustrator 16.0.0, SVG Export Plug-In . SVG Version: 6.00 Build 0)  -->
<!DOCTYPE svg PUBLIC "-//W3C//DTD SVG 1.1//EN" "http://www.w3.org/Graphics/SVG/1.1/DTD/svg11.dtd">
<svg version="1.1" id="Layer_1" xmlns="http://www.w3.org/2000/svg" xmlns:xlink="http://www.w3.org/1999/xlink" x="0px" y="0px"
	 width="550px" height="550px" viewBox="0 0 550 550" enable-background="new 0 0 550 550" xml:space="preserve">
<path opacity="0.2" fill="#2F3694" d="M261.362,481.444L24.153,377.825l238.649-131.398c0,0,246.829,105.907,228.616,110.814
	C473.203,362.147,261.362,481.444,261.362,481.444z"/>
<g>
	<g>
		<g>
			<path fill="#2F3694" d="M90.274,164.548L295.885,46.764c3.694-2.116,8.49-3.126,12.639-2.169
				c5.825,1.343,11.291,3.177,11.278,8.278l0.311,191.112l-18.09,10.687c5.92,2.882,186.405,90.73,186.704,90.945l0.434,7.373
				c0,3.182-1.682,6.114-4.434,7.708c-30.724,17.794-210.694,121.835-210.694,121.835c-5.92,3.422-13.218,3.421-19.139-0.001
				l-171.055-98.87c-1.784-1.031-2.883-2.934-2.886-4.993l-0.297-197.573C80.673,174.256,84.34,167.947,90.274,164.548z"/>
			<g>
				<path fill="#97CBEE" d="M86.714,378.02l233.579-133.275l0.481-190.692c0.015-5.508-5.938-8.967-10.717-6.23L94.661,171.213
					c-4.69,2.687-7.588,7.672-7.602,13.077L86.714,378.02z"/>
				<g>
					<g>
						<polygon fill="#3A5DAB" points="283.276,152.772 283.469,152.847 283.678,152.557 283.697,159.363 283.295,159.595 						"/>
					</g>
					<g>
						<polygon fill="#3A5DAB" points="253.206,127.637 253.731,127.333 253.782,145.28 253.535,145.625 253.256,145.517 						"/>
					</g>
					<g>
						<polygon fill="#3165B0" points="151.558,283.657 151.564,285.744 118.143,305.04 118.137,302.953 						"/>
					</g>
					<g>
						<polygon fill="#3165B0" points="151.576,289.92 151.581,292.008 118.161,311.304 118.155,309.215 						"/>
					</g>
					<g enable-background="new    ">
						<g>
							<polygon fill="#3A5DAB" points="291.597,140.939 291.83,141.178 283.678,152.557 283.47,152.847 283.276,152.773 
								276.671,150.224 276.934,149.717 283.273,152.173 283.491,152.257 283.676,151.999 							"/>
						</g>
						<g>
							<polygon fill="#3A5DAB" points="283.231,137.165 283.425,137.239 283.633,136.949 283.676,151.999 283.491,152.257 
								283.273,152.173 							"/>
						</g>
						<g>
							<polygon fill="#3A5DAB" points="283.191,122.836 283.593,122.604 283.631,136.39 283.446,136.649 283.229,136.565 							"/>
						</g>
						<g>
							<path fill="#5BB59B" d="M294.967,136.234c2.339-0.016,3.253,3.015,2.535,6.313c-0.719,3.297-2.722,6.697-4.928,9.563
								c-2.623,3.404-5.801,6.239-8.915,8.038c-4.117,2.377-8.126,2.943-10.606,0.616c-1.262-1.182-2.018-3.323-1.659-5.807
								c0.174-0.557,0.323-1.115,0.445-1.669c0.022-0.098,0.042-0.195,0.06-0.292c0.083-0.225,0.176-0.451,0.278-0.678
								c0.715-1.596,1.85-3.105,2.341-4.723c0.967-3.174-0.966-4.791-2.542-6.087s-2.831-4.132-0.95-7.068
								c1.11-1.735,2.866-2.606,3.976-4.351c1.857-2.914,0.626-5.656,0.874-8.601c0.348-4.237,3.368-7.784,6.642-9.674
								c4.187-2.417,8.789-2.121,8.733,2.915c-0.012,1.181-0.272,2.567,0.118,3.438c0.545,1.224,2.108,0.936,3.271,1.252
								c2.736,0.779,2.96,5.961,0.432,10.046c-1.334,2.158-3.485,4.931-2.715,6.364
								C292.808,136.671,294.022,136.237,294.967,136.234z M291.597,140.939l-7.921,11.06l-0.043-15.049l8.152-11.379l-0.231-0.239
								l-7.923,11.06l-0.038-13.787l-0.401,0.232l0.037,13.729l-6.34-2.447l-0.263,0.498l6.605,2.55l0.042,15.008l-6.342-2.456
								l-0.261,0.507l6.605,2.549l0.019,6.823l0.402-0.232l-0.02-6.806l8.152-11.379L291.597,140.939"/>
						</g>
						<g>
							<polygon fill="#3A5DAB" points="264.152,151.196 264.455,151.511 253.842,166.326 253.564,166.714 253.316,166.618 
								244.719,163.288 245.058,162.638 253.314,165.833 253.593,165.941 253.84,165.596 							"/>
						</g>
						<g>
							<path fill="#5BB59B" d="M268.533,145.081c2.981-0.017,4.184,3.746,3.366,7.916c-0.019,0.097-0.038,0.194-0.06,0.292
								c-0.122,0.555-0.271,1.112-0.445,1.669c-1.173,3.759-3.471,7.532-5.97,10.781c-3.415,4.434-7.553,8.128-11.612,10.471
								c-5.358,3.094-10.579,3.833-13.809,0.807c-0.046-0.044-0.092-0.089-0.138-0.135c-1.347-1.357-2.214-3.579-2.126-6.193
								c0.049-1.462,0.396-3.047,1.125-4.672c0.939-2.081,2.413-4.044,3.049-6.138c1.258-4.143-1.256-6.25-3.306-7.933
								c-2.049-1.691-3.686-5.382-1.242-9.195c1.457-2.265,3.738-3.404,5.18-5.668c0.353-0.555,0.62-1.106,0.82-1.653
								c1.167-3.192,0.049-6.271,0.317-9.548c0.343-4.14,2.644-7.773,5.573-10.37c0.974-0.863,2.016-1.61,3.079-2.224
								c5.45-3.146,11.436-2.762,11.363,3.796c-0.019,1.541-0.354,3.346,0.152,4.468c0.709,1.602,2.753,1.214,4.256,1.645
								c3.565,1.002,3.855,7.749,0.564,13.066c-1.743,2.812-4.536,6.427-3.531,8.294
								C265.724,145.653,267.302,145.088,268.533,145.081z M264.152,151.196l-10.312,14.4l-0.056-19.586l10.613-14.815l-0.303-0.315
								l-10.312,14.4l-0.051-17.947l-0.525,0.304l0.05,17.879l-8.255-3.194l-0.34,0.649l8.597,3.331l0.056,19.531l-8.256-3.195
								l-0.339,0.65l8.597,3.33l0.025,8.874l0.525-0.303l-0.025-8.862l10.613-14.815L264.152,151.196"/>
						</g>
						<g>
							<polygon fill="#3A5DAB" points="253.316,166.618 253.564,166.714 253.842,166.326 253.867,175.188 253.341,175.491 							
								"/>
						</g>
						<g>
							<polygon fill="#3A5DAB" points="253.258,146.302 253.507,146.398 253.784,146.01 253.84,165.596 253.593,165.941 
								253.314,165.833 							"/>
						</g>
						<g>
							<polygon fill="#3A5DAB" points="235.726,162.305 235.905,162.486 229.665,171.194 229.511,171.41 229.364,171.353 
								224.317,169.408 224.51,169.021 229.362,170.902 229.525,170.966 229.664,170.772 							"/>
						</g>
						<g>
							<polygon fill="#3A5DAB" points="229.364,171.353 229.511,171.41 229.665,171.194 229.698,182.702 229.559,182.896 
								229.396,182.833 							"/>
						</g>
						<g>
							<polygon fill="#3A5DAB" points="235.76,174.235 235.939,174.417 229.699,183.133 229.545,183.349 229.397,183.292 
								224.351,181.338 224.543,180.951 229.396,182.833 229.559,182.896 229.698,182.702 							"/>
						</g>
						<g>
							<path fill="#5BB59B" d="M237.739,170.689c-0.087,2.614,0.779,4.836,2.126,6.193c-0.721,2.063-1.987,4.114-3.362,5.892
								c-2.005,2.604-4.436,4.773-6.82,6.15c-3.146,1.816-6.211,2.25-8.106,0.474c-1.289-1.213-1.892-3.739-0.669-6.456
								c0.547-1.223,1.418-2.376,1.787-3.612c0.744-2.431-0.731-3.671-1.941-4.654c-1.203-0.996-2.162-3.156-0.728-5.399
								c0.856-1.331,2.193-1.996,3.042-3.331c1.418-2.225,0.483-4.327,0.67-6.58c0.266-3.237,2.575-5.949,5.078-7.394
								c3.201-1.849,6.719-1.623,6.678,2.226c-0.013,0.907-0.211,1.964,0.084,2.629c0.421,0.932,1.621,0.711,2.504,0.966
								c2.093,0.589,2.259,4.55,0.332,7.674c-1.025,1.651-2.669,3.774-2.077,4.865C236.59,170.812,237.163,170.756,237.739,170.689z
								 M235.76,174.235l-6.062,8.467l-0.033-11.507l6.24-8.708l-0.179-0.182l-6.063,8.467l-0.03-10.546l-0.301,0.174l0.029,10.503
								l-4.852-1.881l-0.193,0.387l5.047,1.945l0.032,11.48l-4.852-1.882l-0.193,0.387l5.047,1.954l0.015,5.205l0.302-0.174
								l-0.015-5.19l6.24-8.717L235.76,174.235"/>
						</g>
						<g>
							<polygon fill="#3A5DAB" points="229.397,183.292 229.545,183.349 229.699,183.133 229.714,188.323 229.412,188.497 							
								"/>
						</g>
						<g>
							<polygon fill="#3A5DAB" points="264.095,130.88 264.397,131.195 253.784,146.01 253.507,146.397 253.258,146.302 
								244.661,142.971 245.001,142.322 253.256,145.517 253.536,145.625 253.782,145.28 							"/>
						</g>
						<g>
							<path fill="#F9FBFC" d="M248.867,115.728c0.131-0.075,0.261-0.147,0.39-0.215c-2.929,2.596-5.23,6.23-5.573,10.37
								c-0.269,3.277,0.85,6.356-0.317,9.548c-1.665-0.777-2.714-2.678-2.722-5.462C240.63,124.736,244.313,118.356,248.867,115.728
								z"/>
						</g>
						<g>
							<path fill="#F9FBFC" d="M311.998,60.709L97.003,184.836l0.269,94.9l214.995-124.127L311.998,60.709z M110.421,219.835
								l-0.019-6.814l100.315-57.917l0.019,6.813L110.421,219.835 M110.696,205.056l-0.019-6.804l100.315-57.917l0.019,6.805
								L110.696,205.056 M297.502,142.548c-0.719,3.297-2.723,6.697-4.928,9.563c-2.623,3.404-5.801,6.239-8.915,8.038
								c-4.117,2.377-8.127,2.943-10.606,0.616c-1.262-1.182-2.018-3.323-1.659-5.807c-1.173,3.759-3.471,7.533-5.97,10.781
								c-3.416,4.434-7.553,8.128-11.612,10.471c-5.359,3.094-10.579,3.833-13.809,0.807c-0.046-0.044-0.092-0.089-0.138-0.135
								c-0.721,2.063-1.987,4.114-3.362,5.892c-2.005,2.604-4.436,4.773-6.82,6.15c-3.146,1.816-6.211,2.251-8.105,0.475
								c-1.289-1.214-1.892-3.74-0.669-6.457c0.546-1.223,1.418-2.375,1.787-3.612c0.744-2.431-0.731-3.671-1.941-4.654
								c-1.203-0.996-2.162-3.156-0.728-5.399c0.855-1.331,2.193-1.996,3.042-3.331c1.419-2.225,0.483-4.327,0.671-6.58
								c0.266-3.237,2.575-5.949,5.078-7.393c3.201-1.849,6.719-1.624,6.678,2.225c-0.013,0.907-0.211,1.964,0.084,2.63
								c0.421,0.931,1.621,0.711,2.504,0.966c2.093,0.589,2.259,4.55,0.332,7.674c-1.025,1.651-2.669,3.774-2.077,4.865
								c0.253,0.479,0.826,0.422,1.402,0.356c0.048-1.462,0.396-3.047,1.125-4.671c0.939-2.082,2.413-4.044,3.049-6.138
								c1.258-4.143-1.257-6.25-3.306-7.933c-2.049-1.69-3.686-5.382-1.242-9.195c1.458-2.264,3.738-3.404,5.18-5.668
								c0.353-0.555,0.62-1.106,0.82-1.653c-1.665-0.777-2.714-2.678-2.722-5.462c-0.015-5.232,3.668-11.612,8.222-14.24
								c0.131-0.076,0.261-0.147,0.391-0.215c0.973-0.863,2.016-1.61,3.079-2.224c5.45-3.146,11.436-2.761,11.363,3.797
								c-0.019,1.542-0.355,3.345,0.152,4.467c0.709,1.602,2.752,1.214,4.256,1.645c3.565,1.002,3.854,7.749,0.563,13.066
								c-1.742,2.812-4.535,6.427-3.53,8.294c0.583,1.096,2.161,0.532,3.392,0.523c2.982-0.017,4.185,3.746,3.367,7.916
								c0.083-0.225,0.176-0.451,0.278-0.678c0.715-1.596,1.85-3.105,2.341-4.723c0.967-3.174-0.966-4.791-2.542-6.087
								c-1.576-1.297-2.831-4.132-0.95-7.069c1.11-1.735,2.866-2.606,3.976-4.35c1.857-2.915,0.626-5.657,0.874-8.602
								c0.348-4.237,3.368-7.784,6.64-9.674c4.188-2.417,8.79-2.121,8.735,2.915c-0.013,1.181-0.272,2.568,0.117,3.438
								c0.546,1.224,2.109,0.936,3.271,1.252c2.736,0.779,2.96,5.961,0.432,10.046c-1.334,2.158-3.485,4.931-2.716,6.364
								c0.451,0.843,1.666,0.409,2.61,0.406C297.306,136.219,298.22,139.25,297.502,142.548"/>
						</g>
						<g>
							<polygon fill="#3A5DAB" points="291.554,125.331 291.785,125.57 283.633,136.949 283.425,137.239 283.231,137.165 
								276.626,134.615 276.889,134.118 283.229,136.565 283.446,136.649 283.631,136.39 							"/>
						</g>
						<g>
							<polygon fill="#3165B0" points="220.581,250.08 220.587,252.167 187.174,271.458 187.168,269.371 							"/>
						</g>
						<g>
							<polygon fill="#3165B0" points="220.563,243.817 220.569,245.905 187.157,265.195 187.151,263.107 							"/>
						</g>
						<g>
							<path fill="#3165B0" d="M97.272,279.736l214.994-124.127l0.223,78.289L97.494,358.025L97.272,279.736z M228.103,262.038
								l-0.133-47.162l-48.364,27.923l0.133,47.162L228.103,262.038 M159.09,301.883l-0.134-47.162l-48.357,27.918l0.134,47.161
								L159.09,301.883"/>
						</g>
						<g>
							<path fill="#3165B0" d="M203.808,236.122c3.208-1.852,5.822-0.363,5.833,3.324c0.011,3.686-2.586,8.184-5.794,10.037
								c-3.208,1.852-5.822,0.362-5.833-3.324C198.002,242.472,200.6,237.975,203.808,236.122z"/>
						</g>
						<g>
							<polygon fill="#3A5DAB" points="229.333,160.399 229.634,160.226 229.664,170.772 229.525,170.966 229.362,170.902 							
								"/>
						</g>
						<g>
							<path fill="#F9FBFC" d="M179.605,242.799l48.364-27.923l0.133,47.162l-48.364,27.923L179.605,242.799z M203.808,236.122
								c-3.208,1.853-5.805,6.35-5.794,10.037c0.01,3.686,2.625,5.175,5.833,3.324c3.208-1.853,5.805-6.351,5.794-10.037
								C209.629,235.759,207.016,234.27,203.808,236.122 M220.569,245.905l-0.006-2.088l-33.413,19.291l0.005,2.088L220.569,245.905
								 M220.587,252.167l-0.006-2.087l-33.413,19.291l0.006,2.087L220.587,252.167"/>
						</g>
						<g>
							<path fill="#3165B0" d="M134.794,275.967c3.216-1.856,5.822-0.363,5.833,3.324c0.01,3.687-2.579,8.18-5.794,10.036
								c-3.208,1.854-5.815,0.358-5.825-3.327C128.997,282.313,131.586,277.819,134.794,275.967z"/>
						</g>
						<g>
							<path fill="#F9FBFC" d="M110.599,282.64l48.357-27.918l0.134,47.162l-48.356,27.918L110.599,282.64z M134.794,275.967
								c-3.208,1.853-5.797,6.346-5.786,10.033c0.01,3.686,2.616,5.181,5.825,3.327c3.216-1.856,5.805-6.35,5.794-10.036
								C140.617,275.604,138.01,274.11,134.794,275.967 M151.564,285.744l-0.006-2.087l-33.421,19.296l0.006,2.087L151.564,285.744
								 M151.581,292.008l-0.006-2.088l-33.42,19.295l0.006,2.089L151.581,292.008"/>
						</g>
						<g>
							<polygon fill="#3165B0" points="210.717,155.104 210.737,161.917 110.421,219.835 110.402,213.021 							"/>
						</g>
						<g>
							<polygon fill="#3165B0" points="210.993,140.334 211.012,147.139 110.697,205.056 110.678,198.252 							"/>
						</g>
					</g>
				</g>
			</g>
			<g>
				<path fill="#FEF9FB" d="M86.847,378.002l233.457-134.634l165.102,95.422c4.769,2.756,4.769,9.64,0,12.396L270.476,475.39
					c-4.679,2.705-10.446,2.705-15.126,0L86.847,378.002z"/>
			</g>
			<g>
				<g>
					<path fill="#97CBEE" d="M151.461,382.144c-4.649,2.671-6.974,4.006-11.623,6.676c-4.701-2.657-7.051-3.986-11.752-6.644
						c4.649-2.67,6.974-4.005,11.624-6.675C144.411,378.158,146.761,379.487,151.461,382.144z"/>
					<path fill="#97CBEE" d="M168.618,372.293c-4.649,2.67-6.975,4.004-11.623,6.674c-4.701-2.657-7.052-3.986-11.752-6.644
						c4.649-2.669,6.974-4.004,11.624-6.674C161.567,368.307,163.917,369.635,168.618,372.293z"/>
					<path fill="#97CBEE" d="M185.775,362.44c-4.649,2.669-6.974,4.004-11.624,6.675c-4.701-2.658-7.051-3.985-11.752-6.644
						c4.649-2.669,6.975-4.004,11.625-6.674C178.725,358.454,181.075,359.782,185.775,362.44z"/>
					<path fill="#97CBEE" d="M202.934,352.587c-4.65,2.67-6.975,4.005-11.625,6.675c-4.701-2.656-7.051-3.984-11.751-6.642
						c4.65-2.671,6.975-4.006,11.625-6.676C195.883,348.601,198.233,349.93,202.934,352.587z"/>
					<path fill="#97CBEE" d="M220.092,342.734c-4.65,2.67-6.975,4.005-11.625,6.676c-4.701-2.657-7.051-3.986-11.751-6.644
						c4.65-2.67,6.975-4.005,11.624-6.675C213.041,338.749,215.391,340.078,220.092,342.734z"/>
					<path fill="#97CBEE" d="M237.25,332.881c-4.65,2.67-6.975,4.006-11.625,6.676c-4.701-2.657-7.051-3.985-11.751-6.643
						c4.65-2.671,6.975-4.006,11.625-6.676C230.199,328.896,232.549,330.225,237.25,332.881z"/>
					<path fill="#97CBEE" d="M254.408,323.029c-4.65,2.67-6.975,4.005-11.625,6.675c-4.7-2.657-7.051-3.986-11.751-6.644
						c4.65-2.67,6.975-4.005,11.625-6.675C247.357,319.043,249.708,320.371,254.408,323.029z"/>
					<path fill="#97CBEE" d="M271.566,313.176c-4.649,2.67-6.975,4.005-11.624,6.675c-4.701-2.657-7.051-3.985-11.752-6.643
						c4.65-2.671,6.976-4.006,11.625-6.676C264.516,309.189,266.866,310.519,271.566,313.176z"/>
					<path fill="#97CBEE" d="M288.725,303.323c-4.649,2.67-6.974,4.005-11.623,6.675c-4.702-2.657-7.052-3.986-11.753-6.644
						c4.65-2.67,6.976-4.005,11.625-6.675C281.674,299.337,284.023,300.666,288.725,303.323z"/>
					<path fill="#97CBEE" d="M305.883,293.471c-4.649,2.67-6.975,4.005-11.624,6.675c-4.701-2.657-7.051-3.986-11.751-6.643
						c4.649-2.67,6.974-4.005,11.623-6.676C298.831,289.484,301.183,290.813,305.883,293.471z"/>
					<path fill="#97CBEE" d="M323.04,283.618c-4.649,2.67-6.974,4.005-11.624,6.675c-4.701-2.658-7.052-3.985-11.752-6.643
						c4.649-2.67,6.976-4.005,11.623-6.675C315.989,279.632,318.339,280.961,323.04,283.618z"/>
					<path fill="#97CBEE" d="M340.195,273.767c-4.649,2.668-6.975,4.004-11.622,6.674c-4.702-2.657-7.052-3.986-11.752-6.644
						c4.648-2.67,6.974-4.005,11.623-6.675C333.145,269.781,335.495,271.109,340.195,273.767z"/>
					<path fill="#97CBEE" d="M167.957,391.469c-4.649,2.67-6.974,4.005-11.624,6.674c-4.701-2.657-7.051-3.986-11.752-6.643
						c4.649-2.67,6.974-4.005,11.624-6.676C160.904,387.482,163.255,388.811,167.957,391.469z"/>
					<path fill="#97CBEE" d="M185.113,381.616c-4.649,2.671-6.974,4.006-11.624,6.676c-4.701-2.658-7.052-3.986-11.752-6.645
						c4.649-2.67,6.974-4.005,11.624-6.675C178.061,377.631,180.412,378.96,185.113,381.616z"/>
					<path fill="#97CBEE" d="M202.271,371.765c-4.649,2.67-6.974,4.005-11.625,6.675c-4.701-2.658-7.051-3.986-11.752-6.645
						c4.649-2.67,6.975-4.005,11.625-6.674C195.219,367.778,197.569,369.107,202.271,371.765z"/>
					<path fill="#97CBEE" d="M219.429,361.912c-4.65,2.67-6.975,4.005-11.625,6.675c-4.701-2.658-7.052-3.986-11.752-6.645
						c4.649-2.67,6.974-4.005,11.625-6.675C212.377,357.925,214.727,359.254,219.429,361.912z"/>
					<path fill="#97CBEE" d="M236.586,352.059c-4.649,2.67-6.975,4.005-11.625,6.675c-4.701-2.657-7.052-3.986-11.753-6.643
						c4.65-2.671,6.975-4.006,11.625-6.676C229.535,348.072,231.885,349.401,236.586,352.059z"/>
					<path fill="#97CBEE" d="M253.745,342.206c-4.65,2.67-6.975,4.005-11.625,6.675c-4.701-2.656-7.052-3.985-11.752-6.643
						c4.65-2.672,6.975-4.007,11.625-6.677C246.693,338.219,249.043,339.548,253.745,342.206z"/>
					<path fill="#97CBEE" d="M270.903,332.353c-4.65,2.67-6.975,4.005-11.625,6.677c-4.701-2.658-7.052-3.987-11.752-6.645
						c4.649-2.67,6.975-4.005,11.625-6.675C263.852,328.366,266.202,329.695,270.903,332.353z"/>
					<path fill="#97CBEE" d="M288.062,322.5c-4.649,2.67-6.976,4.005-11.625,6.676c-4.701-2.657-7.051-3.986-11.752-6.645
						c4.65-2.67,6.975-4.005,11.625-6.675C281.011,318.515,283.361,319.842,288.062,322.5z"/>
					<path fill="#97CBEE" d="M305.219,312.646c-4.649,2.672-6.974,4.005-11.623,6.676c-4.702-2.657-7.053-3.986-11.753-6.644
						c4.649-2.67,6.975-4.005,11.624-6.675C298.168,308.661,300.519,309.99,305.219,312.646z"/>
					<path fill="#97CBEE" d="M322.377,302.795c-4.649,2.67-6.975,4.005-11.624,6.675c-4.701-2.657-7.052-3.986-11.752-6.644
						c4.649-2.67,6.974-4.005,11.623-6.675C315.326,298.809,317.677,300.138,322.377,302.795z"/>
					<path fill="#97CBEE" d="M339.534,292.942c-4.649,2.67-6.974,4.005-11.623,6.675c-4.702-2.657-7.053-3.986-11.753-6.644
						c4.649-2.67,6.975-4.005,11.624-6.675C332.482,288.956,334.833,290.285,339.534,292.942z"/>
					<path fill="#97CBEE" d="M356.69,283.091c-7.796,4.476-11.693,6.714-19.488,11.191c-4.701-2.658-7.052-3.987-11.752-6.645
						c7.795-4.477,11.692-6.714,19.488-11.191C349.639,279.104,351.989,280.433,356.69,283.091z"/>
					<path fill="#97CBEE" d="M192.131,396.383c-7.722,4.435-11.582,6.65-19.303,11.085c-4.702-2.657-7.052-3.986-11.753-6.644
						c7.721-4.434,11.582-6.651,19.303-11.084C185.079,392.397,187.43,393.727,192.131,396.383z"/>
					<path fill="#97CBEE" d="M201.607,390.941c-4.648,2.67-6.973,4.005-11.623,6.674c-4.701-2.657-7.052-3.986-11.753-6.643
						c4.649-2.67,6.974-4.005,11.624-6.676C194.557,386.954,196.907,388.283,201.607,390.941z"/>
					<path fill="#97CBEE" d="M218.765,381.089c-4.649,2.671-6.974,4.006-11.624,6.676c-4.702-2.658-7.052-3.987-11.753-6.645
						c4.649-2.67,6.975-4.005,11.624-6.675C211.714,377.104,214.064,378.431,218.765,381.089z"/>
					<path fill="#97CBEE" d="M235.923,371.235c-4.65,2.672-6.975,4.006-11.625,6.676c-4.701-2.657-7.052-3.986-11.753-6.644
						c4.65-2.67,6.975-4.005,11.625-6.675C228.872,367.25,231.223,368.579,235.923,371.235z"/>
					<path fill="#97CBEE" d="M253.082,361.384c-4.65,2.67-6.975,4.005-11.625,6.675c-4.701-2.657-7.052-3.986-11.753-6.645
						c4.65-2.669,6.975-4.005,11.625-6.675C246.03,357.397,248.38,358.726,253.082,361.384z"/>
					<path fill="#97CBEE" d="M270.24,351.53c-4.649,2.67-6.975,4.006-11.625,6.676c-4.701-2.658-7.052-3.986-11.753-6.645
						c4.65-2.67,6.975-4.005,11.625-6.675C263.188,347.544,265.539,348.873,270.24,351.53z"/>
					<path fill="#97CBEE" d="M287.398,341.678c-4.649,2.67-6.975,4.005-11.625,6.675c-4.701-2.657-7.051-3.986-11.753-6.643
						c4.65-2.672,6.975-4.007,11.625-6.677C280.346,337.691,282.696,339.02,287.398,341.678z"/>
					<path fill="#97CBEE" d="M304.557,331.824c-4.65,2.67-6.975,4.005-11.625,6.675c-4.701-2.657-7.052-3.986-11.752-6.643
						c4.649-2.671,6.974-4.006,11.625-6.676C297.505,327.838,299.855,329.167,304.557,331.824z"/>
					<path fill="#97CBEE" d="M321.715,321.972c-4.649,2.67-6.975,4.005-11.625,6.675c-4.7-2.656-7.051-3.985-11.753-6.643
						c4.649-2.67,6.976-4.007,11.625-6.677C314.663,317.985,317.013,319.314,321.715,321.972z"/>
					<path fill="#97CBEE" d="M338.872,312.119c-4.649,2.67-6.974,4.005-11.624,6.676c-4.701-2.658-7.052-3.986-11.753-6.645
						c4.65-2.67,6.975-4.005,11.624-6.675C331.82,308.133,334.171,309.461,338.872,312.119z"/>
					<path fill="#97CBEE" d="M356.03,302.268c-4.65,2.67-6.975,4.005-11.624,6.675c-4.701-2.658-7.053-3.986-11.754-6.645
						c4.649-2.67,6.975-4.005,11.624-6.675C348.978,298.281,351.328,299.61,356.03,302.268z"/>
					<path fill="#97CBEE" d="M373.186,292.415c-4.65,2.67-6.974,4.005-11.623,6.675c-4.701-2.657-7.052-3.986-11.754-6.645
						c4.649-2.669,6.975-4.004,11.624-6.674C366.134,288.429,368.484,289.758,373.186,292.415z"/>
					<path fill="#97CBEE" d="M200.946,410.117c-4.649,2.671-6.974,4.006-11.623,6.676c-4.701-2.658-7.052-3.987-11.753-6.645
						c4.649-2.67,6.974-4.005,11.624-6.674C193.895,406.132,196.245,407.461,200.946,410.117z"/>
					<path fill="#97CBEE" d="M218.103,400.266c-4.649,2.67-6.974,4.005-11.624,6.675c-4.701-2.657-7.052-3.986-11.752-6.644
						c4.649-2.67,6.974-4.005,11.624-6.675C211.051,396.279,213.402,397.608,218.103,400.266z"/>
					<path fill="#97CBEE" d="M235.261,390.413c-4.649,2.67-6.975,4.005-11.624,6.675c-4.701-2.657-7.052-3.986-11.753-6.643
						c4.649-2.67,6.974-4.006,11.625-6.676C228.209,386.427,230.56,387.756,235.261,390.413z"/>
					<path fill="#97CBEE" d="M252.418,380.561c-4.649,2.67-6.975,4.005-11.625,6.675c-4.701-2.656-7.052-3.985-11.752-6.643
						c4.649-2.671,6.975-4.005,11.625-6.675C245.367,376.574,247.718,377.903,252.418,380.561z"/>
					<path fill="#97CBEE" d="M269.577,370.708c-4.65,2.67-6.975,4.005-11.625,6.676c-4.701-2.658-7.051-3.986-11.752-6.645
						c4.649-2.67,6.974-4.005,11.625-6.675C262.525,366.721,264.875,368.05,269.577,370.708z"/>
					<path fill="#97CBEE" d="M286.734,360.854c-4.649,2.67-6.974,4.005-11.624,6.676c-4.701-2.657-7.051-3.986-11.752-6.644
						c4.649-2.67,6.975-4.005,11.625-6.675C279.684,356.869,282.034,358.198,286.734,360.854z"/>
					<path fill="#97CBEE" d="M303.894,351.003c-4.649,2.67-6.976,4.005-11.625,6.675c-4.7-2.658-7.051-3.986-11.752-6.645
						c4.649-2.67,6.974-4.005,11.624-6.675C296.843,347.016,299.192,348.345,303.894,351.003z"/>
					<path fill="#97CBEE" d="M321.053,341.149c-4.651,2.67-6.976,4.005-11.625,6.675c-4.702-2.657-7.053-3.986-11.753-6.644
						c4.649-2.67,6.975-4.005,11.625-6.675C314,337.163,316.351,338.492,321.053,341.149z"/>
					<path fill="#97CBEE" d="M338.21,331.297c-4.649,2.67-6.976,4.005-11.625,6.675c-4.7-2.658-7.051-3.986-11.752-6.645
						c4.649-2.67,6.975-4.005,11.624-6.675C331.159,327.311,333.509,328.639,338.21,331.297z"/>
					<path fill="#97CBEE" d="M355.367,321.444c-4.649,2.67-6.974,4.004-11.624,6.674c-4.701-2.657-7.052-3.986-11.753-6.644
						c4.65-2.67,6.976-4.005,11.625-6.675C348.315,317.458,350.666,318.786,355.367,321.444z"/>
					<path fill="#97CBEE" d="M379.937,307.335c-7.613,4.373-11.421,6.56-19.036,10.931c-4.7-2.656-7.051-3.986-11.753-6.643
						c7.615-4.373,11.422-6.56,19.037-10.933C372.885,303.349,375.235,304.678,379.937,307.335z"/>
					<path fill="#97CBEE" d="M389.681,301.739c-4.649,2.671-6.975,4.006-11.624,6.676c-4.7-2.657-7.051-3.986-11.752-6.645
						c4.649-2.67,6.974-4.004,11.623-6.674C382.63,297.754,384.979,299.083,389.681,301.739z"/>
					<path fill="#97CBEE" d="M219.721,420.73c-4.649,2.67-6.974,4.005-11.623,6.675c-4.7-2.657-7.051-3.986-11.752-6.643
						c4.649-2.671,6.974-4.006,11.624-6.676C212.67,416.745,215.021,418.073,219.721,420.73z"/>
					<path fill="#97CBEE" d="M236.878,410.879c-4.65,2.669-6.975,4.005-11.624,6.674c-4.701-2.656-7.051-3.984-11.752-6.643
						c4.649-2.669,6.975-4.004,11.624-6.674C229.827,406.894,232.177,408.223,236.878,410.879z"/>
					<path fill="#97CBEE" d="M254.035,401.025c-4.649,2.672-6.974,4.007-11.624,6.676c-4.7-2.657-7.051-3.985-11.752-6.643
						c4.649-2.67,6.975-4.006,11.624-6.675C246.984,397.041,249.334,398.369,254.035,401.025z"/>
					<path fill="#97CBEE" d="M356.984,341.909c-32.472,18.646-64.943,37.293-97.416,55.939c-4.701-2.657-7.051-3.985-11.752-6.644
						c32.472-18.646,64.944-37.293,97.416-55.938C349.933,337.923,352.284,339.252,356.984,341.909z"/>
					<path fill="#97CBEE" d="M374.142,332.057c-4.649,2.67-6.974,4.006-11.624,6.676c-4.7-2.657-7.051-3.986-11.752-6.644
						c4.65-2.67,6.976-4.005,11.625-6.675C367.091,328.071,369.441,329.4,374.142,332.057z"/>
					<path fill="#97CBEE" d="M391.298,322.205c-4.648,2.67-6.973,4.005-11.622,6.675c-4.701-2.657-7.051-3.986-11.753-6.644
						c4.649-2.67,6.975-4.005,11.624-6.675C384.248,318.219,386.598,319.548,391.298,322.205z"/>
					<path fill="#97CBEE" d="M408.454,312.354c-4.649,2.669-6.973,4.004-11.622,6.674c-4.7-2.657-7.051-3.986-11.751-6.643
						c4.649-2.671,6.973-4.006,11.622-6.675C401.404,308.367,403.754,309.696,408.454,312.354z"/>
				</g>
			</g>
			<polygon fill="#97CBEE" points="277.385,402.633 357.489,356.385 403.264,384.585 323.188,430.85 			"/>
		</g>
		<path opacity="0.2" fill="#FEF9FB" d="M310.058,47.822L94.661,171.213c-4.69,2.687-7.588,7.672-7.602,13.077L86.714,378.02
			l7.026-4.01C135.628,312.105,293.457,78.766,314.154,46.9C312.799,46.794,311.385,47.062,310.058,47.822z"/>
	</g>
</g>
<g>
	<g enable-background="new    ">
		<g>
			<path fill="#CD912A" d="M170.213,207.915l2.56,1.488c-1.275-0.742-3.042-0.636-4.993,0.491l-2.561-1.488
				C167.17,207.28,168.938,207.174,170.213,207.915z"/>
		</g>
		<g>
			<polygon fill="#FABC25" points="160.633,223.79 158.073,222.302 158.063,218.891 160.624,220.379 			"/>
		</g>
		<g>
			<polygon fill="#FABC25" points="140.317,235.521 137.757,234.032 158.073,222.302 160.633,223.79 			"/>
		</g>
		<g>
			<polygon fill="#F9FBFC" points="140.307,232.109 137.747,230.621 158.064,218.891 160.624,220.379 			"/>
		</g>
		<g>
			<polygon fill="#F9FBFC" points="140.317,235.521 137.757,234.032 137.747,230.621 140.307,232.109 			"/>
		</g>
		<g>
			<path fill="#CD912A" d="M128.18,246.5l-2.561-1.488c-1.259-0.731-2.04-2.287-2.045-4.499c-0.013-4.451,3.116-9.861,6.981-12.093
				l2.56,1.488c-3.865,2.231-6.994,7.642-6.981,12.092C126.14,244.212,126.92,245.768,128.18,246.5z"/>
		</g>
		<g>
			<path fill="#FABC25" d="M167.78,209.895c3.873-2.237,7.022-0.451,7.034,4c0.013,4.451-3.116,9.87-6.989,12.105l-34.665,20.014
				c-3.866,2.232-7.015,0.438-7.027-4.014c-0.013-4.45,3.116-9.86,6.981-12.092L167.78,209.895z M160.633,223.79l-0.009-3.411
				l-20.317,11.73l0.01,3.412L160.633,223.79"/>
		</g>
		<g>
			<polygon fill="#F9FBFC" points="160.624,220.379 160.633,223.79 140.317,235.521 140.307,232.109 			"/>
		</g>
		<g>
			<polygon fill="#CD912A" points="133.115,229.908 130.555,228.42 165.22,208.406 167.78,209.895 			"/>
		</g>
	</g>
</g>
<g>
	<g enable-background="new    ">
		<g>
			<polygon fill="#F9FBFC" points="294.563,218.182 292.003,216.301 291.997,214.212 294.558,216.094 			"/>
		</g>
		<g>
			<polygon fill="#F9FBFC" points="261.125,226.07 258.565,224.188 291.985,210.035 294.546,211.917 			"/>
		</g>
		<g>
			<polygon fill="#3165B0" points="261.12,223.982 258.559,222.101 291.979,207.947 294.54,209.828 			"/>
		</g>
		<g>
			<polygon fill="#F9FBFC" points="294.546,211.917 291.985,210.035 291.979,207.947 294.54,209.828 			"/>
		</g>
		<g>
			<path fill="#F9FBFC" d="M281.048,201.898c-0.004-1.831-0.65-3.218-1.69-3.983l2.559,1.881c1.043,0.767,1.688,2.153,1.693,3.984
				c0.01,3.689-2.579,7.784-5.795,9.145c-1.613,0.684-3.073,0.544-4.129-0.231l-2.56-1.882c1.056,0.776,2.516,0.915,4.129,0.232
				C278.471,209.682,281.059,205.587,281.048,201.898z"/>
		</g>
		<g>
			<polygon fill="#F9FBFC" points="261.143,232.336 258.583,230.454 292.003,216.301 294.563,218.182 			"/>
		</g>
		<g>
			<polygon fill="#3165B0" points="294.558,216.094 294.563,218.182 261.143,232.336 261.137,230.248 			"/>
		</g>
		<g>
			<polygon fill="#3165B0" points="261.137,230.248 258.577,228.366 291.998,214.212 294.558,216.094 			"/>
		</g>
		<g>
			<polygon fill="#3165B0" points="261.143,232.336 258.583,230.454 258.577,228.366 261.137,230.248 			"/>
		</g>
		<g>
			<path fill="#3165B0" d="M279.357,197.915l2.559,1.881c-1.056-0.776-2.521-0.914-4.14-0.228l-2.56-1.882
				C276.836,197,278.3,197.138,279.357,197.915z"/>
		</g>
		<g>
			<polygon fill="#3165B0" points="294.54,209.828 294.546,211.917 261.125,226.07 261.12,223.982 			"/>
		</g>
		<g>
			<polygon fill="#3165B0" points="261.125,226.07 258.565,224.188 258.559,222.101 261.12,223.982 			"/>
		</g>
		<g>
			<path fill="#3165B0" d="M273.686,212.694l-2.56-1.882c-1.044-0.768-1.691-2.159-1.697-3.993c-0.01-3.688,2.579-7.775,5.787-9.133
				l2.56,1.882c-3.208,1.359-5.797,5.445-5.787,9.133C271.995,210.535,272.642,211.926,273.686,212.694z"/>
		</g>
		<g>
			<path fill="#3165B0" d="M277.776,199.568c3.217-1.362,5.822,0.524,5.833,4.212c0.01,3.688-2.579,7.783-5.795,9.146
				c-3.208,1.358-5.814-0.536-5.825-4.225C271.979,205.013,274.568,200.927,277.776,199.568z"/>
		</g>
		<g>
			<path fill="#F9FBFC" d="M253.581,202.509l48.356-20.479l0.134,47.182l-48.356,20.479L253.581,202.509z M277.776,199.568
				c-3.208,1.359-5.797,5.445-5.787,9.133c0.011,3.688,2.617,5.583,5.825,4.224c3.216-1.361,5.805-5.456,5.795-9.145
				C283.599,200.092,280.993,198.206,277.776,199.568 M294.563,218.182l-0.006-2.088l-33.42,14.153l0.006,2.088L294.563,218.182
				 M294.546,211.917l-0.006-2.089l-33.42,14.154l0.006,2.088L294.546,211.917"/>
		</g>
		<g>
			<polygon fill="#97CBEE" points="253.715,249.691 251.155,247.81 251.021,200.627 253.581,202.509 			"/>
		</g>
		<g>
			<polygon fill="#97CBEE" points="253.581,202.509 251.021,200.627 299.378,180.149 301.938,182.03 			"/>
		</g>
	</g>
</g>
<g>
	<g>
		<g enable-background="new    ">
			<g>
				<path fill="#CD912A" d="M379.362,96.315l-2.886,1.677c1.438-0.835,3.429-0.716,5.627,0.553l2.885-1.676
					C382.79,95.6,380.799,95.48,379.362,96.315z"/>
			</g>
			<g>
				<polygon fill="#FABC25" points="390.156,114.203 393.04,112.526 393.052,108.683 390.166,110.359 				"/>
			</g>
			<g>
				<polygon fill="#FABC25" points="413.047,127.418 415.932,125.742 393.04,112.526 390.156,114.203 				"/>
			</g>
			<g>
				<polygon fill="#F9FBFC" points="413.058,123.575 415.942,121.898 393.052,108.683 390.166,110.359 				"/>
			</g>
			<g>
				<polygon fill="#F9FBFC" points="413.047,127.419 415.932,125.742 415.942,121.898 413.058,123.575 				"/>
			</g>
			<g>
				<path fill="#CD912A" d="M426.723,139.79l2.884-1.677c1.419-0.824,2.299-2.577,2.306-5.069c0.015-5.015-3.511-11.11-7.865-13.625
					l-2.886,1.677c4.355,2.515,7.88,8.609,7.866,13.625C429.021,137.213,428.141,138.966,426.723,139.79z"/>
			</g>
			<g>
				<path fill="#FABC25" d="M421.161,121.096c4.355,2.515,7.88,8.609,7.866,13.625c-0.015,5.015-3.562,7.036-7.917,4.521
					l-39.058-22.55c-4.365-2.519-7.89-8.625-7.876-13.639c0.015-5.015,3.563-7.027,7.927-4.507L421.161,121.096z M390.156,114.203
					l22.891,13.216l0.011-3.843l-22.892-13.216L390.156,114.203"/>
			</g>
			<g>
				<polygon fill="#F9FBFC" points="390.166,110.359 390.156,114.203 413.047,127.419 413.058,123.575 				"/>
			</g>
			<g>
				<polygon fill="#CD912A" points="421.161,121.096 424.047,119.419 384.988,96.869 382.104,98.545 				"/>
			</g>
		</g>
	</g>
	<g>
		<path fill="#A14B59" d="M371.934,109.288l-2.572,8.437l0.323,6.703c0,0,0.9,1.649,1.35,1.2c0.449-0.45,3.904-5.224,3.976-5.46
			c0.072-0.237,0.371-9.98,0.371-9.98L371.934,109.288z"/>
		<path fill="#A14B59" d="M415.692,132.45c-0.15,0.749-0.94,9.929-0.94,9.929l0.491,7.16l3.058,3.552l2.938-5.051
			c0,0,0.818-2.167,0.29-3.32c-0.527-1.153-2.987-12.27-2.987-12.27H415.692z"/>
		<ellipse opacity="0.2" fill="#2F3694" cx="408.702" cy="271.507" rx="45.407" ry="23.612"/>
		<path fill="#2F3694" d="M386.148,192.264c0,0-5.836,24.311-8.274,37.324c-2.441,13.013,1.396,46.766,1.396,46.766
			s1.219,2.032,4.066,2.032c2.846,0,5.923-40.258,5.923-40.258s3.802-29.598,5.835-29.191c0.457,0.092,4.161,1.48,5.833,1.16
			c5.766-1.102,14.002-6.15,13.687-12.14c-0.407-7.727-6.506-8.133-6.506-8.133s-10.574-0.813-11.793-0.407
			C395.095,189.824,386.148,192.264,386.148,192.264z"/>
		<circle fill="#A14B59" cx="374.203" cy="109.673" r="3.47"/>
		<circle fill="#A14B59" cx="417.482" cy="132.282" r="3.47"/>
		<path fill="#2F3694" d="M399.691,201.028c0,0-1.964,26.6,0.882,31.886c2.847,5.286,18.73,21.364,18.73,21.364
			s4.664,0.61,3.443-2.643c-1.219-3.254-12.224-22.819-12.224-22.819l4.091-30.86l-8.946-10.98L399.691,201.028z"/>
		<path fill="#2F3694" d="M418.966,253.787c0,0,1.243,5.012,0.841,5.963c-0.402,0.951-1.813,5.558,0.641,6.013
			c2.455,0.455,4.012-1.847,4.267-4.251c0.254-2.405-1.903-9.821-1.903-9.821L418.966,253.787z"/>
		<path fill="#A14B59" d="M382.453,268.272c-1.241-0.194-2.649-0.589-4.061-0.849c0.466,5.311,0.878,8.93,0.878,8.93
			c0.321,3.328,1.371,3.045,4.135,2.182c0.88-0.275,1.796-4.373,2.653-10.075C384.722,268.438,383.445,268.427,382.453,268.272z"/>
		<path fill="#FBFEFF" d="M377.602,268.321c0,0,2.779,2.78,8.502,2.126c0.677-0.15,1.352-1.601,1.4-2.875
			c0.022-0.589-0.072-1.235-0.194-1.802c-0.162-0.752-1.024-1.119-1.688-0.726c-1.162,0.688-2.963,1.522-4.615,1.31
			c-2.718-0.346-2.981-3.298-2.981-3.298l-0.548,0.013c-0.796,1.167-0.706,2.542-0.362,3.912c0.065,0.259,0.149,0.514,0.251,0.765
			L377.602,268.321z"/>
		<path fill="#A14B59" d="M422.747,251.636c-0.299-0.8-1.192-2.588-2.366-4.827c-0.992,1.441-2.11,2.794-2.408,3.03
			c-0.65,0.514-1.304,0.826-1.962,1.047c1.959,2.042,3.293,3.392,3.293,3.392S423.968,254.889,422.747,251.636z"/>
		<path fill="#FBFEFF" d="M413.403,249.225l1.722,2.581c0,0,5.047,2.352,6.309-4.015l-1.606-3.27l-0.573,0.115
			c0,0,0.287,3.155-2.064,3.671c-2.352,0.517-3.384,0.229-3.384,0.229L413.403,249.225z"/>
		<path fill="#2F3694" d="M383.935,282.838c0.134-1.743,0.268-3.484,0.401-5.228c0.02-0.269,0.039-0.557-0.076-0.801
			c-0.327,0.346-0.845,0.414-1.321,0.44c-1.248,0.065-2.505-0.031-3.728-0.288c-0.083,1.889-1.43,3.381-2.722,4.76
			c-1.293,1.38-2.75,2.676-3.547,4.39c-0.144,0.309-0.263,0.674-0.113,0.979c0.188,0.38,0.684,0.468,1.106,0.475
			c1.862,0.034,3.694-0.561,5.337-1.439C380.915,285.247,382.48,284.003,383.935,282.838z"/>
		<circle fill="#A14B59" cx="390.622" cy="191.767" r="3.47"/>
		<path fill="#FBFEFF" d="M414.899,159.41c-1.628-1.626-25.559-10.582-29.218-10.582c-3.66,0-6.1,4.473-6.1,4.473
			s1.704,0.879,4.302,2.205l2.265,36.757c0,0,4.066,9.353,8.946,10.167s18.3-0.813,19.52-4.473
			C414.913,197.059,416.526,161.037,414.899,159.41z"/>
		<circle fill="#A14B59" cx="392.769" cy="141.112" r="9.537"/>
		<path fill="#A14B59" d="M389.614,144.043l3.247,9.81l0,0c1.919,1.617,4.631,1.898,6.84,0.709l1.035-0.558l-2.709-10.661
			L389.614,144.043z"/>
		<ellipse fill="#A14B59" cx="401.492" cy="141.495" rx="1.945" ry="3.696"/>
		<path fill="#471922" d="M392.77,131.575c-4.035,0-7.478,2.511-8.87,6.05c1.69,0.999,4.378,1.337,6.091,1.356
			c0.753,0.009,7.571-0.933,7.273-2.126c0.37,1.479,0.938,2.905,1.688,4.231c0.001-1.448,1.138-2.815,2.562-3.081
			c0.081-0.016,0.164-0.032,0.248-0.047C400.457,134.244,396.929,131.575,392.77,131.575z"/>
		<path fill="#FBFEFF" d="M387.989,149.544c-3.95-2.396-9.103-3.187-11.851-6.902c-1.828-2.473-2.155-5.742-2.05-8.816
			c0.106-3.075,1.415-10.622,0.921-13.659c-0.713,1.239-2.828,1.755-4.128,1.158c-1.299-0.598-1.999-2.253-1.521-3.601
			c-0.829,3.796-2.756,12.09-3.584,15.887c-0.956,4.374-1.916,8.809-1.716,13.281c0.092,2.061,0.479,4.221,1.812,5.797
			c0.92,1.09,2.205,1.796,3.475,2.443c7.137,3.631,14.83,6.166,22.727,7.486C392.519,157.824,392.108,152.041,387.989,149.544z"/>
		<path fill="#FBFEFF" d="M414.752,142.378c0,0,0.103,5.733,2.285,5.985c3.022,0.349,3.79-7.075,3.79-7.075
			s6.568,22.487,6.568,25.266s0.253,6.316-1.263,7.074c-1.517,0.758-21.729-2.274-21.477-4.042s-2.98-15.571,1.061-14.308
			c4.043,1.264,9.318,6.083,9.183,4.132C414.763,157.459,414.752,142.378,414.752,142.378z"/>
	</g>
</g>
<g>
	<g>
		<ellipse opacity="0.2" fill="#2F3694" cx="412.099" cy="459.083" rx="45.407" ry="23.611"/>
		<g>
			<path fill="#2F3694" d="M412.084,449.423c0,0-1.368,3.273-1.31,5.176c0.06,1.903,1.011,2.618,1.011,2.618s3.57,0.952,4.642,1.012
				c1.07,0.06,4.581,2.855,7.139,3.034c2.559,0.178,5.831,0.952,6.188-1.071c0.357-2.022-12.612-10.055-12.612-10.055
				L412.084,449.423z"/>
			<path fill="#2A2C78" d="M426.853,342.378l2.703,3.036c0,0,7.073,25.641,6.856,27.813c-0.218,2.173-3.042,2.607-4.78,1.956
				s-6.518-16.512-6.518-16.512L426.853,342.378z"/>
			<path fill="#EEBCC5" d="M412.635,443.247l-0.528,6.976c0,0-0.144,1.655,2.099,1.763c2.242,0.106,2.936-1.849,2.936-1.849
				l1.58-10.414L412.635,443.247z"/>
			<path fill="#EEBCC5" d="M397.467,449.497l-1.312,6.256c0,0,0.403,2.221,2.422,1.918s2.624-3.027,2.624-3.027l1.211-6.659
				L397.467,449.497z"/>
			<path fill="#2F3694" d="M396.357,454.744c0,0,0.201,1.816,1.816,1.716c1.614-0.102,3.027-1.816,3.027-1.816l-0.404,6.457
				c0,0-0.908,9.688-3.733,10.696c-2.824,1.01-3.43-4.339-3.43-4.339L396.357,454.744z"/>
			<path fill="#F0C43A" d="M401.733,382.549c0,0,0.533,10.137,1.066,12.005c0.533,1.867-1.066,26.678-1.066,26.678
				s-5.603,29.347-5.337,30.948c0.268,1.6,4.803,0.799,5.87-0.801c1.066-1.602,7.737-25.879,8.804-32.814
				c1.067-6.937,4.269-22.943,4.269-22.943s0.268,19.475,0.268,21.076c0,1.6-3.469,30.679-3.469,30.679s0.132,0.853,2.823,1.252
				c0.879,0.131,2.423-0.169,3.063-1.217c1.59-2.606,2.117-8.306,2.117-8.306s7.737-33.08,7.204-36.549
				c-0.533-3.468,1.066-26.678,1.066-26.678l-4.269-1.601L401.733,382.549z"/>
			<path fill="#2F3694" d="M411.894,343.198c0,0,8.861-2.855,12.493-1.947c3.633,0.908,4.844,3.329,5.146,4.54
				s-1.211,30.574-1.211,30.574s-15.741,13.017-22.4,9.687c-4.811-2.405-5.199-5.126-5.043-6.451
				c0.093-0.803,0.174-1.607,0.146-2.416l-0.855-25.944L411.894,343.198z"/>
			<path fill="#2A2C78" d="M426.781,365.255l-18.367,3.674l-3.832-19.428l-0.424-0.997l-3.988,2.736l0.855,25.944
				c0.027,0.809-0.054,1.613-0.146,2.416c-0.131,1.108,0.13,3.19,3.024,5.248c6.102-3.138,18.376-9.9,23.303-14.932
				C430.024,367.039,426.781,365.255,426.781,365.255z"/>
			<path fill="#2F3694" d="M408.949,360.019c0,0,5.063-15.912,2.944-16.82c0,0-12.329,4.106-13.843,7.437
				c-1.513,3.33-1.188,6.282-2.55,11.429c0,0-3.179,11.049-2.725,13.925s3.481,4.389,10.595,1.514
				c7.113-2.876,24.822-9.839,24.822-9.839l-0.151-3.178l-20.887,2.271L408.949,360.019z"/>
			<path fill="#F7F7FB" d="M414.496,343.186c0,0-3.244,0.904-3.545,1.658c-0.302,0.755,2.111,4.225,4.675,6.109
				c2.565,1.885,4.224,2.413,4.224,2.413s2.941-3.545,2.867-8.446C422.641,340.018,414.496,343.186,414.496,343.186z"/>
			<circle fill="#EEBCC5" cx="421.268" cy="333.728" r="8.828"/>
			<path fill="#EEBCC5" d="M423.194,336.101l-3.006,9.082l0,0c-1.776,1.496-4.285,1.756-6.331,0.655l0,0
				c-0.563-0.303-0.848-0.951-0.69-1.572l2.24-8.813L423.194,336.101z"/>
			<path fill="#2F3694" d="M428.726,334.115c0.462-0.015,0.955-0.065,1.319-0.352c0.017-0.014,0.028-0.031,0.044-0.044
				c-0.003-3.659-2.289-7.077-5.941-8.338c-4.609-1.589-9.635,0.858-11.225,5.468c-0.129,0.371-0.221,0.746-0.297,1.122
				c0.364,0.193,0.749,0.319,1.136,0.354c0.899,0.079,3.871-1.125,3.6-2.353c0.132,0.601,0.266,1.2,0.398,1.801
				c0.659-0.259,1.167-0.874,1.295-1.57C421.548,332.771,425.147,334.229,428.726,334.115z"/>
			<path fill="#2A2C78" d="M433.945,378.107L433.945,378.107c-2.414,0-4.39-1.975-4.39-4.39l0,0c0-2.413,1.976-4.39,4.39-4.39l0,0
				c2.414,0,4.389,1.977,4.389,4.39l0,0C438.334,376.133,436.359,378.107,433.945,378.107z"/>
			<circle fill="#EEBCC5" cx="413.862" cy="331.475" r="2.687"/>
			<circle fill="#EEBCC5" cx="436.708" cy="374.574" r="3.261"/>
			<circle fill="#EEBCC5" cx="430.328" cy="365.624" r="3.261"/>
			<path fill="#EEBCC5" d="M435.569,368.542l-2.348-3.592c-0.277-0.424-0.845-0.543-1.268-0.267
				c-0.424,0.278-0.543,0.846-0.267,1.269l2.349,3.593c0.276,0.423,0.845,0.541,1.269,0.265S435.847,368.966,435.569,368.542z"/>
			<polygon fill="#E0E4ED" points="441.614,366.756 430.973,373.239 428.194,376.499 438.954,370.194 			"/>
		</g>
		<polygon fill="#2F3694" points="441.614,366.756 442.098,367.381 439.576,370.938 428.519,377.146 428.194,376.499 
			438.954,370.194 		"/>
	</g>
	<g>
		<path fill="#2F3694" d="M482.181,273.37L482.181,273.37c-22.96,0-41.571,18.61-41.571,41.569v0.001
			c0,22.958,18.611,41.57,41.571,41.57l0,0c22.958,0,41.569-18.612,41.569-41.57v-0.001
			C523.75,291.98,505.139,273.37,482.181,273.37z"/>
		<g>
			
				<rect x="451.729" y="342.005" transform="matrix(0.7281 0.6854 -0.6854 0.7281 366.6926 -213.3279)" fill="#2F3694" width="1.097" height="27.203"/>
		</g>
		<path fill="#FEF9FB" d="M482.181,276.312L482.181,276.312c-21.334,0-38.629,17.294-38.629,38.628v0.001
			c0,21.333,17.295,38.628,38.629,38.628l0,0c21.334,0,38.627-17.295,38.627-38.628v-0.001
			C520.808,293.605,503.515,276.312,482.181,276.312z"/>
	</g>
	<path fill="#2F3694" d="M496.207,341.813H467.22c-1.207,0-2.186-0.979-2.186-2.185v-50.244c0-1.207,0.979-2.185,2.186-2.185h28.987
		c1.206,0,2.184,0.978,2.184,2.185v50.244C498.391,340.834,497.413,341.813,496.207,341.813z"/>
	<rect x="467.966" y="290.132" fill="#FEF9FB" width="27.493" height="48.749"/>
	<rect x="467.966" y="319.487" fill="#3165B0" width="27.493" height="19.394"/>
	<g>
		<g>
			<g>
				<g>
					<path fill="#5BB59B" d="M473.944,297.643c-0.041,0.4,0.158,0.893-0.146,1.155c-0.184,0.157-0.471,0.139-0.655,0.294
						c-0.31,0.264-0.105,0.771,0.152,1.086s0.574,0.705,0.414,1.078c-0.08,0.19-0.268,0.313-0.386,0.481
						c-0.264,0.375-0.137,0.912,0.14,1.277c0.712,0.942,2.203,0.999,3.205,0.372c0.362-0.227,0.692-0.546,0.813-0.958
						c0.119-0.411-0.03-0.918-0.413-1.108c-0.155-0.078-0.354-0.116-0.428-0.273c-0.126-0.269,0.228-0.487,0.448-0.685
						c0.416-0.375,0.382-1.133-0.066-1.469c-0.189-0.142-0.447-0.229-0.536-0.449c-0.063-0.155-0.02-0.331-0.018-0.499
						C476.489,296.673,474.079,296.331,473.944,297.643z"/>
					<g>
						<rect x="475.144" y="298.438" fill="#3A5DAB" width="0.064" height="5.253"/>
					</g>
					<g>
						<polygon fill="#3A5DAB" points="475.174,300.513 474.062,299.578 474.104,299.527 475.178,300.43 476.513,299.482 
							476.551,299.535 						"/>
					</g>
					<g>
						<polygon fill="#3A5DAB" points="475.174,302.743 474.062,301.809 474.104,301.759 475.178,302.661 476.513,301.713 
							476.551,301.767 						"/>
					</g>
				</g>
			</g>
			<g>
				<g>
					<path fill="#5BB59B" d="M485.148,296.19c-0.054,0.523,0.207,1.168-0.191,1.511c-0.239,0.206-0.616,0.182-0.856,0.386
						c-0.405,0.345-0.137,1.008,0.2,1.42s0.749,0.922,0.54,1.411c-0.105,0.248-0.35,0.406-0.505,0.628
						c-0.344,0.49-0.179,1.193,0.184,1.671c0.931,1.233,2.882,1.307,4.191,0.488c0.476-0.297,0.907-0.716,1.063-1.255
						c0.156-0.538-0.038-1.201-0.541-1.451c-0.202-0.1-0.463-0.149-0.559-0.355c-0.165-0.35,0.298-0.638,0.586-0.896
						c0.544-0.489,0.499-1.48-0.087-1.92c-0.249-0.186-0.585-0.301-0.701-0.588c-0.083-0.203-0.026-0.433-0.022-0.652
						C488.477,294.922,485.325,294.475,485.148,296.19z"/>
					<g>
						<rect x="486.718" y="297.229" fill="#3A5DAB" width="0.085" height="6.873"/>
					</g>
					<g>
						<polygon fill="#3A5DAB" points="486.758,299.944 485.302,298.722 485.357,298.656 486.763,299.836 488.509,298.597 
							488.559,298.666 						"/>
					</g>
					<g>
						<polygon fill="#3A5DAB" points="486.758,302.862 485.302,301.64 485.357,301.574 486.763,302.754 488.509,301.515 
							488.559,301.585 						"/>
					</g>
				</g>
			</g>
			<g>
				<g>
					<path fill="#5BB59B" d="M478.241,293.542c-0.069,0.682,0.27,1.521-0.249,1.968c-0.312,0.268-0.802,0.234-1.114,0.501
						c-0.528,0.448-0.18,1.313,0.261,1.848c0.438,0.536,0.976,1.2,0.703,1.838c-0.139,0.323-0.455,0.53-0.657,0.817
						c-0.448,0.64-0.232,1.553,0.237,2.176c1.214,1.604,3.752,1.701,5.458,0.635c0.619-0.387,1.18-0.932,1.384-1.633
						c0.203-0.7-0.051-1.563-0.703-1.889c-0.264-0.131-0.604-0.196-0.729-0.464c-0.214-0.456,0.388-0.828,0.763-1.167
						c0.708-0.637,0.65-1.927-0.112-2.498c-0.324-0.242-0.762-0.392-0.913-0.767c-0.107-0.265-0.034-0.563-0.029-0.85
						C482.575,291.891,478.472,291.308,478.241,293.542z"/>
					<g>
						<rect x="480.283" y="294.896" fill="#3A5DAB" width="0.112" height="8.945"/>
					</g>
					<g>
						<polygon fill="#3A5DAB" points="480.337,298.429 478.441,296.837 478.514,296.752 480.343,298.288 482.615,296.675 
							482.681,296.767 						"/>
					</g>
					<g>
						<polygon fill="#3A5DAB" points="480.337,302.227 478.441,300.636 478.514,300.55 480.343,302.086 482.615,300.474 
							482.681,300.564 						"/>
					</g>
				</g>
			</g>
		</g>
		<rect x="471.904" y="305.454" fill="#97CBEE" width="19.005" height="1.882"/>
		<rect x="471.904" y="309.049" fill="#97CBEE" width="19.005" height="1.884"/>
		<path fill="#F0C43A" d="M485.173,313.329h-7.532c-1.183,0-2.14,0.958-2.14,2.141c0,1.181,0.957,2.14,2.14,2.14h7.532
			c1.183,0,2.141-0.959,2.141-2.14C487.313,314.287,486.355,313.329,485.173,313.329z"/>
		<rect x="472.609" y="322.728" fill="#FEF9FB" width="17.594" height="13.494"/>
		<circle fill="#97CBEE" cx="481.407" cy="327.438" r="2.733"/>
		<rect x="474.077" y="332.379" fill="#97CBEE" width="14.659" height="1.884"/>
	</g>
</g>
<ellipse opacity="0.2" fill="#2F3694" cx="178.431" cy="377.829" rx="36.848" ry="19.161"/>
<ellipse opacity="0.2" fill="#2F3694" cx="311.624" cy="302.757" rx="36.848" ry="19.16"/>
<g>
	<ellipse opacity="0.2" fill="#2F3694" cx="118.112" cy="482.818" rx="54.068" ry="22.182"/>
	<g>
		<g>
			<path fill="#DCDEEF" d="M147.443,395.226L97.53,411.989v62.81c0,12.715,16.92,23.021,37.791,23.021s37.791-10.307,37.791-23.021
				v-62.81L147.443,395.226z"/>
			<ellipse fill="#DCDEEF" cx="135.321" cy="411.989" rx="37.791" ry="23.021"/>
			<path fill="#471922" d="M103.149,424.067c6.656,6.566,18.573,10.943,32.172,10.943c13.6,0,25.516-4.377,32.173-10.943
				c0.46-1.335,0.705-2.718,0.705-4.134c0-11.063-14.72-20.029-32.878-20.029c-18.157,0-32.877,8.967-32.877,20.029
				C102.444,421.35,102.689,422.732,103.149,424.067z"/>
			<path fill="#A14B59" d="M158.646,405.819c-5.956-3.652-14.206-5.915-23.325-5.915c-3.108,0-6.112,0.269-8.962,0.76
				c0.646,0.902,1.814,1.532,2.916,1.904c4.448,1.503,9.906,1.85,12.498,5.764c-0.356,1.026-1.611,1.372-2.684,1.545
				c-7.771,1.247-15.852,1.313-23.163,4.227c-2.426,0.968-5.047,2.72-5.104,5.331c-0.05,2.288,1.889,4.044,3.473,5.697
				c1.584,1.652,3.007,4.142,1.827,6.104c-0.098,0.163-0.222,0.305-0.346,0.447c5.705,2.105,12.387,3.328,19.545,3.328
				c1.696,0,3.367-0.068,5.003-0.201c-1.604-1.42-3.325-2.707-5.149-3.829c-1.821-1.12-4.059-2.84-3.343-4.854
				c0.55-1.55,2.499-1.979,4.132-2.17c3.927-0.459,7.854-0.918,11.781-1.378c1.241-0.144,2.545-0.313,3.548-1.057
				c1.004-0.745,1.545-2.27,0.807-3.278c-0.424-0.579-1.186-0.899-1.448-1.567c-0.419-1.068,0.736-2.118,1.84-2.428
				c1.105-0.309,2.372-0.32,3.22-1.093c1.718-1.565,0.2-4.364-1.336-6.107C155.82,406.713,157.244,406.298,158.646,405.819z
				 M126.214,417.006c-2.691,0.39-5.472,0.62-8.1-0.079c-0.286-0.076-0.618-0.219-0.659-0.511c-0.03-0.211,0.113-0.406,0.265-0.555
				c1.664-1.632,5.776-2.092,8.051-2.049c0.944,0.019,3.316,0.351,3.857,1.19C130.539,416.413,127.102,416.877,126.214,417.006z"/>
		</g>
		<path fill="#FEF9FB" d="M135.321,391.615c19.05,0,35.144,9.33,35.144,20.374c0,11.045-16.093,20.374-35.144,20.374
			c-19.049,0-35.143-9.329-35.143-20.374C100.178,400.945,116.272,391.615,135.321,391.615 M135.321,388.968
			c-20.871,0-37.791,10.307-37.791,23.021c0,12.714,16.92,23.021,37.791,23.021c20.872,0,37.791-10.308,37.791-23.021
			C173.112,399.274,156.193,388.968,135.321,388.968L135.321,388.968z"/>
		<g>
			<path fill="#DCDEEF" d="M167.56,437.371l-1.38-0.797v0.024l-0.021-0.012v0.024l-0.022-0.013v0.025l-0.021-0.013v0.024
				l-0.021-0.013v0.024l-0.022-0.012v0.024l-0.021-0.013v0.025l-0.021-0.014v0.025l-0.022-0.012v0.024l-0.021-0.013v0.024
				l-0.022-0.013v0.024l-0.021-0.013v0.024l-0.021-0.012v0.025l-0.022-0.014v0.025l-0.022-0.014v0.025l-0.021-0.012v0.024
				l-0.021-0.013v0.024l-0.022-0.013v0.024l-0.022-0.013v0.024l-0.021-0.012v0.025l-0.021-0.014v0.025l-0.022-0.012v0.023
				l-0.022-0.012v0.024l-0.021-0.013v0.024l-0.022-0.013v0.025l-0.021-0.013v0.025l-0.023-0.013v0.024l-0.021-0.013v0.024
				l-0.022-0.013v0.024l-0.022-0.012v0.025l-0.021-0.014v0.025l-0.022-0.014v0.025l-0.022-0.012v0.023l-0.021-0.012v0.024
				l-0.022-0.013v0.024L165.419,437v0.024l-0.022-0.012v0.025l-0.021-0.014v0.025l-0.022-0.014v0.025l-0.021-0.012v0.024
				l-0.022-0.013v0.024l-0.021-0.013v0.024l-0.022-0.012v0.024l-0.022-0.013v0.025l-0.021-0.013v0.024l-0.021-0.013v0.024
				l-0.022-0.012v0.024l-0.021-0.013v0.025l-0.022-0.014v0.025l-0.021-0.012v0.024l-0.022-0.013v0.024l-0.022-0.013v0.024
				l-0.021-0.013v0.024l-0.021-0.012v0.025l-0.022-0.014v0.025l-0.021-0.014v0.025l-0.022-0.012v0.023l-0.021-0.012v0.024
				l-0.021-0.013v0.024l-0.022-0.013v0.026l-0.021-0.014v0.025l-0.022-0.014v0.025l-0.022-0.013v0.024l-0.022-0.012v0.024
				l-0.021-0.013v0.024l-0.022-0.013v0.025l-0.022-0.013v0.024l-0.021-0.012v0.024l-0.021-0.013v0.024l-0.022-0.013v0.024
				l-0.022-0.012v0.024l-0.022-0.013v0.025l-0.021-0.014v0.025l-0.022-0.014v0.026l-0.022-0.013v0.024l-0.022-0.013v0.024
				l-0.021-0.013v0.024l-0.022-0.012v0.025l-0.021-0.014v0.025l-0.022-0.014v0.025l-0.021-0.012v0.024l-0.022-0.013v0.024
				l-0.022-0.013v0.024l-0.021-0.013v0.025l-0.021-0.013v0.025l-0.022-0.013v0.024l-0.021-0.013v0.024l-0.022-0.012v0.024
				l-0.021-0.013v0.024l-0.021-0.013v0.025l-0.022-0.013v0.024l-0.022-0.012v0.024l-0.021-0.013v0.024l-0.021-0.013v0.024
				l-0.022-0.012v0.025l-0.022-0.014v0.025l-0.021-0.014v0.025l-0.022-0.012v0.023l-0.022-0.012v0.024l-0.021-0.013v0.024
				l-0.022-0.013v0.024l-0.022-0.012v0.025l-0.022-0.014v0.025l-0.021-0.013v0.024l-0.022-0.012v0.024l-0.022-0.013v0.024
				l-0.022-0.013v0.024l-0.021-0.012v0.024l-0.022-0.013v0.025l-0.022-0.013v0.024l-0.021-0.012v0.023l-0.021-0.012v0.023
				l-0.022-0.012v0.025l-0.022-0.014v0.025l-0.021-0.012v0.024l-0.021-0.013v0.024l-0.022-0.013v0.024l-0.021-0.013v0.024
				l-0.022-0.012v0.025l-0.021-0.014v0.025l-0.021-0.014v0.025l-0.022-0.012v0.024l-0.022-0.013v0.024l-0.021-0.013v0.024
				l-0.021-0.013v0.024l-0.022-0.012v0.025l-0.021-0.014v0.025l-0.022-0.013v0.024l-0.021-0.012v0.024l-0.022-0.013v0.024
				l-0.021-0.013v0.025l-0.021-0.013v0.024l-0.022-0.012v0.024l-0.022-0.013v0.024l-0.021-0.013v0.024l-0.022-0.012v0.025
				l-0.022-0.014v0.025l-0.022-0.014v0.025l-0.021-0.012v0.023l-0.021-0.012v0.024l-0.022-0.013v0.024l-0.022-0.013v0.024
				l-0.021-0.012v0.025l-0.022-0.014v0.025l-0.022-0.014v0.025l-0.021-0.012v0.024l-0.022-0.013v0.024l-0.022-0.013v0.024
				l-0.022-0.013v0.025l-0.021-0.013v0.025l-0.022-0.013v0.024l-0.021-0.013v0.024l-0.022-0.012v0.023l-0.021-0.012v0.025
				l-0.022-0.014v0.025l-0.021-0.014v0.025l-0.022-0.012v0.024l-0.021-0.013v0.024l-0.022-0.012v0.023l-0.021-0.012v0.025
				l-0.022-0.014v0.025l-0.021-0.014v0.025l-0.022-0.012v0.024l-0.021-0.013v0.024l-0.022-0.013v0.024l-0.021-0.013v0.024
				l-0.021-0.012v0.025l-0.022-0.014v0.025l-0.022-0.013v0.024l-0.021-0.012v0.024l-0.021-0.013v0.024l-0.022-0.013v0.025
				l-0.022-0.013v0.024l-0.021-0.012v0.024l-0.022-0.013v0.024l-0.022-0.013v0.024l-0.021-0.012v0.025l-0.022-0.014v0.025
				l-0.022-0.014v0.025l-0.022-0.012v0.023l-0.021-0.012v0.024l-0.022-0.013v0.024l-0.022-0.013v0.024l-0.022-0.012v0.025
				l-0.021-0.014v0.025l-0.022-0.014v0.025l-0.021-0.012v0.024l-0.022-0.013v0.024l-0.021-0.013v0.024l-0.022-0.013v0.025
				l-0.021-0.013v0.025l-0.022-0.013v0.024l-0.021-0.013v0.024l-0.022-0.012v0.024l-0.021-0.013v0.025l-0.022-0.014v0.025
				l-0.021-0.012v0.023l-0.022-0.012v0.024l-0.021-0.013v0.024l-0.022-0.013v0.024l-0.021-0.012v0.025l-0.021-0.014v0.025
				l-0.022-0.014v0.025l-0.022-0.012v0.024l-0.021-0.013v0.024l-0.021-0.013v0.024l-0.022-0.013v0.024l-0.021-0.012v0.025
				l-0.022-0.014v0.025l-0.022-0.013v0.024l-0.022-0.012v0.024l-0.021-0.013v0.024l-0.022-0.013v0.025l-0.021-0.013v0.024
				l-0.022-0.012v0.024l-0.021-0.013v0.024l-0.022-0.013v0.024l-0.022-0.012v0.023l-0.021-0.012v0.025l-0.021-0.014v0.025
				l-0.022-0.012v0.023l-0.021-0.012v0.024l-0.022-0.013v0.024l-0.021-0.013v0.024l-0.022-0.012v0.025l-0.022-0.014v0.025
				l-0.021-0.014v0.025l-0.021-0.012v0.024l-0.022-0.013v0.024l-0.021-0.013v0.024l-0.022-0.013v0.025l-0.021-0.013v0.025
				l-0.021-0.013v0.024l-0.022-0.013v0.024l-0.022-0.012v0.024l-0.021-0.013v0.024l-0.021-0.013v0.025l-0.022-0.013v0.025
				l-0.022-0.013v0.024l-0.021-0.013v0.024l-0.022-0.013v0.024l-0.022-0.012v0.025l-0.021-0.014v0.025l-0.022-0.014v0.025
				l-0.022-0.012v0.023l-0.022-0.012v0.024l-0.021-0.013v0.024l-0.022-0.013v0.024l-0.022-0.012v0.025l-0.022-0.014v0.025
				l-0.021-0.013v0.024l-0.022-0.013v0.025l-0.021-0.013v0.024l-0.022-0.013v0.024l-0.021-0.012v0.024l-0.022-0.013v0.025
				l-0.021-0.013v0.024l-0.022-0.013v0.024l-0.021-0.012v0.024l-0.022-0.013v0.025l-0.022-0.014v0.025l-0.021-0.012v0.023
				l-0.022-0.012v0.024l-0.021-0.013v0.024l-0.022-0.013v0.024l-0.021-0.012v0.023l-0.022-0.012v0.025l-0.021-0.014v0.025
				l-0.022-0.012v0.023l-0.021-0.012v0.024l-0.022-0.013v0.024l-0.021-0.013v0.024l-0.022-0.012v0.025l-0.021-0.014v0.025
				l-0.021-0.013v0.024l-0.022-0.012v0.023l-0.022-0.012v0.024l-0.021-0.013v0.025l-0.022-0.013v0.025l-0.022-0.013v0.024
				l-0.022-0.013v0.024l-0.021-0.013v0.024l-0.022-0.012v0.025l-0.022-0.014v0.025l-0.021-0.014v0.025l-0.022-0.012v0.023
				l-0.022-0.012v0.024l-0.022-0.013v0.024l-0.021-0.013v0.024l-0.022-0.012v0.023l-0.022-0.012v0.025l-0.022-0.014v0.025
				l-0.021-0.012v0.024l-0.022-0.013v0.024l-0.022-0.013v0.024l-0.021-0.013v0.025l-0.021-0.013v0.025l-0.022-0.013v0.024
				l-0.021-0.013v0.024l-0.022-0.012v0.024l-0.021-0.013v0.025l-0.022-0.014v6.389c6.408,4.315,10.329,11.605,10.329,19.392
				c0,2.472-0.848,4.768-2.356,6.583c-0.478,0.068-0.958,0.106-1.439,0.106v0.012c-0.007,0-0.014,0.001-0.021,0.001v0.011
				c-0.007,0-0.015,0.001-0.022,0.001v0.012c-0.007,0-0.015,0-0.021,0v0.013c-0.007,0-0.014,0.001-0.021,0.001v0.011
				c-0.008,0-0.015,0.001-0.022,0.001v0.012c-0.007,0-0.014,0-0.021,0v0.012c-0.007,0-0.015,0.001-0.021,0.001v0.011
				c-0.007,0-0.014,0.001-0.022,0.001v0.013c-0.007,0-0.014,0-0.021,0v0.012c-0.007,0-0.015,0-0.022,0v0.012
				c-0.007,0-0.014,0.001-0.021,0.001v0.012c-0.007,0-0.014,0-0.021,0v0.012c-0.008,0-0.015,0-0.022,0v0.012
				c-0.007,0-0.015,0.001-0.022,0.001v0.011c-0.007,0-0.014,0.002-0.021,0.002v0.012c-0.007,0-0.014,0-0.021,0v0.012
				c-0.007,0-0.015,0.001-0.022,0.001v0.011c-0.007,0-0.014,0.001-0.022,0.001v0.011c-0.007,0.001-0.014,0.001-0.021,0.001v0.012
				c-0.007,0-0.014,0-0.021,0v0.012c-0.007,0-0.014,0.002-0.022,0.002v0.011c-0.007,0-0.014,0.001-0.022,0.001v0.012
				c-0.007,0-0.014,0-0.021,0v0.012c-0.008,0-0.015,0-0.022,0v0.012c-0.007,0-0.014,0.001-0.021,0.001v0.012
				c-0.008,0-0.015,0-0.023,0v0.013c-0.006,0-0.014,0-0.021,0v0.012c-0.007,0-0.015,0.001-0.022,0.001v0.011
				c-0.007,0-0.014,0.001-0.022,0.001v0.012c-0.007,0-0.014,0-0.021,0v0.012c-0.008,0-0.015,0.001-0.022,0.001v0.011
				c-0.007,0-0.014,0.001-0.022,0.001v0.013c-0.007,0-0.014,0-0.021,0v0.012c-0.008,0-0.015,0-0.022,0v0.012
				c-0.008,0-0.014,0.001-0.022,0.001v0.011c-0.007,0-0.014,0.001-0.022,0.001v0.012c-0.007,0-0.014,0-0.021,0v0.012
				c-0.008,0-0.015,0.002-0.022,0.002v0.01c-0.007,0-0.014,0.002-0.021,0.002v0.012c-0.008,0-0.015,0-0.022,0v0.012
				c-0.007,0-0.014,0-0.021,0v0.012c-0.007,0-0.015,0.001-0.022,0.001v0.011c-0.007,0-0.014,0.001-0.022,0.001v0.012
				c-0.007,0-0.014,0-0.021,0v0.013c-0.007,0-0.015,0.001-0.021,0.001v0.011c-0.007,0-0.015,0.001-0.022,0.001v0.012
				c-0.007,0-0.014,0-0.021,0v0.012c-0.008,0-0.015,0-0.022,0v0.012c-0.007,0-0.015,0.001-0.021,0.001v0.012
				c-0.007,0-0.014,0-0.022,0v0.013c-0.007,0-0.014,0-0.022,0v0.012c-0.006,0-0.014,0.001-0.021,0.001v0.011
				c-0.007,0-0.014,0.001-0.021,0.001v0.012c-0.007,0-0.014,0-0.022,0v0.012c-0.007,0-0.014,0.001-0.021,0.001v0.011
				c-0.007,0-0.014,0.002-0.022,0.002v0.012c-0.007,0-0.015,0-0.021,0v0.012c-0.007,0-0.014,0.001-0.021,0.001v0.011
				c-0.007,0-0.015,0.001-0.022,0.001v0.011c-0.007,0-0.014,0.001-0.021,0.001v0.012c-0.008,0-0.015,0-0.022,0v0.012
				c-0.008,0-0.015,0.002-0.022,0.002v0.011c-0.007,0-0.015,0.001-0.022,0.001v0.012c-0.007,0-0.014,0-0.021,0v0.012
				c-0.008,0-0.015,0.001-0.022,0.001v0.011c-0.008,0-0.015,0.001-0.022,0.001v0.011c-0.007,0-0.014,0.001-0.021,0.001v0.012
				c-0.007,0-0.015,0-0.021,0v0.013c-0.008,0-0.015,0.001-0.022,0.001v0.011c-0.007,0-0.014,0.001-0.022,0.001v0.012
				c-0.007,0-0.014,0-0.022,0v0.012c-0.007,0-0.014,0.001-0.021,0.001v0.011c-0.007,0-0.015,0.001-0.022,0.001v0.013
				c-0.007,0-0.014,0-0.022,0v0.012c-0.007,0-0.014,0-0.022,0v0.012c-0.007,0-0.014,0.001-0.021,0.001v0.011
				c-0.007,0-0.014,0.001-0.022,0.001v0.012c-0.007,0-0.014,0-0.021,0v0.012c-0.008,0-0.015,0.002-0.022,0.002v0.01
				c-0.007,0-0.015,0.002-0.021,0.002v0.012c-0.007,0-0.014,0-0.022,0v0.012c-0.007,0-0.014,0.001-0.022,0.001v0.011
				c-0.006,0-0.014,0.001-0.021,0.001v0.011c-0.007,0-0.015,0.001-0.021,0.001v0.012c-0.007,0-0.014,0-0.022,0v0.013
				c-0.007,0-0.014,0.001-0.021,0.001v0.011c-0.008,0-0.015,0.001-0.022,0.001v0.012c-0.007,0-0.015,0-0.021,0v0.012
				c-0.007,0-0.014,0-0.021,0v0.012c-0.008,0-0.015,0.001-0.022,0.001v0.012c-0.007,0-0.014,0-0.022,0v0.013
				c-0.007,0-0.014,0-0.021,0v0.012c-0.007,0-0.014,0.001-0.021,0.001v0.011c-0.007,0-0.015,0.001-0.022,0.001v0.012
				c-0.007,0-0.014,0-0.022,0v0.012c-0.007,0-0.014,0-0.021,0v0.012c-0.008,0-0.015,0.002-0.022,0.002v0.012
				c-0.007,0-0.014,0-0.022,0v0.012c-0.007,0-0.014,0.001-0.021,0.001v0.011c-0.008,0-0.015,0.001-0.022,0.001v0.011
				c-0.008,0-0.015,0.001-0.022,0.001v0.012c-0.007,0-0.014,0-0.022,0v0.012c-0.007,0-0.014,0.002-0.021,0.002v0.011
				c-0.007,0-0.015,0.001-0.022,0.001v0.012c-0.007,0-0.015,0-0.022,0v0.012c-0.007,0-0.014,0.001-0.022,0.001v0.011
				c-0.007,0-0.014,0.001-0.021,0.001v0.011c-0.007,0-0.014,0.001-0.022,0.001v0.012c-0.007,0-0.015,0-0.022,0v0.013
				c-0.007,0-0.014,0.001-0.021,0.001v0.011c-0.007,0-0.015,0.001-0.021,0.001v0.012c-0.007,0-0.014,0-0.022,0v0.012
				c-0.007,0-0.014,0.001-0.022,0.001v0.011c-0.007,0-0.014,0.001-0.021,0.001v0.011c-0.007,0.002-0.015,0.002-0.021,0.002v0.012
				c-0.007,0-0.015,0-0.022,0v0.012c-0.007,0-0.014,0.001-0.021,0.001v0.011c-0.007,0-0.015,0.001-0.022,0.001v0.012
				c-0.007,0-0.015,0-0.021,0v0.012c-0.007,0-0.014,0.002-0.021,0.002v0.01c-0.008,0-0.015,0.002-0.022,0.002v0.012
				c-0.007,0-0.015,0-0.022,0v0.012c-0.007,0-0.015,0.001-0.021,0.001v0.011c-0.007,0-0.014,0.001-0.021,0.001v0.011
				c-0.008,0-0.015,0.001-0.022,0.001v0.012c-0.007,0-0.015,0-0.021,0v0.012c-0.008,0-0.015,0.002-0.022,0.002v0.011
				c-0.007,0-0.014,0.001-0.021,0.001v0.012c-0.007,0-0.014,0-0.022,0v0.012c-0.007,0-0.014,0.001-0.021,0.001v0.011
				c-0.007,0-0.015,0.001-0.021,0.001v0.012c-0.008,0-0.015,0-0.022,0v0.013c-0.007,0-0.015,0-0.022,0v0.012
				c-0.007,0-0.014,0.001-0.021,0.001v0.011c-0.008,0-0.015,0.001-0.022,0.001v0.012c-0.007,0-0.015,0-0.022,0v0.012
				c-0.007,0-0.014,0.001-0.022,0.001v0.011c-0.007,0-0.014,0.002-0.021,0.002v0.01c-0.007,0-0.015,0.002-0.021,0.002v0.012
				c-0.007,0-0.014,0-0.022,0v0.012c-0.007,0-0.014,0.001-0.022,0.001v0.012c-0.007,0-0.014,0-0.021,0v0.012
				c-0.007,0-0.014,0-0.022,0v0.012c-0.007,0-0.015,0.002-0.022,0.002v0.01c-0.007,0-0.014,0.002-0.021,0.002v0.011
				c-0.007,0-0.015,0.001-0.022,0.001v0.012c-0.007,0-0.014,0-0.022,0v0.012c-0.007,0-0.014,0.001-0.022,0.001v0.011
				c-0.006,0-0.014,0.001-0.021,0.001v0.012c-0.007,0-0.015,0-0.022,0v0.013c-0.007,0-0.014,0.001-0.021,0.001v0.011
				c-0.008,0-0.015,0.001-0.022,0.001v0.012c-0.007,0-0.015,0-0.021,0v0.012c-0.007,0-0.015,0-0.022,0v0.012
				c-0.007,0-0.014,0.001-0.021,0.001v0.011c-0.008,0.002-0.015,0.002-0.022,0.002v0.012c-0.007,0-0.015,0-0.021,0v0.012
				c-0.007,0-0.015,0.001-0.022,0.001v0.011c-0.007,0-0.014,0.001-0.021,0.001v0.012c-0.007,0-0.015,0-0.022,0v0.012
				c-0.007,0-0.014,0.001-0.021,0.001v0.011c-0.007,0-0.015,0.002-0.022,0.002v0.012c-0.007,0-0.014,0-0.021,0v0.012
				c-0.007,0-0.014,0-0.022,0v0.012c-0.007,0-0.014,0.001-0.021,0.001v0.011c-0.007,0-0.015,0.001-0.021,0.001v0.012
				c-0.008,0-0.015,0-0.022,0v0.012c-0.007,0-0.014,0.002-0.022,0.002v0.011c-0.007,0-0.014,0.001-0.021,0.001v0.012
				c-0.007,0-0.015,0-0.021,0v0.012c-0.007,0-0.015,0.001-0.022,0.001v0.011c-0.007,0-0.014,0.001-0.022,0.001v0.011
				c-0.007,0-0.014,0.001-0.021,0.001v0.013c-0.008,0-0.015,0-0.022,0v0.012c-0.007,0-0.015,0.001-0.022,0.001v0.011
				c-0.007,0-0.014,0.001-0.021,0.001v0.012c-0.008,0-0.015,0-0.022,0v0.012c-0.007,0-0.014,0.001-0.022,0.001v0.011
				c-0.007,0-0.015,0.001-0.022,0.001v0.013c-0.007,0-0.014,0-0.021,0v0.012c-0.007,0-0.015,0-0.022,0v0.012
				c-0.007,0-0.015,0.001-0.022,0.001v0.011c-0.007,0-0.014,0.001-0.022,0.001v0.012c-0.007,0-0.014,0-0.021,0v0.012
				c-0.007,0-0.014,0.002-0.022,0.002v0.01c-0.007,0-0.014,0.002-0.021,0.002v0.012c-0.008,0-0.015,0-0.022,0v0.012
				c-0.007,0-0.015,0.001-0.021,0.001v0.011c-0.007,0-0.014,0.001-0.022,0.001v0.012c-0.007,0-0.014,0-0.021,0v0.012
				c-0.008,0-0.015,0-0.022,0v0.013c-0.007,0-0.015,0.001-0.021,0.001v0.011c-0.007,0-0.014,0.001-0.022,0.001v0.011
				c-0.007,0-0.014,0.001-0.021,0.001v0.012c-0.007,0-0.015,0.001-0.022,0.001v0.011c-0.007,0-0.015,0.001-0.021,0.001v0.011
				c-0.007,0.002-0.014,0.002-0.022,0.002v0.012c-0.007,0-0.014,0-0.021,0v0.012c-0.007,0-0.014,0.001-0.022,0.001v0.011
				c-0.007,0-0.014,0.001-0.021,0.001v0.012c-0.007,0-0.014,0-0.021,0v0.012c-0.007,0-0.015,0-0.022,0v0.012
				c-0.007,0-0.015,0.002-0.022,0.002v0.012c-0.007,0-0.014,0-0.021,0v0.012c-0.007,0-0.014,0-0.021,0v0.012
				c-0.007,0-0.015,0.001-0.022,0.001v0.011c-0.007,0-0.014,0.001-0.021,0.001v0.012c-0.008,0-0.015,0-0.022,0v0.012
				c-0.008,0-0.015,0.002-0.022,0.002v0.011c-0.007,0-0.015,0.001-0.022,0.001v0.012c-0.007,0-0.014,0-0.021,0v0.012
				c-0.008,0-0.015,0-0.022,0v0.012c-0.007,0-0.015,0.001-0.021,0.001v0.011c-0.007,0-0.015,0.001-0.022,0.001v0.013
				c-0.007,0-0.014,0.001-0.021,0.001v0.011c-0.007,0-0.015,0.001-0.022,0.001v0.011c-0.007,0-0.014,0.001-0.022,0.001v0.012
				c-0.007,0-0.014,0-0.021,0v0.012c-0.007,0-0.015,0.001-0.021,0.001v0.011c-0.007,0-0.015,0.001-0.022,0.001v0.011
				c-0.007,0-0.014,0.002-0.021,0.002v0.012c-0.007,0-0.015,0-0.022,0v0.012c-0.007,0-0.015,0.001-0.021,0.001v0.011
				c-0.007,0-0.014,0.001-0.022,0.001v0.012c-0.007,0-0.014,0-0.022,0v0.012c-0.007,0-0.014,0-0.021,0v0.012
				c-0.007,0-0.014,0.002-0.021,0.002v0.012c-0.007,0-0.014,0-0.022,0v0.012c-0.007,0-0.014,0.001-0.021,0.001v0.011
				c-0.007,0-0.015,0.001-0.022,0.001v0.011c-0.007,0-0.015,0.001-0.021,0.001v0.012c-0.007,0-0.014,0-0.021,0v0.013
				c-0.007,0-0.015,0-0.022,0v0.012c-0.007,0-0.015,0.001-0.022,0.001v0.012c-0.007,0-0.014,0-0.021,0v0.012
				c-0.007,0-0.014,0.001-0.021,0.001v0.011c-0.007,0-0.015,0.001-0.022,0.001v0.012c-0.007,0-0.014,0-0.022,0v0.013
				c-0.007,0-0.014,0-0.021,0v0.012c-0.008,0-0.015,0.001-0.022,0.001v0.011c-0.007,0-0.015,0.001-0.022,0.001v0.012
				c-0.007,0-0.014,0-0.021,0v0.012c-0.008,0-0.015,0.001-0.022,0.001v0.011c-0.008,0-0.015,0.002-0.022,0.002v0.012
				c-0.007,0-0.015,0-0.022,0v0.012c-0.007,0-0.014,0-0.021,0v0.012c-0.008,0-0.015,0.001-0.022,0.001v0.011
				c-0.007,0-0.015,0.001-0.022,0.001v0.012c-0.007,0-0.014,0-0.022,0v0.012c-0.007,0-0.014,0.002-0.021,0.002v0.011
				c-0.007,0-0.015,0.001-0.022,0.001v0.012c-0.007,0-0.015,0-0.021,0v0.012c-0.007,0-0.015,0-0.022,0v0.012
				c-0.007,0-0.015,0.001-0.021,0.001v0.011c-0.007,0-0.015,0.001-0.022,0.001v0.012c-0.007,0-0.014,0-0.021,0v0.013
				c-0.007,0-0.015,0.001-0.022,0.001v0.011c-0.007,0-0.015,0.001-0.021,0.001v0.012c-0.007,0-0.014,0-0.022,0v0.012
				c-0.007,0-0.014,0.001-0.022,0.001v0.011c-0.006,0-0.014,0.001-0.021,0.001v0.011c-0.007,0-0.015,0.002-0.022,0.002v0.012
				c-0.007,0-0.014,0-0.021,0v0.012c-0.008,0-0.015,0.001-0.022,0.001v0.011c-0.007,0-0.015,0.001-0.021,0.001v0.012
				c-0.007,0-0.015,0-0.022,0v0.012c-0.007,0-0.014,0.002-0.021,0.002v0.01c-0.007,0-0.015,0.002-0.022,0.002v0.012
				c-0.007,0-0.015,0-0.021,0v0.012c-0.007,0-0.015,0-0.022,0v0.012c-0.007,0-0.014,0.001-0.021,0.001v0.011
				c-0.007,0-0.015,0.001-0.022,0.001v0.012c-0.007,0-0.014,0-0.021,0v0.012c-0.007,0-0.015,0.002-0.021,0.002v0.011
				c-0.008,0-0.015,0.001-0.022,0.001v0.012c-0.007,0-0.015,0-0.022,0v0.012c-0.007,0-0.014,0.001-0.021,0.001v0.011
				c-0.008,0-0.015,0.001-0.022,0.001v0.011c-0.008,0-0.015,0.001-0.022,0.001v0.013c-0.007,0-0.014,0-0.022,0v0.012
				c-0.007,0-0.014,0.001-0.021,0.001v0.011c-0.008,0-0.015,0.001-0.022,0.001v0.012c-0.008,0-0.015,0-0.022,0v0.012
				c-0.007,0-0.014,0.001-0.021,0.001v0.011c-0.008,0-0.015,0.002-0.022,0.002v0.012c-0.007,0-0.014,0-0.022,0v0.012
				c-0.007,0-0.015,0-0.022,0v0.012c-0.007,0-0.014,0.001-0.021,0.001v0.011c-0.007,0-0.015,0.001-0.022,0.001v0.012
				c-0.007,0-0.015,0-0.022,0v0.012c-0.007,0-0.014,0.002-0.022,0.002v0.011c-0.007,0-0.014,0.001-0.021,0.001v0.012
				c-0.007,0-0.015,0-0.022,0v0.012c-0.007,0-0.014,0-0.022,0v0.012c-0.007,0-0.014,0.001-0.021,0.001v0.012
				c-0.007,0-0.015,0-0.021,0v0.012c-0.007,0-0.015,0-0.022,0v0.013c-0.007,0-0.014,0.001-0.021,0.001v0.011
				c-0.008,0-0.015,0.001-0.022,0.001v0.012c-0.007,0-0.015,0-0.021,0v0.012c-0.007,0-0.015,0.001-0.022,0.001v5.484
				c2.715-0.001,5.432-0.717,7.906-2.147c0.002-0.001,0.004-0.002,0.007-0.003c0.005-0.004,0.01-0.006,0.015-0.009
				c0.002-0.001,0.003-0.002,0.006-0.003c0.005-0.004,0.011-0.006,0.016-0.009c0.001-0.001,0.004-0.004,0.006-0.005
				c0.005-0.002,0.01-0.005,0.015-0.008c0.002-0.001,0.004-0.003,0.007-0.004c0.004-0.003,0.01-0.005,0.015-0.008
				c0.002-0.002,0.004-0.003,0.007-0.004c0.004-0.004,0.01-0.006,0.015-0.008c0.002-0.002,0.003-0.004,0.006-0.005
				c0.005-0.003,0.011-0.005,0.016-0.009c0.001-0.001,0.004-0.002,0.006-0.003c0.005-0.003,0.011-0.005,0.015-0.009
				c0.002-0.001,0.004-0.002,0.006-0.003c0.005-0.004,0.01-0.007,0.016-0.009c0.002-0.001,0.004-0.004,0.007-0.005
				c0.004-0.002,0.01-0.005,0.015-0.007c0.002-0.001,0.004-0.004,0.006-0.005c0.005-0.002,0.011-0.005,0.016-0.008
				c0.002-0.002,0.004-0.003,0.006-0.004c0.005-0.004,0.01-0.006,0.015-0.008c0.002-0.002,0.004-0.003,0.006-0.004
				c0.005-0.004,0.01-0.006,0.016-0.009c0.002-0.001,0.004-0.003,0.007-0.004c0.004-0.003,0.01-0.005,0.015-0.009
				c0.002-0.001,0.004-0.002,0.006-0.004c0.005-0.002,0.011-0.004,0.016-0.008c0.002-0.001,0.004-0.002,0.006-0.004
				c0.005-0.003,0.01-0.006,0.015-0.008c0.002-0.001,0.004-0.003,0.006-0.004c0.005-0.003,0.01-0.006,0.016-0.009
				c0.002-0.002,0.004-0.003,0.007-0.004c0.004-0.003,0.01-0.005,0.015-0.009c0.002-0.001,0.004-0.002,0.006-0.003
				c0.005-0.003,0.01-0.006,0.016-0.009c0.002-0.001,0.004-0.002,0.006-0.005c0.005-0.002,0.01-0.004,0.015-0.007
				c0.002-0.001,0.004-0.002,0.006-0.005c0.004-0.002,0.01-0.004,0.015-0.008c0.002-0.001,0.005-0.003,0.007-0.004
				c0.004-0.003,0.01-0.005,0.015-0.008c0.002-0.001,0.004-0.003,0.006-0.004c0.005-0.003,0.011-0.006,0.016-0.008
				c0.001-0.002,0.004-0.004,0.006-0.005c0.005-0.003,0.01-0.005,0.015-0.009c0.002,0,0.004-0.002,0.006-0.003
				c0.004-0.003,0.01-0.005,0.015-0.009c0.002-0.001,0.005-0.002,0.006-0.003c0.005-0.004,0.011-0.006,0.016-0.009
				c0.002-0.001,0.004-0.002,0.006-0.003c0.005-0.004,0.011-0.007,0.016-0.009c0.001-0.001,0.004-0.004,0.006-0.005
				c0.005-0.002,0.01-0.005,0.015-0.008c0.002-0.001,0.004-0.003,0.006-0.004c0.005-0.002,0.011-0.005,0.016-0.008
				c0.002-0.002,0.004-0.003,0.006-0.004c0.005-0.004,0.01-0.006,0.016-0.008c0.001-0.002,0.004-0.004,0.006-0.004
				c0.005-0.004,0.011-0.006,0.016-0.009c0.001-0.002,0.004-0.003,0.006-0.004c0.005-0.003,0.01-0.005,0.015-0.009
				c0.002-0.001,0.004-0.002,0.006-0.004c0.005-0.003,0.011-0.006,0.016-0.008c0.002-0.001,0.004-0.002,0.006-0.005
				c0.005-0.002,0.01-0.005,0.016-0.007c0.002-0.003,0.004-0.004,0.006-0.005c0.005-0.002,0.01-0.005,0.015-0.008
				c0.002-0.002,0.004-0.003,0.006-0.004c0.005-0.003,0.011-0.005,0.016-0.009c0.002-0.001,0.004-0.002,0.006-0.003
				c0.005-0.004,0.01-0.006,0.016-0.009c0.002-0.001,0.004-0.002,0.006-0.003c0.005-0.004,0.011-0.006,0.016-0.01
				c0.001-0.001,0.004-0.002,0.006-0.004c0.005-0.003,0.01-0.004,0.015-0.008c0.002-0.001,0.004-0.003,0.007-0.004
				c0.004-0.003,0.01-0.006,0.015-0.008c0.002-0.001,0.004-0.003,0.006-0.005c0.005-0.002,0.01-0.005,0.016-0.007
				c0.002-0.003,0.003-0.003,0.005-0.005c0.005-0.003,0.011-0.005,0.016-0.009c0.002-0.001,0.004-0.002,0.006-0.003
				c0.005-0.004,0.011-0.006,0.015-0.009c0.002-0.001,0.004-0.002,0.006-0.003c0.005-0.004,0.011-0.006,0.016-0.009
				c0.002-0.001,0.004-0.003,0.006-0.005c0.005-0.002,0.011-0.005,0.016-0.008c0.002-0.001,0.004-0.003,0.006-0.004
				c0.005-0.003,0.011-0.006,0.016-0.008c0.002-0.001,0.004-0.003,0.006-0.004c0.005-0.004,0.01-0.006,0.015-0.008
				c0.002-0.002,0.004-0.003,0.006-0.004c0.005-0.004,0.011-0.006,0.016-0.009c0.002-0.001,0.004-0.003,0.006-0.004
				c0.005-0.003,0.01-0.005,0.015-0.009c0.002-0.001,0.004-0.002,0.006-0.003c0.005-0.004,0.011-0.007,0.016-0.009
				c0.002-0.001,0.004-0.004,0.006-0.004c0.005-0.003,0.01-0.006,0.015-0.008c0.002-0.001,0.004-0.004,0.006-0.005
				c0.005-0.002,0.011-0.005,0.016-0.008c0.002-0.002,0.004-0.003,0.006-0.004c0.005-0.002,0.01-0.006,0.015-0.008
				c0.002-0.002,0.004-0.003,0.006-0.004c0.005-0.004,0.01-0.006,0.016-0.009c0.002-0.001,0.004-0.003,0.006-0.004
				c0.005-0.003,0.01-0.005,0.015-0.009c0.002-0.001,0.004-0.002,0.006-0.004c0.005-0.002,0.011-0.004,0.016-0.008
				c0.002-0.001,0.004-0.002,0.006-0.004c0.005-0.002,0.011-0.006,0.016-0.008c0.002-0.001,0.004-0.003,0.006-0.004
				c0.005-0.003,0.01-0.006,0.016-0.009c0.001,0,0.004-0.003,0.006-0.004c0.005-0.002,0.01-0.005,0.015-0.009
				c0.002-0.001,0.004-0.002,0.006-0.003c0.005-0.003,0.01-0.006,0.016-0.009c0.002-0.001,0.005-0.002,0.006-0.004
				c0.005-0.003,0.011-0.005,0.016-0.008c0.002-0.001,0.004-0.003,0.006-0.005c0.005-0.002,0.011-0.004,0.016-0.008
				c0.001-0.001,0.004-0.002,0.006-0.004c0.005-0.002,0.01-0.005,0.015-0.008c0.002-0.001,0.004-0.003,0.006-0.004
				c0.005-0.002,0.01-0.006,0.016-0.008c0.002-0.002,0.004-0.004,0.006-0.005c0.005-0.003,0.01-0.005,0.016-0.009
				c0.001-0.001,0.003-0.002,0.006-0.003c0.005-0.003,0.011-0.005,0.015-0.009c0.002-0.001,0.005-0.002,0.007-0.003
				c0.005-0.004,0.01-0.006,0.015-0.009c0.002-0.001,0.005-0.002,0.006-0.005c0.005-0.002,0.01-0.005,0.016-0.007
				c0.002-0.001,0.003-0.004,0.006-0.005c0.005-0.002,0.011-0.005,0.016-0.008c0.002-0.001,0.004-0.003,0.006-0.004
				c0.005-0.004,0.01-0.005,0.015-0.008c0.002-0.002,0.004-0.003,0.007-0.004c0.004-0.004,0.01-0.006,0.015-0.008
				c0.002-0.002,0.004-0.004,0.006-0.005c0.005-0.003,0.01-0.005,0.016-0.009c0.002-0.001,0.004-0.002,0.006-0.003
				c0.005-0.003,0.011-0.005,0.016-0.009c0.001-0.001,0.004-0.002,0.006-0.004c0.005-0.003,0.01-0.006,0.015-0.008
				c0.002-0.001,0.004-0.002,0.006-0.004c0.005-0.003,0.011-0.006,0.016-0.008c0.002-0.003,0.004-0.004,0.006-0.005
				c0.005-0.002,0.01-0.005,0.016-0.008c0.002-0.002,0.003-0.003,0.006-0.004c0.005-0.002,0.011-0.005,0.016-0.009
				c0.002-0.001,0.004-0.002,0.006-0.003c0.005-0.004,0.011-0.006,0.015-0.009c0.002-0.001,0.004-0.003,0.006-0.003
				c0.005-0.004,0.011-0.006,0.016-0.01c0.002-0.001,0.004-0.002,0.006-0.004c0.005-0.002,0.01-0.004,0.016-0.008
				c0.002-0.001,0.004-0.003,0.006-0.004c0.005-0.003,0.011-0.006,0.016-0.008c0.002-0.001,0.004-0.003,0.006-0.005
				c0.005-0.002,0.01-0.005,0.015-0.007c0.002-0.003,0.004-0.004,0.006-0.005c0.005-0.003,0.011-0.005,0.016-0.009
				c0.002-0.001,0.004-0.002,0.006-0.003c0.005-0.004,0.01-0.006,0.015-0.009c0.002-0.001,0.004-0.002,0.006-0.003
				c0.005-0.004,0.01-0.006,0.016-0.009c0.002-0.001,0.004-0.003,0.006-0.005c0.004-0.002,0.011-0.005,0.015-0.008
				c0.002-0.001,0.004-0.003,0.006-0.004c0.005-0.002,0.011-0.005,0.016-0.008c0.002-0.001,0.005-0.003,0.007-0.004
				c0.005-0.004,0.01-0.006,0.015-0.008c0.002-0.002,0.004-0.003,0.006-0.004c0.005-0.004,0.011-0.006,0.016-0.01
				c0.002-0.001,0.004-0.002,0.006-0.003c0.004-0.003,0.01-0.005,0.015-0.009c0.002-0.001,0.004-0.002,0.006-0.003
				c0.005-0.004,0.011-0.005,0.016-0.009c0.002-0.001,0.004-0.002,0.006-0.004c0.005-0.003,0.01-0.006,0.016-0.009
				c0.002,0,0.004-0.003,0.006-0.004c0.005-0.002,0.01-0.005,0.016-0.008c0.001-0.002,0.004-0.003,0.006-0.004
				c0.005-0.004,0.01-0.005,0.015-0.008c0.002-0.002,0.004-0.003,0.006-0.004c0.005-0.004,0.01-0.006,0.016-0.009
				c0.002-0.001,0.004-0.003,0.006-0.004c0.005-0.003,0.011-0.005,0.016-0.008c0.002-0.001,0.004-0.003,0.006-0.005
				c0.005-0.002,0.011-0.004,0.016-0.008c0.002-0.001,0.004-0.002,0.006-0.004c0.005-0.003,0.01-0.006,0.015-0.008
				c0.002-0.001,0.005-0.004,0.006-0.004c0.005-0.003,0.01-0.006,0.016-0.008c0.002-0.001,0.004-0.004,0.006-0.005
				c0.005-0.002,0.01-0.005,0.016-0.009c0.001-0.001,0.003-0.002,0.006-0.003c0.005-0.003,0.011-0.006,0.015-0.009
				c0.002-0.001,0.005-0.002,0.007-0.003c0.005-0.004,0.01-0.006,0.015-0.009c0.002-0.002,0.005-0.003,0.006-0.005
				c0.005-0.002,0.01-0.004,0.016-0.008c0.002-0.001,0.004-0.002,0.006-0.004c0.005-0.002,0.011-0.005,0.016-0.008
				c0.002-0.001,0.004-0.003,0.006-0.004c0.005-0.003,0.01-0.006,0.015-0.008c0.002-0.001,0.004-0.003,0.007-0.004
				c0.004-0.004,0.01-0.006,0.015-0.008c0.002-0.003,0.004-0.004,0.006-0.005c0.005-0.003,0.01-0.005,0.016-0.009
				c0.002-0.001,0.004-0.002,0.006-0.003c0.005-0.004,0.011-0.006,0.015-0.009c0.002-0.001,0.005-0.002,0.007-0.005
				c0.005-0.002,0.01-0.004,0.015-0.007c0.002-0.001,0.004-0.002,0.007-0.005c0.004-0.002,0.01-0.005,0.015-0.008
				c0.002-0.001,0.004-0.003,0.006-0.004c0.005-0.002,0.01-0.005,0.016-0.008c0.002-0.002,0.004-0.003,0.006-0.004
				c0.005-0.004,0.011-0.006,0.015-0.008c0.002-0.002,0.004-0.004,0.007-0.005c0.005-0.003,0.011-0.005,0.015-0.009
				c0.002-0.001,0.004-0.002,0.007-0.003c0.004-0.003,0.01-0.005,0.015-0.009c0.002-0.001,0.004-0.002,0.006-0.004
				c0.005-0.003,0.01-0.006,0.016-0.008c0.001-0.001,0.003-0.002,0.006-0.004c0.005-0.003,0.01-0.006,0.015-0.008
				c0.002-0.003,0.005-0.004,0.007-0.005c0.005-0.002,0.011-0.005,0.015-0.008c0.002-0.002,0.004-0.003,0.006-0.004
				c0.005-0.004,0.011-0.005,0.016-0.009c0.002-0.001,0.004-0.002,0.006-0.003c0.005-0.004,0.011-0.006,0.016-0.009
				c0.002-0.001,0.004-0.003,0.006-0.004c0.005-0.003,0.01-0.005,0.015-0.009c0.002-0.001,0.004-0.002,0.007-0.004
				c0.005-0.002,0.01-0.004,0.015-0.008c0.002-0.001,0.004-0.002,0.006-0.004c0.005-0.003,0.011-0.006,0.016-0.008
				c0.002-0.001,0.005-0.004,0.007-0.005c0.005-0.002,0.01-0.005,0.015-0.007c0.002-0.003,0.004-0.004,0.006-0.005
				c0.005-0.003,0.01-0.005,0.015-0.009c0.002-0.001,0.004-0.002,0.006-0.003c0.005-0.004,0.01-0.006,0.016-0.009
				c0.002-0.001,0.004-0.002,0.006-0.003c0.005-0.004,0.011-0.006,0.016-0.009c0.002-0.001,0.005-0.003,0.006-0.005
				c0.005-0.002,0.011-0.005,0.016-0.008c0.002-0.001,0.004-0.003,0.006-0.004c0.005-0.002,0.011-0.005,0.016-0.008
				c0.002-0.001,0.004-0.003,0.007-0.004c0.004-0.004,0.01-0.006,0.015-0.008c0.002-0.002,0.004-0.003,0.006-0.004
				c0.005-0.004,0.01-0.006,0.016-0.01c0.002-0.001,0.004-0.002,0.006-0.003c0.005-0.003,0.01-0.005,0.016-0.009
				c0.002-0.001,0.004-0.002,0.006-0.003c0.005-0.003,0.011-0.006,0.016-0.009c0.002-0.001,0.004-0.002,0.007-0.005
				c0.004-0.002,0.01-0.005,0.015-0.007c0.002-0.001,0.004-0.002,0.006-0.004c0.005-0.003,0.011-0.006,0.016-0.009
				c0.002-0.002,0.004-0.003,0.006-0.004c0.005-0.004,0.01-0.005,0.016-0.008c0.002-0.002,0.004-0.003,0.006-0.004
				c0.005-0.004,0.01-0.006,0.015-0.009c0.002-0.001,0.004-0.002,0.006-0.003c0.005-0.004,0.011-0.006,0.016-0.01
				c0.002-0.001,0.005-0.002,0.006-0.003c0.005-0.004,0.01-0.005,0.016-0.009c0.001-0.001,0.004-0.002,0.006-0.004
				c0.005-0.003,0.011-0.006,0.016-0.008c0.001-0.001,0.004-0.002,0.006-0.004c0.005-0.003,0.01-0.006,0.015-0.008
				c0.002-0.001,0.004-0.004,0.007-0.005c0.004-0.002,0.01-0.005,0.015-0.008c0.002-0.002,0.004-0.003,0.006-0.004
				c0.005-0.004,0.01-0.006,0.016-0.009c0.001-0.001,0.004-0.002,0.006-0.003c0.005-0.004,0.011-0.006,0.015-0.009
				c0.002-0.001,0.005-0.003,0.007-0.005c0.005-0.002,0.01-0.004,0.015-0.008c0.002-0.001,0.004-0.002,0.007-0.004
				c0.004-0.002,0.01-0.005,0.015-0.008c0.002-0.001,0.004-0.003,0.006-0.004c0.005-0.003,0.01-0.006,0.016-0.008
				c0.001-0.001,0.003-0.003,0.006-0.004c0.005-0.004,0.011-0.006,0.015-0.008c0.002-0.003,0.005-0.004,0.007-0.005
				c0.005-0.003,0.01-0.005,0.015-0.009c0.002-0.001,0.004-0.002,0.006-0.003c0.005-0.003,0.011-0.005,0.016-0.009
				c0.002-0.001,0.004-0.002,0.006-0.003c0.005-0.004,0.01-0.006,0.016-0.009c0.001-0.002,0.003-0.002,0.006-0.005
				c0.005-0.002,0.01-0.005,0.015-0.008c0.002-0.001,0.004-0.003,0.007-0.004c0.004-0.002,0.01-0.005,0.015-0.008
				c0.002-0.002,0.004-0.003,0.007-0.004c0.004-0.004,0.01-0.006,0.015-0.008c0.002-0.002,0.004-0.004,0.006-0.005
				c0.005-0.003,0.01-0.005,0.015-0.009c0.002,0,0.004-0.002,0.006-0.003c0.005-0.003,0.01-0.005,0.015-0.009
				c0.002-0.001,0.004-0.002,0.007-0.003c0.005-0.004,0.01-0.007,0.015-0.009c0.002-0.001,0.004-0.002,0.006-0.004
				c0.005-0.003,0.011-0.006,0.016-0.008c0.002-0.001,0.004-0.004,0.006-0.005c0.005-0.002,0.011-0.005,0.016-0.008
				c0.002-0.002,0.004-0.003,0.006-0.004c0.006-0.002,0.01-0.005,0.016-0.009c0.002-0.001,0.004-0.002,0.007-0.003
				c0.004-0.004,0.01-0.006,0.015-0.009c0.002-0.001,0.003-0.003,0.006-0.003c0.005-0.004,0.01-0.006,0.016-0.01
				c0.002-0.001,0.004-0.002,0.006-0.004c0.005-0.002,0.011-0.004,0.016-0.008c0.002-0.001,0.004-0.002,0.006-0.004
				c0.005-0.003,0.01-0.006,0.016-0.008c0.002-0.001,0.004-0.003,0.006-0.004c0.005-0.003,0.011-0.006,0.016-0.008
				c0.002-0.001,0.004-0.004,0.006-0.005c0.005-0.003,0.011-0.005,0.016-0.009c0.002-0.001,0.004-0.002,0.006-0.003
				c0.005-0.003,0.01-0.006,0.016-0.009c0.001-0.001,0.003-0.002,0.006-0.003c0.005-0.004,0.01-0.006,0.015-0.009
				c0.002-0.001,0.005-0.003,0.007-0.005c0.004-0.002,0.01-0.004,0.015-0.008c0.002-0.001,0.005-0.003,0.006-0.004
				c0.005-0.002,0.01-0.006,0.016-0.008c0.001-0.001,0.004-0.003,0.006-0.004c0.005-0.003,0.011-0.006,0.016-0.008
				c0.001-0.002,0.004-0.004,0.006-0.005c0.005-0.003,0.01-0.005,0.015-0.009c0.002-0.001,0.004-0.002,0.006-0.003
				c0.005-0.003,0.011-0.005,0.016-0.009c0.002-0.001,0.004-0.002,0.006-0.003c0.005-0.003,0.011-0.006,0.016-0.009
				c0.001-0.001,0.004-0.002,0.006-0.003c0.005-0.004,0.011-0.007,0.015-0.009c0.002-0.001,0.005-0.004,0.007-0.005
				c0.005-0.002,0.01-0.005,0.015-0.008c0.002-0.002,0.004-0.003,0.006-0.004c0.005-0.002,0.01-0.005,0.016-0.008
				c0.002-0.002,0.004-0.003,0.006-0.005c0.005-0.003,0.01-0.005,0.016-0.008c0.001-0.001,0.004-0.002,0.006-0.004
				c0.005-0.003,0.011-0.005,0.015-0.008c0.002-0.002,0.004-0.003,0.007-0.004c0.005-0.003,0.01-0.005,0.015-0.009
				c0.002-0.001,0.004-0.002,0.006-0.004c0.005-0.002,0.01-0.006,0.016-0.008c0.002-0.001,0.004-0.004,0.006-0.005
				c0.005-0.002,0.01-0.005,0.016-0.007c0.001-0.001,0.003-0.004,0.006-0.005c0.005-0.002,0.01-0.005,0.015-0.008
				c0.002-0.002,0.004-0.003,0.007-0.004c0.005-0.004,0.01-0.006,0.015-0.009c0.002-0.001,0.004-0.002,0.006-0.003
				c0.005-0.004,0.011-0.006,0.016-0.009c0.002-0.001,0.004-0.002,0.006-0.005c0.005-0.002,0.01-0.004,0.016-0.008
				c0.001-0.001,0.003-0.002,0.006-0.004c0.005-0.002,0.01-0.004,0.015-0.008c0.002-0.001,0.004-0.003,0.007-0.004
				c0.005-0.003,0.01-0.006,0.015-0.008c0.002-0.001,0.003-0.003,0.006-0.004c0.005-0.003,0.011-0.006,0.016-0.008
				c0.002-0.003,0.004-0.004,0.006-0.005c0.005-0.003,0.01-0.005,0.015-0.009c0.002-0.001,0.004-0.002,0.007-0.003
				c0.005-0.003,0.01-0.006,0.015-0.009c0.002-0.001,0.004-0.002,0.006-0.003c0.005-0.004,0.011-0.006,0.016-0.009
				c0.002-0.001,0.004-0.002,0.006-0.005c0.005-0.002,0.011-0.005,0.016-0.008c0.002-0.001,0.004-0.003,0.006-0.004
				c0.005-0.003,0.011-0.006,0.015-0.008c0.002-0.002,0.004-0.003,0.006-0.004c0.005-0.004,0.01-0.006,0.016-0.008
				c0.002-0.002,0.004-0.004,0.007-0.005c0.005-0.003,0.01-0.005,0.015-0.009c0.002-0.001,0.004-0.002,0.006-0.003
				c0.005-0.003,0.011-0.005,0.016-0.009c0.002-0.001,0.004-0.002,0.006-0.003c0.005-0.004,0.01-0.007,0.015-0.009
				c0.002-0.001,0.004-0.002,0.006-0.004c0.005-0.003,0.01-0.006,0.016-0.008c0.002-0.002,0.004-0.004,0.007-0.005
				c0.004-0.002,0.01-0.005,0.015-0.008c0.002-0.002,0.004-0.003,0.006-0.004c0.005-0.002,0.011-0.005,0.016-0.008
				c0.002-0.002,0.004-0.003,0.006-0.004c0.005-0.004,0.01-0.006,0.015-0.009c0.002-0.001,0.004-0.003,0.007-0.004
				c0.005-0.003,0.01-0.005,0.015-0.009c0.002,0,0.004-0.002,0.006-0.004c0.005-0.002,0.01-0.004,0.016-0.008
				c0.002-0.001,0.005-0.002,0.006-0.004c0.005-0.003,0.011-0.006,0.016-0.008c0.002-0.001,0.004-0.003,0.006-0.005
				c0.005-0.002,0.01-0.005,0.015-0.007c0.002-0.001,0.004-0.004,0.007-0.005c0.005-0.002,0.01-0.005,0.015-0.009
				c0.002-0.001,0.005-0.002,0.006-0.003c0.005-0.003,0.01-0.005,0.016-0.009c0.002-0.001,0.004-0.002,0.006-0.003
				c0.005-0.004,0.011-0.006,0.016-0.009c0.001-0.001,0.003-0.003,0.006-0.005c0.005-0.002,0.011-0.004,0.015-0.008
				c0.002-0.001,0.005-0.003,0.007-0.004c0.005-0.002,0.01-0.005,0.015-0.008c0.002-0.001,0.004-0.003,0.006-0.004
				c0.005-0.003,0.01-0.006,0.016-0.008c0.001-0.002,0.004-0.003,0.006-0.004c0.005-0.004,0.01-0.006,0.016-0.008
				c0.001-0.002,0.004-0.004,0.006-0.005c0.005-0.003,0.011-0.005,0.015-0.009c0.002-0.001,0.005-0.002,0.007-0.003
				c0.005-0.004,0.01-0.006,0.015-0.009c0.002-0.001,0.004-0.002,0.006-0.003c0.005-0.004,0.011-0.007,0.016-0.009
				c0.002-0.001,0.004-0.004,0.006-0.005c0.005-0.002,0.01-0.005,0.016-0.008c0.001-0.001,0.003-0.003,0.006-0.004
				c0.005-0.002,0.011-0.006,0.015-0.008c0.002-0.002,0.004-0.003,0.007-0.004c0.005-0.004,0.01-0.006,0.015-0.008
				c0.002-0.002,0.004-0.003,0.006-0.005c0.005-0.003,0.011-0.005,0.016-0.008c0.001-0.002,0.004-0.003,0.006-0.004
				c0.005-0.003,0.01-0.005,0.015-0.009c0.002-0.001,0.004-0.002,0.006-0.004c0.006-0.002,0.01-0.006,0.016-0.008
				c0.002-0.001,0.004-0.002,0.007-0.005c0.005-0.002,0.01-0.005,0.015-0.007c0.002-0.001,0.004-0.003,0.006-0.005
				c0.005-0.002,0.011-0.005,0.016-0.008c0.002-0.002,0.004-0.003,0.006-0.004c0.005-0.004,0.011-0.006,0.015-0.009
				c0.002-0.001,0.004-0.002,0.007-0.003c0.004-0.004,0.01-0.006,0.015-0.009c0.002-0.001,0.004-0.003,0.007-0.005
				c0.004-0.002,0.01-0.004,0.015-0.007c0.002-0.002,0.003-0.003,0.006-0.005c0.005-0.002,0.011-0.004,0.016-0.008
				c0.002-0.001,0.004-0.003,0.006-0.004c0.005-0.003,0.011-0.006,0.015-0.008c0.002-0.001,0.004-0.003,0.006-0.004
				c0.005-0.003,0.01-0.006,0.016-0.008c0.002-0.003,0.004-0.004,0.007-0.005c0.004-0.003,0.01-0.005,0.015-0.009
				c0.002-0.001,0.004-0.002,0.006-0.003c0.005-0.003,0.011-0.006,0.016-0.009c0.002-0.001,0.004-0.002,0.006-0.003
				c0.005-0.004,0.011-0.006,0.015-0.009c0.002-0.001,0.004-0.002,0.007-0.005c0.004-0.002,0.01-0.005,0.015-0.008
				c0.002-0.001,0.004-0.003,0.007-0.004c0.004-0.002,0.01-0.006,0.015-0.008c0.002-0.001,0.004-0.003,0.006-0.004
				c0.005-0.004,0.011-0.006,0.016-0.008c0.002-0.002,0.004-0.004,0.006-0.005c0.005-0.003,0.01-0.005,0.015-0.009
				c0.002-0.001,0.004-0.002,0.007-0.003c0.004-0.003,0.01-0.005,0.015-0.009c0.002-0.001,0.003-0.002,0.006-0.003
				c0.005-0.003,0.01-0.007,0.016-0.009c0.002-0.001,0.004-0.002,0.006-0.005c0.005-0.002,0.011-0.005,0.016-0.007
				c0.002-0.002,0.004-0.004,0.006-0.005c0.005-0.002,0.01-0.005,0.015-0.008c0.002-0.002,0.004-0.003,0.007-0.004
				c0.004-0.002,0.01-0.006,0.015-0.008c0.002-0.002,0.004-0.003,0.006-0.004c0.005-0.004,0.01-0.006,0.016-0.009
				c0.002-0.001,0.004-0.003,0.007-0.004c0.005-0.003,0.01-0.005,0.015-0.009c0.001-0.001,0.003-0.002,0.006-0.004
				c0.005-0.002,0.01-0.004,0.015-0.008c0.002-0.001,0.005-0.002,0.007-0.004c0.004-0.003,0.01-0.006,0.015-0.008
				c0.002-0.001,0.004-0.003,0.006-0.004c0.005-0.003,0.01-0.006,0.016-0.008c0.002-0.001,0.004-0.004,0.006-0.005
				c0.005-0.002,0.01-0.005,0.016-0.009c0.001-0.001,0.003-0.002,0.006-0.003c0.005-0.004,0.011-0.005,0.015-0.009
				c0.002-0.001,0.005-0.002,0.007-0.003c0.005-0.004,0.01-0.006,0.015-0.009c0.002-0.001,0.004-0.002,0.006-0.003
				c0.005-0.004,0.011-0.006,0.016-0.01c0.002-0.001,0.004-0.002,0.006-0.004c0.005-0.002,0.01-0.005,0.015-0.008
				c0.002-0.001,0.004-0.003,0.007-0.004c0.005-0.003,0.011-0.006,0.015-0.008c0.002-0.001,0.004-0.003,0.007-0.004
				c0.004-0.004,0.01-0.006,0.015-0.008c0.002-0.002,0.004-0.004,0.006-0.005c0.005-0.003,0.01-0.005,0.015-0.009
				c0.002-0.001,0.004-0.002,0.007-0.003c0.005-0.004,0.01-0.006,0.015-0.009c0.002-0.001,0.004-0.002,0.006-0.003
				c0.005-0.004,0.012-0.007,0.016-0.009c0.002-0.001,0.004-0.004,0.007-0.005c0.004-0.002,0.01-0.005,0.015-0.008
				c0.002-0.001,0.004-0.003,0.006-0.004c0.005-0.002,0.011-0.005,0.016-0.008c0.001-0.002,0.003-0.003,0.006-0.004
				c0.005-0.004,0.011-0.006,0.015-0.008c0.002-0.002,0.004-0.003,0.007-0.004c0.004-0.004,0.01-0.006,0.015-0.009
				c0.002-0.002,0.004-0.003,0.006-0.004c0.005-0.003,0.01-0.005,0.016-0.009c0.002-0.001,0.003-0.002,0.006-0.004
				c0.005-0.002,0.011-0.004,0.016-0.008c0.002-0.001,0.004-0.002,0.006-0.005c0.005-0.002,0.011-0.005,0.015-0.007
				c0.002-0.001,0.004-0.004,0.006-0.005c0.005-0.002,0.011-0.005,0.016-0.008c0.002-0.002,0.004-0.003,0.006-0.004
				c0.005-0.002,0.01-0.006,0.015-0.009c0.002-0.001,0.004-0.002,0.006-0.003c0.005-0.004,0.011-0.006,0.016-0.009
				c0.002-0.001,0.004-0.003,0.006-0.004c0.005-0.003,0.011-0.005,0.015-0.009c0.002-0.001,0.004-0.002,0.006-0.004
				c0.005-0.002,0.011-0.004,0.016-0.008c0.002-0.001,0.004-0.002,0.006-0.004c0.005-0.003,0.01-0.006,0.015-0.008
				c0.002-0.001,0.004-0.004,0.006-0.005c0.005-0.002,0.011-0.005,0.016-0.007c0.002-0.002,0.004-0.003,0.006-0.005
				c0.005-0.003,0.01-0.005,0.016-0.009c0.002-0.001,0.004-0.002,0.007-0.003c0.004-0.004,0.01-0.006,0.015-0.009
				c0.002-0.001,0.004-0.002,0.006-0.003c0.005-0.004,0.01-0.006,0.016-0.009c0.002-0.001,0.004-0.003,0.006-0.005
				c0.005-0.002,0.011-0.005,0.016-0.007c0.001-0.002,0.004-0.004,0.006-0.005c0.005-0.002,0.01-0.005,0.015-0.008
				c0.002-0.001,0.004-0.003,0.007-0.004c0.004-0.004,0.01-0.006,0.015-0.008c0.002-0.002,0.004-0.003,0.006-0.004
				c0.005-0.004,0.011-0.006,0.016-0.01c0.002,0,0.004-0.002,0.006-0.003c0.005-0.003,0.01-0.005,0.016-0.009
				c0.001-0.001,0.004-0.002,0.006-0.003c0.005-0.004,0.01-0.006,0.015-0.009c0.002-0.001,0.004-0.002,0.006-0.004
				c0.005-0.003,0.01-0.006,0.016-0.008c0.002-0.001,0.004-0.002,0.006-0.004c0.005-0.003,0.01-0.006,0.016-0.009
				c0.002-0.002,0.004-0.003,0.006-0.004c0.005-0.002,0.01-0.006,0.016-0.008c0.001-0.002,0.003-0.003,0.006-0.004
				c0.005-0.004,0.01-0.006,0.015-0.009c0.002-0.001,0.005-0.003,0.006-0.004c0.005-0.003,0.011-0.005,0.016-0.009
				c0.002,0,0.004-0.002,0.006-0.003c0.005-0.003,0.011-0.005,0.016-0.009c0.001-0.001,0.004-0.002,0.006-0.004
				c0.005-0.003,0.01-0.006,0.015-0.008c0.002-0.001,0.005-0.003,0.007-0.004c0.004-0.003,0.01-0.006,0.015-0.008
				c0.002-0.001,0.004-0.004,0.006-0.005c0.005-0.002,0.01-0.005,0.016-0.009c0.002-0.001,0.004-0.002,0.006-0.003
				c0.005-0.003,0.011-0.005,0.016-0.009c0.001-0.001,0.004-0.002,0.006-0.003c0.005-0.004,0.01-0.006,0.015-0.009
				c0.002-0.001,0.004-0.003,0.007-0.003c0.005-0.004,0.01-0.006,0.015-0.01c0.002-0.001,0.004-0.002,0.006-0.004
				c0.005-0.002,0.01-0.005,0.016-0.008c0.002-0.001,0.004-0.003,0.006-0.004c0.005-0.003,0.011-0.006,0.016-0.008
				c0.002-0.001,0.004-0.003,0.006-0.005c0.005-0.003,0.011-0.005,0.015-0.007c0.002-0.002,0.004-0.004,0.006-0.005
				c0.005-0.003,0.011-0.005,0.016-0.009c0.002-0.001,0.004-0.002,0.006-0.003c0.005-0.003,0.01-0.005,0.015-0.009
				c0.002-0.001,0.004-0.002,0.006-0.003c0.005-0.004,0.011-0.006,0.016-0.009c0.002-0.001,0.004-0.004,0.006-0.005
				c0.005-0.002,0.011-0.005,0.015-0.008c0.002-0.001,0.004-0.003,0.007-0.004c0.004-0.002,0.01-0.005,0.015-0.008
				c0.002-0.002,0.004-0.003,0.006-0.004c0.005-0.004,0.01-0.006,0.015-0.008c0.002-0.002,0.004-0.003,0.006-0.004
				c0.005-0.004,0.011-0.006,0.016-0.009c0.002-0.002,0.004-0.003,0.006-0.004c0.005-0.003,0.01-0.005,0.015-0.009
				c4.946-2.859,7.899-7.977,7.899-13.69C181.984,452.081,176.457,442.508,167.56,437.371z"/>
			<path opacity="0.2" fill="#2F3694" d="M161.026,441.034l-1.38-0.797v6.389c6.408,4.315,10.329,11.605,10.329,19.392
				c0,3.735-1.93,7.081-5.163,8.95c-1.617,0.935-3.391,1.401-5.166,1.403v5.484c2.715-0.001,5.432-0.717,7.906-2.147
				c4.947-2.858,7.899-7.977,7.899-13.69C175.451,455.744,169.923,446.171,161.026,441.034z"/>
		</g>
	</g>
</g>
<g>
	<path fill="#E0A1C8" d="M302.882,310.205l11.274,7.66c0,0,4.752,4.879,6.431,6.398c1.677,1.52,2.795-0.14,1.77-2.098
		c-0.675-1.289-3.046-5.434-4.587-8.115c-0.839-1.461-2.357-2.437-3.896-2.51l-1.581-0.074l-2.448-1.583
		c0,0-1.093-0.744-1.371-0.795c-0.28-0.052-2.237-0.504-2.517-0.463C305.678,308.669,302.882,310.205,302.882,310.205z"/>
	<path fill="#2F3694" d="M312.638,315.455c0.481,1.082,1.339,1.991,2.174,2.867c0.852,0.894,1.704,1.787,2.555,2.681
		c0.798,0.838,1.595,1.675,2.392,2.511c0.412,0.433,0.837,0.875,1.352,1.148c0.516,0.271,1.146,0.339,1.524,0.014
		c0.328-0.283,0.393-0.804,0.282-1.286c-0.11-0.483-0.369-0.942-0.624-1.391c-1.464-2.573-2.928-5.146-4.391-7.72
		c-0.322-0.564-0.653-1.142-1.126-1.597c-0.777-0.746-3.016-1.704-3.873-1.208C311.887,312.065,312.173,314.413,312.638,315.455z"/>
	<path fill="#E0A1C8" d="M328.568,296.543l4.749,2.886l6.525,2.705c0,0,4.753,4.007,6.431,5.218c1.677,1.211,2.795-0.652,1.77-2.423
		c-0.675-1.165-3.046-4.875-4.586-7.273c-0.84-1.307-2.358-2.004-3.896-1.794l-1.581,0.216l-2.448-1.134
		c0,0-1.092-0.543-1.371-0.543c-0.28,0-2.237-0.094-2.517,0C331.364,294.492,328.568,296.543,328.568,296.543z"/>
	<path fill="#444B9F" d="M302.939,266.479l6.888-5.299l3.708,23.237L337,295.62c0,0-2.533-1.308-3.683,0.807
		c-1.436,2.637,0,3.002,0,3.002l-26.407-8.252c-1.149-0.359-2.028-1.292-2.316-2.462l-5.011-20.293L302.939,266.479z"/>
	<path fill="#2F3694" d="M288.81,261.004c-0.329,7.138-2.132,28.799-1.733,30.925c0.538,2.867,12.695,16.509,19.595,21.302
		c0.044-0.064,0.094-0.141,0.146-0.222c1.091-1.722,3.233-2.592,5.117-1.815l0.066,0.028c-3.864-8.6-7.543-12.693-14.185-19.388
		c0.832-3.289,0.551-16.198,1.382-19.489c3.396-0.516,11.112-5.351,11.112-5.351s0.858-4.676-0.524-7.82
		c-3.796-0.695-7.592-1.392-11.388-2.087C294.947,256.454,291.04,258.293,288.81,261.004z"/>
	<circle fill="#E0A1C8" cx="297.545" cy="218.187" r="8.697"/>
	<path fill="#FBFEFF" d="M311.16,238.011c0,0,3.735-9.791-0.247-12.542c-3.015-0.329-6.711,1.415-6.711,1.415
		s-7.828,5.04-13.046,7.649c-2.629,1.314-0.784,7.628-0.698,13.939c0.084,6.216-1.609,12.441-1.609,12.441s8.106,3.479,12.454,3.189
		c4.35-0.29,9.567-2.319,8.986-4.349c-0.579-2.029-3.188-9.566-2.028-12.174C309.421,244.969,311.16,238.011,311.16,238.011z"/>
	<path fill="#D9D9ED" d="M291.157,234.532c1.396-0.698,2.978-1.571,4.547-2.474c1.301,0.51,2.331,0.968,2.331,0.968l0.874,8.743
		c0,0-0.479,13.902-1.438,21.945c-4.102-0.862-8.622-2.801-8.622-2.801s1.793-6.724,1.702-12.905
		C290.458,241.668,288.515,235.853,291.157,234.532z"/>
	<circle fill="#E0A1C8" cx="269.181" cy="237.828" r="3.728"/>
	<path fill="#FBFEFF" d="M300.406,229.437l-9.25,5.095c0,0-2.608,0.93-5.217,7.277c-2.61,6.348-6.379,12.436-8.118,13.016
		c-1.739,0.58-6.985-13.067-8.144-13.937c-1.16-0.87-3.162-2.818-2.872,0.921c0.29,3.739,2.609,20.553,6.377,22.003
		c3.769,1.45,28.528-18.141,28.817-23.358C302.29,235.235,300.406,229.437,300.406,229.437z"/>
	<path fill="#E0A1C8" d="M269.822,240.163c1.16,0.87,6.26,15.242,8,14.662c0.097-0.033,0.202-0.087,0.313-0.154
		c0.031-0.019,0.063-0.041,0.096-0.063c0.087-0.058,0.177-0.125,0.27-0.201c0.03-0.026,0.062-0.049,0.095-0.077
		c0.118-0.104,0.241-0.22,0.369-0.35c0.04-0.041,0.082-0.087,0.122-0.131c0.093-0.099,0.188-0.202,0.284-0.313
		c0.056-0.063,0.111-0.129,0.168-0.197c0.092-0.11,0.187-0.229,0.281-0.35c0.097-0.123,0.196-0.251,0.296-0.385
		c0.083-0.113,0.168-0.226,0.253-0.345c0.088-0.122,0.178-0.249,0.265-0.377c0.057-0.083,0.115-0.166,0.173-0.251
		c0.346-0.51,0.7-1.068,1.061-1.666c0.017-0.027,0.032-0.053,0.049-0.08c0.534-0.889,1.074-1.859,1.61-2.887
		c0-0.001,0-0.002,0.001-0.004c1.236,1.809,3.575,4.904,6.226,6.943c-6.934,5.664-14.603,10.63-16.568,9.875
		c-3.769-1.45-6.088-18.264-6.377-22.003C266.516,238.07,268.663,239.293,269.822,240.163z"/>
	<path fill="#E0A1C8" d="M303.113,220.394l1.302,9.333l0,0c-0.916,2.096-3.021,3.419-5.307,3.339l-1.073-0.039l-2.084-9.812
		L303.113,220.394z"/>
	<path fill="#2F3694" d="M291.818,220.721c-0.043-1.289,1.732-2.2,2.755-1.416c0.729,0.559,0.89,1.632,0.628,2.511
		c-0.262,0.88-0.859,1.613-1.445,2.321c2.751,1.845,5.73,3.349,8.849,4.467c1.298-1.879,2.595-3.76,3.892-5.639
		c0.587-0.85,1.183-1.721,1.453-2.717c0.614-2.266-0.298-6.264-1.807-8.062c-2.125-2.531-5.014-3.647-8.307-3.913
		c-2.549-0.205-5.637,1.555-7.286,3.541C288.374,214.432,290.802,217.907,291.818,220.721z"/>
	<path fill="#2F3694" d="M311.264,224.973c0.068,0.261,0.138,0.532,0.085,0.797c-0.056,0.278-0.235,0.512-0.413,0.731
		c-0.895,1.096-1.898,2.105-3.01,2.978c-0.92,0.722-1.917,1.353-2.994,1.808c-3.575,1.513-7.645,0.977-11.485,0.415
		c0.268-2.52,0.354-5.058,0.263-7.59c1.614-0.594,2.792-2.222,2.85-3.941c0.04-1.192-0.408-2.391-0.171-3.561
		c0.677-3.351,5.39-4.055,8.162-3.641c2.732,0.408,3.593,2.78,4.482,5.101C309.899,220.329,310.645,222.634,311.264,224.973z"/>
	<circle fill="#E1E3F2" cx="293.705" cy="222.865" r="0.928"/>
	<path fill="#2F3694" d="M338.324,300.003c0.483,0.993,1.339,1.744,2.174,2.468c0.852,0.736,1.703,1.475,2.556,2.212
		c0.797,0.69,1.594,1.382,2.391,2.072c0.413,0.355,0.837,0.721,1.352,0.898c0.516,0.179,1.147,0.129,1.524-0.265
		c0.328-0.345,0.393-0.877,0.282-1.339c-0.109-0.464-0.369-0.874-0.624-1.276c-1.464-2.304-2.928-4.608-4.391-6.912
		c-0.321-0.506-0.652-1.023-1.126-1.391c-0.776-0.604-3.015-1.15-3.872-0.497C337.574,296.75,337.86,299.046,338.324,300.003z"/>
</g>
<g>
	<circle fill="#E3A5CA" cx="159.185" cy="232.829" r="2.865"/>
	<path fill="#E3A5CA" d="M160.619,234.089c0,0,7.868,16.294,8.593,19.172c0.559,2.217-3.548,5.353-5.173,3.634
		c-1.625-1.719-5.904-22.096-5.904-22.096L160.619,234.089z"/>
	<path fill="#CD912A" d="M175.913,262.613c-3.223-3.902-5.219-8.641-7.541-13.139c-0.285-0.553-0.642-1.157-1.245-1.311
		c-0.471-0.12-0.959,0.075-1.406,0.266c-1.789,0.763-3.878,1.962-3.837,3.906c0.013,0.606,0.248,1.184,0.483,1.743
		c3.573,8.53,7.747,16.809,12.481,24.752c0.742,1.247,1.703,2.619,3.147,2.758c1.534,0.146,2.785-1.186,3.614-2.485
		c1.391-2.182,3.859-6.547,2.567-9.22C182.831,267.101,178,265.138,175.913,262.613z"/>
	<circle fill="#E3A5CA" cx="139.351" cy="242.872" r="2.865"/>
	<path fill="#444B9F" d="M182.41,303.04c0,0,3.235,24.838,3.507,36.842c0.272,12.003,5.007,12.312,8.369,20.068
		s5.544,15.669,5.544,15.669l-1.801,1.016c0,0-15.931-19.566-17.841-21.476c-1.91-1.91-8.184-34.646-8.184-34.646L182.41,303.04z"/>
	<path fill="#2F3694" d="M198.029,376.635c0,0,0.743,2.227,1.361,3.958c0.618,1.732,0,5.567,0.99,7.175
		c0.99,1.608,3.711,0.249,3.587-1.112s-0.866-6.557-1.237-7.423c-0.371-0.866-2.9-3.613-2.9-3.613L198.029,376.635z"/>
	<circle fill="#E3A5CA" cx="169.952" cy="261.121" r="8.697"/>
	<path fill="#2F3694" d="M166.292,378.327c0,0-0.165,3.568-0.206,3.887c-0.042,0.319-1.553,1.085-3.767,0.641
		c-2.213-0.445-8.424-2.512-9.512-3.58c-1.088-1.069,2.351-0.84,4.454-0.646c2.103,0.192,6.181-0.302,6.181-0.302H166.292z"/>
	<path fill="#2F3694" d="M183.49,311.996l-9.576,7.876c0,0-5.614,19.268-6.189,23.869c-0.575,4.601-1.448,29.396-1.434,34.586
		c0.009,3.215-2.305,1.65-3.167,1.075s-4.602-31.896-4.602-40.105c0-8.209,3.625-36.831,3.625-36.831l20.262,0.079L183.49,311.996z"
		/>
	<path fill="#F0C43A" d="M180.667,290.512c1.16-2.608,2.899-9.567,2.899-9.567c1.957-5.877,1.349-9.138,0.476-10.854
		c-3.085-1.542-8.369,0.962-8.369,0.962s-7.606,2.706-12.109,6.415c-1.586,1.306-0.546,8.087-0.208,15.186
		c0.225,4.727-2.101,11.194-2.101,11.194s8.105,3.479,12.454,3.189s9.567-2.319,8.987-4.348
		C182.116,300.659,179.507,293.121,180.667,290.512z"/>
	<path fill="#E3A5CA" d="M140.785,244.132c0,0,7.867,16.293,8.593,19.171c0.559,2.216-3.547,5.353-5.173,3.634
		c-1.625-1.72-5.904-22.096-5.904-22.096L140.785,244.132z"/>
	<path fill="#CD912A" d="M163.62,277.573c1.294-0.872,1.015,1.735,2.585,0.832c1.299,0.511,1.93,0.367,1.93,0.367l0.919,6.067
		c0,0,1.782,13.767,0.823,21.809c-4.101-0.861-8.622-2.802-8.622-2.802s0.354-2.829,1.365-6.322
		C164.662,290.471,161.669,278.89,163.62,277.573z"/>
	<path fill="#E3A5CA" d="M175.519,263.328l1.302,9.333l0,0c-0.917,2.096-3.021,3.419-5.308,3.338l-1.072-0.038l-2.085-9.811
		L175.519,263.328z"/>
	<path fill="#2F3694" d="M164.225,263.655c-0.042-1.289,1.732-2.199,2.755-1.416c0.729,0.56,0.89,1.632,0.628,2.512
		s-0.861,1.614-1.445,2.321c2.75,1.844,5.729,3.349,8.848,4.466c1.298-1.879,2.595-3.759,3.892-5.639
		c0.586-0.85,1.183-1.72,1.454-2.717c0.613-2.266-0.298-6.264-1.808-8.062c-2.125-2.53-5.013-3.646-8.307-3.912
		c-2.548-0.205-5.636,1.554-7.286,3.54C160.78,257.366,163.208,260.842,164.225,263.655z"/>
	<circle fill="#F0C43A" cx="176.354" cy="254.287" r="6.545"/>
	<circle fill="#2F3694" cx="177.467" cy="253.174" r="7.029"/>
	<path fill="#F0C43A" d="M165.023,276.914c0.858,0.596,1.716,1.19,2.573,1.786c0.888,0.615,1.792,1.248,2.429,2.12
		c0.637,0.873,0.966,2.047,0.573,3.053c-0.536,1.372-2.14,1.952-3.58,2.266c-2.077,0.451-4.201,0.686-6.326,0.695
		c-2.098-0.788-4.171-1.677-6.046-2.906c-3.881-2.542-6.384-6.699-8.404-10.877c-1.036-2.143-1.981-4.329-2.832-6.552
		c1.37,0.132,2.49-0.299,3.79-0.751c1.299-0.452,2.445-1.653,2.367-3.027c1.539,3.032,3.004,5.94,4.542,8.971
		c0.542,1.07,1.092,2.15,1.853,3.078C157.792,276.998,162.179,277.379,165.023,276.914z"/>
</g>
</svg>
