<svg xmlns="http://www.w3.org/2000/svg" xmlns:xlink="http://www.w3.org/1999/xlink" width="770.102" height="619.213" viewBox="0 0 770.102 619.213">
  <defs>
    <linearGradient id="linear-gradient" x1="0.097" y1="0.054" x2="1.11" y2="1.177" gradientUnits="objectBoundingBox">
      <stop offset="0" stop-color="#a8dadc"/>
      <stop offset="1" stop-color="#457b9d"/>
    </linearGradient>
    <linearGradient id="linear-gradient-2" x1="2.471" y1="0.5" x2="0.093" y2="0.5" xlink:href="#linear-gradient"/>
    <linearGradient id="linear-gradient-3" y1="0.5" x2="1" y2="0.5" gradientUnits="objectBoundingBox">
      <stop offset="0" stop-color="#ec5154"/>
      <stop offset="0.099" stop-color="#eb4b4f"/>
      <stop offset="1" stop-color="#e31922"/>
    </linearGradient>
    <linearGradient id="linear-gradient-6" y1="0.5" x2="1" y2="0.5" gradientUnits="objectBoundingBox">
      <stop offset="0" stop-color="#5791c9"/>
      <stop offset="1" stop-color="#002d54"/>
    </linearGradient>
    <linearGradient id="linear-gradient-8" y1="0.5" y2="0.5" xlink:href="#linear-gradient-6"/>
    <linearGradient id="linear-gradient-9" x1="0.185" y1="0.081" x2="1.12" y2="1.325" xlink:href="#linear-gradient-6"/>
    <linearGradient id="linear-gradient-10" x1="0.812" y1="0.051" x2="-0.341" y2="1.709" xlink:href="#linear-gradient-6"/>
    <linearGradient id="linear-gradient-11" x1="0.251" y1="0.1" x2="1.092" y2="1.038" gradientUnits="objectBoundingBox">
      <stop offset="0" stop-color="#2c6aac"/>
      <stop offset="1" stop-color="#203f5e"/>
    </linearGradient>
    <linearGradient id="linear-gradient-12" x1="-62.865" y1="11.122" x2="-62.864" y2="11.122" xlink:href="#linear-gradient-11"/>
    <linearGradient id="linear-gradient-13" x1="-35.697" y1="6.14" x2="-35.713" y2="6.133" xlink:href="#linear-gradient-11"/>
    <linearGradient id="linear-gradient-14" x1="-29.164" y1="10.581" x2="-29.164" y2="10.581" gradientUnits="objectBoundingBox">
      <stop offset="0" stop-color="#adbae0"/>
      <stop offset="1" stop-color="#c0cbe8"/>
    </linearGradient>
  </defs>
  <g id="Group_14142" data-name="Group 14142" transform="translate(-435.416 -178.131)">
    <g id="Group_14108" data-name="Group 14108" transform="translate(472.803 238.131)" opacity="0.5">
      <g id="Group_14107" data-name="Group 14107">
        <path id="Path_14864" data-name="Path 14864" d="M545.37,261.152v-10.6l-5.458-.514a28.314,28.314,0,0,0-4.071-9.792l3.506-4.234-7.5-7.5-4.234,3.5a28.34,28.34,0,0,0-9.792-4.069l-.514-5.458h-10.6l-.514,5.458a28.333,28.333,0,0,0-9.79,4.069l-4.236-3.5-7.5,7.5,3.506,4.234a28.345,28.345,0,0,0-4.071,9.792l-5.458.514v10.6l5.458.514a28.324,28.324,0,0,0,4.071,9.79l-3.506,4.236,7.5,7.5,4.236-3.506a28.307,28.307,0,0,0,9.79,4.071l.514,5.458h10.6l.514-5.458a28.314,28.314,0,0,0,9.792-4.071l4.234,3.506,7.5-7.5-3.506-4.236a28.262,28.262,0,0,0,4.071-9.79Zm-33.357,9.05a14.35,14.35,0,1,1,14.35-14.35A14.349,14.349,0,0,1,512.013,270.2Z" transform="translate(-478.655 -222.495)" fill="#cdd2f9"/>
        <path id="Path_14920" data-name="Path 14920" d="M545.37,261.152v-10.6l-5.458-.514a28.314,28.314,0,0,0-4.071-9.792l3.506-4.234-7.5-7.5-4.234,3.5a28.34,28.34,0,0,0-9.792-4.069l-.514-5.458h-10.6l-.514,5.458a28.333,28.333,0,0,0-9.79,4.069l-4.236-3.5-7.5,7.5,3.506,4.234a28.345,28.345,0,0,0-4.071,9.792l-5.458.514v10.6l5.458.514a28.324,28.324,0,0,0,4.071,9.79l-3.506,4.236,7.5,7.5,4.236-3.506a28.307,28.307,0,0,0,9.79,4.071l.514,5.458h10.6l.514-5.458a28.314,28.314,0,0,0,9.792-4.071l4.234,3.506,7.5-7.5-3.506-4.236a28.262,28.262,0,0,0,4.071-9.79Zm-33.357,9.05a14.35,14.35,0,1,1,14.35-14.35A14.349,14.349,0,0,1,512.013,270.2Z" transform="translate(186.345 -281.495)" fill="none" stroke="#cdd2f9" stroke-width="2"/>
        <path id="Path_14865" data-name="Path 14865" d="M567.224,276.993v-8.307l-4.277-.4a22.185,22.185,0,0,0-3.19-7.672l2.747-3.318-5.872-5.874-3.32,2.747a22.177,22.177,0,0,0-7.671-3.19l-.4-4.277h-8.307l-.4,4.277a22.171,22.171,0,0,0-7.672,3.19l-3.32-2.747-5.872,5.874,2.747,3.318a22.185,22.185,0,0,0-3.19,7.672l-4.277.4v8.307l4.277.4a22.2,22.2,0,0,0,3.19,7.672l-2.747,3.318,5.872,5.872,3.32-2.747a22.17,22.17,0,0,0,7.672,3.19l.4,4.277h8.307l.4-4.277a22.2,22.2,0,0,0,7.672-3.19l3.318,2.747,5.872-5.872-2.747-3.318a22.2,22.2,0,0,0,3.19-7.672Zm-26.139,7.092A11.244,11.244,0,1,1,552.33,272.84,11.244,11.244,0,0,1,541.085,284.085Z" transform="translate(-457.548 -208.417)" fill="#cdd2f9"/>
        <path id="Path_14866" data-name="Path 14866" d="M534.984,292.12v-6.976l-3.592-.338a18.658,18.658,0,0,0-2.679-6.445l2.308-2.787-4.933-4.933-2.788,2.308a18.65,18.65,0,0,0-6.443-2.679l-.339-3.592h-6.976l-.338,3.592a18.65,18.65,0,0,0-6.443,2.679l-2.788-2.308-4.933,4.933,2.308,2.787a18.658,18.658,0,0,0-2.679,6.445l-3.592.338v6.976l3.592.338a18.663,18.663,0,0,0,2.679,6.443l-2.308,2.787,4.933,4.933,2.788-2.306A18.649,18.649,0,0,0,509.2,307l.338,3.592h6.976l.339-3.592a18.649,18.649,0,0,0,6.443-2.679l2.788,2.306,4.933-4.933-2.308-2.787a18.663,18.663,0,0,0,2.679-6.443Zm-21.954,5.956a9.445,9.445,0,1,1,9.444-9.445A9.445,9.445,0,0,1,513.03,298.077Z" transform="translate(-471.432 -196.799)" fill="#cdd2f9" opacity="0.6"/>
      </g>
    </g>
    <g id="Group_14110" data-name="Group 14110" transform="translate(435.416 438.28)" opacity="0.15">
      <path id="Path_14867" data-name="Path 14867" d="M445.776,634.508l35.347-234.859V634.508h9.49V398.182L526,634.508h10.168L491.876,338.691l-1.263.187v-9.62h-9.49v9.587l-1.3-.154L435.416,634.508Z" transform="translate(-435.416 -289.801)" fill="#b8bcd2"/>
      <g id="Group_14109" data-name="Group 14109" transform="translate(1.31)">
        <path id="Path_14868" data-name="Path 14868" d="M534.016,386.009H436.244l7.913-81.7H526.1Z" transform="translate(-436.244 -304.31)" fill="#7cd1f6"/>
      </g>
    </g>
    <g id="Group_14111" data-name="Group 14111" transform="translate(649.065 237.502)">
      <path id="Path_14869" data-name="Path 14869" d="M1056.051,238.4V556.7c0,7.623-6.674,14.456-14.282,14.456h-458c-7.607,0-13.27-6.833-13.27-14.456V238.4c0-7.607,5.662-13.618,13.27-13.618h458C1049.377,224.785,1056.051,230.8,1056.051,238.4Z" transform="translate(-570.5 -224.785)" fill="url(#linear-gradient)"/>
      <path id="Path_14870" data-name="Path 14870" d="M1056.051,258.475v278.63c0,7.623-6.674,14.456-14.282,14.456h-458c-7.607,0-13.27-6.833-13.27-14.456V428.655c40.3-77.43,136.362-90.056,248.838-44.744C978.553,448.053,1046.448,360.99,1056.051,258.475Z" transform="translate(-570.5 -205.191)" fill="#fff" opacity="0.1" style="isolation: isolate"/>
    </g>
    <g id="Group_14112" data-name="Group 14112" transform="translate(769.267 531.623)">
      <path id="Path_14871" data-name="Path 14871" d="M886.778,426.677H654.465a7.965,7.965,0,0,1-7.965-7.965h0a7.964,7.964,0,0,1,7.965-7.963H886.778a7.963,7.963,0,0,1,7.963,7.963h0A7.963,7.963,0,0,1,886.778,426.677Z" transform="translate(-646.5 -410.749)" fill="#fff" opacity="0.2" style="isolation: isolate"/>
      <path id="Path_14872" data-name="Path 14872" d="M653.883,424.438a6.327,6.327,0,1,1,0-12.653H791.241a6.327,6.327,0,1,1,0,12.653Z" transform="translate(-645.918 -410.146)" fill="#007cff"/>
      <path id="Path_14873" data-name="Path 14873" d="M653.883,424.438a6.327,6.327,0,1,1,0-12.653H791.241a6.327,6.327,0,1,1,0,12.653Z" transform="translate(-645.918 -410.146)" fill="url(#linear-gradient-2)"/>
    </g>
    <g id="_Group_" data-name="&lt;Group&gt;" transform="translate(563.534 480.099)">
      <g id="Group_14113" data-name="Group 14113" transform="translate(106.337 76.083)">
        <path id="Path_14874" data-name="Path 14874" d="M600.335,428.045c15.476,12.439,10.079,71.808,12.985,80.942s15.362,16.635,15.362,16.635L611.3,545.964s-14.529-2.518-25.563-26.182S600.335,428.045,600.335,428.045Z" transform="translate(-582.982 -428.045)" fill="#1a2e35"/>
        <path id="Path_14875" data-name="Path 14875" d="M600.335,428.045c15.476,12.439,10.079,71.808,12.985,80.942s15.362,16.635,15.362,16.635L611.3,545.964s-14.529-2.518-25.563-26.182S600.335,428.045,600.335,428.045Z" transform="translate(-582.982 -428.045)" fill="url(#linear-gradient-3)"/>
      </g>
      <g id="Group_14114" data-name="Group 14114" transform="translate(22.102 194.738)">
        <path id="Path_14876" data-name="Path 14876" d="M617.406,511.194s111.217-31.038,125.187,7.995-87,70.149-142.886,72.056-78.682-37.283-62.2-74.525Z" transform="translate(-532.259 -499.494)" fill="#007cff"/>
        <path id="Path_14877" data-name="Path 14877" d="M617.406,511.194s111.217-31.038,125.187,7.995-87,70.149-142.886,72.056-78.682-37.283-62.2-74.525Z" transform="translate(-532.259 -499.494)" fill="#2d314f"/>
      </g>
      <path id="Path_14878" data-name="Path 14878" d="M649.379,547.349a.363.363,0,0,1-.41-.022.284.284,0,0,1-.1-.345c.183-.623,2.033-6,3.9-6.56a1.163,1.163,0,0,1,1.116.327,1.906,1.906,0,0,1,.664,1.8,4.988,4.988,0,0,1-1.752,2.524A20.334,20.334,0,0,1,649.379,547.349Zm.48-1.031a8.014,8.014,0,0,0,3.982-3.836,1.22,1.22,0,0,0-.475-1.23.4.4,0,0,0-.438-.13,1.251,1.251,0,0,0-.43.252A15.545,15.545,0,0,0,649.859,546.318Z" transform="translate(-433.128 -277.737)" fill="#7e858c"/>
      <path id="Path_14879" data-name="Path 14879" d="M650.192,547.562a.306.306,0,0,1-.349-.1c-.174-.151-2.753-3.408-2.328-5.6a2.077,2.077,0,0,1,.89-1.348,1.2,1.2,0,0,1,1.49-.14c1.35.952,1.186,5.311.523,6.963l-.048.164A.342.342,0,0,1,650.192,547.562Zm-1.466-6.385a1.382,1.382,0,0,0-.448.784c-.267,1.39,1.028,3.476,1.727,4.476.427-1.862.289-4.919-.5-5.469-.086-.045-.247-.171-.648.11l-.128.1Z" transform="translate(-434.04 -277.88)" fill="#7e858c"/>
      <path id="Path_14880" data-name="Path 14880" d="M581.226,556.589a.359.359,0,0,1,.3-.277.286.286,0,0,1,.316.173c.315.565,2.86,5.646,1.953,7.378a1.161,1.161,0,0,1-1.013.568,1.9,1.9,0,0,1-1.752-.785,4.972,4.972,0,0,1-.578-3.019A20.28,20.28,0,0,1,581.226,556.589Zm.4,1.064a8,8,0,0,0-.045,5.53,1.219,1.219,0,0,0,1.211.522.4.4,0,0,0,.4-.223,1.219,1.219,0,0,0,.121-.483A15.585,15.585,0,0,0,581.626,557.654Z" transform="translate(-478.342 -267.22)" fill="#7e858c"/>
      <path id="Path_14881" data-name="Path 14881" d="M608.719,533.854l-19.681,14.431-9.453,6.929,6.174,10.767,9.592-5.246,23.429-12.813Z" transform="translate(-478.89 -282.054)" fill="#fcb373"/>
      <path id="Path_14882" data-name="Path 14882" d="M595.02,558.555l-5.937-13.1a1.421,1.421,0,0,0-1.921-.691l-6.4,3.135s-8.915,3.6-10.034,6.5c-3.27,8.463,9.121,37.786,12.988,37.793,1.415,0,2.255-2.192,2.453-3.591.626-4.441.732-15.605,1.3-19.3.664-4.324,5.035-7.651,7.053-8.976A1.41,1.41,0,0,0,595.02,558.555Z" transform="translate(-485.102 -274.944)" fill="#4e5160"/>
      <path id="Path_14883" data-name="Path 14883" d="M580.945,556.477a.306.306,0,0,1,.315-.178c.229-.018,4.361.417,5.635,2.259a2.078,2.078,0,0,1,.339,1.578,1.2,1.2,0,0,1-.943,1.163c-1.622.3-4.622-2.868-5.339-4.5l-.083-.149A.339.339,0,0,1,580.945,556.477Zm5.586,3.419a1.368,1.368,0,0,0-.246-.867c-.805-1.164-3.2-1.7-4.406-1.9,1.031,1.606,3.311,3.648,4.258,3.466.093-.03.3-.056.375-.538l.018-.163Z" transform="translate(-478.041 -267.227)" fill="#7e858c"/>
      <path id="Path_14884" data-name="Path 14884" d="M604.958,533.854l-19.681,14.431,6.313,12.45,23.429-12.813Z" transform="translate(-475.129 -282.054)" opacity="0.2" style="isolation: isolate"/>
      <path id="Path_14885" data-name="Path 14885" d="M621.652,555.594l24.081,3.963,11.564,1.905,3.372-11.945-10.459-3.182-25.548-7.773Z" transform="translate(-451.096 -278.944)" fill="#fcb373"/>
      <path id="Path_14886" data-name="Path 14886" d="M645.837,550.306l-5.208,13.41a1.423,1.423,0,0,0,.85,1.857l6.721,2.38s8.812,3.846,11.665,2.619c8.335-3.585,20.612-32.955,17.911-35.722-.988-1.013-3.144-.078-4.28.759-3.612,2.66-11.663,10.4-14.7,12.576-3.554,2.551-8.988,1.757-11.346,1.242A1.41,1.41,0,0,0,645.837,550.306Z" transform="translate(-438.622 -281.688)" fill="#4e5160"/>
      <path id="Path_14887" data-name="Path 14887" d="M621.652,555.594l24.081,3.963,4.477-13.222-25.548-7.773Z" transform="translate(-451.096 -278.944)" opacity="0.2" style="isolation: isolate"/>
      <path id="Path_14888" data-name="Path 14888" d="M701.878,564.618s-100.107-59.046-133.983-57.475-36.841,35.29-22.863,53.984,39.787,23.246,39.787,23.246-17.572-24.836-15.033-31.822,12.226,16.512,12.226,16.512,62.024,8.122,116.054,12.7Z" transform="translate(-506.91 -299.722)" fill="#2d314f"/>
      <path id="Path_14889" data-name="Path 14889" d="M632.585,572.964c-18.107-34.875-12.345-87.93,3.4-140.727-10.957-9.152-54.693-15.333-88.085-5.628,0,0-21.161,78.406-18.663,164.038Z" transform="translate(-512.292 -356.153)" fill="url(#linear-gradient-3)"/>
      <path id="Path_14890" data-name="Path 14890" d="M577.8,449.967c-14.564,0-24.047-15.278-24.047-15.278,19.1-6.693,19.164-26.853,19.164-26.853l7.357,7.191,10.479,10.263c-8.719,6.178-4.6,11.525-1.827,13.9a12.756,12.756,0,0,0,1.827,1.362S592.361,449.967,577.8,449.967Z" transform="translate(-495.959 -365.315)" fill="#fcb373"/>
      <path id="Path_14891" data-name="Path 14891" d="M581.564,436.561c-17.869,2.009-16.657-24.744-16.657-24.744a45.492,45.492,0,0,1,8,.581l10.479,10.263C574.672,428.839,578.79,434.186,581.564,436.561Z" transform="translate(-488.599 -362.686)" opacity="0.2" style="isolation: isolate"/>
      <g id="Group_14115" data-name="Group 14115" transform="translate(69.617)">
        <path id="Path_14892" data-name="Path 14892" d="M584.98,396.829c-6.771,2.8-5.475,10.19,5.753,23.648,6.913-5.952,10.655-19.5,7.031-23.851S590.875,394.411,584.98,396.829Z" transform="translate(-547.674 -374.378)" fill="#1a2e35"/>
        <path id="Path_14893" data-name="Path 14893" d="M605.354,430.259a.129.129,0,0,1-.017.05,47.212,47.212,0,0,1-2.159,5.281c-6.676,13.6-25.874,16.242-34.376,2.79-.033-.05-.067-.083-.1-.133-5.613-9.051-3.5-17.5-1.163-32.151a20.254,20.254,0,0,1,31.62-13.585C610.3,400.251,609.638,417.754,605.354,430.259Z" transform="translate(-558.059 -377.858)" fill="#fcb373"/>
        <path id="Path_14894" data-name="Path 14894" d="M577.757,393.916c6.234,3.83,3.773,10.924-9.448,22.413-5.884-6.977-7.428-20.966-3.142-24.656S572.308,390.583,577.757,393.916Z" transform="translate(-559.647 -377.184)" fill="#1a2e35"/>
        <path id="Path_14895" data-name="Path 14895" d="M560.883,408.113a14.11,14.11,0,0,0,4.7,9.7c3.72,3.248,7.7.428,8.446-4.188.669-4.163-.468-10.876-5.052-12.342S560.634,403.543,560.883,408.113Z" transform="translate(-560.871 -369.859)" fill="#fcb373"/>
        <path id="Path_14896" data-name="Path 14896" d="M564.136,396.913s-1.5-11.728,10.472-13.664,27.641,1.058,32.485-1.018c0,0-.649,3.712-3.429,5.1,0,0,9.129,3.366,16.326.46,0,0-3.127,8.651-7.164,11.972h3.436s-6.812,6.5-15.1,6.643-16.091-11.278-24.3-7.438S564.136,396.913,564.136,396.913Z" transform="translate(-558.753 -382.231)" fill="#1a2e35"/>
        <path id="Path_14897" data-name="Path 14897" d="M604.809,421.119a.129.129,0,0,1-.017.05,47.221,47.221,0,0,1-2.159,5.281c-6.676,13.6-25.874,16.242-34.376,2.79-.033-.05-.067-.083-.1-.133-4.384-7.789-.88-16.291-.88-16.291l2.557-8.287,1.86-1.843s.432,8.42,1.744,10.795,8.785,3.072,10.313,3.487c1.511.415,5.148,4.733,6.942,5.9,1.777,1.162,8.37.2,9.15,1.162S604.809,421.119,604.809,421.119Z" transform="translate(-557.514 -368.717)" fill="#1a2e35"/>
      </g>
      <path id="Path_14898" data-name="Path 14898" d="M544.389,494.285l34.436,38.184s38.075-.847,84.3,21.748c0,0,49.61-20.491,54.167-37.513s-104.139-4.982-104.139-4.982Z" transform="translate(-502.144 -308.197)" opacity="0.2" style="isolation: isolate"/>
      <path id="Path_14899" data-name="Path 14899" d="M552.893,487.535l55.218,18.06s19.721-4.359,23.25-4.359,17.152,11.078,9.443,14.946-28.748,4.359-31.032,3.114-63.522-15.577-63.522-15.577Z" transform="translate(-500.914 -312.657)" fill="#fcb373"/>
      <g id="Group_14116" data-name="Group 14116" transform="translate(0 70.398)">
        <path id="Path_14900" data-name="Path 14900" d="M554.555,424.679c12.5-2.425-9.182,73.7-3.876,84.91s26.063,18.3,26.063,18.3l-9.549,21.078s-28.232-5.329-43.593-24.842S534.167,428.633,554.555,424.679Z" transform="translate(-518.951 -424.622)" fill="#1a2e35"/>
        <path id="Path_14901" data-name="Path 14901" d="M554.555,424.679c12.5-2.425-9.182,73.7-3.876,84.91s26.063,18.3,26.063,18.3l-9.549,21.078s-28.232-5.329-43.593-24.842S534.167,428.633,554.555,424.679Z" transform="translate(-518.951 -424.622)" fill="url(#linear-gradient-3)"/>
      </g>
      <g id="Group_14119" data-name="Group 14119" transform="translate(80.626 135.436)">
        <g id="Group_14117" data-name="Group 14117" transform="translate(0 68.089)">
          <path id="Path_14902" data-name="Path 14902" d="M567.5,504.785v3.62a4.7,4.7,0,0,0,4.489,4.683h133.5a5,5,0,0,0,4.828-4.683v-3.62Z" transform="translate(-567.5 -504.785)" fill="url(#linear-gradient-6)"/>
          <path id="Path_14903" data-name="Path 14903" d="M597.5,504.785v3.62a4.725,4.725,0,0,0,4.505,4.683h83.666a5,5,0,0,0,4.828-4.683v-3.62Z" transform="translate(-547.679 -504.785)" fill="url(#linear-gradient-6)"/>
        </g>
        <g id="Group_14118" data-name="Group 14118" transform="translate(50.711)">
          <path id="Path_14904" data-name="Path 14904" d="M601.651,536.856h88.2a7.191,7.191,0,0,0,6.41-4.733l20.227-63.447c.83-2.607-.681-4.891-3.388-4.891H624.9a7.35,7.35,0,0,0-6.41,4.891l-20.227,63.367C597.433,534.65,598.944,536.856,601.651,536.856Z" transform="translate(-598.036 -463.785)" fill="#1a2e35"/>
          <path id="Path_14905" data-name="Path 14905" d="M601.651,536.856h88.2a7.191,7.191,0,0,0,6.41-4.733l20.227-63.447c.83-2.607-.681-4.891-3.388-4.891H624.9a7.35,7.35,0,0,0-6.41,4.891l-20.227,63.367C597.433,534.65,598.944,536.856,601.651,536.856Z" transform="translate(-598.036 -463.785)" fill="url(#linear-gradient-8)"/>
        </g>
      </g>
    </g>
    <g id="Group_14123" data-name="Group 14123" transform="translate(732.7 238.131)">
      <rect id="Rectangle_20141" data-name="Rectangle 20141" width="112.294" height="112.294" rx="7.326" fill="#007cff" style="isolation: isolate"/>
      <g id="Group_14122" data-name="Group 14122">
        <rect id="Rectangle_20142" data-name="Rectangle 20142" width="112.294" height="112.294" rx="7.326" fill="url(#linear-gradient-9)"/>
        <g id="Group_14121" data-name="Group 14121" transform="translate(22.051 18.418)">
          <g id="Group_14120" data-name="Group 14120">
            <path id="Path_14906" data-name="Path 14906" d="M680.069,261.6v-6.791l-3.5-.329a18.131,18.131,0,0,0-2.608-6.274l2.247-2.712-4.8-4.8-2.712,2.247a18.1,18.1,0,0,0-6.274-2.608l-.329-3.5H655.3l-.331,3.5a18.14,18.14,0,0,0-6.273,2.61l-2.714-2.247-4.8,4.8,2.246,2.712a18.159,18.159,0,0,0-2.608,6.274l-3.5.329V261.6l3.5.331a18.134,18.134,0,0,0,2.608,6.273l-2.246,2.714,4.8,4.8,2.714-2.246a18.137,18.137,0,0,0,6.273,2.608l.331,3.5h6.791l.329-3.5a18.162,18.162,0,0,0,6.274-2.608l2.712,2.246,4.8-4.8-2.247-2.714a18.169,18.169,0,0,0,2.61-6.273ZM658.7,267.4a9.195,9.195,0,1,1,9.194-9.2A9.194,9.194,0,0,1,658.7,267.4Z" transform="translate(-637.322 -236.828)" fill="#fff"/>
            <path id="Path_14907" data-name="Path 14907" d="M694.072,271.749v-5.324l-2.741-.258a14.2,14.2,0,0,0-2.043-4.916l1.76-2.126-3.763-3.764-2.127,1.76a14.218,14.218,0,0,0-4.916-2.043l-.258-2.741h-5.322l-.258,2.741a14.218,14.218,0,0,0-4.916,2.043l-2.127-1.76-3.763,3.764,1.76,2.126a14.234,14.234,0,0,0-2.043,4.916l-2.741.258v5.324l2.741.258a14.233,14.233,0,0,0,2.043,4.916l-1.76,2.126,3.763,3.764,2.127-1.76A14.22,14.22,0,0,0,674.4,283.1l.258,2.739h5.322l.258-2.739a14.242,14.242,0,0,0,4.917-2.043l2.126,1.76,3.763-3.764-1.76-2.126a14.2,14.2,0,0,0,2.043-4.916Zm-16.748,4.542a7.2,7.2,0,1,1,7.2-7.2A7.2,7.2,0,0,1,677.324,276.291Z" transform="translate(-623.798 -227.807)" fill="#fff"/>
            <path id="Path_14908" data-name="Path 14908" d="M674.7,280.159v-4.471l-2.3-.217a11.935,11.935,0,0,0-1.716-4.128l1.479-1.786-3.162-3.162-1.786,1.479a11.932,11.932,0,0,0-4.13-1.718l-.217-2.3h-4.47l-.217,2.3a11.944,11.944,0,0,0-4.13,1.718l-1.786-1.479-3.162,3.162,1.479,1.786a11.933,11.933,0,0,0-1.716,4.128l-2.3.217v4.471l2.3.217a11.953,11.953,0,0,0,1.716,4.13l-1.479,1.786,3.162,3.16,1.786-1.479a11.944,11.944,0,0,0,4.13,1.718l.217,2.3h4.47l.217-2.3a11.932,11.932,0,0,0,4.13-1.718l1.786,1.479,3.162-3.16-1.479-1.786a11.955,11.955,0,0,0,1.716-4.13Zm-14.068,3.816a6.052,6.052,0,1,1,6.051-6.051A6.051,6.051,0,0,1,660.628,283.976Z" transform="translate(-631.949 -221.108)" fill="#fff"/>
          </g>
        </g>
      </g>
    </g>
    <g id="Group_14126" data-name="Group 14126" transform="translate(928.495 376.291)">
      <rect id="Rectangle_20143" data-name="Rectangle 20143" width="103.808" height="103.808" rx="6.772" fill="#fff" opacity="0.2" style="isolation: isolate"/>
      <g id="Group_14125" data-name="Group 14125" transform="translate(14.583 31.184)">
        <g id="Group_14124" data-name="Group 14124">
          <path id="Path_14909" data-name="Path 14909" d="M785.251,357.272a3.747,3.747,0,1,1-3.747-3.747A3.746,3.746,0,0,1,785.251,357.272Z" transform="translate(-743.972 -319.883)" fill="#fff"/>
          <path id="Path_14910" data-name="Path 14910" d="M793.611,332.254A37.212,37.212,0,0,0,756.4,369.471h29.721c0-4.745,3.355-7.34,7.494-7.34a7.88,7.88,0,0,1,2.236.432l13.934-16.177-9.839,19.137a7.043,7.043,0,0,1,1.162,3.948h29.721A37.211,37.211,0,0,0,793.611,332.254Z" transform="translate(-756.396 -332.254)" fill="#fff"/>
        </g>
      </g>
    </g>
    <g id="Group_14129" data-name="Group 14129" transform="translate(970.338 274.319)">
      <rect id="Rectangle_20144" data-name="Rectangle 20144" width="91.081" height="91.081" rx="5.942" fill="#007cff" style="isolation: isolate"/>
      <g id="Group_14128" data-name="Group 14128">
        <rect id="Rectangle_20145" data-name="Rectangle 20145" width="91.081" height="91.081" rx="5.942" fill="url(#linear-gradient-10)"/>
        <g id="Group_14127" data-name="Group 14127" transform="translate(20.353 20.121)">
          <path id="Path_14911" data-name="Path 14911" d="M837.111,263.777a2.992,2.992,0,0,0-2.994-2.992H789.492a2.992,2.992,0,0,0-2.992,2.992v9.83a2.994,2.994,0,0,0,2.992,2.994h44.625a2.994,2.994,0,0,0,2.994-2.994ZM822.379,269.1h-2.567v-2.567h2.567Zm6.84,1.283a2.566,2.566,0,1,1,2.567-2.565A2.567,2.567,0,0,1,829.219,270.384Z" transform="translate(-786.5 -260.785)" fill="#fff"/>
          <path id="Path_14912" data-name="Path 14912" d="M837.111,274.777a2.992,2.992,0,0,0-2.994-2.992H789.492a2.992,2.992,0,0,0-2.992,2.992v9.83a2.994,2.994,0,0,0,2.992,2.994h44.625a2.994,2.994,0,0,0,2.994-2.994Zm-14.733,6.312h-2.567v-2.565h2.567Zm6.84,1.283a2.565,2.565,0,1,1,2.567-2.565A2.566,2.566,0,0,1,829.219,282.372Z" transform="translate(-786.5 -254.387)" fill="#fff"/>
          <path id="Path_14913" data-name="Path 14913" d="M837.111,285.777a2.992,2.992,0,0,0-2.994-2.992H789.492a2.992,2.992,0,0,0-2.992,2.992v9.83a2.994,2.994,0,0,0,2.992,2.994h44.625a2.994,2.994,0,0,0,2.994-2.994Zm-14.733,7.3h-2.567v-2.565h2.567Zm6.84,1.283a2.565,2.565,0,1,1,2.567-2.565A2.566,2.566,0,0,1,829.219,294.362Z" transform="translate(-786.5 -247.99)" fill="#fff"/>
        </g>
      </g>
    </g>
    <g id="Group_14133" data-name="Group 14133" transform="translate(795.349 358.6)">
      <rect id="Rectangle_20146" data-name="Rectangle 20146" width="112.294" height="112.294" rx="7.326" fill="#007cff" style="isolation: isolate"/>
      <g id="Group_14132" data-name="Group 14132">
        <rect id="Rectangle_20147" data-name="Rectangle 20147" width="112.294" height="112.294" rx="7.326" fill="#6e9bb7"/>
        <g id="Group_14131" data-name="Group 14131" transform="translate(22.373 22.713)">
          <g id="Group_14130" data-name="Group 14130" transform="translate(0.137 2.381)">
            <path id="Path_14914" data-name="Path 14914" d="M679.793,368.973h0a8.776,8.776,0,0,1,0-12.409l20.48-20.48a4.949,4.949,0,0,1,7,0l5.409,5.407a4.952,4.952,0,0,1,0,7l-20.48,20.48A8.775,8.775,0,0,1,679.793,368.973Z" transform="translate(-677.224 -307.09)" fill="#fff"/>
            <path id="Path_14915" data-name="Path 14915" d="M704.186,345.392l-4.025-4.025L723.3,318.227l5.033-1.008-1.008,5.033Z" transform="translate(-663.883 -317.218)" fill="#fff"/>
            <path id="Path_14916" data-name="Path 14916" d="M704.07,342.07l-7.127-7.127a1.629,1.629,0,0,1,0-2.306h0a1.629,1.629,0,0,1,2.306,0l7.127,7.127a1.632,1.632,0,0,1,0,2.306h0A1.632,1.632,0,0,1,704.07,342.07Z" transform="translate(-666.032 -308.529)" fill="#fff"/>
          </g>
          <path id="Path_14917" data-name="Path 14917" d="M705.718,337.988l-9.762-9.789c1.827-4.887-1.854-10.9-5.858-12.487l-.079,7.535a3.223,3.223,0,0,1-3.2,3.193,3.164,3.164,0,0,1-3.195-3.132l.011-7.465c-3.165,1.229-6.489,4.83-6.5,9.1a9.678,9.678,0,0,0,8.444,9.434,8.377,8.377,0,0,0,4.712-.66l9.833,9.861Z" transform="translate(-677.137 -315.713)" fill="#fff"/>
          <path id="Path_14918" data-name="Path 14918" d="M723.866,361.016l-.014,7.47c3.165-1.229,6.486-4.829,6.492-9.1a9.7,9.7,0,0,0-8.234-9.641,7.573,7.573,0,0,0-4.5.451l-10.222-10.25-5.593,5.593,10.149,10.178c-2.947,6,1.645,11.108,5.648,12.7l-.025-7.43a3.151,3.151,0,1,1,6.3.035Z" transform="translate(-662.797 -301.619)" fill="#fff"/>
        </g>
      </g>
    </g>
    <g id="Group_14135" data-name="Group 14135" transform="translate(858.488 183.09)">
      <rect id="Rectangle_20148" data-name="Rectangle 20148" width="123.987" height="123.987" rx="8.83" transform="translate(123.987 123.987) rotate(180)" fill="#cdd2f9"/>
      <g id="Group_14134" data-name="Group 14134" transform="translate(23.984 23.575)">
        <path id="Path_14919" data-name="Path 14919" d="M757.449,219.192l-37.982,14.9s4.8,52.155,37.982,61.935c33.18-9.779,37.982-61.935,37.982-61.935Zm-.969,50.5a2.644,2.644,0,0,1-2.086,1.063h-.028a2.625,2.625,0,0,1-2.093-1.105L738.957,251.3a2.623,2.623,0,0,1,4.24-3.089l11.241,15.479,18.386-24.255a2.618,2.618,0,0,1,3.67-.506,2.811,2.811,0,0,1,.5,3.828Z" transform="translate(-719.467 -219.192)" fill="#fff"/>
      </g>
    </g>
    <g id="Group_14138" data-name="Group 14138" transform="translate(1048.88 531.623)">
      <g id="Group_14136" data-name="Group 14136">
        <rect id="Rectangle_20149" data-name="Rectangle 20149" width="134.828" height="90.988" fill="#b9c1ea"/>
      </g>
      <rect id="Rectangle_20150" data-name="Rectangle 20150" width="129.482" height="80.942" transform="translate(2.504 7.017)" fill="#d1d8f2"/>
      <g id="Group_14137" data-name="Group 14137" transform="translate(8.435 19.554)">
        <rect id="Rectangle_20151" data-name="Rectangle 20151" width="106.457" height="2.372" fill="#fff" opacity="0.5"/>
        <rect id="Rectangle_20152" data-name="Rectangle 20152" width="90.631" height="2.372" transform="translate(0 6.722)" fill="#fff" opacity="0.5"/>
        <rect id="Rectangle_20153" data-name="Rectangle 20153" width="106.457" height="2.372" transform="translate(0 13.444)" fill="#fff" opacity="0.5"/>
        <rect id="Rectangle_20154" data-name="Rectangle 20154" width="90.631" height="2.372" transform="translate(0 20.165)" fill="#fff" opacity="0.5"/>
        <rect id="Rectangle_20155" data-name="Rectangle 20155" width="11.501" height="2.372" transform="translate(0 26.887)" fill="#fff" opacity="0.5"/>
        <rect id="Rectangle_20156" data-name="Rectangle 20156" width="58.979" height="2.372" transform="translate(0 33.609)" fill="#fff" opacity="0.5"/>
        <rect id="Rectangle_20157" data-name="Rectangle 20157" width="90.631" height="2.372" transform="translate(0 40.331)" fill="#fff" opacity="0.5"/>
        <rect id="Rectangle_20158" data-name="Rectangle 20158" width="11.501" height="2.372" transform="translate(0 47.053)" fill="#fff" opacity="0.5"/>
        <rect id="Rectangle_20159" data-name="Rectangle 20159" width="11.501" height="2.372" transform="translate(0 53.774)" fill="#fff" opacity="0.5"/>
      </g>
    </g>
    <g id="Group_14141" data-name="Group 14141" transform="translate(593.681 365.983)">
      <g id="Group_14139" data-name="Group 14139">
        <rect id="Rectangle_20160" data-name="Rectangle 20160" width="134.828" height="90.988" fill="#b9c1ea"/>
      </g>
      <rect id="Rectangle_20161" data-name="Rectangle 20161" width="129.482" height="80.942" transform="translate(2.504 7.017)" fill="#d1d8f2"/>
      <g id="Group_14140" data-name="Group 14140" transform="translate(8.435 19.554)">
        <rect id="Rectangle_20162" data-name="Rectangle 20162" width="106.457" height="2.372" fill="#fff" opacity="0.5"/>
        <rect id="Rectangle_20163" data-name="Rectangle 20163" width="90.631" height="2.372" transform="translate(0 6.722)" fill="#fff" opacity="0.5"/>
        <rect id="Rectangle_20164" data-name="Rectangle 20164" width="106.457" height="2.372" transform="translate(0 13.444)" fill="#fff" opacity="0.5"/>
        <rect id="Rectangle_20165" data-name="Rectangle 20165" width="90.631" height="2.372" transform="translate(0 20.165)" fill="#fff" opacity="0.5"/>
        <rect id="Rectangle_20166" data-name="Rectangle 20166" width="11.501" height="2.372" transform="translate(0 26.887)" fill="#fff" opacity="0.5"/>
        <rect id="Rectangle_20167" data-name="Rectangle 20167" width="58.979" height="2.372" transform="translate(0 33.609)" fill="#fff" opacity="0.5"/>
        <rect id="Rectangle_20168" data-name="Rectangle 20168" width="90.631" height="2.372" transform="translate(0 40.331)" fill="#fff" opacity="0.5"/>
        <rect id="Rectangle_20169" data-name="Rectangle 20169" width="11.501" height="2.372" transform="translate(0 47.053)" fill="#fff" opacity="0.5"/>
        <rect id="Rectangle_20170" data-name="Rectangle 20170" width="11.501" height="2.372" transform="translate(0 53.774)" fill="#fff" opacity="0.5"/>
      </g>
    </g>
    <g id="Group_4899" data-name="Group 4899" transform="translate(1134.615 646.276)">
      <path id="Path_7268" data-name="Path 7268" d="M871.912,482.327c1.572,5.718,8.79,16.807,15.378,28.68,7.2,12.955,13.648,26.836,11.128,35.65a19.485,19.485,0,0,0-.911,5c-.025,3.835,2.888,2.644,5.828.469a53.634,53.634,0,0,0,6.036-5.47l-.224-17.089s9.688-8.9,1.737-28.372q-.757-1.844-1.737-3.835c-10.953-22.127-27.379-45.352-11.826-51.928C875.843,444.12,868.615,470.365,871.912,482.327Z" transform="translate(-871.151 -445.386)" fill="url(#linear-gradient-11)"/>
      <path id="Path_7269" data-name="Path 7269" d="M894.1,445.424s-11.175,1.75-13.146,17.088,28.479,56.542,23.443,70.556" transform="translate(-867.926 -445.374)" fill="none" stroke="#000" stroke-linecap="round" stroke-miterlimit="10" stroke-width="0.818" opacity="0.1" style="isolation: isolate"/>
      <path id="Path_7270" data-name="Path 7270" d="M879.123,499.038c6.565,17.307,0,30.439,9.859,32.308,4.511.861,6.505-2.484,7.326-6.369a35.13,35.13,0,0,0,.333-9.942,33.465,33.465,0,0,0-5.187-8.434C888.587,503.218,884.517,499.924,879.123,499.038Z" transform="translate(-868.503 -427.565)" fill="url(#linear-gradient-12)"/>
      <path id="Path_7271" data-name="Path 7271" d="M896.305,528.046c.037,4.031.946,7.449,2.814,9.245a6.838,6.838,0,0,0,.542.48c4.66,3.774,7.633-3.133,7.633-3.133s12.393-6.111,18.54-18.518c4.709-9.526,5.752-22.779-5.325-39.817-1.624,12.132-8.271,20.394-14.862,28.238v.009c-.825.983-1.636,1.945-2.447,2.915C898.639,512.938,896.244,521.344,896.305,528.046Z" transform="translate(-862.796 -435.117)" fill="url(#linear-gradient-13)"/>
      <path id="Path_7272" data-name="Path 7272" d="M919.358,476.3s3.725,15.176-1.973,27.66-18.622,18.184-17.529,30.233" transform="translate(-861.638 -435.117)" fill="none" stroke="#000" stroke-linecap="round" stroke-miterlimit="10" stroke-width="0.818" opacity="0.1" style="isolation: isolate"/>
      <path id="Path_7273" data-name="Path 7273" d="M879.116,499.039s14.682,15.993,16.653,29.8" transform="translate(-868.505 -427.565)" fill="none" stroke="#000" stroke-linecap="round" stroke-miterlimit="10" stroke-width="0.818" opacity="0.1" style="isolation: isolate"/>
      <path id="Path_7274" data-name="Path 7274" d="M882.12,522.41l4.206,25.815a2.3,2.3,0,0,0,2.262,1.87h26.2a2.307,2.307,0,0,0,2.262-1.87l3.418-20.961.787-4.854a2.295,2.295,0,0,0-2.262-2.716H884.381a2.3,2.3,0,0,0-2.3,2.3A2.323,2.323,0,0,0,882.12,522.41Z" transform="translate(-867.52 -420.705)" fill="url(#linear-gradient-14)"/>
      <path id="Path_7275" data-name="Path 7275" d="M879.122,528.073h47.1l-1.243-7.032a3.109,3.109,0,0,0-3.049-2.558H883.4a3.093,3.093,0,0,0-3.035,2.558Z" transform="translate(-868.503 -421.107)" fill="#a9b6d3"/>
      <path id="Path_7276" data-name="Path 7276" d="M895.264,518.938a35.14,35.14,0,0,1-.32,9.909h6.16a22.588,22.588,0,0,1-.467-4.449c-.061-6.7,2.335-15.109,6.9-20.581.811-.97,1.625-1.929,2.446-2.915v-.012a38.831,38.831,0,0,0-3.121-13.608c-.358,6.208-1.884,17-8.078,18.147-4.711.858-10.845-3.811-15.516-8.338,2.474,4.439,4.844,8.988,6.81,13.415A33.5,33.5,0,0,1,895.264,518.938Z" transform="translate(-867.127 -431.47)" opacity="0.1" style="isolation: isolate"/>
      <path id="Path_7277" data-name="Path 7277" d="M894.893,548.108H910.53a2.307,2.307,0,0,0,2.263-1.872l3.354-20.555H902.635c.334,2.875.737,8.249-.281,12.416A18.469,18.469,0,0,1,894.893,548.108Z" transform="translate(-863.265 -418.716)" opacity="0.1" style="isolation: isolate"/>
    </g>
  </g>
</svg>
