<?xml version="1.0" ?><svg viewBox="0 0 64 64" xmlns="http://www.w3.org/2000/svg"><defs><style>.cls-1{fill:#e0e5eb;}.cls-2{fill:#94a1b2;}.cls-3{fill:#f64f7d;}.cls-4{fill:#fcbf4a;}.cls-5{fill:#4f9ff6;}.cls-6{fill:#bec7d6;}.cls-7{fill:#5e697b;}.cls-8{fill:#3f76d3;}</style></defs><g data-name="Data" id="Data-2"><path class="cls-1" d="M56.3,48.28V14.48A1.48,1.48,0,0,0,54.82,13H9.55a1.44,1.44,0,0,0-1,.43,1.49,1.49,0,0,0-.44,1.05V53h46.1Z"/><polygon class="cls-2" points="8.07 44.61 8.07 53.03 54.17 53.03 56.3 48.28 56.3 44.61 8.07 44.61"/><path class="cls-3" d="M22.68,13.05a1.34,1.34,0,0,0-1.5-1.32A10.69,10.69,0,1,0,33.25,23.82a1.32,1.32,0,0,0-.32-1,1.29,1.29,0,0,0-1-.44c-2.08,0-5.92,0-7.94,0A1.32,1.32,0,0,1,22.68,21Z"/><path class="cls-4" d="M28.16,7.76a1.32,1.32,0,0,0-1,.32,1.33,1.33,0,0,0-.45,1c0,2.07,0,5.91,0,7.94A1.34,1.34,0,0,0,28,18.34h7.94a1.36,1.36,0,0,0,1-.45,1.34,1.34,0,0,0,.32-1.05A10.71,10.71,0,0,0,28.16,7.76Z"/><path class="cls-5" d="M42.46,23.6h7.08a2.38,2.38,0,1,1,0,4.76H42.46a2.38,2.38,0,0,1,0-4.76Z"/><path class="cls-5" d="M35.08,33.13H49.54a2.38,2.38,0,1,1,0,4.75H35.08a2.38,2.38,0,1,1,0-4.75Z"/><path class="cls-6" d="M56.3,48.28V14.48A1.48,1.48,0,0,0,54.82,13H48.1V53h7.84Z"/><polygon class="cls-7" points="48.1 44.61 48.1 53.03 55.94 53.03 56.3 48.28 56.3 44.61 48.1 44.61"/><path class="cls-6" d="M5.48,48.28A1.47,1.47,0,0,0,4,49.76v3a3.44,3.44,0,0,0,3.45,3.45h49.1A3.44,3.44,0,0,0,60,52.8v-3a1.47,1.47,0,0,0-1.48-1.48H44.36a1.47,1.47,0,0,0-1.48,1.48V50a1.59,1.59,0,0,1-1.59,1.59H22.71A1.59,1.59,0,0,1,21.12,50v-.23a1.47,1.47,0,0,0-1.48-1.48Z"/><path class="cls-2" d="M52.87,48.28V52.8a3.45,3.45,0,0,1-3.45,3.45h7.13A3.45,3.45,0,0,0,60,52.8v-3a1.47,1.47,0,0,0-1.48-1.48Z"/><path class="cls-8" d="M48.1,33.13v4.75h1.44a2.38,2.38,0,1,0,0-4.75Z"/><path class="cls-8" d="M48.1,23.6v4.76h1.44a2.38,2.38,0,1,0,0-4.76Z"/></g></svg>