<svg width="65" height="26" viewBox="0 0 65 26" fill="none" xmlns="http://www.w3.org/2000/svg">
<g clip-path="url(#clip0_153_689)">
<path d="M22.5767 5.30953C24.919 12.5027 25.8072 25.3334 32.656 25.3334C33.1853 25.3335 33.7134 25.2836 34.2333 25.1842C28.0069 23.7271 27.2687 11.0351 23.4693 4.4624C23.1723 4.73384 22.8752 5.01721 22.5781 5.31251" fill="#347AB4"/>
<path d="M23.4678 4.45934C27.2672 11.0321 28.0054 23.7241 34.2318 25.1812C34.7314 25.0865 35.223 24.9534 35.7022 24.783C30.113 22.0328 28.5728 9.70916 24.2535 3.77478C23.9921 3.99352 23.7302 4.22171 23.4678 4.45934Z" fill="#347AB4"/>
<path d="M28.9426 0.548903C28.4128 0.548904 27.8842 0.598837 27.3637 0.698045C25.8599 1.01335 24.4298 1.61368 23.1499 2.46687C23.5524 2.87052 23.9215 3.30647 24.2535 3.77038C25.533 2.65934 26.989 1.77157 28.5609 1.14398C29.0826 0.948278 29.6204 0.798571 30.168 0.696554C29.7673 0.595687 29.3557 0.547075 28.9426 0.548903Z" fill="#347AB4"/>
<path d="M40.066 22.2476C40.6374 21.7912 41.2102 21.2871 41.7845 20.7353C39.408 13.5764 38.5525 0.560791 31.6547 0.560791C31.1565 0.561444 30.6593 0.607871 30.1694 0.699493C36.4523 2.26847 37.2573 15.9955 40.069 22.2476" fill="#347AB4"/>
<path d="M30.1682 0.699481C29.7676 0.598661 29.3559 0.548558 28.9429 0.550339L31.655 0.560779C31.1567 0.561375 30.6595 0.608306 30.1697 0.700972" fill="#347AB4"/>
<path d="M39.9457 23.7688C39.6707 23.5023 39.4109 23.2204 39.1674 22.9247C38.1031 23.7016 36.937 24.327 35.7021 24.783C36.1121 24.987 36.5463 25.1374 36.9944 25.2304C37.3566 25.3039 37.7254 25.3404 38.095 25.3393C39.1829 25.3919 40.2685 25.1966 41.2706 24.7681C40.7856 24.4997 40.3398 24.1654 39.9457 23.7748" fill="#347AB4"/>
<path d="M28.5611 1.14841C34.1889 4.10441 34.6776 17.4885 39.1692 22.9232C39.4662 22.7099 39.7633 22.4847 40.0603 22.2461C37.2501 15.994 36.4451 2.26101 30.1637 0.697998C29.6163 0.800676 29.0786 0.950368 28.5566 1.14543" fill="#347AB4"/>
<path d="M24.2534 3.77481C28.5683 9.7077 30.113 22.0328 35.7022 24.783C36.9371 24.327 38.1032 23.7016 39.1674 22.9247C34.6773 17.4899 34.1872 4.10591 28.5593 1.1499C26.9873 1.77651 25.5327 2.66382 24.2534 3.77481Z" fill="#347AB4"/>
<path d="M19.814 5.1365C18.9757 7.16028 18.2405 9.22559 17.6113 11.3244C19.0928 9.18189 20.7529 7.16968 22.5737 5.3095C22.3662 4.65574 22.1217 4.01439 21.8415 3.38855C21.1348 3.93409 20.458 4.51759 19.814 5.1365Z" fill="#347AB4"/>
<path d="M22.4428 2.94556C22.2437 3.0947 22.0447 3.23489 21.8486 3.39298C22.1288 4.01885 22.3733 4.66021 22.5809 5.31394C22.878 5.01565 23.175 4.73527 23.4721 4.46383C23.1697 3.93355 22.827 3.42746 22.4472 2.95003" fill="#347AB4"/>
<path d="M23.1499 2.46985C22.9137 2.61899 22.6791 2.77857 22.4414 2.94412C22.8216 3.42211 23.1647 3.9287 23.4678 4.45941C23.7307 4.22078 23.9921 3.9911 24.2535 3.77335C23.9215 3.30943 23.5525 2.87348 23.1499 2.46985Z" fill="#347AB4"/>
<path d="M61.5376 0C58.3546 12.3281 51.7004 22.2222 46.1335 24.7233H46.1231C46.0221 24.7696 45.9211 24.8113 45.826 24.8531C45.814 24.859 45.8016 24.8639 45.7889 24.868L45.7027 24.9008C45.6904 24.9075 45.6775 24.913 45.6641 24.9172C45.6166 24.9336 45.5705 24.9485 45.5245 24.9664L45.4665 24.9873L45.3982 25.0097L45.3314 25.0336C45.3121 25.0425 45.2898 25.0455 45.272 25.0544C45.2542 25.0634 45.1933 25.0768 45.1532 25.0902C45.1359 25.0927 45.1189 25.0972 45.1027 25.1037L45.0224 25.126C45.0052 25.133 44.9873 25.138 44.969 25.1409L44.8813 25.1633L44.7744 25.1872C45.0298 25.2815 45.2999 25.329 45.572 25.3274C50.8567 25.3274 56.186 15.8166 65.0028 0.00149142H61.5406L61.5376 0Z" fill="#347AB4"/>
<path d="M16.4631 1.04998C16.4631 1.04998 16.4706 1.04104 16.4721 1.04104C16.4734 1.04125 16.4748 1.04118 16.4762 1.04084C16.4775 1.0405 16.4788 1.0399 16.4799 1.03907C16.481 1.03823 16.4819 1.03719 16.4826 1.03599C16.4833 1.03479 16.4838 1.03346 16.4839 1.03209L16.5701 0.999276C16.5734 0.999877 16.5769 0.999317 16.5798 0.99769C16.5828 0.996062 16.5851 0.993465 16.5864 0.990327C16.5938 0.990327 16.6013 0.981379 16.6087 0.981379L16.7008 0.948567C16.7706 0.927687 16.836 0.900842 16.9043 0.876979C16.9132 0.876979 16.9236 0.86803 16.934 0.86803C16.9444 0.86803 16.9919 0.848642 17.0201 0.842676C17.0329 0.836552 17.0464 0.832043 17.0602 0.829253C17.0899 0.820305 17.1196 0.809865 17.1479 0.803899C17.1761 0.797933 17.1716 0.794951 17.182 0.794951C17.2786 0.768105 17.3751 0.742751 17.4791 0.718888C17.4925 0.718888 17.5043 0.709939 17.5192 0.709939C17.547 0.702283 17.5753 0.696797 17.6039 0.693534C17.617 0.687026 17.631 0.682503 17.6454 0.680111C17.6737 0.671162 17.7004 0.671162 17.7316 0.663705H17.7509L17.9277 0.630894H17.9633C17.9902 0.624397 18.0175 0.619418 18.045 0.61598C18.0598 0.61598 18.0762 0.607031 18.091 0.607031C18.1175 0.604804 18.1438 0.600818 18.1698 0.5951C18.1847 0.596052 18.1995 0.592961 18.2128 0.586151C18.2737 0.577203 18.3376 0.57422 18.403 0.569745C18.2203 0.551848 18.0316 0.539917 17.84 0.539917C11.8943 0.544391 3.69396 11.6331 0 25.9941H0.711462C1.89971 23.8777 2.95576 21.8747 3.92715 19.9941C6.51307 9.82254 11.7829 2.89488 16.4631 1.04998Z" fill="#347AB4"/>
<path d="M19.8169 5.135C20.4608 4.51608 21.1376 3.93258 21.8443 3.38705C21.7006 3.06622 21.5395 2.75355 21.3616 2.45044C20.7282 3.27107 20.2086 4.17415 19.8169 5.135Z" fill="#347AB4"/>
<path d="M20.3042 1.13939C20.7268 1.51628 21.0837 1.96138 21.3603 2.45632C21.4613 2.33253 21.5623 2.21769 21.6678 2.11031C21.2408 1.70393 20.7563 1.36318 20.23 1.09912C20.2507 1.1102 20.272 1.12016 20.2938 1.12895C20.2938 1.12895 20.3028 1.1379 20.3057 1.1379" fill="#347AB4"/>
<path d="M3.92725 20.003C9.35456 9.50186 11.9256 2.8516 16.4647 1.06189C11.7845 2.90082 6.51317 9.83743 3.92725 20.003Z" fill="#347AB4"/>
<path d="M21.6659 2.10592C21.5604 2.21479 21.4594 2.32814 21.3584 2.45192C21.5365 2.75512 21.6982 3.06779 21.8426 3.38854C22.0431 3.2394 22.2422 3.09025 22.4367 2.94111C22.1981 2.64338 21.9391 2.3628 21.6614 2.10144" fill="#347AB4"/>
<path d="M6.39123 25.9478C6.35889 25.9542 6.32612 25.9582 6.2932 25.9598H6.27389C6.24567 25.9598 6.21596 25.9687 6.19071 25.9687H6.17735C6.10902 25.9777 6.04218 25.9777 5.97831 25.9821H5.95752C11.4532 25.833 13.9618 23.0664 15.208 19.0604C16.1556 16.0239 16.9325 13.4661 17.6142 11.3199C15.0706 14.9972 12.7537 18.8274 10.6763 22.789C10.2717 23.6252 9.66983 24.3497 8.92307 24.8994C8.17632 25.4491 7.30721 25.8075 6.39123 25.9434" fill="#347AB4"/>
<path d="M6.39111 25.9464C7.30718 25.8107 8.17639 25.4524 8.92319 24.9027C9.66998 24.353 10.2718 23.6284 10.6762 22.792C12.7535 18.8305 15.0695 14.9999 17.6111 11.3215C18.2406 9.22253 18.9763 7.1572 19.8153 5.13354C15.2331 9.51237 10.6346 16.7935 6.39111 25.9434" fill="#347AB4"/>
<path d="M3.92565 19.9971C2.95426 21.8763 1.89227 23.8748 0.709961 25.9971H2.78196C3.04358 23.9763 3.42599 21.9732 3.92714 19.9986" fill="#347AB4"/>
<path d="M18.2187 0.596542C18.2023 0.596542 18.189 0.60549 18.1741 0.60549C18.1488 0.611771 18.1229 0.615271 18.0969 0.61593C18.081 0.614804 18.0651 0.61789 18.0508 0.624879C18.0239 0.631276 17.9966 0.636255 17.9691 0.639793C17.9566 0.638454 17.944 0.641624 17.9335 0.648741L17.7567 0.680062H17.7374C17.7091 0.687349 17.6803 0.692828 17.6513 0.696467C17.6376 0.702602 17.6231 0.706625 17.6082 0.708399C17.5783 0.715116 17.5481 0.720096 17.5176 0.723313C17.5052 0.729741 17.4914 0.732825 17.4775 0.732261C17.381 0.756124 17.2844 0.781478 17.1804 0.808324C17.17 0.808324 17.1597 0.817272 17.1463 0.818764L17.0587 0.844118C17.0461 0.850387 17.0325 0.854424 17.0185 0.85605L16.9324 0.881404C16.9205 0.881404 16.9116 0.890352 16.9012 0.890352C16.8344 0.915707 16.769 0.941061 16.6992 0.961941L16.6071 0.993261C16.5949 1.00012 16.5819 1.00562 16.5685 1.00967C16.5388 1.01861 16.5106 1.03055 16.4824 1.04099C16.4734 1.04644 16.464 1.05094 16.4541 1.05441C11.915 2.85307 9.34397 9.49885 3.91666 19.9955C3.41497 21.97 3.03255 23.9732 2.77148 25.994H3.06855C3.88695 25.994 4.11866 25.9851 5.06034 25.9851H5.97232C6.03767 25.9761 6.10451 25.9761 6.17135 25.9716H6.18324C6.21146 25.9716 6.23968 25.9627 6.26641 25.9627H6.28572C6.31543 25.9627 6.35107 25.9537 6.38375 25.9508C10.6273 16.8009 15.2258 9.51973 19.808 5.14091C20.1996 4.18034 20.7187 3.27732 21.3512 2.45635C21.0755 1.96081 20.719 1.51517 20.2966 1.13793C20.2966 1.13793 20.2862 1.13793 20.2847 1.12898L20.2194 1.09766L20.1555 1.06485L20.0931 1.03502C20.0682 1.02626 20.0439 1.01579 20.0204 1.0037L19.9624 0.978346L19.8421 0.927638C19.8243 0.918689 19.808 0.914215 19.7901 0.908249L19.7144 0.887369C19.699 0.880608 19.6831 0.875121 19.6668 0.870964L19.5421 0.827713H19.5317C19.4842 0.811307 19.4366 0.799375 19.3832 0.785952C19.3735 0.779401 19.3621 0.775778 19.3505 0.775513L19.2331 0.738227C19.2227 0.738227 19.2138 0.729279 19.2049 0.729279C19.1069 0.703924 19.0059 0.681553 18.9079 0.663656C18.8975 0.663656 18.8871 0.654707 18.8767 0.654707C18.8321 0.645759 18.7905 0.638301 18.746 0.633827C18.7424 0.630512 18.7382 0.627999 18.7336 0.626456C18.7289 0.624913 18.7241 0.624375 18.7192 0.624879C18.6672 0.61593 18.6153 0.609964 18.5707 0.603999H18.544C18.5024 0.59505 18.4638 0.59505 18.4251 0.590576C18.3598 0.599525 18.2959 0.602507 18.235 0.608473" fill="#347AB4"/>
<path d="M49.1041 6.82623C48.0643 10.1849 47.2147 12.956 46.478 15.2364C49.7167 10.6115 52.5207 5.69449 54.8537 0.548828C53.4369 1.00722 52.1625 1.82643 51.1549 2.92657C50.1472 4.02672 49.4406 5.37027 49.1041 6.82623Z" fill="#347AB4"/>
<path d="M46.57 24.5131C46.4215 24.5877 46.2729 24.6623 46.1333 24.7234C51.7062 22.2268 58.3604 12.3267 61.5374 0.00158691H60.8854C53.5732 13.1187 51.2205 21.8987 46.5626 24.5131" fill="#347AB4"/>
<path d="M42.9314 23.4124C44.1434 21.921 45.1311 19.4005 46.4797 15.2365C45.0813 17.2028 43.5121 19.041 41.7906 20.7294C41.7906 20.7383 41.7906 20.7383 41.7832 20.7428C42.0737 21.6694 42.4575 22.5639 42.9284 23.4124" fill="#347AB4"/>
<path d="M42.9296 23.4124C42.5581 23.8822 42.1053 24.2808 41.5928 24.5891C41.4859 24.6517 41.379 24.7099 41.269 24.7636C41.7965 25.0504 42.3738 25.2332 42.9697 25.302C43.0618 25.3109 43.1524 25.3199 43.2475 25.3258H43.2638C43.3085 25.3248 43.3533 25.3278 43.3975 25.3348H43.8505C43.8678 25.3358 43.8851 25.3327 43.901 25.3258C43.9344 25.3269 43.9678 25.3239 44.0005 25.3169H44.0495C44.0837 25.3169 44.1208 25.3079 44.158 25.305H44.1669C44.1773 25.305 44.1892 25.296 44.201 25.296C44.2397 25.2871 44.2798 25.2841 44.3169 25.2781H44.3511L44.4818 25.2558H44.5026C44.5902 25.2393 44.6763 25.2214 44.7625 25.2006C43.9627 24.8403 43.3122 24.2125 42.9222 23.4243" fill="#347AB4"/>
<path d="M32.6543 25.3348C33.1836 25.3354 33.7118 25.2854 34.2317 25.1857C34.7314 25.0915 35.2231 24.9584 35.7022 24.7875C36.1116 24.9914 36.5454 25.1418 36.9929 25.2349C37.3556 25.3084 37.7249 25.3449 38.095 25.3438L32.6543 25.3348Z" fill="#347AB4"/>
<path d="M38.0952 25.3334C39.1826 25.3859 40.2678 25.1907 41.2693 24.7622C41.7968 25.049 42.3741 25.2318 42.97 25.3006C43.0621 25.3096 43.1527 25.3185 43.2477 25.3245H43.2641C43.3088 25.3234 43.3536 25.3264 43.3978 25.3334H38.0952Z" fill="#347AB4"/>
<path d="M43.5625 25.3333H43.8596C43.8769 25.3345 43.8942 25.3314 43.9101 25.3244C43.944 25.3254 43.9779 25.3224 44.0111 25.3154H44.0601C44.0943 25.3154 44.1314 25.3065 44.1671 25.3035H44.176C44.1864 25.3035 44.1982 25.2946 44.2086 25.2946C44.2473 25.2856 44.2874 25.2826 44.3245 25.2767C44.337 25.2776 44.3495 25.2745 44.3601 25.2677L44.4909 25.2468H44.5116C44.5993 25.2304 44.6854 25.2125 44.7716 25.1917C45.0269 25.286 45.2971 25.3334 45.5692 25.3318L43.5596 25.3408L43.5625 25.3333Z" fill="#347AB4"/>
<path d="M41.7845 20.7488V20.7339C41.2112 21.2847 40.6383 21.7888 40.066 22.2462C39.7689 22.4848 39.4719 22.71 39.1748 22.9233C39.4182 23.2192 39.678 23.501 39.9531 23.7674C40.3472 24.1581 40.793 24.4923 41.278 24.7607C41.3864 24.707 41.4948 24.6489 41.6003 24.5862C42.1128 24.278 42.5657 23.8794 42.9371 23.4095C42.4663 22.5608 42.0826 21.6664 41.7919 20.7398" fill="#347AB4"/>
<path d="M58.8507 0.00149142H55.6053C55.43 0.01044 55.2592 0.0164057 55.0914 0.0268456C55.0112 0.198359 54.931 0.368382 54.8522 0.541387C52.5198 5.68703 49.7164 10.604 46.4781 15.2289C45.1309 19.393 44.1417 21.9195 42.9297 23.4049C43.3201 24.1924 43.9698 24.82 44.7685 25.1812C44.7869 25.1756 44.8058 25.1716 44.8249 25.1693H44.8368C44.8487 25.1693 44.8636 25.1603 44.8769 25.1603C44.9066 25.1514 44.9378 25.1469 44.9675 25.138C44.985 25.1319 45.0029 25.1269 45.021 25.123L45.1012 25.1022C45.1173 25.0949 45.1343 25.0899 45.1517 25.0872L45.2705 25.0515C45.2897 25.0427 45.3095 25.0357 45.3299 25.0306C45.3522 25.0216 45.376 25.0157 45.3968 25.0067C45.4205 24.9978 45.4443 24.9933 45.4651 24.9843L45.5215 24.9635C45.5691 24.9471 45.6151 24.9321 45.6612 24.9142C45.6745 24.9142 45.6864 24.9023 45.6998 24.8993C45.728 24.8874 45.7577 24.8784 45.7859 24.865C45.7974 24.8583 45.81 24.8537 45.8231 24.8516C45.9211 24.8098 46.0221 24.7681 46.1201 24.7218H46.1305C46.2791 24.6577 46.4276 24.5861 46.5672 24.5116C51.2266 21.8986 53.5779 13.1171 60.8915 0H58.8507V0.00149142Z" fill="#347AB4"/>
<path d="M18.4102 0.578624C18.4217 0.577741 18.4333 0.580902 18.4428 0.587573C18.4714 0.586022 18.4999 0.589042 18.5275 0.596521H18.5587C18.6092 0.60547 18.6612 0.609944 18.7072 0.617401C18.7121 0.616682 18.717 0.617116 18.7217 0.618671C18.7263 0.620225 18.7305 0.622856 18.734 0.62635L18.8647 0.648721C18.8736 0.648721 18.8869 0.65767 18.8973 0.65767C18.9983 0.67855 19.1008 0.69943 19.1944 0.724784C19.2033 0.724784 19.2137 0.733732 19.2211 0.733732C19.2627 0.744172 19.2999 0.756104 19.3429 0.768035C19.3563 0.768035 19.3652 0.776984 19.3771 0.778475C19.4261 0.791898 19.4721 0.803829 19.5256 0.820235C19.5256 0.820235 19.5256 0.820235 19.536 0.829184L19.6608 0.872435C19.676 0.879575 19.6919 0.885074 19.7083 0.888841L19.7989 0.926126C19.8165 0.929569 19.8336 0.935599 19.8494 0.944023L19.9682 0.994732L20.0262 1.02009C20.0496 1.03238 20.0739 1.04286 20.099 1.05141L20.1628 1.08123L20.2267 1.11405C20.7527 1.37848 21.2372 1.71919 21.6645 2.12523C21.8226 1.95774 21.9929 1.8022 22.1739 1.65991C21.2111 0.952269 20.0489 0.570926 18.8558 0.571167C18.7072 0.571167 18.5587 0.580116 18.4102 0.590556" fill="#347AB4"/>
<path d="M21.666 2.10595C21.9437 2.36731 22.2028 2.64789 22.4414 2.94562C22.679 2.78007 22.9137 2.62049 23.1499 2.47135C22.8488 2.16695 22.5223 1.88903 22.174 1.64062C21.9928 1.78263 21.8239 1.93818 21.666 2.10595Z" fill="#347AB4"/>
<path d="M18.4076 0.578712C18.5561 0.566781 18.7047 0.560815 18.8532 0.560815C20.0478 0.556806 21.2127 0.93502 22.1788 1.64061C23.3305 0.819148 24.7333 0.430582 26.1416 0.542917H17.8491C18.0407 0.542917 18.2279 0.554849 18.412 0.571255" fill="#347AB4"/>
<path d="M26.1426 0.55035C24.7337 0.434786 23.3292 0.820739 22.1753 1.64058C22.5229 1.88928 22.8489 2.16719 23.1497 2.4713C24.43 1.6176 25.8606 1.01678 27.365 0.700984C27.885 0.602367 28.4131 0.55244 28.9424 0.551842L26.1426 0.55035Z" fill="#347AB4"/>
<path d="M46.4797 15.2378C47.2223 12.9559 48.06 10.1864 49.1057 6.82619C49.4411 5.37014 50.1469 4.02634 51.1541 2.92607C52.1613 1.82581 53.4356 1.0067 54.8523 0.548782C54.9355 0.380251 55.0128 0.205754 55.0945 0.0342402C53.089 -0.010191 51.1294 0.639798 49.545 1.875C47.9605 3.1102 46.8477 4.85535 46.3935 6.81724C44.2918 13.5659 43.0174 17.9403 41.7891 20.7292C43.5096 19.0409 45.0782 17.2033 46.4767 15.2378" fill="#347AB4"/>
<path d="M53.9758 23.5347H53.3965V25.3423H53.1603V23.5347H52.5796V23.3199H53.9758V23.5347Z" fill="#347AB4"/>
<path d="M56.3482 25.3438H56.1135V23.9851C56.1135 23.8777 56.1224 23.7465 56.1328 23.5929C56.1169 23.6599 56.096 23.7257 56.0704 23.7897L55.3842 25.3438H55.2698L54.5821 23.8017C54.5547 23.7342 54.5338 23.6643 54.5197 23.5929H54.5123C54.5197 23.6749 54.5227 23.8061 54.5227 23.9881V25.3438H54.291V23.3214H54.6029L55.2208 24.7338C55.2567 24.8126 55.287 24.8938 55.3114 24.9769H55.3203C55.3619 24.865 55.3946 24.783 55.4183 24.7278L56.0481 23.3229H56.3452V25.3453L56.3482 25.3438Z" fill="#347AB4"/>
</g>
<defs>
<clipPath id="clip0_153_689">
<rect width="65" height="26" fill="white"/>
</clipPath>
</defs>
</svg>
