<?xml version="1.0" encoding="utf-8"?>
<!-- Generator: Adobe Illustrator 16.0.0, SVG Export Plug-In . SVG Version: 6.00 Build 0)  -->
<!DOCTYPE svg PUBLIC "-//W3C//DTD SVG 1.1//EN" "http://www.w3.org/Graphics/SVG/1.1/DTD/svg11.dtd">
<svg version="1.1" id="Layer_1" xmlns="http://www.w3.org/2000/svg" xmlns:xlink="http://www.w3.org/1999/xlink" x="0px" y="0px"
	 width="3000px" height="1382.067px" viewBox="0 0 3000 1382.067" enable-background="new 0 0 3000 1382.067" xml:space="preserve">
<rect x="0" y="-253" fill="#FFFFFF" width="3000" height="1800"/>
<g>
	<path fill="#DCECFD" d="M295.882,1382.06h2439.892c-31.282-329.468,57.769-902.841-348.114-1041.389
		c-590.949-274.789-649.329-227.767-1157.734,147.918c-134.579,100.87-309.09,87.155-458.44,29.221
		c-198.468-63.99-375.76,54.721-480.29,218.147C133.096,903.294,256.883,1192.72,295.882,1382.06z"/>
	<path fill="#FFFFFF" d="M1931.328,647.149h-399.43c12.125-25.256,24.462-28.105,48.803-34.55c5.036-3.372,6.515-9.941,8.321-15.726
		c30.251-83.999,146.385-66.462,191.035-2.885c17.674-8.511,39.978-16.665,55.519-4.694c9.397,7.238,14.087,20.71,25.409,24.246
		c8.036,2.509,16.578-1.007,24.973-1.645C1902.067,610.67,1926.311,631.792,1931.328,647.149z"/>
	<path fill="#FFFFFF" d="M2048.25,338.457h-216.021c4.555-9.209,14.004-14.812,24.194-16.117
		c11.253-46.673,74.287-44.155,102.003-12.924c9.923-14.736,28.916-2.109,36.419,9.183
		C2014.041,299.864,2040.789,315.949,2048.25,338.457z"/>
	<path fill="#FFFFFF" d="M1429.356,778.513h-230.584c5.527-8.412,11.051-13.14,20.748-15.836
		c14.382-55.459,89.402-55.421,124.286-18.521c12.939-17.267,41.593-8.293,42.382,13.26
		C1401.409,751.789,1423.437,763.404,1429.356,778.513z"/>
	<g>
		<path fill="#324D90" d="M1525.554,1382.067c-76.031-0.351-135.946,14.255-174.672-69.891c31.063-0.7,58.388,19.103,83.058,37.991
			c-28.872-25.356-36.39-67.56-34.081-105.917c32.053,27.234,62.681,58.067,79.169,96.762c-2.47-28.81-4.829-58.607,4.539-85.963
			C1515.539,1284.984,1532.807,1338.874,1525.554,1382.067z"/>
		<g>
			<polygon fill="#4292F3" points="2048.773,613.772 1926.507,781.064 1749.504,817.354 1749.504,1087.832 1464.71,1382.06 
				2062.776,1382.06 2189.838,796.174 			"/>
			<polygon fill="#BEDBFA" points="2280.231,435.558 2048.773,613.772 2097.393,796.174 1905.563,909.186 1885.514,1190.16 
				1628.23,1382.06 2529.961,1382.06 2584.621,908.809 2461.221,791.438 2412.702,553.624 			"/>
			<polygon fill="#4292F3" points="2412.702,553.624 2228.155,742.992 2266.881,801.357 2266.881,1038.455 2398.469,1075.866 
				2404.7,1054.012 2311.235,1002.1 2337.564,794.572 2266.881,749.955 2428.299,630.073 			"/>
			<polygon fill="#4292F3" points="1931.328,1382.06 2112.92,1150.85 2395.357,1119.949 2302.241,1163.561 2428.299,1256.676 
				2202.054,1204.814 2072.399,1251.004 2047.647,1382.06 			"/>
			<polygon fill="#DCECFD" points="2097.393,796.174 2151.136,769.988 2179.813,842.399 2078.616,1041.268 2106.426,1041.268 
				2234.4,835.794 2179.813,709.555 2100.104,709.555 2048.773,613.772 			"/>
			<polygon fill="#DCECFD" points="2404.7,1054.012 2416.437,1005.694 2481.576,1075.866 2458.053,1219.207 2438.149,1211.969 
				2452.625,1075.866 			"/>
			<polygon fill="#DCECFD" points="1946.803,884.89 1972.939,1075.866 1931.328,1219.207 1809.342,1353.987 1885.514,1190.16 
				1905.563,909.186 			"/>
			<polygon fill="#4292F3" points="2584.621,908.809 2654.932,1133.113 2648.226,1382.06 2529.961,1382.06 			"/>
		</g>
		<path fill="#324D90" d="M2622.271,1382.06c0,0,84.256-19.317,101.298-86.536c0,0-62.423,12.386-81.42,33.136
			c0,0,50.177-56.804,46.39-128.757c0,0-75.739,41.657-80.473,95.621c0,0-2.291-73.597-60.79-132.419
			c0,0-15.896,91.709,7.772,151.354c0,0-47.337-42.603-97.515-52.07c0,0-0.946,73.846,74.793,86.153
			c0,0-38.816-17.041-87.101-14.201C2492.963,1382.484,2538.151,1385.248,2622.271,1382.06z"/>
		<g>
			<polygon fill="#2A437D" points="2294.361,430.359 2360.315,574.937 2327.339,574.937 2271.873,455.338 			"/>
			<polygon fill="#2A437D" points="2186.941,430.359 2120.988,574.937 2153.965,574.937 2209.432,455.338 			"/>
			<g>
				<path fill="#F08F3C" d="M2323.771,215.854c-126.996-30.211-267.653,311-113.427,345.772
					C2337.333,591.831,2477.988,250.619,2323.771,215.854z"/>
				<g>
					<path fill="#F9CE68" d="M2188.529,559.553c-154.228-34.789-13.523-376.025,113.442-345.759
						C2456.191,248.575,2315.488,589.812,2188.529,559.553z"/>
					<path fill="#FFFFFF" d="M2200.996,521.551c-120.326-27.142-10.551-293.369,88.507-269.756
						C2409.822,278.931,2300.049,545.158,2200.996,521.551z"/>
					<path fill="#F9CE68" d="M2213.464,483.549c-86.425-19.495-7.578-210.713,63.569-193.753
						C2363.453,309.286,2284.607,500.505,2213.464,483.549z"/>
					<path fill="#FFFFFF" d="M2225.932,445.546c-52.523-11.848-4.605-128.057,38.633-117.75
						C2317.085,339.641,2269.168,455.852,2225.932,445.546z"/>
					<path fill="#F9CE68" d="M2258.598,388.736c-3.782,11.529-12.826,19.949-20.199,18.808c-18.632-4.18-1.633-45.421,13.697-41.748
						C2259.469,366.938,2262.379,377.208,2258.598,388.736z"/>
				</g>
			</g>
		</g>
	</g>
	<g>
		<path fill="#152E60" d="M633.801,1341.539l3.571,12.511l38.572,16.53c4.595,1.97,7.574,6.488,7.574,11.487h-79.658l3.021-40.528
			H633.801z"/>
		<path fill="#152E60" d="M454.973,1341.539l3.571,12.511l38.572,16.53c4.595,1.97,7.574,6.488,7.574,11.487h-79.657l3.021-40.528
			H454.973z"/>
		<g>
			<g>
				<defs>
					<path id="XMLID_00000131357406444780977350000008696107071176627346_" d="M604.06,657.481l80.283,64.81l15.153-132.834
						l34.296-3.416l10.042,168.707c0.772,12.979-4.047,25.67-13.242,34.865l0,0c-13.325,13.325-33.487,17.054-50.696,9.375
						l-106.201-45.141L604.06,657.481z"/>
				</defs>
				<use xlink:href="#XMLID_00000131357406444780977350000008696107071176627346_"  overflow="visible" fill="#4292F3"/>
				<clipPath id="XMLID_2_">
					<use xlink:href="#XMLID_00000131357406444780977350000008696107071176627346_"  overflow="visible"/>
				</clipPath>
				<path clip-path="url(#XMLID_2_)" fill="#3C7ED7" d="M610.408,662.418c0,0,60.984,69.17,69.487,136.57s0,0,0,0l-76.897-21.83
					L610.408,662.418"/>
			</g>
			<path fill="#324D90" d="M681.953,1053.561l-38.806-182.622c-47.216,0-118.909,0-165.845,0l-52.27,477.8h37.918l99.792-353.581
				l39.482,85.663l1.082,269.312h39.84l39.619-271.314C683.993,1070.417,683.717,1061.865,681.953,1053.561z"/>
			<path fill="#2A437D" d="M562.743,995.157l14.686-57.136c67.961,165.013,57.9,125.242,25.419,297.911l-0.623-155.112
				L562.743,995.157z"/>
			<g>
				<g>
					<defs>
						<path id="XMLID_00000003827132378449912810000004942264167061875384_" d="M564.019,651.063l4.498-42.104l0.01,0.003
							c-40.622-47.465,22.872-110.112,62.218-59.027c22.216,31.993,15.587,85.486-27.004,79.954l6.668,32.529L564.019,651.063z"/>
					</defs>
					<use xlink:href="#XMLID_00000003827132378449912810000004942264167061875384_"  overflow="visible" fill="#F4D2C6"/>
					<clipPath id="XMLID_3_">
						<use xlink:href="#XMLID_00000003827132378449912810000004942264167061875384_"  overflow="visible"/>
					</clipPath>
					<path clip-path="url(#XMLID_3_)" fill="#EDA19D" d="M603.74,629.889c0,0-9.331-4.01-11.346-9.414c0,0,26.407,11.1,42.591-1.714
						c16.184-12.813,0,0,0,0S624.437,635.596,603.74,629.889"/>
					<path clip-path="url(#XMLID_3_)" fill="#EDA19D" d="M596.336,570.939c0,0,14.933-21.956,44.56-11.402
						c0,0-13.503-22.675-19.461-25.201c-5.958-2.527-21.209,13.921-21.209,13.921L596.336,570.939z"/>
				</g>
				<path fill="#59445A" d="M598.622,569.694c0,0,9.659-31.317,24.215-28.827c-22.673-37.013-97.676,5.683-77.889,45.837
					c8.009,14.099,22.772,29.703,22.772,29.703s14.394-2.29,14.589-4.165c0.195-1.875,5.314-25.834,5.314-25.834L598.622,569.694z"
					/>
				<path fill="#F4D2C6" d="M602.551,580.846c-3.618,12.277-22.814,6.314-18.838-5.852
					C587.331,562.719,606.527,568.681,602.551,580.846z"/>
			</g>
			<path fill="#4292F3" d="M498.609,837.118"/>
			<path fill="#4292F3" d="M683.519,942.784"/>
			<path fill="#4292F3" d="M651.815,869.382L611.178,654.85l-47.521-27.153c-79.448,13.709-99.578,251.974-102.887,275.355
				C460.77,903.052,557.048,934.125,651.815,869.382z"/>
			<polygon fill="#324D90" points="611.178,654.85 606.564,658.437 622.837,790.63 662.56,823.223 659.888,771.929 			"/>
			<g>
				
					<rect x="765.67" y="509.515" transform="matrix(0.9902 -0.1395 0.1395 0.9902 -67.3024 121.5295)" fill="#324D90" width="135.094" height="62.634"/>
				
					<rect x="685.451" y="533.248" transform="matrix(0.9902 -0.1395 0.1395 0.9902 -70.4531 106.7527)" fill="#2A437D" width="81.542" height="45.317"/>
				
					<rect x="624.044" y="555.101" transform="matrix(0.9902 -0.1395 0.1395 0.9902 -72.5431 96.9227)" fill="#152E60" width="62.11" height="21.65"/>
				
					<rect x="895.356" y="491.376" transform="matrix(0.9902 -0.1395 0.1395 0.9902 -65.2338 131.0548)" fill="#152E60" width="13.731" height="78.952"/>
			</g>
			<g>
				<g>
					<g>
						<path fill="#F08F3C" d="M903.547,843.803l-115.29,18.746c-12.662,2.06-23.516,10.18-29.065,21.745l-32.219,67.149
							l14.992,20.043l37.312-72.059c3.631-7.014,9.973-12.237,17.552-14.458l112.316-32.921
							C911.543,848.038,908.16,843.053,903.547,843.803z"/>
						<path fill="#F08F3C" d="M515.243,1134.232l50.555-105.297c5.552-11.564,16.409-19.682,29.07-21.737l73.517-11.936
							l14.991,20.044l-79.665,15.433c-7.753,1.502-14.556,6.109-18.828,12.752l-63.313,98.438
							C517.046,1143.1,513.22,1138.445,515.243,1134.232z"/>
						
							<rect x="692.559" y="946.994" transform="matrix(0.5989 0.8008 -0.8008 0.5989 1070.5173 -170.3468)" fill="#2A437D" width="25.53" height="73.162"/>
					</g>
					<path fill="#324D90" d="M909.144,852.049c-123.592,93.604-262.859,197.778-387.573,289.882
						C645.158,1048.318,784.434,944.158,909.144,852.049L909.144,852.049z"/>
				</g>
			</g>
			<path fill="#FFFFFF" d="M611.178,654.85l-14.539,11.306c0,0-43.688-18.597-32.983-38.459L611.178,654.85z"/>
			<path fill="#F4D2C6" d="M702.864,589.122c0.752-0.65-21.507-36.388-2.458-23.195c0.001,0,13.085,14.655,13.085,14.655
				l22.015-3.102l-4.862,8.875L702.864,589.122z"/>
			<path fill="#4292F3" d="M573.694,687.859l8.506,135.363L706.173,958.89l-29.822,22.806
				c-15.808-13.24-140.781-95.003-148.718-111.541l0,0c-23.921-26.424-18.913-114.354-24.075-147.211L573.694,687.859z"/>
			<path fill="#3C7ED7" d="M568.941,905.166c-57.799-42.66-56.886-61.747-61.297-127.731c-11.87,70.283-35.63,92.204,46.631,130.412
				L568.941,905.166z"/>
			<polygon fill="#3C7ED7" points="634.562,880.137 582.2,823.223 578.799,769.101 599.44,823.223 643.916,874.555 			"/>
			<path fill="#F4D2C6" d="M700.623,961.556c0,0,17.702,2.707,20.2,5.831c1.596,1.994,4.041,14.007,5.6,22.432
				c0.912,4.931-1.591,9.858-6.116,12.021c-33.655,17.706-24.866,9.137-41.363-22.128L700.623,961.556z"/>
		</g>
	</g>
	<g>
		<g>
			<g>
				<g>
					<g>
						<polygon fill="#4292F3" points="804.726,1173.941 802.108,1183.119 784.188,1165.305 786.805,1156.128 						"/>
						<polygon fill="#FFFFFF" points="807.359,1164.709 804.742,1173.887 786.82,1156.073 789.438,1146.896 						"/>
						<polygon fill="#4292F3" points="809.969,1155.56 807.352,1164.736 789.43,1146.924 792.047,1137.746 						"/>
						<polygon fill="#FFFFFF" points="812.551,1146.507 809.933,1155.684 792.012,1137.87 794.629,1128.693 						"/>
						<polygon fill="#4292F3" points="815.16,1137.357 812.543,1146.534 794.622,1128.721 797.239,1119.544 						"/>
					</g>
					<g>
						<polygon fill="#4292F3" points="839.21,1141.438 841.828,1132.262 817.206,1137.941 814.589,1147.118 						"/>
						<polygon fill="#FFFFFF" points="836.577,1150.671 839.195,1141.494 814.573,1147.173 811.956,1156.35 						"/>
						<polygon fill="#4292F3" points="833.968,1159.82 836.585,1150.644 811.963,1156.322 809.346,1165.5 						"/>
						<polygon fill="#FFFFFF" points="831.386,1168.873 834.003,1159.696 809.381,1165.376 806.764,1174.553 						"/>
						<polygon fill="#4292F3" points="828.776,1178.022 831.394,1168.846 806.772,1174.525 804.154,1183.702 						"/>
					</g>
					<polygon fill="#152E60" points="819.067,1138.357 749.56,1382.06 743.376,1382.103 813.36,1136.729 					"/>
				</g>
			</g>
		</g>
		<path fill="#152E60" d="M774.276,1072.07l0.651-9.521c-31.146,13.71-17.319,14.597-46.26-3.161l-0.651,9.52l0,0l-0.639,9.364l0,0
			l-0.649,9.492l0,0l-0.65,9.521l19.409,12.517l-0.004,0.058l-19.408-12.517l-0.65,9.521l19.408,12.517l-14.228,262.68l5.798,0.002
			l14.351-262.277l20.931-9.759l0.651-9.521l0,0l0.649-9.492l0,0l0.642-9.392l0,0l0.648-9.492l-20.931,9.759l0.004-0.058
			L774.276,1072.07z"/>
		<g>
			<g>
				<g>
					<g>
						<polygon fill="#4292F3" points="708.525,1165.253 708.67,1174.795 686.367,1162.917 686.223,1153.375 						"/>
						<polygon fill="#FFFFFF" points="708.379,1155.653 708.524,1165.195 686.222,1153.317 686.077,1143.776 						"/>
						<polygon fill="#4292F3" points="708.235,1146.14 708.38,1155.682 686.077,1143.805 685.932,1134.263 						"/>
						<polygon fill="#FFFFFF" points="708.092,1136.728 708.237,1146.269 685.934,1134.392 685.789,1124.85 						"/>
						<polygon fill="#4292F3" points="707.947,1127.214 708.092,1136.756 685.789,1124.878 685.644,1115.337 						"/>
					</g>
					<g>
						<polygon fill="#4292F3" points="732.151,1124.174 732.006,1114.632 710.074,1127.182 710.219,1136.723 						"/>
						<polygon fill="#FFFFFF" points="732.297,1133.773 732.152,1124.231 710.22,1136.781 710.365,1146.322 						"/>
						<polygon fill="#4292F3" points="732.441,1143.286 732.296,1133.744 710.365,1146.294 710.51,1155.836 						"/>
						<polygon fill="#FFFFFF" points="732.584,1152.699 732.439,1143.157 710.508,1155.707 710.653,1165.249 						"/>
						<polygon fill="#4292F3" points="732.729,1162.213 732.584,1152.671 710.652,1165.221 710.797,1174.762 						"/>
					</g>
					
						<rect x="583.369" y="1251.685" transform="matrix(-0.0152 -0.9999 0.9999 -0.0152 -532.7542 1984.5859)" fill="#152E60" width="255.158" height="5.934"/>
				</g>
			</g>
		</g>
	</g>
</g>
<path fill="#152E60" d="M110.199,1381.749c888.949-6.129,1799.444-6.179,2688.395-0.001
	C1909.646,1387.928,999.15,1387.878,110.199,1381.749L110.199,1381.749z"/>
</svg>
