<svg xmlns="http://www.w3.org/2000/svg" xmlns:xlink="http://www.w3.org/1999/xlink" width="696.905" height="334.86" viewBox="0 0 696.905 334.86">
  <defs>
    <linearGradient id="linear-gradient" x1="0.5" x2="0.5" y2="1" gradientUnits="objectBoundingBox">
      <stop offset="0" stop-color="#f6f8fc"/>
      <stop offset="1" stop-color="#e5ecff"/>
    </linearGradient>
    <linearGradient id="linear-gradient-2" x1="0.5" x2="0.5" y2="1" gradientUnits="objectBoundingBox">
      <stop offset="0" stop-color="#184473"/>
      <stop offset="1" stop-color="#021a33"/>
    </linearGradient>
    <linearGradient id="linear-gradient-3" x1="0.5" x2="0.5" y2="1" gradientUnits="objectBoundingBox">
      <stop offset="0" stop-color="#73a1d2"/>
      <stop offset="1" stop-color="#0f3a67"/>
    </linearGradient>
    <linearGradient id="linear-gradient-4" x1="0.5" x2="0.5" y2="1" gradientUnits="objectBoundingBox">
      <stop offset="0" stop-color="#a8dadc"/>
      <stop offset="1" stop-color="#457b9d"/>
    </linearGradient>
    <linearGradient id="linear-gradient-5" x1="0.5" x2="0.5" y2="1" gradientUnits="objectBoundingBox">
      <stop offset="0" stop-color="#147dbe"/>
      <stop offset="1" stop-color="#154e72"/>
    </linearGradient>
  </defs>
  <g id="what-is-pwa" transform="translate(-1053.094 -1463.717)">
    <path id="Polygon_294" data-name="Polygon 294" d="M135.16,27.184a18,18,0,0,1,31.219,0L286.056,235.6a18,18,0,0,1-15.61,26.963H31.092A18,18,0,0,1,15.483,235.6Z" transform="translate(1728.977 1726.282) rotate(-180)" fill="url(#linear-gradient)"/>
    <g id="Group_153" data-name="Group 153" transform="translate(755.639 1176.876)">
      <g id="Group_19" data-name="Group 19" transform="translate(297.456 302.235)">
        <path id="Path_12" data-name="Path 12" d="M789.567,347.832c0,10.307-91.744,18.663-204.916,18.663s-204.912-8.356-204.912-18.663,91.742-18.665,204.912-18.665S789.567,337.523,789.567,347.832Z" transform="translate(-375.353 -63.072)" fill="#017abf" opacity="0.09" style="mix-blend-mode: multiply;isolation: isolate"/>
        <path id="Path_13" data-name="Path 13" d="M396.121,486.682l379.077.094A18.483,18.483,0,0,0,793.684,468.3l.061-247.776a18.482,18.482,0,0,0-18.479-18.487l-379.075-.094A18.485,18.485,0,0,0,377.7,220.42L377.642,468.2A18.483,18.483,0,0,0,396.121,486.682Z" transform="translate(-377.642 -201.941)" fill="url(#linear-gradient-2)"/>
        <path id="Path_14" data-name="Path 14" d="M380.618,273.389a12.319,12.319,0,1,0,12.321-12.317A12.319,12.319,0,0,0,380.618,273.389Z" transform="translate(-374.394 -137.399)" fill="#cbd7ff"/>
        <path id="Path_15" data-name="Path 15" d="M381.588,272.33a10.29,10.29,0,1,0,10.292-10.288A10.291,10.291,0,0,0,381.588,272.33Z" transform="translate(-373.335 -136.34)" fill="#e0f1ff"/>
        <rect id="Rectangle_6" data-name="Rectangle 6" width="363.421" height="251.445" transform="translate(400.058 268.188) rotate(-179.986)" fill="url(#linear-gradient-3)"/>
        <rect id="Rectangle_7" data-name="Rectangle 7" width="75.538" height="75.538" rx="3.781" transform="translate(303.716 38.358)" fill="#071549"/>
        <g id="Group_18" data-name="Group 18" transform="translate(322.719 51.926)">
          <path id="Path_16" data-name="Path 16" d="M550.712,226.768a18.755,18.755,0,0,0-4.731,36.907l-3.888-12.191a1.835,1.835,0,1,1,3.5-1.115l4.432,13.9c.228.008.452.036.68.036s.454-.027.682-.036l4.438-13.894a1.836,1.836,0,1,1,3.5,1.117l-3.894,12.189a18.754,18.754,0,0,0-4.712-36.909Z" transform="translate(-531.941 -226.768)" fill="#fff"/>
        </g>
        <rect id="Rectangle_8" data-name="Rectangle 8" width="17.717" height="3.202" rx="0.572" transform="translate(332.627 92.382)" fill="#fff"/>
        <rect id="Rectangle_9" data-name="Rectangle 9" width="15.483" height="3.202" rx="0.572" transform="translate(333.743 97.126)" fill="#fff"/>
        <rect id="Rectangle_10" data-name="Rectangle 10" width="75.538" height="75.538" rx="3.781" transform="translate(60.329 113.399)" fill="#071549"/>
        <path id="Path_17" data-name="Path 17" d="M435.791,290.172a1.375,1.375,0,0,0-2.351-1.429c-.056.092-5.683,9.23-14.431,13.1a1.375,1.375,0,0,0,.556,2.633,1.4,1.4,0,0,0,.558-.117C429.652,300.143,435.544,290.578,435.791,290.172Zm2.089,6.657c4.518-5.574,3.656-10.221,1.544-12.507a5.474,5.474,0,0,0-4.181-1.788c-2.4.059-4.9,1.615-7.41,4.624-5.921,7.09-10.466,9.374-10.57,9.424a1.376,1.376,0,0,0,1.188,2.483c.207-.1,5.1-2.489,11.5-10.144,2.468-2.957,4.279-3.61,5.363-3.637a2.839,2.839,0,0,1,2.094.9c.3.328,2.832,3.369-1.661,8.91a66.791,66.791,0,0,1-12.129,11.229,1.376,1.376,0,0,0,1.562,2.265A68.4,68.4,0,0,0,437.88,296.83Zm-1.585,11.2a6.633,6.633,0,0,0-8.684,2.893,1.372,1.372,0,0,0,.515,1.868,1.353,1.353,0,0,0,.68.182,1.377,1.377,0,0,0,1.194-.688c.194-.328,1.983-3.2,5.147-1.753a1.376,1.376,0,0,0,1.148-2.5Zm-15.866-36.116a1.369,1.369,0,0,0,1.046-.483,21.966,21.966,0,0,1,7.437-5.218c6.126-2.589,12.359-1.7,18.531,2.652a1.376,1.376,0,1,0,1.585-2.248c-16.709-11.771-29.52,2.88-29.645,3.031a1.371,1.371,0,0,0,.153,1.937A1.356,1.356,0,0,0,420.428,271.913Zm22.2,34.711a4.01,4.01,0,0,1-2.271-2.382,5.49,5.49,0,0,1,.592-3.773,1.377,1.377,0,0,0-2.37-1.4,8.28,8.28,0,0,0-.866,5.938,6.667,6.667,0,0,0,3.685,4.078,1.34,1.34,0,0,0,.613.146,1.376,1.376,0,0,0,.617-2.606Zm8.111-29.3c-2.834-4.8-6.823-7.8-11.533-8.692a17.308,17.308,0,0,0-13.488,3.28c-4.419,3.455-8.757,7.548-8.8,7.59a1.376,1.376,0,1,0,1.891,2c.044-.042,4.285-4.045,8.6-7.421a14.7,14.7,0,0,1,11.284-2.744c3.965.749,7.222,3.236,9.673,7.387a1.376,1.376,0,0,0,2.37-1.4Zm2.506,4.75a1.376,1.376,0,1,0-2.508,1.134c.025.054,2.451,5.526.215,10.138a1.376,1.376,0,0,0,2.476,1.2C456.218,288.788,453.368,282.348,453.244,282.076Zm-4.47,21.329c-.038-.017-3.8-1.728-2.694-7.571,1.27-6.689,1.646-13.5-4.154-17.968-5.258-4.053-11.715-2.466-17.28,4.246a41,41,0,0,1-8.9,8.245,1.375,1.375,0,0,0,1.429,2.351,42.646,42.646,0,0,0,9.587-8.841c2.165-2.606,7.806-8.2,13.482-3.821,3.834,2.955,4.685,7.1,3.131,15.276-1.209,6.383,2.284,9.73,4.3,10.606a1.336,1.336,0,0,0,.548.115,1.376,1.376,0,0,0,.55-2.637Z" transform="translate(-336.77 -136.339)" fill="#3bfaff"/>
        <rect id="Rectangle_11" data-name="Rectangle 11" width="75.538" height="75.538" rx="3.781" transform="translate(159.071 113.399)" fill="#071549"/>
        <path id="Path_18" data-name="Path 18" d="M490.815,273.859h-3.591a14.02,14.02,0,0,0-1.682-4.055l2.539-2.541h0l-4.708-4.71-2.539,2.541a14.138,14.138,0,0,0-4.058-1.682v-3.591h-6.657v3.591a14.113,14.113,0,0,0-4.058,1.682l-2.541-2.539h0l-4.708,4.708h0l2.541,2.541a14.019,14.019,0,0,0-1.682,4.055h-3.591v6.657h3.591a14.054,14.054,0,0,0,1.682,4.058l-2.541,2.541,4.708,4.706h0l2.541-2.539a14.053,14.053,0,0,0,4.058,1.682v3.591h6.657v-3.591a14.077,14.077,0,0,0,4.058-1.682l2.539,2.539h0l4.71-4.706-2.541-2.541a14.055,14.055,0,0,0,1.682-4.058h3.591ZM478.149,284.3c-8.094,4.534-16.345-3.717-11.811-11.811a6.3,6.3,0,0,1,2.409-2.409c8.094-4.532,16.343,3.719,11.811,11.811A6.3,6.3,0,0,1,478.149,284.3Z" transform="translate(-292.025 -138.764)" fill="#dc231f"/>
        <path id="Path_19" data-name="Path 19" d="M496.049,268.2h-2.192a8.56,8.56,0,0,0-1.027-2.476l1.55-1.55h0l-2.872-2.874-1.552,1.55a8.576,8.576,0,0,0-2.474-1.025v-2.192h-4.064v2.192a8.6,8.6,0,0,0-2.474,1.025l-1.55-1.55h0l-2.872,2.874h0l1.55,1.55a8.681,8.681,0,0,0-1.027,2.476h-2.19v4.062h2.19a8.681,8.681,0,0,0,1.027,2.476l-1.55,1.55,2.872,2.874h0l1.55-1.552a8.55,8.55,0,0,0,2.474,1.027v2.192h4.064v-2.192a8.525,8.525,0,0,0,2.474-1.027l1.552,1.552h0l2.874-2.874-1.552-1.55a8.561,8.561,0,0,0,1.027-2.476h2.192Zm-7.73,6.371a5.222,5.222,0,0,1-7.207-7.209,3.854,3.854,0,0,1,1.472-1.47,5.221,5.221,0,0,1,7.205,7.207A3.868,3.868,0,0,1,488.318,274.572Z" transform="translate(-271.535 -138.968)" fill="#1474af"/>
        <path id="Path_20" data-name="Path 20" d="M488.836,278.177H487.29a6.076,6.076,0,0,0-.722-1.744l1.092-1.092h0l-2.025-2.025-1.092,1.092a6.1,6.1,0,0,0-1.744-.724v-1.544h-2.863v1.544a6.066,6.066,0,0,0-1.746.724l-1.092-1.092h0l-2.025,2.025h0l1.092,1.092a6.019,6.019,0,0,0-.722,1.744H473.9v2.863h1.546a6,6,0,0,0,.722,1.744l-1.092,1.094L477.1,285.9h0l1.092-1.094a6.068,6.068,0,0,0,1.746.724v1.546H482.8v-1.546a6.106,6.106,0,0,0,1.744-.724l1.092,1.094h0l2.025-2.025-1.092-1.094a6.05,6.05,0,0,0,.722-1.744h1.546Zm-5.448,4.49a3.68,3.68,0,0,1-5.078-5.08,2.711,2.711,0,0,1,1.037-1.035,3.679,3.679,0,0,1,5.078,5.078A2.715,2.715,0,0,1,483.387,282.668Z" transform="translate(-272.577 -125.317)" fill="#e70f40"/>
        <path id="Path_21" data-name="Path 21" d="M486.527,287.828H484a9.983,9.983,0,0,0-1.184-2.859l1.788-1.79h0l-3.317-3.317-1.79,1.79a9.913,9.913,0,0,0-2.859-1.186v-2.531h-4.691v2.531a9.911,9.911,0,0,0-2.859,1.186l-1.79-1.79h0l-3.319,3.317h0l1.79,1.79a9.988,9.988,0,0,0-1.184,2.859H462.05v4.693h2.531a9.989,9.989,0,0,0,1.184,2.859l-1.79,1.79,3.319,3.317h0l1.79-1.79a9.9,9.9,0,0,0,2.859,1.186v2.531h4.691v-2.531a9.907,9.907,0,0,0,2.859-1.186l1.79,1.79h0l3.319-3.317-1.79-1.79A9.984,9.984,0,0,0,484,292.521h2.531Zm-8.927,7.358a6.03,6.03,0,0,1-8.322-8.324,4.446,4.446,0,0,1,1.7-1.7,6.03,6.03,0,0,1,8.322,8.324A4.46,4.46,0,0,1,477.6,295.186Z" transform="translate(-285.509 -118.992)" fill="#9accd3"/>
        <path id="Path_22" data-name="Path 22" d="M495.872,291.126h-1.878a7.38,7.38,0,0,0-.878-2.121l1.328-1.328h0l-2.462-2.462-1.328,1.328a7.318,7.318,0,0,0-2.121-.878v-1.878h-3.48v1.878a7.3,7.3,0,0,0-2.121.878l-1.328-1.328h0l-2.46,2.462h0l1.328,1.328a7.385,7.385,0,0,0-.881,2.121h-1.876v3.48h1.876a7.385,7.385,0,0,0,.881,2.121l-1.328,1.328,2.46,2.462h0l1.328-1.328a7.3,7.3,0,0,0,2.121.878v1.878h3.48v-1.878a7.319,7.319,0,0,0,2.121-.878l1.328,1.328h0l2.462-2.462-1.328-1.328a7.38,7.38,0,0,0,.878-2.121h1.878Zm-6.622,5.457a4.473,4.473,0,0,1-6.174-6.174,3.3,3.3,0,0,1,1.259-1.261,4.474,4.474,0,0,1,6.174,6.176A3.28,3.28,0,0,1,489.25,296.583Z" transform="translate(-268.413 -112.605)" fill="#fff"/>
        <path id="Path_23" data-name="Path 23" d="M606.4,275.062H430.93a27.391,27.391,0,0,1-27.391-27.391h0a27.39,27.39,0,0,1,27.391-27.391H606.4a27.39,27.39,0,0,1,27.39,27.391h0A27.391,27.391,0,0,1,606.4,275.062Z" transform="translate(-349.375 -181.923)" fill="#071549"/>
        <path id="Path_24" data-name="Path 24" d="M450.852,255.223l-11.742-8.169a2.591,2.591,0,0,0-2.324-.291l-3.395-2.361a13.194,13.194,0,1,0-1.659,2.384l3.284,2.284a2.6,2.6,0,0,0,1.079,2.315l11.742,8.169a2.638,2.638,0,0,0,3.014-4.332Zm-34.88-8.625a10.3,10.3,0,1,1,14.337-2.575A10.31,10.31,0,0,1,415.972,246.6Z" transform="translate(-343.783 -176.825)" fill="#001273"/>
        <path id="Path_25" data-name="Path 25" d="M511.364,209.917c-30.595,30.7-76.271,76.215-116.171,115.912l-.034,135.5,40.006.01L686.672,209.961Zm205.9.05L465.76,461.351l26.531.006L743.8,209.973ZM542.5,461.37l11.06,0L758.631,256.4l0-11.06Z" transform="translate(-358.522 -193.235)" fill="#fff" opacity="0.1"/>
        <path id="Path_26" data-name="Path 26" d="M575.48,260.8a5.634,5.634,0,0,1,5.628,5.628l0,16.8a5.629,5.629,0,1,1-11.259,0l0-16.8A5.631,5.631,0,0,1,575.48,260.8Z" transform="translate(-167.848 -137.69)" fill="#f8f1ff"/>
        <path id="Path_27" data-name="Path 27" d="M575.133,287.862h0a4.991,4.991,0,0,0,4.976-4.974l0-16.795a4.99,4.99,0,0,0-4.974-4.976h0a4.991,4.991,0,0,0-4.976,4.974l0,16.795A4.991,4.991,0,0,0,575.133,287.862Z" transform="translate(-167.507 -137.348)" fill="#cbd7ff"/>
        <path id="Path_28" data-name="Path 28" d="M570.56,273.362a4.136,4.136,0,1,0,4.137-4.135A4.136,4.136,0,0,0,570.56,273.362Z" transform="translate(-167.069 -128.497)" fill="#a2c2e6"/>
        <path id="Path_29" data-name="Path 29" d="M570.826,273.071a3.58,3.58,0,1,0,3.581-3.577A3.582,3.582,0,0,0,570.826,273.071Z" transform="translate(-166.779 -128.206)" fill="#000746"/>
        <path id="Path_30" data-name="Path 30" d="M571.543,272.289a2.08,2.08,0,1,0,2.081-2.079A2.079,2.079,0,0,0,571.543,272.289Z" transform="translate(-165.996 -127.424)" fill="#000717"/>
        <path id="Path_31" data-name="Path 31" d="M572.431,271.417a1.359,1.359,0,1,0,1.359-1.359A1.359,1.359,0,0,0,572.431,271.417Z" transform="translate(-165.027 -127.59)" fill="#f8f1ff" opacity="0.2"/>
        <path id="Path_32" data-name="Path 32" d="M572.086,270.749a.943.943,0,1,0,.945-.943A.943.943,0,0,0,572.086,270.749Z" transform="translate(-165.403 -127.865)" fill="#f8f1ff" opacity="0.2"/>
        <path id="Path_33" data-name="Path 33" d="M571.635,272.506a.943.943,0,1,0,.943-.943A.943.943,0,0,0,571.635,272.506Z" transform="translate(-165.896 -125.947)" fill="#f8f1ff" opacity="0.2"/>
      </g>
      <g id="Group_24" data-name="Group 24" transform="translate(832.57 387.956)">
        <g id="Group_20" data-name="Group 20" transform="translate(0 5.224)">
          <path id="Path_34" data-name="Path 34" d="M614.792,313.594s4.85,7.929,3.346,21.062c0,0-36.045.117-58.571-38.235l6.042-5.335S585.2,319.825,614.792,313.594Z" transform="translate(-546.181 -274.767)" fill="#dc231f"/>
          <path id="Path_35" data-name="Path 35" d="M593.327,301.946l-15.4,16.384,12.754,4.473Z" transform="translate(-526.141 -262.912)" fill="#ff6200"/>
          <path id="Path_36" data-name="Path 36" d="M569.365,298.246a21.739,21.739,0,0,0-.8-4.662s-1.83-6.139-2.177-7.074c0,0-1.487-.278-1.468,1.552a19.78,19.78,0,0,0,.623,4.085,16.259,16.259,0,0,1-2.807-3.576c-.778-1.619-2.4-4.779-3.439-5.2s-1.054.722-1.054.722,2.5,4.85,3.02,5.9c.462.916-.038.851-.038.851s-3.319-5.344-4.049-6.224-1.353-1-1.859-.148c0,0,2.441,4.231,2.792,4.869s1.853,2.493,1.167,2.884c0,0-3.131-4.47-3.717-5.2s-1.3-.738-1.5.193l3.991,6.373s.272.454-.077.515a17.122,17.122,0,0,1-3.1-2.29c-.274-.274-1.194-1.067-1.69-.266,0,0-.132.3.722,1.054s4.315,4.706,4.315,4.706a17.428,17.428,0,0,0,6.036,4.164c3.715,1.491,4.842.462,2.744,1.14l.96-1.849Z" transform="translate(-553.168 -283.283)" fill="#ffcda9"/>
          <path id="Path_37" data-name="Path 37" d="M558.152,294.784l6.132-5.171,2.871,3.079-6.042,5.335Z" transform="translate(-547.727 -276.374)" fill="#3bfaff"/>
        </g>
        <g id="Group_22" data-name="Group 22" transform="translate(39.196)">
          <g id="Group_21" data-name="Group 21" transform="translate(18.522)">
            <path id="Path_38" data-name="Path 38" d="M586.922,287.424a50.272,50.272,0,0,0-6.157,18.085s3.656,3.079,11.351,3.079v9.966l9.159-5.356v-6.919l-2.15-.385,1.458-2.905a4.955,4.955,0,0,0,4.133-3.369c1.06-3.152-2.554-2.384-3.441-2l-1.27,2s.343-4.5,3.056-5.653l-.939-4.426A26.6,26.6,0,0,1,586.922,287.424Z" transform="translate(-580.764 -273.539)" fill="#ffcda9"/>
            <path id="Path_39" data-name="Path 39" d="M602.026,294.854s4.189-7-3.443-11.244c-.834,4.147-3.715,7.381-6.762,10.307l1.391,2.248a12.253,12.253,0,0,0-2.79,7.617l1.27-2s2.043-1.075,3.131.41-1.071,4.332-3.823,4.959l-1.458,2.905,2.15.385v2.313a4.831,4.831,0,0,0,2.244-2.7S604.609,307.591,602.026,294.854Z" transform="translate(-571.183 -277.702)" fill="#131c4c"/>
            <path id="Path_40" data-name="Path 40" d="M602.357,297.652l-6.87,1.192.9-1.459-8.8.267.987-1.978-7.809-2.9L590.433,288l-2.847-7.21,20.578,5.908,1.763,7.978-5.021,3.3Z" transform="translate(-580.764 -280.785)" fill="#131c4c"/>
            <path id="Path_41" data-name="Path 41" d="M586.09,289.916v5.75h-2.712Z" transform="translate(-577.911 -270.819)" fill="#ff907d"/>
            <path id="Path_42" data-name="Path 42" d="M581.827,292.665a5.176,5.176,0,0,0,9.523,3.673Z" transform="translate(-579.715 -267.818)" fill="#fff"/>
          </g>
          <path id="Path_43" data-name="Path 43" d="M641.616,392.779c0,7.969-15.6,14.427-34.855,14.427s-34.853-6.458-34.853-14.427,15.6-14.425,34.853-14.425S641.616,384.813,641.616,392.779Z" transform="translate(-571.908 -174.287)" fill="#017abf" opacity="0.09" style="mix-blend-mode: multiply;isolation: isolate"/>
          <path id="Path_44" data-name="Path 44" d="M591.308,383.688v4.1h-17l11.524-4.1Z" transform="translate(-569.287 -168.465)" fill="#000f1f"/>
          <path id="Path_45" data-name="Path 45" d="M609.613,383.688v4.1l-10.274,4.7h-4.614l8.612-8.8Z" transform="translate(-547.003 -168.465)" fill="#000f1f"/>
          <path id="Path_46" data-name="Path 46" d="M579.819,331.327V440.841h5.476s9.125-25.554,7.665-50.742l6.206-37.963,20.443,88.705h6.206s5.4-32.751-2.19-52.566l-2.92-56.948Z" transform="translate(-563.273 -225.618)" fill="#001f5e"/>
          <path id="Path_47" data-name="Path 47" d="M579.819,333.6s9.985,7.8,41.236,6.86l-.351-6.86-23.6-4.363" transform="translate(-563.273 -227.895)" fill="#00143e"/>
          <path id="Path_48" data-name="Path 48" d="M592.722,348.555l-7-13.949.793,51.913Z" transform="translate(-556.829 -222.038)" fill="#00143e"/>
          <path id="Path_49" data-name="Path 49" d="M579.715,335.943l41.483,7.633-.029-8.3Z" transform="translate(-563.387 -221.309)" fill="#00143e"/>
          <path id="Path_50" data-name="Path 50" d="M621.876,374.071l-42.136.669s-1.261-37.61,9.031-65.23c1.311-3.518,3.064-10.571,11.463-9.709,7.613.78,12.1,12.99,12.947,25.418.908,13.373,4.838,20.829,6.7,30.011A135.843,135.843,0,0,1,621.876,374.071Z" transform="translate(-563.412 -260.107)" fill="#dc231f"/>
        </g>
        <path id="Path_51" data-name="Path 51" d="M597.987,302.812l-.8-4.777s-7.828.665-12.014,6.08l.253,2.1A86.359,86.359,0,0,1,597.987,302.812Z" transform="translate(-518.236 -261.957)" fill="#fbffff"/>
        <g id="Group_23" data-name="Group 23" transform="translate(0.155 45.688)">
          <path id="Path_52" data-name="Path 52" d="M617.387,307.5s4.955-5.538,9.044-4.8c7.973,1.443,8.5,10.119,4.712,15.076-4.346,5.685-30.929,25.234-30.929,25.234S581.2,334.94,554.794,317.42l5.091-6.279,36.254,14.013Z" transform="translate(-551.547 -302.629)" fill="#dc231f"/>
          <path id="Path_53" data-name="Path 53" d="M553.242,311.751l3.246,2.436,5.252-6.159-3.246-2.436Z" transform="translate(-553.242 -299.396)" fill="#ffc400"/>
        </g>
      </g>
      <g id="Group_25" data-name="Group 25" transform="translate(375.419 508.033)">
        <path id="Path_54" data-name="Path 54" d="M434.512,387.489c0,3.689-7.226,6.68-16.14,6.68s-16.14-2.991-16.14-6.68,7.226-6.68,16.14-6.68S434.512,383.8,434.512,387.489Z" transform="translate(-293.765 -280.502)" fill="#017abf" opacity="0.09" style="mix-blend-mode: multiply;isolation: isolate"/>
        <path id="Path_55" data-name="Path 55" d="M428.269,386.946c0,5.026-17.117,9.1-38.231,9.1s-38.231-4.074-38.231-9.1,17.117-9.1,38.231-9.1S428.269,381.918,428.269,386.946Z" transform="translate(-348.805 -283.738)" fill="#017abf" opacity="0.09" style="mix-blend-mode: multiply;isolation: isolate"/>
        <rect id="Rectangle_12" data-name="Rectangle 12" width="75.144" height="75.144" rx="4.957" transform="translate(3.837 27.536)" fill="url(#linear-gradient-4)"/>
        <path id="Path_56" data-name="Path 56" d="M376.717,391.848l15.548-10.8a8.5,8.5,0,0,0,0-13.961l-15.548-10.8a8.5,8.5,0,0,0-13.352,6.979v21.61A8.5,8.5,0,0,0,376.717,391.848Z" transform="translate(-336.189 -308.954)" fill="#fff"/>
        <rect id="Rectangle_13" data-name="Rectangle 13" width="90.771" height="90.771" rx="10.82" transform="translate(77.473 0) rotate(16.755)" fill="url(#linear-gradient-5)"/>
        <path id="Path_57" data-name="Path 57" d="M443.691,367.026a8.3,8.3,0,0,0-.447-6.074v0l-.007-.012c-.081-.17-.165-.337-.258-.5-.01-.014-.017-.031-.029-.045a8.291,8.291,0,0,0-4.72-3.835L402.417,345.29a8.3,8.3,0,0,0-6.876.895,1.477,1.477,0,0,0-.346.191c-.024.021-.034.05-.055.071a8.254,8.254,0,0,0-3.2,4.3l-6.484,20.614c-.017.052-.017.1-.033.157a.792.792,0,0,0-.017.083,8.347,8.347,0,0,0,5.51,10.231L426.735,393.1a8.349,8.349,0,0,0,10.376-5.234c.012-.026.021-.05.033-.077.017-.052.046-.095.064-.148Zm-22.3,1.826,19.4-5.578a5.176,5.176,0,0,1-.071,2.818l-5.663,18Zm15.9-9.326a5.212,5.212,0,0,1,1.805.994l-23.988,6.9-16.35-19.249a5.18,5.18,0,0,1,2.72.089Zm-42.38-7.843a5.192,5.192,0,0,1,1.112-1.922l12.984,15.286-19.759,4.641Zm32.755,38.443-35.812-11.265a5.23,5.23,0,0,1-3.6-5.74l23.017-5.4,2.109,2.485a1.546,1.546,0,0,0,.719.477,1.564,1.564,0,0,0,.9.01l3.061-.881,15.837,17.67A5.232,5.232,0,0,1,427.67,390.126Z" transform="translate(-306.115 -314.45)" fill="#fff"/>
      </g>
      <g id="Group_31" data-name="Group 31" transform="translate(548.48 352.209)">
        <g id="Group_30" data-name="Group 30">
          <path id="Path_58" data-name="Path 58" d="M487.046,393.174c0,7.969-15.6,14.427-34.855,14.427s-34.853-6.459-34.853-14.427,15.6-14.425,34.853-14.425S487.046,385.208,487.046,393.174Z" transform="translate(-417.338 -138.11)" fill="#017abf" opacity="0.09" style="mix-blend-mode: multiply;isolation: isolate"/>
          <path id="Path_59" data-name="Path 59" d="M442.391,383.688v4.1h17l-11.524-4.1Z" transform="translate(-389.993 -132.719)" fill="#000f1f"/>
          <path id="Path_60" data-name="Path 60" d="M422.984,383.688v4.1l10.274,4.7h4.614l-8.613-8.8Z" transform="translate(-411.175 -132.719)" fill="#000f1f"/>
          <path id="Path_61" data-name="Path 61" d="M469.984,331.327V440.841h-5.476s-9.127-25.554-7.665-50.742l-6.206-37.963-20.445,88.705h-6.206s-5.394-32.751,2.192-52.566l2.92-56.948Z" transform="translate(-412.11 -189.872)" fill="#001f5e"/>
          <path id="Path_62" data-name="Path 62" d="M466.529,333.6s-9.987,7.8-41.236,6.86l.351-6.86,23.6-4.363" transform="translate(-408.655 -192.148)" fill="#00143e"/>
          <path id="Path_63" data-name="Path 63" d="M435.759,348.555l7-13.949-.793,51.913Z" transform="translate(-397.232 -186.292)" fill="#00143e"/>
          <path id="Path_64" data-name="Path 64" d="M448,284.095a16.741,16.741,0,0,1-1.169-2.422c-4.386-.134-12.242.531-13.53,6.854,0,0-8.084,6.747,2.123,19.6l4.327,2.384L446,305.351l8.535-11.884a10.019,10.019,0,0,0,2.244-.393A27.113,27.113,0,0,1,448,284.095Z" transform="translate(-403.228 -244.086)" fill="#131637"/>
          <path id="Path_65" data-name="Path 65" d="M435.826,289.235a8.186,8.186,0,1,0,8.186-8.186A8.187,8.187,0,0,0,435.826,289.235Z" transform="translate(-397.158 -244.751)" fill="#131637"/>
          <path id="Path_66" data-name="Path 66" d="M431.836,294.41a1.417,1.417,0,1,0,1.418-1.416A1.418,1.418,0,0,0,431.836,294.41Z" transform="translate(-401.513 -231.713)" fill="#131637"/>
          <path id="Path_67" data-name="Path 67" d="M443.486,288.479s2.888,2.6,3.432,9.178h-5.871Z" transform="translate(-391.459 -236.641)" fill="#ff907d"/>
          <path id="Path_68" data-name="Path 68" d="M435.792,299.326v2.633a7.8,7.8,0,0,0,3.158-5.264s-4.578-.945-3.8-4.281c.644-2.771,4.129-1.838,5.239.548v3.181s1.792-.048,2.108-6.149l2.1-2.69h7.245a29.174,29.174,0,0,1,1.843,13.541H448.77s1.058,1.93,4.469,2.646a22.35,22.35,0,0,1-1.4,4.323h-7.224v5.275l-4.143,1.878L436.9,316.1l-3.039-1.389-1.127-3.878v-8.87S434.384,301.871,435.792,299.326Z" transform="translate(-400.535 -237.923)" fill="#ffcda9"/>
          <circle id="Ellipse_2" data-name="Ellipse 2" cx="1.811" cy="1.811" r="1.811" transform="translate(31.74 61.713)" fill="#131637"/>
          <path id="Path_69" data-name="Path 69" d="M433.767,294.773a1.356,1.356,0,1,0,1.355-1.355A1.357,1.357,0,0,0,433.767,294.773Z" transform="translate(-399.406 -231.25)" fill="#131637"/>
          <path id="Path_70" data-name="Path 70" d="M433.38,294.034a1.356,1.356,0,1,0,1.355-1.357A1.357,1.357,0,0,0,433.38,294.034Z" transform="translate(-399.828 -232.059)" fill="#131637"/>
          <path id="Path_71" data-name="Path 71" d="M436,289.183a3.086,3.086,0,1,0,3.085-3.087A3.086,3.086,0,0,0,436,289.183Z" transform="translate(-396.969 -239.242)" fill="#131637"/>
          <path id="Path_72" data-name="Path 72" d="M438.095,287.706a3.087,3.087,0,1,0,3.087-3.085A3.088,3.088,0,0,0,438.095,287.706Z" transform="translate(-394.681 -240.852)" fill="#131637"/>
          <path id="Path_73" data-name="Path 73" d="M442.63,301.352s12.819,15.318,17.59,18.834c10.957-4.028,18.083-13.754,18.083-13.754l12.106,5.825a79.513,79.513,0,0,1-28.432,24.224c-12.614-1.87-20.373-13.93-20.373-13.93Z" transform="translate(-390.852 -222.59)" fill="#14afff"/>
          <path id="Path_74" data-name="Path 74" d="M444.629,302.771l-.726,3.861-2.158,11.42L441.6,321a37.521,37.521,0,0,0,11.135,10.52Z" transform="translate(-390.852 -221.041)" fill="#0091f4"/>
          <path id="Path_75" data-name="Path 75" d="M425.461,365.625s22.4,6.082,40.885,0c0,0-2.347-39.026-3.413-56.781a9.161,9.161,0,0,0-9.15-8.613l-15.877-.326a9.1,9.1,0,0,0-4.38,2.437c-2.55,2.947-4.633,5.76-4.911,9.648l-3.154,53.635Z" transform="translate(-408.472 -224.169)" fill="#dc231f"/>
          <path id="Path_76" data-name="Path 76" d="M425.461,365.625s22.4,6.082,40.885,0c0,0-2.347-39.026-3.413-56.781a9.161,9.161,0,0,0-9.15-8.613l-15.877-.326a9.1,9.1,0,0,0-4.38,2.437c-2.55,2.947-4.633,5.76-4.911,9.648l-3.154,53.635Z" transform="translate(-408.472 -224.169)" fill="#dc231f"/>
          <g id="Group_29" data-name="Group 29" transform="translate(35.718)">
            <path id="Path_77" data-name="Path 77" d="M685.65,265.572l-222.88,70.239a40.534,40.534,0,1,0,24.366,77.319l222.882-70.239a40.534,40.534,0,1,0-24.368-77.319Z" transform="translate(-434.415 -263.694)" fill="#a5d7da"/>
            <g id="Group_26" data-name="Group 26" transform="translate(12.042 0.174)">
              <path id="Path_78" data-name="Path 78" d="M494.067,287.577l-17.181,5.415L470.18,380.1l17.182-5.415Z" transform="translate(-407.42 -237.799)" fill="#6cbac5"/>
              <path id="Path_79" data-name="Path 79" d="M456.485,299.127a40.3,40.3,0,0,0-11.57,5.85l-4.741,61.6A40.739,40.739,0,0,0,456.19,376.3l6.08-78.994Z" transform="translate(-440.173 -227.183)" fill="#6cbac5"/>
              <path id="Path_80" data-name="Path 80" d="M524.93,277.851l-17.182,5.415-6.706,87.112,17.182-5.415Z" transform="translate(-373.733 -248.415)" fill="#6cbac5"/>
              <path id="Path_81" data-name="Path 81" d="M461.4,297.855,454.8,383.53a40.31,40.31,0,0,0,10.083-1.776l6.988-2.2,6.705-87.112Z" transform="translate(-424.206 -232.491)" fill="#6cbac5"/>
              <path id="Path_82" data-name="Path 82" d="M509.5,282.714l-17.181,5.415-6.706,87.112,17.182-5.415Z" transform="translate(-390.577 -243.107)" fill="#6cbac5"/>
              <path id="Path_83" data-name="Path 83" d="M571.141,263.777a40.566,40.566,0,0,0-8.747,1.7l-8.352,2.631-6.705,87.112,17.182-5.413Z" transform="translate(-323.202 -263.777)" fill="#6cbac5"/>
              <path id="Path_84" data-name="Path 84" d="M580.084,337.175l4.9-63.72a40.793,40.793,0,0,0-16.073-8.993l-6.147,79.846,7.151-2.253A40.422,40.422,0,0,0,580.084,337.175Z" transform="translate(-306.359 -263.03)" fill="#6cbac5"/>
              <path id="Path_85" data-name="Path 85" d="M555.793,268.125l-17.182,5.414-6.705,87.112,17.182-5.415Z" transform="translate(-340.046 -259.031)" fill="#6cbac5"/>
              <path id="Path_86" data-name="Path 86" d="M540.362,272.988,523.179,278.4l-6.705,87.112,17.182-5.415Z" transform="translate(-356.889 -253.723)" fill="#6cbac5"/>
            </g>
            <path id="Path_87" data-name="Path 87" d="M706.789,337.1,483.906,407.335a36.6,36.6,0,0,1-45.913-23.908h0A36.606,36.606,0,0,1,461.9,337.512l222.884-70.239A36.6,36.6,0,0,1,730.7,291.181h0A36.607,36.607,0,0,1,706.789,337.1Z" transform="translate(-432.368 -261.647)" fill="#a5d7da"/>
            <path id="Path_88" data-name="Path 88" d="M561.229,304.512s-5.132.069-7.789.46a53.864,53.864,0,0,0-6.837.546,3.879,3.879,0,0,0,2.851,2.717,22.389,22.389,0,0,0,4.486.678s-5.239,1.849-7.337,2.334a9.474,9.474,0,0,0,2.7,1.682s8.27,5.578,15.431-3.666C567.907,305.169,561.229,304.512,561.229,304.512Z" transform="translate(-311.961 -219.141)" fill="#ffcda9"/>
            <path id="Path_89" data-name="Path 89" d="M502.775,324.165a33.417,33.417,0,1,1-41.916-21.827A33.417,33.417,0,0,1,502.775,324.165Z" transform="translate(-431.073 -223.21)" fill="#6cbac5"/>
            <path id="Path_90" data-name="Path 90" d="M498.025,323.453a30.2,30.2,0,1,1-37.877-19.725A30.2,30.2,0,0,1,498.025,323.453Z" transform="translate(-429.392 -221.53)" fill="#65bcc2"/>
            <g id="Group_28" data-name="Group 28" transform="translate(15.041 91.648)">
              <g id="Group_27" data-name="Group 27" transform="translate(9.555 6.591)">
                <path id="Path_91" data-name="Path 91" d="M457.961,320.182a8.667,8.667,0,1,1-3.684-11.69A8.676,8.676,0,0,1,457.961,320.182Zm-13.689-7.128a6.766,6.766,0,1,0,9.126-2.876A6.775,6.775,0,0,0,444.272,313.054Z" transform="translate(-441.607 -307.513)" fill="#fff"/>
              </g>
              <rect id="Rectangle_14" data-name="Rectangle 14" width="3.127" height="12.898" transform="translate(24.395 21.273) rotate(-62.489)" fill="#00c2ff"/>
              <path id="Path_92" data-name="Path 92" d="M467.411,324.442h0a1.739,1.739,0,0,1-2.338.736l-8.335-4.34A1.739,1.739,0,0,1,456,318.5h0a1.738,1.738,0,0,1,2.338-.738l8.333,4.341A1.738,1.738,0,0,1,467.411,324.442Z" transform="translate(-428.127 -298.143)" fill="#fff"/>
            </g>
          </g>
          <path id="Path_93" data-name="Path 93" d="M437.136,301.555l5.087,5.12a8.024,8.024,0,0,0-2.416-7.983A4.118,4.118,0,0,1,437.136,301.555Z" transform="translate(-395.728 -225.493)" fill="#97002e"/>
          <path id="Path_94" data-name="Path 94" d="M443.723,302.1s-6.456-.374-9.211-3.915a12.279,12.279,0,0,0-3.411,3.928,8.8,8.8,0,0,0,8.793,5.417Z" transform="translate(-402.316 -226.042)" fill="#97002e"/>
        </g>
        <path id="Path_95" data-name="Path 95" d="M449.837,331.272a19.357,19.357,0,0,1,3.813-1.926s5.411-1.953,6.268-2.2c0,0,.95.977-.4,1.958a17.635,17.635,0,0,1-3.3,1.748,13.67,13.67,0,0,0,4.024.184c1.575-.295,4.7-.784,5.528-.224s0,1.192,0,1.192-4.8.749-5.829.918c-.9.148-.6.492-.6.492s5.649.4,6.659.475,1.351.663.983,1.508c0,0-3.014-.194-4.875-.151-.648.015-2.857-.335-2.8.4,0,0,4.806.847,5.632.893a.8.8,0,0,1,.588,1.426l-6.6-.646s-.471.042-.339.339a15.58,15.58,0,0,0,3.284,1.594c.337.059,1.378.324,1.039,1.136,0,0-.153.261-1.134.027s-5.658-1.2-5.658-1.2a14.673,14.673,0,0,1-6.074-2.307c-2.951-2-2.761-3.418-2.209-1.46l.874-1.732Z" transform="translate(-384.417 -194.434)" fill="#ffcda9"/>
        <path id="Path_96" data-name="Path 96" d="M428.749,303.3c2.4-3.035,8.761-2.286,10.939,10.428,2.742,16.011,9.667,38.942,35.618,44.221l-.883,6.883s-32.531-4.432-46.323-40.1C426.3,320.093,424.022,309.277,428.749,303.3Z" transform="translate(-407.947 -222.084)" fill="#ffcda9"/>
        <path id="Path_97" data-name="Path 97" d="M441.852,312.505c-2.177-12.714-9.772-12.511-12.428-9.7-7.216,7.649-2.623,25.652-2.1,27.123l17.123-5.078A125.739,125.739,0,0,1,441.852,312.505Z" transform="translate(-408.534 -222.706)" fill="#97002e"/>
      </g>
      <g id="Group_38" data-name="Group 38" transform="translate(921.682 461.717)">
        <g id="Group_37" data-name="Group 37">
          <g id="Group_36" data-name="Group 36">
            <g id="Group_32" data-name="Group 32" transform="translate(17.2 115.988)">
              <path id="Path_98" data-name="Path 98" d="M575.253,387.612c0,4.974-9.061,9.006-20.238,9.006s-20.237-4.032-20.237-9.006,9.06-9.006,20.237-9.006S575.253,382.639,575.253,387.612Z" transform="translate(-534.778 -352.622)" fill="#017abf" opacity="0.09" style="mix-blend-mode: multiply;isolation: isolate"/>
              <path id="Path_99" data-name="Path 99" d="M574.937,373.16l-3.261.765c-3-2.78-9.378-4.7-16.77-4.7s-13.773,1.918-16.77,4.7l-3.259-.765,1.56,23.929h.006c1.073,4.116,8.927,7.31,18.462,7.31s17.387-3.194,18.462-7.31h.008Z" transform="translate(-534.669 -362.858)" fill="#c9d5f3"/>
              <path id="Path_100" data-name="Path 100" d="M538.1,380.946v3.968s3.238,1.763,9.054,1.719v-3.968A20.4,20.4,0,0,1,538.1,380.946Z" transform="translate(-531.147 -350.068)" fill="#aebee4"/>
              <ellipse id="Ellipse_3" data-name="Ellipse 3" cx="20.237" cy="9.005" rx="20.237" ry="9.005" transform="translate(0.001)" fill="#dbe3f8"/>
              <path id="Path_101" data-name="Path 101" d="M568.5,373.72c0,3.884-7.073,7.034-15.8,7.034s-15.8-3.15-15.8-7.034,7.073-7.032,15.8-7.032S568.5,369.838,568.5,373.72Z" transform="translate(-532.463 -365.631)" fill="#a0d8ff"/>
            </g>
            <g id="Group_34" data-name="Group 34">
              <g id="Group_33" data-name="Group 33" transform="translate(0 92.209)">
                <path id="Path_102" data-name="Path 102" d="M563.275,388.553l-36.716-33.7s-.31,7.542,4.672,11.543,9,2.589,9.619,8.86,4.842,9.851,8.55,10.4C556.979,386.767,558.738,390.814,563.275,388.553Z" transform="translate(-526.554 -354.771)" fill="url(#linear-gradient-5)"/>
                <path id="Path_103" data-name="Path 103" d="M563.273,388.593l-36.716-33.7s7.49-.954,11.9,3.666,3.351,8.747,9.65,8.828,10.228,3.98,11.089,7.63C560.955,382.473,565.138,383.881,563.273,388.593Z" transform="translate(-526.552 -354.813)" fill="url(#linear-gradient-5)"/>
              </g>
              <path id="Path_104" data-name="Path 104" d="M555.992,437.21V310.726s-14.634,12.365-13.563,28.543,10.6,21.275-.057,33.192-10.112,25.958-4.767,33.83C548.528,422.373,543.981,432.609,555.992,437.21Z" transform="translate(-518.557 -310.726)" fill="url(#linear-gradient-4)"/>
              <path id="Path_105" data-name="Path 105" d="M544.455,437.21V310.726s14.634,12.365,13.563,28.543-10.6,21.275.056,33.192,10.113,25.958,4.767,33.83C551.919,422.373,556.467,432.609,544.455,437.21Z" transform="translate(-507.015 -310.726)" fill="url(#linear-gradient-4)"/>
            </g>
            <g id="Group_35" data-name="Group 35" transform="translate(37.101 47.873)">
              <path id="Path_106" data-name="Path 106" d="M549.835,412.409l26.19-78.794s-11.677,4.672-14.358,14.971,2.2,15.45-6.908,20.666-11.675,14.076-9.974,20.087C548.258,401.621,543.306,407.054,549.835,412.409Z" transform="translate(-544.293 -333.615)" fill="#487d9e"/>
              <path id="Path_107" data-name="Path 107" d="M546.944,412.409l26.19-78.794s6.557,10.734,2.541,20.589-11.012,11.058-6.839,20.689.925,18.263-4.037,22.061C554.668,404.712,555.381,412.03,546.944,412.409Z" transform="translate(-541.4 -333.615)" fill="#487d9e"/>
            </g>
          </g>
          <path id="Path_108" data-name="Path 108" d="M548.53,377.327v4.409a14.708,14.708,0,0,0,8.6-3.334v-4.549S554.865,376.545,548.53,377.327Z" transform="translate(-502.567 -241.822)" fill="#aebee4"/>
          <path id="Path_109" data-name="Path 109" d="M555.115,378.7v3.968s-3.236,1.763-9.052,1.719v-3.968A20.384,20.384,0,0,0,555.115,378.7Z" transform="translate(-505.26 -236.532)" fill="#aebee4"/>
          <path id="Path_110" data-name="Path 110" d="M542.409,377.549a16.493,16.493,0,0,1-3.242-1.138v3.968a14.872,14.872,0,0,0,3.242,1.1Z" transform="translate(-512.787 -239.03)" fill="#aebee4"/>
        </g>
      </g>
    </g>
    <g id="Group_3956" data-name="Group 3956" transform="translate(1488.068 1652.092)">
      <path id="Path_194" data-name="Path 194" d="M550.005,237.071V228.3a12.9,12.9,0,0,0-23.4-7.513v-4.926a15.006,15.006,0,0,0-30.013,0v.807a12.893,12.893,0,0,0-23.213,7.754v11.556a15.853,15.853,0,0,0-10.176,14.747h0a15.854,15.854,0,0,0,15.806,15.806H542.1a15.854,15.854,0,0,0,15.808-15.806h0A15.832,15.832,0,0,0,550.005,237.071Z" transform="translate(-450.843 -174.566)" fill="#fbffff"/>
      <g id="Group_134" data-name="Group 134" transform="translate(4.103 4.103)" opacity="0.7">
        <path id="Path_195" data-name="Path 195" d="M513.712,294.749,458.1,269.418V202.8l55.611,25.331Z" transform="translate(-458.101 -177.469)" fill="#d1dcf7"/>
        <path id="Path_196" data-name="Path 196" d="M492.474,294.749l55.61-25.331V202.8l-55.61,25.331Z" transform="translate(-436.864 -177.469)" fill="#b4c4ef"/>
        <path id="Path_197" data-name="Path 197" d="M569.322,212.474l-55.61,25.593L458.1,212.474l55.611-25.331Z" transform="translate(-458.101 -187.143)" fill="#d7e0fd"/>
      </g>
      <path id="Path_198" data-name="Path 198" d="M455.565,204.367a4.1,4.1,0,1,0,4.1-4.1A4.1,4.1,0,0,0,455.565,204.367Z" transform="translate(-455.565 -174.933)" fill="#9cb0e2" opacity="0.75"/>
      <path id="Path_199" data-name="Path 199" d="M523.513,204.367a4.1,4.1,0,1,0,4.1-4.1A4.1,4.1,0,0,0,523.513,204.367Z" transform="translate(-413.583 -174.933)" fill="#9cb0e2" opacity="0.75"/>
      <path id="Path_200" data-name="Path 200" d="M489.938,220.186a4.1,4.1,0,1,0,4.1-4.1A4.1,4.1,0,0,0,489.938,220.186Z" transform="translate(-434.327 -165.159)" fill="#9cb0e2" opacity="0.75"/>
      <path id="Path_201" data-name="Path 201" d="M489.938,188.71a4.1,4.1,0,1,0,4.1-4.1A4.1,4.1,0,0,0,489.938,188.71Z" transform="translate(-434.327 -184.607)" fill="#9cb0e2" opacity="0.75"/>
      <path id="Path_202" data-name="Path 202" d="M489.938,261.2a4.1,4.1,0,1,0,4.1-4.1A4.1,4.1,0,0,0,489.938,261.2Z" transform="translate(-434.327 -139.818)" fill="#9cb0e2" opacity="0.75"/>
      <path id="Path_203" data-name="Path 203" d="M455.565,246.1a4.1,4.1,0,1,0,4.1-4.1A4.1,4.1,0,0,0,455.565,246.1Z" transform="translate(-455.565 -149.151)" fill="#9cb0e2" opacity="0.75"/>
      <path id="Path_204" data-name="Path 204" d="M523.513,246.1a4.1,4.1,0,1,0,4.1-4.1A4.1,4.1,0,0,0,523.513,246.1Z" transform="translate(-413.583 -149.151)" fill="#9cb0e2" opacity="0.75"/>
    </g>
  </g>
</svg>
