<svg xmlns="http://www.w3.org/2000/svg" xmlns:xlink="http://www.w3.org/1999/xlink" width="685.653" height="435.041" viewBox="0 0 685.653 435.041">
  <defs>
    <linearGradient id="linear-gradient" x1="-0.014" y1="0.033" x2="1.458" y2="1.741" gradientUnits="objectBoundingBox">
      <stop offset="0" stop-color="#a8dadc"/>
      <stop offset="1" stop-color="#457b9d"/>
    </linearGradient>
    <linearGradient id="linear-gradient-2" x1="0.138" y1="-0.007" x2="0.838" y2="1.009" gradientUnits="objectBoundingBox">
      <stop offset="0" stop-color="#2b3582"/>
      <stop offset="1" stop-color="#150e42"/>
    </linearGradient>
    <linearGradient id="linear-gradient-3" x1="0.52" y1="1.509" x2="0.468" y2="0.18" gradientUnits="objectBoundingBox">
      <stop offset="0" stop-color="#184473"/>
      <stop offset="1" stop-color="#021a33"/>
    </linearGradient>
    <linearGradient id="linear-gradient-4" x1="0" y1="0.5" x2="1" y2="0.5" xlink:href="#linear-gradient-3"/>
    <linearGradient id="linear-gradient-5" x1="0.265" y1="0.861" x2="1.243" y2="-0.665" gradientUnits="objectBoundingBox">
      <stop offset="0" stop-color="#73a1d2"/>
      <stop offset="1" stop-color="#0f3a67"/>
    </linearGradient>
    <linearGradient id="linear-gradient-6" x1="0.525" y1="0.297" x2="0.225" y2="5.134" xlink:href="#linear-gradient-3"/>
    <clipPath id="clip-path">
      <path id="Path_19" data-name="Path 19" d="M231.718,205.05v209.8a19.409,19.409,0,0,0,19.119,19.406l428.137,5.289a18.89,18.89,0,0,0,19.171-18.817l.716-207.92a13.814,13.814,0,0,0-13.478-13.861L247.05,190.087A14.968,14.968,0,0,0,231.718,205.05Z" transform="translate(-231.718 -190.083)" fill="none"/>
    </clipPath>
    <linearGradient id="linear-gradient-7" x1="-0.163" y1="2.046" x2="1.118" y2="-0.94" gradientUnits="objectBoundingBox">
      <stop offset="0" stop-color="#2a5d94"/>
      <stop offset="1" stop-color="#092646"/>
    </linearGradient>
    <linearGradient id="linear-gradient-8" x1="0.726" y1="-0.218" x2="0.274" y2="1.218" gradientUnits="objectBoundingBox">
      <stop offset="0" stop-color="#fc9e9c"/>
      <stop offset="1" stop-color="#ec322e"/>
    </linearGradient>
    <linearGradient id="linear-gradient-9" x1="0.918" y1="-0.4" x2="-0.301" y2="2.225" xlink:href="#linear-gradient-7"/>
    <linearGradient id="linear-gradient-10" x1="-0.008" y1="0.672" x2="1.394" y2="0.307" gradientUnits="objectBoundingBox">
      <stop offset="0" stop-color="#fff" stop-opacity="0.341"/>
      <stop offset="1" stop-color="#f1f2ff"/>
    </linearGradient>
    <linearGradient id="linear-gradient-14" x1="0.788" y1="0.231" x2="-1.513" y2="2.313" xlink:href="#linear-gradient-5"/>
    <linearGradient id="linear-gradient-15" x1="-0.163" y1="2.046" x2="1.118" y2="-0.94" xlink:href="#linear-gradient-5"/>
    <linearGradient id="linear-gradient-16" x1="0.718" y1="-0.192" x2="0.274" y2="1.218" xlink:href="#linear-gradient-5"/>
    <linearGradient id="linear-gradient-17" x1="0.726" y1="-0.218" x2="0.274" y2="1.218" xlink:href="#linear-gradient-8"/>
    <linearGradient id="linear-gradient-21" x1="-0.275" y1="0.976" x2="1.332" y2="-0.095" gradientUnits="objectBoundingBox">
      <stop offset="0" stop-color="#f9b776"/>
      <stop offset="1" stop-color="#f47960"/>
    </linearGradient>
    <linearGradient id="linear-gradient-22" x1="-0.983" y1="3.694" x2="5.003" y2="-8.994" xlink:href="#linear-gradient-21"/>
    <linearGradient id="linear-gradient-23" x1="0" y1="0.5" x2="1" y2="0.5" xlink:href="#linear-gradient-21"/>
    <linearGradient id="linear-gradient-24" x1="1.14" y1="-0.188" x2="0.025" y2="1.245" xlink:href="#linear-gradient-8"/>
    <linearGradient id="linear-gradient-26" x1="1.205" y1="-0.089" x2="-1.004" y2="1.396" xlink:href="#linear-gradient-21"/>
    <linearGradient id="linear-gradient-27" x1="1.763" y1="-0.515" x2="-5.935" y2="5.655" xlink:href="#linear-gradient-21"/>
    <linearGradient id="linear-gradient-28" x1="1.133" y1="1.075" x2="-0.363" y2="-0.514" xlink:href="#linear-gradient-21"/>
    <linearGradient id="linear-gradient-29" x1="1.014" y1="0.033" x2="-0.458" y2="1.741" xlink:href="#linear-gradient"/>
    <linearGradient id="linear-gradient-30" x1="0.862" y1="-0.007" x2="0.162" y2="1.009" xlink:href="#linear-gradient-2"/>
    <linearGradient id="linear-gradient-31" x1="0.35" y1="-0.472" x2="0.965" y2="3.585" xlink:href="#linear-gradient"/>
    <linearGradient id="linear-gradient-32" x1="3.176" y1="-0.951" x2="4.051" y2="-0.266" xlink:href="#linear-gradient"/>
    <linearGradient id="linear-gradient-33" x1="0.826" y1="0.882" x2="-0.054" y2="-0.121" gradientUnits="objectBoundingBox">
      <stop offset="0" stop-color="#147dbe"/>
      <stop offset="1" stop-color="#154e72"/>
    </linearGradient>
    <linearGradient id="linear-gradient-34" x1="-0.083" y1="1.46" x2="1.083" y2="-0.443" xlink:href="#linear-gradient-33"/>
    <linearGradient id="linear-gradient-35" x1="1.346" y1="-0.303" x2="-0.82" y2="1.752" xlink:href="#linear-gradient-8"/>
    <linearGradient id="linear-gradient-36" x1="1.582" y1="-0.178" x2="-0.938" y2="1.647" xlink:href="#linear-gradient-8"/>
    <linearGradient id="linear-gradient-37" x1="1.327" y1="-0.174" x2="-0.781" y2="1.65" xlink:href="#linear-gradient-8"/>
    <linearGradient id="linear-gradient-38" x1="298.691" y1="0.5" x2="299.691" y2="0.5" xlink:href="#linear-gradient-21"/>
    <linearGradient id="linear-gradient-39" x1="1056.913" y1="-0.843" x2="1056.406" y2="2.39" xlink:href="#linear-gradient-21"/>
    <linearGradient id="linear-gradient-40" x1="1073.857" y1="-0.224" x2="1073.342" y2="2.539" xlink:href="#linear-gradient-21"/>
    <linearGradient id="linear-gradient-41" x1="161.257" y1="-0.312" x2="158.811" y2="1.239" xlink:href="#linear-gradient-2"/>
    <linearGradient id="linear-gradient-42" x1="526.591" y1="-0.138" x2="524.838" y2="1.017" xlink:href="#linear-gradient-21"/>
    <linearGradient id="linear-gradient-43" x1="595.06" y1="0.257" x2="593.075" y2="2.087" xlink:href="#linear-gradient-21"/>
    <linearGradient id="linear-gradient-44" x1="447.56" y1="-0.222" x2="446.741" y2="2.966" xlink:href="#linear-gradient-21"/>
    <linearGradient id="linear-gradient-45" x1="149.809" y1="160.953" x2="148.737" y2="162.235" xlink:href="#linear-gradient-21"/>
    <linearGradient id="linear-gradient-46" x1="423.741" y1="535.788" x2="426.199" y2="533.139" xlink:href="#linear-gradient-21"/>
    <linearGradient id="linear-gradient-47" x1="2212.271" y1="-0.965" x2="2203.907" y2="1.467" gradientUnits="objectBoundingBox">
      <stop offset="0" stop-color="#53d8ff"/>
      <stop offset="1" stop-color="#3840f7"/>
    </linearGradient>
    <linearGradient id="linear-gradient-48" x1="718.739" y1="-0.866" x2="717.817" y2="0.839" xlink:href="#linear-gradient-2"/>
  </defs>
  <g id="why-vofox-for-pwa" transform="translate(-168 -2629.502)">
    <path id="Path_6479" data-name="Path 6479" d="M483.311,510.44s232.809,2.545,297.656-54.718S821.4,341.369,771.752,325.2s-58.123-32.99-31.405-55.677,60.65-69.255,4.309-116.053-120.628,20.42-170.984,11.494-30.411-38.988-96.634-18.227-51.621-39.686-104.858-45.165S324.4,164.44,269.641,138.639s-99.55-22.241-123.092,18.734-13.316,96.162,38.332,129.051,46.1,30.647,26.8,62.966-36.611,138.6,51.262,153.777S483.311,510.44,483.311,510.44Z" transform="translate(33.455 2528.248)" fill="#e6edff" opacity="0.5"/>
    <path id="Path_6480" data-name="Path 6480" d="M496.312,495.6s209.363,2.237,267.68-48.095S800.358,347,755.705,332.783s-52.269-29-28.242-48.938S782,222.972,731.338,181.838s-108.48,17.949-153.765,10.1-27.35-34.269-86.9-16.02-46.422-34.882-94.3-39.7S353.4,191.484,304.16,168.806s-89.524-19.548-110.7,16.467S181.49,269.8,227.936,298.7s41.462,26.937,24.1,55.344-32.924,121.822,46.1,135.164S496.312,495.6,496.312,495.6Z" transform="translate(19.855 2518.444)" fill="#e6edff" opacity="0.5"/>
    <g id="Group_3959" data-name="Group 3959" transform="matrix(0.921, -0.391, 0.391, 0.921, 169, 2833.226)">
      <path id="Path_68" data-name="Path 68" d="M1039.216,657.935c17.935-9.345,24.073-41.434,13.879-51.863-6.888-7.046-16.766.365-26.3-6.939-12.167-9.327-3.217-26.892-12.783-49.672-8.141-19.387-27.669-37.731-39.08-33.967-11.945,3.94-18.236,33.174-8.035,50.767,6.633,11.441,16.789,12,18.992,22.644,2.556,12.347-9.794,17.979-9.862,29.949C975.909,640.358,1015.489,670.3,1039.216,657.935Z" transform="translate(-961.784 -515)" fill="url(#linear-gradient)"/>
      <path id="Path_69" data-name="Path 69" d="M1036.551,690.056a.73.73,0,0,0,.656-1.049c-23.777-48.995-30.748-105.832-30.817-106.4a.73.73,0,0,0-1.451.173c.068.571,7.07,57.652,30.953,106.865A.73.73,0,0,0,1036.551,690.056Z" transform="translate(-968.798 -538.904)" fill="url(#linear-gradient-2)"/>
      <path id="Path_70" data-name="Path 70" d="M1095.1,576.855a.643.643,0,0,0,.507-1.038c-7.466-9.584-15.744-23.975-12.773-38.107a24.642,24.642,0,0,1,6.758-12.788.643.643,0,0,0-.842-.972c-.217.187-5.323,4.69-7.174,13.5-3.073,14.615,5.383,29.364,13.016,39.163A.644.644,0,0,0,1095.1,576.855Z" transform="translate(-1076.131 -518.138)" fill="#f0f0f0"/>
      <path id="Path_71" data-name="Path 71" d="M967.9,704.044a.643.643,0,0,0,.531-.28c11.594-16.921,15.536-30.022,11.717-38.939-3.421-7.988-11.79-9.43-12.145-9.488a.643.643,0,0,0-.206,1.269c.08.013,8.043,1.4,11.176,8.74,3.572,8.366-.44,21.4-11.6,37.691a.643.643,0,0,0,.53,1.006Z" transform="translate(-888.857 -565.093)" fill="#f0f0f0"/>
    </g>
    <g id="Group_3957" data-name="Group 3957" transform="translate(173.717 2592.109)">
      <g id="Group_42" data-name="Group 42" transform="translate(60.015 111.335)">
        <g id="Group_10" data-name="Group 10" transform="translate(70.131 0)">
          <path id="Path_6" data-name="Path 6" d="M560.777,606.347l-8.95,80.271h103.84l-13.525-80.271Z" transform="translate(-342.957 -343.112)" fill="url(#linear-gradient-3)"/>
          <path id="Path_7" data-name="Path 7" d="M208.975,200.481V421.3A33.5,33.5,0,0,0,241.61,454.79c80.654,2.08,362.744,7.123,439.522,5.991A24.649,24.649,0,0,0,705.4,436.835c1.48-51.3.784-182.158-2.365-238.991-1.874-12.061-14.7-21.079-26.9-21.469-67.578-2.162-366.612-1.963-443.354-.24A24.348,24.348,0,0,0,208.975,200.481Z" transform="translate(-208.975 -174.797)" fill="url(#linear-gradient-4)"/>
          <path id="Path_8" data-name="Path 8" d="M231.718,205.05v209.8a19.409,19.409,0,0,0,19.119,19.406l428.137,5.289a18.89,18.89,0,0,0,19.171-18.817l.716-214.984a13.814,13.814,0,0,0-13.478-13.861L247.05,190.087A14.968,14.968,0,0,0,231.718,205.05Z" transform="translate(-217.863 -180.441)" fill="url(#linear-gradient-5)"/>
          <path id="Path_9" data-name="Path 9" d="M700.929,607.811h-.012l-469.65-8a.686.686,0,0,1,.012-1.371h.012l469.65,8a.686.686,0,0,1-.011,1.371Z" transform="translate(-217.423 -340.02)" fill="#fff" opacity="0.65"/>
          <path id="Path_10" data-name="Path 10" d="M657.3,750.538H505.321c-4.129,0-7.229-2.939-6.431-6.1l1.95-13.01c.587-2.319,3.138-4.022,6.169-4.116l146.511.725c3.167-.1,5.97,1.582,6.66,3.993l3.516,12.284C664.609,747.509,661.493,750.538,657.3,750.538Z" transform="translate(-322.221 -390.608)" fill="url(#linear-gradient-6)"/>
          <path id="Path_11" data-name="Path 11" d="M643.378,738.446a.686.686,0,0,1-.01-1.371l6.278-.092a.669.669,0,0,1,.7.676.685.685,0,0,1-.675.7l-6.279.092Z" transform="translate(-378.466 -394.162)" fill="#fff"/>
          <path id="Path_12" data-name="Path 12" d="M507.766,750.18a.727.727,0,0,1-.108-.008.686.686,0,0,1-.569-.785l.9-5.609a6.447,6.447,0,0,1,6.283-5.44l66.591-.973h.01a.686.686,0,0,1,.01,1.371l-66.59.973a5.078,5.078,0,0,0-4.949,4.285l-.9,5.61A.686.686,0,0,1,507.766,750.18Z" transform="translate(-325.47 -394.311)" fill="#fff"/>
          <g id="Group_8" data-name="Group 8" transform="translate(13.855 9.642)">
            <g id="Group_7" data-name="Group 7" clip-path="url(#clip-path)">
              <g id="Group_6" data-name="Group 6" transform="translate(-18.125 -31.643)">
                <path id="Path_13" data-name="Path 13" d="M393.342,370.494H275.01c-4.377,0-7.925-2.57-7.925-5.74v-66.7c0-3.17,3.548-5.74,7.925-5.74H393.342c4.377,0,7.925,2.57,7.925,5.74v66.7C401.267,367.924,397.719,370.494,393.342,370.494Z" transform="translate(-227.414 -198.392)" fill="url(#linear-gradient-7)"/>
                <path id="Path_14" data-name="Path 14" d="M630.833,370.494H512.5c-4.377,0-7.924-2.57-7.924-5.74v-66.7c0-3.17,3.547-5.74,7.924-5.74H630.833c4.376,0,7.924,2.57,7.924,5.74v66.7C638.757,367.924,635.209,370.494,630.833,370.494Z" transform="translate(-320.223 -198.392)" fill="url(#linear-gradient-8)"/>
                <path id="Path_15" data-name="Path 15" d="M868.323,370.609H749.99c-4.376,0-7.924-2.57-7.924-5.74V298.351c0-3.239,3.7-5.836,8.166-5.737l118.333,2.616c4.28.094,7.682,2.635,7.682,5.737v63.9C876.247,368.038,872.7,370.609,868.323,370.609Z" transform="translate(-413.031 -198.507)" fill="url(#linear-gradient-9)"/>
                <rect id="Rectangle_1" data-name="Rectangle 1" width="423.545" height="107.928" rx="13.007" transform="translate(39.671 242.693)" fill="#fff" opacity="0.65"/>
                <rect id="Rectangle_2" data-name="Rectangle 2" width="550.726" height="73.508" fill="#fff" opacity="0.65"/>
                <g id="Group_5" data-name="Group 5" transform="translate(41.939 186.518)">
                  <g id="Group_2" data-name="Group 2">
                    <path id="Path_16" data-name="Path 16" d="M293.154,444.3A22.345,22.345,0,1,0,315.5,466.649,22.345,22.345,0,0,0,293.154,444.3Zm0,35.075a12.73,12.73,0,1,1,12.73-12.731A12.731,12.731,0,0,1,293.154,479.379Z" transform="translate(-270.809 -444.304)" fill="#fff" opacity="0.57"/>
                  </g>
                  <g id="Group_3" data-name="Group 3" transform="translate(54.471)">
                    <path id="Path_17" data-name="Path 17" d="M382.566,444.3a22.345,22.345,0,1,0,22.345,22.345A22.344,22.344,0,0,0,382.566,444.3Zm0,35.075A12.73,12.73,0,1,1,395.3,466.649,12.73,12.73,0,0,1,382.566,479.379Z" transform="translate(-360.221 -444.304)" fill="#fff" opacity="0.57"/>
                  </g>
                  <g id="Group_4" data-name="Group 4" transform="translate(108.941)">
                    <path id="Path_18" data-name="Path 18" d="M471.977,444.3a22.345,22.345,0,1,0,22.345,22.345A22.345,22.345,0,0,0,471.977,444.3Zm0,35.075a12.73,12.73,0,1,1,12.73-12.731A12.731,12.731,0,0,1,471.977,479.379Z" transform="translate(-449.632 -444.304)" fill="#fff" opacity="0.57"/>
                  </g>
                </g>
                <rect id="Rectangle_3" data-name="Rectangle 3" width="252.61" height="5.834" rx="2.917" transform="translate(210.606 196.021)" fill="#fff" opacity="0.65"/>
                <rect id="Rectangle_4" data-name="Rectangle 4" width="252.61" height="5.834" rx="2.917" transform="translate(210.606 204.772)" fill="#fff" opacity="0.65"/>
                <path id="Rectangle_5" data-name="Rectangle 5" d="M2.917,0H148.766a2.917,2.917,0,0,1,2.917,2.917v0a2.917,2.917,0,0,1-2.917,2.917H2.917A2.917,2.917,0,0,1,0,2.917v0A2.917,2.917,0,0,1,2.917,0Z" transform="translate(210.606 213.523)" fill="#fff" opacity="0.65"/>
              </g>
            </g>
          </g>
          <g id="Group_9" data-name="Group 9" transform="translate(219.91 83.306)">
            <path id="Path_20" data-name="Path 20" d="M592.3,323.874a1.54,1.54,0,0,0,1.821.034,19.313,19.313,0,0,1,26.783,4.647l8.753-3.9A28.836,28.836,0,0,0,605,311a28.548,28.548,0,0,0-18.01,6.463,1.532,1.532,0,0,0,.052,2.406Q589.3,321.576,592.3,323.874Z" transform="translate(-576.391 -311)" fill="url(#linear-gradient-10)"/>
            <path id="Path_21" data-name="Path 21" d="M580.747,369.607l3.49-5.636a1.539,1.539,0,0,0-.15-1.817A19.305,19.305,0,0,1,581,341.794c-2.964-2.272-5.615-4.291-7.669-5.832a28.819,28.819,0,0,0,5.044,33.915l.013.014A1.516,1.516,0,0,0,580.747,369.607Z" transform="translate(-569.949 -320.755)" fill="url(#linear-gradient-10)"/>
            <path id="Path_22" data-name="Path 22" d="M630.364,351.688a1.535,1.535,0,0,0-.905,1.514q.047.674.047,1.36a19.341,19.341,0,0,1-25.2,18.431l-5.077,8.2a28.79,28.79,0,0,0,39.711-26.632,29.12,29.12,0,0,0-.335-4.419,1.536,1.536,0,0,0-2.142-1.172Z" transform="translate(-581.392 -325.786)" fill="url(#linear-gradient-10)"/>
            <path id="Path_23" data-name="Path 23" d="M604.72,386.922l-6.308,10.384a2.3,2.3,0,0,1-3.912.03l-7.231-11.5a2.3,2.3,0,0,1,2.136-3.516l13.538,1.115A2.3,2.3,0,0,1,604.72,386.922Z" transform="translate(-576.577 -338.868)" fill="#fff"/>
            <path id="Path_24" data-name="Path 24" d="M580.764,341.591l-9.859-7.1a2.3,2.3,0,0,1,.275-3.9l12.03-6.31a2.3,2.3,0,0,1,3.338,2.4l-2.17,13.409A2.3,2.3,0,0,1,580.764,341.591Z" transform="translate(-569.948 -316.084)" fill="#fff"/>
            <path id="Path_25" data-name="Path 25" d="M637.379,331.391l11.3-4.464a2.3,2.3,0,0,1,3.136,2.34L650.629,342.8a2.3,2.3,0,0,1-3.827,1.511l-10.113-9.069A2.3,2.3,0,0,1,637.379,331.391Z" transform="translate(-595.731 -317.16)" fill="#fff"/>
          </g>
        </g>
        <g id="Group_21" data-name="Group 21" transform="translate(415.5 156.74)">
          <path id="Path_26" data-name="Path 26" d="M778.018,443.253c-.687,32.419-2.914,144.242-1.851,183.868.112,4.2,2.989,7.568,6.578,7.705,17.748.679,82.812,2.4,111.843.977,6.046-.3,10.855-6.026,10.98-13.1.6-34.028,1.934-135.031-1.229-178.873-.379-5.253-3.9-9.436-8.388-9.961-19.329-2.263-84.672-2.494-109.753-.59C781.675,433.617,778.131,437.952,778.018,443.253Z" transform="translate(-775.885 -431.992)" fill="url(#linear-gradient-4)"/>
          <path id="Path_27" data-name="Path 27" d="M790.335,460.715c-.955,26.166-3.968,113.216-3.012,145.4.14,4.7,3.309,8.51,7.327,8.784,16.54,1.133,72.972,3.629,97.233,1.357,4.369-.409,7.8-4.542,8.032-9.662,1.229-26.7,3.877-112.165,2.96-143.993-.146-5.078-3.508-9.224-7.834-9.679-17.894-1.879-76.976-1.937-97.593-.621C793.579,452.552,790.5,456.185,790.335,460.715Z" transform="translate(-780.282 -439.507)" fill="url(#linear-gradient-14)"/>
          <path id="Path_28" data-name="Path 28" d="M851.387,441.71h0a1.766,1.766,0,0,0,1.511,1.867c4.193.256,16,.983,21.279,1.341a1.787,1.787,0,0,0,1.66-2.221l-.034-.2a1.717,1.717,0,0,0-1.422-1.508c-3.567-.382-14.332-1.443-21.464-1.145A1.759,1.759,0,0,0,851.387,441.71Z" transform="translate(-805.39 -434.763)" fill="#fff" opacity="0.5"/>
          <g id="Group_20" data-name="Group 20" transform="translate(12.825 38.216)">
            <g id="Group_3958" data-name="Group 3958" transform="translate(0 0)">
              <path id="Path_29" data-name="Path 29" d="M830.273,623.294H801.459c-1.066,0-1.93-.626-1.93-1.4V605.656c0-.772.864-1.4,1.93-1.4h28.815c1.066,0,1.929.626,1.929,1.4V621.9C832.2,622.668,831.339,623.294,830.273,623.294Z" transform="translate(-797.949 -537.251)" fill="url(#linear-gradient-15)"/>
              <path id="Path_30" data-name="Path 30" d="M943.434,623.322H914.619c-1.065,0-1.929-.626-1.929-1.4v-16.2c0-.788.9-1.421,1.988-1.4l28.815.637c1.042.023,1.87.641,1.87,1.4v15.561C945.363,622.7,944.5,623.322,943.434,623.322Z" transform="translate(-842.171 -537.279)" fill="url(#linear-gradient-16)"/>
              <g id="Group_14" data-name="Group 14" transform="translate(0.667 94.521)">
                <g id="Group_11" data-name="Group 11">
                  <path id="Path_32" data-name="Path 32" d="M807.878,649.421a9.848,9.848,0,1,0,9.848,9.847A9.848,9.848,0,0,0,807.878,649.421Zm0,15.458a5.611,5.611,0,1,1,5.61-5.611A5.611,5.611,0,0,1,807.878,664.879Z" transform="translate(-798.03 -649.421)" fill="#fff" opacity="0.57"/>
                </g>
                <g id="Group_12" data-name="Group 12" transform="translate(24.006)">
                  <path id="Path_33" data-name="Path 33" d="M847.283,649.421a9.848,9.848,0,1,0,9.848,9.847A9.848,9.848,0,0,0,847.283,649.421Zm0,15.458a5.611,5.611,0,1,1,5.611-5.611A5.61,5.61,0,0,1,847.283,664.879Z" transform="translate(-837.435 -649.421)" fill="#fff" opacity="0.57"/>
                </g>
                <g id="Group_13" data-name="Group 13" transform="translate(48.012)">
                  <path id="Path_34" data-name="Path 34" d="M886.688,649.421a9.848,9.848,0,1,0,9.848,9.847A9.848,9.848,0,0,0,886.688,649.421Zm0,15.458a5.611,5.611,0,1,1,5.611-5.611A5.61,5.61,0,0,1,886.688,664.879Z" transform="translate(-876.84 -649.421)" fill="#fff" opacity="0.57"/>
                </g>
              </g>
              <g id="Group_15" data-name="Group 15" transform="translate(72.709 96.349)">
                <rect id="Rectangle_8" data-name="Rectangle 8" width="31.298" height="3.896" rx="1.948" fill="#fff" opacity="0.65"/>
                <rect id="Rectangle_9" data-name="Rectangle 9" width="31.298" height="3.896" rx="1.948" transform="translate(0 5.844)" fill="#fff" opacity="0.65"/>
                <rect id="Rectangle_10" data-name="Rectangle 10" width="18.793" height="3.896" rx="1.948" transform="translate(0 11.687)" fill="#fff" opacity="0.65"/>
              </g>
              <g id="Group_17" data-name="Group 17">
                <path id="Path_35" data-name="Path 35" d="M895.317,555.184H803.111c-3.41,0-6.175-2-6.175-4.472v-51.97c0-2.47,2.765-4.473,6.175-4.473h92.206c3.41,0,6.175,2,6.175,4.473v51.97C901.492,553.182,898.728,555.184,895.317,555.184Z" transform="translate(-796.936 -494.269)" fill="url(#linear-gradient-17)"/>
                <g id="Group_16" data-name="Group 16" transform="translate(32.316 7.31)">
                  <path id="Path_36" data-name="Path 36" d="M866.21,515.613a1.119,1.119,0,0,0,1.322.025,14.019,14.019,0,0,1,19.442,3.373l6.354-2.829a20.933,20.933,0,0,0-17.9-9.914,20.721,20.721,0,0,0-13.074,4.691,1.113,1.113,0,0,0,.038,1.747Q864.03,513.945,866.21,515.613Z" transform="translate(-854.658 -506.268)" fill="url(#linear-gradient-10)"/>
                  <path id="Path_37" data-name="Path 37" d="M857.82,548.812l2.532-4.092a1.117,1.117,0,0,0-.108-1.319,14.011,14.011,0,0,1-2.239-14.779c-2.152-1.65-4.076-3.115-5.568-4.234a20.92,20.92,0,0,0,3.661,24.62l.01.01A1.1,1.1,0,0,0,857.82,548.812Z" transform="translate(-849.981 -513.349)" fill="url(#linear-gradient-10)"/>
                  <path id="Path_38" data-name="Path 38" d="M893.837,535.8a1.116,1.116,0,0,0-.657,1.1q.035.489.035.987a14.04,14.04,0,0,1-18.291,13.379l-3.686,5.954a20.9,20.9,0,0,0,28.828-19.333,21.232,21.232,0,0,0-.243-3.208,1.115,1.115,0,0,0-1.555-.851Z" transform="translate(-858.288 -517.002)" fill="url(#linear-gradient-10)"/>
                  <path id="Path_39" data-name="Path 39" d="M875.223,561.381l-4.579,7.538a1.669,1.669,0,0,1-2.84.022l-5.248-8.347a1.669,1.669,0,0,1,1.55-2.553l9.827.81A1.669,1.669,0,0,1,875.223,561.381Z" transform="translate(-854.793 -526.498)" fill="#fff"/>
                  <path id="Path_40" data-name="Path 40" d="M857.833,528.475l-7.157-5.154a1.669,1.669,0,0,1,.2-2.833l8.732-4.58a1.67,1.67,0,0,1,2.424,1.745l-1.576,9.734A1.669,1.669,0,0,1,857.833,528.475Z" transform="translate(-849.981 -509.959)" fill="#fff"/>
                  <path id="Path_41" data-name="Path 41" d="M898.93,521.07l8.2-3.24a1.67,1.67,0,0,1,2.277,1.7l-.861,9.823a1.669,1.669,0,0,1-2.777,1.1l-7.342-6.583A1.669,1.669,0,0,1,898.93,521.07Z" transform="translate(-868.697 -510.74)" fill="#fff"/>
                </g>
              </g>
              <g id="Group_18" data-name="Group 18" transform="translate(37.121 68.937)">
                <rect id="Rectangle_11" data-name="Rectangle 11" width="31.298" height="3.896" rx="1.948" fill="#fff" opacity="0.65"/>
                <rect id="Rectangle_12" data-name="Rectangle 12" width="31.298" height="3.896" rx="1.948" transform="translate(0 5.844)" fill="#fff" opacity="0.65"/>
                <rect id="Rectangle_13" data-name="Rectangle 13" width="18.793" height="3.896" rx="1.948" transform="translate(6.252 11.687)" fill="#fff" opacity="0.65"/>
              </g>
            </g>
          </g>
        </g>
        <g id="Group_26" data-name="Group 26" transform="translate(355.846 200.846)">
          <path id="Path_53" data-name="Path 53" d="M732.034,636.019,723.7,638.1l2.084,15.632a17.753,17.753,0,0,0-4.168,7.295c-1.042,4.168-2,21.671-2,21.671l-1.978,1.2-.241,1,5.755,7.739-.955-6.159c-.152-.978.111-2.961.029-3,3.126-8.337,9.814-31.822,9.814-31.822Z" transform="translate(-693.372 -555.552)" fill="url(#linear-gradient-21)"/>
          <path id="Path_54" data-name="Path 54" d="M739.852,675.643c-.09,0-.179.006-.269,0,.4-5.025,2.244-27.145,4.086-35.436,2.084-9.379-3.127-28.137-3.127-28.137l-9.379,9.379,5.211,17.716c-3.57,5.356.583,36.723.493,36.709l.006.07-1.36,1.869.165,1.014,8.306,4.9-3.268-5.307A5.967,5.967,0,0,1,739.852,675.643Z" transform="translate(-698.754 -546.193)" fill="url(#linear-gradient-22)"/>
          <path id="Path_55" data-name="Path 55" d="M722.9,543.791s-18.261,25.339,0,38.331l1.86-1.659s-9.066-10.688,0-23.773Z" transform="translate(-692.354 -519.511)" fill="url(#linear-gradient-23)"/>
          <path id="Path_56" data-name="Path 56" d="M746.9,725.9h-2.651a1.6,1.6,0,0,1-1.267-.621c-.827-1.074-2.539-3.169-3.357-3.223-1.1-.074-.961,3.844-.961,3.844h-.618l-.782-4.868a2.882,2.882,0,0,1,1.512-3.012h0a4.074,4.074,0,0,0,1.618,2.687c1.366.824,5.558,3.775,5.558,3.775a3.8,3.8,0,0,1,1.078.029A.7.7,0,0,1,746.9,725.9Z" transform="translate(-701.125 -587.598)" fill="#4b80a1"/>
          <path id="Path_57" data-name="Path 57" d="M721.942,723.781l-2.443-1.028a1.6,1.6,0,0,1-.927-1.064c-.345-1.31-1.111-3.9-1.844-4.272-.987-.5-2.377,3.17-2.377,3.17l-.569-.239,1.167-4.79a2.88,2.88,0,0,1,2.562-2.19h0a4.074,4.074,0,0,0,.449,3.1c.939,1.289,3.66,5.635,3.66,5.635a3.784,3.784,0,0,1,.982.444A.7.7,0,0,1,721.942,723.781Z" transform="translate(-691.962 -585.779)" fill="#4b80a1"/>
          <path id="Path_58" data-name="Path 58" d="M738.96,585.947a33.582,33.582,0,0,0,.143,7.043c.449,5.164,2.6,17.289,2.158,28.889,0,0-6.1,1.422-16.7.749,0,0-4.474-18.112-3.384-25s7-11.825,7-11.825Z" transform="translate(-694.783 -535.93)" fill="url(#linear-gradient-24)"/>
          <path id="Path_59" data-name="Path 59" d="M739.011,526.434l.746,8.77h-7.086l1.762-13.386Z" transform="translate(-699.343 -510.924)" fill="url(#linear-gradient-23)"/>
          <path id="Path_60" data-name="Path 60" d="M727.737,541.636c2.445-.135,7.913-.384,11.786-.174a4.5,4.5,0,0,1,4.165,3.574l.945,4.528a10.912,10.912,0,0,1-.154,5.094l-3.795,13.929s-3.375,2.029-10.784-.142c0,0-6.507-15.517-3.844-25.443A1.845,1.845,0,0,1,727.737,541.636Z" transform="translate(-696.508 -518.569)" fill="#dc231f"/>
          <path id="Path_61" data-name="Path 61" d="M751.559,544.811c1.044,2.749,1.986,5.632,3,8.332.515,1.352,1.037,2.676,1.6,3.893.283.606.593,1.163.878,1.667a7.363,7.363,0,0,0,.774,1.107c.033.028-.077.05-.114.052-.022,0,.706.12.929.157l.872,0a30.328,30.328,0,0,0,4.087-.561c2.865-.534,5.843-1.284,8.9-1.851l.023,0a1.078,1.078,0,0,1,.909,1.869,31.3,31.3,0,0,1-3.9,2.845c-.682.417-1.377.826-2.082,1.219-.72.367-1.442.737-2.191,1.078a25.438,25.438,0,0,1-4.865,1.653c-.472.079-.938.162-1.424.227a16.148,16.148,0,0,1-1.634.033q-.475-.047-.951-.116a4.307,4.307,0,0,1-.5-.09c-.217-.065-.434-.138-.647-.218a6.767,6.767,0,0,1-1.1-.556c-.3-.2-.575-.406-.841-.618a11.375,11.375,0,0,1-2.129-2.464,19.471,19.471,0,0,1-1.342-2.376,32.445,32.445,0,0,1-1.847-4.668,43.546,43.546,0,0,1-1.928-9.452,2.838,2.838,0,0,1,5.48-1.254Z" transform="translate(-704.564 -519.156)" fill="url(#linear-gradient-26)"/>
          <path id="Path_62" data-name="Path 62" d="M787.868,566.354l1.265-3,6.655-1.658s.532,1.154-2.263,1.658a2.441,2.441,0,0,1,.465,2.4C793.458,567.051,787.8,568.352,787.868,566.354Z" transform="translate(-720.913 -526.507)" fill="url(#linear-gradient-27)"/>
          <path id="Path_63" data-name="Path 63" d="M742.891,511.863c.253.149,2.246,7.18.576,10.128s-6.772-.354-8.154-4.617S736.151,507.888,742.891,511.863Z" transform="translate(-700.222 -506.481)" fill="url(#linear-gradient-28)"/>
          <path id="Path_64" data-name="Path 64" d="M707.411,514.829c-1.144,5.607-4.935,4.072-7.621,6.566-4.352,4.042-10.578-.125-16.63,3.706-4.369,2.766-6.475,9.841-4.378,15.553,2.9,7.911,12.829,11.165,17.972,8.756,4.915-2.3,4.216-9.2,10.829-11.866,2.808-1.132,4.194-.4,5.875-2.074,2.944-2.936,2.149-8.634,1.843-10.829-.664-4.763-2.261-5.625-1.5-7.719,1.484-4.072,8.409-3.232,8.986-6.106.525-2.618-4.494-7.579-9.217-6.8C706.267,505.228,707.921,512.332,707.411,514.829Z" transform="translate(-677.965 -503.936)"/>
          <path id="Path_65" data-name="Path 65" d="M682.46,553.031a.191.191,0,0,1-.186-.146c-.936-3.884-.511-7.07,1.262-9.468,2.943-3.981,8.662-4.374,8.72-4.378a.2.2,0,0,1,.2.18.191.191,0,0,1-.179.2c-.056,0-5.6.389-8.438,4.226-1.7,2.3-2.1,5.381-1.2,9.149a.192.192,0,0,1-.141.231A.232.232,0,0,1,682.46,553.031Z" transform="translate(-679.46 -517.653)" fill="#fff" opacity="0.6"/>
          <path id="Path_66" data-name="Path 66" d="M713.578,554.133l-.024,0a.1.1,0,0,1-.068-.117c.911-3.5,2.51-5.925,4.752-7.219a9.39,9.39,0,0,1,4.506-1.105,5.068,5.068,0,0,0,3.325-.942c1.867-1.661,1.759-5.652-.322-11.864a.1.1,0,0,1,.182-.06c2.107,6.291,2.2,10.351.266,12.067a5.2,5.2,0,0,1-3.44.991,9.238,9.238,0,0,0-4.421,1.081c-2.2,1.266-3.765,3.655-4.663,7.1A.1.1,0,0,1,713.578,554.133Z" transform="translate(-691.844 -515.199)" fill="#fff" opacity="0.72"/>
          <path id="Path_67" data-name="Path 67" d="M730.683,516.339a.11.11,0,0,1-.031,0,.1.1,0,0,1-.06-.122c.724-2.155,2.812-1.835,5.023-1.495a9.715,9.715,0,0,0,4.074.074c.916-.272,1.46-.692,1.617-1.251.269-.951-.672-2.012-.682-2.023a.1.1,0,0,1,.142-.128,2.741,2.741,0,0,1,.724,2.2c-.177.626-.765,1.091-1.747,1.383a9.849,9.849,0,0,1-4.158-.068c-2.22-.341-4.14-.637-4.813,1.367A.1.1,0,0,1,730.683,516.339Z" transform="translate(-698.529 -506.837)" fill="#fff" opacity="0.72"/>
        </g>
        <g id="Group_27" data-name="Group 27" transform="translate(528.753 207.586)">
          <path id="Path_68-2" data-name="Path 68" d="M979.594,650.418c-16.992-8.853-22.807-39.255-13.149-49.135,6.526-6.676,15.885.346,24.914-6.574,11.527-8.836,3.048-25.477,12.11-47.059,7.713-18.367,26.214-35.747,37.025-32.18,11.317,3.733,17.277,31.429,7.612,48.1-6.285,10.84-15.906,11.372-17.993,21.453-2.421,11.7,9.279,17.033,9.343,28.374C1039.572,633.766,1002.073,662.13,979.594,650.418Z" transform="translate(-961.784 -515)" fill="url(#linear-gradient-29)"/>
          <path id="Path_69-2" data-name="Path 69" d="M1005.626,684.372a.692.692,0,0,1-.622-.994c22.526-46.418,29.131-100.266,29.2-100.8a.692.692,0,0,1,1.374.164c-.065.541-6.7,54.62-29.325,101.245A.691.691,0,0,1,1005.626,684.372Z" transform="translate(-978.647 -541.168)" fill="url(#linear-gradient-30)"/>
          <path id="Path_70-2" data-name="Path 70" d="M1081.54,574.064a.609.609,0,0,1-.48-.984c7.074-9.08,14.916-22.714,12.1-36.1a23.346,23.346,0,0,0-6.4-12.115.609.609,0,0,1,.8-.921,24.2,24.2,0,0,1,6.8,12.785c2.911,13.847-5.1,27.82-12.332,37.1A.61.61,0,0,1,1081.54,574.064Z" transform="translate(-1008.345 -518.436)" fill="#f0f0f0"/>
          <path id="Path_71-2" data-name="Path 71" d="M980.2,701.482a.609.609,0,0,1-.5-.265c-10.985-16.031-14.719-28.444-11.1-36.891,3.241-7.568,11.17-8.934,11.506-8.989a.609.609,0,0,1,.2,1.2c-.076.012-7.62,1.329-10.588,8.28-3.384,7.926.417,20.274,10.993,35.709a.609.609,0,0,1-.5.953Z" transform="translate(-963.925 -569.839)" fill="#f0f0f0"/>
        </g>
        <g id="Group_28" data-name="Group 28" transform="translate(444.772 91.442)">
          <path id="Path_74" data-name="Path 74" d="M823.935,330.037l.788,25.887c.061,2.731,3.031,4.921,6.675,4.921H982.855c3.686,0,6.675-2.241,6.675-5.005V329.557c0-2.7-2.859-4.915-6.459-5l-152.245.4C827.012,324.858,823.871,327.177,823.935,330.037Z" transform="translate(-823.934 -324.554)" fill="url(#linear-gradient-31)"/>
          <path id="Path_75" data-name="Path 75" d="M836.439,337.273l2,23.059c.077,1.242,1.457,2.213,3.114,2.191l143.229-1.106c1.67-.022,3.009-1.044,3.009-2.3V335.938c0-1.225-1.281-2.234-2.912-2.295l-145.226,1.229C837.845,334.806,836.355,335.919,836.439,337.273Z" transform="translate(-828.82 -328.364)" fill="#fff" opacity="0.6"/>
          <path id="Path_76" data-name="Path 76" d="M847.412,343.012v2.329c0,.821.9,1.483,1.992,1.469l131.706-.884c1.07-.013,1.928-.667,1.928-1.469h0c0-.8-.846-1.448-1.908-1.469l-131.706-1.445C848.322,341.521,847.412,342.185,847.412,343.012Z" transform="translate(-833.109 -331.071)" fill="#fff" opacity="0.6"/>
          <path id="Path_77" data-name="Path 77" d="M849.183,357.243v2.137c0,.832.92,1.5,2.028,1.469l128.269-1.8c1.055-.027,1.892-.677,1.892-1.469v-.666c0-.816-.885-1.475-1.973-1.47l-128.269.328C850.053,355.779,849.183,356.435,849.183,357.243Z" transform="translate(-833.801 -336.504)" fill="#fff" opacity="0.6"/>
        </g>
        <path id="Path_95" data-name="Path 95" d="M389.917,473.437c-7.289,35.795-17.625,132.517,71.235,172.9a9.252,9.252,0,0,0,12.569-5.42c8.943-26,24.6-103.069-69.207-173.08A9.257,9.257,0,0,0,389.917,473.437Z" transform="translate(-207.747 -288.266)" fill="url(#linear-gradient-32)"/>
        <path id="Path_96" data-name="Path 96" d="M338.905,585.848c4.821,28.337,24.715,102.247,101.391,106.636a7.28,7.28,0,0,0,7.684-7.548c-.825-21.62-11.231-82.618-99.954-107.343A7.284,7.284,0,0,0,338.905,585.848Z" transform="translate(-189.577 -331.768)" fill="url(#linear-gradient-33)"/>
        <g id="Group_38" data-name="Group 38" transform="translate(14.17 17.194)">
          <path id="Path_97" data-name="Path 97" d="M121.788,203.593l214.351-1.113c2.05-.021,3.718,1.953,3.706,4.386l-.458,89.068c-.012,2.45-1.717,4.408-3.779,4.335-18.9-.669-212.63-3.621-216.335-3.437-3.661.182-1.672-70.156-1.125-89.031C118.216,205.467,119.82,203.614,121.788,203.593Z" transform="translate(-117.118 -202.48)" fill="url(#linear-gradient-34)"/>
          <path id="Path_98" data-name="Path 98" d="M337.606,299h-.026c-12.07-.428-127.751-2.141-183.345-2.965-16.338-.242-27.94-.414-31.027-.465l-.258,0-.038-.255c-1.313-8.794-1.29-38.221.067-85.1a.764.764,0,0,1,.719-.777l214.353-1.112a.694.694,0,0,1,.539.257.844.844,0,0,1,.193.554l-.457,89.068A.768.768,0,0,1,337.606,299Zm-214.128-4.037c3.437.056,14.856.225,30.766.461,55.6.824,171.281,2.537,183.357,2.966h.023c.026,0,.093-.079.093-.2l.458-89.069a.229.229,0,0,0-.052-.159c-.032-.039-.057-.039-.069-.039L123.7,210.038c-.051,0-.112.08-.115.186C122.246,256.621,122.208,285.9,123.478,294.961Z" transform="translate(-119.004 -204.76)" fill="#fff"/>
          <g id="Group_34" data-name="Group 34" transform="translate(12.376 19.754)">
            <path id="Path_99" data-name="Path 99" d="M137.432,240.072h0c0,2.854.5,5.167,1.126,5.167h61.187c.622,0,1.126-2.313,1.126-5.167h0c0-2.854-.5-5.167-1.126-5.167H138.558C137.936,234.905,137.432,237.219,137.432,240.072Z" transform="translate(-137.432 -234.905)" fill="#fff" opacity="0.64"/>
            <path id="Path_100" data-name="Path 100" d="M137.432,268.986h0c0,2.854.5,5.167,1.126,5.167h61.187c.622,0,1.126-2.314,1.126-5.167h0c0-2.854-.5-5.167-1.126-5.167H138.558C137.936,263.819,137.432,266.132,137.432,268.986Z" transform="translate(-137.432 -246.204)" fill="#fff" opacity="0.64"/>
            <path id="Path_101" data-name="Path 101" d="M137.432,297.9h0c0,2.854.5,5.167,1.126,5.167h61.187c.622,0,1.126-2.313,1.126-5.167h0c0-2.854-.5-5.167-1.126-5.167H138.558C137.936,292.732,137.432,295.045,137.432,297.9Z" transform="translate(-137.432 -257.503)" fill="#fff" opacity="0.64"/>
            <path id="Path_102" data-name="Path 102" d="M137.432,326.812h0c0,2.854.5,5.167,1.126,5.167h61.187c.622,0,1.126-2.313,1.126-5.167h0c0-2.854-.5-5.167-1.126-5.167H138.558C137.936,321.645,137.432,323.958,137.432,326.812Z" transform="translate(-137.432 -268.802)" fill="#fff" opacity="0.64"/>
          </g>
          <g id="Group_37" data-name="Group 37" transform="translate(83.555 5.654)">
            <circle id="Ellipse_1" data-name="Ellipse 1" cx="16.955" cy="16.955" r="16.955" transform="translate(0 4.579)" fill="#fff"/>
            <circle id="Ellipse_2" data-name="Ellipse 2" cx="16.955" cy="16.955" r="16.955" transform="translate(42.139 4.579)" fill="#fff"/>
            <circle id="Ellipse_3" data-name="Ellipse 3" cx="16.955" cy="16.955" r="16.955" transform="translate(79.144 12.759) rotate(-22.103)" fill="#fff"/>
            <g id="Group_35" data-name="Group 35" transform="translate(3.306 8.439)">
              <path id="Path_103" data-name="Path 103" d="M283.422,235.124a10.891,10.891,0,1,1-10.075-6.752c.185,0,.367,0,.549.013v-2.76c-.182-.007-.365-.012-.549-.012a13.641,13.641,0,1,0,12.608,8.411Z" transform="translate(-259.697 -225.613)" fill="url(#linear-gradient-35)"/>
              <path id="Path_104" data-name="Path 104" d="M348.015,248.477a10.89,10.89,0,1,1-5.8-20.1c.184,0,.367,0,.549.013v-2.76c-.182-.007-.365-.012-.549-.012a13.65,13.65,0,1,0,7.172,25.265Z" transform="translate(-286.609 -225.613)" fill="url(#linear-gradient-36)"/>
              <path id="Path_105" data-name="Path 105" d="M420.825,245.386a10.891,10.891,0,1,1-9.007-17.014c.185,0,.367,0,.549.013v-2.76c-.182-.007-.366-.012-.549-.012A13.65,13.65,0,1,0,423.061,247Z" transform="translate(-313.81 -225.613)" fill="url(#linear-gradient-37)"/>
            </g>
            <g id="Group_36" data-name="Group 36" transform="translate(0 45.671)" opacity="0.64">
              <path id="Path_106" data-name="Path 106" d="M285.041,286.728h-27.63a3.14,3.14,0,1,0,0,6.28h27.63a3.14,3.14,0,1,0,0-6.28Z" transform="translate(-254.271 -286.728)" fill="#fff"/>
              <path id="Path_107" data-name="Path 107" d="M354.21,286.728H326.58a3.14,3.14,0,0,0,0,6.28h27.63a3.14,3.14,0,0,0,0-6.28Z" transform="translate(-281.301 -286.728)" fill="#fff"/>
              <path id="Path_108" data-name="Path 108" d="M395.749,293.008h27.63a3.14,3.14,0,0,0,0-6.28h-27.63a3.14,3.14,0,0,0,0,6.28Z" transform="translate(-308.332 -286.728)" fill="#fff"/>
              <path id="Rectangle_14" data-name="Rectangle 14" d="M5.155,0h23.6A5.155,5.155,0,0,1,33.91,5.155V19.618a5.154,5.154,0,0,1-5.154,5.154H5.155A5.155,5.155,0,0,1,0,19.618V5.155A5.155,5.155,0,0,1,5.155,0Z" transform="translate(0 9.769)" fill="#fff"/>
              <path id="Rectangle_15" data-name="Rectangle 15" d="M5.155,0h23.6A5.154,5.154,0,0,1,33.91,5.154V19.618a5.154,5.154,0,0,1-5.154,5.154H5.154A5.154,5.154,0,0,1,0,19.618V5.155A5.155,5.155,0,0,1,5.155,0Z" transform="translate(42.139 9.769)" fill="#fff"/>
              <path id="Rectangle_16" data-name="Rectangle 16" d="M5.155,0h23.6A5.155,5.155,0,0,1,33.91,5.155V19.618a5.154,5.154,0,0,1-5.154,5.154H5.154A5.154,5.154,0,0,1,0,19.618V5.155A5.155,5.155,0,0,1,5.155,0Z" transform="translate(84.277 9.769)" fill="#fff"/>
            </g>
          </g>
        </g>
        <g id="Group_40" data-name="Group 40" transform="translate(32.341 69.174)">
          <path id="Path_109" data-name="Path 109" d="M192.628,556.439a.984.984,0,0,0-.026-.255c-1.269-5.031-7.568-8.164-7.568-8.164l-2.5.2c-1.435,4.434-1.251,7.153-1.02,8.365.007.034.017.066.026.1A59.227,59.227,0,0,0,192.628,556.439Z" transform="translate(-160.394 -389.492)" fill="#4b80a1"/>
          <path id="Path_110" data-name="Path 110" d="M181.662,562.08a1.083,1.083,0,0,0,.793.8c2.928.616,7.583.12,9.537-.135a.908.908,0,0,0,.754-.905A59.239,59.239,0,0,1,181.662,562.08Z" transform="translate(-160.511 -394.892)" fill="#4b80a1"/>
          <path id="Path_111" data-name="Path 111" d="M161.971,415.654a23.265,23.265,0,0,1-5.408,3.953,44.9,44.9,0,0,0,9.884,8.79l1.223,2.744,3.918-4.7S164.558,422.948,161.971,415.654Z" transform="translate(-150.703 -337.765)" fill="url(#linear-gradient-38)"/>
          <path id="Path_112" data-name="Path 112" d="M181.648,542.239l1.057,5.089a.831.831,0,0,0,.711.684,7.061,7.061,0,0,0,1.638-.026,1.047,1.047,0,0,0,.829-1.229l-.735-4.518Z" transform="translate(-160.506 -387.233)" fill="url(#linear-gradient-39)"/>
          <path id="Path_113" data-name="Path 113" d="M214.441,561.7a14.877,14.877,0,0,1-4.919-.7c0,.274,0,.553.009.842a.545.545,0,0,0,.52.554l15.134-.1a.691.691,0,0,0,.556-1.006C223.756,561.452,218.7,561.818,214.441,561.7Z" transform="translate(-171.399 -394.563)" fill="#4b80a1"/>
          <path id="Path_114" data-name="Path 114" d="M225.741,556.718a.73.73,0,0,0-.06-.114c-1.337-1.868-4.741-5.587-11.467-7.2l-3.227-.1a15.481,15.481,0,0,0-1.464,7.123,14.871,14.871,0,0,0,4.919.7C218.7,557.249,223.757,556.882,225.741,556.718Z" transform="translate(-171.399 -389.993)" fill="#4b80a1"/>
          <path id="Path_115" data-name="Path 115" d="M210.944,540.773c.035.241.478,3.9.649,5.314a.7.7,0,0,0,.592.634,7.383,7.383,0,0,0,2.216-.034.955.955,0,0,0,.724-.958v-5.739Z" transform="translate(-171.955 -386.354)" fill="url(#linear-gradient-40)"/>
          <path id="Path_116" data-name="Path 116" d="M193.541,431.763a287.316,287.316,0,0,1,7.643,66.8,1.44,1.44,0,0,1-1.143,1.4,16.8,16.8,0,0,1-3.608.418,1.338,1.338,0,0,1-1.274-1.117c-1.092-6.4-7.354-42.454-10.923-48.307,0,0-2.348,32.111-1.6,48.771a.789.789,0,0,1-.7.821,13.248,13.248,0,0,1-2.9-.008,1.056,1.056,0,0,1-.941-.9c-.777-5.416-5.252-37.657-5.061-60.882.01-1.31,3.463-7,3.463-7Z" transform="translate(-157.141 -344.06)" fill="url(#linear-gradient-41)"/>
          <path id="Path_117" data-name="Path 117" d="M208.8,327.209c-3.416,6.359-9.088,12.848-18.315,14.588-8.519,1.605-23.815,3.589-29.964,4.364a7.532,7.532,0,0,0-4.759,2.554c-4.832,5.592-15.436,20.9-2.955,36.329a23.264,23.264,0,0,0,5.408-3.953c-1.381-3.892-1.494-8.866,1.4-14.967a14.339,14.339,0,0,0,.369,1.433,88.751,88.751,0,0,1,4.193,25.574.8.8,0,0,0,.5.748c5.249,2.1,15.353.851,18.745.346a1.141,1.141,0,0,0,.955-1.295c-1.665-12.061,6.879-31.9,9.135-36.87a3.294,3.294,0,0,1,1.639-1.639c12.9-5.838,18.514-14.824,20.788-22.919A12.34,12.34,0,0,0,208.8,327.209Z" transform="translate(-146.944 -303.202)" fill="#dc231f"/>
          <path id="Path_118" data-name="Path 118" d="M255.613,322.509a39.18,39.18,0,0,0,.613-18.314h-2.939a47.594,47.594,0,0,1-4.816,14.02A12.34,12.34,0,0,1,255.613,322.509Z" transform="translate(-186.62 -294.208)" fill="url(#linear-gradient-42)"/>
          <path id="Path_119" data-name="Path 119" d="M255.95,299.353s-4.476-5.8-3.021-8.817,6.439-2.727,6.439-2.727l.7,2.367a2.975,2.975,0,0,1-.071,1.9l-2.754,7.281Z" transform="translate(-188.248 -287.802)" fill="url(#linear-gradient-43)"/>
          <path id="Path_120" data-name="Path 120" d="M183.468,339.085l-1.012,10.336s5.815,1.752,10.044-1.232l-2.973-9.394Z" transform="translate(-160.822 -307.729)" fill="url(#linear-gradient-44)"/>
          <g id="Group_39" data-name="Group 39" transform="translate(17.906 14.455)">
            <path id="Path_121" data-name="Path 121" d="M190.259,319.655c.14.132,5.906,11.455,5.906,11.455l-6.536,3.155-7.06-9.92S187.916,317.449,190.259,319.655Z" transform="translate(-178.772 -314.535)" fill="url(#linear-gradient-45)"/>
            <path id="Path_122" data-name="Path 122" d="M183.026,321.614a1.043,1.043,0,0,0,.078.916l3.26,5.434a1.029,1.029,0,0,0,.178.222c.388.361,1.716,1.412,2.742-.018a9.185,9.185,0,0,1,2.575-2.785,1.042,1.042,0,0,1,1.406.463,38.9,38.9,0,0,1,2.231,5.292,1.038,1.038,0,0,1-.6,1.273,28.891,28.891,0,0,1-6.26,1.826,1.041,1.041,0,0,1-.986-.418c-1-1.368-3.813-5.191-4.774-6.148-.892-.889-2.539-.554-3.281-.341a1.048,1.048,0,0,1-.833-.109,2.3,2.3,0,0,1-.865-3.5,1.043,1.043,0,0,0-.323-1.417,2.307,2.307,0,0,1-.883-3.272,3.251,3.251,0,0,1,3.521-1.724,1.082,1.082,0,0,0,1.136-.631.689.689,0,0,1,.538-.424,1.012,1.012,0,0,0,.819-1.189,2.669,2.669,0,0,1,1.491-3.059c2.82-1.55,5.29.976,5.918,3.108s-2.525,3.64-4.508,3.892C184.146,319.193,183.347,320.783,183.026,321.614Z" transform="translate(-176.336 -311.53)"/>
            <path id="Path_123" data-name="Path 123" d="M186.025,339.028s-1.254-3.669-2.859-3.535-2.868,1.734-.879,3.532C184.761,341.261,186.025,339.028,186.025,339.028Z" transform="translate(-178.263 -320.893)" fill="url(#linear-gradient-46)"/>
          </g>
          <path id="Path_124" data-name="Path 124" d="M165.918,381.292c-2.116-5.79-1.348-12.781-1.34-12.851l.583.067c-.008.068-.759,6.926,1.309,12.583Z" transform="translate(-153.78 -319.315)" fill="url(#linear-gradient-47)"/>
          <path id="Path_125" data-name="Path 125" d="M187.126,458.177a.293.293,0,0,1-.283-.22c-.646-2.489-5.479-5.225-5.527-5.252a.293.293,0,1,1,.287-.512c.208.116,5.1,2.886,5.808,5.617a.294.294,0,0,1-.21.358A.315.315,0,0,1,187.126,458.177Z" transform="translate(-160.317 -352.03)" fill="url(#linear-gradient-48)"/>
        </g>
        <g id="Group_41" data-name="Group 41" transform="translate(0 202.144)">
          <path id="Path_126" data-name="Path 126" d="M276.392,663.854a2.28,2.28,0,0,1-2.33-1.4l-36.8-154.435c-.217-.912.651-1.776,1.939-1.931a2.413,2.413,0,0,1,2.726,1.373l36.8,154.435c.217.912-.651,1.777-1.939,1.931A3.362,3.362,0,0,1,276.392,663.854Z" transform="translate(-149.887 -506.068)" fill="#283357"/>
          <path id="Path_127" data-name="Path 127" d="M96.226,665.142a3.241,3.241,0,0,1-.47-.034c-1.281-.183-2.11-1.066-1.851-1.973l43.377-152.425a2.461,2.461,0,0,1,2.786-1.312c1.281.183,2.11,1.067,1.852,1.973L98.543,663.8A2.315,2.315,0,0,1,96.226,665.142Z" transform="translate(-93.858 -507.355)" fill="#283357"/>
          <path id="Path_128" data-name="Path 128" d="M213.572,569.773H150.691c-1.306,0-2.365-.75-2.365-1.675s1.059-1.675,2.365-1.675h62.881c1.306,0,2.366.75,2.366,1.675S214.878,569.773,213.572,569.773Z" transform="translate(-115.143 -529.653)" fill="#283357"/>
          <path id="Path_129" data-name="Path 129" d="M213.219,569.773h-60.6c-1.259,0-2.28-.75-2.28-1.675s1.02-1.675,2.28-1.675h60.6c1.259,0,2.28.75,2.28,1.675S214.478,569.773,213.219,569.773Z" transform="translate(-115.931 -529.653)" fill="#283357"/>
          <path id="Path_130" data-name="Path 130" d="M213.572,615.609H150.691c-1.306,0-2.365-.749-2.365-1.675s1.059-1.675,2.365-1.675h62.881c1.306,0,2.366.75,2.366,1.675S214.878,615.609,213.572,615.609Z" transform="translate(-115.143 -547.565)" fill="#283357"/>
          <path id="Path_131" data-name="Path 131" d="M214.378,615.609H138.144c-1.306,0-2.365-.749-2.365-1.675s1.059-1.675,2.365-1.675h76.234c1.306,0,2.366.75,2.366,1.675S215.684,615.609,214.378,615.609Z" transform="translate(-110.24 -547.565)" fill="#283357"/>
          <path id="Path_132" data-name="Path 132" d="M213.572,661.445H150.691c-1.306,0-2.365-.75-2.365-1.675s1.059-1.675,2.365-1.675h62.881c1.306,0,2.366.75,2.366,1.675S214.878,661.445,213.572,661.445Z" transform="translate(-115.143 -565.478)" fill="#283357"/>
          <path id="Path_133" data-name="Path 133" d="M216.7,661.445H125.446c-1.306,0-2.366-.75-2.366-1.675s1.059-1.675,2.366-1.675H216.7c1.307,0,2.366.75,2.366,1.675S218,661.445,216.7,661.445Z" transform="translate(-105.277 -565.478)" fill="#283357"/>
          <path id="Path_134" data-name="Path 134" d="M199,707.281H113.4c-1.306,0-2.365-.75-2.365-1.675s1.059-1.676,2.365-1.676H199c1.306,0,2.366.75,2.366,1.676S200.306,707.281,199,707.281Z" transform="translate(-100.572 -583.39)" fill="#283357"/>
          <path id="Path_135" data-name="Path 135" d="M217.881,707.281H113.4c-1.306,0-2.365-.75-2.365-1.675s1.059-1.676,2.365-1.676H217.881c1.307,0,2.366.75,2.366,1.676S219.188,707.281,217.881,707.281Z" transform="translate(-100.572 -583.39)" fill="#283357"/>
        </g>
        <path id="Path_136" data-name="Path 136" d="M619.93,524.178h-.143a.3.3,0,1,1,0-.609h.143q1.449,0,2.9-.021a.289.289,0,0,1,.309.3.3.3,0,0,1-.3.309Q621.385,524.179,619.93,524.178Zm-3.188-.026h-.005q-1.526-.025-3.05-.073a.3.3,0,1,1,.02-.609q1.52.049,3.04.073a.3.3,0,0,1,0,.609Zm9.137-.064a.3.3,0,0,1-.009-.609q1.52-.047,3.04-.116a.3.3,0,0,1,.318.29.3.3,0,0,1-.29.318q-1.524.072-3.049.118Zm-15.226-.13h-.015q-1.524-.072-3.047-.168a.305.305,0,0,1-.284-.323.3.3,0,0,1,.323-.284q1.517.1,3.037.168a.3.3,0,0,1-.015.609Zm21.311-.15a.3.3,0,0,1-.018-.609q1.519-.094,3.035-.211a.3.3,0,0,1,.327.28.3.3,0,0,1-.28.327q-1.52.119-3.044.212Zm-27.391-.233h-.024q-1.521-.12-3.04-.263a.3.3,0,0,1-.274-.332.309.309,0,0,1,.332-.275q1.513.144,3.03.263a.3.3,0,0,1-.024.608Zm33.466-.236a.3.3,0,0,1-.028-.608q1.514-.141,3.027-.306a.3.3,0,0,1,.066.606q-1.517.165-3.037.306ZM598.508,523l-.034,0q-1.517-.167-3.03-.359a.3.3,0,1,1,.076-.6q1.509.191,3.02.358a.3.3,0,0,1-.034.607Zm45.588-.323a.3.3,0,0,1-.037-.607q1.51-.188,3.016-.4a.307.307,0,0,1,.344.26.3.3,0,0,1-.259.344q-1.511.213-3.025.4A.26.26,0,0,1,644.1,522.678Zm-51.631-.44a.335.335,0,0,1-.043,0q-1.51-.216-3.017-.454a.3.3,0,0,1,.1-.6q1.5.238,3.008.453a.3.3,0,0,1-.043.606Zm57.665-.409a.3.3,0,0,1-.047-.606q1.5-.236,3-.5a.305.305,0,0,1,.1.6q-1.5.259-3.011.5A.305.305,0,0,1,650.13,521.829Zm-63.682-.546a.309.309,0,0,1-.052,0q-1.5-.263-3-.549a.3.3,0,1,1,.115-.6q1.493.286,2.991.548a.3.3,0,0,1-.052.6Zm69.685-.495a.3.3,0,0,1-.057-.6q1.495-.283,2.984-.591a.3.3,0,0,1,.36.236.3.3,0,0,1-.237.359q-1.493.309-2.993.593A.307.307,0,0,1,656.134,520.788Zm-75.669-.651a.276.276,0,0,1-.062-.006l-.9-.188q-1.044-.223-2.085-.456a.3.3,0,0,1-.23-.364.309.309,0,0,1,.364-.231q1.038.233,2.079.455l.893.188a.3.3,0,0,1-.062.6Zm81.636-.581a.3.3,0,0,1-.066-.6q1.485-.331,2.963-.687a.3.3,0,0,1,.142.593q-1.483.355-2.973.689A.355.355,0,0,1,662.1,519.556Zm-87.58-.751a.326.326,0,0,1-.072-.008q-1.481-.356-2.959-.735a.3.3,0,0,1-.219-.37.309.309,0,0,1,.371-.22q1.472.377,2.95.734a.3.3,0,0,1-.071.6Zm93.505-.672a.3.3,0,0,1-.076-.6q1.473-.379,2.94-.782a.3.3,0,1,1,.161.588q-1.47.4-2.949.785A.327.327,0,0,1,668.026,518.134Zm-99.4-.839a.3.3,0,0,1-.08-.01q-1.471-.4-2.936-.824a.3.3,0,0,1,.169-.586q1.459.421,2.927.822a.3.3,0,0,1-.08.6Zm105.278-.775a.3.3,0,0,1-.085-.6q1.459-.427,2.912-.878a.3.3,0,0,1,.181.582q-1.458.452-2.922.881A.317.317,0,0,1,673.9,516.519ZM562.774,515.6a.3.3,0,0,1-.089-.013q-1.459-.445-2.91-.91a.3.3,0,0,1,.186-.58q1.448.464,2.9.907a.3.3,0,0,1-.089.6Zm116.948-.893a.3.3,0,0,1-.1-.593q1.446-.476,2.882-.974a.3.3,0,1,1,.2.576q-1.441.5-2.891.977A.309.309,0,0,1,679.721,514.712Zm-122.747-.968a.3.3,0,0,1-.1-.016q-1.445-.488-2.882-1a.3.3,0,1,1,.2-.574q1.434.506,2.874.994a.3.3,0,0,1-.1.593Zm128.5-1.031a.3.3,0,0,1-.1-.591q1.428-.523,2.847-1.07a.3.3,0,0,1,.219.569q-1.425.549-2.857,1.073A.318.318,0,0,1,685.477,512.713Zm-134.244-1a.307.307,0,0,1-.106-.019q-1.43-.53-2.852-1.079a.3.3,0,0,1,.219-.569q1.418.548,2.845,1.077a.3.3,0,0,1-.106.59Zm139.93-1.192a.3.3,0,0,1-.114-.587q1.409-.57,2.809-1.165a.3.3,0,0,1,.238.56q-1.4.6-2.818,1.17A.3.3,0,0,1,691.162,510.522Zm-145.611-1a.312.312,0,0,1-.114-.022q-1.415-.57-2.821-1.161a.3.3,0,1,1,.235-.561q1.4.588,2.814,1.156a.3.3,0,0,1-.114.587Zm151.218-1.379a.3.3,0,0,1-.124-.583q1.389-.619,2.767-1.261a.3.3,0,0,1,.258.552q-1.384.644-2.777,1.266A.3.3,0,0,1,696.769,508.138Zm-156.836-.977a.3.3,0,0,1-.121-.026q-1.4-.61-2.788-1.24a.3.3,0,1,1,.252-.555q1.385.629,2.779,1.237a.3.3,0,0,1-.122.584Zm162.357-1.6a.3.3,0,0,1-.133-.579q1.365-.667,2.72-1.357a.3.3,0,1,1,.277.542q-1.36.694-2.731,1.363A.305.305,0,0,1,702.29,505.562Zm-167.905-.917a.307.307,0,0,1-.13-.029q-1.381-.649-2.752-1.317a.3.3,0,0,1,.267-.548q1.368.667,2.744,1.314a.3.3,0,0,1-.129.58Zm173.332-1.85a.3.3,0,0,1-.144-.574q1.342-.714,2.671-1.453a.3.3,0,0,1,.3.533q-1.333.741-2.68,1.458A.3.3,0,0,1,707.717,502.794Zm-178.811-.818a.306.306,0,0,1-.136-.033q-1.362-.687-2.715-1.393a.3.3,0,1,1,.282-.54q1.349.7,2.707,1.39a.3.3,0,0,1-.138.576Zm184.134-2.141a.3.3,0,0,1-.153-.568q1.315-.761,2.617-1.547a.3.3,0,1,1,.315.521q-1.307.789-2.626,1.554A.3.3,0,0,1,713.04,499.836ZM523.5,499.158a.31.31,0,0,1-.144-.037q-1.342-.724-2.676-1.466a.3.3,0,1,1,.3-.532q1.33.74,2.668,1.462a.3.3,0,0,1-.145.573Zm194.75-2.47a.3.3,0,0,1-.163-.562q1.287-.809,2.558-1.641a.3.3,0,0,1,.334.509q-1.277.836-2.567,1.647A.3.3,0,0,1,718.254,496.688Zm-200.074-.493a.305.305,0,0,1-.152-.041q-1.322-.76-2.635-1.537a.3.3,0,0,1,.311-.525q1.309.775,2.628,1.533a.3.3,0,0,1-.152.569Zm205.167-2.842a.3.3,0,0,1-.172-.556q1.256-.855,2.495-1.735a.3.3,0,1,1,.353.5q-1.245.883-2.5,1.741A.309.309,0,0,1,723.347,493.353Zm-210.411-.264a.3.3,0,0,1-.158-.044q-1.3-.795-2.593-1.608a.3.3,0,1,1,.325-.515q1.288.81,2.587,1.6a.3.3,0,0,1-.16.565Zm-5.158-3.244a.31.31,0,0,1-.166-.049q-1.28-.83-2.55-1.675a.3.3,0,1,1,.338-.507q1.267.844,2.543,1.67a.3.3,0,0,1-.166.561Zm220.536-.014a.3.3,0,0,1-.181-.549q1.223-.9,2.43-1.827a.3.3,0,0,1,.37.483q-1.212.929-2.439,1.834A.3.3,0,0,1,728.314,489.831Zm-225.608-3.364a.3.3,0,0,1-.172-.054q-1.258-.862-2.506-1.74a.3.3,0,0,1,.351-.5q1.244.876,2.5,1.737a.3.3,0,0,1-.173.556Zm230.441-.344a.3.3,0,0,1-.19-.543q1.187-.949,2.356-1.921a.3.3,0,0,1,.39.468q-1.173.976-2.365,1.928A.307.307,0,0,1,733.147,486.123Zm-235.423-3.165a.3.3,0,0,1-.178-.058q-1.235-.893-2.46-1.8a.3.3,0,1,1,.364-.489q1.221.908,2.453,1.8a.3.3,0,0,1-.178.551Zm240.105-.729a.3.3,0,0,1-.2-.535q1.15-.994,2.279-2.011a.3.3,0,1,1,.408.453q-1.134,1.021-2.288,2.019A.3.3,0,0,1,737.83,482.229Zm-245-2.908a.3.3,0,0,1-.184-.062q-1.214-.926-2.413-1.867a.3.3,0,0,1,.376-.479q1.2.939,2.406,1.862a.3.3,0,0,1-.185.547Zm249.525-1.166a.3.3,0,0,1-.208-.527q1.109-1.038,2.2-2.1a.3.3,0,0,1,.425.437q-1.095,1.063-2.209,2.105A.3.3,0,0,1,742.358,478.155Zm-254.32-2.593a.3.3,0,0,1-.191-.067q-1.188-.956-2.365-1.928a.3.3,0,0,1,.388-.47q1.173.969,2.359,1.923a.3.3,0,0,1-.191.542Zm258.688-1.652a.3.3,0,0,1-.217-.519q1.07-1.08,2.119-2.18a.3.3,0,0,1,.441.42q-1.054,1.106-2.127,2.189A.3.3,0,0,1,746.726,473.911ZM483.34,471.683a.306.306,0,0,1-.2-.072q-1.164-.986-2.316-1.987a.3.3,0,1,1,.4-.459q1.148,1,2.309,1.981a.3.3,0,0,1-.2.537ZM750.929,469.5a.3.3,0,0,1-.224-.511q1.028-1.119,2.035-2.259a.3.3,0,1,1,.456.4q-1.011,1.143-2.043,2.267A.3.3,0,0,1,750.929,469.5Zm-272.188-1.815a.3.3,0,0,1-.2-.077q-1.139-1.014-2.265-2.044a.3.3,0,0,1,.411-.45q1.123,1.027,2.259,2.039a.3.3,0,0,1-.2.532Zm276.222-2.748a.3.3,0,0,1-.232-.5q.985-1.158,1.949-2.333a.3.3,0,1,1,.471.386q-.967,1.179-1.956,2.342A.3.3,0,0,1,754.964,464.938Zm-280.72-1.362a.306.306,0,0,1-.208-.082q-1.112-1.044-2.212-2.1a.3.3,0,1,1,.422-.439q1.1,1.053,2.207,2.093a.3.3,0,0,1,.014.431A.3.3,0,0,1,474.243,463.577Zm284.579-3.351a.305.305,0,0,1-.239-.494q.941-1.193,1.86-2.405a.3.3,0,1,1,.485.367q-.923,1.217-1.867,2.415A.3.3,0,0,1,758.823,460.226Zm-288.972-.871a.3.3,0,0,1-.214-.088q-1.087-1.071-2.16-2.154a.3.3,0,1,1,.433-.428q1.071,1.081,2.154,2.149a.3.3,0,0,1-.214.522Zm292.655-3.983a.3.3,0,0,1-.245-.484q.9-1.228,1.77-2.473a.3.3,0,1,1,.5.35q-.877,1.249-1.776,2.482A.3.3,0,0,1,762.506,455.373Zm-296.941-.345a.3.3,0,0,1-.219-.093q-1.059-1.1-2.105-2.207a.3.3,0,1,1,.444-.417q1.043,1.106,2.1,2.2a.3.3,0,0,1-.219.516Zm-4.178-4.434a.3.3,0,0,1-.224-.1q-1.033-1.123-2.05-2.257a.3.3,0,1,1,.453-.407q1.015,1.132,2.045,2.252a.3.3,0,0,1-.224.511ZM766,450.386a.3.3,0,0,1-.17-.052.3.3,0,0,1-.082-.422q.85-1.261,1.677-2.537a.3.3,0,1,1,.511.331q-.83,1.281-1.683,2.547A.3.3,0,0,1,766,450.386Zm-308.686-4.326a.3.3,0,0,1-.229-.1q-1-1.149-1.993-2.308a.3.3,0,0,1,.464-.4q.987,1.157,1.988,2.3a.3.3,0,0,1-.23.505Zm312-.786a.305.305,0,0,1-.258-.465q.8-1.292,1.582-2.6a.3.3,0,0,1,.523.312q-.782,1.311-1.588,2.607A.305.305,0,0,1,769.318,445.273Zm-315.951-3.847a.3.3,0,0,1-.235-.11q-.975-1.172-1.935-2.356a.3.3,0,1,1,.473-.383q.958,1.18,1.931,2.35a.3.3,0,0,1-.234.5Zm319.073-1.387a.305.305,0,0,1-.264-.456q.755-1.32,1.485-2.654a.3.3,0,1,1,.534.292q-.733,1.34-1.49,2.664A.3.3,0,0,1,772.439,440.039ZM449.53,436.7a.306.306,0,0,1-.239-.116q-.6-.758-1.195-1.523-.342-.438-.682-.88a.3.3,0,1,1,.482-.371q.339.439.68.877.593.762,1.192,1.519a.305.305,0,0,1-.238.494Zm325.835-2a.311.311,0,0,1-.141-.035.305.305,0,0,1-.128-.411q.705-1.348,1.385-2.708a.3.3,0,1,1,.545.272q-.683,1.365-1.39,2.718A.3.3,0,0,1,775.365,434.695Zm-329.557-2.82a.3.3,0,0,1-.243-.122q-.918-1.216-1.826-2.442a.3.3,0,1,1,.49-.363q.906,1.224,1.822,2.439a.3.3,0,0,1-.059.426A.309.309,0,0,1,445.808,431.875Zm332.28-2.632a.3.3,0,0,1-.13-.03.3.3,0,0,1-.144-.406q.654-1.373,1.284-2.758a.3.3,0,0,1,.554.252q-.632,1.391-1.288,2.768A.3.3,0,0,1,778.088,429.243Zm-335.907-2.266a.3.3,0,0,1-.247-.125q-.9-1.231-1.786-2.47a.3.3,0,0,1,.495-.356q.888,1.236,1.784,2.467a.3.3,0,0,1-.246.484Zm338.425-3.284a.3.3,0,0,1-.28-.425q.6-1.4,1.178-2.8a.3.3,0,0,1,.564.231q-.579,1.413-1.182,2.815A.3.3,0,0,1,780.606,423.693Zm-341.981-1.664a.3.3,0,0,1-.249-.128q-.883-1.242-1.759-2.488a.3.3,0,1,1,.5-.352q.876,1.246,1.758,2.486a.3.3,0,0,1-.248.481Zm344.288-3.977a.314.314,0,0,1-.11-.02.305.305,0,0,1-.174-.395q.548-1.418,1.07-2.847a.3.3,0,1,1,.572.209q-.524,1.435-1.075,2.858A.3.3,0,0,1,782.914,418.052Zm-347.8-1a.3.3,0,0,1-.25-.13l-1.746-2.5a.3.3,0,1,1,.5-.349l1.745,2.5a.305.305,0,0,1-.249.479ZM785,412.327a.3.3,0,0,1-.1-.017.3.3,0,0,1-.189-.386q.494-1.439.96-2.886a.3.3,0,0,1,.58.187q-.468,1.453-.964,2.9A.3.3,0,0,1,785,412.327Zm-353.377-.274a.3.3,0,0,1-.25-.13l-1.745-2.5a.3.3,0,0,1,.5-.35l1.745,2.5a.3.3,0,0,1-.249.479Zm-3.5-4.988a.3.3,0,0,1-.249-.129q-.876-1.245-1.758-2.486a.3.3,0,0,1,.5-.352q.882,1.241,1.759,2.487a.3.3,0,0,1-.074.425A.3.3,0,0,1,428.131,407.065Zm358.74-.539a.32.32,0,0,1-.088-.013.3.3,0,0,1-.2-.379q.439-1.457.847-2.921a.3.3,0,1,1,.587.164q-.411,1.47-.851,2.932A.3.3,0,0,1,786.871,406.526ZM424.6,402.1a.3.3,0,0,1-.248-.127q-.888-1.236-1.783-2.467a.3.3,0,0,1,.493-.358q.9,1.232,1.786,2.47a.3.3,0,0,1-.247.483Zm363.907-1.443a.3.3,0,0,1-.076-.009.3.3,0,0,1-.219-.372q.38-1.472.732-2.952a.3.3,0,0,1,.592.14q-.353,1.487-.734,2.964A.3.3,0,0,1,788.512,400.657Zm-367.494-3.482a.3.3,0,0,1-.245-.123q-.906-1.223-1.821-2.437a.3.3,0,1,1,.486-.366q.917,1.215,1.824,2.441a.3.3,0,0,1-.244.486Zm368.9-2.448a.291.291,0,0,1-.065-.007.3.3,0,0,1-.233-.362q.322-1.486.613-2.978a.3.3,0,0,1,.6.116q-.293,1.5-.615,2.99A.3.3,0,0,1,789.918,394.727Zm-372.57-2.411a.3.3,0,0,1-.241-.118q-.929-1.205-1.872-2.4a.3.3,0,0,1,.478-.378q.945,1.2,1.876,2.4a.3.3,0,0,1-.055.427A.3.3,0,0,1,417.348,392.316Zm373.738-3.568a.255.255,0,0,1-.052,0,.3.3,0,0,1-.248-.352q.261-1.5.492-3a.3.3,0,0,1,.6.093q-.231,1.509-.494,3.013A.3.3,0,0,1,791.086,388.748Zm-377.516-1.209a.3.3,0,0,1-.236-.112q-.96-1.179-1.935-2.345a.3.3,0,0,1,.467-.392q.978,1.17,1.94,2.353a.3.3,0,0,1-.236.5Zm-3.911-4.668a.3.3,0,0,1-.23-.105q-.994-1.15-2.009-2.282a.3.3,0,0,1,.454-.407q1.018,1.137,2.015,2.29a.3.3,0,0,1-.23.5Zm382.35-.144a.277.277,0,0,1-.04,0,.3.3,0,0,1-.263-.342q.2-1.507.367-3.017a.3.3,0,0,1,.606.068q-.169,1.517-.369,3.03A.305.305,0,0,1,792.009,382.726Zm-386.415-4.391a.3.3,0,0,1-.223-.1q-1.035-1.113-2.093-2.205a.3.3,0,1,1,.437-.423q1.063,1.1,2.1,2.213a.3.3,0,0,1-.223.512Zm387.088-1.663h-.028a.3.3,0,0,1-.276-.331q.136-1.512.241-3.029a.3.3,0,0,1,.608.041q-.105,1.523-.242,3.042A.3.3,0,0,1,792.682,376.672ZM401.354,373.96a.305.305,0,0,1-.214-.088q-1.079-1.067-2.185-2.113a.3.3,0,0,1,.418-.443q1.111,1.051,2.2,2.123a.3.3,0,0,1-.214.521ZM793.1,370.6h-.015a.3.3,0,0,1-.289-.319q.072-1.518.112-3.036a.293.293,0,0,1,.312-.3.3.3,0,0,1,.3.312q-.04,1.526-.112,3.05A.305.305,0,0,1,793.1,370.6Zm-396.176-.821a.305.305,0,0,1-.2-.078c-.75-.674-1.521-1.346-2.291-2a.3.3,0,1,1,.393-.465c.775.654,1.55,1.329,2.306,2.007a.3.3,0,0,1-.2.531Zm-4.66-3.931a.3.3,0,0,1-.188-.066c-.788-.623-1.6-1.245-2.412-1.848a.3.3,0,0,1,.363-.489c.818.607,1.634,1.232,2.427,1.859a.3.3,0,0,1-.189.544Zm400.993-1.337h0a.305.305,0,0,1-.3-.306l0-.608q0-1.215-.021-2.432a.3.3,0,0,1,.3-.309h.005a.3.3,0,0,1,.3.3q.021,1.222.021,2.442l0,.61A.3.3,0,0,1,793.257,364.509Zm-405.887-2.3a.3.3,0,0,1-.174-.055c-.83-.576-1.678-1.147-2.521-1.695a.3.3,0,1,1,.332-.51c.848.551,1.7,1.125,2.537,1.706a.3.3,0,0,1-.174.554Zm-5.109-3.32a.3.3,0,0,1-.157-.044c-.861-.522-1.743-1.037-2.622-1.532a.3.3,0,1,1,.3-.531c.885.5,1.773,1.017,2.639,1.541a.3.3,0,0,1-.158.565Zm410.89-.476a.3.3,0,0,1-.3-.292q-.06-1.518-.153-3.036a.3.3,0,0,1,.285-.323.311.311,0,0,1,.323.286q.094,1.523.153,3.049a.3.3,0,0,1-.292.316Zm-416.2-2.512a.307.307,0,0,1-.141-.034c-.9-.467-1.811-.924-2.715-1.357a.3.3,0,1,1,.263-.55c.911.436,1.831.9,2.734,1.366a.3.3,0,0,1-.141.574Zm-5.494-2.628a.308.308,0,0,1-.122-.026c-.925-.405-1.868-.8-2.8-1.166a.3.3,0,1,1,.224-.567c.94.372,1.889.766,2.821,1.175a.3.3,0,0,1-.122.584Zm421.317-.939a.3.3,0,0,1-.3-.279q-.128-1.513-.288-3.026a.3.3,0,1,1,.606-.064q.161,1.519.289,3.039a.3.3,0,0,1-.278.329ZM321.24,351.4a.3.3,0,0,1-.125-.582c.931-.42,1.883-.814,2.83-1.173a.3.3,0,0,1,.216.57c-.936.355-1.877.744-2.8,1.158A.3.3,0,0,1,321.24,351.4Zm44.558-.358a.316.316,0,0,1-.1-.017c-.95-.336-1.918-.658-2.878-.957a.3.3,0,0,1,.181-.582c.967.3,1.943.626,2.9.964a.3.3,0,0,1-.1.592Zm-38.864-1.8a.3.3,0,0,1-.091-.6c.97-.3,1.963-.577,2.952-.821a.3.3,0,0,1,.146.591c-.977.241-1.959.514-2.917.811A.293.293,0,0,1,326.933,349.24Zm33.051-.007a.323.323,0,0,1-.079-.01c-.977-.262-1.968-.506-2.944-.724a.3.3,0,0,1-.23-.364.308.308,0,0,1,.364-.23c.984.221,1.982.466,2.968.731a.3.3,0,0,1-.079.6Zm-5.94-1.329a.316.316,0,0,1-.054,0c-.991-.178-2-.335-2.994-.467a.3.3,0,0,1,.08-.6c1,.134,2.021.292,3.021.472a.3.3,0,0,1-.053.6Zm-21.2-.121a.3.3,0,0,1-.055-.6c1-.185,2.018-.342,3.027-.468a.3.3,0,1,1,.076.6c-1,.125-2,.281-2.992.463A.356.356,0,0,1,332.845,347.782Zm15.166-.677h-.026c-1-.086-2.02-.147-3.023-.183a.3.3,0,0,1-.294-.315.312.312,0,0,1,.316-.294c1.013.036,2.04.1,3.053.185a.3.3,0,0,1-.026.608Zm-9.125-.085a.3.3,0,0,1-.021-.609c1.005-.07,2.034-.114,3.059-.13a.3.3,0,0,1,.309.3.3.3,0,0,1-.3.309c-1.014.016-2.032.059-3.026.129Zm453.244-.74a.3.3,0,0,1-.3-.266q-.2-1.507-.429-3.008a.3.3,0,1,1,.6-.093q.233,1.509.431,3.023a.305.305,0,0,1-.263.342A.29.29,0,0,1,792.129,346.28Zm-.93-6.02a.3.3,0,0,1-.3-.251q-.267-1.5-.569-2.985a.3.3,0,1,1,.6-.121q.3,1.5.571,3a.306.306,0,0,1-.247.353A.33.33,0,0,1,791.2,340.26Zm-1.21-5.969a.3.3,0,0,1-.3-.238q-.336-1.481-.706-2.955a.3.3,0,1,1,.591-.149q.371,1.48.709,2.969a.3.3,0,0,1-.23.364A.285.285,0,0,1,789.99,334.291Zm-1.482-5.908a.3.3,0,0,1-.293-.224q-.4-1.465-.84-2.921a.3.3,0,1,1,.584-.176q.439,1.463.843,2.934a.3.3,0,0,1-.213.375A.316.316,0,0,1,788.507,328.383Zm-1.747-5.834a.3.3,0,0,1-.289-.211q-.469-1.446-.969-2.88a.3.3,0,0,1,.576-.2q.5,1.442.973,2.893a.3.3,0,0,1-.2.384A.3.3,0,0,1,786.761,322.549Zm-2-5.752a.3.3,0,0,1-.285-.2q-.532-1.423-1.095-2.835a.3.3,0,1,1,.566-.227q.566,1.419,1.1,2.848a.3.3,0,0,1-.179.392A.311.311,0,0,1,784.756,316.8Zm-2.255-5.658a.3.3,0,0,1-.281-.186q-.593-1.4-1.217-2.785a.3.3,0,0,1,.556-.25q.627,1.392,1.223,2.8a.3.3,0,0,1-.28.423Zm-2.5-5.555a.306.306,0,0,1-.275-.174q-.653-1.372-1.337-2.73a.3.3,0,0,1,.544-.274q.686,1.362,1.343,2.741a.305.305,0,0,1-.275.436Zm-2.737-5.443a.306.306,0,0,1-.27-.161q-.711-1.343-1.452-2.671a.3.3,0,0,1,.532-.3q.744,1.332,1.458,2.682a.3.3,0,0,1-.126.412A.3.3,0,0,1,777.264,300.142Zm-2.968-5.32a.305.305,0,0,1-.263-.15q-.768-1.312-1.565-2.607a.3.3,0,1,1,.518-.319q.8,1.3,1.572,2.617a.3.3,0,0,1-.262.459Zm-3.192-5.19a.307.307,0,0,1-.257-.139q-.824-1.278-1.675-2.538a.3.3,0,1,1,.505-.341q.854,1.265,1.682,2.549a.3.3,0,0,1-.091.42A.3.3,0,0,1,771.1,289.632Zm-3.412-5.049a.3.3,0,0,1-.248-.129q-.878-1.241-1.782-2.465a.3.3,0,1,1,.49-.361q.907,1.227,1.789,2.474a.3.3,0,0,1-.073.425A.3.3,0,0,1,767.692,284.583Zm-3.623-4.9a.3.3,0,0,1-.241-.118q-.93-1.2-1.886-2.386a.3.3,0,0,1,.473-.383q.96,1.188,1.895,2.4a.3.3,0,0,1-.241.49Zm-3.831-4.74a.3.3,0,0,1-.233-.108q-.981-1.162-1.987-2.3a.3.3,0,0,1,.457-.4q1.011,1.145,2,2.313a.3.3,0,0,1-.233.5Zm-4.032-4.571a.3.3,0,0,1-.224-.1q-1.031-1.118-2.085-2.214a.3.3,0,1,1,.439-.422q1.059,1.1,2.094,2.224a.3.3,0,0,1-.224.511Zm-4.227-4.392a.3.3,0,0,1-.214-.089q-1.079-1.072-2.18-2.121a.3.3,0,0,1,.42-.441q1.106,1.053,2.19,2.13a.3.3,0,0,1-.215.52Zm-151.087-1.315a.305.305,0,0,1-.266-.453c.5-.885,1.021-1.77,1.563-2.632a.3.3,0,0,1,.516.325c-.536.852-1.056,1.728-1.547,2.6A.3.3,0,0,1,600.892,264.664Zm146.671-2.886a.306.306,0,0,1-.205-.079q-1.125-1.024-2.272-2.023a.3.3,0,1,1,.4-.459q1.152,1,2.282,2.031a.3.3,0,0,1,.02.43A.3.3,0,0,1,747.563,261.777Zm-143.431-2.268a.3.3,0,0,1-.249-.479c.584-.833,1.2-1.661,1.818-2.461a.3.3,0,0,1,.481.373c-.617.793-1.222,1.613-1.8,2.438A.3.3,0,0,1,604.132,259.509Zm138.831-1.732a.307.307,0,0,1-.2-.07q-1.169-.972-2.36-1.917a.3.3,0,1,1,.378-.477q1.2.948,2.372,1.925a.3.3,0,0,1-.195.539Zm-135.1-3.077a.308.308,0,0,1-.2-.073.3.3,0,0,1-.032-.429c.662-.772,1.351-1.538,2.045-2.276a.3.3,0,1,1,.443.417c-.688.732-1.37,1.49-2.026,2.255A.3.3,0,0,1,607.867,254.7Zm130.321-.712a.307.307,0,0,1-.184-.062q-1.213-.917-2.445-1.806a.3.3,0,0,1,.356-.494q1.238.894,2.457,1.815a.3.3,0,0,1-.184.547Zm-4.944-3.564a.3.3,0,0,1-.172-.054q-1.254-.861-2.527-1.689a.3.3,0,1,1,.333-.511q1.279.833,2.539,1.7a.3.3,0,0,1-.172.556Zm-121.2-.16a.3.3,0,0,1-.212-.523c.728-.7,1.483-1.4,2.245-2.079a.3.3,0,1,1,.4.456c-.755.668-1.5,1.362-2.225,2.06A.3.3,0,0,1,612.041,250.266Zm116.1-3.167a.307.307,0,0,1-.16-.046q-1.292-.8-2.6-1.568a.3.3,0,0,1,.308-.526q1.317.772,2.615,1.575a.3.3,0,0,1-.161.564Zm-111.54-.872a.3.3,0,0,1-.192-.542c.786-.636,1.6-1.267,2.417-1.875a.3.3,0,0,1,.363.489c-.811.6-1.618,1.228-2.4,1.859A.305.305,0,0,1,616.6,246.227Zm106.284-2.206a.307.307,0,0,1-.147-.038q-1.329-.736-2.675-1.44a.3.3,0,0,1,.283-.54q1.353.707,2.688,1.446a.3.3,0,0,1-.148.571ZM621.492,242.6a.3.3,0,0,1-.171-.557c.839-.569,1.7-1.129,2.567-1.664a.3.3,0,1,1,.32.517c-.856.53-1.712,1.086-2.545,1.651A.3.3,0,0,1,621.492,242.6Zm96-1.4a.315.315,0,0,1-.135-.031q-1.362-.67-2.741-1.3a.3.3,0,0,1,.255-.554q1.385.639,2.755,1.311a.3.3,0,0,1-.135.578Zm-90.818-1.813a.3.3,0,0,1-.15-.57c.882-.5,1.788-.984,2.694-1.448a.3.3,0,0,1,.278.543c-.9.46-1.8.943-2.672,1.436A.3.3,0,0,1,626.669,239.389Zm85.291-.734a.291.291,0,0,1-.121-.025q-1.393-.6-2.8-1.164a.3.3,0,1,1,.227-.565q1.415.567,2.816,1.17a.3.3,0,0,1-.121.584Zm-79.87-2.042a.3.3,0,0,1-.128-.581c.929-.428,1.872-.841,2.8-1.226a.3.3,0,0,1,.233.563c-.922.382-1.858.791-2.779,1.217A.307.307,0,0,1,632.091,236.614Zm74.224-.22a.3.3,0,0,1-.107-.02q-1.42-.528-2.855-1.019a.3.3,0,1,1,.2-.576q1.442.493,2.871,1.025a.3.3,0,0,1-.106.59Zm-5.754-1.97a.313.313,0,0,1-.091-.013q-1.448-.454-2.91-.872a.3.3,0,1,1,.168-.585q1.47.419,2.924.875a.3.3,0,0,1-.091.6Zm-62.843-.142a.3.3,0,0,1-.106-.591c.959-.352,1.931-.688,2.89-1a.3.3,0,0,1,.188.579c-.952.308-1.916.641-2.868.992A.317.317,0,0,1,637.717,234.282Zm56.986-1.527a.3.3,0,0,1-.076-.01q-1.47-.378-2.952-.718a.3.3,0,0,1,.137-.593c.977.224,1.974.467,2.967.722a.3.3,0,0,1-.076.6Zm-51.193-.347a.3.3,0,0,1-.082-.6c.966-.271,1.961-.531,2.958-.771a.3.3,0,0,1,.143.592c-.99.239-1.978.5-2.936.766A.3.3,0,0,1,643.511,232.408Zm45.257-1.017a.3.3,0,0,1-.061-.006c-1-.2-2-.392-2.985-.564a.3.3,0,1,1,.1-.6c.986.172,2,.362,3,.565a.3.3,0,0,1-.06.6Zm-39.336-.411a.3.3,0,0,1-.06-.6c.983-.2,1.994-.386,3.006-.555a.3.3,0,0,1,.1.6c-1,.167-2.009.352-2.984.551A.3.3,0,0,1,649.432,230.98Zm33.335-.638-.044,0c-1-.147-2.017-.282-3.011-.4a.3.3,0,0,1-.267-.338.3.3,0,0,1,.339-.266c1,.118,2.018.253,3.028.4a.3.3,0,0,1-.044.606Zm-27.327-.361a.3.3,0,0,1-.039-.607c1-.13,2.021-.246,3.037-.344a.308.308,0,0,1,.332.274.305.305,0,0,1-.274.333c-1.009.1-2.024.212-3.016.342A.3.3,0,0,1,655.44,229.981Zm21.278-.357h-.028c-1.017-.091-2.036-.168-3.028-.228a.3.3,0,1,1,.037-.608c1,.06,2.023.138,3.046.23a.3.3,0,0,1-.027.608ZM661.5,229.4a.3.3,0,0,1-.019-.609c1.012-.063,2.039-.111,3.053-.143a.3.3,0,0,1,.019.609c-1.008.031-2.028.079-3.033.142Zm9.135-.141h-.01c-1.007-.032-2.029-.048-3.036-.048a.3.3,0,0,1,0-.609h0c1.013,0,2.041.016,3.055.048a.3.3,0,0,1-.009.609Z" transform="translate(-182.596 -195.493)" fill="#fff"/>
      </g>
    </g>
  </g>
</svg>
