<?xml version="1.0" encoding="utf-8"?>
<!-- Generator: Adobe Illustrator 16.0.0, SVG Export Plug-In . SVG Version: 6.00 Build 0)  -->
<!DOCTYPE svg PUBLIC "-//W3C//DTD SVG 1.1//EN" "http://www.w3.org/Graphics/SVG/1.1/DTD/svg11.dtd">
<svg version="1.1" id="Layer_1" xmlns="http://www.w3.org/2000/svg" xmlns:xlink="http://www.w3.org/1999/xlink" x="0px" y="0px"
	 width="76.667px" height="80.501px" viewBox="0 0 76.667 80.501" enable-background="new 0 0 76.667 80.501" xml:space="preserve">
<polygon fill="#26A3DC" points="7.123,24.596 7.123,62.102 20.302,54.532 20.302,32.229 "/>
<polygon fill="#7CC4E9" points="7.06,24.727 20.302,32.355 39.22,21.397 39.22,6.2 "/>
<polygon fill="#EDC657" points="39.22,6.133 39.22,21.465 58.594,32.748 71.642,24.854 "/>
<polygon fill="#0E6397" points="7.06,62.168 39.481,80.501 39.481,65.169 20.365,54.473 "/>
<polygon fill="#D85D27" points="39.545,65.169 58.661,53.95 71.903,61.974 39.414,80.501 "/>
<polygon fill="#23A4DD" points="39.414,43.317 24.933,51.666 24.933,34.968 "/>
<polygon fill="#F28C36" points="39.351,43.317 53.832,34.968 53.832,51.666 "/>
<polygon fill="#D85D27" points="53.832,51.599 39.351,59.951 39.351,43.25 "/>
<polygon fill="#0167A2" points="24.933,51.599 39.414,43.25 39.414,59.951 "/>
<polygon fill="#83C0E9" points="24.933,34.901 39.414,26.552 39.414,43.25 "/>
<polygon fill="#F7BD66" points="39.351,43.317 39.351,26.615 53.832,34.968 "/>
</svg>
